ISO-10303-21;
HEADER;
/* Generated by software containing ST-Developer
 * from STEP Tools, Inc. (www.steptools.com) 
 */
/* OPTION: using custom renumber hook */

FILE_DESCRIPTION(
/* description */ ('STEP AP242 Edition 2',
'CAx-IF Rec.Pracs.---Representation and Presentation of Product Manufa
cturing Information (PMI)---4.0---2014-10-13',
'CAx-IF Rec.Pracs.---3D Tessellated Geometry---0.4---2014-09-14','2;1',
'CAx-IF Rec.Pracs.---User Defined Attributes---1.5---2016-08-15'),
/* implementation_level */ '2;1');

FILE_NAME(
/* name */ 'DEXI 10 (2) - Part 2__Part 2',
/* time_stamp */ '2026-10-01T05:11:09Z',
/* author */ (''),
/* organization */ (''),
/* preprocessor_version */ 'ST-DEVELOPER v20',
/* originating_system */ 'ONSHAPE BY PTC INC, 1.221',
/* authorisation */ '  ');

FILE_SCHEMA (('AP242_MANAGED_MODEL_BASED_3D_ENGINEERING_MIM_LF { 1 0 10303 442 3 1 4 }'));
ENDSEC;

DATA;
#10=SHAPE_REPRESENTATION_RELATIONSHIP('','',#1115,#11);
#11=ADVANCED_BREP_SHAPE_REPRESENTATION('',(#1113),#1933);
#12=PLANE('',#1135);
#13=PLANE('',#1139);
#14=PLANE('',#1149);
#15=PLANE('',#1150);
#16=PLANE('',#1157);
#17=PLANE('',#1161);
#18=PLANE('',#1165);
#19=PLANE('',#1172);
#20=PLANE('',#1173);
#21=PLANE('',#1177);
#22=PLANE('',#1178);
#23=PLANE('',#1179);
#24=PLANE('',#1189);
#25=PLANE('',#1190);
#26=PLANE('',#1194);
#27=PLANE('',#1195);
#28=PLANE('',#1210);
#29=PLANE('',#1223);
#30=PLANE('',#1226);
#31=PLANE('',#1230);
#32=PLANE('',#1234);
#33=PLANE('',#1238);
#34=PLANE('',#1242);
#35=LINE('',#1626,#107);
#36=LINE('',#1630,#108);
#37=LINE('',#1634,#109);
#38=LINE('',#1640,#110);
#39=LINE('',#1646,#111);
#40=LINE('',#1650,#112);
#41=LINE('',#1652,#113);
#42=LINE('',#1654,#114);
#43=LINE('',#1658,#115);
#44=LINE('',#1662,#116);
#45=LINE('',#1664,#117);
#46=LINE('',#1666,#118);
#47=LINE('',#1670,#119);
#48=LINE('',#1676,#120);
#49=LINE('',#1683,#121);
#50=LINE('',#1687,#122);
#51=LINE('',#1689,#123);
#52=LINE('',#1691,#124);
#53=LINE('',#1693,#125);
#54=LINE('',#1695,#126);
#55=LINE('',#1697,#127);
#56=LINE('',#1699,#128);
#57=LINE('',#1703,#129);
#58=LINE('',#1709,#130);
#59=LINE('',#1713,#131);
#60=LINE('',#1715,#132);
#61=LINE('',#1717,#133);
#62=LINE('',#1721,#134);
#63=LINE('',#1725,#135);
#64=LINE('',#1727,#136);
#65=LINE('',#1729,#137);
#66=LINE('',#1733,#138);
#67=LINE('',#1737,#139);
#68=LINE('',#1739,#140);
#69=LINE('',#1741,#141);
#70=LINE('',#1745,#142);
#71=LINE('',#1751,#143);
#72=LINE('',#1755,#144);
#73=LINE('',#1757,#145);
#74=LINE('',#1759,#146);
#75=LINE('',#1761,#147);
#76=LINE('',#1763,#148);
#77=LINE('',#1765,#149);
#78=LINE('',#1769,#150);
#79=LINE('',#1773,#151);
#80=LINE('',#1776,#152);
#81=LINE('',#1778,#153);
#82=LINE('',#1780,#154);
#83=LINE('',#1782,#155);
#84=LINE('',#1785,#156);
#85=LINE('',#1787,#157);
#86=LINE('',#1789,#158);
#87=LINE('',#1791,#159);
#88=LINE('',#1794,#160);
#89=LINE('',#1796,#161);
#90=LINE('',#1798,#162);
#91=LINE('',#1803,#163);
#92=LINE('',#1807,#164);
#93=LINE('',#1811,#165);
#94=LINE('',#1817,#166);
#95=LINE('',#1821,#167);
#96=LINE('',#1824,#168);
#97=LINE('',#1826,#169);
#98=LINE('',#1828,#170);
#99=LINE('',#1830,#171);
#100=LINE('',#1833,#172);
#101=LINE('',#1835,#173);
#102=LINE('',#1837,#174);
#103=LINE('',#1842,#175);
#104=LINE('',#1845,#176);
#105=LINE('',#1847,#177);
#106=LINE('',#1849,#178);
#107=VECTOR('',#1275,1.);
#108=VECTOR('',#1278,1.);
#109=VECTOR('',#1283,1.);
#110=VECTOR('',#1290,1.);
#111=VECTOR('',#1297,1.);
#112=VECTOR('',#1302,1.);
#113=VECTOR('',#1303,1.);
#114=VECTOR('',#1304,1.);
#115=VECTOR('',#1309,1.);
#116=VECTOR('',#1314,1.);
#117=VECTOR('',#1315,1.);
#118=VECTOR('',#1316,1.);
#119=VECTOR('',#1321,1.);
#120=VECTOR('',#1328,1.);
#121=VECTOR('',#1335,1.);
#122=VECTOR('',#1338,1.);
#123=VECTOR('',#1341,1.);
#124=VECTOR('',#1342,1.);
#125=VECTOR('',#1343,1.);
#126=VECTOR('',#1346,1.);
#127=VECTOR('',#1347,1.);
#128=VECTOR('',#1348,1.);
#129=VECTOR('',#1353,1.);
#130=VECTOR('',#1360,1.);
#131=VECTOR('',#1365,1.);
#132=VECTOR('',#1366,1.);
#133=VECTOR('',#1367,1.);
#134=VECTOR('',#1372,1.);
#135=VECTOR('',#1377,1.);
#136=VECTOR('',#1378,1.);
#137=VECTOR('',#1379,1.);
#138=VECTOR('',#1384,1.);
#139=VECTOR('',#1389,1.);
#140=VECTOR('',#1390,1.);
#141=VECTOR('',#1391,1.);
#142=VECTOR('',#1396,1.);
#143=VECTOR('',#1403,1.);
#144=VECTOR('',#1408,1.);
#145=VECTOR('',#1409,1.);
#146=VECTOR('',#1410,1.);
#147=VECTOR('',#1413,1.);
#148=VECTOR('',#1414,1.);
#149=VECTOR('',#1415,1.);
#150=VECTOR('',#1420,1.);
#151=VECTOR('',#1425,1.);
#152=VECTOR('',#1426,1.);
#153=VECTOR('',#1427,1.);
#154=VECTOR('',#1428,1.);
#155=VECTOR('',#1431,1.);
#156=VECTOR('',#1432,1.);
#157=VECTOR('',#1433,1.);
#158=VECTOR('',#1434,1.);
#159=VECTOR('',#1437,1.);
#160=VECTOR('',#1438,1.);
#161=VECTOR('',#1439,1.);
#162=VECTOR('',#1440,1.);
#163=VECTOR('',#1445,1.);
#164=VECTOR('',#1448,1.);
#165=VECTOR('',#1453,1.);
#166=VECTOR('',#1460,1.);
#167=VECTOR('',#1465,1.);
#168=VECTOR('',#1466,1.);
#169=VECTOR('',#1467,1.);
#170=VECTOR('',#1468,1.);
#171=VECTOR('',#1471,1.);
#172=VECTOR('',#1472,1.);
#173=VECTOR('',#1473,1.);
#174=VECTOR('',#1474,1.);
#175=VECTOR('',#1483,1.);
#176=VECTOR('',#1484,1.);
#177=VECTOR('',#1485,1.);
#178=VECTOR('',#1486,1.);
#179=ORIENTED_EDGE('',*,*,#479,.F.);
#180=ORIENTED_EDGE('',*,*,#480,.T.);
#181=ORIENTED_EDGE('',*,*,#481,.F.);
#182=ORIENTED_EDGE('',*,*,#482,.T.);
#183=ORIENTED_EDGE('',*,*,#483,.F.);
#184=ORIENTED_EDGE('',*,*,#484,.F.);
#185=ORIENTED_EDGE('',*,*,#485,.T.);
#186=ORIENTED_EDGE('',*,*,#486,.T.);
#187=ORIENTED_EDGE('',*,*,#487,.F.);
#188=ORIENTED_EDGE('',*,*,#488,.F.);
#189=ORIENTED_EDGE('',*,*,#489,.T.);
#190=ORIENTED_EDGE('',*,*,#484,.T.);
#191=ORIENTED_EDGE('',*,*,#490,.T.);
#192=ORIENTED_EDGE('',*,*,#491,.F.);
#193=ORIENTED_EDGE('',*,*,#492,.F.);
#194=ORIENTED_EDGE('',*,*,#488,.T.);
#195=ORIENTED_EDGE('',*,*,#493,.F.);
#196=ORIENTED_EDGE('',*,*,#494,.F.);
#197=ORIENTED_EDGE('',*,*,#495,.T.);
#198=ORIENTED_EDGE('',*,*,#491,.T.);
#199=ORIENTED_EDGE('',*,*,#496,.T.);
#200=ORIENTED_EDGE('',*,*,#497,.F.);
#201=ORIENTED_EDGE('',*,*,#498,.F.);
#202=ORIENTED_EDGE('',*,*,#494,.T.);
#203=ORIENTED_EDGE('',*,*,#499,.F.);
#204=ORIENTED_EDGE('',*,*,#500,.F.);
#205=ORIENTED_EDGE('',*,*,#501,.T.);
#206=ORIENTED_EDGE('',*,*,#497,.T.);
#207=ORIENTED_EDGE('',*,*,#502,.F.);
#208=ORIENTED_EDGE('',*,*,#503,.F.);
#209=ORIENTED_EDGE('',*,*,#504,.T.);
#210=ORIENTED_EDGE('',*,*,#500,.T.);
#211=ORIENTED_EDGE('',*,*,#505,.T.);
#212=ORIENTED_EDGE('',*,*,#506,.F.);
#213=ORIENTED_EDGE('',*,*,#507,.F.);
#214=ORIENTED_EDGE('',*,*,#503,.T.);
#215=ORIENTED_EDGE('',*,*,#508,.F.);
#216=ORIENTED_EDGE('',*,*,#509,.F.);
#217=ORIENTED_EDGE('',*,*,#510,.T.);
#218=ORIENTED_EDGE('',*,*,#506,.T.);
#219=ORIENTED_EDGE('',*,*,#511,.F.);
#220=ORIENTED_EDGE('',*,*,#512,.T.);
#221=ORIENTED_EDGE('',*,*,#513,.T.);
#222=ORIENTED_EDGE('',*,*,#514,.F.);
#223=ORIENTED_EDGE('',*,*,#515,.T.);
#224=ORIENTED_EDGE('',*,*,#516,.F.);
#225=ORIENTED_EDGE('',*,*,#517,.F.);
#226=ORIENTED_EDGE('',*,*,#514,.T.);
#227=ORIENTED_EDGE('',*,*,#518,.T.);
#228=ORIENTED_EDGE('',*,*,#519,.F.);
#229=ORIENTED_EDGE('',*,*,#520,.F.);
#230=ORIENTED_EDGE('',*,*,#516,.T.);
#231=ORIENTED_EDGE('',*,*,#521,.F.);
#232=ORIENTED_EDGE('',*,*,#522,.F.);
#233=ORIENTED_EDGE('',*,*,#523,.T.);
#234=ORIENTED_EDGE('',*,*,#519,.T.);
#235=ORIENTED_EDGE('',*,*,#524,.T.);
#236=ORIENTED_EDGE('',*,*,#525,.F.);
#237=ORIENTED_EDGE('',*,*,#526,.F.);
#238=ORIENTED_EDGE('',*,*,#522,.T.);
#239=ORIENTED_EDGE('',*,*,#527,.T.);
#240=ORIENTED_EDGE('',*,*,#528,.F.);
#241=ORIENTED_EDGE('',*,*,#529,.F.);
#242=ORIENTED_EDGE('',*,*,#525,.T.);
#243=ORIENTED_EDGE('',*,*,#530,.F.);
#244=ORIENTED_EDGE('',*,*,#531,.F.);
#245=ORIENTED_EDGE('',*,*,#532,.T.);
#246=ORIENTED_EDGE('',*,*,#528,.T.);
#247=ORIENTED_EDGE('',*,*,#533,.T.);
#248=ORIENTED_EDGE('',*,*,#534,.F.);
#249=ORIENTED_EDGE('',*,*,#535,.F.);
#250=ORIENTED_EDGE('',*,*,#531,.T.);
#251=ORIENTED_EDGE('',*,*,#536,.T.);
#252=ORIENTED_EDGE('',*,*,#537,.F.);
#253=ORIENTED_EDGE('',*,*,#538,.F.);
#254=ORIENTED_EDGE('',*,*,#534,.T.);
#255=ORIENTED_EDGE('',*,*,#539,.F.);
#256=ORIENTED_EDGE('',*,*,#540,.F.);
#257=ORIENTED_EDGE('',*,*,#541,.T.);
#258=ORIENTED_EDGE('',*,*,#537,.T.);
#259=ORIENTED_EDGE('',*,*,#542,.T.);
#260=ORIENTED_EDGE('',*,*,#543,.F.);
#261=ORIENTED_EDGE('',*,*,#544,.F.);
#262=ORIENTED_EDGE('',*,*,#540,.T.);
#263=ORIENTED_EDGE('',*,*,#545,.T.);
#264=ORIENTED_EDGE('',*,*,#546,.F.);
#265=ORIENTED_EDGE('',*,*,#547,.F.);
#266=ORIENTED_EDGE('',*,*,#543,.T.);
#267=ORIENTED_EDGE('',*,*,#548,.F.);
#268=ORIENTED_EDGE('',*,*,#549,.F.);
#269=ORIENTED_EDGE('',*,*,#550,.T.);
#270=ORIENTED_EDGE('',*,*,#546,.T.);
#271=ORIENTED_EDGE('',*,*,#551,.F.);
#272=ORIENTED_EDGE('',*,*,#552,.F.);
#273=ORIENTED_EDGE('',*,*,#553,.T.);
#274=ORIENTED_EDGE('',*,*,#549,.T.);
#275=ORIENTED_EDGE('',*,*,#554,.T.);
#276=ORIENTED_EDGE('',*,*,#555,.T.);
#277=ORIENTED_EDGE('',*,*,#556,.F.);
#278=ORIENTED_EDGE('',*,*,#552,.T.);
#279=ORIENTED_EDGE('',*,*,#557,.T.);
#280=ORIENTED_EDGE('',*,*,#558,.T.);
#281=ORIENTED_EDGE('',*,*,#559,.F.);
#282=ORIENTED_EDGE('',*,*,#560,.T.);
#283=ORIENTED_EDGE('',*,*,#561,.T.);
#284=ORIENTED_EDGE('',*,*,#562,.T.);
#285=ORIENTED_EDGE('',*,*,#563,.F.);
#286=ORIENTED_EDGE('',*,*,#564,.T.);
#287=ORIENTED_EDGE('',*,*,#565,.T.);
#288=ORIENTED_EDGE('',*,*,#566,.T.);
#289=ORIENTED_EDGE('',*,*,#567,.F.);
#290=ORIENTED_EDGE('',*,*,#568,.T.);
#291=ORIENTED_EDGE('',*,*,#569,.F.);
#292=ORIENTED_EDGE('',*,*,#570,.F.);
#293=ORIENTED_EDGE('',*,*,#571,.T.);
#294=ORIENTED_EDGE('',*,*,#572,.T.);
#295=ORIENTED_EDGE('',*,*,#573,.T.);
#296=ORIENTED_EDGE('',*,*,#574,.F.);
#297=ORIENTED_EDGE('',*,*,#575,.F.);
#298=ORIENTED_EDGE('',*,*,#570,.T.);
#299=ORIENTED_EDGE('',*,*,#576,.F.);
#300=ORIENTED_EDGE('',*,*,#577,.T.);
#301=ORIENTED_EDGE('',*,*,#578,.T.);
#302=ORIENTED_EDGE('',*,*,#574,.T.);
#303=ORIENTED_EDGE('',*,*,#579,.T.);
#304=ORIENTED_EDGE('',*,*,#580,.T.);
#305=ORIENTED_EDGE('',*,*,#581,.F.);
#306=ORIENTED_EDGE('',*,*,#582,.T.);
#307=ORIENTED_EDGE('',*,*,#583,.F.);
#308=ORIENTED_EDGE('',*,*,#584,.T.);
#309=ORIENTED_EDGE('',*,*,#585,.T.);
#310=ORIENTED_EDGE('',*,*,#586,.T.);
#311=ORIENTED_EDGE('',*,*,#587,.T.);
#312=ORIENTED_EDGE('',*,*,#486,.F.);
#313=ORIENTED_EDGE('',*,*,#588,.F.);
#314=ORIENTED_EDGE('',*,*,#509,.T.);
#315=ORIENTED_EDGE('',*,*,#589,.T.);
#316=ORIENTED_EDGE('',*,*,#590,.T.);
#317=ORIENTED_EDGE('',*,*,#591,.F.);
#318=ORIENTED_EDGE('',*,*,#592,.T.);
#319=ORIENTED_EDGE('',*,*,#593,.T.);
#320=ORIENTED_EDGE('',*,*,#594,.T.);
#321=ORIENTED_EDGE('',*,*,#595,.T.);
#322=ORIENTED_EDGE('',*,*,#596,.T.);
#323=ORIENTED_EDGE('',*,*,#597,.T.);
#324=ORIENTED_EDGE('',*,*,#598,.T.);
#325=ORIENTED_EDGE('',*,*,#585,.F.);
#326=ORIENTED_EDGE('',*,*,#599,.T.);
#327=ORIENTED_EDGE('',*,*,#589,.F.);
#328=ORIENTED_EDGE('',*,*,#600,.T.);
#329=ORIENTED_EDGE('',*,*,#511,.T.);
#330=ORIENTED_EDGE('',*,*,#517,.T.);
#331=ORIENTED_EDGE('',*,*,#520,.T.);
#332=ORIENTED_EDGE('',*,*,#523,.F.);
#333=ORIENTED_EDGE('',*,*,#526,.T.);
#334=ORIENTED_EDGE('',*,*,#529,.T.);
#335=ORIENTED_EDGE('',*,*,#532,.F.);
#336=ORIENTED_EDGE('',*,*,#535,.T.);
#337=ORIENTED_EDGE('',*,*,#538,.T.);
#338=ORIENTED_EDGE('',*,*,#541,.F.);
#339=ORIENTED_EDGE('',*,*,#544,.T.);
#340=ORIENTED_EDGE('',*,*,#547,.T.);
#341=ORIENTED_EDGE('',*,*,#550,.F.);
#342=ORIENTED_EDGE('',*,*,#553,.F.);
#343=ORIENTED_EDGE('',*,*,#556,.T.);
#344=ORIENTED_EDGE('',*,*,#601,.T.);
#345=ORIENTED_EDGE('',*,*,#559,.T.);
#346=ORIENTED_EDGE('',*,*,#602,.T.);
#347=ORIENTED_EDGE('',*,*,#561,.F.);
#348=ORIENTED_EDGE('',*,*,#603,.T.);
#349=ORIENTED_EDGE('',*,*,#565,.F.);
#350=ORIENTED_EDGE('',*,*,#604,.T.);
#351=ORIENTED_EDGE('',*,*,#571,.F.);
#352=ORIENTED_EDGE('',*,*,#575,.T.);
#353=ORIENTED_EDGE('',*,*,#578,.F.);
#354=ORIENTED_EDGE('',*,*,#605,.T.);
#355=ORIENTED_EDGE('',*,*,#581,.T.);
#356=ORIENTED_EDGE('',*,*,#606,.T.);
#357=ORIENTED_EDGE('',*,*,#485,.F.);
#358=ORIENTED_EDGE('',*,*,#489,.F.);
#359=ORIENTED_EDGE('',*,*,#492,.T.);
#360=ORIENTED_EDGE('',*,*,#495,.F.);
#361=ORIENTED_EDGE('',*,*,#498,.T.);
#362=ORIENTED_EDGE('',*,*,#501,.F.);
#363=ORIENTED_EDGE('',*,*,#504,.F.);
#364=ORIENTED_EDGE('',*,*,#507,.T.);
#365=ORIENTED_EDGE('',*,*,#510,.F.);
#366=ORIENTED_EDGE('',*,*,#588,.T.);
#367=ORIENTED_EDGE('',*,*,#591,.T.);
#368=ORIENTED_EDGE('',*,*,#607,.T.);
#369=ORIENTED_EDGE('',*,*,#583,.T.);
#370=ORIENTED_EDGE('',*,*,#608,.T.);
#371=ORIENTED_EDGE('',*,*,#579,.F.);
#372=ORIENTED_EDGE('',*,*,#609,.T.);
#373=ORIENTED_EDGE('',*,*,#576,.T.);
#374=ORIENTED_EDGE('',*,*,#573,.F.);
#375=ORIENTED_EDGE('',*,*,#569,.T.);
#376=ORIENTED_EDGE('',*,*,#610,.T.);
#377=ORIENTED_EDGE('',*,*,#567,.T.);
#378=ORIENTED_EDGE('',*,*,#611,.T.);
#379=ORIENTED_EDGE('',*,*,#563,.T.);
#380=ORIENTED_EDGE('',*,*,#612,.T.);
#381=ORIENTED_EDGE('',*,*,#557,.F.);
#382=ORIENTED_EDGE('',*,*,#613,.T.);
#383=ORIENTED_EDGE('',*,*,#554,.F.);
#384=ORIENTED_EDGE('',*,*,#551,.T.);
#385=ORIENTED_EDGE('',*,*,#548,.T.);
#386=ORIENTED_EDGE('',*,*,#545,.F.);
#387=ORIENTED_EDGE('',*,*,#542,.F.);
#388=ORIENTED_EDGE('',*,*,#539,.T.);
#389=ORIENTED_EDGE('',*,*,#536,.F.);
#390=ORIENTED_EDGE('',*,*,#533,.F.);
#391=ORIENTED_EDGE('',*,*,#530,.T.);
#392=ORIENTED_EDGE('',*,*,#527,.F.);
#393=ORIENTED_EDGE('',*,*,#524,.F.);
#394=ORIENTED_EDGE('',*,*,#521,.T.);
#395=ORIENTED_EDGE('',*,*,#518,.F.);
#396=ORIENTED_EDGE('',*,*,#515,.F.);
#397=ORIENTED_EDGE('',*,*,#513,.F.);
#398=ORIENTED_EDGE('',*,*,#614,.T.);
#399=ORIENTED_EDGE('',*,*,#481,.T.);
#400=ORIENTED_EDGE('',*,*,#479,.T.);
#401=ORIENTED_EDGE('',*,*,#483,.T.);
#402=ORIENTED_EDGE('',*,*,#587,.F.);
#403=ORIENTED_EDGE('',*,*,#508,.T.);
#404=ORIENTED_EDGE('',*,*,#505,.F.);
#405=ORIENTED_EDGE('',*,*,#502,.T.);
#406=ORIENTED_EDGE('',*,*,#499,.T.);
#407=ORIENTED_EDGE('',*,*,#496,.F.);
#408=ORIENTED_EDGE('',*,*,#493,.T.);
#409=ORIENTED_EDGE('',*,*,#490,.F.);
#410=ORIENTED_EDGE('',*,*,#487,.T.);
#411=ORIENTED_EDGE('',*,*,#615,.F.);
#412=ORIENTED_EDGE('',*,*,#616,.F.);
#413=ORIENTED_EDGE('',*,*,#617,.F.);
#414=ORIENTED_EDGE('',*,*,#618,.F.);
#415=ORIENTED_EDGE('',*,*,#480,.F.);
#416=ORIENTED_EDGE('',*,*,#619,.F.);
#417=ORIENTED_EDGE('',*,*,#619,.T.);
#418=ORIENTED_EDGE('',*,*,#598,.F.);
#419=ORIENTED_EDGE('',*,*,#620,.F.);
#420=ORIENTED_EDGE('',*,*,#621,.T.);
#421=ORIENTED_EDGE('',*,*,#620,.T.);
#422=ORIENTED_EDGE('',*,*,#597,.F.);
#423=ORIENTED_EDGE('',*,*,#622,.F.);
#424=ORIENTED_EDGE('',*,*,#623,.T.);
#425=ORIENTED_EDGE('',*,*,#622,.T.);
#426=ORIENTED_EDGE('',*,*,#596,.F.);
#427=ORIENTED_EDGE('',*,*,#624,.F.);
#428=ORIENTED_EDGE('',*,*,#625,.T.);
#429=ORIENTED_EDGE('',*,*,#624,.T.);
#430=ORIENTED_EDGE('',*,*,#595,.F.);
#431=ORIENTED_EDGE('',*,*,#626,.F.);
#432=ORIENTED_EDGE('',*,*,#627,.T.);
#433=ORIENTED_EDGE('',*,*,#626,.T.);
#434=ORIENTED_EDGE('',*,*,#594,.F.);
#435=ORIENTED_EDGE('',*,*,#482,.F.);
#436=ORIENTED_EDGE('',*,*,#628,.F.);
#437=ORIENTED_EDGE('',*,*,#628,.T.);
#438=ORIENTED_EDGE('',*,*,#593,.F.);
#439=ORIENTED_EDGE('',*,*,#600,.F.);
#440=ORIENTED_EDGE('',*,*,#592,.F.);
#441=ORIENTED_EDGE('',*,*,#614,.F.);
#442=ORIENTED_EDGE('',*,*,#512,.F.);
#443=ORIENTED_EDGE('',*,*,#601,.F.);
#444=ORIENTED_EDGE('',*,*,#555,.F.);
#445=ORIENTED_EDGE('',*,*,#613,.F.);
#446=ORIENTED_EDGE('',*,*,#560,.F.);
#447=ORIENTED_EDGE('',*,*,#604,.F.);
#448=ORIENTED_EDGE('',*,*,#568,.F.);
#449=ORIENTED_EDGE('',*,*,#610,.F.);
#450=ORIENTED_EDGE('',*,*,#572,.F.);
#451=ORIENTED_EDGE('',*,*,#577,.F.);
#452=ORIENTED_EDGE('',*,*,#609,.F.);
#453=ORIENTED_EDGE('',*,*,#582,.F.);
#454=ORIENTED_EDGE('',*,*,#605,.F.);
#455=ORIENTED_EDGE('',*,*,#599,.F.);
#456=ORIENTED_EDGE('',*,*,#584,.F.);
#457=ORIENTED_EDGE('',*,*,#607,.F.);
#458=ORIENTED_EDGE('',*,*,#590,.F.);
#459=ORIENTED_EDGE('',*,*,#606,.F.);
#460=ORIENTED_EDGE('',*,*,#580,.F.);
#461=ORIENTED_EDGE('',*,*,#608,.F.);
#462=ORIENTED_EDGE('',*,*,#586,.F.);
#463=ORIENTED_EDGE('',*,*,#602,.F.);
#464=ORIENTED_EDGE('',*,*,#558,.F.);
#465=ORIENTED_EDGE('',*,*,#612,.F.);
#466=ORIENTED_EDGE('',*,*,#562,.F.);
#467=ORIENTED_EDGE('',*,*,#603,.F.);
#468=ORIENTED_EDGE('',*,*,#564,.F.);
#469=ORIENTED_EDGE('',*,*,#611,.F.);
#470=ORIENTED_EDGE('',*,*,#566,.F.);
#471=ORIENTED_EDGE('',*,*,#615,.T.);
#472=ORIENTED_EDGE('',*,*,#621,.F.);
#473=ORIENTED_EDGE('',*,*,#616,.T.);
#474=ORIENTED_EDGE('',*,*,#625,.F.);
#475=ORIENTED_EDGE('',*,*,#617,.T.);
#476=ORIENTED_EDGE('',*,*,#627,.F.);
#477=ORIENTED_EDGE('',*,*,#618,.T.);
#478=ORIENTED_EDGE('',*,*,#623,.F.);
#479=EDGE_CURVE('',#629,#629,#737,.F.);
#480=EDGE_CURVE('',#630,#630,#738,.F.);
#481=EDGE_CURVE('',#631,#631,#739,.F.);
#482=EDGE_CURVE('',#632,#632,#740,.F.);
#483=EDGE_CURVE('',#633,#634,#741,.F.);
#484=EDGE_CURVE('',#635,#633,#35,.T.);
#485=EDGE_CURVE('',#635,#636,#742,.F.);
#486=EDGE_CURVE('',#636,#634,#36,.T.);
#487=EDGE_CURVE('',#637,#633,#743,.F.);
#488=EDGE_CURVE('',#638,#637,#37,.T.);
#489=EDGE_CURVE('',#638,#635,#744,.F.);
#490=EDGE_CURVE('',#637,#639,#745,.F.);
#491=EDGE_CURVE('',#640,#639,#38,.T.);
#492=EDGE_CURVE('',#638,#640,#746,.F.);
#493=EDGE_CURVE('',#641,#639,#747,.F.);
#494=EDGE_CURVE('',#642,#641,#39,.T.);
#495=EDGE_CURVE('',#642,#640,#748,.F.);
#496=EDGE_CURVE('',#641,#643,#40,.F.);
#497=EDGE_CURVE('',#644,#643,#41,.T.);
#498=EDGE_CURVE('',#642,#644,#42,.F.);
#499=EDGE_CURVE('',#645,#643,#749,.F.);
#500=EDGE_CURVE('',#646,#645,#43,.T.);
#501=EDGE_CURVE('',#646,#644,#750,.F.);
#502=EDGE_CURVE('',#647,#645,#44,.F.);
#503=EDGE_CURVE('',#648,#647,#45,.T.);
#504=EDGE_CURVE('',#648,#646,#46,.F.);
#505=EDGE_CURVE('',#647,#649,#751,.T.);
#506=EDGE_CURVE('',#650,#649,#47,.T.);
#507=EDGE_CURVE('',#648,#650,#752,.T.);
#508=EDGE_CURVE('',#651,#649,#753,.T.);
#509=EDGE_CURVE('',#652,#651,#48,.T.);
#510=EDGE_CURVE('',#652,#650,#754,.T.);
#511=EDGE_CURVE('',#653,#654,#755,.F.);
#512=EDGE_CURVE('',#653,#655,#49,.T.);
#513=EDGE_CURVE('',#655,#656,#756,.F.);
#514=EDGE_CURVE('',#654,#656,#50,.F.);
#515=EDGE_CURVE('',#656,#657,#51,.F.);
#516=EDGE_CURVE('',#658,#657,#52,.F.);
#517=EDGE_CURVE('',#654,#658,#53,.T.);
#518=EDGE_CURVE('',#657,#659,#54,.F.);
#519=EDGE_CURVE('',#660,#659,#55,.T.);
#520=EDGE_CURVE('',#658,#660,#56,.T.);
#521=EDGE_CURVE('',#661,#659,#757,.F.);
#522=EDGE_CURVE('',#662,#661,#57,.T.);
#523=EDGE_CURVE('',#662,#660,#758,.F.);
#524=EDGE_CURVE('',#661,#663,#759,.F.);
#525=EDGE_CURVE('',#664,#663,#58,.F.);
#526=EDGE_CURVE('',#662,#664,#760,.F.);
#527=EDGE_CURVE('',#663,#665,#59,.F.);
#528=EDGE_CURVE('',#666,#665,#60,.T.);
#529=EDGE_CURVE('',#664,#666,#61,.T.);
#530=EDGE_CURVE('',#667,#665,#761,.F.);
#531=EDGE_CURVE('',#668,#667,#62,.F.);
#532=EDGE_CURVE('',#668,#666,#762,.F.);
#533=EDGE_CURVE('',#667,#669,#63,.T.);
#534=EDGE_CURVE('',#670,#669,#64,.T.);
#535=EDGE_CURVE('',#668,#670,#65,.T.);
#536=EDGE_CURVE('',#669,#671,#763,.T.);
#537=EDGE_CURVE('',#672,#671,#66,.F.);
#538=EDGE_CURVE('',#670,#672,#764,.T.);
#539=EDGE_CURVE('',#673,#671,#67,.T.);
#540=EDGE_CURVE('',#674,#673,#68,.T.);
#541=EDGE_CURVE('',#674,#672,#69,.F.);
#542=EDGE_CURVE('',#673,#675,#765,.F.);
#543=EDGE_CURVE('',#676,#675,#70,.T.);
#544=EDGE_CURVE('',#674,#676,#766,.F.);
#545=EDGE_CURVE('',#675,#677,#767,.T.);
#546=EDGE_CURVE('',#678,#677,#71,.F.);
#547=EDGE_CURVE('',#676,#678,#768,.T.);
#548=EDGE_CURVE('',#679,#677,#72,.T.);
#549=EDGE_CURVE('',#680,#679,#73,.F.);
#550=EDGE_CURVE('',#680,#678,#74,.F.);
#551=EDGE_CURVE('',#681,#679,#75,.T.);
#552=EDGE_CURVE('',#682,#681,#76,.T.);
#553=EDGE_CURVE('',#682,#680,#77,.F.);
#554=EDGE_CURVE('',#681,#683,#769,.F.);
#555=EDGE_CURVE('',#683,#684,#78,.F.);
#556=EDGE_CURVE('',#682,#684,#770,.F.);
#557=EDGE_CURVE('',#685,#686,#79,.F.);
#558=EDGE_CURVE('',#686,#687,#80,.F.);
#559=EDGE_CURVE('',#688,#687,#81,.T.);
#560=EDGE_CURVE('',#688,#685,#82,.F.);
#561=EDGE_CURVE('',#689,#690,#83,.F.);
#562=EDGE_CURVE('',#690,#691,#84,.T.);
#563=EDGE_CURVE('',#692,#691,#85,.T.);
#564=EDGE_CURVE('',#692,#689,#86,.F.);
#565=EDGE_CURVE('',#693,#694,#87,.F.);
#566=EDGE_CURVE('',#694,#695,#88,.T.);
#567=EDGE_CURVE('',#696,#695,#89,.T.);
#568=EDGE_CURVE('',#696,#693,#90,.T.);
#569=EDGE_CURVE('',#697,#698,#771,.F.);
#570=EDGE_CURVE('',#699,#697,#91,.T.);
#571=EDGE_CURVE('',#699,#700,#772,.F.);
#572=EDGE_CURVE('',#700,#698,#92,.T.);
#573=EDGE_CURVE('',#697,#701,#773,.F.);
#574=EDGE_CURVE('',#702,#701,#93,.T.);
#575=EDGE_CURVE('',#699,#702,#774,.F.);
#576=EDGE_CURVE('',#703,#701,#775,.F.);
#577=EDGE_CURVE('',#703,#704,#94,.F.);
#578=EDGE_CURVE('',#704,#702,#776,.F.);
#579=EDGE_CURVE('',#705,#706,#95,.F.);
#580=EDGE_CURVE('',#706,#707,#96,.F.);
#581=EDGE_CURVE('',#708,#707,#97,.T.);
#582=EDGE_CURVE('',#708,#705,#98,.F.);
#583=EDGE_CURVE('',#709,#710,#99,.T.);
#584=EDGE_CURVE('',#709,#711,#100,.F.);
#585=EDGE_CURVE('',#711,#712,#101,.F.);
#586=EDGE_CURVE('',#712,#710,#102,.T.);
#587=EDGE_CURVE('',#651,#634,#777,.T.);
#588=EDGE_CURVE('',#652,#636,#778,.T.);
#589=EDGE_CURVE('',#713,#714,#103,.F.);
#590=EDGE_CURVE('',#714,#715,#104,.T.);
#591=EDGE_CURVE('',#716,#715,#105,.T.);
#592=EDGE_CURVE('',#716,#713,#106,.T.);
#593=EDGE_CURVE('',#717,#717,#779,.T.);
#594=EDGE_CURVE('',#718,#718,#780,.T.);
#595=EDGE_CURVE('',#719,#719,#781,.T.);
#596=EDGE_CURVE('',#720,#720,#782,.T.);
#597=EDGE_CURVE('',#721,#721,#783,.T.);
#598=EDGE_CURVE('',#722,#722,#784,.T.);
#599=EDGE_CURVE('',#711,#714,#785,.T.);
#600=EDGE_CURVE('',#713,#653,#786,.T.);
#601=EDGE_CURVE('',#684,#688,#787,.T.);
#602=EDGE_CURVE('',#687,#690,#788,.T.);
#603=EDGE_CURVE('',#689,#694,#789,.T.);
#604=EDGE_CURVE('',#693,#700,#790,.T.);
#605=EDGE_CURVE('',#704,#708,#791,.T.);
#606=EDGE_CURVE('',#707,#712,#792,.T.);
#607=EDGE_CURVE('',#715,#709,#793,.F.);
#608=EDGE_CURVE('',#710,#706,#794,.F.);
#609=EDGE_CURVE('',#705,#703,#795,.F.);
#610=EDGE_CURVE('',#698,#696,#796,.F.);
#611=EDGE_CURVE('',#695,#692,#797,.F.);
#612=EDGE_CURVE('',#691,#686,#798,.F.);
#613=EDGE_CURVE('',#685,#683,#799,.F.);
#614=EDGE_CURVE('',#655,#716,#800,.F.);
#615=EDGE_CURVE('',#723,#723,#801,.T.);
#616=EDGE_CURVE('',#724,#724,#802,.T.);
#617=EDGE_CURVE('',#725,#725,#803,.T.);
#618=EDGE_CURVE('',#726,#726,#804,.T.);
#619=EDGE_CURVE('',#727,#727,#805,.T.);
#620=EDGE_CURVE('',#728,#728,#806,.T.);
#621=EDGE_CURVE('',#729,#729,#807,.F.);
#622=EDGE_CURVE('',#730,#730,#808,.T.);
#623=EDGE_CURVE('',#731,#731,#809,.F.);
#624=EDGE_CURVE('',#732,#732,#810,.T.);
#625=EDGE_CURVE('',#733,#733,#811,.F.);
#626=EDGE_CURVE('',#734,#734,#812,.T.);
#627=EDGE_CURVE('',#735,#735,#813,.F.);
#628=EDGE_CURVE('',#736,#736,#814,.T.);
#629=VERTEX_POINT('',#1614);
#630=VERTEX_POINT('',#1616);
#631=VERTEX_POINT('',#1619);
#632=VERTEX_POINT('',#1621);
#633=VERTEX_POINT('',#1624);
#634=VERTEX_POINT('',#1625);
#635=VERTEX_POINT('',#1627);
#636=VERTEX_POINT('',#1629);
#637=VERTEX_POINT('',#1633);
#638=VERTEX_POINT('',#1635);
#639=VERTEX_POINT('',#1639);
#640=VERTEX_POINT('',#1641);
#641=VERTEX_POINT('',#1645);
#642=VERTEX_POINT('',#1647);
#643=VERTEX_POINT('',#1651);
#644=VERTEX_POINT('',#1653);
#645=VERTEX_POINT('',#1657);
#646=VERTEX_POINT('',#1659);
#647=VERTEX_POINT('',#1663);
#648=VERTEX_POINT('',#1665);
#649=VERTEX_POINT('',#1669);
#650=VERTEX_POINT('',#1671);
#651=VERTEX_POINT('',#1675);
#652=VERTEX_POINT('',#1677);
#653=VERTEX_POINT('',#1681);
#654=VERTEX_POINT('',#1682);
#655=VERTEX_POINT('',#1684);
#656=VERTEX_POINT('',#1686);
#657=VERTEX_POINT('',#1690);
#658=VERTEX_POINT('',#1692);
#659=VERTEX_POINT('',#1696);
#660=VERTEX_POINT('',#1698);
#661=VERTEX_POINT('',#1702);
#662=VERTEX_POINT('',#1704);
#663=VERTEX_POINT('',#1708);
#664=VERTEX_POINT('',#1710);
#665=VERTEX_POINT('',#1714);
#666=VERTEX_POINT('',#1716);
#667=VERTEX_POINT('',#1720);
#668=VERTEX_POINT('',#1722);
#669=VERTEX_POINT('',#1726);
#670=VERTEX_POINT('',#1728);
#671=VERTEX_POINT('',#1732);
#672=VERTEX_POINT('',#1734);
#673=VERTEX_POINT('',#1738);
#674=VERTEX_POINT('',#1740);
#675=VERTEX_POINT('',#1744);
#676=VERTEX_POINT('',#1746);
#677=VERTEX_POINT('',#1750);
#678=VERTEX_POINT('',#1752);
#679=VERTEX_POINT('',#1756);
#680=VERTEX_POINT('',#1758);
#681=VERTEX_POINT('',#1762);
#682=VERTEX_POINT('',#1764);
#683=VERTEX_POINT('',#1768);
#684=VERTEX_POINT('',#1770);
#685=VERTEX_POINT('',#1774);
#686=VERTEX_POINT('',#1775);
#687=VERTEX_POINT('',#1777);
#688=VERTEX_POINT('',#1779);
#689=VERTEX_POINT('',#1783);
#690=VERTEX_POINT('',#1784);
#691=VERTEX_POINT('',#1786);
#692=VERTEX_POINT('',#1788);
#693=VERTEX_POINT('',#1792);
#694=VERTEX_POINT('',#1793);
#695=VERTEX_POINT('',#1795);
#696=VERTEX_POINT('',#1797);
#697=VERTEX_POINT('',#1801);
#698=VERTEX_POINT('',#1802);
#699=VERTEX_POINT('',#1804);
#700=VERTEX_POINT('',#1806);
#701=VERTEX_POINT('',#1810);
#702=VERTEX_POINT('',#1812);
#703=VERTEX_POINT('',#1816);
#704=VERTEX_POINT('',#1818);
#705=VERTEX_POINT('',#1822);
#706=VERTEX_POINT('',#1823);
#707=VERTEX_POINT('',#1825);
#708=VERTEX_POINT('',#1827);
#709=VERTEX_POINT('',#1831);
#710=VERTEX_POINT('',#1832);
#711=VERTEX_POINT('',#1834);
#712=VERTEX_POINT('',#1836);
#713=VERTEX_POINT('',#1843);
#714=VERTEX_POINT('',#1844);
#715=VERTEX_POINT('',#1846);
#716=VERTEX_POINT('',#1848);
#717=VERTEX_POINT('',#1852);
#718=VERTEX_POINT('',#1854);
#719=VERTEX_POINT('',#1856);
#720=VERTEX_POINT('',#1858);
#721=VERTEX_POINT('',#1860);
#722=VERTEX_POINT('',#1862);
#723=VERTEX_POINT('',#1881);
#724=VERTEX_POINT('',#1883);
#725=VERTEX_POINT('',#1885);
#726=VERTEX_POINT('',#1887);
#727=VERTEX_POINT('',#1890);
#728=VERTEX_POINT('',#1894);
#729=VERTEX_POINT('',#1896);
#730=VERTEX_POINT('',#1900);
#731=VERTEX_POINT('',#1902);
#732=VERTEX_POINT('',#1906);
#733=VERTEX_POINT('',#1908);
#734=VERTEX_POINT('',#1912);
#735=VERTEX_POINT('',#1914);
#736=VERTEX_POINT('',#1918);
#737=CIRCLE('',#1118,0.001905);
#738=CIRCLE('',#1119,0.001905);
#739=CIRCLE('',#1121,0.001905);
#740=CIRCLE('',#1122,0.001905);
#741=CIRCLE('',#1124,0.0126999999999991);
#742=CIRCLE('',#1125,0.0126999999999991);
#743=CIRCLE('',#1127,0.00139699999999997);
#744=CIRCLE('',#1128,0.00139699999999997);
#745=CIRCLE('',#1130,0.001778);
#746=CIRCLE('',#1131,0.001778);
#747=CIRCLE('',#1133,0.00934262790958973);
#748=CIRCLE('',#1134,0.00934262790958973);
#749=CIRCLE('',#1137,0.014732);
#750=CIRCLE('',#1138,0.014732);
#751=CIRCLE('',#1141,0.00934262790958973);
#752=CIRCLE('',#1142,0.00934262790958973);
#753=CIRCLE('',#1144,0.001778);
#754=CIRCLE('',#1145,0.001778);
#755=CIRCLE('',#1147,0.0396430243625975);
#756=CIRCLE('',#1148,0.0396430243625975);
#757=CIRCLE('',#1152,0.00281491628371219);
#758=CIRCLE('',#1153,0.00281491628371219);
#759=CIRCLE('',#1155,0.00340120022557665);
#760=CIRCLE('',#1156,0.00340120022557665);
#761=CIRCLE('',#1159,0.00100445454545461);
#762=CIRCLE('',#1160,0.00100445454545461);
#763=CIRCLE('',#1163,0.00101674465112846);
#764=CIRCLE('',#1164,0.00101674465112846);
#765=CIRCLE('',#1167,0.0034012002255767);
#766=CIRCLE('',#1168,0.0034012002255767);
#767=CIRCLE('',#1170,0.00281491628371218);
#768=CIRCLE('',#1171,0.00281491628371218);
#769=CIRCLE('',#1175,0.0396386533319227);
#770=CIRCLE('',#1176,0.0396386533319227);
#771=CIRCLE('',#1181,0.0029718);
#772=CIRCLE('',#1182,0.0029718);
#773=CIRCLE('',#1184,0.015494);
#774=CIRCLE('',#1185,0.015494);
#775=CIRCLE('',#1187,0.00297180000000006);
#776=CIRCLE('',#1188,0.00297180000000006);
#777=CIRCLE('',#1192,0.00139699999999997);
#778=CIRCLE('',#1193,0.00139699999999997);
#779=CIRCLE('',#1196,0.002286);
#780=CIRCLE('',#1197,0.002286);
#781=CIRCLE('',#1198,0.002286);
#782=CIRCLE('',#1199,0.002286);
#783=CIRCLE('',#1200,0.002286);
#784=CIRCLE('',#1201,0.002286);
#785=CIRCLE('',#1202,0.00459246248332212);
#786=CIRCLE('',#1203,0.0317956809424681);
#787=CIRCLE('',#1204,0.0317956809424681);
#788=CIRCLE('',#1205,0.00459246248332212);
#789=CIRCLE('',#1206,0.00459246248332212);
#790=CIRCLE('',#1207,0.0317956809424681);
#791=CIRCLE('',#1208,0.0317956809424681);
#792=CIRCLE('',#1209,0.00459246248332212);
#793=CIRCLE('',#1211,0.00459246248332212);
#794=CIRCLE('',#1212,0.00459246248332212);
#795=CIRCLE('',#1213,0.0317956809424681);
#796=CIRCLE('',#1214,0.0317956809424681);
#797=CIRCLE('',#1215,0.00459246248332212);
#798=CIRCLE('',#1216,0.00459246248332212);
#799=CIRCLE('',#1217,0.0317956809424681);
#800=CIRCLE('',#1218,0.0317956809424681);
#801=CIRCLE('',#1219,0.00124999749999999);
#802=CIRCLE('',#1220,0.00124999749999999);
#803=CIRCLE('',#1221,0.00124999749999999);
#804=CIRCLE('',#1222,0.00124999749999999);
#805=CIRCLE('',#1224,0.002286);
#806=CIRCLE('',#1227,0.002286);
#807=CIRCLE('',#1228,0.00124999749999999);
#808=CIRCLE('',#1231,0.002286);
#809=CIRCLE('',#1232,0.00124999749999999);
#810=CIRCLE('',#1235,0.002286);
#811=CIRCLE('',#1236,0.00124999749999999);
#812=CIRCLE('',#1239,0.002286);
#813=CIRCLE('',#1240,0.00124999749999999);
#814=CIRCLE('',#1243,0.002286);
#815=EDGE_LOOP('',(#179));
#816=EDGE_LOOP('',(#180));
#817=EDGE_LOOP('',(#181));
#818=EDGE_LOOP('',(#182));
#819=EDGE_LOOP('',(#183,#184,#185,#186));
#820=EDGE_LOOP('',(#187,#188,#189,#190));
#821=EDGE_LOOP('',(#191,#192,#193,#194));
#822=EDGE_LOOP('',(#195,#196,#197,#198));
#823=EDGE_LOOP('',(#199,#200,#201,#202));
#824=EDGE_LOOP('',(#203,#204,#205,#206));
#825=EDGE_LOOP('',(#207,#208,#209,#210));
#826=EDGE_LOOP('',(#211,#212,#213,#214));
#827=EDGE_LOOP('',(#215,#216,#217,#218));
#828=EDGE_LOOP('',(#219,#220,#221,#222));
#829=EDGE_LOOP('',(#223,#224,#225,#226));
#830=EDGE_LOOP('',(#227,#228,#229,#230));
#831=EDGE_LOOP('',(#231,#232,#233,#234));
#832=EDGE_LOOP('',(#235,#236,#237,#238));
#833=EDGE_LOOP('',(#239,#240,#241,#242));
#834=EDGE_LOOP('',(#243,#244,#245,#246));
#835=EDGE_LOOP('',(#247,#248,#249,#250));
#836=EDGE_LOOP('',(#251,#252,#253,#254));
#837=EDGE_LOOP('',(#255,#256,#257,#258));
#838=EDGE_LOOP('',(#259,#260,#261,#262));
#839=EDGE_LOOP('',(#263,#264,#265,#266));
#840=EDGE_LOOP('',(#267,#268,#269,#270));
#841=EDGE_LOOP('',(#271,#272,#273,#274));
#842=EDGE_LOOP('',(#275,#276,#277,#278));
#843=EDGE_LOOP('',(#279,#280,#281,#282));
#844=EDGE_LOOP('',(#283,#284,#285,#286));
#845=EDGE_LOOP('',(#287,#288,#289,#290));
#846=EDGE_LOOP('',(#291,#292,#293,#294));
#847=EDGE_LOOP('',(#295,#296,#297,#298));
#848=EDGE_LOOP('',(#299,#300,#301,#302));
#849=EDGE_LOOP('',(#303,#304,#305,#306));
#850=EDGE_LOOP('',(#307,#308,#309,#310));
#851=EDGE_LOOP('',(#311,#312,#313,#314));
#852=EDGE_LOOP('',(#315,#316,#317,#318));
#853=EDGE_LOOP('',(#319));
#854=EDGE_LOOP('',(#320));
#855=EDGE_LOOP('',(#321));
#856=EDGE_LOOP('',(#322));
#857=EDGE_LOOP('',(#323));
#858=EDGE_LOOP('',(#324));
#859=EDGE_LOOP('',(#325,#326,#327,#328,#329,#330,#331,#332,#333,#334,#335,
#336,#337,#338,#339,#340,#341,#342,#343,#344,#345,#346,#347,#348,#349,#350,
#351,#352,#353,#354,#355,#356));
#860=EDGE_LOOP('',(#357,#358,#359,#360,#361,#362,#363,#364,#365,#366));
#861=EDGE_LOOP('',(#367,#368,#369,#370,#371,#372,#373,#374,#375,#376,#377,
#378,#379,#380,#381,#382,#383,#384,#385,#386,#387,#388,#389,#390,#391,#392,
#393,#394,#395,#396,#397,#398));
#862=EDGE_LOOP('',(#399));
#863=EDGE_LOOP('',(#400));
#864=EDGE_LOOP('',(#401,#402,#403,#404,#405,#406,#407,#408,#409,#410));
#865=EDGE_LOOP('',(#411));
#866=EDGE_LOOP('',(#412));
#867=EDGE_LOOP('',(#413));
#868=EDGE_LOOP('',(#414));
#869=EDGE_LOOP('',(#415));
#870=EDGE_LOOP('',(#416));
#871=EDGE_LOOP('',(#417));
#872=EDGE_LOOP('',(#418));
#873=EDGE_LOOP('',(#419));
#874=EDGE_LOOP('',(#420));
#875=EDGE_LOOP('',(#421));
#876=EDGE_LOOP('',(#422));
#877=EDGE_LOOP('',(#423));
#878=EDGE_LOOP('',(#424));
#879=EDGE_LOOP('',(#425));
#880=EDGE_LOOP('',(#426));
#881=EDGE_LOOP('',(#427));
#882=EDGE_LOOP('',(#428));
#883=EDGE_LOOP('',(#429));
#884=EDGE_LOOP('',(#430));
#885=EDGE_LOOP('',(#431));
#886=EDGE_LOOP('',(#432));
#887=EDGE_LOOP('',(#433));
#888=EDGE_LOOP('',(#434));
#889=EDGE_LOOP('',(#435));
#890=EDGE_LOOP('',(#436));
#891=EDGE_LOOP('',(#437));
#892=EDGE_LOOP('',(#438));
#893=EDGE_LOOP('',(#439,#440,#441,#442));
#894=EDGE_LOOP('',(#443,#444,#445,#446));
#895=EDGE_LOOP('',(#447,#448,#449,#450));
#896=EDGE_LOOP('',(#451,#452,#453,#454));
#897=EDGE_LOOP('',(#455,#456,#457,#458));
#898=EDGE_LOOP('',(#459,#460,#461,#462));
#899=EDGE_LOOP('',(#463,#464,#465,#466));
#900=EDGE_LOOP('',(#467,#468,#469,#470));
#901=EDGE_LOOP('',(#471));
#902=EDGE_LOOP('',(#472));
#903=EDGE_LOOP('',(#473));
#904=EDGE_LOOP('',(#474));
#905=EDGE_LOOP('',(#475));
#906=EDGE_LOOP('',(#476));
#907=EDGE_LOOP('',(#477));
#908=EDGE_LOOP('',(#478));
#909=FACE_BOUND('',#815,.T.);
#910=FACE_BOUND('',#816,.T.);
#911=FACE_BOUND('',#817,.T.);
#912=FACE_BOUND('',#818,.T.);
#913=FACE_BOUND('',#819,.T.);
#914=FACE_BOUND('',#820,.T.);
#915=FACE_BOUND('',#821,.T.);
#916=FACE_BOUND('',#822,.T.);
#917=FACE_BOUND('',#823,.T.);
#918=FACE_BOUND('',#824,.T.);
#919=FACE_BOUND('',#825,.T.);
#920=FACE_BOUND('',#826,.T.);
#921=FACE_BOUND('',#827,.T.);
#922=FACE_BOUND('',#828,.T.);
#923=FACE_BOUND('',#829,.T.);
#924=FACE_BOUND('',#830,.T.);
#925=FACE_BOUND('',#831,.T.);
#926=FACE_BOUND('',#832,.T.);
#927=FACE_BOUND('',#833,.T.);
#928=FACE_BOUND('',#834,.T.);
#929=FACE_BOUND('',#835,.T.);
#930=FACE_BOUND('',#836,.T.);
#931=FACE_BOUND('',#837,.T.);
#932=FACE_BOUND('',#838,.T.);
#933=FACE_BOUND('',#839,.T.);
#934=FACE_BOUND('',#840,.T.);
#935=FACE_BOUND('',#841,.T.);
#936=FACE_BOUND('',#842,.T.);
#937=FACE_BOUND('',#843,.T.);
#938=FACE_BOUND('',#844,.T.);
#939=FACE_BOUND('',#845,.T.);
#940=FACE_BOUND('',#846,.T.);
#941=FACE_BOUND('',#847,.T.);
#942=FACE_BOUND('',#848,.T.);
#943=FACE_BOUND('',#849,.T.);
#944=FACE_BOUND('',#850,.T.);
#945=FACE_BOUND('',#851,.T.);
#946=FACE_BOUND('',#852,.T.);
#947=FACE_BOUND('',#853,.T.);
#948=FACE_BOUND('',#854,.T.);
#949=FACE_BOUND('',#855,.T.);
#950=FACE_BOUND('',#856,.T.);
#951=FACE_BOUND('',#857,.T.);
#952=FACE_BOUND('',#858,.T.);
#953=FACE_BOUND('',#859,.T.);
#954=FACE_BOUND('',#860,.T.);
#955=FACE_BOUND('',#861,.T.);
#956=FACE_BOUND('',#862,.T.);
#957=FACE_BOUND('',#863,.T.);
#958=FACE_BOUND('',#864,.T.);
#959=FACE_BOUND('',#865,.T.);
#960=FACE_BOUND('',#866,.T.);
#961=FACE_BOUND('',#867,.T.);
#962=FACE_BOUND('',#868,.T.);
#963=FACE_BOUND('',#869,.T.);
#964=FACE_BOUND('',#870,.T.);
#965=FACE_BOUND('',#871,.T.);
#966=FACE_BOUND('',#872,.T.);
#967=FACE_BOUND('',#873,.T.);
#968=FACE_BOUND('',#874,.T.);
#969=FACE_BOUND('',#875,.T.);
#970=FACE_BOUND('',#876,.T.);
#971=FACE_BOUND('',#877,.T.);
#972=FACE_BOUND('',#878,.T.);
#973=FACE_BOUND('',#879,.T.);
#974=FACE_BOUND('',#880,.T.);
#975=FACE_BOUND('',#881,.T.);
#976=FACE_BOUND('',#882,.T.);
#977=FACE_BOUND('',#883,.T.);
#978=FACE_BOUND('',#884,.T.);
#979=FACE_BOUND('',#885,.T.);
#980=FACE_BOUND('',#886,.T.);
#981=FACE_BOUND('',#887,.T.);
#982=FACE_BOUND('',#888,.T.);
#983=FACE_BOUND('',#889,.T.);
#984=FACE_BOUND('',#890,.T.);
#985=FACE_BOUND('',#891,.T.);
#986=FACE_BOUND('',#892,.T.);
#987=FACE_BOUND('',#893,.T.);
#988=FACE_BOUND('',#894,.T.);
#989=FACE_BOUND('',#895,.T.);
#990=FACE_BOUND('',#896,.T.);
#991=FACE_BOUND('',#897,.T.);
#992=FACE_BOUND('',#898,.T.);
#993=FACE_BOUND('',#899,.T.);
#994=FACE_BOUND('',#900,.T.);
#995=FACE_BOUND('',#901,.T.);
#996=FACE_BOUND('',#902,.T.);
#997=FACE_BOUND('',#903,.T.);
#998=FACE_BOUND('',#904,.T.);
#999=FACE_BOUND('',#905,.T.);
#1000=FACE_BOUND('',#906,.T.);
#1001=FACE_BOUND('',#907,.T.);
#1002=FACE_BOUND('',#908,.T.);
#1003=CYLINDRICAL_SURFACE('',#1117,0.001905);
#1004=CYLINDRICAL_SURFACE('',#1120,0.001905);
#1005=CYLINDRICAL_SURFACE('',#1123,0.0126999999999991);
#1006=CYLINDRICAL_SURFACE('',#1126,0.00139699999999997);
#1007=CYLINDRICAL_SURFACE('',#1129,0.001778);
#1008=CYLINDRICAL_SURFACE('',#1132,0.00934262790958973);
#1009=CYLINDRICAL_SURFACE('',#1136,0.014732);
#1010=CYLINDRICAL_SURFACE('',#1140,0.00934262790958973);
#1011=CYLINDRICAL_SURFACE('',#1143,0.001778);
#1012=CYLINDRICAL_SURFACE('',#1146,0.0396430243625975);
#1013=CYLINDRICAL_SURFACE('',#1151,0.00281491628371219);
#1014=CYLINDRICAL_SURFACE('',#1154,0.00340120022557665);
#1015=CYLINDRICAL_SURFACE('',#1158,0.00100445454545461);
#1016=CYLINDRICAL_SURFACE('',#1162,0.00101674465112846);
#1017=CYLINDRICAL_SURFACE('',#1166,0.0034012002255767);
#1018=CYLINDRICAL_SURFACE('',#1169,0.00281491628371218);
#1019=CYLINDRICAL_SURFACE('',#1174,0.0396386533319227);
#1020=CYLINDRICAL_SURFACE('',#1180,0.0029718);
#1021=CYLINDRICAL_SURFACE('',#1183,0.015494);
#1022=CYLINDRICAL_SURFACE('',#1186,0.00297180000000006);
#1023=CYLINDRICAL_SURFACE('',#1191,0.00139699999999997);
#1024=CYLINDRICAL_SURFACE('',#1225,0.002286);
#1025=CYLINDRICAL_SURFACE('',#1229,0.002286);
#1026=CYLINDRICAL_SURFACE('',#1233,0.002286);
#1027=CYLINDRICAL_SURFACE('',#1237,0.002286);
#1028=CYLINDRICAL_SURFACE('',#1241,0.002286);
#1029=CYLINDRICAL_SURFACE('',#1244,0.002286);
#1030=CYLINDRICAL_SURFACE('',#1245,0.0317956809424681);
#1031=CYLINDRICAL_SURFACE('',#1246,0.0317956809424681);
#1032=CYLINDRICAL_SURFACE('',#1247,0.0317956809424681);
#1033=CYLINDRICAL_SURFACE('',#1248,0.0317956809424681);
#1034=CYLINDRICAL_SURFACE('',#1249,0.00459246248332212);
#1035=CYLINDRICAL_SURFACE('',#1250,0.00459246248332212);
#1036=CYLINDRICAL_SURFACE('',#1251,0.00459246248332212);
#1037=CYLINDRICAL_SURFACE('',#1252,0.00459246248332212);
#1038=CYLINDRICAL_SURFACE('',#1253,0.00124999749999999);
#1039=CYLINDRICAL_SURFACE('',#1254,0.00124999749999999);
#1040=CYLINDRICAL_SURFACE('',#1255,0.00124999749999999);
#1041=CYLINDRICAL_SURFACE('',#1256,0.00124999749999999);
#1042=ADVANCED_FACE('',(#909,#910),#1003,.F.);
#1043=ADVANCED_FACE('',(#911,#912),#1004,.F.);
#1044=ADVANCED_FACE('',(#913),#1005,.F.);
#1045=ADVANCED_FACE('',(#914),#1006,.F.);
#1046=ADVANCED_FACE('',(#915),#1007,.T.);
#1047=ADVANCED_FACE('',(#916),#1008,.F.);
#1048=ADVANCED_FACE('',(#917),#12,.F.);
#1049=ADVANCED_FACE('',(#918),#1009,.F.);
#1050=ADVANCED_FACE('',(#919),#13,.T.);
#1051=ADVANCED_FACE('',(#920),#1010,.F.);
#1052=ADVANCED_FACE('',(#921),#1011,.T.);
#1053=ADVANCED_FACE('',(#922),#1012,.T.);
#1054=ADVANCED_FACE('',(#923),#14,.F.);
#1055=ADVANCED_FACE('',(#924),#15,.F.);
#1056=ADVANCED_FACE('',(#925),#1013,.F.);
#1057=ADVANCED_FACE('',(#926),#1014,.T.);
#1058=ADVANCED_FACE('',(#927),#16,.F.);
#1059=ADVANCED_FACE('',(#928),#1015,.F.);
#1060=ADVANCED_FACE('',(#929),#17,.F.);
#1061=ADVANCED_FACE('',(#930),#1016,.F.);
#1062=ADVANCED_FACE('',(#931),#18,.T.);
#1063=ADVANCED_FACE('',(#932),#1017,.T.);
#1064=ADVANCED_FACE('',(#933),#1018,.F.);
#1065=ADVANCED_FACE('',(#934),#19,.T.);
#1066=ADVANCED_FACE('',(#935),#20,.T.);
#1067=ADVANCED_FACE('',(#936),#1019,.T.);
#1068=ADVANCED_FACE('',(#937),#21,.F.);
#1069=ADVANCED_FACE('',(#938),#22,.T.);
#1070=ADVANCED_FACE('',(#939),#23,.T.);
#1071=ADVANCED_FACE('',(#940),#1020,.F.);
#1072=ADVANCED_FACE('',(#941),#1021,.T.);
#1073=ADVANCED_FACE('',(#942),#1022,.F.);
#1074=ADVANCED_FACE('',(#943),#24,.F.);
#1075=ADVANCED_FACE('',(#944),#25,.T.);
#1076=ADVANCED_FACE('',(#945),#1023,.F.);
#1077=ADVANCED_FACE('',(#946),#26,.T.);
#1078=ADVANCED_FACE('',(#947,#948,#949,#950,#951,#952,#953,#954),#27,.T.);
#1079=ADVANCED_FACE('',(#955,#956,#957,#958,#959,#960,#961,#962),#28,.F.);
#1080=ADVANCED_FACE('',(#963,#964),#29,.T.);
#1081=ADVANCED_FACE('',(#965,#966),#1024,.F.);
#1082=ADVANCED_FACE('',(#967,#968),#30,.T.);
#1083=ADVANCED_FACE('',(#969,#970),#1025,.F.);
#1084=ADVANCED_FACE('',(#971,#972),#31,.T.);
#1085=ADVANCED_FACE('',(#973,#974),#1026,.F.);
#1086=ADVANCED_FACE('',(#975,#976),#32,.T.);
#1087=ADVANCED_FACE('',(#977,#978),#1027,.F.);
#1088=ADVANCED_FACE('',(#979,#980),#33,.T.);
#1089=ADVANCED_FACE('',(#981,#982),#1028,.F.);
#1090=ADVANCED_FACE('',(#983,#984),#34,.T.);
#1091=ADVANCED_FACE('',(#985,#986),#1029,.F.);
#1092=ADVANCED_FACE('',(#987),#1030,.F.);
#1093=ADVANCED_FACE('',(#988),#1031,.F.);
#1094=ADVANCED_FACE('',(#989),#1032,.F.);
#1095=ADVANCED_FACE('',(#990),#1033,.F.);
#1096=ADVANCED_FACE('',(#991),#1034,.T.);
#1097=ADVANCED_FACE('',(#992),#1035,.T.);
#1098=ADVANCED_FACE('',(#993),#1036,.T.);
#1099=ADVANCED_FACE('',(#994),#1037,.T.);
#1100=ADVANCED_FACE('',(#995,#996),#1038,.F.);
#1101=ADVANCED_FACE('',(#997,#998),#1039,.F.);
#1102=ADVANCED_FACE('',(#999,#1000),#1040,.F.);
#1103=ADVANCED_FACE('',(#1001,#1002),#1041,.F.);
#1104=CLOSED_SHELL('',(#1042,#1043,#1044,#1045,#1046,#1047,#1048,#1049,
#1050,#1051,#1052,#1053,#1054,#1055,#1056,#1057,#1058,#1059,#1060,#1061,
#1062,#1063,#1064,#1065,#1066,#1067,#1068,#1069,#1070,#1071,#1072,#1073,
#1074,#1075,#1076,#1077,#1078,#1079,#1080,#1081,#1082,#1083,#1084,#1085,
#1086,#1087,#1088,#1089,#1090,#1091,#1092,#1093,#1094,#1095,#1096,#1097,
#1098,#1099,#1100,#1101,#1102,#1103));
#1105=STYLED_ITEM('',(#1106),#1113);
#1106=PRESENTATION_STYLE_ASSIGNMENT((#1107));
#1107=SURFACE_STYLE_USAGE(.BOTH.,#1108);
#1108=SURFACE_SIDE_STYLE('',(#1109));
#1109=SURFACE_STYLE_FILL_AREA(#1110);
#1110=FILL_AREA_STYLE('',(#1111));
#1111=FILL_AREA_STYLE_COLOUR('',#1112);
#1112=COLOUR_RGB('',0.917647058823529,0.917647058823529,0.917647058823529);
#1113=MANIFOLD_SOLID_BREP('Part 2__Part 2',#1104);
#1114=SHAPE_DEFINITION_REPRESENTATION(#1938,#1115);
#1115=SHAPE_REPRESENTATION('Part 2__Part 2',(#1116),#1933);
#1116=AXIS2_PLACEMENT_3D('',#1611,#1257,#1258);
#1117=AXIS2_PLACEMENT_3D('',#1612,#1259,#1260);
#1118=AXIS2_PLACEMENT_3D('',#1613,#1261,#1262);
#1119=AXIS2_PLACEMENT_3D('',#1615,#1263,#1264);
#1120=AXIS2_PLACEMENT_3D('',#1617,#1265,#1266);
#1121=AXIS2_PLACEMENT_3D('',#1618,#1267,#1268);
#1122=AXIS2_PLACEMENT_3D('',#1620,#1269,#1270);
#1123=AXIS2_PLACEMENT_3D('',#1622,#1271,#1272);
#1124=AXIS2_PLACEMENT_3D('',#1623,#1273,#1274);
#1125=AXIS2_PLACEMENT_3D('',#1628,#1276,#1277);
#1126=AXIS2_PLACEMENT_3D('',#1631,#1279,#1280);
#1127=AXIS2_PLACEMENT_3D('',#1632,#1281,#1282);
#1128=AXIS2_PLACEMENT_3D('',#1636,#1284,#1285);
#1129=AXIS2_PLACEMENT_3D('',#1637,#1286,#1287);
#1130=AXIS2_PLACEMENT_3D('',#1638,#1288,#1289);
#1131=AXIS2_PLACEMENT_3D('',#1642,#1291,#1292);
#1132=AXIS2_PLACEMENT_3D('',#1643,#1293,#1294);
#1133=AXIS2_PLACEMENT_3D('',#1644,#1295,#1296);
#1134=AXIS2_PLACEMENT_3D('',#1648,#1298,#1299);
#1135=AXIS2_PLACEMENT_3D('',#1649,#1300,#1301);
#1136=AXIS2_PLACEMENT_3D('',#1655,#1305,#1306);
#1137=AXIS2_PLACEMENT_3D('',#1656,#1307,#1308);
#1138=AXIS2_PLACEMENT_3D('',#1660,#1310,#1311);
#1139=AXIS2_PLACEMENT_3D('',#1661,#1312,#1313);
#1140=AXIS2_PLACEMENT_3D('',#1667,#1317,#1318);
#1141=AXIS2_PLACEMENT_3D('',#1668,#1319,#1320);
#1142=AXIS2_PLACEMENT_3D('',#1672,#1322,#1323);
#1143=AXIS2_PLACEMENT_3D('',#1673,#1324,#1325);
#1144=AXIS2_PLACEMENT_3D('',#1674,#1326,#1327);
#1145=AXIS2_PLACEMENT_3D('',#1678,#1329,#1330);
#1146=AXIS2_PLACEMENT_3D('',#1679,#1331,#1332);
#1147=AXIS2_PLACEMENT_3D('',#1680,#1333,#1334);
#1148=AXIS2_PLACEMENT_3D('',#1685,#1336,#1337);
#1149=AXIS2_PLACEMENT_3D('',#1688,#1339,#1340);
#1150=AXIS2_PLACEMENT_3D('',#1694,#1344,#1345);
#1151=AXIS2_PLACEMENT_3D('',#1700,#1349,#1350);
#1152=AXIS2_PLACEMENT_3D('',#1701,#1351,#1352);
#1153=AXIS2_PLACEMENT_3D('',#1705,#1354,#1355);
#1154=AXIS2_PLACEMENT_3D('',#1706,#1356,#1357);
#1155=AXIS2_PLACEMENT_3D('',#1707,#1358,#1359);
#1156=AXIS2_PLACEMENT_3D('',#1711,#1361,#1362);
#1157=AXIS2_PLACEMENT_3D('',#1712,#1363,#1364);
#1158=AXIS2_PLACEMENT_3D('',#1718,#1368,#1369);
#1159=AXIS2_PLACEMENT_3D('',#1719,#1370,#1371);
#1160=AXIS2_PLACEMENT_3D('',#1723,#1373,#1374);
#1161=AXIS2_PLACEMENT_3D('',#1724,#1375,#1376);
#1162=AXIS2_PLACEMENT_3D('',#1730,#1380,#1381);
#1163=AXIS2_PLACEMENT_3D('',#1731,#1382,#1383);
#1164=AXIS2_PLACEMENT_3D('',#1735,#1385,#1386);
#1165=AXIS2_PLACEMENT_3D('',#1736,#1387,#1388);
#1166=AXIS2_PLACEMENT_3D('',#1742,#1392,#1393);
#1167=AXIS2_PLACEMENT_3D('',#1743,#1394,#1395);
#1168=AXIS2_PLACEMENT_3D('',#1747,#1397,#1398);
#1169=AXIS2_PLACEMENT_3D('',#1748,#1399,#1400);
#1170=AXIS2_PLACEMENT_3D('',#1749,#1401,#1402);
#1171=AXIS2_PLACEMENT_3D('',#1753,#1404,#1405);
#1172=AXIS2_PLACEMENT_3D('',#1754,#1406,#1407);
#1173=AXIS2_PLACEMENT_3D('',#1760,#1411,#1412);
#1174=AXIS2_PLACEMENT_3D('',#1766,#1416,#1417);
#1175=AXIS2_PLACEMENT_3D('',#1767,#1418,#1419);
#1176=AXIS2_PLACEMENT_3D('',#1771,#1421,#1422);
#1177=AXIS2_PLACEMENT_3D('',#1772,#1423,#1424);
#1178=AXIS2_PLACEMENT_3D('',#1781,#1429,#1430);
#1179=AXIS2_PLACEMENT_3D('',#1790,#1435,#1436);
#1180=AXIS2_PLACEMENT_3D('',#1799,#1441,#1442);
#1181=AXIS2_PLACEMENT_3D('',#1800,#1443,#1444);
#1182=AXIS2_PLACEMENT_3D('',#1805,#1446,#1447);
#1183=AXIS2_PLACEMENT_3D('',#1808,#1449,#1450);
#1184=AXIS2_PLACEMENT_3D('',#1809,#1451,#1452);
#1185=AXIS2_PLACEMENT_3D('',#1813,#1454,#1455);
#1186=AXIS2_PLACEMENT_3D('',#1814,#1456,#1457);
#1187=AXIS2_PLACEMENT_3D('',#1815,#1458,#1459);
#1188=AXIS2_PLACEMENT_3D('',#1819,#1461,#1462);
#1189=AXIS2_PLACEMENT_3D('',#1820,#1463,#1464);
#1190=AXIS2_PLACEMENT_3D('',#1829,#1469,#1470);
#1191=AXIS2_PLACEMENT_3D('',#1838,#1475,#1476);
#1192=AXIS2_PLACEMENT_3D('',#1839,#1477,#1478);
#1193=AXIS2_PLACEMENT_3D('',#1840,#1479,#1480);
#1194=AXIS2_PLACEMENT_3D('',#1841,#1481,#1482);
#1195=AXIS2_PLACEMENT_3D('',#1850,#1487,#1488);
#1196=AXIS2_PLACEMENT_3D('',#1851,#1489,#1490);
#1197=AXIS2_PLACEMENT_3D('',#1853,#1491,#1492);
#1198=AXIS2_PLACEMENT_3D('',#1855,#1493,#1494);
#1199=AXIS2_PLACEMENT_3D('',#1857,#1495,#1496);
#1200=AXIS2_PLACEMENT_3D('',#1859,#1497,#1498);
#1201=AXIS2_PLACEMENT_3D('',#1861,#1499,#1500);
#1202=AXIS2_PLACEMENT_3D('',#1863,#1501,#1502);
#1203=AXIS2_PLACEMENT_3D('',#1864,#1503,#1504);
#1204=AXIS2_PLACEMENT_3D('',#1865,#1505,#1506);
#1205=AXIS2_PLACEMENT_3D('',#1866,#1507,#1508);
#1206=AXIS2_PLACEMENT_3D('',#1867,#1509,#1510);
#1207=AXIS2_PLACEMENT_3D('',#1868,#1511,#1512);
#1208=AXIS2_PLACEMENT_3D('',#1869,#1513,#1514);
#1209=AXIS2_PLACEMENT_3D('',#1870,#1515,#1516);
#1210=AXIS2_PLACEMENT_3D('',#1871,#1517,#1518);
#1211=AXIS2_PLACEMENT_3D('',#1872,#1519,#1520);
#1212=AXIS2_PLACEMENT_3D('',#1873,#1521,#1522);
#1213=AXIS2_PLACEMENT_3D('',#1874,#1523,#1524);
#1214=AXIS2_PLACEMENT_3D('',#1875,#1525,#1526);
#1215=AXIS2_PLACEMENT_3D('',#1876,#1527,#1528);
#1216=AXIS2_PLACEMENT_3D('',#1877,#1529,#1530);
#1217=AXIS2_PLACEMENT_3D('',#1878,#1531,#1532);
#1218=AXIS2_PLACEMENT_3D('',#1879,#1533,#1534);
#1219=AXIS2_PLACEMENT_3D('',#1880,#1535,#1536);
#1220=AXIS2_PLACEMENT_3D('',#1882,#1537,#1538);
#1221=AXIS2_PLACEMENT_3D('',#1884,#1539,#1540);
#1222=AXIS2_PLACEMENT_3D('',#1886,#1541,#1542);
#1223=AXIS2_PLACEMENT_3D('',#1888,#1543,#1544);
#1224=AXIS2_PLACEMENT_3D('',#1889,#1545,#1546);
#1225=AXIS2_PLACEMENT_3D('',#1891,#1547,#1548);
#1226=AXIS2_PLACEMENT_3D('',#1892,#1549,#1550);
#1227=AXIS2_PLACEMENT_3D('',#1893,#1551,#1552);
#1228=AXIS2_PLACEMENT_3D('',#1895,#1553,#1554);
#1229=AXIS2_PLACEMENT_3D('',#1897,#1555,#1556);
#1230=AXIS2_PLACEMENT_3D('',#1898,#1557,#1558);
#1231=AXIS2_PLACEMENT_3D('',#1899,#1559,#1560);
#1232=AXIS2_PLACEMENT_3D('',#1901,#1561,#1562);
#1233=AXIS2_PLACEMENT_3D('',#1903,#1563,#1564);
#1234=AXIS2_PLACEMENT_3D('',#1904,#1565,#1566);
#1235=AXIS2_PLACEMENT_3D('',#1905,#1567,#1568);
#1236=AXIS2_PLACEMENT_3D('',#1907,#1569,#1570);
#1237=AXIS2_PLACEMENT_3D('',#1909,#1571,#1572);
#1238=AXIS2_PLACEMENT_3D('',#1910,#1573,#1574);
#1239=AXIS2_PLACEMENT_3D('',#1911,#1575,#1576);
#1240=AXIS2_PLACEMENT_3D('',#1913,#1577,#1578);
#1241=AXIS2_PLACEMENT_3D('',#1915,#1579,#1580);
#1242=AXIS2_PLACEMENT_3D('',#1916,#1581,#1582);
#1243=AXIS2_PLACEMENT_3D('',#1917,#1583,#1584);
#1244=AXIS2_PLACEMENT_3D('',#1919,#1585,#1586);
#1245=AXIS2_PLACEMENT_3D('',#1920,#1587,#1588);
#1246=AXIS2_PLACEMENT_3D('',#1921,#1589,#1590);
#1247=AXIS2_PLACEMENT_3D('',#1922,#1591,#1592);
#1248=AXIS2_PLACEMENT_3D('',#1923,#1593,#1594);
#1249=AXIS2_PLACEMENT_3D('',#1924,#1595,#1596);
#1250=AXIS2_PLACEMENT_3D('',#1925,#1597,#1598);
#1251=AXIS2_PLACEMENT_3D('',#1926,#1599,#1600);
#1252=AXIS2_PLACEMENT_3D('',#1927,#1601,#1602);
#1253=AXIS2_PLACEMENT_3D('',#1928,#1603,#1604);
#1254=AXIS2_PLACEMENT_3D('',#1929,#1605,#1606);
#1255=AXIS2_PLACEMENT_3D('',#1930,#1607,#1608);
#1256=AXIS2_PLACEMENT_3D('',#1931,#1609,#1610);
#1257=DIRECTION('',(0.,0.,1.));
#1258=DIRECTION('',(1.,0.,0.));
#1259=DIRECTION('',(-8.08836115822524E-18,-1.,5.4916404068344E-17));
#1260=DIRECTION('',(0.707106781186548,-4.45510967387735E-17,-0.707106781186548));
#1261=DIRECTION('',(-8.08836115822524E-18,-1.,5.4916404068344E-17));
#1262=DIRECTION('',(0.707106781186548,-4.45510967387735E-17,-0.707106781186548));
#1263=DIRECTION('',(-8.08836115822524E-18,-1.,5.4916404068344E-17));
#1264=DIRECTION('',(0.707106781186548,-4.45510967387735E-17,-0.707106781186548));
#1265=DIRECTION('',(-8.08836115822524E-18,-1.,5.4916404068344E-17));
#1266=DIRECTION('',(0.707106781186548,-4.45510967387735E-17,-0.707106781186548));
#1267=DIRECTION('',(-8.08836115822524E-18,-1.,5.4916404068344E-17));
#1268=DIRECTION('',(0.707106781186548,-4.45510967387735E-17,-0.707106781186548));
#1269=DIRECTION('',(-8.08836115822524E-18,-1.,5.4916404068344E-17));
#1270=DIRECTION('',(0.707106781186548,-4.45510967387735E-17,-0.707106781186548));
#1271=DIRECTION('',(-8.08836115822524E-18,-1.,5.4916404068344E-17));
#1272=DIRECTION('',(0.707106781186548,-4.45510967387735E-17,-0.707106781186548));
#1273=DIRECTION('',(-8.08836115822524E-18,-1.,5.4916404068344E-17));
#1274=DIRECTION('',(0.707106781186548,-4.45510967387735E-17,-0.707106781186548));
#1275=DIRECTION('',(-8.08836115822524E-18,-1.,5.4916404068344E-17));
#1276=DIRECTION('',(-8.08836115822524E-18,-1.,5.4916404068344E-17));
#1277=DIRECTION('',(0.707106781186548,-4.45510967387735E-17,-0.707106781186548));
#1278=DIRECTION('',(-8.08836115822524E-18,-1.,5.4916404068344E-17));
#1279=DIRECTION('',(-8.08836115822524E-18,-1.,5.4916404068344E-17));
#1280=DIRECTION('',(0.707106781186548,-4.45510967387735E-17,-0.707106781186548));
#1281=DIRECTION('',(-8.08836115822524E-18,-1.,5.4916404068344E-17));
#1282=DIRECTION('',(0.707106781186548,-4.45510967387735E-17,-0.707106781186548));
#1283=DIRECTION('',(-8.08836115822524E-18,-1.,5.4916404068344E-17));
#1284=DIRECTION('',(-8.08836115822524E-18,-1.,5.4916404068344E-17));
#1285=DIRECTION('',(0.707106781186548,-4.45510967387735E-17,-0.707106781186548));
#1286=DIRECTION('',(-8.08836115822524E-18,-1.,5.4916404068344E-17));
#1287=DIRECTION('',(0.707106781186548,-4.45510967387735E-17,-0.707106781186548));
#1288=DIRECTION('',(-8.08836115822524E-18,-1.,5.4916404068344E-17));
#1289=DIRECTION('',(0.707106781186548,-4.45510967387735E-17,-0.707106781186548));
#1290=DIRECTION('',(-8.08836115822524E-18,-1.,5.4916404068344E-17));
#1291=DIRECTION('',(-8.08836115822524E-18,-1.,5.4916404068344E-17));
#1292=DIRECTION('',(0.707106781186548,-4.45510967387735E-17,-0.707106781186548));
#1293=DIRECTION('',(-8.08836115822524E-18,-1.,5.4916404068344E-17));
#1294=DIRECTION('',(0.707106781186548,-4.45510967387735E-17,-0.707106781186548));
#1295=DIRECTION('',(-8.08836115822524E-18,-1.,5.4916404068344E-17));
#1296=DIRECTION('',(0.707106781186548,-4.45510967387735E-17,-0.707106781186548));
#1297=DIRECTION('',(-8.08836115822524E-18,-1.,5.4916404068344E-17));
#1298=DIRECTION('',(-8.08836115822524E-18,-1.,5.4916404068344E-17));
#1299=DIRECTION('',(0.707106781186548,-4.45510967387735E-17,-0.707106781186548));
#1300=DIRECTION('',(-0.707106781186548,4.45510967387735E-17,0.707106781186548));
#1301=DIRECTION('',(-8.08836115822524E-18,-1.,5.4916404068344E-17));
#1302=DIRECTION('',(0.707106781186548,3.31124266914396E-17,0.707106781186548));
#1303=DIRECTION('',(-8.08836115822524E-18,-1.,5.4916404068344E-17));
#1304=DIRECTION('',(0.707106781186548,3.31124266914396E-17,0.707106781186548));
#1305=DIRECTION('',(-8.08836115822524E-18,-1.,5.4916404068344E-17));
#1306=DIRECTION('',(0.707106781186548,-4.45510967387735E-17,-0.707106781186548));
#1307=DIRECTION('',(-8.08836115822524E-18,-1.,5.4916404068344E-17));
#1308=DIRECTION('',(0.707106781186548,-4.45510967387735E-17,-0.707106781186548));
#1309=DIRECTION('',(-8.08836115822524E-18,-1.,5.4916404068344E-17));
#1310=DIRECTION('',(-8.08836115822524E-18,-1.,5.4916404068344E-17));
#1311=DIRECTION('',(0.707106781186548,-4.45510967387735E-17,-0.707106781186548));
#1312=DIRECTION('',(-0.707106781186548,4.45510967387735E-17,0.707106781186548));
#1313=DIRECTION('',(-8.08836115822524E-18,-1.,5.4916404068344E-17));
#1314=DIRECTION('',(0.707106781186548,3.31124266914396E-17,0.707106781186548));
#1315=DIRECTION('',(-8.08836115822524E-18,-1.,5.4916404068344E-17));
#1316=DIRECTION('',(0.707106781186548,3.31124266914396E-17,0.707106781186548));
#1317=DIRECTION('',(-8.08836115822524E-18,-1.,5.4916404068344E-17));
#1318=DIRECTION('',(0.707106781186548,-4.45510967387735E-17,-0.707106781186548));
#1319=DIRECTION('',(-8.08836115822524E-18,-1.,5.4916404068344E-17));
#1320=DIRECTION('',(0.707106781186548,-4.45510967387735E-17,-0.707106781186548));
#1321=DIRECTION('',(-8.08836115822524E-18,-1.,5.4916404068344E-17));
#1322=DIRECTION('',(-8.08836115822524E-18,-1.,5.4916404068344E-17));
#1323=DIRECTION('',(0.707106781186548,-4.45510967387735E-17,-0.707106781186548));
#1324=DIRECTION('',(-8.08836115822524E-18,-1.,5.4916404068344E-17));
#1325=DIRECTION('',(0.707106781186548,-4.45510967387735E-17,-0.707106781186548));
#1326=DIRECTION('',(-8.08836115822524E-18,-1.,5.4916404068344E-17));
#1327=DIRECTION('',(0.707106781186548,-4.45510967387735E-17,-0.707106781186548));
#1328=DIRECTION('',(-8.08836115822524E-18,-1.,5.4916404068344E-17));
#1329=DIRECTION('',(-8.08836115822524E-18,-1.,5.4916404068344E-17));
#1330=DIRECTION('',(0.707106781186548,-4.45510967387735E-17,-0.707106781186548));
#1331=DIRECTION('',(-8.08836115822524E-18,-1.,5.4916404068344E-17));
#1332=DIRECTION('',(0.707106781186548,-4.45510967387735E-17,-0.707106781186548));
#1333=DIRECTION('',(-8.08836115822524E-18,-1.,5.4916404068344E-17));
#1334=DIRECTION('',(0.707106781186548,-4.45510967387735E-17,-0.707106781186548));
#1335=DIRECTION('',(-8.08836115822524E-18,-1.,5.4916404068344E-17));
#1336=DIRECTION('',(-8.08836115822524E-18,-1.,5.4916404068344E-17));
#1337=DIRECTION('',(0.707106781186548,-4.45510967387735E-17,-0.707106781186548));
#1338=DIRECTION('',(8.08836115822524E-18,1.,-5.4916404068344E-17));
#1339=DIRECTION('',(-0.51095535774738,5.13393304907496E-17,0.859607248916183));
#1340=DIRECTION('',(0.859607248916183,2.11070170034779E-17,0.51095535774738));
#1341=DIRECTION('',(0.859607248916183,2.11070170034779E-17,0.51095535774738));
#1342=DIRECTION('',(8.08836115822524E-18,1.,-5.4916404068344E-17));
#1343=DIRECTION('',(-0.859607248916212,-2.11070170034748E-17,-0.51095535774733));
#1344=DIRECTION('',(-0.532928649629873,5.07785938770331E-17,0.846160182473555));
#1345=DIRECTION('',(0.846160182473555,2.24224759091151E-17,0.532928649629873));
#1346=DIRECTION('',(0.846160182473555,2.24224759091151E-17,0.532928649629873));
#1347=DIRECTION('',(-8.08836115822524E-18,-1.,5.4916404068344E-17));
#1348=DIRECTION('',(-0.846160182473555,-2.24224759091151E-17,-0.532928649629874));
#1349=DIRECTION('',(-8.08836115822524E-18,-1.,5.4916404068344E-17));
#1350=DIRECTION('',(0.707106781186548,-4.45510967387735E-17,-0.707106781186548));
#1351=DIRECTION('',(-8.08836115822524E-18,-1.,5.4916404068344E-17));
#1352=DIRECTION('',(0.707106781186548,-4.45510967387735E-17,-0.707106781186548));
#1353=DIRECTION('',(-8.08836115822524E-18,-1.,5.4916404068344E-17));
#1354=DIRECTION('',(-8.08836115822524E-18,-1.,5.4916404068344E-17));
#1355=DIRECTION('',(0.707106781186548,-4.45510967387735E-17,-0.707106781186548));
#1356=DIRECTION('',(-8.08836115822524E-18,-1.,5.4916404068344E-17));
#1357=DIRECTION('',(0.707106781186548,-4.45510967387735E-17,-0.707106781186548));
#1358=DIRECTION('',(-8.08836115822524E-18,-1.,5.4916404068344E-17));
#1359=DIRECTION('',(0.707106781186548,-4.45510967387735E-17,-0.707106781186548));
#1360=DIRECTION('',(8.08836115822524E-18,1.,-5.4916404068344E-17));
#1361=DIRECTION('',(-8.08836115822524E-18,-1.,5.4916404068344E-17));
#1362=DIRECTION('',(0.707106781186548,-4.45510967387735E-17,-0.707106781186548));
#1363=DIRECTION('',(0.820259744422005,-3.80462578218207E-17,-0.57199121643671));
#1364=DIRECTION('',(-0.57199121643671,-4.04192440278027E-17,-0.820259744422005));
#1365=DIRECTION('',(-0.57199121643671,-4.04192440278027E-17,-0.820259744422005));
#1366=DIRECTION('',(-8.08836115822524E-18,-1.,5.4916404068344E-17));
#1367=DIRECTION('',(0.571991216436719,4.04192440278023E-17,0.820259744421999));
#1368=DIRECTION('',(-8.08836115822524E-18,-1.,5.4916404068344E-17));
#1369=DIRECTION('',(0.707106781186548,-4.45510967387735E-17,-0.707106781186548));
#1370=DIRECTION('',(-8.08836115822524E-18,-1.,5.4916404068344E-17));
#1371=DIRECTION('',(0.707106781186548,-4.45510967387735E-17,-0.707106781186548));
#1372=DIRECTION('',(8.08836115822524E-18,1.,-5.4916404068344E-17));
#1373=DIRECTION('',(-8.08836115822524E-18,-1.,5.4916404068344E-17));
#1374=DIRECTION('',(0.707106781186548,-4.45510967387735E-17,-0.707106781186548));
#1375=DIRECTION('',(0.707106781186548,3.31124266914396E-17,0.707106781186548));
#1376=DIRECTION('',(8.08836115822524E-18,1.,-5.4916404068344E-17));
#1377=DIRECTION('',(-0.707106781186548,4.45510967387735E-17,0.707106781186548));
#1378=DIRECTION('',(-8.08836115822524E-18,-1.,5.4916404068344E-17));
#1379=DIRECTION('',(-0.707106781186548,4.45510967387735E-17,0.707106781186548));
#1380=DIRECTION('',(-8.08836115822524E-18,-1.,5.4916404068344E-17));
#1381=DIRECTION('',(0.707106781186548,-4.45510967387735E-17,-0.707106781186548));
#1382=DIRECTION('',(-8.08836115822524E-18,-1.,5.4916404068344E-17));
#1383=DIRECTION('',(0.707106781186548,-4.45510967387735E-17,-0.707106781186548));
#1384=DIRECTION('',(8.08836115822524E-18,1.,-5.4916404068344E-17));
#1385=DIRECTION('',(-8.08836115822524E-18,-1.,5.4916404068344E-17));
#1386=DIRECTION('',(0.707106781186548,-4.45510967387735E-17,-0.707106781186548));
#1387=DIRECTION('',(0.57199121643671,-4.96721871035481E-17,-0.820259744422005));
#1388=DIRECTION('',(-0.820259744422005,-2.47771437089432E-17,-0.57199121643671));
#1389=DIRECTION('',(0.820259744422001,2.47771437089436E-17,0.571991216436716));
#1390=DIRECTION('',(-8.08836115822524E-18,-1.,5.4916404068344E-17));
#1391=DIRECTION('',(-0.820259744422005,-2.47771437089432E-17,-0.57199121643671));
#1392=DIRECTION('',(-8.08836115822524E-18,-1.,5.4916404068344E-17));
#1393=DIRECTION('',(0.707106781186548,-4.45510967387735E-17,-0.707106781186548));
#1394=DIRECTION('',(-8.08836115822524E-18,-1.,5.4916404068344E-17));
#1395=DIRECTION('',(0.707106781186548,-4.45510967387735E-17,-0.707106781186548));
#1396=DIRECTION('',(-8.08836115822524E-18,-1.,5.4916404068344E-17));
#1397=DIRECTION('',(-8.08836115822524E-18,-1.,5.4916404068344E-17));
#1398=DIRECTION('',(0.707106781186548,-4.45510967387735E-17,-0.707106781186548));
#1399=DIRECTION('',(-8.08836115822524E-18,-1.,5.4916404068344E-17));
#1400=DIRECTION('',(0.707106781186548,-4.45510967387735E-17,-0.707106781186548));
#1401=DIRECTION('',(-8.08836115822524E-18,-1.,5.4916404068344E-17));
#1402=DIRECTION('',(0.707106781186548,-4.45510967387735E-17,-0.707106781186548));
#1403=DIRECTION('',(8.08836115822524E-18,1.,-5.4916404068344E-17));
#1404=DIRECTION('',(-8.08836115822524E-18,-1.,5.4916404068344E-17));
#1405=DIRECTION('',(0.707106781186548,-4.45510967387735E-17,-0.707106781186548));
#1406=DIRECTION('',(-0.846160182473555,3.61105742162269E-17,0.532928649629873));
#1407=DIRECTION('',(0.532928649629873,4.21575550974897E-17,0.846160182473555));
#1408=DIRECTION('',(-0.532928649629885,-4.21575550974892E-17,-0.846160182473548));
#1409=DIRECTION('',(8.08836115822524E-18,1.,-5.4916404068344E-17));
#1410=DIRECTION('',(0.532928649629873,4.21575550974897E-17,0.846160182473555));
#1411=DIRECTION('',(-0.859607248916183,3.50126447704029E-17,0.51095535774738));
#1412=DIRECTION('',(0.51095535774738,4.30737475523676E-17,0.859607248916183));
#1413=DIRECTION('',(-0.510955357747556,-4.30737475523604E-17,-0.859607248916077));
#1414=DIRECTION('',(-8.08836115822524E-18,-1.,5.4916404068344E-17));
#1415=DIRECTION('',(0.51095535774738,4.30737475523676E-17,0.859607248916183));
#1416=DIRECTION('',(-8.08836115822524E-18,-1.,5.4916404068344E-17));
#1417=DIRECTION('',(0.707106781186548,-4.45510967387735E-17,-0.707106781186548));
#1418=DIRECTION('',(-8.08836115822524E-18,-1.,5.4916404068344E-17));
#1419=DIRECTION('',(0.707106781186548,-4.45510967387735E-17,-0.707106781186548));
#1420=DIRECTION('',(-8.08836115822524E-18,-1.,5.4916404068344E-17));
#1421=DIRECTION('',(-8.08836115822524E-18,-1.,5.4916404068344E-17));
#1422=DIRECTION('',(0.707106781186548,-4.45510967387735E-17,-0.707106781186548));
#1423=DIRECTION('',(0.965925826289092,6.40065432634502E-18,0.258819045102436));
#1424=DIRECTION('',(0.258819045102436,-5.51385948879563E-17,-0.965925826289092));
#1425=DIRECTION('',(0.258819045102436,-5.51385948879563E-17,-0.965925826289092));
#1426=DIRECTION('',(-8.08836115822524E-18,-1.,5.4916404068344E-17));
#1427=DIRECTION('',(-0.258819045102476,5.5138594887956E-17,0.96592582628908));
#1428=DIRECTION('',(8.08836115822524E-18,1.,-5.4916404068344E-17));
#1429=DIRECTION('',(-0.258819045102436,5.51385948879563E-17,0.965925826289092));
#1430=DIRECTION('',(0.965925826289092,6.40065432634502E-18,0.258819045102436));
#1431=DIRECTION('',(0.965925826289092,6.40065432634502E-18,0.258819045102436));
#1432=DIRECTION('',(-8.08836115822524E-18,-1.,5.4916404068344E-17));
#1433=DIRECTION('',(-0.965925826289071,-6.40065432634942E-18,-0.258819045102514));
#1434=DIRECTION('',(-8.08836115822524E-18,-1.,5.4916404068344E-17));
#1435=DIRECTION('',(0.965925826289091,6.40065432634509E-18,0.258819045102438));
#1436=DIRECTION('',(0.258819045102438,-5.51385948879563E-17,-0.965925826289091));
#1437=DIRECTION('',(0.258819045102438,-5.51385948879563E-17,-0.965925826289091));
#1438=DIRECTION('',(-8.08836115822524E-18,-1.,5.4916404068344E-17));
#1439=DIRECTION('',(-0.258819045102369,5.51385948879567E-17,0.965925826289109));
#1440=DIRECTION('',(8.08836115822524E-18,1.,-5.4916404068344E-17));
#1441=DIRECTION('',(-8.08836115822524E-18,-1.,5.4916404068344E-17));
#1442=DIRECTION('',(0.707106781186548,-4.45510967387735E-17,-0.707106781186548));
#1443=DIRECTION('',(-8.08836115822524E-18,-1.,5.4916404068344E-17));
#1444=DIRECTION('',(0.707106781186548,-4.45510967387735E-17,-0.707106781186548));
#1445=DIRECTION('',(-8.08836115822524E-18,-1.,5.4916404068344E-17));
#1446=DIRECTION('',(-8.08836115822524E-18,-1.,5.4916404068344E-17));
#1447=DIRECTION('',(0.707106781186548,-4.45510967387735E-17,-0.707106781186548));
#1448=DIRECTION('',(-8.08836115822524E-18,-1.,5.4916404068344E-17));
#1449=DIRECTION('',(-8.08836115822524E-18,-1.,5.4916404068344E-17));
#1450=DIRECTION('',(0.707106781186548,-4.45510967387735E-17,-0.707106781186548));
#1451=DIRECTION('',(-8.08836115822524E-18,-1.,5.4916404068344E-17));
#1452=DIRECTION('',(0.707106781186548,-4.45510967387735E-17,-0.707106781186548));
#1453=DIRECTION('',(-8.08836115822524E-18,-1.,5.4916404068344E-17));
#1454=DIRECTION('',(-8.08836115822524E-18,-1.,5.4916404068344E-17));
#1455=DIRECTION('',(0.707106781186548,-4.45510967387735E-17,-0.707106781186548));
#1456=DIRECTION('',(-8.08836115822524E-18,-1.,5.4916404068344E-17));
#1457=DIRECTION('',(0.707106781186548,-4.45510967387735E-17,-0.707106781186548));
#1458=DIRECTION('',(-8.08836115822524E-18,-1.,5.4916404068344E-17));
#1459=DIRECTION('',(0.707106781186548,-4.45510967387735E-17,-0.707106781186548));
#1460=DIRECTION('',(-8.08836115822524E-18,-1.,5.4916404068344E-17));
#1461=DIRECTION('',(-8.08836115822524E-18,-1.,5.4916404068344E-17));
#1462=DIRECTION('',(0.707106781186548,-4.45510967387735E-17,-0.707106781186548));
#1463=DIRECTION('',(-0.258819045102437,-5.09517510651252E-17,-0.965925826289091));
#1464=DIRECTION('',(-0.965925826289091,2.20261681965116E-17,0.258819045102437));
#1465=DIRECTION('',(-0.965925826289091,2.20261681965116E-17,0.258819045102437));
#1466=DIRECTION('',(-8.08836115822525E-18,-1.,5.4916404068344E-17));
#1467=DIRECTION('',(0.965925826289108,-2.20261681965083E-17,-0.258819045102374));
#1468=DIRECTION('',(8.08836115822524E-18,1.,-5.4916404068344E-17));
#1469=DIRECTION('',(0.965925826289091,-2.20261681965116E-17,-0.258819045102437));
#1470=DIRECTION('',(-0.258819045102437,-5.09517510651252E-17,-0.965925826289091));
#1471=DIRECTION('',(0.258819045102494,5.09517510651239E-17,0.965925826289076));
#1472=DIRECTION('',(-8.08836115822524E-18,-1.,5.4916404068344E-17));
#1473=DIRECTION('',(-0.258819045102437,-5.09517510651252E-17,-0.965925826289091));
#1474=DIRECTION('',(-8.08836115822524E-18,-1.,5.4916404068344E-17));
#1475=DIRECTION('',(-8.08836115822524E-18,-1.,5.4916404068344E-17));
#1476=DIRECTION('',(0.707106781186548,-4.45510967387735E-17,-0.707106781186548));
#1477=DIRECTION('',(-8.08836115822524E-18,-1.,5.4916404068344E-17));
#1478=DIRECTION('',(0.707106781186548,-4.45510967387735E-17,-0.707106781186548));
#1479=DIRECTION('',(-8.08836115822524E-18,-1.,5.4916404068344E-17));
#1480=DIRECTION('',(0.707106781186548,-4.45510967387735E-17,-0.707106781186548));
#1481=DIRECTION('',(-0.258819045102437,-5.09517510651252E-17,-0.965925826289091));
#1482=DIRECTION('',(-0.965925826289091,2.20261681965116E-17,0.258819045102437));
#1483=DIRECTION('',(-0.965925826289091,2.20261681965116E-17,0.258819045102437));
#1484=DIRECTION('',(-8.08836115822524E-18,-1.,5.4916404068344E-17));
#1485=DIRECTION('',(0.96592582628909,-2.20261681965119E-17,-0.258819045102442));
#1486=DIRECTION('',(8.08836115822524E-18,1.,-5.4916404068344E-17));
#1487=DIRECTION('',(8.08836115822524E-18,1.,-5.4916404068344E-17));
#1488=DIRECTION('',(-0.707106781186548,4.45510967387735E-17,0.707106781186548));
#1489=DIRECTION('',(-8.08836115822524E-18,-1.,5.4916404068344E-17));
#1490=DIRECTION('',(0.707106781186548,-4.45510967387735E-17,-0.707106781186548));
#1491=DIRECTION('',(-8.08836115822524E-18,-1.,5.4916404068344E-17));
#1492=DIRECTION('',(0.707106781186548,-4.45510967387735E-17,-0.707106781186548));
#1493=DIRECTION('',(-8.08836115822524E-18,-1.,5.4916404068344E-17));
#1494=DIRECTION('',(0.707106781186548,-4.45510967387735E-17,-0.707106781186548));
#1495=DIRECTION('',(-8.08836115822524E-18,-1.,5.4916404068344E-17));
#1496=DIRECTION('',(0.707106781186548,-4.45510967387735E-17,-0.707106781186548));
#1497=DIRECTION('',(-8.08836115822524E-18,-1.,5.4916404068344E-17));
#1498=DIRECTION('',(0.707106781186548,-4.45510967387735E-17,-0.707106781186548));
#1499=DIRECTION('',(-8.08836115822524E-18,-1.,5.4916404068344E-17));
#1500=DIRECTION('',(0.707106781186548,-4.45510967387735E-17,-0.707106781186548));
#1501=DIRECTION('',(8.08836115822524E-18,1.,-5.4916404068344E-17));
#1502=DIRECTION('',(0.,5.4916404068344E-17,1.));
#1503=DIRECTION('',(-8.08836115822524E-18,-1.,5.4916404068344E-17));
#1504=DIRECTION('',(0.707106781186548,-4.45510967387735E-17,-0.707106781186548));
#1505=DIRECTION('',(-8.08836115822524E-18,-1.,5.4916404068344E-17));
#1506=DIRECTION('',(0.707106781186548,-4.45510967387735E-17,-0.707106781186548));
#1507=DIRECTION('',(8.08836115822524E-18,1.,-5.4916404068344E-17));
#1508=DIRECTION('',(0.,5.4916404068344E-17,1.));
#1509=DIRECTION('',(8.08836115822524E-18,1.,-5.4916404068344E-17));
#1510=DIRECTION('',(0.,5.4916404068344E-17,1.));
#1511=DIRECTION('',(-8.08836115822524E-18,-1.,5.4916404068344E-17));
#1512=DIRECTION('',(0.707106781186548,-4.45510967387735E-17,-0.707106781186548));
#1513=DIRECTION('',(-8.08836115822524E-18,-1.,5.4916404068344E-17));
#1514=DIRECTION('',(0.707106781186548,-4.45510967387735E-17,-0.707106781186548));
#1515=DIRECTION('',(8.08836115822524E-18,1.,-5.4916404068344E-17));
#1516=DIRECTION('',(0.,5.4916404068344E-17,1.));
#1517=DIRECTION('',(8.08836115822524E-18,1.,-5.4916404068344E-17));
#1518=DIRECTION('',(-0.707106781186548,4.45510967387735E-17,0.707106781186548));
#1519=DIRECTION('',(8.08836115822524E-18,1.,-5.4916404068344E-17));
#1520=DIRECTION('',(0.,5.4916404068344E-17,1.));
#1521=DIRECTION('',(8.08836115822524E-18,1.,-5.4916404068344E-17));
#1522=DIRECTION('',(0.,5.4916404068344E-17,1.));
#1523=DIRECTION('',(-8.08836115822524E-18,-1.,5.4916404068344E-17));
#1524=DIRECTION('',(0.707106781186548,-4.45510967387735E-17,-0.707106781186548));
#1525=DIRECTION('',(-8.08836115822524E-18,-1.,5.4916404068344E-17));
#1526=DIRECTION('',(0.707106781186548,-4.45510967387735E-17,-0.707106781186548));
#1527=DIRECTION('',(8.08836115822524E-18,1.,-5.4916404068344E-17));
#1528=DIRECTION('',(0.,5.4916404068344E-17,1.));
#1529=DIRECTION('',(8.08836115822524E-18,1.,-5.4916404068344E-17));
#1530=DIRECTION('',(0.,5.4916404068344E-17,1.));
#1531=DIRECTION('',(-8.08836115822524E-18,-1.,5.4916404068344E-17));
#1532=DIRECTION('',(0.707106781186548,-4.45510967387735E-17,-0.707106781186548));
#1533=DIRECTION('',(-8.08836115822524E-18,-1.,5.4916404068344E-17));
#1534=DIRECTION('',(0.707106781186548,-4.45510967387735E-17,-0.707106781186548));
#1535=DIRECTION('',(-8.08836115822524E-18,-1.,5.4916404068344E-17));
#1536=DIRECTION('',(1.,0.,0.));
#1537=DIRECTION('',(-8.08836115822524E-18,-1.,5.4916404068344E-17));
#1538=DIRECTION('',(1.,0.,0.));
#1539=DIRECTION('',(-8.08836115822524E-18,-1.,5.4916404068344E-17));
#1540=DIRECTION('',(1.,0.,0.));
#1541=DIRECTION('',(-8.08836115822524E-18,-1.,5.4916404068344E-17));
#1542=DIRECTION('',(1.,0.,0.));
#1543=DIRECTION('',(8.08836115822524E-18,1.,-5.4916404068344E-17));
#1544=DIRECTION('',(-0.707106781186548,4.45510967387735E-17,0.707106781186548));
#1545=DIRECTION('',(-8.08836115822524E-18,-1.,5.4916404068344E-17));
#1546=DIRECTION('',(0.707106781186548,-4.45510967387735E-17,-0.707106781186548));
#1547=DIRECTION('',(-8.08836115822524E-18,-1.,5.4916404068344E-17));
#1548=DIRECTION('',(0.707106781186548,-4.45510967387735E-17,-0.707106781186548));
#1549=DIRECTION('',(8.08836115822524E-18,1.,-5.4916404068344E-17));
#1550=DIRECTION('',(-0.707106781186548,4.45510967387735E-17,0.707106781186548));
#1551=DIRECTION('',(-8.08836115822524E-18,-1.,5.4916404068344E-17));
#1552=DIRECTION('',(0.707106781186548,-4.45510967387735E-17,-0.707106781186548));
#1553=DIRECTION('',(8.08836115822524E-18,1.,-5.4916404068344E-17));
#1554=DIRECTION('',(0.,5.4916404068344E-17,1.));
#1555=DIRECTION('',(-8.08836115822524E-18,-1.,5.4916404068344E-17));
#1556=DIRECTION('',(0.707106781186548,-4.45510967387735E-17,-0.707106781186548));
#1557=DIRECTION('',(8.08836115822524E-18,1.,-5.4916404068344E-17));
#1558=DIRECTION('',(-0.707106781186548,4.45510967387735E-17,0.707106781186548));
#1559=DIRECTION('',(-8.08836115822524E-18,-1.,5.4916404068344E-17));
#1560=DIRECTION('',(0.707106781186548,-4.45510967387735E-17,-0.707106781186548));
#1561=DIRECTION('',(8.08836115822524E-18,1.,-5.4916404068344E-17));
#1562=DIRECTION('',(0.,5.4916404068344E-17,1.));
#1563=DIRECTION('',(-8.08836115822524E-18,-1.,5.4916404068344E-17));
#1564=DIRECTION('',(0.707106781186548,-4.45510967387735E-17,-0.707106781186548));
#1565=DIRECTION('',(8.08836115822524E-18,1.,-5.4916404068344E-17));
#1566=DIRECTION('',(-0.707106781186548,4.45510967387735E-17,0.707106781186548));
#1567=DIRECTION('',(-8.08836115822524E-18,-1.,5.4916404068344E-17));
#1568=DIRECTION('',(0.707106781186548,-4.45510967387735E-17,-0.707106781186548));
#1569=DIRECTION('',(8.08836115822524E-18,1.,-5.4916404068344E-17));
#1570=DIRECTION('',(0.,5.4916404068344E-17,1.));
#1571=DIRECTION('',(-8.08836115822524E-18,-1.,5.4916404068344E-17));
#1572=DIRECTION('',(0.707106781186548,-4.45510967387735E-17,-0.707106781186548));
#1573=DIRECTION('',(8.08836115822524E-18,1.,-5.4916404068344E-17));
#1574=DIRECTION('',(-0.707106781186548,4.45510967387735E-17,0.707106781186548));
#1575=DIRECTION('',(-8.08836115822524E-18,-1.,5.4916404068344E-17));
#1576=DIRECTION('',(0.707106781186548,-4.45510967387735E-17,-0.707106781186548));
#1577=DIRECTION('',(8.08836115822524E-18,1.,-5.4916404068344E-17));
#1578=DIRECTION('',(0.,5.4916404068344E-17,1.));
#1579=DIRECTION('',(-8.08836115822524E-18,-1.,5.4916404068344E-17));
#1580=DIRECTION('',(0.707106781186548,-4.45510967387735E-17,-0.707106781186548));
#1581=DIRECTION('',(8.08836115822524E-18,1.,-5.4916404068344E-17));
#1582=DIRECTION('',(-0.707106781186548,4.45510967387735E-17,0.707106781186548));
#1583=DIRECTION('',(-8.08836115822524E-18,-1.,5.4916404068344E-17));
#1584=DIRECTION('',(0.707106781186548,-4.45510967387735E-17,-0.707106781186548));
#1585=DIRECTION('',(-8.08836115822524E-18,-1.,5.4916404068344E-17));
#1586=DIRECTION('',(0.707106781186548,-4.45510967387735E-17,-0.707106781186548));
#1587=DIRECTION('',(-8.08836115822524E-18,-1.,5.4916404068344E-17));
#1588=DIRECTION('',(0.707106781186548,-4.45510967387735E-17,-0.707106781186548));
#1589=DIRECTION('',(-8.08836115822524E-18,-1.,5.4916404068344E-17));
#1590=DIRECTION('',(0.707106781186548,-4.45510967387735E-17,-0.707106781186548));
#1591=DIRECTION('',(-8.08836115822524E-18,-1.,5.4916404068344E-17));
#1592=DIRECTION('',(0.707106781186548,-4.45510967387735E-17,-0.707106781186548));
#1593=DIRECTION('',(-8.08836115822524E-18,-1.,5.4916404068344E-17));
#1594=DIRECTION('',(0.707106781186548,-4.45510967387735E-17,-0.707106781186548));
#1595=DIRECTION('',(-8.08836115822524E-18,-1.,5.4916404068344E-17));
#1596=DIRECTION('',(0.,-5.4916404068344E-17,-1.));
#1597=DIRECTION('',(8.08836115822524E-18,1.,-5.4916404068344E-17));
#1598=DIRECTION('',(0.,5.4916404068344E-17,1.));
#1599=DIRECTION('',(8.08836115822524E-18,1.,-5.4916404068344E-17));
#1600=DIRECTION('',(0.,5.4916404068344E-17,1.));
#1601=DIRECTION('',(-8.08836115822524E-18,-1.,5.4916404068344E-17));
#1602=DIRECTION('',(0.,-5.4916404068344E-17,-1.));
#1603=DIRECTION('',(-8.08836115822524E-18,-1.,5.4916404068344E-17));
#1604=DIRECTION('',(0.,-5.4916404068344E-17,-1.));
#1605=DIRECTION('',(-8.08836115822524E-18,-1.,5.4916404068344E-17));
#1606=DIRECTION('',(0.,-5.4916404068344E-17,-1.));
#1607=DIRECTION('',(-8.08836115822524E-18,-1.,5.4916404068344E-17));
#1608=DIRECTION('',(0.,-5.4916404068344E-17,-1.));
#1609=DIRECTION('',(-8.08836115822524E-18,-1.,5.4916404068344E-17));
#1610=DIRECTION('',(0.,-5.4916404068344E-17,-1.));
#1611=CARTESIAN_POINT('',(0.,0.,0.));
#1612=CARTESIAN_POINT('',(0.171108431761242,0.02581,0.198372836032503));
#1613=CARTESIAN_POINT('',(0.171108431761242,0.022,0.198372836032503));
#1614=CARTESIAN_POINT('',(0.172455470179402,0.022,0.197025797614343));
#1615=CARTESIAN_POINT('',(0.171108431761242,0.023778,0.198372836032503));
#1616=CARTESIAN_POINT('',(0.172455470179402,0.023778,0.197025797614343));
#1617=CARTESIAN_POINT('',(0.19835900514971,0.02581,0.171122262644035));
#1618=CARTESIAN_POINT('',(0.19835900514971,0.022,0.171122262644035));
#1619=CARTESIAN_POINT('',(0.19970604356787,0.022,0.169775224225875));
#1620=CARTESIAN_POINT('',(0.19835900514971,0.023778,0.171122262644035));
#1621=CARTESIAN_POINT('',(0.19970604356787,0.023778,0.169775224225875));
#1622=CARTESIAN_POINT('',(0.182814716502836,0.02581,0.18282854738563));
#1623=CARTESIAN_POINT('',(0.182814716502836,0.022,0.18282854738563));
#1624=CARTESIAN_POINT('',(0.188532922658571,0.022,0.194168393873149));
#1625=CARTESIAN_POINT('',(0.194154562990356,0.022,0.188546753541363));
#1626=CARTESIAN_POINT('',(0.18853292265857,0.02581,0.194168393873149));
#1627=CARTESIAN_POINT('',(0.188532922658571,0.02581,0.194168393873149));
#1628=CARTESIAN_POINT('',(0.182814716502836,0.02581,0.18282854738563));
#1629=CARTESIAN_POINT('',(0.194154562990356,0.02581,0.188546753541363));
#1630=CARTESIAN_POINT('',(0.194154562990356,0.02581,0.188546753541362));
#1631=CARTESIAN_POINT('',(0.188115795202063,0.02581,0.192835122076017));
#1632=CARTESIAN_POINT('',(0.188115795202063,0.022,0.192835122076017));
#1633=CARTESIAN_POINT('',(0.186949015781214,0.022,0.193603389466372));
#1634=CARTESIAN_POINT('',(0.186949015781213,0.02581,0.193603389466372));
#1635=CARTESIAN_POINT('',(0.186949015781214,0.02581,0.193603389466372));
#1636=CARTESIAN_POINT('',(0.188115795202063,0.02581,0.192835122076017));
#1637=CARTESIAN_POINT('',(0.186240362735348,0.02581,0.195234062597502));
#1638=CARTESIAN_POINT('',(0.186240362735348,0.022,0.195234062597502));
#1639=CARTESIAN_POINT('',(0.185672088357135,0.022,0.193549322786412));
#1640=CARTESIAN_POINT('',(0.185672088357122,0.02581,0.193549322786417));
#1641=CARTESIAN_POINT('',(0.185672088357135,0.02581,0.193549322786412));
#1642=CARTESIAN_POINT('',(0.186240362735348,0.02581,0.195234062597502));
#1643=CARTESIAN_POINT('',(0.182816825202661,0.02581,0.184653696412978));
#1644=CARTESIAN_POINT('',(0.182816825202661,0.022,0.184653696412978));
#1645=CARTESIAN_POINT('',(0.180461889399115,0.022,0.193694657292122));
#1646=CARTESIAN_POINT('',(0.180461889399115,0.02581,0.193694657292122));
#1647=CARTESIAN_POINT('',(0.180461889399115,0.02581,0.193694657292122));
#1648=CARTESIAN_POINT('',(0.182816825202661,0.02581,0.184653696412978));
#1649=CARTESIAN_POINT('',(0.179385668172745,0.02581,0.192618436065752));
#1650=CARTESIAN_POINT('',(0.179385668172745,0.022,0.192618436065752));
#1651=CARTESIAN_POINT('',(0.178309446946374,0.022,0.191542214839381));
#1652=CARTESIAN_POINT('',(0.178309446946373,0.02581,0.191542214839381));
#1653=CARTESIAN_POINT('',(0.178309446946374,0.02581,0.191542214839381));
#1654=CARTESIAN_POINT('',(0.169175365602744,0.02581,0.182408133495751));
#1655=CARTESIAN_POINT('',(0.176867155514672,0.02581,0.176880986397465));
#1656=CARTESIAN_POINT('',(0.176867155514672,0.022,0.176880986397465));
#1657=CARTESIAN_POINT('',(0.191528383956588,0.022,0.178323277829168));
#1658=CARTESIAN_POINT('',(0.191528383956588,0.02581,0.178323277829168));
#1659=CARTESIAN_POINT('',(0.191528383956588,0.02581,0.178323277829168));
#1660=CARTESIAN_POINT('',(0.176867155514672,0.02581,0.176880986397465));
#1661=CARTESIAN_POINT('',(0.192604605182959,0.02581,0.179399499055538));
#1662=CARTESIAN_POINT('',(0.182394302612958,0.022,0.169189196485538));
#1663=CARTESIAN_POINT('',(0.193680826409329,0.022,0.180475720281909));
#1664=CARTESIAN_POINT('',(0.193680826409329,0.02581,0.180475720281909));
#1665=CARTESIAN_POINT('',(0.193680826409329,0.02581,0.180475720281909));
#1666=CARTESIAN_POINT('',(0.192604605182959,0.02581,0.179399499055538));
#1667=CARTESIAN_POINT('',(0.184639865530184,0.02581,0.182830656085455));
#1668=CARTESIAN_POINT('',(0.184639865530184,0.022,0.182830656085455));
#1669=CARTESIAN_POINT('',(0.193535491903619,0.022,0.185685919239928));
#1670=CARTESIAN_POINT('',(0.193535491903623,0.02581,0.185685919239915));
#1671=CARTESIAN_POINT('',(0.193535491903619,0.02581,0.185685919239928));
#1672=CARTESIAN_POINT('',(0.184639865530184,0.02581,0.182830656085455));
#1673=CARTESIAN_POINT('',(0.195220231714708,0.02581,0.186254193618141));
#1674=CARTESIAN_POINT('',(0.195220231714708,0.022,0.186254193618141));
#1675=CARTESIAN_POINT('',(0.193589558583579,0.022,0.186962846664008));
#1676=CARTESIAN_POINT('',(0.193589558583579,0.02581,0.186962846664007));
#1677=CARTESIAN_POINT('',(0.193589558583579,0.02581,0.186962846664008));
#1678=CARTESIAN_POINT('',(0.195220231714708,0.02581,0.186254193618141));
#1679=CARTESIAN_POINT('',(0.16095778378189,0.02581,0.193033826290861));
#1680=CARTESIAN_POINT('',(0.16095778378189,0.02581,0.193033826290861));
#1681=CARTESIAN_POINT('',(0.182247051663501,0.02581,0.159592288442274));
#1682=CARTESIAN_POINT('',(0.181213599477269,0.02581,0.158956395179811));
#1683=CARTESIAN_POINT('',(0.182247051663502,0.02581,0.159592288442274));
#1684=CARTESIAN_POINT('',(0.182247051663501,0.022,0.159592288442274));
#1685=CARTESIAN_POINT('',(0.16095778378189,0.022,0.193033826290861));
#1686=CARTESIAN_POINT('',(0.18121359947727,0.022,0.158956395179811));
#1687=CARTESIAN_POINT('',(0.181213599477269,0.02581,0.158956395179811));
#1688=CARTESIAN_POINT('',(0.179929422851957,0.02581,0.158193073409521));
#1689=CARTESIAN_POINT('',(0.179929422851957,0.022,0.158193073409521));
#1690=CARTESIAN_POINT('',(0.178645246226644,0.022,0.15742975163923));
#1691=CARTESIAN_POINT('',(0.178645246226644,0.02581,0.15742975163923));
#1692=CARTESIAN_POINT('',(0.178645246226643,0.02581,0.15742975163923));
#1693=CARTESIAN_POINT('',(0.181213599477269,0.02581,0.158956395179811));
#1694=CARTESIAN_POINT('',(0.175151926595548,0.02581,0.155229588889568));
#1695=CARTESIAN_POINT('',(0.175151926595548,0.022,0.155229588889568));
#1696=CARTESIAN_POINT('',(0.171658606964452,0.022,0.153029426139906));
#1697=CARTESIAN_POINT('',(0.171658606964452,0.02581,0.153029426139906));
#1698=CARTESIAN_POINT('',(0.171658606964452,0.02581,0.153029426139906));
#1699=CARTESIAN_POINT('',(0.178645246226644,0.02581,0.15742975163923));
#1700=CARTESIAN_POINT('',(0.173158756498352,0.02581,0.150647556063632));
#1701=CARTESIAN_POINT('',(0.173158756498352,0.022,0.150647556063632));
#1702=CARTESIAN_POINT('',(0.170365450083018,0.022,0.150299428279107));
#1703=CARTESIAN_POINT('',(0.170365450083018,0.02581,0.150299428279105));
#1704=CARTESIAN_POINT('',(0.170365450083018,0.02581,0.150299428279107));
#1705=CARTESIAN_POINT('',(0.173158756498352,0.02581,0.150647556063632));
#1706=CARTESIAN_POINT('',(0.166976901499482,0.02581,0.150006338751005));
#1707=CARTESIAN_POINT('',(0.166976901499482,0.022,0.150006338751005));
#1708=CARTESIAN_POINT('',(0.164187033871722,0.022,0.151951795405378));
#1709=CARTESIAN_POINT('',(0.164187033871722,0.02581,0.151951795405378));
#1710=CARTESIAN_POINT('',(0.164187033871722,0.02581,0.151951795405378));
#1711=CARTESIAN_POINT('',(0.166976901499482,0.02581,0.150006338751005));
#1712=CARTESIAN_POINT('',(0.166297394060174,0.02581,0.154978141718178));
#1713=CARTESIAN_POINT('',(0.166297394060174,0.022,0.154978141718178));
#1714=CARTESIAN_POINT('',(0.168407754248626,0.022,0.158004488030979));
#1715=CARTESIAN_POINT('',(0.168407754248626,0.02581,0.158004488030979));
#1716=CARTESIAN_POINT('',(0.168407754248628,0.02581,0.158004488030982));
#1717=CARTESIAN_POINT('',(0.164187033871722,0.02581,0.151951795405378));
#1718=CARTESIAN_POINT('',(0.167589734554688,0.02581,0.158587388291928));
#1719=CARTESIAN_POINT('',(0.167589734554688,0.022,0.158587388291928));
#1720=CARTESIAN_POINT('',(0.168299991175172,0.022,0.159297644912412));
#1721=CARTESIAN_POINT('',(0.168299991175172,0.02581,0.159297644912412));
#1722=CARTESIAN_POINT('',(0.168299991175172,0.02581,0.159297644912412));
#1723=CARTESIAN_POINT('',(0.167589734554688,0.02581,0.158587388291928));
#1724=CARTESIAN_POINT('',(0.163785697042418,0.02581,0.163811939045166));
#1725=CARTESIAN_POINT('',(0.163785697042418,0.022,0.163811939045166));
#1726=CARTESIAN_POINT('',(0.159271402909631,0.022,0.168326233177953));
#1727=CARTESIAN_POINT('',(0.159271402909638,0.02581,0.168326233177947));
#1728=CARTESIAN_POINT('',(0.159271402909624,0.02581,0.16832623317796));
#1729=CARTESIAN_POINT('',(0.163791902602418,0.02581,0.163805733485167));
#1730=CARTESIAN_POINT('',(0.158559815038034,0.02581,0.167600001543697));
#1731=CARTESIAN_POINT('',(0.158559815038034,0.022,0.167600001543697));
#1732=CARTESIAN_POINT('',(0.157978246028229,0.022,0.168433996251373));
#1733=CARTESIAN_POINT('',(0.157978246028229,0.02581,0.168433996251374));
#1734=CARTESIAN_POINT('',(0.157978246028229,0.02581,0.168433996251373));
#1735=CARTESIAN_POINT('',(0.158559815038034,0.02581,0.167600001543697));
#1736=CARTESIAN_POINT('',(0.154951899715429,0.02581,0.166323636062922));
#1737=CARTESIAN_POINT('',(0.151925553402629,0.022,0.164213275874471));
#1738=CARTESIAN_POINT('',(0.151925553402629,0.022,0.164213275874472));
#1739=CARTESIAN_POINT('',(0.151925553402629,0.02581,0.164213275874471));
#1740=CARTESIAN_POINT('',(0.151925553402629,0.02581,0.164213275874472));
#1741=CARTESIAN_POINT('',(0.154951899715429,0.02581,0.166323636062922));
#1742=CARTESIAN_POINT('',(0.149980096748256,0.02581,0.16700314350223));
#1743=CARTESIAN_POINT('',(0.149980096748256,0.022,0.16700314350223));
#1744=CARTESIAN_POINT('',(0.150273186276358,0.022,0.170391692085766));
#1745=CARTESIAN_POINT('',(0.150273186276356,0.02581,0.170391692085767));
#1746=CARTESIAN_POINT('',(0.150273186276358,0.02581,0.170391692085766));
#1747=CARTESIAN_POINT('',(0.149980096748256,0.02581,0.16700314350223));
#1748=CARTESIAN_POINT('',(0.150621314060883,0.02581,0.173184998501101));
#1749=CARTESIAN_POINT('',(0.150621314060883,0.022,0.173184998501101));
#1750=CARTESIAN_POINT('',(0.153003184137157,0.022,0.171684848967201));
#1751=CARTESIAN_POINT('',(0.153003184137157,0.02581,0.171684848967201));
#1752=CARTESIAN_POINT('',(0.153003184137157,0.02581,0.171684848967201));
#1753=CARTESIAN_POINT('',(0.150621314060883,0.02581,0.173184998501101));
#1754=CARTESIAN_POINT('',(0.155203346886819,0.02581,0.175178168598297));
#1755=CARTESIAN_POINT('',(0.157403509636482,0.022,0.178671488229392));
#1756=CARTESIAN_POINT('',(0.157403509636482,0.022,0.178671488229392));
#1757=CARTESIAN_POINT('',(0.157403509636481,0.02581,0.178671488229392));
#1758=CARTESIAN_POINT('',(0.157403509636481,0.02581,0.178671488229392));
#1759=CARTESIAN_POINT('',(0.155203346886819,0.02581,0.175178168598297));
#1760=CARTESIAN_POINT('',(0.158166831406772,0.02581,0.179955664854705));
#1761=CARTESIAN_POINT('',(0.158930153177065,0.022,0.18123984148002));
#1762=CARTESIAN_POINT('',(0.158930153177066,0.022,0.181239841480022));
#1763=CARTESIAN_POINT('',(0.158930153177063,0.02581,0.181239841480018));
#1764=CARTESIAN_POINT('',(0.158930153177063,0.02581,0.181239841480018));
#1765=CARTESIAN_POINT('',(0.158166831406772,0.02581,0.179955664854705));
#1766=CARTESIAN_POINT('',(0.19300382691846,0.02581,0.160986259186182));
#1767=CARTESIAN_POINT('',(0.19300382691846,0.022,0.160986259186182));
#1768=CARTESIAN_POINT('',(0.159569563969333,0.022,0.18227881420001));
#1769=CARTESIAN_POINT('',(0.159569563969333,0.02581,0.18227881420001));
#1770=CARTESIAN_POINT('',(0.159569563969333,0.02581,0.18227881420001));
#1771=CARTESIAN_POINT('',(0.19300382691846,0.02581,0.160986259186182));
#1772=CARTESIAN_POINT('',(0.163762579781499,0.02581,0.206469412320035));
#1773=CARTESIAN_POINT('',(0.163762579781499,0.022,0.206469412320035));
#1774=CARTESIAN_POINT('',(0.163462931402625,0.022,0.207587715294398));
#1775=CARTESIAN_POINT('',(0.161830340582075,0.022,0.213680627184664));
#1776=CARTESIAN_POINT('',(0.161830340582075,0.02581,0.213680627184664));
#1777=CARTESIAN_POINT('',(0.161830340582075,0.02581,0.213680627184664));
#1778=CARTESIAN_POINT('',(0.163462931402625,0.02581,0.207587715294398));
#1779=CARTESIAN_POINT('',(0.163462931402625,0.02581,0.207587715294399));
#1780=CARTESIAN_POINT('',(0.163462931402625,0.02581,0.207587715294398));
#1781=CARTESIAN_POINT('',(0.165471352958863,0.02581,0.219410700529066));
#1782=CARTESIAN_POINT('',(0.165471352958863,0.02581,0.219410700529066));
#1783=CARTESIAN_POINT('',(0.165865003971349,0.02581,0.219516178999961));
#1784=CARTESIAN_POINT('',(0.165077701946377,0.02581,0.219305222058171));
#1785=CARTESIAN_POINT('',(0.165077701946377,0.022,0.219305222058171));
#1786=CARTESIAN_POINT('',(0.165077701946378,0.022,0.219305222058171));
#1787=CARTESIAN_POINT('',(0.170300982090253,0.022,0.220704795754564));
#1788=CARTESIAN_POINT('',(0.165865003971349,0.022,0.219516178999961));
#1789=CARTESIAN_POINT('',(0.165865003971349,0.02581,0.219516178999961));
#1790=CARTESIAN_POINT('',(0.173068862142108,0.02581,0.210374926771783));
#1791=CARTESIAN_POINT('',(0.173068862142108,0.02581,0.210374926771783));
#1792=CARTESIAN_POINT('',(0.17271256907345,0.02581,0.211704630606398));
#1793=CARTESIAN_POINT('',(0.171489598844855,0.02581,0.216268817635659));
#1794=CARTESIAN_POINT('',(0.171489598844855,0.02581,0.216268817635659));
#1795=CARTESIAN_POINT('',(0.171489598844856,0.022,0.216268817635659));
#1796=CARTESIAN_POINT('',(0.17271256907345,0.022,0.211704630606399));
#1797=CARTESIAN_POINT('',(0.17271256907345,0.022,0.211704630606399));
#1798=CARTESIAN_POINT('',(0.17271256907345,0.02581,0.211704630606399));
#1799=CARTESIAN_POINT('',(0.181327557922755,0.02581,0.201372347271971));
#1800=CARTESIAN_POINT('',(0.181327557922755,0.022,0.201372347271971));
#1801=CARTESIAN_POINT('',(0.18162669125884,0.022,0.19841564057579));
#1802=CARTESIAN_POINT('',(0.178775286345413,0.022,0.199850011883337));
#1803=CARTESIAN_POINT('',(0.18162669125884,0.02581,0.19841564057579));
#1804=CARTESIAN_POINT('',(0.18162669125884,0.02581,0.19841564057579));
#1805=CARTESIAN_POINT('',(0.181327557922755,0.02581,0.201372347271971));
#1806=CARTESIAN_POINT('',(0.178775286345413,0.02581,0.199850011883337));
#1807=CARTESIAN_POINT('',(0.178775286345413,0.02581,0.199850011883338));
#1808=CARTESIAN_POINT('',(0.182952201318283,0.02581,0.182978443321031));
#1809=CARTESIAN_POINT('',(0.182952201318283,0.022,0.182978443321031));
#1810=CARTESIAN_POINT('',(0.198386525297078,0.022,0.181619885513066));
#1811=CARTESIAN_POINT('',(0.198386525297078,0.02581,0.181619885513066));
#1812=CARTESIAN_POINT('',(0.198386525297078,0.02581,0.181619885513066));
#1813=CARTESIAN_POINT('',(0.182952201318283,0.02581,0.182978443321031));
#1814=CARTESIAN_POINT('',(0.201346364944513,0.02581,0.18135353142267));
#1815=CARTESIAN_POINT('',(0.201346364944513,0.022,0.18135353142267));
#1816=CARTESIAN_POINT('',(0.199802732014562,0.022,0.17881408411714));
#1817=CARTESIAN_POINT('',(0.199802732014563,0.02581,0.178814084117139));
#1818=CARTESIAN_POINT('',(0.199802732014562,0.02581,0.17881408411714));
#1819=CARTESIAN_POINT('',(0.201346364944513,0.02581,0.18135353142267));
#1820=CARTESIAN_POINT('',(0.210353613011415,0.02581,0.173084698055904));
#1821=CARTESIAN_POINT('',(0.210353613011415,0.022,0.173084698055904));
#1822=CARTESIAN_POINT('',(0.211686565340705,0.022,0.172727534555722));
#1823=CARTESIAN_POINT('',(0.216254986752865,0.022,0.171503429727649));
#1824=CARTESIAN_POINT('',(0.216254986752865,0.02581,0.171503429727649));
#1825=CARTESIAN_POINT('',(0.216254986752865,0.02581,0.171503429727649));
#1826=CARTESIAN_POINT('',(0.211686565340706,0.02581,0.172727534555722));
#1827=CARTESIAN_POINT('',(0.211686565340706,0.02581,0.172727534555721));
#1828=CARTESIAN_POINT('',(0.211686565340706,0.02581,0.172727534555722));
#1829=CARTESIAN_POINT('',(0.219396869646256,0.02581,0.165485183841596));
#1830=CARTESIAN_POINT('',(0.218102774420742,0.022,0.160655554710147));
#1831=CARTESIAN_POINT('',(0.219291391175345,0.022,0.165091532829052));
#1832=CARTESIAN_POINT('',(0.219502348117168,0.022,0.165878834854142));
#1833=CARTESIAN_POINT('',(0.219291391175345,0.02581,0.165091532829052));
#1834=CARTESIAN_POINT('',(0.219291391175345,0.02581,0.165091532829052));
#1835=CARTESIAN_POINT('',(0.219396869646256,0.02581,0.165485183841596));
#1836=CARTESIAN_POINT('',(0.219502348117168,0.02581,0.165878834854142));
#1837=CARTESIAN_POINT('',(0.219502348117168,0.022,0.165878834854142));
#1838=CARTESIAN_POINT('',(0.192821291193223,0.02581,0.188129626084857));
#1839=CARTESIAN_POINT('',(0.192821291193223,0.022,0.188129626084857));
#1840=CARTESIAN_POINT('',(0.192821291193223,0.02581,0.188129626084857));
#1841=CARTESIAN_POINT('',(0.20645558143721,0.02581,0.163776410664173));
#1842=CARTESIAN_POINT('',(0.20645558143721,0.02581,0.163776410664173));
#1843=CARTESIAN_POINT('',(0.207551433124259,0.02581,0.163482778089604));
#1844=CARTESIAN_POINT('',(0.213666796301838,0.02581,0.161844171464749));
#1845=CARTESIAN_POINT('',(0.213666796301838,0.02581,0.161844171464749));
#1846=CARTESIAN_POINT('',(0.213666796301838,0.022,0.161844171464748));
#1847=CARTESIAN_POINT('',(0.207551433124259,0.022,0.163482778089603));
#1848=CARTESIAN_POINT('',(0.207551433124259,0.022,0.163482778089603));
#1849=CARTESIAN_POINT('',(0.207551433124259,0.02581,0.163482778089604));
#1850=CARTESIAN_POINT('',(0.175784834107873,0.02581,0.175798664990623));
#1851=CARTESIAN_POINT('',(0.19835900514971,0.02581,0.171122262644035));
#1852=CARTESIAN_POINT('',(0.199975451251502,0.02581,0.169505816542243));
#1853=CARTESIAN_POINT('',(0.176852313657502,0.02581,0.196690204343255));
#1854=CARTESIAN_POINT('',(0.178468759759294,0.02581,0.195073758241462));
#1855=CARTESIAN_POINT('',(0.196663962340506,0.02581,0.17687855566025));
#1856=CARTESIAN_POINT('',(0.198280408442298,0.02581,0.175262109558458));
#1857=CARTESIAN_POINT('',(0.166976901499482,0.02581,0.150006338751005));
#1858=CARTESIAN_POINT('',(0.168593347601274,0.02581,0.148389892649213));
#1859=CARTESIAN_POINT('',(0.149973309362037,0.02581,0.167001328271033));
#1860=CARTESIAN_POINT('',(0.151589755463829,0.02581,0.16538488216924));
#1861=CARTESIAN_POINT('',(0.171108431761242,0.02581,0.198372836032503));
#1862=CARTESIAN_POINT('',(0.172724877863034,0.02581,0.196756389930711));
#1863=CARTESIAN_POINT('',(0.21485541305644,0.02581,0.166280149583654));
#1864=CARTESIAN_POINT('',(0.199322105344347,0.02581,0.132770508702826));
#1865=CARTESIAN_POINT('',(0.132750662015847,0.02581,0.199358387514487));
#1866=CARTESIAN_POINT('',(0.166266318700979,0.02581,0.214869243939266));
#1867=CARTESIAN_POINT('',(0.16705362072595,0.02581,0.215080200881057));
#1868=CARTESIAN_POINT('',(0.203424838460227,0.02581,0.21993395838631));
#1869=CARTESIAN_POINT('',(0.219915893120616,0.02581,0.203439803942499));
#1870=CARTESIAN_POINT('',(0.215066369998263,0.02581,0.167067451608744));
#1871=CARTESIAN_POINT('',(0.175784834107873,0.022,0.175798664990623));
#1872=CARTESIAN_POINT('',(0.21485541305644,0.022,0.166280149583654));
#1873=CARTESIAN_POINT('',(0.215066369998263,0.022,0.167067451608744));
#1874=CARTESIAN_POINT('',(0.219915893120616,0.022,0.203439803942499));
#1875=CARTESIAN_POINT('',(0.203424838460227,0.022,0.21993395838631));
#1876=CARTESIAN_POINT('',(0.16705362072595,0.022,0.215080200881057));
#1877=CARTESIAN_POINT('',(0.166266318700979,0.022,0.214869243939266));
#1878=CARTESIAN_POINT('',(0.132750662015847,0.022,0.199358387514487));
#1879=CARTESIAN_POINT('',(0.199322105344347,0.022,0.132770508702826));
#1880=CARTESIAN_POINT('',(0.149973309362037,0.022,0.167001328271033));
#1881=CARTESIAN_POINT('',(0.151223306862037,0.022,0.167001328271033));
#1882=CARTESIAN_POINT('',(0.196663962340506,0.022,0.17687855566025));
#1883=CARTESIAN_POINT('',(0.197913959840506,0.022,0.17687855566025));
#1884=CARTESIAN_POINT('',(0.176852313657502,0.022,0.196690204343255));
#1885=CARTESIAN_POINT('',(0.178102311157502,0.022,0.196690204343255));
#1886=CARTESIAN_POINT('',(0.166976901499482,0.022,0.150006338751005));
#1887=CARTESIAN_POINT('',(0.168226898999482,0.022,0.150006338751005));
#1888=CARTESIAN_POINT('',(0.169491985659449,0.023778,0.199989282134296));
#1889=CARTESIAN_POINT('',(0.171108431761242,0.023778,0.198372836032503));
#1890=CARTESIAN_POINT('',(0.172724877863034,0.023778,0.196756389930711));
#1891=CARTESIAN_POINT('',(0.171108431761242,0.02581,0.198372836032503));
#1892=CARTESIAN_POINT('',(0.148356863260244,0.023778,0.168617774372825));
#1893=CARTESIAN_POINT('',(0.149973309362037,0.023778,0.167001328271033));
#1894=CARTESIAN_POINT('',(0.151589755463829,0.023778,0.16538488216924));
#1895=CARTESIAN_POINT('',(0.149973309362037,0.023778,0.167001328271033));
#1896=CARTESIAN_POINT('',(0.149973309362037,0.023778,0.168251325771032));
#1897=CARTESIAN_POINT('',(0.149973309362037,0.02581,0.167001328271033));
#1898=CARTESIAN_POINT('',(0.165360455397689,0.023778,0.151622784852797));
#1899=CARTESIAN_POINT('',(0.166976901499482,0.023778,0.150006338751005));
#1900=CARTESIAN_POINT('',(0.168593347601274,0.023778,0.148389892649213));
#1901=CARTESIAN_POINT('',(0.166976901499482,0.023778,0.150006338751005));
#1902=CARTESIAN_POINT('',(0.166976901499482,0.023778,0.151256336251005));
#1903=CARTESIAN_POINT('',(0.166976901499482,0.02581,0.150006338751005));
#1904=CARTESIAN_POINT('',(0.195047516238713,0.023778,0.178495001762043));
#1905=CARTESIAN_POINT('',(0.196663962340506,0.023778,0.17687855566025));
#1906=CARTESIAN_POINT('',(0.198280408442298,0.023778,0.175262109558458));
#1907=CARTESIAN_POINT('',(0.196663962340506,0.023778,0.17687855566025));
#1908=CARTESIAN_POINT('',(0.196663962340506,0.023778,0.17812855316025));
#1909=CARTESIAN_POINT('',(0.196663962340506,0.02581,0.17687855566025));
#1910=CARTESIAN_POINT('',(0.175235867555709,0.023778,0.198306650445047));
#1911=CARTESIAN_POINT('',(0.176852313657502,0.023778,0.196690204343255));
#1912=CARTESIAN_POINT('',(0.178468759759294,0.023778,0.195073758241462));
#1913=CARTESIAN_POINT('',(0.176852313657502,0.023778,0.196690204343255));
#1914=CARTESIAN_POINT('',(0.176852313657502,0.023778,0.197940201843255));
#1915=CARTESIAN_POINT('',(0.176852313657502,0.02581,0.196690204343255));
#1916=CARTESIAN_POINT('',(0.196742559047918,0.023778,0.172738708745828));
#1917=CARTESIAN_POINT('',(0.19835900514971,0.023778,0.171122262644035));
#1918=CARTESIAN_POINT('',(0.199975451251502,0.023778,0.169505816542243));
#1919=CARTESIAN_POINT('',(0.19835900514971,0.02581,0.171122262644035));
#1920=CARTESIAN_POINT('',(0.199322105344347,0.02581,0.132770508702826));
#1921=CARTESIAN_POINT('',(0.132750662015847,0.02581,0.199358387514487));
#1922=CARTESIAN_POINT('',(0.203424838460227,0.02581,0.21993395838631));
#1923=CARTESIAN_POINT('',(0.219915893120616,0.02581,0.203439803942499));
#1924=CARTESIAN_POINT('',(0.21485541305644,0.02581,0.166280149583654));
#1925=CARTESIAN_POINT('',(0.215066369998263,0.02581,0.167067451608744));
#1926=CARTESIAN_POINT('',(0.166266318700979,0.02581,0.214869243939266));
#1927=CARTESIAN_POINT('',(0.16705362072595,0.02581,0.215080200881057));
#1928=CARTESIAN_POINT('',(0.149973309362037,0.02378,0.167001328271033));
#1929=CARTESIAN_POINT('',(0.196663962340506,0.02378,0.17687855566025));
#1930=CARTESIAN_POINT('',(0.176852313657502,0.02378,0.196690204343255));
#1931=CARTESIAN_POINT('',(0.166976901499482,0.02378,0.150006338751005));
#1932=MECHANICAL_DESIGN_GEOMETRIC_PRESENTATION_REPRESENTATION('',(#1105),
#1933);
#1933=(
GEOMETRIC_REPRESENTATION_CONTEXT(3)
GLOBAL_UNCERTAINTY_ASSIGNED_CONTEXT((#1934))
GLOBAL_UNIT_ASSIGNED_CONTEXT((#1937,#1936,#1935))
REPRESENTATION_CONTEXT('Part 2__Part 2','TOP_LEVEL_ASSEMBLY_PART')
);
#1934=UNCERTAINTY_MEASURE_WITH_UNIT(LENGTH_MEASURE(1.E-8),#1937,
'DISTANCE_ACCURACY_VALUE','Maximum Tolerance applied to model');
#1935=(
NAMED_UNIT(*)
SI_UNIT($,.STERADIAN.)
SOLID_ANGLE_UNIT()
);
#1936=(
NAMED_UNIT(*)
PLANE_ANGLE_UNIT()
SI_UNIT($,.RADIAN.)
);
#1937=(
LENGTH_UNIT()
NAMED_UNIT(*)
SI_UNIT($,.METRE.)
);
#1938=PRODUCT_DEFINITION_SHAPE('','',#1939);
#1939=PRODUCT_DEFINITION('','',#1941,#1940);
#1940=PRODUCT_DEFINITION_CONTEXT('',#1947,'design');
#1941=PRODUCT_DEFINITION_FORMATION_WITH_SPECIFIED_SOURCE('','',#1943,
 .NOT_KNOWN.);
#1942=PRODUCT_RELATED_PRODUCT_CATEGORY('','',(#1943));
#1943=PRODUCT('Part 2__Part 2','Part 2__Part 2','Part 2__Part 2',(#1945));
#1944=PRODUCT_CATEGORY('','');
#1945=PRODUCT_CONTEXT('',#1947,'mechanical');
#1946=APPLICATION_PROTOCOL_DEFINITION('international standard',
'ap242_managed_model_based_3d_engineering',2020,#1947);
#1947=APPLICATION_CONTEXT('managed model based 3d engineering');
ENDSEC;
END-ISO-10303-21;
