ISO-10303-21;
HEADER;
/* Generated by software containing ST-Developer
 * from STEP Tools, Inc. (www.steptools.com) 
 */
/* OPTION: using custom renumber hook */

FILE_DESCRIPTION(
/* description */ ('STEP AP242 Edition 2',
'CAx-IF Rec.Pracs.---Representation and Presentation of Product Manufa
cturing Information (PMI)---4.0---2014-10-13',
'CAx-IF Rec.Pracs.---3D Tessellated Geometry---0.4---2014-09-14','2;1',
'CAx-IF Rec.Pracs.---User Defined Attributes---1.5---2016-08-15'),
/* implementation_level */ '2;1');

FILE_NAME(
/* name */ 'DEXI 10 (2) - Part 338',
/* time_stamp */ '2026-10-01T05:02:09Z',
/* author */ (''),
/* organization */ (''),
/* preprocessor_version */ 'ST-DEVELOPER v20',
/* originating_system */ 'ONSHAPE BY PTC INC, 1.221',
/* authorisation */ '  ');

FILE_SCHEMA (('AP242_MANAGED_MODEL_BASED_3D_ENGINEERING_MIM_LF { 1 0 10303 442 3 1 4 }'));
ENDSEC;

DATA;
#10=SHAPE_REPRESENTATION_RELATIONSHIP('','',#303,#11);
#11=ADVANCED_BREP_SHAPE_REPRESENTATION('',(#301),#529);
#12=PLANE('',#311);
#13=PLANE('',#321);
#14=PLANE('',#331);
#15=PLANE('',#336);
#16=LINE('',#448,#32);
#17=LINE('',#452,#33);
#18=LINE('',#456,#34);
#19=LINE('',#460,#35);
#20=LINE('',#463,#36);
#21=LINE('',#465,#37);
#22=LINE('',#467,#38);
#23=LINE('',#472,#39);
#24=LINE('',#476,#40);
#25=LINE('',#480,#41);
#26=LINE('',#486,#42);
#27=LINE('',#490,#43);
#28=LINE('',#493,#44);
#29=LINE('',#495,#45);
#30=LINE('',#497,#46);
#31=LINE('',#506,#47);
#32=VECTOR('',#351,1.);
#33=VECTOR('',#354,1.);
#34=VECTOR('',#359,1.);
#35=VECTOR('',#364,1.);
#36=VECTOR('',#365,1.);
#37=VECTOR('',#366,1.);
#38=VECTOR('',#367,1.);
#39=VECTOR('',#372,1.);
#40=VECTOR('',#375,1.);
#41=VECTOR('',#380,1.);
#42=VECTOR('',#387,1.);
#43=VECTOR('',#392,1.);
#44=VECTOR('',#393,1.);
#45=VECTOR('',#394,1.);
#46=VECTOR('',#395,1.);
#47=VECTOR('',#406,1.);
#48=ORIENTED_EDGE('',*,*,#128,.F.);
#49=ORIENTED_EDGE('',*,*,#129,.T.);
#50=ORIENTED_EDGE('',*,*,#130,.T.);
#51=ORIENTED_EDGE('',*,*,#131,.F.);
#52=ORIENTED_EDGE('',*,*,#132,.T.);
#53=ORIENTED_EDGE('',*,*,#133,.T.);
#54=ORIENTED_EDGE('',*,*,#134,.F.);
#55=ORIENTED_EDGE('',*,*,#129,.F.);
#56=ORIENTED_EDGE('',*,*,#135,.F.);
#57=ORIENTED_EDGE('',*,*,#136,.T.);
#58=ORIENTED_EDGE('',*,*,#137,.T.);
#59=ORIENTED_EDGE('',*,*,#138,.T.);
#60=ORIENTED_EDGE('',*,*,#139,.T.);
#61=ORIENTED_EDGE('',*,*,#140,.T.);
#62=ORIENTED_EDGE('',*,*,#141,.F.);
#63=ORIENTED_EDGE('',*,*,#142,.T.);
#64=ORIENTED_EDGE('',*,*,#142,.F.);
#65=ORIENTED_EDGE('',*,*,#143,.T.);
#66=ORIENTED_EDGE('',*,*,#144,.T.);
#67=ORIENTED_EDGE('',*,*,#145,.F.);
#68=ORIENTED_EDGE('',*,*,#146,.T.);
#69=ORIENTED_EDGE('',*,*,#147,.T.);
#70=ORIENTED_EDGE('',*,*,#148,.F.);
#71=ORIENTED_EDGE('',*,*,#144,.F.);
#72=ORIENTED_EDGE('',*,*,#149,.T.);
#73=ORIENTED_EDGE('',*,*,#150,.T.);
#74=ORIENTED_EDGE('',*,*,#151,.F.);
#75=ORIENTED_EDGE('',*,*,#152,.T.);
#76=ORIENTED_EDGE('',*,*,#153,.F.);
#77=ORIENTED_EDGE('',*,*,#154,.T.);
#78=ORIENTED_EDGE('',*,*,#155,.T.);
#79=ORIENTED_EDGE('',*,*,#156,.T.);
#80=ORIENTED_EDGE('',*,*,#157,.F.);
#81=ORIENTED_EDGE('',*,*,#131,.T.);
#82=ORIENTED_EDGE('',*,*,#158,.T.);
#83=ORIENTED_EDGE('',*,*,#159,.F.);
#84=ORIENTED_EDGE('',*,*,#148,.T.);
#85=ORIENTED_EDGE('',*,*,#160,.T.);
#86=ORIENTED_EDGE('',*,*,#149,.F.);
#87=ORIENTED_EDGE('',*,*,#161,.T.);
#88=ORIENTED_EDGE('',*,*,#155,.F.);
#89=ORIENTED_EDGE('',*,*,#130,.F.);
#90=ORIENTED_EDGE('',*,*,#134,.T.);
#91=ORIENTED_EDGE('',*,*,#162,.T.);
#92=ORIENTED_EDGE('',*,*,#135,.T.);
#93=ORIENTED_EDGE('',*,*,#163,.T.);
#94=ORIENTED_EDGE('',*,*,#139,.F.);
#95=ORIENTED_EDGE('',*,*,#145,.T.);
#96=ORIENTED_EDGE('',*,*,#153,.T.);
#97=ORIENTED_EDGE('',*,*,#158,.F.);
#98=ORIENTED_EDGE('',*,*,#151,.T.);
#99=ORIENTED_EDGE('',*,*,#164,.T.);
#100=ORIENTED_EDGE('',*,*,#146,.F.);
#101=ORIENTED_EDGE('',*,*,#143,.F.);
#102=ORIENTED_EDGE('',*,*,#141,.T.);
#103=ORIENTED_EDGE('',*,*,#165,.T.);
#104=ORIENTED_EDGE('',*,*,#137,.F.);
#105=ORIENTED_EDGE('',*,*,#166,.T.);
#106=ORIENTED_EDGE('',*,*,#132,.F.);
#107=ORIENTED_EDGE('',*,*,#128,.T.);
#108=ORIENTED_EDGE('',*,*,#157,.T.);
#109=ORIENTED_EDGE('',*,*,#167,.T.);
#110=ORIENTED_EDGE('',*,*,#159,.T.);
#111=ORIENTED_EDGE('',*,*,#154,.F.);
#112=ORIENTED_EDGE('',*,*,#164,.F.);
#113=ORIENTED_EDGE('',*,*,#150,.F.);
#114=ORIENTED_EDGE('',*,*,#160,.F.);
#115=ORIENTED_EDGE('',*,*,#147,.F.);
#116=ORIENTED_EDGE('',*,*,#167,.F.);
#117=ORIENTED_EDGE('',*,*,#156,.F.);
#118=ORIENTED_EDGE('',*,*,#161,.F.);
#119=ORIENTED_EDGE('',*,*,#152,.F.);
#120=ORIENTED_EDGE('',*,*,#166,.F.);
#121=ORIENTED_EDGE('',*,*,#136,.F.);
#122=ORIENTED_EDGE('',*,*,#162,.F.);
#123=ORIENTED_EDGE('',*,*,#133,.F.);
#124=ORIENTED_EDGE('',*,*,#165,.F.);
#125=ORIENTED_EDGE('',*,*,#140,.F.);
#126=ORIENTED_EDGE('',*,*,#163,.F.);
#127=ORIENTED_EDGE('',*,*,#138,.F.);
#128=EDGE_CURVE('',#168,#169,#196,.F.);
#129=EDGE_CURVE('',#168,#170,#16,.T.);
#130=EDGE_CURVE('',#170,#171,#197,.T.);
#131=EDGE_CURVE('',#169,#171,#17,.T.);
#132=EDGE_CURVE('',#168,#172,#198,.F.);
#133=EDGE_CURVE('',#172,#173,#18,.T.);
#134=EDGE_CURVE('',#170,#173,#199,.T.);
#135=EDGE_CURVE('',#174,#175,#19,.T.);
#136=EDGE_CURVE('',#174,#176,#20,.F.);
#137=EDGE_CURVE('',#176,#177,#21,.T.);
#138=EDGE_CURVE('',#177,#175,#22,.F.);
#139=EDGE_CURVE('',#178,#179,#200,.T.);
#140=EDGE_CURVE('',#179,#180,#23,.F.);
#141=EDGE_CURVE('',#181,#180,#201,.F.);
#142=EDGE_CURVE('',#181,#178,#24,.T.);
#143=EDGE_CURVE('',#181,#182,#202,.F.);
#144=EDGE_CURVE('',#182,#183,#25,.T.);
#145=EDGE_CURVE('',#178,#183,#203,.T.);
#146=EDGE_CURVE('',#182,#184,#204,.T.);
#147=EDGE_CURVE('',#184,#185,#26,.T.);
#148=EDGE_CURVE('',#183,#185,#205,.T.);
#149=EDGE_CURVE('',#186,#187,#27,.T.);
#150=EDGE_CURVE('',#187,#188,#28,.T.);
#151=EDGE_CURVE('',#189,#188,#29,.T.);
#152=EDGE_CURVE('',#189,#186,#30,.T.);
#153=EDGE_CURVE('',#190,#190,#206,.T.);
#154=EDGE_CURVE('',#191,#191,#207,.T.);
#155=EDGE_CURVE('',#171,#192,#208,.T.);
#156=EDGE_CURVE('',#192,#193,#31,.F.);
#157=EDGE_CURVE('',#169,#193,#209,.T.);
#158=EDGE_CURVE('',#194,#194,#210,.T.);
#159=EDGE_CURVE('',#195,#195,#211,.F.);
#160=EDGE_CURVE('',#185,#187,#212,.T.);
#161=EDGE_CURVE('',#186,#192,#213,.T.);
#162=EDGE_CURVE('',#173,#174,#214,.T.);
#163=EDGE_CURVE('',#175,#179,#215,.T.);
#164=EDGE_CURVE('',#188,#184,#216,.T.);
#165=EDGE_CURVE('',#180,#177,#217,.T.);
#166=EDGE_CURVE('',#176,#172,#218,.T.);
#167=EDGE_CURVE('',#193,#189,#219,.T.);
#168=VERTEX_POINT('',#446);
#169=VERTEX_POINT('',#447);
#170=VERTEX_POINT('',#449);
#171=VERTEX_POINT('',#451);
#172=VERTEX_POINT('',#455);
#173=VERTEX_POINT('',#457);
#174=VERTEX_POINT('',#461);
#175=VERTEX_POINT('',#462);
#176=VERTEX_POINT('',#464);
#177=VERTEX_POINT('',#466);
#178=VERTEX_POINT('',#470);
#179=VERTEX_POINT('',#471);
#180=VERTEX_POINT('',#473);
#181=VERTEX_POINT('',#475);
#182=VERTEX_POINT('',#479);
#183=VERTEX_POINT('',#481);
#184=VERTEX_POINT('',#485);
#185=VERTEX_POINT('',#487);
#186=VERTEX_POINT('',#491);
#187=VERTEX_POINT('',#492);
#188=VERTEX_POINT('',#494);
#189=VERTEX_POINT('',#496);
#190=VERTEX_POINT('',#500);
#191=VERTEX_POINT('',#502);
#192=VERTEX_POINT('',#505);
#193=VERTEX_POINT('',#507);
#194=VERTEX_POINT('',#511);
#195=VERTEX_POINT('',#513);
#196=CIRCLE('',#306,0.129400557046813);
#197=CIRCLE('',#307,0.129400557046813);
#198=CIRCLE('',#309,0.144699999999991);
#199=CIRCLE('',#310,0.144699999999991);
#200=CIRCLE('',#313,0.134699999999973);
#201=CIRCLE('',#314,0.134699999999973);
#202=CIRCLE('',#316,0.138237617836379);
#203=CIRCLE('',#317,0.138237617836379);
#204=CIRCLE('',#319,0.1347);
#205=CIRCLE('',#320,0.1347);
#206=CIRCLE('',#323,0.0017);
#207=CIRCLE('',#324,0.0017);
#208=CIRCLE('',#326,0.1447);
#209=CIRCLE('',#327,0.1447);
#210=CIRCLE('',#329,0.0017);
#211=CIRCLE('',#330,0.0017);
#212=CIRCLE('',#332,0.00459246248332212);
#213=CIRCLE('',#333,0.00459246248332212);
#214=CIRCLE('',#334,0.00459246248332212);
#215=CIRCLE('',#335,0.00459246248332212);
#216=CIRCLE('',#337,0.00459246248332212);
#217=CIRCLE('',#338,0.00459246248332212);
#218=CIRCLE('',#339,0.00459246248332212);
#219=CIRCLE('',#340,0.00459246248332212);
#220=EDGE_LOOP('',(#48,#49,#50,#51));
#221=EDGE_LOOP('',(#52,#53,#54,#55));
#222=EDGE_LOOP('',(#56,#57,#58,#59));
#223=EDGE_LOOP('',(#60,#61,#62,#63));
#224=EDGE_LOOP('',(#64,#65,#66,#67));
#225=EDGE_LOOP('',(#68,#69,#70,#71));
#226=EDGE_LOOP('',(#72,#73,#74,#75));
#227=EDGE_LOOP('',(#76));
#228=EDGE_LOOP('',(#77));
#229=EDGE_LOOP('',(#78,#79,#80,#81));
#230=EDGE_LOOP('',(#82));
#231=EDGE_LOOP('',(#83));
#232=EDGE_LOOP('',(#84,#85,#86,#87,#88,#89,#90,#91,#92,#93,#94,#95));
#233=EDGE_LOOP('',(#96));
#234=EDGE_LOOP('',(#97));
#235=EDGE_LOOP('',(#98,#99,#100,#101,#102,#103,#104,#105,#106,#107,#108,
#109));
#236=EDGE_LOOP('',(#110));
#237=EDGE_LOOP('',(#111));
#238=EDGE_LOOP('',(#112,#113,#114,#115));
#239=EDGE_LOOP('',(#116,#117,#118,#119));
#240=EDGE_LOOP('',(#120,#121,#122,#123));
#241=EDGE_LOOP('',(#124,#125,#126,#127));
#242=FACE_BOUND('',#220,.T.);
#243=FACE_BOUND('',#221,.T.);
#244=FACE_BOUND('',#222,.T.);
#245=FACE_BOUND('',#223,.T.);
#246=FACE_BOUND('',#224,.T.);
#247=FACE_BOUND('',#225,.T.);
#248=FACE_BOUND('',#226,.T.);
#249=FACE_BOUND('',#227,.T.);
#250=FACE_BOUND('',#228,.T.);
#251=FACE_BOUND('',#229,.T.);
#252=FACE_BOUND('',#230,.T.);
#253=FACE_BOUND('',#231,.T.);
#254=FACE_BOUND('',#232,.T.);
#255=FACE_BOUND('',#233,.T.);
#256=FACE_BOUND('',#234,.T.);
#257=FACE_BOUND('',#235,.T.);
#258=FACE_BOUND('',#236,.T.);
#259=FACE_BOUND('',#237,.T.);
#260=FACE_BOUND('',#238,.T.);
#261=FACE_BOUND('',#239,.T.);
#262=FACE_BOUND('',#240,.T.);
#263=FACE_BOUND('',#241,.T.);
#264=CYLINDRICAL_SURFACE('',#305,0.129400557046813);
#265=CYLINDRICAL_SURFACE('',#308,0.144699999999991);
#266=CYLINDRICAL_SURFACE('',#312,0.134699999999973);
#267=CYLINDRICAL_SURFACE('',#315,0.138237617836379);
#268=CYLINDRICAL_SURFACE('',#318,0.1347);
#269=CYLINDRICAL_SURFACE('',#322,0.0017);
#270=CYLINDRICAL_SURFACE('',#325,0.1447);
#271=CYLINDRICAL_SURFACE('',#328,0.0017);
#272=CYLINDRICAL_SURFACE('',#341,0.00459246248332212);
#273=CYLINDRICAL_SURFACE('',#342,0.00459246248332212);
#274=CYLINDRICAL_SURFACE('',#343,0.00459246248332212);
#275=CYLINDRICAL_SURFACE('',#344,0.00459246248332212);
#276=ADVANCED_FACE('',(#242),#264,.F.);
#277=ADVANCED_FACE('',(#243),#265,.T.);
#278=ADVANCED_FACE('',(#244),#12,.T.);
#279=ADVANCED_FACE('',(#245),#266,.F.);
#280=ADVANCED_FACE('',(#246),#267,.T.);
#281=ADVANCED_FACE('',(#247),#268,.F.);
#282=ADVANCED_FACE('',(#248),#13,.F.);
#283=ADVANCED_FACE('',(#249,#250),#269,.F.);
#284=ADVANCED_FACE('',(#251),#270,.T.);
#285=ADVANCED_FACE('',(#252,#253),#271,.F.);
#286=ADVANCED_FACE('',(#254,#255,#256),#14,.T.);
#287=ADVANCED_FACE('',(#257,#258,#259),#15,.T.);
#288=ADVANCED_FACE('',(#260),#272,.T.);
#289=ADVANCED_FACE('',(#261),#273,.T.);
#290=ADVANCED_FACE('',(#262),#274,.T.);
#291=ADVANCED_FACE('',(#263),#275,.T.);
#292=CLOSED_SHELL('',(#276,#277,#278,#279,#280,#281,#282,#283,#284,#285,
#286,#287,#288,#289,#290,#291));
#293=STYLED_ITEM('',(#294),#301);
#294=PRESENTATION_STYLE_ASSIGNMENT((#295));
#295=SURFACE_STYLE_USAGE(.BOTH.,#296);
#296=SURFACE_SIDE_STYLE('',(#297));
#297=SURFACE_STYLE_FILL_AREA(#298);
#298=FILL_AREA_STYLE('',(#299));
#299=FILL_AREA_STYLE_COLOUR('',#300);
#300=COLOUR_RGB('',0.917647058823529,0.917647058823529,0.917647058823529);
#301=MANIFOLD_SOLID_BREP('Part 338',#292);
#302=SHAPE_DEFINITION_REPRESENTATION(#534,#303);
#303=SHAPE_REPRESENTATION('Part 338',(#304),#529);
#304=AXIS2_PLACEMENT_3D('',#443,#345,#346);
#305=AXIS2_PLACEMENT_3D('',#444,#347,#348);
#306=AXIS2_PLACEMENT_3D('',#445,#349,#350);
#307=AXIS2_PLACEMENT_3D('',#450,#352,#353);
#308=AXIS2_PLACEMENT_3D('',#453,#355,#356);
#309=AXIS2_PLACEMENT_3D('',#454,#357,#358);
#310=AXIS2_PLACEMENT_3D('',#458,#360,#361);
#311=AXIS2_PLACEMENT_3D('',#459,#362,#363);
#312=AXIS2_PLACEMENT_3D('',#468,#368,#369);
#313=AXIS2_PLACEMENT_3D('',#469,#370,#371);
#314=AXIS2_PLACEMENT_3D('',#474,#373,#374);
#315=AXIS2_PLACEMENT_3D('',#477,#376,#377);
#316=AXIS2_PLACEMENT_3D('',#478,#378,#379);
#317=AXIS2_PLACEMENT_3D('',#482,#381,#382);
#318=AXIS2_PLACEMENT_3D('',#483,#383,#384);
#319=AXIS2_PLACEMENT_3D('',#484,#385,#386);
#320=AXIS2_PLACEMENT_3D('',#488,#388,#389);
#321=AXIS2_PLACEMENT_3D('',#489,#390,#391);
#322=AXIS2_PLACEMENT_3D('',#498,#396,#397);
#323=AXIS2_PLACEMENT_3D('',#499,#398,#399);
#324=AXIS2_PLACEMENT_3D('',#501,#400,#401);
#325=AXIS2_PLACEMENT_3D('',#503,#402,#403);
#326=AXIS2_PLACEMENT_3D('',#504,#404,#405);
#327=AXIS2_PLACEMENT_3D('',#508,#407,#408);
#328=AXIS2_PLACEMENT_3D('',#509,#409,#410);
#329=AXIS2_PLACEMENT_3D('',#510,#411,#412);
#330=AXIS2_PLACEMENT_3D('',#512,#413,#414);
#331=AXIS2_PLACEMENT_3D('',#514,#415,#416);
#332=AXIS2_PLACEMENT_3D('',#515,#417,#418);
#333=AXIS2_PLACEMENT_3D('',#516,#419,#420);
#334=AXIS2_PLACEMENT_3D('',#517,#421,#422);
#335=AXIS2_PLACEMENT_3D('',#518,#423,#424);
#336=AXIS2_PLACEMENT_3D('',#519,#425,#426);
#337=AXIS2_PLACEMENT_3D('',#520,#427,#428);
#338=AXIS2_PLACEMENT_3D('',#521,#429,#430);
#339=AXIS2_PLACEMENT_3D('',#522,#431,#432);
#340=AXIS2_PLACEMENT_3D('',#523,#433,#434);
#341=AXIS2_PLACEMENT_3D('',#524,#435,#436);
#342=AXIS2_PLACEMENT_3D('',#525,#437,#438);
#343=AXIS2_PLACEMENT_3D('',#526,#439,#440);
#344=AXIS2_PLACEMENT_3D('',#527,#441,#442);
#345=DIRECTION('',(0.,0.,1.));
#346=DIRECTION('',(1.,0.,0.));
#347=DIRECTION('',(-6.71480703332925E-17,1.,-1.18762268798242E-16));
#348=DIRECTION('',(0.,1.18762268798242E-16,1.));
#349=DIRECTION('',(5.7529928840874E-17,-1.,-5.91573037592487E-18));
#350=DIRECTION('',(1.,5.7529928840874E-17,0.));
#351=DIRECTION('',(-6.71480703332925E-17,1.,-1.18762268798242E-16));
#352=DIRECTION('',(-6.71480703332925E-17,1.,-1.18762268798242E-16));
#353=DIRECTION('',(0.,1.18762268798242E-16,1.));
#354=DIRECTION('',(-6.71480703332925E-17,1.,-1.18762268798242E-16));
#355=DIRECTION('',(-6.71480703332925E-17,1.,-1.18762268798242E-16));
#356=DIRECTION('',(0.,1.18762268798242E-16,1.));
#357=DIRECTION('',(5.7529928840874E-17,-1.,-5.91573037592487E-18));
#358=DIRECTION('',(1.,5.7529928840874E-17,0.));
#359=DIRECTION('',(-6.71480703332925E-17,1.,-1.18762268798242E-16));
#360=DIRECTION('',(-6.71480703332925E-17,1.,-1.18762268798242E-16));
#361=DIRECTION('',(0.,1.18762268798242E-16,1.));
#362=DIRECTION('',(0.707106781186547,-3.64967497400742E-17,-0.707106781186548));
#363=DIRECTION('',(-0.707106781186548,0.,-0.707106781186547));
#364=DIRECTION('',(-0.707106781186548,-1.31458461492599E-16,-0.707106781186547));
#365=DIRECTION('',(-6.71480703332925E-17,1.,-1.18762268798242E-16));
#366=DIRECTION('',(-0.707106781186548,-3.64967497400738E-17,-0.707106781186547));
#367=DIRECTION('',(6.71480703332925E-17,-1.,1.18762268798242E-16));
#368=DIRECTION('',(-6.71480703332925E-17,1.,-1.18762268798242E-16));
#369=DIRECTION('',(0.,1.18762268798242E-16,1.));
#370=DIRECTION('',(-6.71480703332925E-17,1.,-1.18762268798242E-16));
#371=DIRECTION('',(0.,1.18762268798242E-16,1.));
#372=DIRECTION('',(-6.71480703332925E-17,1.,-1.18762268798242E-16));
#373=DIRECTION('',(5.7529928840874E-17,-1.,-5.91573037592487E-18));
#374=DIRECTION('',(1.,5.7529928840874E-17,0.));
#375=DIRECTION('',(-6.71480703332925E-17,1.,-1.18762268798242E-16));
#376=DIRECTION('',(-6.71480703332925E-17,1.,-1.18762268798242E-16));
#377=DIRECTION('',(0.,1.18762268798242E-16,1.));
#378=DIRECTION('',(5.7529928840874E-17,-1.,-5.91573037592487E-18));
#379=DIRECTION('',(1.,5.7529928840874E-17,0.));
#380=DIRECTION('',(-6.71480703332925E-17,1.,-1.18762268798242E-16));
#381=DIRECTION('',(-6.71480703332925E-17,1.,-1.18762268798242E-16));
#382=DIRECTION('',(0.,1.18762268798242E-16,1.));
#383=DIRECTION('',(-6.71480703332925E-17,1.,-1.18762268798242E-16));
#384=DIRECTION('',(0.,1.18762268798242E-16,1.));
#385=DIRECTION('',(5.7529928840874E-17,-1.,-5.91573037592487E-18));
#386=DIRECTION('',(1.,5.7529928840874E-17,0.));
#387=DIRECTION('',(-6.71480703332925E-17,1.,-1.18762268798242E-16));
#388=DIRECTION('',(6.71480703332925E-17,-1.,1.18762268798242E-16));
#389=DIRECTION('',(0.707106781186548,-3.64967497400741E-17,-0.707106781186548));
#390=DIRECTION('',(-0.707106781186548,-1.31458461492599E-16,-0.707106781186548));
#391=DIRECTION('',(-0.707106781186548,0.,0.707106781186548));
#392=DIRECTION('',(-0.707106781186548,3.64967497400741E-17,0.707106781186548));
#393=DIRECTION('',(6.71480703332925E-17,-1.,1.18762268798242E-16));
#394=DIRECTION('',(-0.707106781186548,-4.48628558690493E-17,0.707106781186548));
#395=DIRECTION('',(-6.71480703332925E-17,1.,-1.18762268798242E-16));
#396=DIRECTION('',(-6.71480703332925E-17,1.,-1.18762268798242E-16));
#397=DIRECTION('',(0.,1.18762268798242E-16,1.));
#398=DIRECTION('',(6.71480703332925E-17,-1.,1.18762268798242E-16));
#399=DIRECTION('',(0.707106781186548,-3.64967497400741E-17,-0.707106781186548));
#400=DIRECTION('',(5.7529928840874E-17,-1.,-5.91573037592487E-18));
#401=DIRECTION('',(1.,5.7529928840874E-17,0.));
#402=DIRECTION('',(-6.71480703332925E-17,1.,-1.18762268798242E-16));
#403=DIRECTION('',(0.,1.18762268798242E-16,1.));
#404=DIRECTION('',(6.71480703332925E-17,-1.,1.18762268798242E-16));
#405=DIRECTION('',(0.707106781186548,-3.64967497400741E-17,-0.707106781186548));
#406=DIRECTION('',(-6.71480703332925E-17,1.,-1.18762268798242E-16));
#407=DIRECTION('',(5.7529928840874E-17,-1.,-5.91573037592487E-18));
#408=DIRECTION('',(1.,5.7529928840874E-17,0.));
#409=DIRECTION('',(-6.71480703332925E-17,1.,-1.18762268798242E-16));
#410=DIRECTION('',(0.,1.18762268798242E-16,1.));
#411=DIRECTION('',(-6.71480703332925E-17,1.,-1.18762268798242E-16));
#412=DIRECTION('',(0.,1.18762268798242E-16,1.));
#413=DIRECTION('',(5.7529928840874E-17,-1.,-5.91573037592487E-18));
#414=DIRECTION('',(1.,5.7529928840874E-17,0.));
#415=DIRECTION('',(-6.71480703332925E-17,1.,-1.18762268798242E-16));
#416=DIRECTION('',(-1.,-6.71480703332925E-17,7.97465717820574E-33));
#417=DIRECTION('',(-6.71480703332925E-17,1.,-1.18762268798242E-16));
#418=DIRECTION('',(0.,1.18762268798242E-16,1.));
#419=DIRECTION('',(-6.71480703332925E-17,1.,-1.18762268798242E-16));
#420=DIRECTION('',(0.,1.18762268798242E-16,1.));
#421=DIRECTION('',(-6.71480703332925E-17,1.,-1.18762268798242E-16));
#422=DIRECTION('',(0.,1.18762268798242E-16,1.));
#423=DIRECTION('',(-6.71480703332925E-17,1.,-1.18762268798242E-16));
#424=DIRECTION('',(0.,1.18762268798242E-16,1.));
#425=DIRECTION('',(5.7529928840874E-17,-1.,-5.91573037592487E-18));
#426=DIRECTION('',(-0.707106781186548,-3.64967497400738E-17,-0.707106781186548));
#427=DIRECTION('',(5.7529928840874E-17,-1.,-5.91573037592487E-18));
#428=DIRECTION('',(1.,5.7529928840874E-17,0.));
#429=DIRECTION('',(5.7529928840874E-17,-1.,-5.91573037592487E-18));
#430=DIRECTION('',(1.,5.7529928840874E-17,0.));
#431=DIRECTION('',(5.7529928840874E-17,-1.,-5.91573037592487E-18));
#432=DIRECTION('',(1.,5.7529928840874E-17,0.));
#433=DIRECTION('',(5.7529928840874E-17,-1.,-5.91573037592487E-18));
#434=DIRECTION('',(1.,5.7529928840874E-17,0.));
#435=DIRECTION('',(-6.71480703332925E-17,1.,-1.18762268798242E-16));
#436=DIRECTION('',(0.,1.18762268798242E-16,1.));
#437=DIRECTION('',(-6.71480703332925E-17,1.,-1.18762268798242E-16));
#438=DIRECTION('',(0.,1.18762268798242E-16,1.));
#439=DIRECTION('',(-6.71480703332925E-17,1.,-1.18762268798242E-16));
#440=DIRECTION('',(0.,1.18762268798242E-16,1.));
#441=DIRECTION('',(-6.71480703332925E-17,1.,-1.18762268798242E-16));
#442=DIRECTION('',(0.,1.18762268798242E-16,1.));
#443=CARTESIAN_POINT('',(0.,0.,0.));
#444=CARTESIAN_POINT('',(0.383523683688318,0.0258080000000055,1.75368227441897E-5));
#445=CARTESIAN_POINT('',(0.383523683688318,0.0258100000000054,1.75368227441897E-5));
#446=CARTESIAN_POINT('',(0.275089413576518,0.0258100000000054,-0.0705977110302993));
#447=CARTESIAN_POINT('',(0.275075582693736,0.0258100000000054,0.0706115419130813));
#448=CARTESIAN_POINT('',(0.275089413576518,0.0258080000000054,-0.0705977110302993));
#449=CARTESIAN_POINT('',(0.275089413576518,0.0308100000000054,-0.0705977110302993));
#450=CARTESIAN_POINT('',(0.383523683688318,0.0308100000000054,1.75368227441891E-5));
#451=CARTESIAN_POINT('',(0.275075582693736,0.0308100000000054,0.0706115419130813));
#452=CARTESIAN_POINT('',(0.275075582693736,0.0258080000000054,0.0706115419130813));
#453=CARTESIAN_POINT('',(0.176880986397568,0.0258080000000054,-0.176867155514774));
#454=CARTESIAN_POINT('',(0.176880986397568,0.0258100000000054,-0.176867155514774));
#455=CARTESIAN_POINT('',(0.280482969361923,0.0258100000000054,-0.0758487456784912));
#456=CARTESIAN_POINT('',(0.280482969361923,0.0258080000000054,-0.0758487456784912));
#457=CARTESIAN_POINT('',(0.280482969361923,0.0308100000000054,-0.0758487456784912));
#458=CARTESIAN_POINT('',(0.176880986397568,0.0308100000000054,-0.176867155514774));
#459=CARTESIAN_POINT('',(0.280059354956768,0.0258080000000054,-0.0826850858346157));
#460=CARTESIAN_POINT('',(0.280059354956768,0.0308100000000054,-0.0826850858346157));
#461=CARTESIAN_POINT('',(0.280442229689862,0.0308100000000054,-0.0823022111015216));
#462=CARTESIAN_POINT('',(0.279865838399026,0.0308100000000054,-0.0828786023923572));
#463=CARTESIAN_POINT('',(0.280442229689862,0.0258080000000054,-0.0823022111015216));
#464=CARTESIAN_POINT('',(0.280442229689862,0.0258100000000054,-0.0823022111015216));
#465=CARTESIAN_POINT('',(0.280059354956768,0.0258100000000054,-0.0826850858346157));
#466=CARTESIAN_POINT('',(0.279865838399026,0.0258100000000054,-0.0828786023923572));
#467=CARTESIAN_POINT('',(0.279865838399026,0.0308100000000054,-0.0828786023923572));
#468=CARTESIAN_POINT('',(0.176880986397582,0.0258080000000054,-0.176867155514761));
#469=CARTESIAN_POINT('',(0.176880986397582,0.0308100000000054,-0.176867155514761));
#470=CARTESIAN_POINT('',(0.268012444937581,0.0308100000000054,-0.0776746796692362));
#471=CARTESIAN_POINT('',(0.273330139132114,0.0308100000000054,-0.082837102144663));
#472=CARTESIAN_POINT('',(0.273330139132114,0.0258080000000054,-0.082837102144663));
#473=CARTESIAN_POINT('',(0.273330139132114,0.0258100000000054,-0.082837102144663));
#474=CARTESIAN_POINT('',(0.176880986397582,0.0258100000000054,-0.176867155514761));
#475=CARTESIAN_POINT('',(0.268012444937581,0.0258100000000054,-0.0776746796692362));
#476=CARTESIAN_POINT('',(0.268012444937581,0.0258080000000054,-0.0776746796692362));
#477=CARTESIAN_POINT('',(0.382352407961239,0.0258080000000055,1.70949328763345E-5));
#478=CARTESIAN_POINT('',(0.382352407961239,0.0258100000000054,1.70949328763345E-5));
#479=CARTESIAN_POINT('',(0.267998614054802,0.0258100000000054,0.0776885105520153));
#480=CARTESIAN_POINT('',(0.267998614054802,0.0258080000000054,0.0776885105520153));
#481=CARTESIAN_POINT('',(0.267998614054802,0.0308100000000054,0.0776885105520153));
#482=CARTESIAN_POINT('',(0.382352407961239,0.0308100000000054,1.70949328763339E-5));
#483=CARTESIAN_POINT('',(0.176867155514781,0.0258080000000055,0.176880986397563));
#484=CARTESIAN_POINT('',(0.176867155514781,0.0258100000000054,0.176880986397563));
#485=CARTESIAN_POINT('',(0.273332628179688,0.0258100000000054,0.0828676757254239));
#486=CARTESIAN_POINT('',(0.273332628179688,0.0258080000000054,0.0828676757254239));
#487=CARTESIAN_POINT('',(0.273332628179688,0.0308100000000054,0.0828676757254239));
#488=CARTESIAN_POINT('',(0.176867155514781,0.0308100000000054,0.176880986397563));
#489=CARTESIAN_POINT('',(0.280059354956768,0.0258080000000055,0.0827192757003683));
#490=CARTESIAN_POINT('',(0.280059354956768,0.0308100000000054,0.0827192757003683));
#491=CARTESIAN_POINT('',(0.280445276421081,0.0308100000000054,0.0823333542360555));
#492=CARTESIAN_POINT('',(0.279868883858389,0.0308100000000054,0.0829097467987479));
#493=CARTESIAN_POINT('',(0.279868883858389,0.0258100000000054,0.0829097467987479));
#494=CARTESIAN_POINT('',(0.279868883858389,0.0258100000000054,0.0829097467987479));
#495=CARTESIAN_POINT('',(0.280059354956768,0.0258100000000054,0.0827192757003683));
#496=CARTESIAN_POINT('',(0.280445276421081,0.0258100000000054,0.0823333542360555));
#497=CARTESIAN_POINT('',(0.280445276421081,0.0258080000000055,0.0823333542360555));
#498=CARTESIAN_POINT('',(0.275649972846542,0.0258080000000055,0.0780981690658022));
#499=CARTESIAN_POINT('',(0.275649972846542,0.0308100000000054,0.0780981690658022));
#500=CARTESIAN_POINT('',(0.276852054374559,0.0308100000000054,0.0768960875377851));
#501=CARTESIAN_POINT('',(0.275649972846542,0.0258100000000054,0.0780981690658022));
#502=CARTESIAN_POINT('',(0.277349972846542,0.0258100000000054,0.0780981690658022));
#503=CARTESIAN_POINT('',(0.176867155514781,0.0258080000000055,0.176880986397563));
#504=CARTESIAN_POINT('',(0.176867155514781,0.0308100000000054,0.176880986397563));
#505=CARTESIAN_POINT('',(0.280486569309695,0.0308100000000054,0.07588045627619));
#506=CARTESIAN_POINT('',(0.280486569309695,0.0258080000000054,0.07588045627619));
#507=CARTESIAN_POINT('',(0.280486569309695,0.0258100000000054,0.07588045627619));
#508=CARTESIAN_POINT('',(0.176867155514781,0.0258100000000054,0.176880986397563));
#509=CARTESIAN_POINT('',(0.275663803729323,0.0258080000000054,-0.0780843381830202));
#510=CARTESIAN_POINT('',(0.275663803729323,0.0308100000000054,-0.0780843381830202));
#511=CARTESIAN_POINT('',(0.275663803729323,0.0308100000000054,-0.0763843381830202));
#512=CARTESIAN_POINT('',(0.275663803729323,0.0258100000000054,-0.0780843381830202));
#513=CARTESIAN_POINT('',(0.277363803729323,0.0258100000000054,-0.0780843381830202));
#514=CARTESIAN_POINT('',(0.19608243327254,0.0308100000000054,0.117678345374251));
#515=CARTESIAN_POINT('',(0.276621522494087,0.0308100000000054,0.0796623854344461));
#516=CARTESIAN_POINT('',(0.277197915056779,0.0308100000000054,0.0790859928717536));
#517=CARTESIAN_POINT('',(0.27719486832556,0.0308100000000054,-0.0790548497372198));
#518=CARTESIAN_POINT('',(0.276618477034724,0.0308100000000054,-0.0796312410280554));
#519=CARTESIAN_POINT('',(0.176880986397563,0.0258100000000054,-0.176867155514781));
#520=CARTESIAN_POINT('',(0.276621522494087,0.0258100000000054,0.0796623854344461));
#521=CARTESIAN_POINT('',(0.276618477034724,0.0258100000000054,-0.0796312410280554));
#522=CARTESIAN_POINT('',(0.27719486832556,0.0258100000000054,-0.0790548497372198));
#523=CARTESIAN_POINT('',(0.277197915056779,0.0258100000000054,0.0790859928717536));
#524=CARTESIAN_POINT('',(0.276621522494087,0.0258080000000054,0.0796623854344461));
#525=CARTESIAN_POINT('',(0.277197915056779,0.0258080000000054,0.0790859928717536));
#526=CARTESIAN_POINT('',(0.27719486832556,0.0258080000000054,-0.0790548497372198));
#527=CARTESIAN_POINT('',(0.276618477034724,0.0258080000000054,-0.0796312410280554));
#528=MECHANICAL_DESIGN_GEOMETRIC_PRESENTATION_REPRESENTATION('',(#293),
#529);
#529=(
GEOMETRIC_REPRESENTATION_CONTEXT(3)
GLOBAL_UNCERTAINTY_ASSIGNED_CONTEXT((#530))
GLOBAL_UNIT_ASSIGNED_CONTEXT((#533,#532,#531))
REPRESENTATION_CONTEXT('Part 338','TOP_LEVEL_ASSEMBLY_PART')
);
#530=UNCERTAINTY_MEASURE_WITH_UNIT(LENGTH_MEASURE(1.E-8),#533,
'DISTANCE_ACCURACY_VALUE','Maximum Tolerance applied to model');
#531=(
NAMED_UNIT(*)
SI_UNIT($,.STERADIAN.)
SOLID_ANGLE_UNIT()
);
#532=(
NAMED_UNIT(*)
PLANE_ANGLE_UNIT()
SI_UNIT($,.RADIAN.)
);
#533=(
LENGTH_UNIT()
NAMED_UNIT(*)
SI_UNIT($,.METRE.)
);
#534=PRODUCT_DEFINITION_SHAPE('','',#535);
#535=PRODUCT_DEFINITION('','',#537,#536);
#536=PRODUCT_DEFINITION_CONTEXT('',#543,'design');
#537=PRODUCT_DEFINITION_FORMATION_WITH_SPECIFIED_SOURCE('','',#539,
 .NOT_KNOWN.);
#538=PRODUCT_RELATED_PRODUCT_CATEGORY('','',(#539));
#539=PRODUCT('Part 338','Part 338','Part 338',(#541));
#540=PRODUCT_CATEGORY('','');
#541=PRODUCT_CONTEXT('',#543,'mechanical');
#542=APPLICATION_PROTOCOL_DEFINITION('international standard',
'ap242_managed_model_based_3d_engineering',2020,#543);
#543=APPLICATION_CONTEXT('managed model based 3d engineering');
ENDSEC;
END-ISO-10303-21;
