ISO-10303-21;
HEADER;
/* Generated by software containing ST-Developer
 * from STEP Tools, Inc. (www.steptools.com) 
 */
/* OPTION: using custom renumber hook */

FILE_DESCRIPTION(
/* description */ ('STEP AP242 Edition 2',
'CAx-IF Rec.Pracs.---Representation and Presentation of Product Manufa
cturing Information (PMI)---4.0---2014-10-13',
'CAx-IF Rec.Pracs.---3D Tessellated Geometry---0.4---2014-09-14','2;1',
'CAx-IF Rec.Pracs.---User Defined Attributes---1.5---2016-08-15'),
/* implementation_level */ '2;1');

FILE_NAME(
/* name */ 'DEXI 10 (2) - Part 339',
/* time_stamp */ '2026-10-01T04:59:23Z',
/* author */ (''),
/* organization */ (''),
/* preprocessor_version */ 'ST-DEVELOPER v20',
/* originating_system */ 'ONSHAPE BY PTC INC, 1.221',
/* authorisation */ '  ');

FILE_SCHEMA (('AP242_MANAGED_MODEL_BASED_3D_ENGINEERING_MIM_LF { 1 0 10303 442 3 1 4 }'));
ENDSEC;

DATA;
#10=SHAPE_REPRESENTATION_RELATIONSHIP('','',#247,#11);
#11=ADVANCED_BREP_SHAPE_REPRESENTATION('',(#245),#423);
#12=CYLINDRICAL_SURFACE('',#259,0.0017);
#13=CYLINDRICAL_SURFACE('',#261,0.0017);
#14=CYLINDRICAL_SURFACE('',#263,0.00459246248332212);
#15=CYLINDRICAL_SURFACE('',#265,0.1347);
#16=CYLINDRICAL_SURFACE('',#267,0.0017);
#17=CYLINDRICAL_SURFACE('',#275,0.00459246248332212);
#18=CYLINDRICAL_SURFACE('',#276,0.1447);
#19=CYLINDRICAL_SURFACE('',#277,0.00459246248332212);
#20=CYLINDRICAL_SURFACE('',#279,0.00459246248332212);
#21=LINE('',#365,#33);
#22=LINE('',#373,#34);
#23=LINE('',#387,#35);
#24=LINE('',#391,#36);
#25=LINE('',#393,#37);
#26=LINE('',#402,#38);
#27=LINE('',#410,#39);
#28=LINE('',#412,#40);
#29=LINE('',#414,#41);
#30=LINE('',#416,#42);
#31=LINE('',#418,#43);
#32=LINE('',#420,#44);
#33=VECTOR('',#290,1.);
#34=VECTOR('',#297,1.);
#35=VECTOR('',#314,1.);
#36=VECTOR('',#317,1.);
#37=VECTOR('',#320,1.);
#38=VECTOR('',#331,1.);
#39=VECTOR('',#338,1.);
#40=VECTOR('',#341,1.);
#41=VECTOR('',#344,1.);
#42=VECTOR('',#347,1.);
#43=VECTOR('',#350,1.);
#44=VECTOR('',#353,1.);
#45=ORIENTED_EDGE('',*,*,#105,.F.);
#46=ORIENTED_EDGE('',*,*,#106,.F.);
#47=ORIENTED_EDGE('',*,*,#107,.T.);
#48=ORIENTED_EDGE('',*,*,#108,.F.);
#49=ORIENTED_EDGE('',*,*,#109,.T.);
#50=ORIENTED_EDGE('',*,*,#110,.T.);
#51=ORIENTED_EDGE('',*,*,#111,.T.);
#52=ORIENTED_EDGE('',*,*,#112,.F.);
#53=ORIENTED_EDGE('',*,*,#113,.T.);
#54=ORIENTED_EDGE('',*,*,#114,.F.);
#55=ORIENTED_EDGE('',*,*,#115,.F.);
#56=ORIENTED_EDGE('',*,*,#115,.T.);
#57=ORIENTED_EDGE('',*,*,#116,.T.);
#58=ORIENTED_EDGE('',*,*,#105,.T.);
#59=ORIENTED_EDGE('',*,*,#117,.T.);
#60=ORIENTED_EDGE('',*,*,#107,.F.);
#61=ORIENTED_EDGE('',*,*,#118,.T.);
#62=ORIENTED_EDGE('',*,*,#119,.F.);
#63=ORIENTED_EDGE('',*,*,#120,.F.);
#64=ORIENTED_EDGE('',*,*,#118,.F.);
#65=ORIENTED_EDGE('',*,*,#114,.T.);
#66=ORIENTED_EDGE('',*,*,#121,.T.);
#67=ORIENTED_EDGE('',*,*,#122,.T.);
#68=ORIENTED_EDGE('',*,*,#106,.T.);
#69=ORIENTED_EDGE('',*,*,#123,.T.);
#70=ORIENTED_EDGE('',*,*,#122,.F.);
#71=ORIENTED_EDGE('',*,*,#124,.T.);
#72=ORIENTED_EDGE('',*,*,#125,.F.);
#73=ORIENTED_EDGE('',*,*,#126,.T.);
#74=ORIENTED_EDGE('',*,*,#127,.T.);
#75=ORIENTED_EDGE('',*,*,#128,.T.);
#76=ORIENTED_EDGE('',*,*,#129,.F.);
#77=ORIENTED_EDGE('',*,*,#119,.T.);
#78=ORIENTED_EDGE('',*,*,#117,.F.);
#79=ORIENTED_EDGE('',*,*,#116,.F.);
#80=ORIENTED_EDGE('',*,*,#123,.F.);
#81=ORIENTED_EDGE('',*,*,#130,.F.);
#82=ORIENTED_EDGE('',*,*,#108,.T.);
#83=ORIENTED_EDGE('',*,*,#120,.T.);
#84=ORIENTED_EDGE('',*,*,#129,.T.);
#85=ORIENTED_EDGE('',*,*,#109,.F.);
#86=ORIENTED_EDGE('',*,*,#130,.T.);
#87=ORIENTED_EDGE('',*,*,#128,.F.);
#88=ORIENTED_EDGE('',*,*,#131,.F.);
#89=ORIENTED_EDGE('',*,*,#110,.F.);
#90=ORIENTED_EDGE('',*,*,#131,.T.);
#91=ORIENTED_EDGE('',*,*,#127,.F.);
#92=ORIENTED_EDGE('',*,*,#132,.F.);
#93=ORIENTED_EDGE('',*,*,#111,.F.);
#94=ORIENTED_EDGE('',*,*,#132,.T.);
#95=ORIENTED_EDGE('',*,*,#126,.F.);
#96=ORIENTED_EDGE('',*,*,#133,.F.);
#97=ORIENTED_EDGE('',*,*,#134,.F.);
#98=ORIENTED_EDGE('',*,*,#112,.T.);
#99=ORIENTED_EDGE('',*,*,#133,.T.);
#100=ORIENTED_EDGE('',*,*,#125,.T.);
#101=ORIENTED_EDGE('',*,*,#113,.F.);
#102=ORIENTED_EDGE('',*,*,#134,.T.);
#103=ORIENTED_EDGE('',*,*,#124,.F.);
#104=ORIENTED_EDGE('',*,*,#121,.F.);
#105=EDGE_CURVE('',#135,#135,#157,.F.);
#106=EDGE_CURVE('',#136,#136,#158,.F.);
#107=EDGE_CURVE('',#137,#138,#159,.F.);
#108=EDGE_CURVE('',#139,#138,#21,.T.);
#109=EDGE_CURVE('',#139,#140,#160,.F.);
#110=EDGE_CURVE('',#140,#141,#161,.F.);
#111=EDGE_CURVE('',#141,#142,#162,.F.);
#112=EDGE_CURVE('',#143,#142,#22,.T.);
#113=EDGE_CURVE('',#143,#144,#163,.F.);
#114=EDGE_CURVE('',#137,#144,#164,.F.);
#115=EDGE_CURVE('',#145,#145,#165,.F.);
#116=EDGE_CURVE('',#146,#146,#166,.T.);
#117=EDGE_CURVE('',#147,#147,#167,.T.);
#118=EDGE_CURVE('',#137,#148,#23,.T.);
#119=EDGE_CURVE('',#149,#148,#168,.T.);
#120=EDGE_CURVE('',#138,#149,#24,.T.);
#121=EDGE_CURVE('',#144,#150,#25,.T.);
#122=EDGE_CURVE('',#150,#148,#169,.T.);
#123=EDGE_CURVE('',#151,#151,#170,.T.);
#124=EDGE_CURVE('',#150,#152,#171,.T.);
#125=EDGE_CURVE('',#153,#152,#26,.T.);
#126=EDGE_CURVE('',#153,#154,#172,.T.);
#127=EDGE_CURVE('',#154,#155,#173,.T.);
#128=EDGE_CURVE('',#155,#156,#174,.T.);
#129=EDGE_CURVE('',#149,#156,#27,.T.);
#130=EDGE_CURVE('',#139,#156,#28,.T.);
#131=EDGE_CURVE('',#140,#155,#29,.T.);
#132=EDGE_CURVE('',#141,#154,#30,.T.);
#133=EDGE_CURVE('',#142,#153,#31,.T.);
#134=EDGE_CURVE('',#143,#152,#32,.T.);
#135=VERTEX_POINT('',#359);
#136=VERTEX_POINT('',#361);
#137=VERTEX_POINT('',#363);
#138=VERTEX_POINT('',#364);
#139=VERTEX_POINT('',#366);
#140=VERTEX_POINT('',#368);
#141=VERTEX_POINT('',#370);
#142=VERTEX_POINT('',#372);
#143=VERTEX_POINT('',#374);
#144=VERTEX_POINT('',#376);
#145=VERTEX_POINT('',#379);
#146=VERTEX_POINT('',#382);
#147=VERTEX_POINT('',#385);
#148=VERTEX_POINT('',#388);
#149=VERTEX_POINT('',#390);
#150=VERTEX_POINT('',#394);
#151=VERTEX_POINT('',#398);
#152=VERTEX_POINT('',#401);
#153=VERTEX_POINT('',#403);
#154=VERTEX_POINT('',#405);
#155=VERTEX_POINT('',#407);
#156=VERTEX_POINT('',#409);
#157=CIRCLE('',#250,0.0017);
#158=CIRCLE('',#251,0.0017);
#159=CIRCLE('',#252,0.00459246248332212);
#160=CIRCLE('',#253,0.00459246248332212);
#161=CIRCLE('',#254,0.1447);
#162=CIRCLE('',#255,0.00459246248332212);
#163=CIRCLE('',#256,0.00459246248332212);
#164=CIRCLE('',#257,0.1347);
#165=CIRCLE('',#258,0.0017);
#166=CIRCLE('',#260,0.0017);
#167=CIRCLE('',#262,0.0017);
#168=CIRCLE('',#264,0.00459246248332212);
#169=CIRCLE('',#266,0.1347);
#170=CIRCLE('',#268,0.0017);
#171=CIRCLE('',#270,0.00459246248332212);
#172=CIRCLE('',#271,0.00459246248332212);
#173=CIRCLE('',#272,0.1447);
#174=CIRCLE('',#273,0.00459246248332212);
#175=EDGE_LOOP('',(#45));
#176=EDGE_LOOP('',(#46));
#177=EDGE_LOOP('',(#47,#48,#49,#50,#51,#52,#53,#54));
#178=EDGE_LOOP('',(#55));
#179=EDGE_LOOP('',(#56));
#180=EDGE_LOOP('',(#57));
#181=EDGE_LOOP('',(#58));
#182=EDGE_LOOP('',(#59));
#183=EDGE_LOOP('',(#60,#61,#62,#63));
#184=EDGE_LOOP('',(#64,#65,#66,#67));
#185=EDGE_LOOP('',(#68));
#186=EDGE_LOOP('',(#69));
#187=EDGE_LOOP('',(#70,#71,#72,#73,#74,#75,#76,#77));
#188=EDGE_LOOP('',(#78));
#189=EDGE_LOOP('',(#79));
#190=EDGE_LOOP('',(#80));
#191=EDGE_LOOP('',(#81,#82,#83,#84));
#192=EDGE_LOOP('',(#85,#86,#87,#88));
#193=EDGE_LOOP('',(#89,#90,#91,#92));
#194=EDGE_LOOP('',(#93,#94,#95,#96));
#195=EDGE_LOOP('',(#97,#98,#99,#100));
#196=EDGE_LOOP('',(#101,#102,#103,#104));
#197=FACE_BOUND('',#175,.T.);
#198=FACE_BOUND('',#176,.T.);
#199=FACE_BOUND('',#177,.T.);
#200=FACE_BOUND('',#178,.T.);
#201=FACE_BOUND('',#179,.T.);
#202=FACE_BOUND('',#180,.T.);
#203=FACE_BOUND('',#181,.T.);
#204=FACE_BOUND('',#182,.T.);
#205=FACE_BOUND('',#183,.T.);
#206=FACE_BOUND('',#184,.T.);
#207=FACE_BOUND('',#185,.T.);
#208=FACE_BOUND('',#186,.T.);
#209=FACE_BOUND('',#187,.T.);
#210=FACE_BOUND('',#188,.T.);
#211=FACE_BOUND('',#189,.T.);
#212=FACE_BOUND('',#190,.T.);
#213=FACE_BOUND('',#191,.T.);
#214=FACE_BOUND('',#192,.T.);
#215=FACE_BOUND('',#193,.T.);
#216=FACE_BOUND('',#194,.T.);
#217=FACE_BOUND('',#195,.T.);
#218=FACE_BOUND('',#196,.T.);
#219=PLANE('',#249);
#220=PLANE('',#269);
#221=PLANE('',#274);
#222=PLANE('',#278);
#223=ADVANCED_FACE('',(#197,#198,#199,#200),#219,.F.);
#224=ADVANCED_FACE('',(#201,#202),#12,.F.);
#225=ADVANCED_FACE('',(#203,#204),#13,.F.);
#226=ADVANCED_FACE('',(#205),#14,.T.);
#227=ADVANCED_FACE('',(#206),#15,.F.);
#228=ADVANCED_FACE('',(#207,#208),#16,.F.);
#229=ADVANCED_FACE('',(#209,#210,#211,#212),#220,.T.);
#230=ADVANCED_FACE('',(#213),#221,.F.);
#231=ADVANCED_FACE('',(#214),#17,.T.);
#232=ADVANCED_FACE('',(#215),#18,.T.);
#233=ADVANCED_FACE('',(#216),#19,.T.);
#234=ADVANCED_FACE('',(#217),#222,.F.);
#235=ADVANCED_FACE('',(#218),#20,.T.);
#236=CLOSED_SHELL('',(#223,#224,#225,#226,#227,#228,#229,#230,#231,#232,
#233,#234,#235));
#237=STYLED_ITEM('',(#238),#245);
#238=PRESENTATION_STYLE_ASSIGNMENT((#239));
#239=SURFACE_STYLE_USAGE(.BOTH.,#240);
#240=SURFACE_SIDE_STYLE('',(#241));
#241=SURFACE_STYLE_FILL_AREA(#242);
#242=FILL_AREA_STYLE('',(#243));
#243=FILL_AREA_STYLE_COLOUR('',#244);
#244=COLOUR_RGB('',0.768627450980392,0.886274509803922,0.952941176470588);
#245=MANIFOLD_SOLID_BREP('Part 339',#236);
#246=SHAPE_DEFINITION_REPRESENTATION(#428,#247);
#247=SHAPE_REPRESENTATION('Part 339',(#248),#423);
#248=AXIS2_PLACEMENT_3D('',#356,#280,#281);
#249=AXIS2_PLACEMENT_3D('',#357,#282,#283);
#250=AXIS2_PLACEMENT_3D('',#358,#284,#285);
#251=AXIS2_PLACEMENT_3D('',#360,#286,#287);
#252=AXIS2_PLACEMENT_3D('',#362,#288,#289);
#253=AXIS2_PLACEMENT_3D('',#367,#291,#292);
#254=AXIS2_PLACEMENT_3D('',#369,#293,#294);
#255=AXIS2_PLACEMENT_3D('',#371,#295,#296);
#256=AXIS2_PLACEMENT_3D('',#375,#298,#299);
#257=AXIS2_PLACEMENT_3D('',#377,#300,#301);
#258=AXIS2_PLACEMENT_3D('',#378,#302,#303);
#259=AXIS2_PLACEMENT_3D('',#380,#304,#305);
#260=AXIS2_PLACEMENT_3D('',#381,#306,#307);
#261=AXIS2_PLACEMENT_3D('',#383,#308,#309);
#262=AXIS2_PLACEMENT_3D('',#384,#310,#311);
#263=AXIS2_PLACEMENT_3D('',#386,#312,#313);
#264=AXIS2_PLACEMENT_3D('',#389,#315,#316);
#265=AXIS2_PLACEMENT_3D('',#392,#318,#319);
#266=AXIS2_PLACEMENT_3D('',#395,#321,#322);
#267=AXIS2_PLACEMENT_3D('',#396,#323,#324);
#268=AXIS2_PLACEMENT_3D('',#397,#325,#326);
#269=AXIS2_PLACEMENT_3D('',#399,#327,#328);
#270=AXIS2_PLACEMENT_3D('',#400,#329,#330);
#271=AXIS2_PLACEMENT_3D('',#404,#332,#333);
#272=AXIS2_PLACEMENT_3D('',#406,#334,#335);
#273=AXIS2_PLACEMENT_3D('',#408,#336,#337);
#274=AXIS2_PLACEMENT_3D('',#411,#339,#340);
#275=AXIS2_PLACEMENT_3D('',#413,#342,#343);
#276=AXIS2_PLACEMENT_3D('',#415,#345,#346);
#277=AXIS2_PLACEMENT_3D('',#417,#348,#349);
#278=AXIS2_PLACEMENT_3D('',#419,#351,#352);
#279=AXIS2_PLACEMENT_3D('',#421,#354,#355);
#280=DIRECTION('',(0.,0.,1.));
#281=DIRECTION('',(1.,0.,0.));
#282=DIRECTION('',(6.3159358890237E-18,1.,-6.93207011155929E-17));
#283=DIRECTION('',(0.707106781186548,4.45510967387734E-17,0.707106781186548));
#284=DIRECTION('',(6.3159358890237E-18,1.,-6.93207011155929E-17));
#285=DIRECTION('',(0.,6.93207011155929E-17,1.));
#286=DIRECTION('',(6.3159358890237E-18,1.,-6.93207011155929E-17));
#287=DIRECTION('',(0.,6.93207011155929E-17,1.));
#288=DIRECTION('',(6.3159358890237E-18,1.,-6.93207011155929E-17));
#289=DIRECTION('',(0.,6.93207011155929E-17,1.));
#290=DIRECTION('',(0.707106781186548,4.45510967387734E-17,0.707106781186547));
#291=DIRECTION('',(6.3159358890237E-18,1.,-6.93207011155929E-17));
#292=DIRECTION('',(0.,6.93207011155929E-17,1.));
#293=DIRECTION('',(6.3159358890237E-18,1.,-6.93207011155929E-17));
#294=DIRECTION('',(0.,6.93207011155929E-17,1.));
#295=DIRECTION('',(6.3159358890237E-18,1.,-6.93207011155929E-17));
#296=DIRECTION('',(0.,6.93207011155929E-17,1.));
#297=DIRECTION('',(0.707106781186548,4.45510967387734E-17,0.707106781186547));
#298=DIRECTION('',(6.3159358890237E-18,1.,-6.93207011155929E-17));
#299=DIRECTION('',(0.,6.93207011155929E-17,1.));
#300=DIRECTION('',(6.3159358890237E-18,1.,-6.93207011155929E-17));
#301=DIRECTION('',(0.,6.93207011155929E-17,1.));
#302=DIRECTION('',(6.3159358890237E-18,1.,-6.93207011155929E-17));
#303=DIRECTION('',(0.,6.93207011155929E-17,1.));
#304=DIRECTION('',(6.3159358890237E-18,1.,-6.93207011155929E-17));
#305=DIRECTION('',(0.,6.93207011155929E-17,1.));
#306=DIRECTION('',(6.3159358890237E-18,1.,-6.93207011155929E-17));
#307=DIRECTION('',(-1.,0.,0.));
#308=DIRECTION('',(6.3159358890237E-18,1.,-6.93207011155929E-17));
#309=DIRECTION('',(0.,6.93207011155929E-17,1.));
#310=DIRECTION('',(6.3159358890237E-18,1.,-6.93207011155929E-17));
#311=DIRECTION('',(-1.,0.,0.));
#312=DIRECTION('',(6.3159358890237E-18,1.,-6.93207011155929E-17));
#313=DIRECTION('',(0.,6.93207011155929E-17,1.));
#314=DIRECTION('',(6.3159358890237E-18,1.,-6.93207011155929E-17));
#315=DIRECTION('',(6.3159358890237E-18,1.,-6.93207011155929E-17));
#316=DIRECTION('',(0.,6.93207011155929E-17,1.));
#317=DIRECTION('',(6.3159358890237E-18,1.,-6.93207011155929E-17));
#318=DIRECTION('',(6.3159358890237E-18,1.,-6.93207011155929E-17));
#319=DIRECTION('',(0.,6.93207011155929E-17,1.));
#320=DIRECTION('',(6.3159358890237E-18,1.,-6.93207011155929E-17));
#321=DIRECTION('',(6.3159358890237E-18,1.,-6.93207011155929E-17));
#322=DIRECTION('',(0.701462105295474,2.57568444836942E-17,0.712706752342393));
#323=DIRECTION('',(6.3159358890237E-18,1.,-6.93207011155929E-17));
#324=DIRECTION('',(0.,6.93207011155929E-17,1.));
#325=DIRECTION('',(6.3159358890237E-18,1.,-6.93207011155929E-17));
#326=DIRECTION('',(-1.,0.,0.));
#327=DIRECTION('',(6.3159358890237E-18,1.,-6.93207011155929E-17));
#328=DIRECTION('',(-1.,6.3159358890237E-18,-4.37825104028259E-34));
#329=DIRECTION('',(6.3159358890237E-18,1.,-6.93207011155929E-17));
#330=DIRECTION('',(0.,6.93207011155929E-17,1.));
#331=DIRECTION('',(-0.707106781186548,-4.45510967387734E-17,-0.707106781186547));
#332=DIRECTION('',(6.3159358890237E-18,1.,-6.93207011155929E-17));
#333=DIRECTION('',(0.,6.93207011155929E-17,1.));
#334=DIRECTION('',(6.3159358890237E-18,1.,-6.93207011155929E-17));
#335=DIRECTION('',(0.678703712363132,4.79536551755855E-17,0.734412194087559));
#336=DIRECTION('',(6.3159358890237E-18,1.,-6.93207011155929E-17));
#337=DIRECTION('',(0.,6.93207011155929E-17,1.));
#338=DIRECTION('',(-0.707106781186548,-4.45510967387734E-17,-0.707106781186547));
#339=DIRECTION('',(0.707106781186547,-5.34831789321098E-17,-0.707106781186548));
#340=DIRECTION('',(-0.707106781186548,0.,-0.707106781186547));
#341=DIRECTION('',(6.3159358890237E-18,1.,-6.93207011155929E-17));
#342=DIRECTION('',(6.3159358890237E-18,1.,-6.93207011155929E-17));
#343=DIRECTION('',(0.,6.93207011155929E-17,1.));
#344=DIRECTION('',(6.3159358890237E-18,1.,-6.93207011155929E-17));
#345=DIRECTION('',(6.3159358890237E-18,1.,-6.93207011155929E-17));
#346=DIRECTION('',(0.,6.93207011155929E-17,1.));
#347=DIRECTION('',(6.3159358890237E-18,1.,-6.93207011155929E-17));
#348=DIRECTION('',(6.3159358890237E-18,1.,-6.93207011155929E-17));
#349=DIRECTION('',(0.,6.93207011155929E-17,1.));
#350=DIRECTION('',(6.3159358890237E-18,1.,-6.93207011155929E-17));
#351=DIRECTION('',(0.707106781186547,-5.34831789321098E-17,-0.707106781186548));
#352=DIRECTION('',(-0.707106781186548,0.,-0.707106781186547));
#353=DIRECTION('',(6.3159358890237E-18,1.,-6.93207011155929E-17));
#354=DIRECTION('',(6.3159358890237E-18,1.,-6.93207011155929E-17));
#355=DIRECTION('',(0.,6.93207011155929E-17,1.));
#356=CARTESIAN_POINT('',(0.,0.,0.));
#357=CARTESIAN_POINT('',(0.175798664990623,0.022,-0.175784834107873));
#358=CARTESIAN_POINT('',(0.275663803729323,0.022,-0.275649972846542));
#359=CARTESIAN_POINT('',(0.275663803729323,0.022,-0.273949972846542));
#360=CARTESIAN_POINT('',(0.0780981690658022,0.022,-0.275649972846542));
#361=CARTESIAN_POINT('',(0.0780981690658022,0.022,-0.273949972846542));
#362=CARTESIAN_POINT('',(0.0776063078352979,0.022,-0.274575539500121));
#363=CARTESIAN_POINT('',(0.0808793868570407,0.022,-0.27135410109808));
#364=CARTESIAN_POINT('',(0.074358946470996,0.022,-0.271328178135819));
#365=CARTESIAN_POINT('',(0.0741500262325541,0.022,-0.271537098374261));
#366=CARTESIAN_POINT('',(0.073782583274298,0.022,-0.271904541332517));
#367=CARTESIAN_POINT('',(0.0770299446385999,0.022,-0.275151902696819));
#368=CARTESIAN_POINT('',(0.0737570146355008,0.022,-0.278373492499313));
#369=CARTESIAN_POINT('',(0.176880986397563,0.022,-0.176867155514781));
#370=CARTESIAN_POINT('',(0.278387323382097,0.022,-0.0737431837527207));
#371=CARTESIAN_POINT('',(0.275165733579603,0.022,-0.0770161137558197));
#372=CARTESIAN_POINT('',(0.271918372215301,0.022,-0.0737687523915178));
#373=CARTESIAN_POINT('',(0.271550929257045,0.022,-0.0741361953497738));
#374=CARTESIAN_POINT('',(0.271342009018603,0.022,-0.0743451155882158));
#375=CARTESIAN_POINT('',(0.274589370382905,0.022,-0.0775924769525177));
#376=CARTESIAN_POINT('',(0.271367931980863,0.022,-0.0808655559742605));
#377=CARTESIAN_POINT('',(0.176880986397563,0.022,-0.176867155514781));
#378=CARTESIAN_POINT('',(0.275663803729323,0.022,-0.0780843381830202));
#379=CARTESIAN_POINT('',(0.275663803729323,0.022,-0.0763843381830202));
#380=CARTESIAN_POINT('',(0.275663803729323,0.021998,-0.0780843381830202));
#381=CARTESIAN_POINT('',(0.275663803729323,0.02581,-0.0780843381830202));
#382=CARTESIAN_POINT('',(0.273963803729323,0.02581,-0.0780843381830202));
#383=CARTESIAN_POINT('',(0.275663803729323,0.021998,-0.275649972846542));
#384=CARTESIAN_POINT('',(0.275663803729323,0.02581,-0.275649972846542));
#385=CARTESIAN_POINT('',(0.273963803729323,0.02581,-0.275649972846542));
#386=CARTESIAN_POINT('',(0.0776063078352979,0.021998,-0.274575539500121));
#387=CARTESIAN_POINT('',(0.0808793868570407,0.021998,-0.27135410109808));
#388=CARTESIAN_POINT('',(0.0808793868570407,0.02581,-0.27135410109808));
#389=CARTESIAN_POINT('',(0.0776063078352979,0.02581,-0.274575539500121));
#390=CARTESIAN_POINT('',(0.074358946470996,0.02581,-0.271328178135819));
#391=CARTESIAN_POINT('',(0.074358946470996,0.021998,-0.271328178135819));
#392=CARTESIAN_POINT('',(0.176880986397563,0.021998,-0.176867155514781));
#393=CARTESIAN_POINT('',(0.271367931980863,0.021998,-0.0808655559742605));
#394=CARTESIAN_POINT('',(0.271367931980863,0.02581,-0.0808655559742605));
#395=CARTESIAN_POINT('',(0.176880986397563,0.02581,-0.176867155514781));
#396=CARTESIAN_POINT('',(0.0780981690658022,0.021998,-0.275649972846542));
#397=CARTESIAN_POINT('',(0.0780981690658022,0.02581,-0.275649972846542));
#398=CARTESIAN_POINT('',(0.0763981690658022,0.02581,-0.275649972846542));
#399=CARTESIAN_POINT('',(0.197009234276421,0.02581,-0.19699540339364));
#400=CARTESIAN_POINT('',(0.274589370382905,0.02581,-0.0775924769525177));
#401=CARTESIAN_POINT('',(0.271342009018603,0.02581,-0.0743451155882158));
#402=CARTESIAN_POINT('',(0.271550929257045,0.02581,-0.0741361953497738));
#403=CARTESIAN_POINT('',(0.271918372215301,0.02581,-0.0737687523915178));
#404=CARTESIAN_POINT('',(0.275165733579603,0.02581,-0.0770161137558197));
#405=CARTESIAN_POINT('',(0.278387323382097,0.02581,-0.0737431837527207));
#406=CARTESIAN_POINT('',(0.176880986397563,0.02581,-0.176867155514781));
#407=CARTESIAN_POINT('',(0.0737570146355008,0.02581,-0.278373492499313));
#408=CARTESIAN_POINT('',(0.0770299446385999,0.02581,-0.275151902696819));
#409=CARTESIAN_POINT('',(0.073782583274298,0.02581,-0.271904541332517));
#410=CARTESIAN_POINT('',(0.0741500262325541,0.02581,-0.271537098374261));
#411=CARTESIAN_POINT('',(0.0741500262325541,0.021998,-0.271537098374261));
#412=CARTESIAN_POINT('',(0.073782583274298,0.021998,-0.271904541332517));
#413=CARTESIAN_POINT('',(0.0770299446385999,0.021998,-0.275151902696819));
#414=CARTESIAN_POINT('',(0.0737570146355008,0.021998,-0.278373492499313));
#415=CARTESIAN_POINT('',(0.176880986397563,0.021998,-0.176867155514781));
#416=CARTESIAN_POINT('',(0.278387323382097,0.021998,-0.0737431837527207));
#417=CARTESIAN_POINT('',(0.275165733579603,0.021998,-0.0770161137558197));
#418=CARTESIAN_POINT('',(0.271918372215301,0.021998,-0.0737687523915178));
#419=CARTESIAN_POINT('',(0.271550929257045,0.021998,-0.0741361953497738));
#420=CARTESIAN_POINT('',(0.271342009018603,0.021998,-0.0743451155882158));
#421=CARTESIAN_POINT('',(0.274589370382905,0.021998,-0.0775924769525177));
#422=MECHANICAL_DESIGN_GEOMETRIC_PRESENTATION_REPRESENTATION('',(#237),
#423);
#423=(
GEOMETRIC_REPRESENTATION_CONTEXT(3)
GLOBAL_UNCERTAINTY_ASSIGNED_CONTEXT((#424))
GLOBAL_UNIT_ASSIGNED_CONTEXT((#427,#426,#425))
REPRESENTATION_CONTEXT('Part 339','TOP_LEVEL_ASSEMBLY_PART')
);
#424=UNCERTAINTY_MEASURE_WITH_UNIT(LENGTH_MEASURE(1.E-8),#427,
'DISTANCE_ACCURACY_VALUE','Maximum Tolerance applied to model');
#425=(
NAMED_UNIT(*)
SI_UNIT($,.STERADIAN.)
SOLID_ANGLE_UNIT()
);
#426=(
NAMED_UNIT(*)
PLANE_ANGLE_UNIT()
SI_UNIT($,.RADIAN.)
);
#427=(
LENGTH_UNIT()
NAMED_UNIT(*)
SI_UNIT($,.METRE.)
);
#428=PRODUCT_DEFINITION_SHAPE('','',#429);
#429=PRODUCT_DEFINITION('','',#431,#430);
#430=PRODUCT_DEFINITION_CONTEXT('',#437,'design');
#431=PRODUCT_DEFINITION_FORMATION_WITH_SPECIFIED_SOURCE('','',#433,
 .NOT_KNOWN.);
#432=PRODUCT_RELATED_PRODUCT_CATEGORY('','',(#433));
#433=PRODUCT('Part 339','Part 339','Part 339',(#435));
#434=PRODUCT_CATEGORY('','');
#435=PRODUCT_CONTEXT('',#437,'mechanical');
#436=APPLICATION_PROTOCOL_DEFINITION('international standard',
'ap242_managed_model_based_3d_engineering',2020,#437);
#437=APPLICATION_CONTEXT('managed model based 3d engineering');
ENDSEC;
END-ISO-10303-21;
