ISO-10303-21;
HEADER;
/* Generated by software containing ST-Developer
 * from STEP Tools, Inc. (www.steptools.com) 
 */
/* OPTION: using custom renumber hook */

FILE_DESCRIPTION(
/* description */ ('STEP AP242 Edition 2',
'CAx-IF Rec.Pracs.---Representation and Presentation of Product Manufa
cturing Information (PMI)---4.0---2014-10-13',
'CAx-IF Rec.Pracs.---3D Tessellated Geometry---0.4---2014-09-14','2;1',
'CAx-IF Rec.Pracs.---User Defined Attributes---1.5---2016-08-15'),
/* implementation_level */ '2;1');

FILE_NAME(
/* name */ 'T2-001-V1.2(3D) - Part 3',
/* time_stamp */ '2026-05-04T23:28:13Z',
/* author */ (''),
/* organization */ (''),
/* preprocessor_version */ 'ST-DEVELOPER v20',
/* originating_system */ 'ONSHAPE BY PTC INC, 1.214',
/* authorisation */ '  ');

FILE_SCHEMA (('AP242_MANAGED_MODEL_BASED_3D_ENGINEERING_MIM_LF { 1 0 10303 442 3 1 4 }'));
ENDSEC;

DATA;
#10=SHAPE_REPRESENTATION_RELATIONSHIP('','',#977,#11);
#11=ADVANCED_BREP_SHAPE_REPRESENTATION('',(#975),#1607);
#12=CYLINDRICAL_SURFACE('',#989,0.003659);
#13=CYLINDRICAL_SURFACE('',#992,0.003659);
#14=CYLINDRICAL_SURFACE('',#995,0.003659);
#15=CYLINDRICAL_SURFACE('',#998,0.003659);
#16=CYLINDRICAL_SURFACE('',#1006,0.001754);
#17=CYLINDRICAL_SURFACE('',#1009,0.001754);
#18=CYLINDRICAL_SURFACE('',#1012,0.001754);
#19=CYLINDRICAL_SURFACE('',#1015,0.001754);
#20=CYLINDRICAL_SURFACE('',#1020,0.003429);
#21=CYLINDRICAL_SURFACE('',#1023,0.001524);
#22=CYLINDRICAL_SURFACE('',#1028,0.003429);
#23=CYLINDRICAL_SURFACE('',#1032,0.001524);
#24=CYLINDRICAL_SURFACE('',#1039,0.000919815367264149);
#25=CYLINDRICAL_SURFACE('',#1040,0.000919815367264149);
#26=CYLINDRICAL_SURFACE('',#1041,0.000919815367264149);
#27=CYLINDRICAL_SURFACE('',#1042,0.000919815367264149);
#28=CIRCLE('',#982,0.000919815367264149);
#29=CIRCLE('',#983,0.000919815367264149);
#30=CIRCLE('',#984,0.000919815367264149);
#31=CIRCLE('',#985,0.000919815367264149);
#32=CIRCLE('',#990,0.003659);
#33=CIRCLE('',#991,0.003659);
#34=CIRCLE('',#993,0.003659);
#35=CIRCLE('',#994,0.003659);
#36=CIRCLE('',#996,0.003659);
#37=CIRCLE('',#997,0.003659);
#38=CIRCLE('',#999,0.003659);
#39=CIRCLE('',#1000,0.003659);
#40=CIRCLE('',#1002,0.000919815367264149);
#41=CIRCLE('',#1003,0.000919815367264149);
#42=CIRCLE('',#1004,0.000919815367264149);
#43=CIRCLE('',#1005,0.000919815367264149);
#44=CIRCLE('',#1007,0.001754);
#45=CIRCLE('',#1008,0.001754);
#46=CIRCLE('',#1010,0.001754);
#47=CIRCLE('',#1011,0.001754);
#48=CIRCLE('',#1013,0.001754);
#49=CIRCLE('',#1014,0.001754);
#50=CIRCLE('',#1016,0.001754);
#51=CIRCLE('',#1017,0.001754);
#52=CIRCLE('',#1021,0.003429);
#53=CIRCLE('',#1022,0.003429);
#54=CIRCLE('',#1024,0.001524);
#55=CIRCLE('',#1025,0.001524);
#56=CIRCLE('',#1029,0.003429);
#57=CIRCLE('',#1030,0.003429);
#58=CIRCLE('',#1033,0.001524);
#59=CIRCLE('',#1034,0.001524);
#60=ORIENTED_EDGE('',*,*,#332,.F.);
#61=ORIENTED_EDGE('',*,*,#333,.T.);
#62=ORIENTED_EDGE('',*,*,#334,.T.);
#63=ORIENTED_EDGE('',*,*,#335,.T.);
#64=ORIENTED_EDGE('',*,*,#336,.F.);
#65=ORIENTED_EDGE('',*,*,#337,.T.);
#66=ORIENTED_EDGE('',*,*,#338,.T.);
#67=ORIENTED_EDGE('',*,*,#339,.T.);
#68=ORIENTED_EDGE('',*,*,#340,.F.);
#69=ORIENTED_EDGE('',*,*,#341,.T.);
#70=ORIENTED_EDGE('',*,*,#342,.T.);
#71=ORIENTED_EDGE('',*,*,#343,.T.);
#72=ORIENTED_EDGE('',*,*,#344,.F.);
#73=ORIENTED_EDGE('',*,*,#345,.T.);
#74=ORIENTED_EDGE('',*,*,#346,.T.);
#75=ORIENTED_EDGE('',*,*,#347,.T.);
#76=ORIENTED_EDGE('',*,*,#348,.F.);
#77=ORIENTED_EDGE('',*,*,#349,.T.);
#78=ORIENTED_EDGE('',*,*,#350,.T.);
#79=ORIENTED_EDGE('',*,*,#351,.T.);
#80=ORIENTED_EDGE('',*,*,#352,.T.);
#81=ORIENTED_EDGE('',*,*,#353,.T.);
#82=ORIENTED_EDGE('',*,*,#354,.F.);
#83=ORIENTED_EDGE('',*,*,#355,.T.);
#84=ORIENTED_EDGE('',*,*,#356,.F.);
#85=ORIENTED_EDGE('',*,*,#357,.T.);
#86=ORIENTED_EDGE('',*,*,#358,.F.);
#87=ORIENTED_EDGE('',*,*,#359,.F.);
#88=ORIENTED_EDGE('',*,*,#360,.T.);
#89=ORIENTED_EDGE('',*,*,#361,.T.);
#90=ORIENTED_EDGE('',*,*,#362,.F.);
#91=ORIENTED_EDGE('',*,*,#363,.F.);
#92=ORIENTED_EDGE('',*,*,#364,.F.);
#93=ORIENTED_EDGE('',*,*,#365,.T.);
#94=ORIENTED_EDGE('',*,*,#366,.F.);
#95=ORIENTED_EDGE('',*,*,#367,.F.);
#96=ORIENTED_EDGE('',*,*,#368,.T.);
#97=ORIENTED_EDGE('',*,*,#369,.T.);
#98=ORIENTED_EDGE('',*,*,#370,.F.);
#99=ORIENTED_EDGE('',*,*,#371,.F.);
#100=ORIENTED_EDGE('',*,*,#372,.F.);
#101=ORIENTED_EDGE('',*,*,#373,.T.);
#102=ORIENTED_EDGE('',*,*,#374,.F.);
#103=ORIENTED_EDGE('',*,*,#375,.F.);
#104=ORIENTED_EDGE('',*,*,#376,.F.);
#105=ORIENTED_EDGE('',*,*,#377,.T.);
#106=ORIENTED_EDGE('',*,*,#378,.F.);
#107=ORIENTED_EDGE('',*,*,#379,.F.);
#108=ORIENTED_EDGE('',*,*,#380,.F.);
#109=ORIENTED_EDGE('',*,*,#379,.T.);
#110=ORIENTED_EDGE('',*,*,#381,.F.);
#111=ORIENTED_EDGE('',*,*,#357,.F.);
#112=ORIENTED_EDGE('',*,*,#382,.F.);
#113=ORIENTED_EDGE('',*,*,#363,.T.);
#114=ORIENTED_EDGE('',*,*,#383,.F.);
#115=ORIENTED_EDGE('',*,*,#373,.F.);
#116=ORIENTED_EDGE('',*,*,#384,.F.);
#117=ORIENTED_EDGE('',*,*,#375,.T.);
#118=ORIENTED_EDGE('',*,*,#385,.F.);
#119=ORIENTED_EDGE('',*,*,#365,.F.);
#120=ORIENTED_EDGE('',*,*,#386,.F.);
#121=ORIENTED_EDGE('',*,*,#371,.T.);
#122=ORIENTED_EDGE('',*,*,#387,.F.);
#123=ORIENTED_EDGE('',*,*,#377,.F.);
#124=ORIENTED_EDGE('',*,*,#388,.T.);
#125=ORIENTED_EDGE('',*,*,#389,.T.);
#126=ORIENTED_EDGE('',*,*,#390,.F.);
#127=ORIENTED_EDGE('',*,*,#391,.T.);
#128=ORIENTED_EDGE('',*,*,#392,.F.);
#129=ORIENTED_EDGE('',*,*,#393,.T.);
#130=ORIENTED_EDGE('',*,*,#394,.T.);
#131=ORIENTED_EDGE('',*,*,#395,.T.);
#132=ORIENTED_EDGE('',*,*,#396,.F.);
#133=ORIENTED_EDGE('',*,*,#397,.T.);
#134=ORIENTED_EDGE('',*,*,#398,.T.);
#135=ORIENTED_EDGE('',*,*,#399,.T.);
#136=ORIENTED_EDGE('',*,*,#400,.T.);
#137=ORIENTED_EDGE('',*,*,#401,.T.);
#138=ORIENTED_EDGE('',*,*,#402,.F.);
#139=ORIENTED_EDGE('',*,*,#403,.T.);
#140=ORIENTED_EDGE('',*,*,#404,.T.);
#141=ORIENTED_EDGE('',*,*,#405,.T.);
#142=ORIENTED_EDGE('',*,*,#338,.F.);
#143=ORIENTED_EDGE('',*,*,#406,.T.);
#144=ORIENTED_EDGE('',*,*,#344,.T.);
#145=ORIENTED_EDGE('',*,*,#407,.T.);
#146=ORIENTED_EDGE('',*,*,#408,.F.);
#147=ORIENTED_EDGE('',*,*,#409,.T.);
#148=ORIENTED_EDGE('',*,*,#336,.T.);
#149=ORIENTED_EDGE('',*,*,#410,.T.);
#150=ORIENTED_EDGE('',*,*,#394,.F.);
#151=ORIENTED_EDGE('',*,*,#411,.T.);
#152=ORIENTED_EDGE('',*,*,#392,.T.);
#153=ORIENTED_EDGE('',*,*,#412,.T.);
#154=ORIENTED_EDGE('',*,*,#346,.F.);
#155=ORIENTED_EDGE('',*,*,#413,.T.);
#156=ORIENTED_EDGE('',*,*,#408,.T.);
#157=ORIENTED_EDGE('',*,*,#414,.T.);
#158=ORIENTED_EDGE('',*,*,#415,.T.);
#159=ORIENTED_EDGE('',*,*,#416,.T.);
#160=ORIENTED_EDGE('',*,*,#417,.F.);
#161=ORIENTED_EDGE('',*,*,#418,.T.);
#162=ORIENTED_EDGE('',*,*,#404,.F.);
#163=ORIENTED_EDGE('',*,*,#419,.T.);
#164=ORIENTED_EDGE('',*,*,#420,.T.);
#165=ORIENTED_EDGE('',*,*,#421,.T.);
#166=ORIENTED_EDGE('',*,*,#369,.F.);
#167=ORIENTED_EDGE('',*,*,#422,.T.);
#168=ORIENTED_EDGE('',*,*,#423,.F.);
#169=ORIENTED_EDGE('',*,*,#420,.F.);
#170=ORIENTED_EDGE('',*,*,#424,.F.);
#171=ORIENTED_EDGE('',*,*,#425,.T.);
#172=ORIENTED_EDGE('',*,*,#426,.F.);
#173=ORIENTED_EDGE('',*,*,#427,.F.);
#174=ORIENTED_EDGE('',*,*,#367,.T.);
#175=ORIENTED_EDGE('',*,*,#428,.T.);
#176=ORIENTED_EDGE('',*,*,#425,.F.);
#177=ORIENTED_EDGE('',*,*,#429,.T.);
#178=ORIENTED_EDGE('',*,*,#430,.F.);
#179=ORIENTED_EDGE('',*,*,#361,.F.);
#180=ORIENTED_EDGE('',*,*,#431,.F.);
#181=ORIENTED_EDGE('',*,*,#432,.T.);
#182=ORIENTED_EDGE('',*,*,#433,.T.);
#183=ORIENTED_EDGE('',*,*,#434,.T.);
#184=ORIENTED_EDGE('',*,*,#432,.F.);
#185=ORIENTED_EDGE('',*,*,#435,.T.);
#186=ORIENTED_EDGE('',*,*,#436,.F.);
#187=ORIENTED_EDGE('',*,*,#433,.F.);
#188=ORIENTED_EDGE('',*,*,#437,.F.);
#189=ORIENTED_EDGE('',*,*,#359,.T.);
#190=ORIENTED_EDGE('',*,*,#438,.F.);
#191=ORIENTED_EDGE('',*,*,#439,.F.);
#192=ORIENTED_EDGE('',*,*,#350,.F.);
#193=ORIENTED_EDGE('',*,*,#440,.T.);
#194=ORIENTED_EDGE('',*,*,#396,.T.);
#195=ORIENTED_EDGE('',*,*,#441,.T.);
#196=ORIENTED_EDGE('',*,*,#398,.F.);
#197=ORIENTED_EDGE('',*,*,#442,.T.);
#198=ORIENTED_EDGE('',*,*,#348,.T.);
#199=ORIENTED_EDGE('',*,*,#443,.T.);
#200=ORIENTED_EDGE('',*,*,#400,.F.);
#201=ORIENTED_EDGE('',*,*,#444,.T.);
#202=ORIENTED_EDGE('',*,*,#354,.T.);
#203=ORIENTED_EDGE('',*,*,#445,.T.);
#204=ORIENTED_EDGE('',*,*,#352,.F.);
#205=ORIENTED_EDGE('',*,*,#446,.T.);
#206=ORIENTED_EDGE('',*,*,#402,.T.);
#207=ORIENTED_EDGE('',*,*,#447,.T.);
#208=ORIENTED_EDGE('',*,*,#397,.F.);
#209=ORIENTED_EDGE('',*,*,#440,.F.);
#210=ORIENTED_EDGE('',*,*,#349,.F.);
#211=ORIENTED_EDGE('',*,*,#442,.F.);
#212=ORIENTED_EDGE('',*,*,#399,.F.);
#213=ORIENTED_EDGE('',*,*,#443,.F.);
#214=ORIENTED_EDGE('',*,*,#355,.F.);
#215=ORIENTED_EDGE('',*,*,#444,.F.);
#216=ORIENTED_EDGE('',*,*,#403,.F.);
#217=ORIENTED_EDGE('',*,*,#446,.F.);
#218=ORIENTED_EDGE('',*,*,#351,.F.);
#219=ORIENTED_EDGE('',*,*,#441,.F.);
#220=ORIENTED_EDGE('',*,*,#401,.F.);
#221=ORIENTED_EDGE('',*,*,#445,.F.);
#222=ORIENTED_EDGE('',*,*,#353,.F.);
#223=ORIENTED_EDGE('',*,*,#447,.F.);
#224=ORIENTED_EDGE('',*,*,#436,.T.);
#225=ORIENTED_EDGE('',*,*,#358,.T.);
#226=ORIENTED_EDGE('',*,*,#381,.T.);
#227=ORIENTED_EDGE('',*,*,#378,.T.);
#228=ORIENTED_EDGE('',*,*,#387,.T.);
#229=ORIENTED_EDGE('',*,*,#370,.T.);
#230=ORIENTED_EDGE('',*,*,#421,.F.);
#231=ORIENTED_EDGE('',*,*,#423,.T.);
#232=ORIENTED_EDGE('',*,*,#428,.F.);
#233=ORIENTED_EDGE('',*,*,#366,.T.);
#234=ORIENTED_EDGE('',*,*,#385,.T.);
#235=ORIENTED_EDGE('',*,*,#374,.T.);
#236=ORIENTED_EDGE('',*,*,#383,.T.);
#237=ORIENTED_EDGE('',*,*,#362,.T.);
#238=ORIENTED_EDGE('',*,*,#430,.T.);
#239=ORIENTED_EDGE('',*,*,#434,.F.);
#240=ORIENTED_EDGE('',*,*,#393,.F.);
#241=ORIENTED_EDGE('',*,*,#413,.F.);
#242=ORIENTED_EDGE('',*,*,#345,.F.);
#243=ORIENTED_EDGE('',*,*,#409,.F.);
#244=ORIENTED_EDGE('',*,*,#419,.F.);
#245=ORIENTED_EDGE('',*,*,#406,.F.);
#246=ORIENTED_EDGE('',*,*,#337,.F.);
#247=ORIENTED_EDGE('',*,*,#411,.F.);
#248=ORIENTED_EDGE('',*,*,#438,.T.);
#249=ORIENTED_EDGE('',*,*,#426,.T.);
#250=ORIENTED_EDGE('',*,*,#448,.F.);
#251=ORIENTED_EDGE('',*,*,#449,.T.);
#252=ORIENTED_EDGE('',*,*,#450,.T.);
#253=ORIENTED_EDGE('',*,*,#416,.F.);
#254=ORIENTED_EDGE('',*,*,#450,.F.);
#255=ORIENTED_EDGE('',*,*,#451,.F.);
#256=ORIENTED_EDGE('',*,*,#452,.T.);
#257=ORIENTED_EDGE('',*,*,#417,.T.);
#258=ORIENTED_EDGE('',*,*,#449,.F.);
#259=ORIENTED_EDGE('',*,*,#453,.F.);
#260=ORIENTED_EDGE('',*,*,#454,.T.);
#261=ORIENTED_EDGE('',*,*,#342,.F.);
#262=ORIENTED_EDGE('',*,*,#455,.F.);
#263=ORIENTED_EDGE('',*,*,#332,.T.);
#264=ORIENTED_EDGE('',*,*,#456,.T.);
#265=ORIENTED_EDGE('',*,*,#451,.T.);
#266=ORIENTED_EDGE('',*,*,#453,.T.);
#267=ORIENTED_EDGE('',*,*,#448,.T.);
#268=ORIENTED_EDGE('',*,*,#415,.F.);
#269=ORIENTED_EDGE('',*,*,#457,.F.);
#270=ORIENTED_EDGE('',*,*,#458,.T.);
#271=ORIENTED_EDGE('',*,*,#459,.T.);
#272=ORIENTED_EDGE('',*,*,#460,.F.);
#273=ORIENTED_EDGE('',*,*,#461,.F.);
#274=ORIENTED_EDGE('',*,*,#334,.F.);
#275=ORIENTED_EDGE('',*,*,#462,.T.);
#276=ORIENTED_EDGE('',*,*,#340,.T.);
#277=ORIENTED_EDGE('',*,*,#463,.F.);
#278=ORIENTED_EDGE('',*,*,#464,.F.);
#279=ORIENTED_EDGE('',*,*,#388,.F.);
#280=ORIENTED_EDGE('',*,*,#465,.T.);
#281=ORIENTED_EDGE('',*,*,#460,.T.);
#282=ORIENTED_EDGE('',*,*,#335,.F.);
#283=ORIENTED_EDGE('',*,*,#461,.T.);
#284=ORIENTED_EDGE('',*,*,#465,.F.);
#285=ORIENTED_EDGE('',*,*,#395,.F.);
#286=ORIENTED_EDGE('',*,*,#410,.F.);
#287=ORIENTED_EDGE('',*,*,#456,.F.);
#288=ORIENTED_EDGE('',*,*,#339,.F.);
#289=ORIENTED_EDGE('',*,*,#405,.F.);
#290=ORIENTED_EDGE('',*,*,#418,.F.);
#291=ORIENTED_EDGE('',*,*,#452,.F.);
#292=ORIENTED_EDGE('',*,*,#454,.F.);
#293=ORIENTED_EDGE('',*,*,#457,.T.);
#294=ORIENTED_EDGE('',*,*,#414,.F.);
#295=ORIENTED_EDGE('',*,*,#407,.F.);
#296=ORIENTED_EDGE('',*,*,#343,.F.);
#297=ORIENTED_EDGE('',*,*,#466,.T.);
#298=ORIENTED_EDGE('',*,*,#463,.T.);
#299=ORIENTED_EDGE('',*,*,#347,.F.);
#300=ORIENTED_EDGE('',*,*,#412,.F.);
#301=ORIENTED_EDGE('',*,*,#391,.F.);
#302=ORIENTED_EDGE('',*,*,#390,.T.);
#303=ORIENTED_EDGE('',*,*,#467,.T.);
#304=ORIENTED_EDGE('',*,*,#458,.F.);
#305=ORIENTED_EDGE('',*,*,#466,.F.);
#306=ORIENTED_EDGE('',*,*,#431,.T.);
#307=ORIENTED_EDGE('',*,*,#360,.F.);
#308=ORIENTED_EDGE('',*,*,#437,.T.);
#309=ORIENTED_EDGE('',*,*,#435,.F.);
#310=ORIENTED_EDGE('',*,*,#439,.T.);
#311=ORIENTED_EDGE('',*,*,#427,.T.);
#312=ORIENTED_EDGE('',*,*,#368,.F.);
#313=ORIENTED_EDGE('',*,*,#429,.F.);
#314=ORIENTED_EDGE('',*,*,#424,.T.);
#315=ORIENTED_EDGE('',*,*,#422,.F.);
#316=ORIENTED_EDGE('',*,*,#380,.T.);
#317=ORIENTED_EDGE('',*,*,#356,.T.);
#318=ORIENTED_EDGE('',*,*,#382,.T.);
#319=ORIENTED_EDGE('',*,*,#372,.T.);
#320=ORIENTED_EDGE('',*,*,#384,.T.);
#321=ORIENTED_EDGE('',*,*,#364,.T.);
#322=ORIENTED_EDGE('',*,*,#386,.T.);
#323=ORIENTED_EDGE('',*,*,#376,.T.);
#324=ORIENTED_EDGE('',*,*,#462,.F.);
#325=ORIENTED_EDGE('',*,*,#333,.F.);
#326=ORIENTED_EDGE('',*,*,#455,.T.);
#327=ORIENTED_EDGE('',*,*,#341,.F.);
#328=ORIENTED_EDGE('',*,*,#389,.F.);
#329=ORIENTED_EDGE('',*,*,#464,.T.);
#330=ORIENTED_EDGE('',*,*,#459,.F.);
#331=ORIENTED_EDGE('',*,*,#467,.F.);
#332=EDGE_CURVE('',#468,#469,#560,.T.);
#333=EDGE_CURVE('',#468,#470,#561,.T.);
#334=EDGE_CURVE('',#470,#471,#562,.T.);
#335=EDGE_CURVE('',#471,#472,#563,.T.);
#336=EDGE_CURVE('',#473,#472,#564,.T.);
#337=EDGE_CURVE('',#473,#474,#565,.T.);
#338=EDGE_CURVE('',#474,#475,#566,.T.);
#339=EDGE_CURVE('',#475,#469,#567,.T.);
#340=EDGE_CURVE('',#476,#477,#568,.T.);
#341=EDGE_CURVE('',#476,#478,#569,.T.);
#342=EDGE_CURVE('',#478,#479,#570,.T.);
#343=EDGE_CURVE('',#479,#480,#571,.T.);
#344=EDGE_CURVE('',#481,#480,#572,.T.);
#345=EDGE_CURVE('',#481,#482,#573,.T.);
#346=EDGE_CURVE('',#482,#483,#574,.T.);
#347=EDGE_CURVE('',#483,#477,#575,.T.);
#348=EDGE_CURVE('',#484,#485,#576,.T.);
#349=EDGE_CURVE('',#484,#486,#28,.F.);
#350=EDGE_CURVE('',#486,#487,#577,.T.);
#351=EDGE_CURVE('',#487,#488,#29,.F.);
#352=EDGE_CURVE('',#488,#489,#578,.T.);
#353=EDGE_CURVE('',#489,#490,#30,.F.);
#354=EDGE_CURVE('',#491,#490,#579,.T.);
#355=EDGE_CURVE('',#491,#485,#31,.F.);
#356=EDGE_CURVE('',#492,#493,#580,.T.);
#357=EDGE_CURVE('',#492,#494,#581,.T.);
#358=EDGE_CURVE('',#495,#494,#582,.T.);
#359=EDGE_CURVE('',#496,#495,#583,.T.);
#360=EDGE_CURVE('',#496,#497,#584,.T.);
#361=EDGE_CURVE('',#497,#498,#585,.T.);
#362=EDGE_CURVE('',#499,#498,#586,.T.);
#363=EDGE_CURVE('',#493,#499,#587,.T.);
#364=EDGE_CURVE('',#500,#501,#588,.T.);
#365=EDGE_CURVE('',#500,#502,#589,.T.);
#366=EDGE_CURVE('',#503,#502,#590,.T.);
#367=EDGE_CURVE('',#504,#503,#591,.T.);
#368=EDGE_CURVE('',#504,#505,#592,.T.);
#369=EDGE_CURVE('',#505,#506,#593,.T.);
#370=EDGE_CURVE('',#507,#506,#594,.T.);
#371=EDGE_CURVE('',#501,#507,#595,.T.);
#372=EDGE_CURVE('',#508,#509,#596,.T.);
#373=EDGE_CURVE('',#508,#510,#597,.T.);
#374=EDGE_CURVE('',#511,#510,#598,.T.);
#375=EDGE_CURVE('',#509,#511,#599,.T.);
#376=EDGE_CURVE('',#512,#513,#600,.T.);
#377=EDGE_CURVE('',#512,#514,#601,.T.);
#378=EDGE_CURVE('',#515,#514,#602,.T.);
#379=EDGE_CURVE('',#513,#515,#603,.T.);
#380=EDGE_CURVE('',#513,#492,#32,.T.);
#381=EDGE_CURVE('',#494,#515,#33,.T.);
#382=EDGE_CURVE('',#493,#508,#34,.T.);
#383=EDGE_CURVE('',#510,#499,#35,.T.);
#384=EDGE_CURVE('',#509,#500,#36,.T.);
#385=EDGE_CURVE('',#502,#511,#37,.T.);
#386=EDGE_CURVE('',#501,#512,#38,.T.);
#387=EDGE_CURVE('',#514,#507,#39,.T.);
#388=EDGE_CURVE('',#516,#517,#604,.T.);
#389=EDGE_CURVE('',#517,#518,#605,.T.);
#390=EDGE_CURVE('',#519,#518,#606,.T.);
#391=EDGE_CURVE('',#519,#520,#607,.T.);
#392=EDGE_CURVE('',#521,#520,#608,.T.);
#393=EDGE_CURVE('',#521,#522,#609,.T.);
#394=EDGE_CURVE('',#522,#523,#610,.T.);
#395=EDGE_CURVE('',#523,#516,#611,.T.);
#396=EDGE_CURVE('',#524,#525,#612,.T.);
#397=EDGE_CURVE('',#524,#526,#40,.T.);
#398=EDGE_CURVE('',#526,#527,#613,.T.);
#399=EDGE_CURVE('',#527,#528,#41,.T.);
#400=EDGE_CURVE('',#528,#529,#614,.T.);
#401=EDGE_CURVE('',#529,#530,#42,.T.);
#402=EDGE_CURVE('',#531,#530,#615,.T.);
#403=EDGE_CURVE('',#531,#525,#43,.T.);
#404=EDGE_CURVE('',#532,#533,#616,.T.);
#405=EDGE_CURVE('',#533,#475,#44,.T.);
#406=EDGE_CURVE('',#474,#532,#45,.T.);
#407=EDGE_CURVE('',#480,#534,#46,.T.);
#408=EDGE_CURVE('',#535,#534,#617,.T.);
#409=EDGE_CURVE('',#535,#481,#47,.T.);
#410=EDGE_CURVE('',#472,#523,#48,.T.);
#411=EDGE_CURVE('',#522,#473,#49,.T.);
#412=EDGE_CURVE('',#520,#483,#50,.T.);
#413=EDGE_CURVE('',#482,#521,#51,.T.);
#414=EDGE_CURVE('',#534,#536,#618,.T.);
#415=EDGE_CURVE('',#536,#537,#619,.T.);
#416=EDGE_CURVE('',#537,#538,#620,.T.);
#417=EDGE_CURVE('',#539,#538,#621,.T.);
#418=EDGE_CURVE('',#539,#533,#622,.T.);
#419=EDGE_CURVE('',#532,#535,#623,.T.);
#420=EDGE_CURVE('',#540,#541,#624,.T.);
#421=EDGE_CURVE('',#541,#506,#625,.T.);
#422=EDGE_CURVE('',#505,#540,#626,.T.);
#423=EDGE_CURVE('',#541,#542,#52,.T.);
#424=EDGE_CURVE('',#543,#540,#53,.T.);
#425=EDGE_CURVE('',#543,#542,#627,.T.);
#426=EDGE_CURVE('',#544,#544,#54,.F.);
#427=EDGE_CURVE('',#545,#545,#55,.T.);
#428=EDGE_CURVE('',#503,#542,#628,.T.);
#429=EDGE_CURVE('',#543,#504,#629,.T.);
#430=EDGE_CURVE('',#498,#546,#630,.T.);
#431=EDGE_CURVE('',#547,#497,#631,.T.);
#432=EDGE_CURVE('',#547,#546,#632,.T.);
#433=EDGE_CURVE('',#548,#549,#633,.T.);
#434=EDGE_CURVE('',#549,#546,#56,.F.);
#435=EDGE_CURVE('',#547,#548,#57,.T.);
#436=EDGE_CURVE('',#549,#495,#634,.T.);
#437=EDGE_CURVE('',#496,#548,#635,.T.);
#438=EDGE_CURVE('',#550,#550,#58,.F.);
#439=EDGE_CURVE('',#551,#551,#59,.T.);
#440=EDGE_CURVE('',#486,#524,#636,.F.);
#441=EDGE_CURVE('',#525,#487,#637,.T.);
#442=EDGE_CURVE('',#526,#484,#638,.T.);
#443=EDGE_CURVE('',#485,#527,#639,.F.);
#444=EDGE_CURVE('',#528,#491,#640,.T.);
#445=EDGE_CURVE('',#490,#529,#641,.F.);
#446=EDGE_CURVE('',#488,#531,#642,.F.);
#447=EDGE_CURVE('',#530,#489,#643,.T.);
#448=EDGE_CURVE('',#552,#537,#644,.T.);
#449=EDGE_CURVE('',#552,#553,#645,.T.);
#450=EDGE_CURVE('',#553,#538,#646,.T.);
#451=EDGE_CURVE('',#554,#553,#647,.T.);
#452=EDGE_CURVE('',#554,#539,#648,.T.);
#453=EDGE_CURVE('',#555,#552,#649,.T.);
#454=EDGE_CURVE('',#555,#479,#650,.T.);
#455=EDGE_CURVE('',#468,#478,#651,.T.);
#456=EDGE_CURVE('',#469,#554,#652,.T.);
#457=EDGE_CURVE('',#555,#536,#653,.T.);
#458=EDGE_CURVE('',#556,#557,#654,.T.);
#459=EDGE_CURVE('',#557,#558,#655,.T.);
#460=EDGE_CURVE('',#559,#558,#656,.T.);
#461=EDGE_CURVE('',#471,#559,#657,.T.);
#462=EDGE_CURVE('',#470,#476,#658,.T.);
#463=EDGE_CURVE('',#556,#477,#659,.T.);
#464=EDGE_CURVE('',#517,#558,#660,.T.);
#465=EDGE_CURVE('',#516,#559,#661,.T.);
#466=EDGE_CURVE('',#519,#556,#662,.T.);
#467=EDGE_CURVE('',#518,#557,#663,.T.);
#468=VERTEX_POINT('',#1331);
#469=VERTEX_POINT('',#1332);
#470=VERTEX_POINT('',#1334);
#471=VERTEX_POINT('',#1336);
#472=VERTEX_POINT('',#1338);
#473=VERTEX_POINT('',#1340);
#474=VERTEX_POINT('',#1342);
#475=VERTEX_POINT('',#1344);
#476=VERTEX_POINT('',#1348);
#477=VERTEX_POINT('',#1349);
#478=VERTEX_POINT('',#1351);
#479=VERTEX_POINT('',#1353);
#480=VERTEX_POINT('',#1355);
#481=VERTEX_POINT('',#1357);
#482=VERTEX_POINT('',#1359);
#483=VERTEX_POINT('',#1361);
#484=VERTEX_POINT('',#1365);
#485=VERTEX_POINT('',#1366);
#486=VERTEX_POINT('',#1368);
#487=VERTEX_POINT('',#1370);
#488=VERTEX_POINT('',#1372);
#489=VERTEX_POINT('',#1374);
#490=VERTEX_POINT('',#1376);
#491=VERTEX_POINT('',#1378);
#492=VERTEX_POINT('',#1381);
#493=VERTEX_POINT('',#1382);
#494=VERTEX_POINT('',#1384);
#495=VERTEX_POINT('',#1386);
#496=VERTEX_POINT('',#1388);
#497=VERTEX_POINT('',#1390);
#498=VERTEX_POINT('',#1392);
#499=VERTEX_POINT('',#1394);
#500=VERTEX_POINT('',#1398);
#501=VERTEX_POINT('',#1399);
#502=VERTEX_POINT('',#1401);
#503=VERTEX_POINT('',#1403);
#504=VERTEX_POINT('',#1405);
#505=VERTEX_POINT('',#1407);
#506=VERTEX_POINT('',#1409);
#507=VERTEX_POINT('',#1411);
#508=VERTEX_POINT('',#1415);
#509=VERTEX_POINT('',#1416);
#510=VERTEX_POINT('',#1418);
#511=VERTEX_POINT('',#1420);
#512=VERTEX_POINT('',#1424);
#513=VERTEX_POINT('',#1425);
#514=VERTEX_POINT('',#1427);
#515=VERTEX_POINT('',#1429);
#516=VERTEX_POINT('',#1445);
#517=VERTEX_POINT('',#1446);
#518=VERTEX_POINT('',#1448);
#519=VERTEX_POINT('',#1450);
#520=VERTEX_POINT('',#1452);
#521=VERTEX_POINT('',#1454);
#522=VERTEX_POINT('',#1456);
#523=VERTEX_POINT('',#1458);
#524=VERTEX_POINT('',#1461);
#525=VERTEX_POINT('',#1462);
#526=VERTEX_POINT('',#1464);
#527=VERTEX_POINT('',#1466);
#528=VERTEX_POINT('',#1468);
#529=VERTEX_POINT('',#1470);
#530=VERTEX_POINT('',#1472);
#531=VERTEX_POINT('',#1474);
#532=VERTEX_POINT('',#1478);
#533=VERTEX_POINT('',#1479);
#534=VERTEX_POINT('',#1484);
#535=VERTEX_POINT('',#1486);
#536=VERTEX_POINT('',#1496);
#537=VERTEX_POINT('',#1498);
#538=VERTEX_POINT('',#1500);
#539=VERTEX_POINT('',#1502);
#540=VERTEX_POINT('',#1507);
#541=VERTEX_POINT('',#1508);
#542=VERTEX_POINT('',#1513);
#543=VERTEX_POINT('',#1515);
#544=VERTEX_POINT('',#1519);
#545=VERTEX_POINT('',#1521);
#546=VERTEX_POINT('',#1527);
#547=VERTEX_POINT('',#1529);
#548=VERTEX_POINT('',#1533);
#549=VERTEX_POINT('',#1534);
#550=VERTEX_POINT('',#1542);
#551=VERTEX_POINT('',#1544);
#552=VERTEX_POINT('',#1564);
#553=VERTEX_POINT('',#1566);
#554=VERTEX_POINT('',#1570);
#555=VERTEX_POINT('',#1574);
#556=VERTEX_POINT('',#1582);
#557=VERTEX_POINT('',#1583);
#558=VERTEX_POINT('',#1585);
#559=VERTEX_POINT('',#1587);
#560=LINE('',#1330,#664);
#561=LINE('',#1333,#665);
#562=LINE('',#1335,#666);
#563=LINE('',#1337,#667);
#564=LINE('',#1339,#668);
#565=LINE('',#1341,#669);
#566=LINE('',#1343,#670);
#567=LINE('',#1345,#671);
#568=LINE('',#1347,#672);
#569=LINE('',#1350,#673);
#570=LINE('',#1352,#674);
#571=LINE('',#1354,#675);
#572=LINE('',#1356,#676);
#573=LINE('',#1358,#677);
#574=LINE('',#1360,#678);
#575=LINE('',#1362,#679);
#576=LINE('',#1364,#680);
#577=LINE('',#1369,#681);
#578=LINE('',#1373,#682);
#579=LINE('',#1377,#683);
#580=LINE('',#1380,#684);
#581=LINE('',#1383,#685);
#582=LINE('',#1385,#686);
#583=LINE('',#1387,#687);
#584=LINE('',#1389,#688);
#585=LINE('',#1391,#689);
#586=LINE('',#1393,#690);
#587=LINE('',#1395,#691);
#588=LINE('',#1397,#692);
#589=LINE('',#1400,#693);
#590=LINE('',#1402,#694);
#591=LINE('',#1404,#695);
#592=LINE('',#1406,#696);
#593=LINE('',#1408,#697);
#594=LINE('',#1410,#698);
#595=LINE('',#1412,#699);
#596=LINE('',#1414,#700);
#597=LINE('',#1417,#701);
#598=LINE('',#1419,#702);
#599=LINE('',#1421,#703);
#600=LINE('',#1423,#704);
#601=LINE('',#1426,#705);
#602=LINE('',#1428,#706);
#603=LINE('',#1430,#707);
#604=LINE('',#1444,#708);
#605=LINE('',#1447,#709);
#606=LINE('',#1449,#710);
#607=LINE('',#1451,#711);
#608=LINE('',#1453,#712);
#609=LINE('',#1455,#713);
#610=LINE('',#1457,#714);
#611=LINE('',#1459,#715);
#612=LINE('',#1460,#716);
#613=LINE('',#1465,#717);
#614=LINE('',#1469,#718);
#615=LINE('',#1473,#719);
#616=LINE('',#1477,#720);
#617=LINE('',#1485,#721);
#618=LINE('',#1495,#722);
#619=LINE('',#1497,#723);
#620=LINE('',#1499,#724);
#621=LINE('',#1501,#725);
#622=LINE('',#1503,#726);
#623=LINE('',#1504,#727);
#624=LINE('',#1506,#728);
#625=LINE('',#1509,#729);
#626=LINE('',#1510,#730);
#627=LINE('',#1516,#731);
#628=LINE('',#1523,#732);
#629=LINE('',#1524,#733);
#630=LINE('',#1526,#734);
#631=LINE('',#1528,#735);
#632=LINE('',#1530,#736);
#633=LINE('',#1532,#737);
#634=LINE('',#1538,#738);
#635=LINE('',#1539,#739);
#636=LINE('',#1546,#740);
#637=LINE('',#1547,#741);
#638=LINE('',#1549,#742);
#639=LINE('',#1550,#743);
#640=LINE('',#1552,#744);
#641=LINE('',#1553,#745);
#642=LINE('',#1555,#746);
#643=LINE('',#1556,#747);
#644=LINE('',#1563,#748);
#645=LINE('',#1565,#749);
#646=LINE('',#1567,#750);
#647=LINE('',#1569,#751);
#648=LINE('',#1571,#752);
#649=LINE('',#1573,#753);
#650=LINE('',#1575,#754);
#651=LINE('',#1576,#755);
#652=LINE('',#1577,#756);
#653=LINE('',#1579,#757);
#654=LINE('',#1581,#758);
#655=LINE('',#1584,#759);
#656=LINE('',#1586,#760);
#657=LINE('',#1588,#761);
#658=LINE('',#1589,#762);
#659=LINE('',#1590,#763);
#660=LINE('',#1592,#764);
#661=LINE('',#1593,#765);
#662=LINE('',#1598,#766);
#663=LINE('',#1600,#767);
#664=VECTOR('',#1064,1.);
#665=VECTOR('',#1065,1.);
#666=VECTOR('',#1066,1.);
#667=VECTOR('',#1067,1.);
#668=VECTOR('',#1068,1.);
#669=VECTOR('',#1069,1.);
#670=VECTOR('',#1070,1.);
#671=VECTOR('',#1071,1.);
#672=VECTOR('',#1074,1.);
#673=VECTOR('',#1075,1.);
#674=VECTOR('',#1076,1.);
#675=VECTOR('',#1077,1.);
#676=VECTOR('',#1078,1.);
#677=VECTOR('',#1079,1.);
#678=VECTOR('',#1080,1.);
#679=VECTOR('',#1081,1.);
#680=VECTOR('',#1084,1.);
#681=VECTOR('',#1087,1.);
#682=VECTOR('',#1090,1.);
#683=VECTOR('',#1093,1.);
#684=VECTOR('',#1096,1.);
#685=VECTOR('',#1097,1.);
#686=VECTOR('',#1098,1.);
#687=VECTOR('',#1099,1.);
#688=VECTOR('',#1100,1.);
#689=VECTOR('',#1101,1.);
#690=VECTOR('',#1102,1.);
#691=VECTOR('',#1103,1.);
#692=VECTOR('',#1106,1.);
#693=VECTOR('',#1107,1.);
#694=VECTOR('',#1108,1.);
#695=VECTOR('',#1109,1.);
#696=VECTOR('',#1110,1.);
#697=VECTOR('',#1111,1.);
#698=VECTOR('',#1112,1.);
#699=VECTOR('',#1113,1.);
#700=VECTOR('',#1116,1.);
#701=VECTOR('',#1117,1.);
#702=VECTOR('',#1118,1.);
#703=VECTOR('',#1119,1.);
#704=VECTOR('',#1122,1.);
#705=VECTOR('',#1123,1.);
#706=VECTOR('',#1124,1.);
#707=VECTOR('',#1125,1.);
#708=VECTOR('',#1152,1.);
#709=VECTOR('',#1153,1.);
#710=VECTOR('',#1154,1.);
#711=VECTOR('',#1155,1.);
#712=VECTOR('',#1156,1.);
#713=VECTOR('',#1157,1.);
#714=VECTOR('',#1158,1.);
#715=VECTOR('',#1159,1.);
#716=VECTOR('',#1160,1.);
#717=VECTOR('',#1163,1.);
#718=VECTOR('',#1166,1.);
#719=VECTOR('',#1169,1.);
#720=VECTOR('',#1174,1.);
#721=VECTOR('',#1183,1.);
#722=VECTOR('',#1200,1.);
#723=VECTOR('',#1201,1.);
#724=VECTOR('',#1202,1.);
#725=VECTOR('',#1203,1.);
#726=VECTOR('',#1204,1.);
#727=VECTOR('',#1205,1.);
#728=VECTOR('',#1208,1.);
#729=VECTOR('',#1209,1.);
#730=VECTOR('',#1210,1.);
#731=VECTOR('',#1217,1.);
#732=VECTOR('',#1226,1.);
#733=VECTOR('',#1227,1.);
#734=VECTOR('',#1230,1.);
#735=VECTOR('',#1231,1.);
#736=VECTOR('',#1232,1.);
#737=VECTOR('',#1235,1.);
#738=VECTOR('',#1242,1.);
#739=VECTOR('',#1243,1.);
#740=VECTOR('',#1252,1.);
#741=VECTOR('',#1253,1.);
#742=VECTOR('',#1256,1.);
#743=VECTOR('',#1257,1.);
#744=VECTOR('',#1260,1.);
#745=VECTOR('',#1261,1.);
#746=VECTOR('',#1264,1.);
#747=VECTOR('',#1265,1.);
#748=VECTOR('',#1278,1.);
#749=VECTOR('',#1279,1.);
#750=VECTOR('',#1280,1.);
#751=VECTOR('',#1283,1.);
#752=VECTOR('',#1284,1.);
#753=VECTOR('',#1287,1.);
#754=VECTOR('',#1288,1.);
#755=VECTOR('',#1289,1.);
#756=VECTOR('',#1290,1.);
#757=VECTOR('',#1293,1.);
#758=VECTOR('',#1296,1.);
#759=VECTOR('',#1297,1.);
#760=VECTOR('',#1298,1.);
#761=VECTOR('',#1299,1.);
#762=VECTOR('',#1300,1.);
#763=VECTOR('',#1301,1.);
#764=VECTOR('',#1304,1.);
#765=VECTOR('',#1305,1.);
#766=VECTOR('',#1314,1.);
#767=VECTOR('',#1317,1.);
#768=EDGE_LOOP('',(#60,#61,#62,#63,#64,#65,#66,#67));
#769=EDGE_LOOP('',(#68,#69,#70,#71,#72,#73,#74,#75));
#770=EDGE_LOOP('',(#76,#77,#78,#79,#80,#81,#82,#83));
#771=EDGE_LOOP('',(#84,#85,#86,#87,#88,#89,#90,#91));
#772=EDGE_LOOP('',(#92,#93,#94,#95,#96,#97,#98,#99));
#773=EDGE_LOOP('',(#100,#101,#102,#103));
#774=EDGE_LOOP('',(#104,#105,#106,#107));
#775=EDGE_LOOP('',(#108,#109,#110,#111));
#776=EDGE_LOOP('',(#112,#113,#114,#115));
#777=EDGE_LOOP('',(#116,#117,#118,#119));
#778=EDGE_LOOP('',(#120,#121,#122,#123));
#779=EDGE_LOOP('',(#124,#125,#126,#127,#128,#129,#130,#131));
#780=EDGE_LOOP('',(#132,#133,#134,#135,#136,#137,#138,#139));
#781=EDGE_LOOP('',(#140,#141,#142,#143));
#782=EDGE_LOOP('',(#144,#145,#146,#147));
#783=EDGE_LOOP('',(#148,#149,#150,#151));
#784=EDGE_LOOP('',(#152,#153,#154,#155));
#785=EDGE_LOOP('',(#156,#157,#158,#159,#160,#161,#162,#163));
#786=EDGE_LOOP('',(#164,#165,#166,#167));
#787=EDGE_LOOP('',(#168,#169,#170,#171));
#788=EDGE_LOOP('',(#172));
#789=EDGE_LOOP('',(#173));
#790=EDGE_LOOP('',(#174,#175,#176,#177));
#791=EDGE_LOOP('',(#178,#179,#180,#181));
#792=EDGE_LOOP('',(#182,#183,#184,#185));
#793=EDGE_LOOP('',(#186,#187,#188,#189));
#794=EDGE_LOOP('',(#190));
#795=EDGE_LOOP('',(#191));
#796=EDGE_LOOP('',(#192,#193,#194,#195));
#797=EDGE_LOOP('',(#196,#197,#198,#199));
#798=EDGE_LOOP('',(#200,#201,#202,#203));
#799=EDGE_LOOP('',(#204,#205,#206,#207));
#800=EDGE_LOOP('',(#208,#209,#210,#211));
#801=EDGE_LOOP('',(#212,#213,#214,#215));
#802=EDGE_LOOP('',(#216,#217,#218,#219));
#803=EDGE_LOOP('',(#220,#221,#222,#223));
#804=EDGE_LOOP('',(#224,#225,#226,#227,#228,#229,#230,#231,#232,#233,#234,
#235,#236,#237,#238,#239));
#805=EDGE_LOOP('',(#240,#241,#242,#243,#244,#245,#246,#247));
#806=EDGE_LOOP('',(#248));
#807=EDGE_LOOP('',(#249));
#808=EDGE_LOOP('',(#250,#251,#252,#253));
#809=EDGE_LOOP('',(#254,#255,#256,#257));
#810=EDGE_LOOP('',(#258,#259,#260,#261,#262,#263,#264,#265));
#811=EDGE_LOOP('',(#266,#267,#268,#269));
#812=EDGE_LOOP('',(#270,#271,#272,#273,#274,#275,#276,#277));
#813=EDGE_LOOP('',(#278,#279,#280,#281));
#814=EDGE_LOOP('',(#282,#283,#284,#285,#286));
#815=EDGE_LOOP('',(#287,#288,#289,#290,#291));
#816=EDGE_LOOP('',(#292,#293,#294,#295,#296));
#817=EDGE_LOOP('',(#297,#298,#299,#300,#301));
#818=EDGE_LOOP('',(#302,#303,#304,#305));
#819=EDGE_LOOP('',(#306,#307,#308,#309));
#820=EDGE_LOOP('',(#310));
#821=EDGE_LOOP('',(#311));
#822=EDGE_LOOP('',(#312,#313,#314,#315));
#823=EDGE_LOOP('',(#316,#317,#318,#319,#320,#321,#322,#323));
#824=EDGE_LOOP('',(#324,#325,#326,#327));
#825=EDGE_LOOP('',(#328,#329,#330,#331));
#826=FACE_BOUND('',#768,.T.);
#827=FACE_BOUND('',#769,.T.);
#828=FACE_BOUND('',#770,.T.);
#829=FACE_BOUND('',#771,.T.);
#830=FACE_BOUND('',#772,.T.);
#831=FACE_BOUND('',#773,.T.);
#832=FACE_BOUND('',#774,.T.);
#833=FACE_BOUND('',#775,.T.);
#834=FACE_BOUND('',#776,.T.);
#835=FACE_BOUND('',#777,.T.);
#836=FACE_BOUND('',#778,.T.);
#837=FACE_BOUND('',#779,.T.);
#838=FACE_BOUND('',#780,.T.);
#839=FACE_BOUND('',#781,.T.);
#840=FACE_BOUND('',#782,.T.);
#841=FACE_BOUND('',#783,.T.);
#842=FACE_BOUND('',#784,.T.);
#843=FACE_BOUND('',#785,.T.);
#844=FACE_BOUND('',#786,.T.);
#845=FACE_BOUND('',#787,.T.);
#846=FACE_BOUND('',#788,.T.);
#847=FACE_BOUND('',#789,.T.);
#848=FACE_BOUND('',#790,.T.);
#849=FACE_BOUND('',#791,.T.);
#850=FACE_BOUND('',#792,.T.);
#851=FACE_BOUND('',#793,.T.);
#852=FACE_BOUND('',#794,.T.);
#853=FACE_BOUND('',#795,.T.);
#854=FACE_BOUND('',#796,.T.);
#855=FACE_BOUND('',#797,.T.);
#856=FACE_BOUND('',#798,.T.);
#857=FACE_BOUND('',#799,.T.);
#858=FACE_BOUND('',#800,.T.);
#859=FACE_BOUND('',#801,.T.);
#860=FACE_BOUND('',#802,.T.);
#861=FACE_BOUND('',#803,.T.);
#862=FACE_BOUND('',#804,.T.);
#863=FACE_BOUND('',#805,.T.);
#864=FACE_BOUND('',#806,.T.);
#865=FACE_BOUND('',#807,.T.);
#866=FACE_BOUND('',#808,.T.);
#867=FACE_BOUND('',#809,.T.);
#868=FACE_BOUND('',#810,.T.);
#869=FACE_BOUND('',#811,.T.);
#870=FACE_BOUND('',#812,.T.);
#871=FACE_BOUND('',#813,.T.);
#872=FACE_BOUND('',#814,.T.);
#873=FACE_BOUND('',#815,.T.);
#874=FACE_BOUND('',#816,.T.);
#875=FACE_BOUND('',#817,.T.);
#876=FACE_BOUND('',#818,.T.);
#877=FACE_BOUND('',#819,.T.);
#878=FACE_BOUND('',#820,.T.);
#879=FACE_BOUND('',#821,.T.);
#880=FACE_BOUND('',#822,.T.);
#881=FACE_BOUND('',#823,.T.);
#882=FACE_BOUND('',#824,.T.);
#883=FACE_BOUND('',#825,.T.);
#884=PLANE('',#979);
#885=PLANE('',#980);
#886=PLANE('',#981);
#887=PLANE('',#986);
#888=PLANE('',#987);
#889=PLANE('',#988);
#890=PLANE('',#1001);
#891=PLANE('',#1018);
#892=PLANE('',#1019);
#893=PLANE('',#1026);
#894=PLANE('',#1027);
#895=PLANE('',#1031);
#896=PLANE('',#1035);
#897=PLANE('',#1036);
#898=PLANE('',#1037);
#899=PLANE('',#1038);
#900=PLANE('',#1043);
#901=PLANE('',#1044);
#902=PLANE('',#1045);
#903=PLANE('',#1046);
#904=PLANE('',#1047);
#905=PLANE('',#1048);
#906=PLANE('',#1049);
#907=PLANE('',#1050);
#908=PLANE('',#1051);
#909=PLANE('',#1052);
#910=PLANE('',#1053);
#911=PLANE('',#1054);
#912=PLANE('',#1055);
#913=PLANE('',#1056);
#914=PLANE('',#1057);
#915=PLANE('',#1058);
#916=PLANE('',#1059);
#917=ADVANCED_FACE('',(#826),#884,.F.);
#918=ADVANCED_FACE('',(#827),#885,.F.);
#919=ADVANCED_FACE('',(#828,#829),#886,.F.);
#920=ADVANCED_FACE('',(#830),#887,.F.);
#921=ADVANCED_FACE('',(#831),#888,.F.);
#922=ADVANCED_FACE('',(#832),#889,.F.);
#923=ADVANCED_FACE('',(#833),#12,.T.);
#924=ADVANCED_FACE('',(#834),#13,.T.);
#925=ADVANCED_FACE('',(#835),#14,.T.);
#926=ADVANCED_FACE('',(#836),#15,.T.);
#927=ADVANCED_FACE('',(#837,#838),#890,.F.);
#928=ADVANCED_FACE('',(#839),#16,.F.);
#929=ADVANCED_FACE('',(#840),#17,.F.);
#930=ADVANCED_FACE('',(#841),#18,.F.);
#931=ADVANCED_FACE('',(#842),#19,.F.);
#932=ADVANCED_FACE('',(#843),#891,.F.);
#933=ADVANCED_FACE('',(#844),#892,.T.);
#934=ADVANCED_FACE('',(#845),#20,.T.);
#935=ADVANCED_FACE('',(#846,#847),#21,.F.);
#936=ADVANCED_FACE('',(#848),#893,.T.);
#937=ADVANCED_FACE('',(#849),#894,.F.);
#938=ADVANCED_FACE('',(#850),#22,.T.);
#939=ADVANCED_FACE('',(#851),#895,.F.);
#940=ADVANCED_FACE('',(#852,#853),#23,.F.);
#941=ADVANCED_FACE('',(#854),#896,.T.);
#942=ADVANCED_FACE('',(#855),#897,.F.);
#943=ADVANCED_FACE('',(#856),#898,.F.);
#944=ADVANCED_FACE('',(#857),#899,.T.);
#945=ADVANCED_FACE('',(#858),#24,.F.);
#946=ADVANCED_FACE('',(#859),#25,.F.);
#947=ADVANCED_FACE('',(#860),#26,.F.);
#948=ADVANCED_FACE('',(#861),#27,.F.);
#949=ADVANCED_FACE('',(#862,#863,#864,#865),#900,.T.);
#950=ADVANCED_FACE('',(#866),#901,.T.);
#951=ADVANCED_FACE('',(#867),#902,.T.);
#952=ADVANCED_FACE('',(#868),#903,.T.);
#953=ADVANCED_FACE('',(#869),#904,.F.);
#954=ADVANCED_FACE('',(#870),#905,.F.);
#955=ADVANCED_FACE('',(#871),#906,.T.);
#956=ADVANCED_FACE('',(#872),#907,.F.);
#957=ADVANCED_FACE('',(#873),#908,.F.);
#958=ADVANCED_FACE('',(#874),#909,.F.);
#959=ADVANCED_FACE('',(#875),#910,.F.);
#960=ADVANCED_FACE('',(#876),#911,.F.);
#961=ADVANCED_FACE('',(#877,#878),#912,.F.);
#962=ADVANCED_FACE('',(#879,#880),#913,.F.);
#963=ADVANCED_FACE('',(#881),#914,.T.);
#964=ADVANCED_FACE('',(#882),#915,.T.);
#965=ADVANCED_FACE('',(#883),#916,.F.);
#966=CLOSED_SHELL('',(#917,#918,#919,#920,#921,#922,#923,#924,#925,#926,
#927,#928,#929,#930,#931,#932,#933,#934,#935,#936,#937,#938,#939,#940,#941,
#942,#943,#944,#945,#946,#947,#948,#949,#950,#951,#952,#953,#954,#955,#956,
#957,#958,#959,#960,#961,#962,#963,#964,#965));
#967=STYLED_ITEM('',(#968),#975);
#968=PRESENTATION_STYLE_ASSIGNMENT((#969));
#969=SURFACE_STYLE_USAGE(.BOTH.,#970);
#970=SURFACE_SIDE_STYLE('',(#971));
#971=SURFACE_STYLE_FILL_AREA(#972);
#972=FILL_AREA_STYLE('',(#973));
#973=FILL_AREA_STYLE_COLOUR('',#974);
#974=COLOUR_RGB('',0.498039215686275,0.498039215686275,0.498039215686275);
#975=MANIFOLD_SOLID_BREP('Part 3',#966);
#976=SHAPE_DEFINITION_REPRESENTATION(#1612,#977);
#977=SHAPE_REPRESENTATION('Part 3',(#978),#1607);
#978=AXIS2_PLACEMENT_3D('',#1328,#1060,#1061);
#979=AXIS2_PLACEMENT_3D('',#1329,#1062,#1063);
#980=AXIS2_PLACEMENT_3D('',#1346,#1072,#1073);
#981=AXIS2_PLACEMENT_3D('',#1363,#1082,#1083);
#982=AXIS2_PLACEMENT_3D('',#1367,#1085,#1086);
#983=AXIS2_PLACEMENT_3D('',#1371,#1088,#1089);
#984=AXIS2_PLACEMENT_3D('',#1375,#1091,#1092);
#985=AXIS2_PLACEMENT_3D('',#1379,#1094,#1095);
#986=AXIS2_PLACEMENT_3D('',#1396,#1104,#1105);
#987=AXIS2_PLACEMENT_3D('',#1413,#1114,#1115);
#988=AXIS2_PLACEMENT_3D('',#1422,#1120,#1121);
#989=AXIS2_PLACEMENT_3D('',#1431,#1126,#1127);
#990=AXIS2_PLACEMENT_3D('',#1432,#1128,#1129);
#991=AXIS2_PLACEMENT_3D('',#1433,#1130,#1131);
#992=AXIS2_PLACEMENT_3D('',#1434,#1132,#1133);
#993=AXIS2_PLACEMENT_3D('',#1435,#1134,#1135);
#994=AXIS2_PLACEMENT_3D('',#1436,#1136,#1137);
#995=AXIS2_PLACEMENT_3D('',#1437,#1138,#1139);
#996=AXIS2_PLACEMENT_3D('',#1438,#1140,#1141);
#997=AXIS2_PLACEMENT_3D('',#1439,#1142,#1143);
#998=AXIS2_PLACEMENT_3D('',#1440,#1144,#1145);
#999=AXIS2_PLACEMENT_3D('',#1441,#1146,#1147);
#1000=AXIS2_PLACEMENT_3D('',#1442,#1148,#1149);
#1001=AXIS2_PLACEMENT_3D('',#1443,#1150,#1151);
#1002=AXIS2_PLACEMENT_3D('',#1463,#1161,#1162);
#1003=AXIS2_PLACEMENT_3D('',#1467,#1164,#1165);
#1004=AXIS2_PLACEMENT_3D('',#1471,#1167,#1168);
#1005=AXIS2_PLACEMENT_3D('',#1475,#1170,#1171);
#1006=AXIS2_PLACEMENT_3D('',#1476,#1172,#1173);
#1007=AXIS2_PLACEMENT_3D('',#1480,#1175,#1176);
#1008=AXIS2_PLACEMENT_3D('',#1481,#1177,#1178);
#1009=AXIS2_PLACEMENT_3D('',#1482,#1179,#1180);
#1010=AXIS2_PLACEMENT_3D('',#1483,#1181,#1182);
#1011=AXIS2_PLACEMENT_3D('',#1487,#1184,#1185);
#1012=AXIS2_PLACEMENT_3D('',#1488,#1186,#1187);
#1013=AXIS2_PLACEMENT_3D('',#1489,#1188,#1189);
#1014=AXIS2_PLACEMENT_3D('',#1490,#1190,#1191);
#1015=AXIS2_PLACEMENT_3D('',#1491,#1192,#1193);
#1016=AXIS2_PLACEMENT_3D('',#1492,#1194,#1195);
#1017=AXIS2_PLACEMENT_3D('',#1493,#1196,#1197);
#1018=AXIS2_PLACEMENT_3D('',#1494,#1198,#1199);
#1019=AXIS2_PLACEMENT_3D('',#1505,#1206,#1207);
#1020=AXIS2_PLACEMENT_3D('',#1511,#1211,#1212);
#1021=AXIS2_PLACEMENT_3D('',#1512,#1213,#1214);
#1022=AXIS2_PLACEMENT_3D('',#1514,#1215,#1216);
#1023=AXIS2_PLACEMENT_3D('',#1517,#1218,#1219);
#1024=AXIS2_PLACEMENT_3D('',#1518,#1220,#1221);
#1025=AXIS2_PLACEMENT_3D('',#1520,#1222,#1223);
#1026=AXIS2_PLACEMENT_3D('',#1522,#1224,#1225);
#1027=AXIS2_PLACEMENT_3D('',#1525,#1228,#1229);
#1028=AXIS2_PLACEMENT_3D('',#1531,#1233,#1234);
#1029=AXIS2_PLACEMENT_3D('',#1535,#1236,#1237);
#1030=AXIS2_PLACEMENT_3D('',#1536,#1238,#1239);
#1031=AXIS2_PLACEMENT_3D('',#1537,#1240,#1241);
#1032=AXIS2_PLACEMENT_3D('',#1540,#1244,#1245);
#1033=AXIS2_PLACEMENT_3D('',#1541,#1246,#1247);
#1034=AXIS2_PLACEMENT_3D('',#1543,#1248,#1249);
#1035=AXIS2_PLACEMENT_3D('',#1545,#1250,#1251);
#1036=AXIS2_PLACEMENT_3D('',#1548,#1254,#1255);
#1037=AXIS2_PLACEMENT_3D('',#1551,#1258,#1259);
#1038=AXIS2_PLACEMENT_3D('',#1554,#1262,#1263);
#1039=AXIS2_PLACEMENT_3D('',#1557,#1266,#1267);
#1040=AXIS2_PLACEMENT_3D('',#1558,#1268,#1269);
#1041=AXIS2_PLACEMENT_3D('',#1559,#1270,#1271);
#1042=AXIS2_PLACEMENT_3D('',#1560,#1272,#1273);
#1043=AXIS2_PLACEMENT_3D('',#1561,#1274,#1275);
#1044=AXIS2_PLACEMENT_3D('',#1562,#1276,#1277);
#1045=AXIS2_PLACEMENT_3D('',#1568,#1281,#1282);
#1046=AXIS2_PLACEMENT_3D('',#1572,#1285,#1286);
#1047=AXIS2_PLACEMENT_3D('',#1578,#1291,#1292);
#1048=AXIS2_PLACEMENT_3D('',#1580,#1294,#1295);
#1049=AXIS2_PLACEMENT_3D('',#1591,#1302,#1303);
#1050=AXIS2_PLACEMENT_3D('',#1594,#1306,#1307);
#1051=AXIS2_PLACEMENT_3D('',#1595,#1308,#1309);
#1052=AXIS2_PLACEMENT_3D('',#1596,#1310,#1311);
#1053=AXIS2_PLACEMENT_3D('',#1597,#1312,#1313);
#1054=AXIS2_PLACEMENT_3D('',#1599,#1315,#1316);
#1055=AXIS2_PLACEMENT_3D('',#1601,#1318,#1319);
#1056=AXIS2_PLACEMENT_3D('',#1602,#1320,#1321);
#1057=AXIS2_PLACEMENT_3D('',#1603,#1322,#1323);
#1058=AXIS2_PLACEMENT_3D('',#1604,#1324,#1325);
#1059=AXIS2_PLACEMENT_3D('',#1605,#1326,#1327);
#1060=DIRECTION('',(0.,0.,1.));
#1061=DIRECTION('',(1.,0.,0.));
#1062=DIRECTION('',(1.,0.,0.));
#1063=DIRECTION('',(0.,0.,-1.));
#1064=DIRECTION('',(0.,-1.,0.));
#1065=DIRECTION('',(0.,0.,1.));
#1066=DIRECTION('',(0.,-1.,0.));
#1067=DIRECTION('',(0.,0.,1.));
#1068=DIRECTION('',(0.,-1.,0.));
#1069=DIRECTION('',(0.,0.,-1.));
#1070=DIRECTION('',(0.,-1.,0.));
#1071=DIRECTION('',(0.,0.,1.));
#1072=DIRECTION('',(-1.,0.,0.));
#1073=DIRECTION('',(0.,0.,1.));
#1074=DIRECTION('',(0.,-1.,0.));
#1075=DIRECTION('',(0.,0.,-1.));
#1076=DIRECTION('',(0.,-1.,0.));
#1077=DIRECTION('',(0.,0.,-1.));
#1078=DIRECTION('',(0.,-1.,0.));
#1079=DIRECTION('',(0.,0.,1.));
#1080=DIRECTION('',(0.,-1.,0.));
#1081=DIRECTION('',(0.,0.,-1.));
#1082=DIRECTION('',(0.,0.,-1.));
#1083=DIRECTION('',(-1.,0.,0.));
#1084=DIRECTION('',(0.,1.,0.));
#1085=DIRECTION('',(0.,0.,1.));
#1086=DIRECTION('',(1.,0.,0.));
#1087=DIRECTION('',(-1.,-1.21957499717155E-16,0.));
#1088=DIRECTION('',(0.,0.,1.));
#1089=DIRECTION('',(1.,0.,0.));
#1090=DIRECTION('',(0.,1.,0.));
#1091=DIRECTION('',(0.,0.,1.));
#1092=DIRECTION('',(1.,0.,0.));
#1093=DIRECTION('',(-1.,-1.95131999547447E-16,0.));
#1094=DIRECTION('',(0.,0.,1.));
#1095=DIRECTION('',(1.,0.,0.));
#1096=DIRECTION('',(-1.,0.,0.));
#1097=DIRECTION('',(0.,1.,0.));
#1098=DIRECTION('',(1.,0.,0.));
#1099=DIRECTION('',(0.,1.,0.));
#1100=DIRECTION('',(-1.,0.,0.));
#1101=DIRECTION('',(0.,1.,0.));
#1102=DIRECTION('',(1.,0.,0.));
#1103=DIRECTION('',(0.,1.,0.));
#1104=DIRECTION('',(0.,0.,1.));
#1105=DIRECTION('',(1.,0.,0.));
#1106=DIRECTION('',(1.,0.,0.));
#1107=DIRECTION('',(0.,1.,0.));
#1108=DIRECTION('',(-1.,0.,0.));
#1109=DIRECTION('',(0.,1.,0.));
#1110=DIRECTION('',(1.,0.,0.));
#1111=DIRECTION('',(0.,1.,0.));
#1112=DIRECTION('',(-1.,0.,0.));
#1113=DIRECTION('',(0.,1.,0.));
#1114=DIRECTION('',(1.,0.,0.));
#1115=DIRECTION('',(0.,0.,-1.));
#1116=DIRECTION('',(0.,0.,-1.));
#1117=DIRECTION('',(0.,1.,0.));
#1118=DIRECTION('',(0.,0.,1.));
#1119=DIRECTION('',(0.,1.,0.));
#1120=DIRECTION('',(-1.,0.,0.));
#1121=DIRECTION('',(0.,0.,1.));
#1122=DIRECTION('',(0.,0.,1.));
#1123=DIRECTION('',(0.,1.,0.));
#1124=DIRECTION('',(0.,0.,-1.));
#1125=DIRECTION('',(0.,1.,0.));
#1126=DIRECTION('',(0.,1.,0.));
#1127=DIRECTION('',(0.,0.,1.));
#1128=DIRECTION('',(0.,-1.,0.));
#1129=DIRECTION('',(0.,0.,-1.));
#1130=DIRECTION('',(0.,1.,0.));
#1131=DIRECTION('',(0.,0.,1.));
#1132=DIRECTION('',(0.,1.,0.));
#1133=DIRECTION('',(0.,0.,1.));
#1134=DIRECTION('',(0.,-1.,0.));
#1135=DIRECTION('',(0.,0.,-1.));
#1136=DIRECTION('',(0.,1.,0.));
#1137=DIRECTION('',(0.,0.,1.));
#1138=DIRECTION('',(0.,1.,0.));
#1139=DIRECTION('',(0.,0.,1.));
#1140=DIRECTION('',(0.,-1.,0.));
#1141=DIRECTION('',(0.,0.,-1.));
#1142=DIRECTION('',(0.,1.,0.));
#1143=DIRECTION('',(0.,0.,1.));
#1144=DIRECTION('',(0.,1.,0.));
#1145=DIRECTION('',(0.,0.,1.));
#1146=DIRECTION('',(0.,-1.,0.));
#1147=DIRECTION('',(0.,0.,-1.));
#1148=DIRECTION('',(0.,1.,0.));
#1149=DIRECTION('',(0.,0.,1.));
#1150=DIRECTION('',(0.,0.,1.));
#1151=DIRECTION('',(1.,0.,0.));
#1152=DIRECTION('',(0.,-1.,0.));
#1153=DIRECTION('',(-1.,0.,0.));
#1154=DIRECTION('',(0.,-1.,0.));
#1155=DIRECTION('',(-1.,0.,0.));
#1156=DIRECTION('',(0.,-1.,0.));
#1157=DIRECTION('',(1.,0.,0.));
#1158=DIRECTION('',(0.,-1.,0.));
#1159=DIRECTION('',(-1.,0.,0.));
#1160=DIRECTION('',(-1.,-1.21957499717155E-16,0.));
#1161=DIRECTION('',(0.,0.,1.));
#1162=DIRECTION('',(1.,0.,0.));
#1163=DIRECTION('',(0.,1.,0.));
#1164=DIRECTION('',(0.,0.,1.));
#1165=DIRECTION('',(1.,0.,0.));
#1166=DIRECTION('',(-1.,-1.95131999547447E-16,0.));
#1167=DIRECTION('',(0.,0.,1.));
#1168=DIRECTION('',(1.,0.,0.));
#1169=DIRECTION('',(0.,1.,0.));
#1170=DIRECTION('',(0.,0.,1.));
#1171=DIRECTION('',(1.,0.,0.));
#1172=DIRECTION('',(0.,-1.,0.));
#1173=DIRECTION('',(0.,0.,-1.));
#1174=DIRECTION('',(0.,-1.,0.));
#1175=DIRECTION('',(0.,-1.,0.));
#1176=DIRECTION('',(0.,0.,-1.));
#1177=DIRECTION('',(0.,1.,0.));
#1178=DIRECTION('',(0.,0.,1.));
#1179=DIRECTION('',(0.,-1.,0.));
#1180=DIRECTION('',(0.,0.,-1.));
#1181=DIRECTION('',(0.,-1.,0.));
#1182=DIRECTION('',(0.,0.,-1.));
#1183=DIRECTION('',(0.,-1.,0.));
#1184=DIRECTION('',(0.,1.,0.));
#1185=DIRECTION('',(0.,0.,1.));
#1186=DIRECTION('',(0.,-1.,0.));
#1187=DIRECTION('',(0.,0.,-1.));
#1188=DIRECTION('',(0.,-1.,0.));
#1189=DIRECTION('',(0.,0.,-1.));
#1190=DIRECTION('',(0.,1.,0.));
#1191=DIRECTION('',(0.,0.,1.));
#1192=DIRECTION('',(0.,-1.,0.));
#1193=DIRECTION('',(0.,0.,-1.));
#1194=DIRECTION('',(0.,-1.,0.));
#1195=DIRECTION('',(0.,0.,-1.));
#1196=DIRECTION('',(0.,1.,0.));
#1197=DIRECTION('',(0.,0.,1.));
#1198=DIRECTION('',(0.,0.,-1.));
#1199=DIRECTION('',(-1.,0.,0.));
#1200=DIRECTION('',(1.,0.,0.));
#1201=DIRECTION('',(0.,-1.,0.));
#1202=DIRECTION('',(1.,0.,0.));
#1203=DIRECTION('',(0.,-1.,0.));
#1204=DIRECTION('',(1.,0.,0.));
#1205=DIRECTION('',(-1.,0.,0.));
#1206=DIRECTION('',(1.,0.,0.));
#1207=DIRECTION('',(0.,0.,-1.));
#1208=DIRECTION('',(0.,1.,0.));
#1209=DIRECTION('',(0.,0.,1.));
#1210=DIRECTION('',(0.,0.,-1.));
#1211=DIRECTION('',(0.,1.,0.));
#1212=DIRECTION('',(0.,0.,1.));
#1213=DIRECTION('',(0.,1.,0.));
#1214=DIRECTION('',(0.,0.,1.));
#1215=DIRECTION('',(0.,-1.,0.));
#1216=DIRECTION('',(0.,0.,1.));
#1217=DIRECTION('',(0.,1.,0.));
#1218=DIRECTION('',(0.,1.,0.));
#1219=DIRECTION('',(0.,0.,1.));
#1220=DIRECTION('',(0.,1.,0.));
#1221=DIRECTION('',(0.,0.,1.));
#1222=DIRECTION('',(0.,1.,0.));
#1223=DIRECTION('',(0.,0.,1.));
#1224=DIRECTION('',(-1.,0.,0.));
#1225=DIRECTION('',(0.,0.,1.));
#1226=DIRECTION('',(0.,0.,-1.));
#1227=DIRECTION('',(0.,0.,1.));
#1228=DIRECTION('',(1.,0.,0.));
#1229=DIRECTION('',(0.,0.,-1.));
#1230=DIRECTION('',(0.,0.,1.));
#1231=DIRECTION('',(0.,0.,-1.));
#1232=DIRECTION('',(0.,1.,0.));
#1233=DIRECTION('',(0.,1.,0.));
#1234=DIRECTION('',(0.,0.,1.));
#1235=DIRECTION('',(0.,1.,0.));
#1236=DIRECTION('',(0.,1.,0.));
#1237=DIRECTION('',(0.,0.,1.));
#1238=DIRECTION('',(0.,1.,0.));
#1239=DIRECTION('',(0.,0.,1.));
#1240=DIRECTION('',(-1.,0.,0.));
#1241=DIRECTION('',(0.,0.,1.));
#1242=DIRECTION('',(0.,0.,-1.));
#1243=DIRECTION('',(0.,0.,1.));
#1244=DIRECTION('',(0.,1.,0.));
#1245=DIRECTION('',(0.,0.,1.));
#1246=DIRECTION('',(0.,1.,0.));
#1247=DIRECTION('',(0.,0.,1.));
#1248=DIRECTION('',(0.,1.,0.));
#1249=DIRECTION('',(0.,0.,1.));
#1250=DIRECTION('',(-1.21957499717155E-16,1.,0.));
#1251=DIRECTION('',(-1.,-1.21957499717155E-16,0.));
#1252=DIRECTION('',(0.,0.,1.));
#1253=DIRECTION('',(0.,0.,1.));
#1254=DIRECTION('',(1.,0.,0.));
#1255=DIRECTION('',(0.,0.,-1.));
#1256=DIRECTION('',(0.,0.,1.));
#1257=DIRECTION('',(0.,0.,1.));
#1258=DIRECTION('',(-1.95131999547447E-16,1.,0.));
#1259=DIRECTION('',(-1.,-1.95131999547447E-16,0.));
#1260=DIRECTION('',(0.,0.,1.));
#1261=DIRECTION('',(0.,0.,1.));
#1262=DIRECTION('',(1.,0.,0.));
#1263=DIRECTION('',(0.,0.,-1.));
#1264=DIRECTION('',(0.,0.,1.));
#1265=DIRECTION('',(0.,0.,1.));
#1266=DIRECTION('',(0.,0.,1.));
#1267=DIRECTION('',(1.,0.,0.));
#1268=DIRECTION('',(0.,0.,-1.));
#1269=DIRECTION('',(-1.,0.,0.));
#1270=DIRECTION('',(0.,0.,-1.));
#1271=DIRECTION('',(-1.,0.,0.));
#1272=DIRECTION('',(0.,0.,1.));
#1273=DIRECTION('',(1.,0.,0.));
#1274=DIRECTION('',(0.,1.,0.));
#1275=DIRECTION('',(1.,0.,0.));
#1276=DIRECTION('',(0.,1.,0.));
#1277=DIRECTION('',(-1.,0.,0.));
#1278=DIRECTION('',(0.,0.,-1.));
#1279=DIRECTION('',(1.,0.,0.));
#1280=DIRECTION('',(0.,0.,-1.));
#1281=DIRECTION('',(-1.,0.,0.));
#1282=DIRECTION('',(0.,0.,1.));
#1283=DIRECTION('',(0.,-1.,0.));
#1284=DIRECTION('',(0.,0.,-1.));
#1285=DIRECTION('',(0.,0.,-1.));
#1286=DIRECTION('',(-1.,0.,0.));
#1287=DIRECTION('',(0.,-1.,0.));
#1288=DIRECTION('',(-1.,0.,0.));
#1289=DIRECTION('',(-1.,0.,0.));
#1290=DIRECTION('',(-1.,0.,0.));
#1291=DIRECTION('',(-1.,0.,0.));
#1292=DIRECTION('',(0.,0.,1.));
#1293=DIRECTION('',(0.,0.,-1.));
#1294=DIRECTION('',(0.,0.,-1.));
#1295=DIRECTION('',(-1.,0.,0.));
#1296=DIRECTION('',(0.,-1.,0.));
#1297=DIRECTION('',(1.,0.,0.));
#1298=DIRECTION('',(0.,-1.,0.));
#1299=DIRECTION('',(-1.,0.,0.));
#1300=DIRECTION('',(-1.,0.,0.));
#1301=DIRECTION('',(-1.,0.,0.));
#1302=DIRECTION('',(-1.,0.,-1.83529779515108E-16));
#1303=DIRECTION('',(-1.83529779515108E-16,0.,1.));
#1304=DIRECTION('',(1.83529779515108E-16,0.,-1.));
#1305=DIRECTION('',(1.83529779515108E-16,0.,-1.));
#1306=DIRECTION('',(0.,-1.,0.));
#1307=DIRECTION('',(1.,0.,0.));
#1308=DIRECTION('',(0.,-1.,0.));
#1309=DIRECTION('',(1.,0.,0.));
#1310=DIRECTION('',(0.,-1.,0.));
#1311=DIRECTION('',(1.,0.,0.));
#1312=DIRECTION('',(0.,-1.,0.));
#1313=DIRECTION('',(1.,0.,0.));
#1314=DIRECTION('',(0.,0.,-1.));
#1315=DIRECTION('',(-1.,0.,0.));
#1316=DIRECTION('',(0.,0.,1.));
#1317=DIRECTION('',(0.,0.,-1.));
#1318=DIRECTION('',(0.,1.,0.));
#1319=DIRECTION('',(-1.,0.,0.));
#1320=DIRECTION('',(0.,1.,0.));
#1321=DIRECTION('',(-1.,0.,0.));
#1322=DIRECTION('',(0.,-1.,0.));
#1323=DIRECTION('',(1.,0.,0.));
#1324=DIRECTION('',(0.,1.,0.));
#1325=DIRECTION('',(1.,0.,0.));
#1326=DIRECTION('',(0.,-1.,0.));
#1327=DIRECTION('',(1.,0.,0.));
#1328=CARTESIAN_POINT('',(0.,0.,0.));
#1329=CARTESIAN_POINT('',(0.012754,0.010802,0.));
#1330=CARTESIAN_POINT('',(0.012754,2.E-6,0.));
#1331=CARTESIAN_POINT('',(0.012754,0.000254,0.));
#1332=CARTESIAN_POINT('',(0.012754,-0.000468,0.));
#1333=CARTESIAN_POINT('',(0.012754,0.000254,0.));
#1334=CARTESIAN_POINT('',(0.012754,0.000254,0.003302));
#1335=CARTESIAN_POINT('',(0.012754,2.E-6,0.003302));
#1336=CARTESIAN_POINT('',(0.012754,-0.000468,0.003302));
#1337=CARTESIAN_POINT('',(0.012754,-0.000468,0.));
#1338=CARTESIAN_POINT('',(0.012754,-0.000468,0.011));
#1339=CARTESIAN_POINT('',(0.012754,0.010802,0.011));
#1340=CARTESIAN_POINT('',(0.012754,0.0085,0.011));
#1341=CARTESIAN_POINT('',(0.012754,0.0085,0.));
#1342=CARTESIAN_POINT('',(0.012754,0.0085,-0.011));
#1343=CARTESIAN_POINT('',(0.012754,0.010802,-0.011));
#1344=CARTESIAN_POINT('',(0.012754,-0.000468,-0.011));
#1345=CARTESIAN_POINT('',(0.012754,-0.000468,0.));
#1346=CARTESIAN_POINT('',(-0.012754,0.010802,0.));
#1347=CARTESIAN_POINT('',(-0.012754,2.E-6,0.003302));
#1348=CARTESIAN_POINT('',(-0.012754,0.000254,0.003302));
#1349=CARTESIAN_POINT('',(-0.012754,-0.000468,0.003302));
#1350=CARTESIAN_POINT('',(-0.012754,0.000254,0.));
#1351=CARTESIAN_POINT('',(-0.012754,0.000254,0.));
#1352=CARTESIAN_POINT('',(-0.012754,2.E-6,0.));
#1353=CARTESIAN_POINT('',(-0.012754,-0.000468,0.));
#1354=CARTESIAN_POINT('',(-0.012754,-0.000468,0.));
#1355=CARTESIAN_POINT('',(-0.012754,-0.000468,-0.011));
#1356=CARTESIAN_POINT('',(-0.012754,0.010802,-0.011));
#1357=CARTESIAN_POINT('',(-0.012754,0.0085,-0.011));
#1358=CARTESIAN_POINT('',(-0.012754,0.0085,0.));
#1359=CARTESIAN_POINT('',(-0.012754,0.0085,0.011));
#1360=CARTESIAN_POINT('',(-0.012754,0.010802,0.011));
#1361=CARTESIAN_POINT('',(-0.012754,-0.000468,0.011));
#1362=CARTESIAN_POINT('',(-0.012754,-0.000468,0.));
#1363=CARTESIAN_POINT('',(0.,-0.00377,0.014659));
#1364=CARTESIAN_POINT('',(0.004445,0.002825,0.014659));
#1365=CARTESIAN_POINT('',(0.004445,0.00120481536726415,0.014659));
#1366=CARTESIAN_POINT('',(0.004445,0.00444518463273585,0.014659));
#1367=CARTESIAN_POINT('',(0.00352518463273585,0.00120481536726415,0.014659));
#1368=CARTESIAN_POINT('',(0.00352518463273585,0.000285,0.014659));
#1369=CARTESIAN_POINT('',(0.,0.000285,0.014659));
#1370=CARTESIAN_POINT('',(-0.00352518463273585,0.000285,0.014659));
#1371=CARTESIAN_POINT('',(-0.00352518463273585,0.00120481536726415,0.014659));
#1372=CARTESIAN_POINT('',(-0.004445,0.00120481536726415,0.014659));
#1373=CARTESIAN_POINT('',(-0.004445,0.002825,0.014659));
#1374=CARTESIAN_POINT('',(-0.004445,0.00444518463273585,0.014659));
#1375=CARTESIAN_POINT('',(-0.00352518463273585,0.00444518463273585,0.014659));
#1376=CARTESIAN_POINT('',(-0.00352518463273585,0.005365,0.014659));
#1377=CARTESIAN_POINT('',(0.,0.005365,0.014659));
#1378=CARTESIAN_POINT('',(0.00352518463273585,0.005365,0.014659));
#1379=CARTESIAN_POINT('',(0.00352518463273585,0.00444518463273585,0.014659));
#1380=CARTESIAN_POINT('',(0.,-0.002627,0.014659));
#1381=CARTESIAN_POINT('',(0.011,-0.002627,0.014659));
#1382=CARTESIAN_POINT('',(-0.011,-0.002627,0.014659));
#1383=CARTESIAN_POINT('',(0.011,-0.00377,0.014659));
#1384=CARTESIAN_POINT('',(0.011,0.0085,0.014659));
#1385=CARTESIAN_POINT('',(0.,0.0085,0.014659));
#1386=CARTESIAN_POINT('',(0.003429,0.0085,0.014659));
#1387=CARTESIAN_POINT('',(0.003429,0.00826,0.014659));
#1388=CARTESIAN_POINT('',(0.003429,0.00699,0.014659));
#1389=CARTESIAN_POINT('',(0.,0.00699,0.014659));
#1390=CARTESIAN_POINT('',(-0.003429,0.00699,0.014659));
#1391=CARTESIAN_POINT('',(-0.003429,0.00826,0.014659));
#1392=CARTESIAN_POINT('',(-0.003429,0.0085,0.014659));
#1393=CARTESIAN_POINT('',(0.,0.0085,0.014659));
#1394=CARTESIAN_POINT('',(-0.011,0.0085,0.014659));
#1395=CARTESIAN_POINT('',(-0.011,-0.00377,0.014659));
#1396=CARTESIAN_POINT('',(0.,-0.00377,-0.014659));
#1397=CARTESIAN_POINT('',(0.,-0.002627,-0.014659));
#1398=CARTESIAN_POINT('',(-0.011,-0.002627,-0.014659));
#1399=CARTESIAN_POINT('',(0.011,-0.002627,-0.014659));
#1400=CARTESIAN_POINT('',(-0.011,-0.00377,-0.014659));
#1401=CARTESIAN_POINT('',(-0.011,0.0085,-0.014659));
#1402=CARTESIAN_POINT('',(0.,0.0085,-0.014659));
#1403=CARTESIAN_POINT('',(-0.003429,0.0085,-0.014659));
#1404=CARTESIAN_POINT('',(-0.003429,0.00826,-0.014659));
#1405=CARTESIAN_POINT('',(-0.003429,0.00699,-0.014659));
#1406=CARTESIAN_POINT('',(0.,0.00699,-0.014659));
#1407=CARTESIAN_POINT('',(0.003429,0.00699,-0.014659));
#1408=CARTESIAN_POINT('',(0.003429,0.00826,-0.014659));
#1409=CARTESIAN_POINT('',(0.003429,0.0085,-0.014659));
#1410=CARTESIAN_POINT('',(0.,0.0085,-0.014659));
#1411=CARTESIAN_POINT('',(0.011,0.0085,-0.014659));
#1412=CARTESIAN_POINT('',(0.011,-0.00377,-0.014659));
#1413=CARTESIAN_POINT('',(-0.014659,-0.00377,0.));
#1414=CARTESIAN_POINT('',(-0.014659,-0.002627,0.));
#1415=CARTESIAN_POINT('',(-0.014659,-0.002627,0.011));
#1416=CARTESIAN_POINT('',(-0.014659,-0.002627,-0.011));
#1417=CARTESIAN_POINT('',(-0.014659,-0.00377,0.011));
#1418=CARTESIAN_POINT('',(-0.014659,0.0085,0.011));
#1419=CARTESIAN_POINT('',(-0.014659,0.0085,0.));
#1420=CARTESIAN_POINT('',(-0.014659,0.0085,-0.011));
#1421=CARTESIAN_POINT('',(-0.014659,-0.00377,-0.011));
#1422=CARTESIAN_POINT('',(0.014659,-0.00377,0.));
#1423=CARTESIAN_POINT('',(0.014659,-0.002627,0.));
#1424=CARTESIAN_POINT('',(0.014659,-0.002627,-0.011));
#1425=CARTESIAN_POINT('',(0.014659,-0.002627,0.011));
#1426=CARTESIAN_POINT('',(0.014659,-0.00377,-0.011));
#1427=CARTESIAN_POINT('',(0.014659,0.0085,-0.011));
#1428=CARTESIAN_POINT('',(0.014659,0.0085,0.));
#1429=CARTESIAN_POINT('',(0.014659,0.0085,0.011));
#1430=CARTESIAN_POINT('',(0.014659,-0.00377,0.011));
#1431=CARTESIAN_POINT('',(0.011,-0.00377,0.011));
#1432=CARTESIAN_POINT('',(0.011,-0.002627,0.011));
#1433=CARTESIAN_POINT('',(0.011,0.0085,0.011));
#1434=CARTESIAN_POINT('',(-0.011,-0.00377,0.011));
#1435=CARTESIAN_POINT('',(-0.011,-0.002627,0.011));
#1436=CARTESIAN_POINT('',(-0.011,0.0085,0.011));
#1437=CARTESIAN_POINT('',(-0.011,-0.00377,-0.011));
#1438=CARTESIAN_POINT('',(-0.011,-0.002627,-0.011));
#1439=CARTESIAN_POINT('',(-0.011,0.0085,-0.011));
#1440=CARTESIAN_POINT('',(0.011,-0.00377,-0.011));
#1441=CARTESIAN_POINT('',(0.011,-0.002627,-0.011));
#1442=CARTESIAN_POINT('',(0.011,0.0085,-0.011));
#1443=CARTESIAN_POINT('',(0.,0.010802,0.012754));
#1444=CARTESIAN_POINT('',(0.00711486026358604,-0.000468,0.012754));
#1445=CARTESIAN_POINT('',(0.00711486026358604,-0.000468,0.012754));
#1446=CARTESIAN_POINT('',(0.00711486026358604,-0.001992,0.012754));
#1447=CARTESIAN_POINT('',(0.,-0.001992,0.012754));
#1448=CARTESIAN_POINT('',(-0.00711486026358605,-0.001992,0.012754));
#1449=CARTESIAN_POINT('',(-0.00711486026358605,-0.000468,0.012754));
#1450=CARTESIAN_POINT('',(-0.00711486026358605,-0.000468,0.012754));
#1451=CARTESIAN_POINT('',(0.,-0.000468,0.012754));
#1452=CARTESIAN_POINT('',(-0.011,-0.000468,0.012754));
#1453=CARTESIAN_POINT('',(-0.011,0.010802,0.012754));
#1454=CARTESIAN_POINT('',(-0.011,0.0085,0.012754));
#1455=CARTESIAN_POINT('',(0.,0.0085,0.012754));
#1456=CARTESIAN_POINT('',(0.011,0.0085,0.012754));
#1457=CARTESIAN_POINT('',(0.011,0.010802,0.012754));
#1458=CARTESIAN_POINT('',(0.011,-0.000468,0.012754));
#1459=CARTESIAN_POINT('',(0.,-0.000468,0.012754));
#1460=CARTESIAN_POINT('',(1.28262702452531E-18,0.000285,0.012754));
#1461=CARTESIAN_POINT('',(0.00352518463273585,0.000285,0.012754));
#1462=CARTESIAN_POINT('',(-0.00352518463273585,0.000285,0.012754));
#1463=CARTESIAN_POINT('',(0.00352518463273585,0.00120481536726415,0.012754));
#1464=CARTESIAN_POINT('',(0.004445,0.00120481536726415,0.012754));
#1465=CARTESIAN_POINT('',(0.004445,0.010802,0.012754));
#1466=CARTESIAN_POINT('',(0.004445,0.00444518463273585,0.012754));
#1467=CARTESIAN_POINT('',(0.00352518463273585,0.00444518463273585,0.012754));
#1468=CARTESIAN_POINT('',(0.00352518463273585,0.005365,0.012754));
#1469=CARTESIAN_POINT('',(1.06093268153947E-18,0.005365,0.012754));
#1470=CARTESIAN_POINT('',(-0.00352518463273585,0.005365,0.012754));
#1471=CARTESIAN_POINT('',(-0.00352518463273585,0.00444518463273585,0.012754));
#1472=CARTESIAN_POINT('',(-0.004445,0.00444518463273585,0.012754));
#1473=CARTESIAN_POINT('',(-0.004445,0.010802,0.012754));
#1474=CARTESIAN_POINT('',(-0.004445,0.00120481536726415,0.012754));
#1475=CARTESIAN_POINT('',(-0.00352518463273585,0.00120481536726415,0.012754));
#1476=CARTESIAN_POINT('',(0.011,0.010802,-0.011));
#1477=CARTESIAN_POINT('',(0.011,0.010802,-0.012754));
#1478=CARTESIAN_POINT('',(0.011,0.0085,-0.012754));
#1479=CARTESIAN_POINT('',(0.011,-0.000468,-0.012754));
#1480=CARTESIAN_POINT('',(0.011,-0.000468,-0.011));
#1481=CARTESIAN_POINT('',(0.011,0.0085,-0.011));
#1482=CARTESIAN_POINT('',(-0.011,0.010802,-0.011));
#1483=CARTESIAN_POINT('',(-0.011,-0.000468,-0.011));
#1484=CARTESIAN_POINT('',(-0.011,-0.000468,-0.012754));
#1485=CARTESIAN_POINT('',(-0.011,0.010802,-0.012754));
#1486=CARTESIAN_POINT('',(-0.011,0.0085,-0.012754));
#1487=CARTESIAN_POINT('',(-0.011,0.0085,-0.011));
#1488=CARTESIAN_POINT('',(0.011,0.010802,0.011));
#1489=CARTESIAN_POINT('',(0.011,-0.000468,0.011));
#1490=CARTESIAN_POINT('',(0.011,0.0085,0.011));
#1491=CARTESIAN_POINT('',(-0.011,0.010802,0.011));
#1492=CARTESIAN_POINT('',(-0.011,-0.000468,0.011));
#1493=CARTESIAN_POINT('',(-0.011,0.0085,0.011));
#1494=CARTESIAN_POINT('',(0.,0.010802,-0.012754));
#1495=CARTESIAN_POINT('',(0.,-0.000468,-0.012754));
#1496=CARTESIAN_POINT('',(-0.00889286026358604,-0.000468,-0.012754));
#1497=CARTESIAN_POINT('',(-0.00889286026358604,-0.000468,-0.012754));
#1498=CARTESIAN_POINT('',(-0.00889286026358604,-0.0018,-0.012754));
#1499=CARTESIAN_POINT('',(0.,-0.0018,-0.012754));
#1500=CARTESIAN_POINT('',(0.00889286026358604,-0.0018,-0.012754));
#1501=CARTESIAN_POINT('',(0.00889286026358604,-0.000468,-0.012754));
#1502=CARTESIAN_POINT('',(0.00889286026358604,-0.000468,-0.012754));
#1503=CARTESIAN_POINT('',(0.,-0.000468,-0.012754));
#1504=CARTESIAN_POINT('',(0.,0.0085,-0.012754));
#1505=CARTESIAN_POINT('',(0.003429,0.00826,-0.0159106503231526));
#1506=CARTESIAN_POINT('',(0.003429,0.00826,-0.0171623006463051));
#1507=CARTESIAN_POINT('',(0.003429,0.00699,-0.0171623006463051));
#1508=CARTESIAN_POINT('',(0.003429,0.0085,-0.0171623006463051));
#1509=CARTESIAN_POINT('',(0.003429,0.0085,-0.0159106503231526));
#1510=CARTESIAN_POINT('',(0.003429,0.00699,-0.0159106503231526));
#1511=CARTESIAN_POINT('',(0.,0.00826,-0.0171623006463051));
#1512=CARTESIAN_POINT('',(0.,0.0085,-0.0171623006463051));
#1513=CARTESIAN_POINT('',(-0.003429,0.0085,-0.0171623006463051));
#1514=CARTESIAN_POINT('',(0.,0.00699,-0.0171623006463051));
#1515=CARTESIAN_POINT('',(-0.003429,0.00699,-0.0171623006463051));
#1516=CARTESIAN_POINT('',(-0.003429,0.00826,-0.0171623006463051));
#1517=CARTESIAN_POINT('',(0.,0.00826,-0.0171623006463051));
#1518=CARTESIAN_POINT('',(0.,0.0085,-0.0171623006463051));
#1519=CARTESIAN_POINT('',(0.,0.0085,-0.0156383006463051));
#1520=CARTESIAN_POINT('',(0.,0.00699,-0.0171623006463051));
#1521=CARTESIAN_POINT('',(0.,0.00699,-0.0156383006463051));
#1522=CARTESIAN_POINT('',(-0.003429,0.00826,-0.0159106503231526));
#1523=CARTESIAN_POINT('',(-0.003429,0.0085,-0.0159106503231526));
#1524=CARTESIAN_POINT('',(-0.003429,0.00699,-0.0159106503231526));
#1525=CARTESIAN_POINT('',(-0.003429,0.00826,0.0159106503231526));
#1526=CARTESIAN_POINT('',(-0.003429,0.0085,0.0159106503231526));
#1527=CARTESIAN_POINT('',(-0.003429,0.0085,0.0171623006463051));
#1528=CARTESIAN_POINT('',(-0.003429,0.00699,0.0159106503231526));
#1529=CARTESIAN_POINT('',(-0.003429,0.00699,0.0171623006463051));
#1530=CARTESIAN_POINT('',(-0.003429,0.00826,0.0171623006463051));
#1531=CARTESIAN_POINT('',(0.,0.00826,0.0171623006463051));
#1532=CARTESIAN_POINT('',(0.003429,0.00826,0.0171623006463051));
#1533=CARTESIAN_POINT('',(0.003429,0.00699,0.0171623006463051));
#1534=CARTESIAN_POINT('',(0.003429,0.0085,0.0171623006463051));
#1535=CARTESIAN_POINT('',(0.,0.0085,0.0171623006463051));
#1536=CARTESIAN_POINT('',(0.,0.00699,0.0171623006463051));
#1537=CARTESIAN_POINT('',(0.003429,0.00826,0.0159106503231526));
#1538=CARTESIAN_POINT('',(0.003429,0.0085,0.0159106503231526));
#1539=CARTESIAN_POINT('',(0.003429,0.00699,0.0159106503231526));
#1540=CARTESIAN_POINT('',(0.,0.00826,0.0171623006463051));
#1541=CARTESIAN_POINT('',(0.,0.0085,0.0171623006463051));
#1542=CARTESIAN_POINT('',(0.,0.0085,0.0186863006463051));
#1543=CARTESIAN_POINT('',(0.,0.00699,0.0171623006463051));
#1544=CARTESIAN_POINT('',(0.,0.00699,0.0186863006463051));
#1545=CARTESIAN_POINT('',(0.,0.000285,-0.010741));
#1546=CARTESIAN_POINT('',(0.00352518463273585,0.000285,-0.010741));
#1547=CARTESIAN_POINT('',(-0.00352518463273585,0.000285,0.014659));
#1548=CARTESIAN_POINT('',(0.004445,0.002825,-0.010741));
#1549=CARTESIAN_POINT('',(0.004445,0.00120481536726415,-0.010741));
#1550=CARTESIAN_POINT('',(0.004445,0.00444518463273585,0.012754));
#1551=CARTESIAN_POINT('',(0.,0.005365,-0.010741));
#1552=CARTESIAN_POINT('',(0.00352518463273585,0.005365,0.014659));
#1553=CARTESIAN_POINT('',(-0.00352518463273585,0.005365,-0.010741));
#1554=CARTESIAN_POINT('',(-0.004445,0.002825,-0.010741));
#1555=CARTESIAN_POINT('',(-0.004445,0.00120481536726415,0.012754));
#1556=CARTESIAN_POINT('',(-0.004445,0.00444518463273585,-0.010741));
#1557=CARTESIAN_POINT('',(0.00352518463273585,0.00120481536726415,-0.010741));
#1558=CARTESIAN_POINT('',(0.00352518463273585,0.00444518463273585,-0.010741));
#1559=CARTESIAN_POINT('',(-0.00352518463273585,0.00120481536726415,-0.010741));
#1560=CARTESIAN_POINT('',(-0.00352518463273585,0.00444518463273585,-0.010741));
#1561=CARTESIAN_POINT('',(0.,0.0085,0.00525));
#1562=CARTESIAN_POINT('',(0.,-0.0018,-0.0065));
#1563=CARTESIAN_POINT('',(-0.00889286026358604,-0.0018,-0.006377));
#1564=CARTESIAN_POINT('',(-0.00889286026358604,-0.0018,0.));
#1565=CARTESIAN_POINT('',(0.00800386026358604,-0.0018,0.));
#1566=CARTESIAN_POINT('',(0.00889286026358604,-0.0018,0.));
#1567=CARTESIAN_POINT('',(0.00889286026358604,-0.0018,-0.006377));
#1568=CARTESIAN_POINT('',(0.00889286026358604,-0.000468,-0.006377));
#1569=CARTESIAN_POINT('',(0.00889286026358604,-0.000468,0.));
#1570=CARTESIAN_POINT('',(0.00889286026358604,-0.000468,0.));
#1571=CARTESIAN_POINT('',(0.00889286026358604,-0.000468,-0.006377));
#1572=CARTESIAN_POINT('',(0.00800386026358604,-0.000468,0.));
#1573=CARTESIAN_POINT('',(-0.00889286026358604,-0.000468,0.));
#1574=CARTESIAN_POINT('',(-0.00889286026358604,-0.000468,0.));
#1575=CARTESIAN_POINT('',(0.,-0.000468,0.));
#1576=CARTESIAN_POINT('',(0.,0.000254,0.));
#1577=CARTESIAN_POINT('',(0.,-0.000468,0.));
#1578=CARTESIAN_POINT('',(-0.00889286026358604,-0.000468,-0.006377));
#1579=CARTESIAN_POINT('',(-0.00889286026358604,-0.000468,-0.006377));
#1580=CARTESIAN_POINT('',(-3.46944695195361E-18,-0.000468,0.003302));
#1581=CARTESIAN_POINT('',(-0.00711486026358604,-0.000468,0.003302));
#1582=CARTESIAN_POINT('',(-0.00711486026358604,-0.000468,0.003302));
#1583=CARTESIAN_POINT('',(-0.00711486026358604,-0.001992,0.003302));
#1584=CARTESIAN_POINT('',(-3.46944695195361E-18,-0.001992,0.003302));
#1585=CARTESIAN_POINT('',(0.00711486026358604,-0.001992,0.003302));
#1586=CARTESIAN_POINT('',(0.00711486026358604,-0.000468,0.003302));
#1587=CARTESIAN_POINT('',(0.00711486026358604,-0.000468,0.003302));
#1588=CARTESIAN_POINT('',(0.,-0.000468,0.003302));
#1589=CARTESIAN_POINT('',(0.,0.000254,0.003302));
#1590=CARTESIAN_POINT('',(0.,-0.000468,0.003302));
#1591=CARTESIAN_POINT('',(0.00711486026358604,-0.000468,0.008028));
#1592=CARTESIAN_POINT('',(0.00711486026358604,-0.001992,0.008028));
#1593=CARTESIAN_POINT('',(0.00711486026358604,-0.000468,0.008028));
#1594=CARTESIAN_POINT('',(0.,-0.000468,0.));
#1595=CARTESIAN_POINT('',(0.,-0.000468,0.));
#1596=CARTESIAN_POINT('',(0.,-0.000468,0.));
#1597=CARTESIAN_POINT('',(0.,-0.000468,0.));
#1598=CARTESIAN_POINT('',(-0.00711486026358605,-0.000468,0.008028));
#1599=CARTESIAN_POINT('',(-0.00711486026358605,-0.000468,0.008028));
#1600=CARTESIAN_POINT('',(-0.00711486026358605,-0.001992,0.008028));
#1601=CARTESIAN_POINT('',(0.,0.00699,0.));
#1602=CARTESIAN_POINT('',(0.,0.00699,0.));
#1603=CARTESIAN_POINT('',(0.,-0.002627,0.));
#1604=CARTESIAN_POINT('',(0.,0.000254,0.));
#1605=CARTESIAN_POINT('',(0.,-0.001992,0.));
#1606=MECHANICAL_DESIGN_GEOMETRIC_PRESENTATION_REPRESENTATION('',(#967),
#1607);
#1607=(
GEOMETRIC_REPRESENTATION_CONTEXT(3)
GLOBAL_UNCERTAINTY_ASSIGNED_CONTEXT((#1608))
GLOBAL_UNIT_ASSIGNED_CONTEXT((#1611,#1610,#1609))
REPRESENTATION_CONTEXT('Part 3','TOP_LEVEL_ASSEMBLY_PART')
);
#1608=UNCERTAINTY_MEASURE_WITH_UNIT(LENGTH_MEASURE(1.E-8),#1611,
'DISTANCE_ACCURACY_VALUE','Maximum Tolerance applied to model');
#1609=(
NAMED_UNIT(*)
SI_UNIT($,.STERADIAN.)
SOLID_ANGLE_UNIT()
);
#1610=(
NAMED_UNIT(*)
PLANE_ANGLE_UNIT()
SI_UNIT($,.RADIAN.)
);
#1611=(
LENGTH_UNIT()
NAMED_UNIT(*)
SI_UNIT($,.METRE.)
);
#1612=PRODUCT_DEFINITION_SHAPE('','',#1613);
#1613=PRODUCT_DEFINITION('','',#1615,#1614);
#1614=PRODUCT_DEFINITION_CONTEXT('',#1621,'design');
#1615=PRODUCT_DEFINITION_FORMATION_WITH_SPECIFIED_SOURCE('','',#1617,
 .NOT_KNOWN.);
#1616=PRODUCT_RELATED_PRODUCT_CATEGORY('','',(#1617));
#1617=PRODUCT('Part 3','Part 3','Part 3',(#1619));
#1618=PRODUCT_CATEGORY('','');
#1619=PRODUCT_CONTEXT('',#1621,'mechanical');
#1620=APPLICATION_PROTOCOL_DEFINITION('international standard',
'ap242_managed_model_based_3d_engineering',2020,#1621);
#1621=APPLICATION_CONTEXT('managed model based 3d engineering');
ENDSEC;
END-ISO-10303-21;
