ISO-10303-21;
HEADER;
/*Generated by software containing ST-Developer
 * from STEP Tools, Inc. (www.steptools.com) 
 */
/*OPTION: using custom renumber hook */
/*description */
/*implementation_level */
FILE_DESCRIPTION(('STEP AP242 Edition 2','STEP AP242 Edition 2''CAx-IF Rec.Pracs.---Representation and Presentation of Product Manufa
cturing Information (PMI)---4.0---2014-10-13','STEP AP242 Edition 2''CAx-IF Rec.Pracs.---Representation and Presentation of Product Manufa
cturing Information (PMI)---4.0---2014-10-13''CAx-IF Rec.Pracs.---3D Tessellated Geometry---0.4---2014-09-14','STEP AP242 Edition 2''CAx-IF Rec.Pracs.---Representation and Presentation of Product Manufa
cturing Information (PMI)---4.0---2014-10-13''CAx-IF Rec.Pracs.---3D Tessellated Geometry---0.4---2014-09-14''2;1','STEP AP242 Edition 2''CAx-IF Rec.Pracs.---Representation and Presentation of Product Manufa
cturing Information (PMI)---4.0---2014-10-13''CAx-IF Rec.Pracs.---3D Tessellated Geometry---0.4---2014-09-14''2;1''CAx-IF Rec.Pracs.---User Defined Attributes---1.5---2016-08-15'),'2;1');
/*name */
/*time_stamp */
/*author */
/*organization */
/*preprocessor_version */
/*originating_system */
/*authorisation */
FILE_NAME('/vol/tmp/translate-4484995117034381847/3 parts - Part 6.step','2026-03-10T17:34:28',(''),(''),'ST-DEVELOPER v20','ONSHAPE BY PTC INC, 1.211','  ');
FILE_SCHEMA(('AP242_MANAGED_MODEL_BASED_3D_ENGINEERING_MIM_LF { 1 0 10303 442 3 1 4 }'));
ENDSEC;
DATA;
#10=SHAPE_REPRESENTATION_RELATIONSHIP('','',#643,#11);
#11=ADVANCED_BREP_SHAPE_REPRESENTATION('',(#641),#1143);
#12=TOROIDAL_SURFACE('',#691,0.00139522584858302,0.000128774151416981);
#13=TOROIDAL_SURFACE('',#693,0.00282076712627671,0.00055188922035849);
#14=TOROIDAL_SURFACE('',#698,0.00282076712627671,0.00055188922035849);
#15=TOROIDAL_SURFACE('',#701,0.0006546088,0.0005518912);
#16=TOROIDAL_SURFACE('',#722,0.00139522584858302,0.000128774151416981);
#17=TOROIDAL_SURFACE('',#724,0.00282076712627671,0.00055188922035849);
#18=TOROIDAL_SURFACE('',#729,0.00282076712627671,0.00055188922035849);
#19=TOROIDAL_SURFACE('',#732,0.0006546088,0.0005518912);
#20=B_SPLINE_CURVE_WITH_KNOTS('',3,(#1035,#1036,#1037,#1038,#1039),.UNSPECIFIED.,.F.,.F.,(4,1,4),(0.,0.000764068175471691,0.00152813635094338),.UNSPECIFIED.);
#21=B_SPLINE_CURVE_WITH_KNOTS('',3,(#1054,#1055,#1056,#1057,#1058),.UNSPECIFIED.,.F.,.F.,(4,1,4),(0.,0.000733184568451459,0.00146636913690292),.UNSPECIFIED.);
#22=B_SPLINE_CURVE_WITH_KNOTS('',3,(#1059,#1060,#1061,#1062,#1063),.UNSPECIFIED.,.F.,.F.,(4,1,4),(0.,0.00073318456845151,0.00146636913690302),.UNSPECIFIED.);
#23=B_SPLINE_CURVE_WITH_KNOTS('',3,(#1098,#1099,#1100,#1101,#1102),.UNSPECIFIED.,.F.,.F.,(4,1,4),(0.,0.000764068175471691,0.00152813635094338),.UNSPECIFIED.);
#24=B_SPLINE_CURVE_WITH_KNOTS('',3,(#1117,#1118,#1119,#1120,#1121),.UNSPECIFIED.,.F.,.F.,(4,1,4),(0.,0.000733184568451515,0.00146636913690303),.UNSPECIFIED.);
#25=B_SPLINE_CURVE_WITH_KNOTS('',3,(#1122,#1123,#1124,#1125,#1126),.UNSPECIFIED.,.F.,.F.,(4,1,4),(0.,0.000733184568451464,0.00146636913690293),.UNSPECIFIED.);
#26=CYLINDRICAL_SURFACE('',#664,0.00055188922035849);
#27=CYLINDRICAL_SURFACE('',#667,0.00055188922035849);
#28=CYLINDRICAL_SURFACE('',#676,0.0012065);
#29=CYLINDRICAL_SURFACE('',#678,0.00127);
#30=CYLINDRICAL_SURFACE('',#679,0.00127);
#31=CYLINDRICAL_SURFACE('',#680,0.0033726563466352);
#32=CYLINDRICAL_SURFACE('',#682,0.0033726563466352);
#33=CYLINDRICAL_SURFACE('',#684,0.001143);
#34=CYLINDRICAL_SURFACE('',#687,0.001524);
#35=CYLINDRICAL_SURFACE('',#695,0.00055188922035849);
#36=CYLINDRICAL_SURFACE('',#696,0.00055188922035849);
#37=CYLINDRICAL_SURFACE('',#707,0.0012065);
#38=CYLINDRICAL_SURFACE('',#709,0.00127);
#39=CYLINDRICAL_SURFACE('',#710,0.00127);
#40=CYLINDRICAL_SURFACE('',#711,0.0033726563466352);
#41=CYLINDRICAL_SURFACE('',#713,0.0033726563466352);
#42=CYLINDRICAL_SURFACE('',#715,0.001143);
#43=CYLINDRICAL_SURFACE('',#718,0.001524);
#44=CYLINDRICAL_SURFACE('',#726,0.00055188922035849);
#45=CYLINDRICAL_SURFACE('',#727,0.00055188922035849);
#46=CIRCLE('',#647,0.00127);
#47=CIRCLE('',#648,0.00127);
#48=CIRCLE('',#649,0.00282076712627671);
#49=CIRCLE('',#650,0.00282076712627671);
#50=CIRCLE('',#651,0.00282076712627671);
#51=CIRCLE('',#652,0.00282076712627671);
#52=CIRCLE('',#653,0.00127);
#53=CIRCLE('',#654,0.00127);
#54=CIRCLE('',#656,0.00127);
#55=CIRCLE('',#657,0.00127);
#56=CIRCLE('',#658,0.0033726563466352);
#57=CIRCLE('',#659,0.0033726563466352);
#58=CIRCLE('',#660,0.0033726563466352);
#59=CIRCLE('',#661,0.0033726563466352);
#60=CIRCLE('',#662,0.00127);
#61=CIRCLE('',#663,0.00127);
#62=CIRCLE('',#665,0.00055188922035849);
#63=CIRCLE('',#666,0.00055188922035849);
#64=CIRCLE('',#668,0.00055188922035849);
#65=CIRCLE('',#669,0.00055188922035849);
#66=CIRCLE('',#671,0.001524);
#67=CIRCLE('',#674,0.0012065);
#68=CIRCLE('',#675,0.001524);
#69=CIRCLE('',#677,0.0012065);
#70=CIRCLE('',#681,0.0033726563466352);
#71=CIRCLE('',#683,0.0033726563466352);
#72=CIRCLE('',#685,0.001143);
#73=CIRCLE('',#686,0.001143);
#74=CIRCLE('',#688,0.001524);
#75=CIRCLE('',#690,0.00139522584858302);
#76=CIRCLE('',#694,0.00055188922035849);
#77=CIRCLE('',#697,0.00055188922035849);
#78=CIRCLE('',#700,0.0006546088);
#79=CIRCLE('',#703,0.001524);
#80=CIRCLE('',#705,0.001524);
#81=CIRCLE('',#706,0.0012065);
#82=CIRCLE('',#708,0.0012065);
#83=CIRCLE('',#712,0.0033726563466352);
#84=CIRCLE('',#714,0.0033726563466352);
#85=CIRCLE('',#716,0.001143);
#86=CIRCLE('',#717,0.001143);
#87=CIRCLE('',#719,0.001524);
#88=CIRCLE('',#721,0.00139522584858302);
#89=CIRCLE('',#725,0.00055188922035849);
#90=CIRCLE('',#728,0.00055188922035849);
#91=CIRCLE('',#731,0.0006546088);
#92=ORIENTED_EDGE('',*,*,#252,.T.);
#93=ORIENTED_EDGE('',*,*,#253,.F.);
#94=ORIENTED_EDGE('',*,*,#254,.T.);
#95=ORIENTED_EDGE('',*,*,#255,.T.);
#96=ORIENTED_EDGE('',*,*,#256,.F.);
#97=ORIENTED_EDGE('',*,*,#257,.T.);
#98=ORIENTED_EDGE('',*,*,#258,.T.);
#99=ORIENTED_EDGE('',*,*,#259,.F.);
#100=ORIENTED_EDGE('',*,*,#260,.F.);
#101=ORIENTED_EDGE('',*,*,#261,.F.);
#102=ORIENTED_EDGE('',*,*,#262,.F.);
#103=ORIENTED_EDGE('',*,*,#263,.T.);
#104=ORIENTED_EDGE('',*,*,#264,.T.);
#105=ORIENTED_EDGE('',*,*,#265,.T.);
#106=ORIENTED_EDGE('',*,*,#266,.T.);
#107=ORIENTED_EDGE('',*,*,#267,.T.);
#108=ORIENTED_EDGE('',*,*,#268,.T.);
#109=ORIENTED_EDGE('',*,*,#269,.F.);
#110=ORIENTED_EDGE('',*,*,#270,.T.);
#111=ORIENTED_EDGE('',*,*,#271,.F.);
#112=ORIENTED_EDGE('',*,*,#272,.F.);
#113=ORIENTED_EDGE('',*,*,#273,.F.);
#114=ORIENTED_EDGE('',*,*,#274,.T.);
#115=ORIENTED_EDGE('',*,*,#275,.T.);
#116=ORIENTED_EDGE('',*,*,#276,.F.);
#117=ORIENTED_EDGE('',*,*,#252,.F.);
#118=ORIENTED_EDGE('',*,*,#277,.T.);
#119=ORIENTED_EDGE('',*,*,#278,.F.);
#120=ORIENTED_EDGE('',*,*,#279,.F.);
#121=ORIENTED_EDGE('',*,*,#280,.T.);
#122=ORIENTED_EDGE('',*,*,#281,.F.);
#123=ORIENTED_EDGE('',*,*,#282,.T.);
#124=ORIENTED_EDGE('',*,*,#254,.F.);
#125=ORIENTED_EDGE('',*,*,#283,.F.);
#126=ORIENTED_EDGE('',*,*,#258,.F.);
#127=ORIENTED_EDGE('',*,*,#284,.T.);
#128=ORIENTED_EDGE('',*,*,#263,.F.);
#129=ORIENTED_EDGE('',*,*,#285,.F.);
#130=ORIENTED_EDGE('',*,*,#286,.F.);
#131=ORIENTED_EDGE('',*,*,#287,.T.);
#132=ORIENTED_EDGE('',*,*,#288,.F.);
#133=ORIENTED_EDGE('',*,*,#289,.T.);
#134=ORIENTED_EDGE('',*,*,#290,.T.);
#135=ORIENTED_EDGE('',*,*,#279,.T.);
#136=ORIENTED_EDGE('',*,*,#286,.T.);
#137=ORIENTED_EDGE('',*,*,#291,.F.);
#138=ORIENTED_EDGE('',*,*,#272,.T.);
#139=ORIENTED_EDGE('',*,*,#292,.T.);
#140=ORIENTED_EDGE('',*,*,#293,.T.);
#141=ORIENTED_EDGE('',*,*,#294,.T.);
#142=ORIENTED_EDGE('',*,*,#295,.F.);
#143=ORIENTED_EDGE('',*,*,#296,.T.);
#144=ORIENTED_EDGE('',*,*,#297,.F.);
#145=ORIENTED_EDGE('',*,*,#278,.T.);
#146=ORIENTED_EDGE('',*,*,#298,.T.);
#147=ORIENTED_EDGE('',*,*,#295,.T.);
#148=ORIENTED_EDGE('',*,*,#299,.T.);
#149=ORIENTED_EDGE('',*,*,#270,.F.);
#150=ORIENTED_EDGE('',*,*,#256,.T.);
#151=ORIENTED_EDGE('',*,*,#271,.T.);
#152=ORIENTED_EDGE('',*,*,#257,.F.);
#153=ORIENTED_EDGE('',*,*,#290,.F.);
#154=ORIENTED_EDGE('',*,*,#300,.T.);
#155=ORIENTED_EDGE('',*,*,#292,.F.);
#156=ORIENTED_EDGE('',*,*,#280,.F.);
#157=ORIENTED_EDGE('',*,*,#255,.F.);
#158=ORIENTED_EDGE('',*,*,#301,.T.);
#159=ORIENTED_EDGE('',*,*,#293,.F.);
#160=ORIENTED_EDGE('',*,*,#277,.F.);
#161=ORIENTED_EDGE('',*,*,#302,.T.);
#162=ORIENTED_EDGE('',*,*,#303,.F.);
#163=ORIENTED_EDGE('',*,*,#304,.T.);
#164=ORIENTED_EDGE('',*,*,#297,.T.);
#165=ORIENTED_EDGE('',*,*,#305,.T.);
#166=ORIENTED_EDGE('',*,*,#306,.T.);
#167=ORIENTED_EDGE('',*,*,#288,.T.);
#168=ORIENTED_EDGE('',*,*,#307,.T.);
#169=ORIENTED_EDGE('',*,*,#302,.F.);
#170=ORIENTED_EDGE('',*,*,#304,.F.);
#171=ORIENTED_EDGE('',*,*,#307,.F.);
#172=ORIENTED_EDGE('',*,*,#303,.T.);
#173=ORIENTED_EDGE('',*,*,#284,.F.);
#174=ORIENTED_EDGE('',*,*,#267,.F.);
#175=ORIENTED_EDGE('',*,*,#308,.F.);
#176=ORIENTED_EDGE('',*,*,#301,.F.);
#177=ORIENTED_EDGE('',*,*,#308,.T.);
#178=ORIENTED_EDGE('',*,*,#266,.F.);
#179=ORIENTED_EDGE('',*,*,#305,.F.);
#180=ORIENTED_EDGE('',*,*,#296,.F.);
#181=ORIENTED_EDGE('',*,*,#299,.F.);
#182=ORIENTED_EDGE('',*,*,#294,.F.);
#183=ORIENTED_EDGE('',*,*,#306,.F.);
#184=ORIENTED_EDGE('',*,*,#265,.F.);
#185=ORIENTED_EDGE('',*,*,#309,.F.);
#186=ORIENTED_EDGE('',*,*,#289,.F.);
#187=ORIENTED_EDGE('',*,*,#309,.T.);
#188=ORIENTED_EDGE('',*,*,#264,.F.);
#189=ORIENTED_EDGE('',*,*,#287,.F.);
#190=ORIENTED_EDGE('',*,*,#300,.F.);
#191=ORIENTED_EDGE('',*,*,#310,.T.);
#192=ORIENTED_EDGE('',*,*,#298,.F.);
#193=ORIENTED_EDGE('',*,*,#310,.F.);
#194=ORIENTED_EDGE('',*,*,#311,.T.);
#195=ORIENTED_EDGE('',*,*,#274,.F.);
#196=ORIENTED_EDGE('',*,*,#312,.F.);
#197=ORIENTED_EDGE('',*,*,#313,.F.);
#198=ORIENTED_EDGE('',*,*,#314,.F.);
#199=ORIENTED_EDGE('',*,*,#275,.F.);
#200=ORIENTED_EDGE('',*,*,#315,.T.);
#201=ORIENTED_EDGE('',*,*,#316,.F.);
#202=ORIENTED_EDGE('',*,*,#317,.T.);
#203=ORIENTED_EDGE('',*,*,#318,.F.);
#204=ORIENTED_EDGE('',*,*,#319,.F.);
#205=ORIENTED_EDGE('',*,*,#317,.F.);
#206=ORIENTED_EDGE('',*,*,#320,.F.);
#207=ORIENTED_EDGE('',*,*,#281,.T.);
#208=ORIENTED_EDGE('',*,*,#268,.F.);
#209=ORIENTED_EDGE('',*,*,#282,.F.);
#210=ORIENTED_EDGE('',*,*,#269,.T.);
#211=ORIENTED_EDGE('',*,*,#312,.T.);
#212=ORIENTED_EDGE('',*,*,#273,.T.);
#213=ORIENTED_EDGE('',*,*,#291,.T.);
#214=ORIENTED_EDGE('',*,*,#321,.F.);
#215=ORIENTED_EDGE('',*,*,#253,.T.);
#216=ORIENTED_EDGE('',*,*,#276,.T.);
#217=ORIENTED_EDGE('',*,*,#314,.T.);
#218=ORIENTED_EDGE('',*,*,#322,.F.);
#219=ORIENTED_EDGE('',*,*,#323,.F.);
#220=ORIENTED_EDGE('',*,*,#324,.T.);
#221=ORIENTED_EDGE('',*,*,#325,.F.);
#222=ORIENTED_EDGE('',*,*,#315,.F.);
#223=ORIENTED_EDGE('',*,*,#311,.F.);
#224=ORIENTED_EDGE('',*,*,#326,.F.);
#225=ORIENTED_EDGE('',*,*,#327,.F.);
#226=ORIENTED_EDGE('',*,*,#328,.F.);
#227=ORIENTED_EDGE('',*,*,#323,.T.);
#228=ORIENTED_EDGE('',*,*,#325,.T.);
#229=ORIENTED_EDGE('',*,*,#328,.T.);
#230=ORIENTED_EDGE('',*,*,#324,.F.);
#231=ORIENTED_EDGE('',*,*,#283,.T.);
#232=ORIENTED_EDGE('',*,*,#322,.T.);
#233=ORIENTED_EDGE('',*,*,#329,.T.);
#234=ORIENTED_EDGE('',*,*,#259,.T.);
#235=ORIENTED_EDGE('',*,*,#329,.F.);
#236=ORIENTED_EDGE('',*,*,#318,.T.);
#237=ORIENTED_EDGE('',*,*,#320,.T.);
#238=ORIENTED_EDGE('',*,*,#316,.T.);
#239=ORIENTED_EDGE('',*,*,#327,.T.);
#240=ORIENTED_EDGE('',*,*,#260,.T.);
#241=ORIENTED_EDGE('',*,*,#326,.T.);
#242=ORIENTED_EDGE('',*,*,#313,.T.);
#243=ORIENTED_EDGE('',*,*,#330,.T.);
#244=ORIENTED_EDGE('',*,*,#261,.T.);
#245=ORIENTED_EDGE('',*,*,#330,.F.);
#246=ORIENTED_EDGE('',*,*,#321,.T.);
#247=ORIENTED_EDGE('',*,*,#285,.T.);
#248=ORIENTED_EDGE('',*,*,#262,.T.);
#249=ORIENTED_EDGE('',*,*,#331,.F.);
#250=ORIENTED_EDGE('',*,*,#319,.T.);
#251=ORIENTED_EDGE('',*,*,#331,.T.);
#252=EDGE_CURVE('',#332,#333,#388,.T.);
#253=EDGE_CURVE('',#334,#333,#389,.F.);
#254=EDGE_CURVE('',#334,#335,#390,.F.);
#255=EDGE_CURVE('',#335,#332,#391,.F.);
#256=EDGE_CURVE('',#336,#336,#46,.F.);
#257=EDGE_CURVE('',#337,#337,#47,.T.);
#258=EDGE_CURVE('',#338,#339,#392,.T.);
#259=EDGE_CURVE('',#340,#339,#48,.F.);
#260=EDGE_CURVE('',#341,#340,#393,.T.);
#261=EDGE_CURVE('',#342,#341,#394,.T.);
#262=EDGE_CURVE('',#343,#342,#49,.F.);
#263=EDGE_CURVE('',#343,#344,#395,.T.);
#264=EDGE_CURVE('',#344,#345,#50,.F.);
#265=EDGE_CURVE('',#345,#346,#396,.T.);
#266=EDGE_CURVE('',#346,#347,#397,.T.);
#267=EDGE_CURVE('',#347,#338,#51,.F.);
#268=EDGE_CURVE('',#348,#348,#52,.F.);
#269=EDGE_CURVE('',#349,#349,#53,.T.);
#270=EDGE_CURVE('',#350,#350,#54,.T.);
#271=EDGE_CURVE('',#351,#351,#55,.T.);
#272=EDGE_CURVE('',#352,#353,#398,.T.);
#273=EDGE_CURVE('',#354,#352,#56,.T.);
#274=EDGE_CURVE('',#354,#355,#399,.T.);
#275=EDGE_CURVE('',#355,#356,#400,.T.);
#276=EDGE_CURVE('',#333,#356,#57,.T.);
#277=EDGE_CURVE('',#332,#357,#58,.T.);
#278=EDGE_CURVE('',#358,#357,#401,.T.);
#279=EDGE_CURVE('',#359,#358,#402,.T.);
#280=EDGE_CURVE('',#359,#353,#59,.T.);
#281=EDGE_CURVE('',#360,#360,#60,.T.);
#282=EDGE_CURVE('',#361,#361,#61,.T.);
#283=EDGE_CURVE('',#339,#334,#62,.T.);
#284=EDGE_CURVE('',#338,#335,#63,.T.);
#285=EDGE_CURVE('',#362,#343,#64,.T.);
#286=EDGE_CURVE('',#363,#362,#403,.F.);
#287=EDGE_CURVE('',#363,#344,#65,.T.);
#288=EDGE_CURVE('',#364,#358,#66,.F.);
#289=EDGE_CURVE('',#364,#365,#404,.F.);
#290=EDGE_CURVE('',#365,#359,#405,.F.);
#291=EDGE_CURVE('',#352,#362,#406,.T.);
#292=EDGE_CURVE('',#353,#363,#407,.T.);
#293=EDGE_CURVE('',#357,#366,#408,.T.);
#294=EDGE_CURVE('',#366,#367,#409,.F.);
#295=EDGE_CURVE('',#368,#367,#67,.F.);
#296=EDGE_CURVE('',#368,#369,#410,.F.);
#297=EDGE_CURVE('',#358,#369,#68,.F.);
#298=EDGE_CURVE('',#370,#370,#69,.F.);
#299=EDGE_CURVE('',#367,#368,#20,.T.);
#300=EDGE_CURVE('',#365,#363,#70,.T.);
#301=EDGE_CURVE('',#335,#366,#71,.T.);
#302=EDGE_CURVE('',#371,#371,#72,.T.);
#303=EDGE_CURVE('',#372,#372,#73,.F.);
#304=EDGE_CURVE('',#373,#373,#74,.F.);
#305=EDGE_CURVE('',#369,#346,#21,.T.);
#306=EDGE_CURVE('',#346,#364,#22,.F.);
#307=EDGE_CURVE('',#374,#374,#75,.T.);
#308=EDGE_CURVE('',#366,#347,#76,.T.);
#309=EDGE_CURVE('',#365,#345,#77,.T.);
#310=EDGE_CURVE('',#375,#375,#78,.T.);
#311=EDGE_CURVE('',#376,#355,#79,.F.);
#312=EDGE_CURVE('',#377,#354,#411,.F.);
#313=EDGE_CURVE('',#376,#377,#412,.F.);
#314=EDGE_CURVE('',#356,#378,#413,.T.);
#315=EDGE_CURVE('',#355,#379,#80,.F.);
#316=EDGE_CURVE('',#380,#379,#414,.F.);
#317=EDGE_CURVE('',#380,#381,#81,.F.);
#318=EDGE_CURVE('',#378,#381,#415,.F.);
#319=EDGE_CURVE('',#382,#382,#82,.F.);
#320=EDGE_CURVE('',#381,#380,#23,.T.);
#321=EDGE_CURVE('',#377,#362,#83,.T.);
#322=EDGE_CURVE('',#334,#378,#84,.T.);
#323=EDGE_CURVE('',#383,#383,#85,.T.);
#324=EDGE_CURVE('',#384,#384,#86,.F.);
#325=EDGE_CURVE('',#385,#385,#87,.F.);
#326=EDGE_CURVE('',#341,#376,#24,.F.);
#327=EDGE_CURVE('',#379,#341,#25,.T.);
#328=EDGE_CURVE('',#386,#386,#88,.T.);
#329=EDGE_CURVE('',#378,#340,#89,.T.);
#330=EDGE_CURVE('',#377,#342,#90,.T.);
#331=EDGE_CURVE('',#387,#387,#91,.T.);
#332=VERTEX_POINT('',#942);
#333=VERTEX_POINT('',#943);
#334=VERTEX_POINT('',#945);
#335=VERTEX_POINT('',#947);
#336=VERTEX_POINT('',#951);
#337=VERTEX_POINT('',#953);
#338=VERTEX_POINT('',#955);
#339=VERTEX_POINT('',#956);
#340=VERTEX_POINT('',#958);
#341=VERTEX_POINT('',#960);
#342=VERTEX_POINT('',#962);
#343=VERTEX_POINT('',#964);
#344=VERTEX_POINT('',#966);
#345=VERTEX_POINT('',#968);
#346=VERTEX_POINT('',#970);
#347=VERTEX_POINT('',#972);
#348=VERTEX_POINT('',#975);
#349=VERTEX_POINT('',#977);
#350=VERTEX_POINT('',#980);
#351=VERTEX_POINT('',#982);
#352=VERTEX_POINT('',#984);
#353=VERTEX_POINT('',#985);
#354=VERTEX_POINT('',#987);
#355=VERTEX_POINT('',#989);
#356=VERTEX_POINT('',#991);
#357=VERTEX_POINT('',#994);
#358=VERTEX_POINT('',#996);
#359=VERTEX_POINT('',#998);
#360=VERTEX_POINT('',#1001);
#361=VERTEX_POINT('',#1003);
#362=VERTEX_POINT('',#1009);
#363=VERTEX_POINT('',#1011);
#364=VERTEX_POINT('',#1015);
#365=VERTEX_POINT('',#1017);
#366=VERTEX_POINT('',#1024);
#367=VERTEX_POINT('',#1026);
#368=VERTEX_POINT('',#1028);
#369=VERTEX_POINT('',#1030);
#370=VERTEX_POINT('',#1034);
#371=VERTEX_POINT('',#1048);
#372=VERTEX_POINT('',#1050);
#373=VERTEX_POINT('',#1053);
#374=VERTEX_POINT('',#1066);
#375=VERTEX_POINT('',#1077);
#376=VERTEX_POINT('',#1081);
#377=VERTEX_POINT('',#1083);
#378=VERTEX_POINT('',#1087);
#379=VERTEX_POINT('',#1089);
#380=VERTEX_POINT('',#1091);
#381=VERTEX_POINT('',#1093);
#382=VERTEX_POINT('',#1097);
#383=VERTEX_POINT('',#1111);
#384=VERTEX_POINT('',#1113);
#385=VERTEX_POINT('',#1116);
#386=VERTEX_POINT('',#1129);
#387=VERTEX_POINT('',#1140);
#388=LINE('',#941,#416);
#389=LINE('',#944,#417);
#390=LINE('',#946,#418);
#391=LINE('',#948,#419);
#392=LINE('',#954,#420);
#393=LINE('',#959,#421);
#394=LINE('',#961,#422);
#395=LINE('',#965,#423);
#396=LINE('',#969,#424);
#397=LINE('',#971,#425);
#398=LINE('',#983,#426);
#399=LINE('',#988,#427);
#400=LINE('',#990,#428);
#401=LINE('',#995,#429);
#402=LINE('',#997,#430);
#403=LINE('',#1010,#431);
#404=LINE('',#1016,#432);
#405=LINE('',#1018,#433);
#406=LINE('',#1020,#434);
#407=LINE('',#1021,#435);
#408=LINE('',#1023,#436);
#409=LINE('',#1025,#437);
#410=LINE('',#1029,#438);
#411=LINE('',#1082,#439);
#412=LINE('',#1084,#440);
#413=LINE('',#1086,#441);
#414=LINE('',#1090,#442);
#415=LINE('',#1094,#443);
#416=VECTOR('',#737,1.);
#417=VECTOR('',#738,1.);
#418=VECTOR('',#739,1.);
#419=VECTOR('',#740,1.);
#420=VECTOR('',#747,1.);
#421=VECTOR('',#750,1.);
#422=VECTOR('',#751,1.);
#423=VECTOR('',#754,1.);
#424=VECTOR('',#757,1.);
#425=VECTOR('',#758,1.);
#426=VECTOR('',#771,1.);
#427=VECTOR('',#774,1.);
#428=VECTOR('',#775,1.);
#429=VECTOR('',#780,1.);
#430=VECTOR('',#781,1.);
#431=VECTOR('',#798,1.);
#432=VECTOR('',#805,1.);
#433=VECTOR('',#806,1.);
#434=VECTOR('',#809,1.);
#435=VECTOR('',#810,1.);
#436=VECTOR('',#813,1.);
#437=VECTOR('',#814,1.);
#438=VECTOR('',#817,1.);
#439=VECTOR('',#876,1.);
#440=VECTOR('',#877,1.);
#441=VECTOR('',#880,1.);
#442=VECTOR('',#883,1.);
#443=VECTOR('',#886,1.);
#444=EDGE_LOOP('',(#92,#93,#94,#95));
#445=EDGE_LOOP('',(#96));
#446=EDGE_LOOP('',(#97));
#447=EDGE_LOOP('',(#98,#99,#100,#101,#102,#103,#104,#105,#106,#107));
#448=EDGE_LOOP('',(#108));
#449=EDGE_LOOP('',(#109));
#450=EDGE_LOOP('',(#110));
#451=EDGE_LOOP('',(#111));
#452=EDGE_LOOP('',(#112,#113,#114,#115,#116,#117,#118,#119,#120,#121));
#453=EDGE_LOOP('',(#122));
#454=EDGE_LOOP('',(#123));
#455=EDGE_LOOP('',(#124,#125,#126,#127));
#456=EDGE_LOOP('',(#128,#129,#130,#131));
#457=EDGE_LOOP('',(#132,#133,#134,#135));
#458=EDGE_LOOP('',(#136,#137,#138,#139));
#459=EDGE_LOOP('',(#140,#141,#142,#143,#144,#145));
#460=EDGE_LOOP('',(#146));
#461=EDGE_LOOP('',(#147,#148));
#462=EDGE_LOOP('',(#149));
#463=EDGE_LOOP('',(#150));
#464=EDGE_LOOP('',(#151));
#465=EDGE_LOOP('',(#152));
#466=EDGE_LOOP('',(#153,#154,#155,#156));
#467=EDGE_LOOP('',(#157,#158,#159,#160));
#468=EDGE_LOOP('',(#161));
#469=EDGE_LOOP('',(#162));
#470=EDGE_LOOP('',(#163));
#471=EDGE_LOOP('',(#164,#165,#166,#167));
#472=EDGE_LOOP('',(#168));
#473=EDGE_LOOP('',(#169));
#474=EDGE_LOOP('',(#170));
#475=EDGE_LOOP('',(#171));
#476=EDGE_LOOP('',(#172));
#477=EDGE_LOOP('',(#173,#174,#175,#176));
#478=EDGE_LOOP('',(#177,#178,#179,#180,#181,#182));
#479=EDGE_LOOP('',(#183,#184,#185,#186));
#480=EDGE_LOOP('',(#187,#188,#189,#190));
#481=EDGE_LOOP('',(#191));
#482=EDGE_LOOP('',(#192));
#483=EDGE_LOOP('',(#193));
#484=EDGE_LOOP('',(#194,#195,#196,#197));
#485=EDGE_LOOP('',(#198,#199,#200,#201,#202,#203));
#486=EDGE_LOOP('',(#204));
#487=EDGE_LOOP('',(#205,#206));
#488=EDGE_LOOP('',(#207));
#489=EDGE_LOOP('',(#208));
#490=EDGE_LOOP('',(#209));
#491=EDGE_LOOP('',(#210));
#492=EDGE_LOOP('',(#211,#212,#213,#214));
#493=EDGE_LOOP('',(#215,#216,#217,#218));
#494=EDGE_LOOP('',(#219));
#495=EDGE_LOOP('',(#220));
#496=EDGE_LOOP('',(#221));
#497=EDGE_LOOP('',(#222,#223,#224,#225));
#498=EDGE_LOOP('',(#226));
#499=EDGE_LOOP('',(#227));
#500=EDGE_LOOP('',(#228));
#501=EDGE_LOOP('',(#229));
#502=EDGE_LOOP('',(#230));
#503=EDGE_LOOP('',(#231,#232,#233,#234));
#504=EDGE_LOOP('',(#235,#236,#237,#238,#239,#240));
#505=EDGE_LOOP('',(#241,#242,#243,#244));
#506=EDGE_LOOP('',(#245,#246,#247,#248));
#507=EDGE_LOOP('',(#249));
#508=EDGE_LOOP('',(#250));
#509=EDGE_LOOP('',(#251));
#510=FACE_BOUND('',#444,.T.);
#511=FACE_BOUND('',#445,.T.);
#512=FACE_BOUND('',#446,.T.);
#513=FACE_BOUND('',#447,.T.);
#514=FACE_BOUND('',#448,.T.);
#515=FACE_BOUND('',#449,.T.);
#516=FACE_BOUND('',#450,.T.);
#517=FACE_BOUND('',#451,.T.);
#518=FACE_BOUND('',#452,.T.);
#519=FACE_BOUND('',#453,.T.);
#520=FACE_BOUND('',#454,.T.);
#521=FACE_BOUND('',#455,.T.);
#522=FACE_BOUND('',#456,.T.);
#523=FACE_BOUND('',#457,.T.);
#524=FACE_BOUND('',#458,.T.);
#525=FACE_BOUND('',#459,.T.);
#526=FACE_BOUND('',#460,.T.);
#527=FACE_BOUND('',#461,.T.);
#528=FACE_BOUND('',#462,.T.);
#529=FACE_BOUND('',#463,.T.);
#530=FACE_BOUND('',#464,.T.);
#531=FACE_BOUND('',#465,.T.);
#532=FACE_BOUND('',#466,.T.);
#533=FACE_BOUND('',#467,.T.);
#534=FACE_BOUND('',#468,.T.);
#535=FACE_BOUND('',#469,.T.);
#536=FACE_BOUND('',#470,.T.);
#537=FACE_BOUND('',#471,.T.);
#538=FACE_BOUND('',#472,.T.);
#539=FACE_BOUND('',#473,.T.);
#540=FACE_BOUND('',#474,.T.);
#541=FACE_BOUND('',#475,.T.);
#542=FACE_BOUND('',#476,.T.);
#543=FACE_BOUND('',#477,.T.);
#544=FACE_BOUND('',#478,.T.);
#545=FACE_BOUND('',#479,.T.);
#546=FACE_BOUND('',#480,.T.);
#547=FACE_BOUND('',#481,.T.);
#548=FACE_BOUND('',#482,.T.);
#549=FACE_BOUND('',#483,.T.);
#550=FACE_BOUND('',#484,.T.);
#551=FACE_BOUND('',#485,.T.);
#552=FACE_BOUND('',#486,.T.);
#553=FACE_BOUND('',#487,.T.);
#554=FACE_BOUND('',#488,.T.);
#555=FACE_BOUND('',#489,.T.);
#556=FACE_BOUND('',#490,.T.);
#557=FACE_BOUND('',#491,.T.);
#558=FACE_BOUND('',#492,.T.);
#559=FACE_BOUND('',#493,.T.);
#560=FACE_BOUND('',#494,.T.);
#561=FACE_BOUND('',#495,.T.);
#562=FACE_BOUND('',#496,.T.);
#563=FACE_BOUND('',#497,.T.);
#564=FACE_BOUND('',#498,.T.);
#565=FACE_BOUND('',#499,.T.);
#566=FACE_BOUND('',#500,.T.);
#567=FACE_BOUND('',#501,.T.);
#568=FACE_BOUND('',#502,.T.);
#569=FACE_BOUND('',#503,.T.);
#570=FACE_BOUND('',#504,.T.);
#571=FACE_BOUND('',#505,.T.);
#572=FACE_BOUND('',#506,.T.);
#573=FACE_BOUND('',#507,.T.);
#574=FACE_BOUND('',#508,.T.);
#575=FACE_BOUND('',#509,.T.);
#576=PLANE('',#645);
#577=PLANE('',#646);
#578=PLANE('',#655);
#579=PLANE('',#670);
#580=PLANE('',#672);
#581=PLANE('',#673);
#582=PLANE('',#689);
#583=PLANE('',#692);
#584=PLANE('',#699);
#585=PLANE('',#702);
#586=PLANE('',#704);
#587=PLANE('',#720);
#588=PLANE('',#723);
#589=PLANE('',#730);
#590=ADVANCED_FACE('',(#510),#576,.F.);
#591=ADVANCED_FACE('',(#511,#512,#513,#514,#515),#577,.F.);
#592=ADVANCED_FACE('',(#516,#517,#518,#519,#520),#578,.T.);
#593=ADVANCED_FACE('',(#521),#26,.T.);
#594=ADVANCED_FACE('',(#522),#27,.T.);
#595=ADVANCED_FACE('',(#523),#579,.F.);
#596=ADVANCED_FACE('',(#524),#580,.F.);
#597=ADVANCED_FACE('',(#525),#581,.F.);
#598=ADVANCED_FACE('',(#526,#527),#28,.T.);
#599=ADVANCED_FACE('',(#528,#529),#29,.F.);
#600=ADVANCED_FACE('',(#530,#531),#30,.F.);
#601=ADVANCED_FACE('',(#532),#31,.T.);
#602=ADVANCED_FACE('',(#533),#32,.T.);
#603=ADVANCED_FACE('',(#534,#535),#33,.F.);
#604=ADVANCED_FACE('',(#536,#537),#34,.T.);
#605=ADVANCED_FACE('',(#538,#539),#582,.T.);
#606=ADVANCED_FACE('',(#540,#541),#12,.T.);
#607=ADVANCED_FACE('',(#542),#583,.F.);
#608=ADVANCED_FACE('',(#543),#13,.T.);
#609=ADVANCED_FACE('',(#544),#35,.T.);
#610=ADVANCED_FACE('',(#545),#36,.T.);
#611=ADVANCED_FACE('',(#546),#14,.T.);
#612=ADVANCED_FACE('',(#547),#584,.T.);
#613=ADVANCED_FACE('',(#548,#549),#15,.T.);
#614=ADVANCED_FACE('',(#550),#585,.F.);
#615=ADVANCED_FACE('',(#551),#586,.F.);
#616=ADVANCED_FACE('',(#552,#553),#37,.T.);
#617=ADVANCED_FACE('',(#554,#555),#38,.F.);
#618=ADVANCED_FACE('',(#556,#557),#39,.F.);
#619=ADVANCED_FACE('',(#558),#40,.T.);
#620=ADVANCED_FACE('',(#559),#41,.T.);
#621=ADVANCED_FACE('',(#560,#561),#42,.F.);
#622=ADVANCED_FACE('',(#562,#563),#43,.T.);
#623=ADVANCED_FACE('',(#564,#565),#587,.T.);
#624=ADVANCED_FACE('',(#566,#567),#16,.T.);
#625=ADVANCED_FACE('',(#568),#588,.F.);
#626=ADVANCED_FACE('',(#569),#17,.T.);
#627=ADVANCED_FACE('',(#570),#44,.T.);
#628=ADVANCED_FACE('',(#571),#45,.T.);
#629=ADVANCED_FACE('',(#572),#18,.T.);
#630=ADVANCED_FACE('',(#573),#589,.T.);
#631=ADVANCED_FACE('',(#574,#575),#19,.T.);
#632=CLOSED_SHELL('',(#590,#591,#592,#593,#594,#595,#596,#597,#598,#599,#600,#601,#602,#603,#604,#605,#606,#607,#608,#609,#610,#611,#612,#613,#614,#615,#616,#617,#618,#619,#620,#621,#622,#623,#624,#625,#626,#627,#628,#629,#630,#631));
#633=STYLED_ITEM('',(#634),#641);
#634=PRESENTATION_STYLE_ASSIGNMENT((#635));
#635=SURFACE_STYLE_USAGE(.BOTH.,#636);
#636=SURFACE_SIDE_STYLE('',(#637));
#637=SURFACE_STYLE_FILL_AREA(#638);
#638=FILL_AREA_STYLE('',(#639));
#639=FILL_AREA_STYLE_COLOUR('',#640);
#640=COLOUR_RGB('',0.0745098039215686,0.588235294117647,0.945098039215686);
#641=MANIFOLD_SOLID_BREP('Part 6',#632);
#642=SHAPE_DEFINITION_REPRESENTATION(#1148,#643);
#643=SHAPE_REPRESENTATION('Part 6',(#644),#1143);
#644=AXIS2_PLACEMENT_3D('',#939,#733,#734);
#645=AXIS2_PLACEMENT_3D('',#940,#735,#736);
#646=AXIS2_PLACEMENT_3D('',#949,#741,#742);
#647=AXIS2_PLACEMENT_3D('',#950,#743,#744);
#648=AXIS2_PLACEMENT_3D('',#952,#745,#746);
#649=AXIS2_PLACEMENT_3D('',#957,#748,#749);
#650=AXIS2_PLACEMENT_3D('',#963,#752,#753);
#651=AXIS2_PLACEMENT_3D('',#967,#755,#756);
#652=AXIS2_PLACEMENT_3D('',#973,#759,#760);
#653=AXIS2_PLACEMENT_3D('',#974,#761,#762);
#654=AXIS2_PLACEMENT_3D('',#976,#763,#764);
#655=AXIS2_PLACEMENT_3D('',#978,#765,#766);
#656=AXIS2_PLACEMENT_3D('',#979,#767,#768);
#657=AXIS2_PLACEMENT_3D('',#981,#769,#770);
#658=AXIS2_PLACEMENT_3D('',#986,#772,#773);
#659=AXIS2_PLACEMENT_3D('',#992,#776,#777);
#660=AXIS2_PLACEMENT_3D('',#993,#778,#779);
#661=AXIS2_PLACEMENT_3D('',#999,#782,#783);
#662=AXIS2_PLACEMENT_3D('',#1000,#784,#785);
#663=AXIS2_PLACEMENT_3D('',#1002,#786,#787);
#664=AXIS2_PLACEMENT_3D('',#1004,#788,#789);
#665=AXIS2_PLACEMENT_3D('',#1005,#790,#791);
#666=AXIS2_PLACEMENT_3D('',#1006,#792,#793);
#667=AXIS2_PLACEMENT_3D('',#1007,#794,#795);
#668=AXIS2_PLACEMENT_3D('',#1008,#796,#797);
#669=AXIS2_PLACEMENT_3D('',#1012,#799,#800);
#670=AXIS2_PLACEMENT_3D('',#1013,#801,#802);
#671=AXIS2_PLACEMENT_3D('',#1014,#803,#804);
#672=AXIS2_PLACEMENT_3D('',#1019,#807,#808);
#673=AXIS2_PLACEMENT_3D('',#1022,#811,#812);
#674=AXIS2_PLACEMENT_3D('',#1027,#815,#816);
#675=AXIS2_PLACEMENT_3D('',#1031,#818,#819);
#676=AXIS2_PLACEMENT_3D('',#1032,#820,#821);
#677=AXIS2_PLACEMENT_3D('',#1033,#822,#823);
#678=AXIS2_PLACEMENT_3D('',#1040,#824,#825);
#679=AXIS2_PLACEMENT_3D('',#1041,#826,#827);
#680=AXIS2_PLACEMENT_3D('',#1042,#828,#829);
#681=AXIS2_PLACEMENT_3D('',#1043,#830,#831);
#682=AXIS2_PLACEMENT_3D('',#1044,#832,#833);
#683=AXIS2_PLACEMENT_3D('',#1045,#834,#835);
#684=AXIS2_PLACEMENT_3D('',#1046,#836,#837);
#685=AXIS2_PLACEMENT_3D('',#1047,#838,#839);
#686=AXIS2_PLACEMENT_3D('',#1049,#840,#841);
#687=AXIS2_PLACEMENT_3D('',#1051,#842,#843);
#688=AXIS2_PLACEMENT_3D('',#1052,#844,#845);
#689=AXIS2_PLACEMENT_3D('',#1064,#846,#847);
#690=AXIS2_PLACEMENT_3D('',#1065,#848,#849);
#691=AXIS2_PLACEMENT_3D('',#1067,#850,#851);
#692=AXIS2_PLACEMENT_3D('',#1068,#852,#853);
#693=AXIS2_PLACEMENT_3D('',#1069,#854,#855);
#694=AXIS2_PLACEMENT_3D('',#1070,#856,#857);
#695=AXIS2_PLACEMENT_3D('',#1071,#858,#859);
#696=AXIS2_PLACEMENT_3D('',#1072,#860,#861);
#697=AXIS2_PLACEMENT_3D('',#1073,#862,#863);
#698=AXIS2_PLACEMENT_3D('',#1074,#864,#865);
#699=AXIS2_PLACEMENT_3D('',#1075,#866,#867);
#700=AXIS2_PLACEMENT_3D('',#1076,#868,#869);
#701=AXIS2_PLACEMENT_3D('',#1078,#870,#871);
#702=AXIS2_PLACEMENT_3D('',#1079,#872,#873);
#703=AXIS2_PLACEMENT_3D('',#1080,#874,#875);
#704=AXIS2_PLACEMENT_3D('',#1085,#878,#879);
#705=AXIS2_PLACEMENT_3D('',#1088,#881,#882);
#706=AXIS2_PLACEMENT_3D('',#1092,#884,#885);
#707=AXIS2_PLACEMENT_3D('',#1095,#887,#888);
#708=AXIS2_PLACEMENT_3D('',#1096,#889,#890);
#709=AXIS2_PLACEMENT_3D('',#1103,#891,#892);
#710=AXIS2_PLACEMENT_3D('',#1104,#893,#894);
#711=AXIS2_PLACEMENT_3D('',#1105,#895,#896);
#712=AXIS2_PLACEMENT_3D('',#1106,#897,#898);
#713=AXIS2_PLACEMENT_3D('',#1107,#899,#900);
#714=AXIS2_PLACEMENT_3D('',#1108,#901,#902);
#715=AXIS2_PLACEMENT_3D('',#1109,#903,#904);
#716=AXIS2_PLACEMENT_3D('',#1110,#905,#906);
#717=AXIS2_PLACEMENT_3D('',#1112,#907,#908);
#718=AXIS2_PLACEMENT_3D('',#1114,#909,#910);
#719=AXIS2_PLACEMENT_3D('',#1115,#911,#912);
#720=AXIS2_PLACEMENT_3D('',#1127,#913,#914);
#721=AXIS2_PLACEMENT_3D('',#1128,#915,#916);
#722=AXIS2_PLACEMENT_3D('',#1130,#917,#918);
#723=AXIS2_PLACEMENT_3D('',#1131,#919,#920);
#724=AXIS2_PLACEMENT_3D('',#1132,#921,#922);
#725=AXIS2_PLACEMENT_3D('',#1133,#923,#924);
#726=AXIS2_PLACEMENT_3D('',#1134,#925,#926);
#727=AXIS2_PLACEMENT_3D('',#1135,#927,#928);
#728=AXIS2_PLACEMENT_3D('',#1136,#929,#930);
#729=AXIS2_PLACEMENT_3D('',#1137,#931,#932);
#730=AXIS2_PLACEMENT_3D('',#1138,#933,#934);
#731=AXIS2_PLACEMENT_3D('',#1139,#935,#936);
#732=AXIS2_PLACEMENT_3D('',#1141,#937,#938);
#733=DIRECTION('',(0.,0.,1.));
#734=DIRECTION('',(1.,0.,0.));
#735=DIRECTION('',(0.,0.,1.));
#736=DIRECTION('',(1.,0.,0.));
#737=DIRECTION('',(0.,-1.,0.));
#738=DIRECTION('',(-1.,0.,0.));
#739=DIRECTION('',(0.,-1.,0.));
#740=DIRECTION('',(-1.,0.,0.));
#741=DIRECTION('',(1.,0.,0.));
#742=DIRECTION('',(0.,1.,0.));
#743=DIRECTION('',(1.,0.,0.));
#744=DIRECTION('',(0.,0.,-1.));
#745=DIRECTION('',(1.,0.,0.));
#746=DIRECTION('',(0.,0.,-1.));
#747=DIRECTION('',(0.,-1.,0.));
#748=DIRECTION('',(-1.,0.,0.));
#749=DIRECTION('',(0.,0.,-1.));
#750=DIRECTION('',(0.,0.,-1.));
#751=DIRECTION('',(0.,0.,-1.));
#752=DIRECTION('',(-1.,0.,0.));
#753=DIRECTION('',(0.,0.,-1.));
#754=DIRECTION('',(0.,1.,0.));
#755=DIRECTION('',(1.,0.,0.));
#756=DIRECTION('',(0.,0.,-1.));
#757=DIRECTION('',(0.,0.,-1.));
#758=DIRECTION('',(0.,0.,-1.));
#759=DIRECTION('',(1.,0.,0.));
#760=DIRECTION('',(0.,0.,-1.));
#761=DIRECTION('',(-1.,0.,0.));
#762=DIRECTION('',(0.,0.,-1.));
#763=DIRECTION('',(-1.,0.,0.));
#764=DIRECTION('',(0.,0.,-1.));
#765=DIRECTION('',(1.,0.,0.));
#766=DIRECTION('',(0.,1.,0.));
#767=DIRECTION('',(-1.,0.,0.));
#768=DIRECTION('',(0.,0.,-1.));
#769=DIRECTION('',(1.,0.,0.));
#770=DIRECTION('',(0.,0.,-1.));
#771=DIRECTION('',(0.,1.,0.));
#772=DIRECTION('',(-1.,0.,0.));
#773=DIRECTION('',(0.,0.,-1.));
#774=DIRECTION('',(0.,0.,-1.));
#775=DIRECTION('',(0.,0.,-1.));
#776=DIRECTION('',(-1.,0.,0.));
#777=DIRECTION('',(0.,0.,-1.));
#778=DIRECTION('',(1.,0.,0.));
#779=DIRECTION('',(0.,0.,-1.));
#780=DIRECTION('',(0.,0.,-1.));
#781=DIRECTION('',(0.,0.,-1.));
#782=DIRECTION('',(1.,0.,0.));
#783=DIRECTION('',(0.,0.,-1.));
#784=DIRECTION('',(1.,0.,0.));
#785=DIRECTION('',(0.,0.,-1.));
#786=DIRECTION('',(-1.,0.,0.));
#787=DIRECTION('',(0.,0.,-1.));
#788=DIRECTION('',(0.,-1.,0.));
#789=DIRECTION('',(0.,0.,-1.));
#790=DIRECTION('',(0.,-1.,0.));
#791=DIRECTION('',(0.,0.,-1.));
#792=DIRECTION('',(0.,-1.,0.));
#793=DIRECTION('',(0.,0.,-1.));
#794=DIRECTION('',(0.,1.,0.));
#795=DIRECTION('',(0.,0.,1.));
#796=DIRECTION('',(0.,-1.,0.));
#797=DIRECTION('',(0.,0.,-1.));
#798=DIRECTION('',(0.,1.,0.));
#799=DIRECTION('',(0.,-1.,0.));
#800=DIRECTION('',(0.,0.,-1.));
#801=DIRECTION('',(0.,-1.,0.));
#802=DIRECTION('',(0.,0.,-1.));
#803=DIRECTION('',(0.,-1.,0.));
#804=DIRECTION('',(0.,0.,-1.));
#805=DIRECTION('',(0.,0.,-1.));
#806=DIRECTION('',(-1.,0.,0.));
#807=DIRECTION('',(0.,0.,-1.));
#808=DIRECTION('',(-1.,0.,0.));
#809=DIRECTION('',(-1.,0.,0.));
#810=DIRECTION('',(-1.,0.,0.));
#811=DIRECTION('',(0.,-1.,0.));
#812=DIRECTION('',(0.,0.,-1.));
#813=DIRECTION('',(-1.,0.,0.));
#814=DIRECTION('',(0.,0.,-1.));
#815=DIRECTION('',(0.,-1.,0.));
#816=DIRECTION('',(0.,0.,-1.));
#817=DIRECTION('',(0.,0.,-1.));
#818=DIRECTION('',(0.,-1.,0.));
#819=DIRECTION('',(0.,0.,-1.));
#820=DIRECTION('',(0.,1.,0.));
#821=DIRECTION('',(0.,0.,1.));
#822=DIRECTION('',(0.,1.,0.));
#823=DIRECTION('',(0.,0.,1.));
#824=DIRECTION('',(1.,0.,0.));
#825=DIRECTION('',(0.,0.,-1.));
#826=DIRECTION('',(1.,0.,0.));
#827=DIRECTION('',(0.,0.,-1.));
#828=DIRECTION('',(-1.,0.,0.));
#829=DIRECTION('',(0.,0.,1.));
#830=DIRECTION('',(1.,0.,0.));
#831=DIRECTION('',(0.,0.,-1.));
#832=DIRECTION('',(-1.,0.,0.));
#833=DIRECTION('',(0.,0.,1.));
#834=DIRECTION('',(1.,0.,0.));
#835=DIRECTION('',(0.,0.,-1.));
#836=DIRECTION('',(0.,-1.,0.));
#837=DIRECTION('',(0.,0.,-1.));
#838=DIRECTION('',(0.,1.,0.));
#839=DIRECTION('',(0.,0.,1.));
#840=DIRECTION('',(0.,-1.,0.));
#841=DIRECTION('',(0.,0.,-1.));
#842=DIRECTION('',(0.,-1.,0.));
#843=DIRECTION('',(0.,0.,-1.));
#844=DIRECTION('',(0.,1.,0.));
#845=DIRECTION('',(0.,0.,1.));
#846=DIRECTION('',(0.,1.,0.));
#847=DIRECTION('',(0.,0.,1.));
#848=DIRECTION('',(0.,1.,0.));
#849=DIRECTION('',(0.,0.,1.));
#850=DIRECTION('',(0.,1.,0.));
#851=DIRECTION('',(0.,0.,1.));
#852=DIRECTION('',(0.,-1.,0.));
#853=DIRECTION('',(0.,0.,-1.));
#854=DIRECTION('',(1.,0.,0.));
#855=DIRECTION('',(0.,0.,-1.));
#856=DIRECTION('',(0.,0.,1.));
#857=DIRECTION('',(1.,0.,0.));
#858=DIRECTION('',(0.,0.,-1.));
#859=DIRECTION('',(-1.,0.,0.));
#860=DIRECTION('',(0.,0.,-1.));
#861=DIRECTION('',(-1.,0.,0.));
#862=DIRECTION('',(0.,0.,1.));
#863=DIRECTION('',(1.,0.,0.));
#864=DIRECTION('',(1.,0.,0.));
#865=DIRECTION('',(0.,0.,-1.));
#866=DIRECTION('',(0.,1.,0.));
#867=DIRECTION('',(0.,0.,1.));
#868=DIRECTION('',(0.,1.,0.));
#869=DIRECTION('',(0.,0.,1.));
#870=DIRECTION('',(0.,1.,0.));
#871=DIRECTION('',(0.,0.,1.));
#872=DIRECTION('',(0.,1.,0.));
#873=DIRECTION('',(0.,0.,-1.));
#874=DIRECTION('',(0.,-1.,0.));
#875=DIRECTION('',(0.,0.,-1.));
#876=DIRECTION('',(-1.,0.,0.));
#877=DIRECTION('',(0.,0.,-1.));
#878=DIRECTION('',(0.,1.,0.));
#879=DIRECTION('',(0.,0.,-1.));
#880=DIRECTION('',(-1.,0.,0.));
#881=DIRECTION('',(0.,-1.,0.));
#882=DIRECTION('',(0.,0.,-1.));
#883=DIRECTION('',(0.,0.,-1.));
#884=DIRECTION('',(0.,-1.,0.));
#885=DIRECTION('',(0.,0.,-1.));
#886=DIRECTION('',(0.,0.,-1.));
#887=DIRECTION('',(0.,-1.,0.));
#888=DIRECTION('',(0.,0.,1.));
#889=DIRECTION('',(0.,1.,0.));
#890=DIRECTION('',(0.,0.,1.));
#891=DIRECTION('',(1.,0.,0.));
#892=DIRECTION('',(0.,0.,-1.));
#893=DIRECTION('',(1.,0.,0.));
#894=DIRECTION('',(0.,0.,-1.));
#895=DIRECTION('',(-1.,0.,0.));
#896=DIRECTION('',(0.,0.,1.));
#897=DIRECTION('',(-1.,0.,0.));
#898=DIRECTION('',(0.,0.,-1.));
#899=DIRECTION('',(-1.,0.,0.));
#900=DIRECTION('',(0.,0.,1.));
#901=DIRECTION('',(-1.,0.,0.));
#902=DIRECTION('',(0.,0.,-1.));
#903=DIRECTION('',(0.,1.,0.));
#904=DIRECTION('',(0.,0.,-1.));
#905=DIRECTION('',(0.,1.,0.));
#906=DIRECTION('',(0.,0.,1.));
#907=DIRECTION('',(0.,-1.,0.));
#908=DIRECTION('',(0.,0.,-1.));
#909=DIRECTION('',(0.,1.,0.));
#910=DIRECTION('',(0.,0.,-1.));
#911=DIRECTION('',(0.,1.,0.));
#912=DIRECTION('',(0.,0.,1.));
#913=DIRECTION('',(0.,-1.,0.));
#914=DIRECTION('',(0.,0.,1.));
#915=DIRECTION('',(0.,1.,0.));
#916=DIRECTION('',(0.,0.,1.));
#917=DIRECTION('',(0.,-1.,0.));
#918=DIRECTION('',(0.,0.,1.));
#919=DIRECTION('',(0.,1.,0.));
#920=DIRECTION('',(0.,0.,-1.));
#921=DIRECTION('',(1.,0.,0.));
#922=DIRECTION('',(0.,0.,-1.));
#923=DIRECTION('',(0.,0.,-1.));
#924=DIRECTION('',(1.,0.,0.));
#925=DIRECTION('',(0.,0.,-1.));
#926=DIRECTION('',(-1.,0.,0.));
#927=DIRECTION('',(0.,0.,-1.));
#928=DIRECTION('',(-1.,0.,0.));
#929=DIRECTION('',(0.,0.,-1.));
#930=DIRECTION('',(1.,0.,0.));
#931=DIRECTION('',(1.,0.,0.));
#932=DIRECTION('',(0.,0.,-1.));
#933=DIRECTION('',(0.,-1.,0.));
#934=DIRECTION('',(0.,0.,1.));
#935=DIRECTION('',(0.,1.,0.));
#936=DIRECTION('',(0.,0.,1.));
#937=DIRECTION('',(0.,-1.,0.));
#938=DIRECTION('',(0.,0.,1.));
#939=CARTESIAN_POINT('',(0.,0.,0.));
#940=CARTESIAN_POINT('',(0.0709188700909981,0.0860139531705697,0.0385118015099451));
#941=CARTESIAN_POINT('',(0.0730778700909981,0.0860139531705697,0.0385118015099451));
#942=CARTESIAN_POINT('',(0.0730778700909981,0.0969192968239345,0.0385118015099451));
#943=CARTESIAN_POINT('',(0.0730778700909981,0.0751086095172048,0.0385118015099451));
#944=CARTESIAN_POINT('',(0.0709188700909981,0.0751086095172048,0.0385118015099451));
#945=CARTESIAN_POINT('',(0.0705817593113566,0.0751086095172048,0.0385118015099451));
#946=CARTESIAN_POINT('',(0.0705817593113566,0.0860139531705697,0.0385118015099451));
#947=CARTESIAN_POINT('',(0.0705817593113566,0.0969192968239345,0.0385118015099451));
#948=CARTESIAN_POINT('',(0.0709188700909981,0.0969192968239345,0.0385118015099451));
#949=CARTESIAN_POINT('',(0.0700298700909981,0.0882319772678907,0.0504677609807527));
#950=CARTESIAN_POINT('',(0.0700298700909981,0.0965139531705697,0.0530118015099452));
#951=CARTESIAN_POINT('',(0.0700298700909981,0.0965139531705697,0.0517418015099452));
#952=CARTESIAN_POINT('',(0.0700298700909981,0.0965139531705697,0.0405118015099451));
#953=CARTESIAN_POINT('',(0.0700298700909981,0.0965139531705697,0.0392418015099451));
#954=CARTESIAN_POINT('',(0.0700298700909981,0.0882319772678907,0.0390636907303036));
#955=CARTESIAN_POINT('',(0.0700298700909981,0.0969192968239345,0.0390636907303036));
#956=CARTESIAN_POINT('',(0.0700298700909981,0.0751086095172048,0.0390636907303036));
#957=CARTESIAN_POINT('',(0.0700298700909981,0.0751086095172048,0.0418844578565803));
#958=CARTESIAN_POINT('',(0.0700298700909981,0.0722878423909281,0.0418844578565803));
#959=CARTESIAN_POINT('',(0.0700298700909981,0.0722878423909281,0.0504677609807527));
#960=CARTESIAN_POINT('',(0.0700298700909981,0.0722878423909281,0.0555918015099451));
#961=CARTESIAN_POINT('',(0.0700298700909981,0.0722878423909281,0.0504677609807527));
#962=CARTESIAN_POINT('',(0.0700298700909981,0.0722878423909281,0.05913914516331));
#963=CARTESIAN_POINT('',(0.0700298700909981,0.0751086095172048,0.05913914516331));
#964=CARTESIAN_POINT('',(0.0700298700909981,0.0751086095172048,0.0619599122895867));
#965=CARTESIAN_POINT('',(0.0700298700909981,0.0882319772678907,0.0619599122895867));
#966=CARTESIAN_POINT('',(0.0700298700909981,0.0969192968239345,0.0619599122895867));
#967=CARTESIAN_POINT('',(0.0700298700909981,0.0969192968239345,0.05913914516331));
#968=CARTESIAN_POINT('',(0.0700298700909981,0.0997400639502112,0.05913914516331));
#969=CARTESIAN_POINT('',(0.0700298700909981,0.0997400639502112,0.0504677609807527));
#970=CARTESIAN_POINT('',(0.0700298700909981,0.0997400639502112,0.0555918015099451));
#971=CARTESIAN_POINT('',(0.0700298700909981,0.0997400639502112,0.0504677609807527));
#972=CARTESIAN_POINT('',(0.0700298700909981,0.0997400639502112,0.0418844578565803));
#973=CARTESIAN_POINT('',(0.0700298700909981,0.0969192968239345,0.0418844578565803));
#974=CARTESIAN_POINT('',(0.0700298700909981,0.0755139531705696,0.0530118015099452));
#975=CARTESIAN_POINT('',(0.0700298700909981,0.0755139531705696,0.0517418015099452));
#976=CARTESIAN_POINT('',(0.0700298700909981,0.0755139531705696,0.0405118015099451));
#977=CARTESIAN_POINT('',(0.0700298700909981,0.0755139531705696,0.0392418015099451));
#978=CARTESIAN_POINT('',(0.0730778700909981,0.0882319772678907,0.0504677609807527));
#979=CARTESIAN_POINT('',(0.0730778700909981,0.0965139531705697,0.0530118015099452));
#980=CARTESIAN_POINT('',(0.0730778700909981,0.0965139531705697,0.0517418015099452));
#981=CARTESIAN_POINT('',(0.0730778700909981,0.0965139531705697,0.0405118015099451));
#982=CARTESIAN_POINT('',(0.0730778700909981,0.0965139531705697,0.0392418015099451));
#983=CARTESIAN_POINT('',(0.0730778700909981,0.0860139531705696,0.0625118015099452));
#984=CARTESIAN_POINT('',(0.0730778700909981,0.0751086095172048,0.0625118015099452));
#985=CARTESIAN_POINT('',(0.0730778700909981,0.0969192968239345,0.0625118015099452));
#986=CARTESIAN_POINT('',(0.0730778700909981,0.0751086095172048,0.05913914516331));
#987=CARTESIAN_POINT('',(0.0730778700909981,0.0717359531705696,0.05913914516331));
#988=CARTESIAN_POINT('',(0.0730778700909981,0.0717359531705696,0.0505118015099451));
#989=CARTESIAN_POINT('',(0.0730778700909981,0.0717359531705696,0.0555918015099451));
#990=CARTESIAN_POINT('',(0.0730778700909981,0.0717359531705696,0.0505118015099451));
#991=CARTESIAN_POINT('',(0.0730778700909981,0.0717359531705696,0.0418844578565803));
#992=CARTESIAN_POINT('',(0.0730778700909981,0.0751086095172048,0.0418844578565803));
#993=CARTESIAN_POINT('',(0.0730778700909981,0.0969192968239345,0.0418844578565803));
#994=CARTESIAN_POINT('',(0.0730778700909981,0.10029195317057,0.0418844578565803));
#995=CARTESIAN_POINT('',(0.0730778700909981,0.10029195317057,0.0505118015099451));
#996=CARTESIAN_POINT('',(0.0730778700909981,0.10029195317057,0.0555918015099451));
#997=CARTESIAN_POINT('',(0.0730778700909981,0.10029195317057,0.0505118015099451));
#998=CARTESIAN_POINT('',(0.0730778700909981,0.10029195317057,0.05913914516331));
#999=CARTESIAN_POINT('',(0.0730778700909981,0.0969192968239345,0.05913914516331));
#1000=CARTESIAN_POINT('',(0.0730778700909981,0.0755139531705696,0.0530118015099452));
#1001=CARTESIAN_POINT('',(0.0730778700909981,0.0755139531705696,0.0517418015099452));
#1002=CARTESIAN_POINT('',(0.0730778700909981,0.0755139531705696,0.0405118015099451));
#1003=CARTESIAN_POINT('',(0.0730778700909981,0.0755139531705696,0.0392418015099451));
#1004=CARTESIAN_POINT('',(0.0705817593113566,0.0882319772678907,0.0390636907303036));
#1005=CARTESIAN_POINT('',(0.0705817593113566,0.0751086095172048,0.0390636907303036));
#1006=CARTESIAN_POINT('',(0.0705817593113566,0.0969192968239345,0.0390636907303036));
#1007=CARTESIAN_POINT('',(0.0705817593113566,0.0882319772678907,0.0619599122895867));
#1008=CARTESIAN_POINT('',(0.0705817593113566,0.0751086095172048,0.0619599122895867));
#1009=CARTESIAN_POINT('',(0.0705817593113566,0.0751086095172048,0.0625118015099452));
#1010=CARTESIAN_POINT('',(0.0705817593113566,0.0860139531705696,0.0625118015099452));
#1011=CARTESIAN_POINT('',(0.0705817593113566,0.0969192968239345,0.0625118015099452));
#1012=CARTESIAN_POINT('',(0.0705817593113566,0.0969192968239345,0.0619599122895867));
#1013=CARTESIAN_POINT('',(0.0709188700909981,0.10029195317057,0.0505118015099451));
#1014=CARTESIAN_POINT('',(0.0715538700909981,0.10029195317057,0.0555918015099451));
#1015=CARTESIAN_POINT('',(0.0705817593113566,0.10029195317057,0.0567655036152959));
#1016=CARTESIAN_POINT('',(0.0705817593113566,0.10029195317057,0.0505118015099451));
#1017=CARTESIAN_POINT('',(0.0705817593113566,0.10029195317057,0.05913914516331));
#1018=CARTESIAN_POINT('',(0.0709188700909981,0.10029195317057,0.05913914516331));
#1019=CARTESIAN_POINT('',(0.0709188700909981,0.0860139531705696,0.0625118015099452));
#1020=CARTESIAN_POINT('',(0.0709188700909981,0.0751086095172048,0.0625118015099452));
#1021=CARTESIAN_POINT('',(0.0709188700909981,0.0969192968239345,0.0625118015099452));
#1022=CARTESIAN_POINT('',(0.0709188700909981,0.10029195317057,0.0505118015099451));
#1023=CARTESIAN_POINT('',(0.0709188700909981,0.10029195317057,0.0418844578565803));
#1024=CARTESIAN_POINT('',(0.0705817593113566,0.10029195317057,0.0418844578565803));
#1025=CARTESIAN_POINT('',(0.0705817593113566,0.10029195317057,0.0505118015099451));
#1026=CARTESIAN_POINT('',(0.0705817593113566,0.10029195317057,0.0497972087013438));
#1027=CARTESIAN_POINT('',(0.0715538700909981,0.10029195317057,0.0505118015099451));
#1028=CARTESIAN_POINT('',(0.0705817593113566,0.10029195317057,0.0512263943185465));
#1029=CARTESIAN_POINT('',(0.0705817593113566,0.10029195317057,0.0505118015099451));
#1030=CARTESIAN_POINT('',(0.0705817593113566,0.10029195317057,0.0544180994045944));
#1031=CARTESIAN_POINT('',(0.0715538700909981,0.10029195317057,0.0555918015099451));
#1032=CARTESIAN_POINT('',(0.0715538700909981,0.10028995317057,0.0505118015099451));
#1033=CARTESIAN_POINT('',(0.0715538700909981,0.104176110165212,0.0505118015099451));
#1034=CARTESIAN_POINT('',(0.0715538700909981,0.104176110165212,0.0517183015099451));
#1035=CARTESIAN_POINT('',(0.0705817593113566,0.10029195317057,0.0497972087013438));
#1036=CARTESIAN_POINT('',(0.0704286938336451,0.10029195317057,0.0500054344196596));
#1037=CARTESIAN_POINT('',(0.0702660557404036,0.100187461316234,0.05051237914405));
#1038=CARTESIAN_POINT('',(0.0704286751818092,0.10029195317057,0.0510181432268285));
#1039=CARTESIAN_POINT('',(0.0705817593113566,0.10029195317057,0.0512263943185465));
#1040=CARTESIAN_POINT('',(0.0476778700909981,0.0965139531705697,0.0530118015099452));
#1041=CARTESIAN_POINT('',(0.0476778700909981,0.0965139531705697,0.0405118015099451));
#1042=CARTESIAN_POINT('',(0.0709188700909981,0.0969192968239345,0.05913914516331));
#1043=CARTESIAN_POINT('',(0.0705817593113566,0.0969192968239345,0.05913914516331));
#1044=CARTESIAN_POINT('',(0.0709188700909981,0.0969192968239345,0.0418844578565803));
#1045=CARTESIAN_POINT('',(0.0705817593113566,0.0969192968239345,0.0418844578565803));
#1046=CARTESIAN_POINT('',(0.0715538700909981,0.100712459556205,0.0555918015099451));
#1047=CARTESIAN_POINT('',(0.0715538700909981,0.100710459556205,0.0555918015099451));
#1048=CARTESIAN_POINT('',(0.0715538700909981,0.100710459556205,0.0567348015099451));
#1049=CARTESIAN_POINT('',(0.0715538700909981,0.0952119531705697,0.0555918015099451));
#1050=CARTESIAN_POINT('',(0.0715538700909981,0.0952119531705697,0.0544488015099451));
#1051=CARTESIAN_POINT('',(0.0715538700909981,0.100712459556205,0.0555918015099451));
#1052=CARTESIAN_POINT('',(0.0715538700909981,0.100581685404788,0.0555918015099451));
#1053=CARTESIAN_POINT('',(0.0715538700909981,0.100581685404788,0.0571158015099451));
#1054=CARTESIAN_POINT('',(0.0705817593113566,0.10029195317057,0.0544180994045944));
#1055=CARTESIAN_POINT('',(0.0703911555724506,0.10029195317057,0.0545759656539483));
#1056=CARTESIAN_POINT('',(0.0701122701313703,0.100116298390555,0.0549657455046801));
#1057=CARTESIAN_POINT('',(0.0700298700909981,0.0998660769853942,0.0553823981386443));
#1058=CARTESIAN_POINT('',(0.0700298700909981,0.0997400639502112,0.0555918015099451));
#1059=CARTESIAN_POINT('',(0.0705817593113566,0.10029195317057,0.0567655036152959));
#1060=CARTESIAN_POINT('',(0.0703911555724506,0.10029195317057,0.056607637365942));
#1061=CARTESIAN_POINT('',(0.0701122701313703,0.100116298390556,0.0562178575152097));
#1062=CARTESIAN_POINT('',(0.0700298700909981,0.0998660769853929,0.0558012048812467));
#1063=CARTESIAN_POINT('',(0.0700298700909981,0.0997400639502112,0.0555918015099451));
#1064=CARTESIAN_POINT('',(0.0679698397106527,0.100710459556205,0.062902));
#1065=CARTESIAN_POINT('',(0.0715538700909981,0.100710459556205,0.0555918015099451));
#1066=CARTESIAN_POINT('',(0.0715538700909981,0.100710459556205,0.0569870273585281));
#1067=CARTESIAN_POINT('',(0.0715538700909981,0.100581685404788,0.0555918015099451));
#1068=CARTESIAN_POINT('',(0.0709188700909981,0.0952119531705697,0.0505118015099451));
#1069=CARTESIAN_POINT('',(0.0705817593113566,0.0969192968239345,0.0418844578565803));
#1070=CARTESIAN_POINT('',(0.0705817593113566,0.0997400639502112,0.0418844578565803));
#1071=CARTESIAN_POINT('',(0.0705817593113566,0.0997400639502112,0.0504677609807527));
#1072=CARTESIAN_POINT('',(0.0705817593113566,0.0997400639502112,0.0504677609807527));
#1073=CARTESIAN_POINT('',(0.0705817593113566,0.0997400639502112,0.05913914516331));
#1074=CARTESIAN_POINT('',(0.0705817593113566,0.0969192968239345,0.05913914516331));
#1075=CARTESIAN_POINT('',(0.069648880973944,0.104728001365212,0.062902));
#1076=CARTESIAN_POINT('',(0.0715538700909981,0.104728001365212,0.0505118015099451));
#1077=CARTESIAN_POINT('',(0.0715538700909981,0.104728001365212,0.0511664103099451));
#1078=CARTESIAN_POINT('',(0.0715538700909981,0.104176110165212,0.0505118015099451));
#1079=CARTESIAN_POINT('',(0.0709188700909981,0.0717359531705696,0.0505118015099451));
#1080=CARTESIAN_POINT('',(0.0715538700909981,0.0717359531705696,0.0555918015099451));
#1081=CARTESIAN_POINT('',(0.0705817593113566,0.0717359531705696,0.0567655036152959));
#1082=CARTESIAN_POINT('',(0.0709188700909981,0.0717359531705696,0.05913914516331));
#1083=CARTESIAN_POINT('',(0.0705817593113566,0.0717359531705696,0.05913914516331));
#1084=CARTESIAN_POINT('',(0.0705817593113566,0.0717359531705696,0.0505118015099451));
#1085=CARTESIAN_POINT('',(0.0709188700909981,0.0717359531705696,0.0505118015099451));
#1086=CARTESIAN_POINT('',(0.0709188700909981,0.0717359531705696,0.0418844578565803));
#1087=CARTESIAN_POINT('',(0.0705817593113566,0.0717359531705696,0.0418844578565803));
#1088=CARTESIAN_POINT('',(0.0715538700909981,0.0717359531705696,0.0555918015099451));
#1089=CARTESIAN_POINT('',(0.0705817593113566,0.0717359531705696,0.0544180994045944));
#1090=CARTESIAN_POINT('',(0.0705817593113566,0.0717359531705696,0.0505118015099451));
#1091=CARTESIAN_POINT('',(0.0705817593113566,0.0717359531705696,0.0512263943185465));
#1092=CARTESIAN_POINT('',(0.0715538700909981,0.0717359531705696,0.0505118015099451));
#1093=CARTESIAN_POINT('',(0.0705817593113566,0.0717359531705696,0.0497972087013438));
#1094=CARTESIAN_POINT('',(0.0705817593113566,0.0717359531705696,0.0505118015099451));
#1095=CARTESIAN_POINT('',(0.0715538700909981,0.0717379531705696,0.0505118015099451));
#1096=CARTESIAN_POINT('',(0.0715538700909981,0.0678517961759276,0.0505118015099451));
#1097=CARTESIAN_POINT('',(0.0715538700909981,0.0678517961759276,0.0517183015099451));
#1098=CARTESIAN_POINT('',(0.0705817593113566,0.0717359531705696,0.0497972087013438));
#1099=CARTESIAN_POINT('',(0.0704286938336451,0.0717359531705696,0.0500054344196596));
#1100=CARTESIAN_POINT('',(0.0702660557404036,0.0718404450249053,0.05051237914405));
#1101=CARTESIAN_POINT('',(0.0704286751818092,0.0717359531705696,0.0510181432268285));
#1102=CARTESIAN_POINT('',(0.0705817593113566,0.0717359531705696,0.0512263943185465));
#1103=CARTESIAN_POINT('',(0.0476778700909981,0.0755139531705696,0.0530118015099452));
#1104=CARTESIAN_POINT('',(0.0476778700909981,0.0755139531705696,0.0405118015099451));
#1105=CARTESIAN_POINT('',(0.0709188700909981,0.0751086095172048,0.05913914516331));
#1106=CARTESIAN_POINT('',(0.0705817593113566,0.0751086095172048,0.05913914516331));
#1107=CARTESIAN_POINT('',(0.0709188700909981,0.0751086095172048,0.0418844578565803));
#1108=CARTESIAN_POINT('',(0.0705817593113566,0.0751086095172048,0.0418844578565803));
#1109=CARTESIAN_POINT('',(0.0715538700909981,0.0713154467849339,0.0555918015099451));
#1110=CARTESIAN_POINT('',(0.0715538700909981,0.0713174467849339,0.0555918015099451));
#1111=CARTESIAN_POINT('',(0.0715538700909981,0.0713174467849339,0.0567348015099451));
#1112=CARTESIAN_POINT('',(0.0715538700909981,0.0768159531705696,0.0555918015099451));
#1113=CARTESIAN_POINT('',(0.0715538700909981,0.0768159531705696,0.0544488015099451));
#1114=CARTESIAN_POINT('',(0.0715538700909981,0.0713154467849339,0.0555918015099451));
#1115=CARTESIAN_POINT('',(0.0715538700909981,0.0714462209363509,0.0555918015099451));
#1116=CARTESIAN_POINT('',(0.0715538700909981,0.0714462209363509,0.0571158015099451));
#1117=CARTESIAN_POINT('',(0.0705817593113566,0.0717359531705696,0.0567655036152959));
#1118=CARTESIAN_POINT('',(0.0703911555724506,0.0717359531705696,0.056607637365942));
#1119=CARTESIAN_POINT('',(0.0701122701313703,0.0719116079505834,0.0562178575152097));
#1120=CARTESIAN_POINT('',(0.0700298700909981,0.0721618293557467,0.0558012048812468));
#1121=CARTESIAN_POINT('',(0.0700298700909981,0.0722878423909281,0.0555918015099451));
#1122=CARTESIAN_POINT('',(0.0705817593113566,0.0717359531705696,0.0544180994045944));
#1123=CARTESIAN_POINT('',(0.0703911555724506,0.0717359531705696,0.0545759656539483));
#1124=CARTESIAN_POINT('',(0.0701122701313703,0.0719116079505841,0.0549657455046802));
#1125=CARTESIAN_POINT('',(0.0700298700909981,0.0721618293557454,0.0553823981386441));
#1126=CARTESIAN_POINT('',(0.0700298700909981,0.0722878423909281,0.0555918015099451));
#1127=CARTESIAN_POINT('',(0.0679698397106527,0.0713174467849339,0.062902));
#1128=CARTESIAN_POINT('',(0.0715538700909981,0.0713174467849339,0.0555918015099451));
#1129=CARTESIAN_POINT('',(0.0715538700909981,0.0713174467849339,0.0569870273585281));
#1130=CARTESIAN_POINT('',(0.0715538700909981,0.0714462209363509,0.0555918015099451));
#1131=CARTESIAN_POINT('',(0.0709188700909981,0.0768159531705696,0.0505118015099451));
#1132=CARTESIAN_POINT('',(0.0705817593113566,0.0751086095172048,0.0418844578565803));
#1133=CARTESIAN_POINT('',(0.0705817593113566,0.0722878423909281,0.0418844578565803));
#1134=CARTESIAN_POINT('',(0.0705817593113566,0.0722878423909281,0.0504677609807527));
#1135=CARTESIAN_POINT('',(0.0705817593113566,0.0722878423909281,0.0504677609807527));
#1136=CARTESIAN_POINT('',(0.0705817593113566,0.0722878423909281,0.05913914516331));
#1137=CARTESIAN_POINT('',(0.0705817593113566,0.0751086095172048,0.05913914516331));
#1138=CARTESIAN_POINT('',(0.069648880973944,0.0672999049759276,0.062902));
#1139=CARTESIAN_POINT('',(0.0715538700909981,0.0672999049759276,0.0505118015099451));
#1140=CARTESIAN_POINT('',(0.0715538700909981,0.0672999049759276,0.0511664103099451));
#1141=CARTESIAN_POINT('',(0.0715538700909981,0.0678517961759276,0.0505118015099451));
#1142=MECHANICAL_DESIGN_GEOMETRIC_PRESENTATION_REPRESENTATION('',(#633),#1143);
#1143=(
GEOMETRIC_REPRESENTATION_CONTEXT(3)
GLOBAL_UNCERTAINTY_ASSIGNED_CONTEXT((#1144))
GLOBAL_UNIT_ASSIGNED_CONTEXT((#1147,#1146,#1145))
REPRESENTATION_CONTEXT('Part 6','TOP_LEVEL_ASSEMBLY_PART')
);
#1144=UNCERTAINTY_MEASURE_WITH_UNIT(LENGTH_MEASURE(2.E-05),#1147,'DISTANCE_ACCURACY_VALUE','Maximum Tolerance applied to model');
#1145=(
NAMED_UNIT(*)
SI_UNIT($,.STERADIAN.)
SOLID_ANGLE_UNIT()
);
#1146=(
NAMED_UNIT(*)
PLANE_ANGLE_UNIT()
SI_UNIT($,.RADIAN.)
);
#1147=(
LENGTH_UNIT()
NAMED_UNIT(*)
SI_UNIT($,.METRE.)
);
#1148=PRODUCT_DEFINITION_SHAPE('','',#1149);
#1149=PRODUCT_DEFINITION('','',#1151,#1150);
#1150=PRODUCT_DEFINITION_CONTEXT('',#1157,'design');
#1151=PRODUCT_DEFINITION_FORMATION_WITH_SPECIFIED_SOURCE('','',#1153,.NOT_KNOWN.);
#1152=PRODUCT_RELATED_PRODUCT_CATEGORY('','',(#1153));
#1153=PRODUCT('Part 6','Part 6','Part 6',(#1155));
#1154=PRODUCT_CATEGORY('','');
#1155=PRODUCT_CONTEXT('',#1157,'mechanical');
#1156=APPLICATION_PROTOCOL_DEFINITION('international standard','ap242_managed_model_based_3d_engineering',2020,#1157);
#1157=APPLICATION_CONTEXT('managed model based 3d engineering');
ENDSEC;
END-ISO-10303-21;
