ISO-10303-21;
HEADER;
/*Generated by software containing ST-Developer
 * from STEP Tools, Inc. (www.steptools.com) 
 */
/*OPTION: using custom renumber hook */
/*description */
/*implementation_level */
FILE_DESCRIPTION(('STEP AP242 Edition 2','STEP AP242 Edition 2''CAx-IF Rec.Pracs.---Representation and Presentation of Product Manufa
cturing Information (PMI)---4.0---2014-10-13','STEP AP242 Edition 2''CAx-IF Rec.Pracs.---Representation and Presentation of Product Manufa
cturing Information (PMI)---4.0---2014-10-13''CAx-IF Rec.Pracs.---3D Tessellated Geometry---0.4---2014-09-14','STEP AP242 Edition 2''CAx-IF Rec.Pracs.---Representation and Presentation of Product Manufa
cturing Information (PMI)---4.0---2014-10-13''CAx-IF Rec.Pracs.---3D Tessellated Geometry---0.4---2014-09-14''2;1','STEP AP242 Edition 2''CAx-IF Rec.Pracs.---Representation and Presentation of Product Manufa
cturing Information (PMI)---4.0---2014-10-13''CAx-IF Rec.Pracs.---3D Tessellated Geometry---0.4---2014-09-14''2;1''CAx-IF Rec.Pracs.---User Defined Attributes---1.5---2016-08-15'),'2;1');
/*name */
/*time_stamp */
/*author */
/*organization */
/*preprocessor_version */
/*originating_system */
/*authorisation */
FILE_NAME('/vol/tmp/translate-7429241886374188558/T2-001-V1.2(3D) - Part 2.step','2026-03-24T16:19:43',(''),(''),'ST-DEVELOPER v20','ONSHAPE BY PTC INC, 1.212','  ');
FILE_SCHEMA(('AP242_MANAGED_MODEL_BASED_3D_ENGINEERING_MIM_LF { 1 0 10303 442 3 1 4 }'));
ENDSEC;
DATA;
#10=SHAPE_REPRESENTATION_RELATIONSHIP('','',#861,#11);
#11=ADVANCED_BREP_SHAPE_REPRESENTATION('',(#859),#1423);
#12=CIRCLE('',#865,0.001754);
#13=CIRCLE('',#866,0.001754);
#14=CIRCLE('',#870,0.001754);
#15=CIRCLE('',#871,0.001754);
#16=CIRCLE('',#874,0.0009198102);
#17=CIRCLE('',#875,0.0009198102);
#18=CIRCLE('',#876,0.0009198102);
#19=CIRCLE('',#877,0.0009198102);
#20=CIRCLE('',#878,0.004754);
#21=CIRCLE('',#879,0.004754);
#22=CIRCLE('',#880,0.001524);
#23=CIRCLE('',#881,0.003429);
#24=CIRCLE('',#882,0.003659);
#25=CIRCLE('',#883,0.003659);
#26=CIRCLE('',#884,0.003429);
#27=CIRCLE('',#885,0.003659);
#28=CIRCLE('',#886,0.003659);
#29=CIRCLE('',#887,0.001524);
#30=CIRCLE('',#890,0.004754);
#31=CIRCLE('',#892,0.004754);
#32=CIRCLE('',#897,0.0009198102);
#33=CIRCLE('',#898,0.0009198102);
#34=CIRCLE('',#899,0.0009198102);
#35=CIRCLE('',#900,0.0009198102);
#36=CIRCLE('',#901,0.001524);
#37=CIRCLE('',#902,0.001524);
#38=CIRCLE('',#903,0.003429);
#39=CIRCLE('',#904,0.003659);
#40=CIRCLE('',#905,0.003659);
#41=CIRCLE('',#906,0.003429);
#42=CIRCLE('',#907,0.003659);
#43=CIRCLE('',#908,0.003659);
#44=CYLINDRICAL_SURFACE('',#864,0.001754);
#45=CYLINDRICAL_SURFACE('',#869,0.001754);
#46=CYLINDRICAL_SURFACE('',#889,0.004754);
#47=CYLINDRICAL_SURFACE('',#891,0.004754);
#48=CYLINDRICAL_SURFACE('',#911,0.0009198102);
#49=CYLINDRICAL_SURFACE('',#912,0.0009198102);
#50=CYLINDRICAL_SURFACE('',#913,0.0009198102);
#51=CYLINDRICAL_SURFACE('',#914,0.0009198102);
#52=CYLINDRICAL_SURFACE('',#922,0.001524);
#53=CYLINDRICAL_SURFACE('',#923,0.001524);
#54=CYLINDRICAL_SURFACE('',#925,0.003659);
#55=CYLINDRICAL_SURFACE('',#927,0.003659);
#56=CYLINDRICAL_SURFACE('',#930,0.003429);
#57=CYLINDRICAL_SURFACE('',#933,0.003659);
#58=CYLINDRICAL_SURFACE('',#935,0.003659);
#59=CYLINDRICAL_SURFACE('',#938,0.003429);
#60=ORIENTED_EDGE('',*,*,#296,.F.);
#61=ORIENTED_EDGE('',*,*,#297,.F.);
#62=ORIENTED_EDGE('',*,*,#298,.T.);
#63=ORIENTED_EDGE('',*,*,#299,.T.);
#64=ORIENTED_EDGE('',*,*,#300,.F.);
#65=ORIENTED_EDGE('',*,*,#299,.F.);
#66=ORIENTED_EDGE('',*,*,#301,.T.);
#67=ORIENTED_EDGE('',*,*,#302,.T.);
#68=ORIENTED_EDGE('',*,*,#303,.F.);
#69=ORIENTED_EDGE('',*,*,#302,.F.);
#70=ORIENTED_EDGE('',*,*,#304,.T.);
#71=ORIENTED_EDGE('',*,*,#305,.T.);
#72=ORIENTED_EDGE('',*,*,#306,.F.);
#73=ORIENTED_EDGE('',*,*,#307,.F.);
#74=ORIENTED_EDGE('',*,*,#308,.T.);
#75=ORIENTED_EDGE('',*,*,#309,.T.);
#76=ORIENTED_EDGE('',*,*,#310,.F.);
#77=ORIENTED_EDGE('',*,*,#309,.F.);
#78=ORIENTED_EDGE('',*,*,#311,.T.);
#79=ORIENTED_EDGE('',*,*,#312,.T.);
#80=ORIENTED_EDGE('',*,*,#313,.F.);
#81=ORIENTED_EDGE('',*,*,#312,.F.);
#82=ORIENTED_EDGE('',*,*,#314,.T.);
#83=ORIENTED_EDGE('',*,*,#315,.T.);
#84=ORIENTED_EDGE('',*,*,#316,.F.);
#85=ORIENTED_EDGE('',*,*,#296,.T.);
#86=ORIENTED_EDGE('',*,*,#300,.T.);
#87=ORIENTED_EDGE('',*,*,#303,.T.);
#88=ORIENTED_EDGE('',*,*,#317,.F.);
#89=ORIENTED_EDGE('',*,*,#318,.T.);
#90=ORIENTED_EDGE('',*,*,#306,.T.);
#91=ORIENTED_EDGE('',*,*,#310,.T.);
#92=ORIENTED_EDGE('',*,*,#313,.T.);
#93=ORIENTED_EDGE('',*,*,#319,.T.);
#94=ORIENTED_EDGE('',*,*,#320,.F.);
#95=ORIENTED_EDGE('',*,*,#321,.T.);
#96=ORIENTED_EDGE('',*,*,#322,.F.);
#97=ORIENTED_EDGE('',*,*,#323,.T.);
#98=ORIENTED_EDGE('',*,*,#324,.F.);
#99=ORIENTED_EDGE('',*,*,#325,.T.);
#100=ORIENTED_EDGE('',*,*,#326,.F.);
#101=ORIENTED_EDGE('',*,*,#327,.T.);
#102=ORIENTED_EDGE('',*,*,#328,.F.);
#103=ORIENTED_EDGE('',*,*,#329,.F.);
#104=ORIENTED_EDGE('',*,*,#330,.F.);
#105=ORIENTED_EDGE('',*,*,#331,.F.);
#106=ORIENTED_EDGE('',*,*,#332,.F.);
#107=ORIENTED_EDGE('',*,*,#333,.T.);
#108=ORIENTED_EDGE('',*,*,#334,.T.);
#109=ORIENTED_EDGE('',*,*,#335,.T.);
#110=ORIENTED_EDGE('',*,*,#336,.T.);
#111=ORIENTED_EDGE('',*,*,#337,.T.);
#112=ORIENTED_EDGE('',*,*,#338,.T.);
#113=ORIENTED_EDGE('',*,*,#339,.T.);
#114=ORIENTED_EDGE('',*,*,#340,.T.);
#115=ORIENTED_EDGE('',*,*,#341,.T.);
#116=ORIENTED_EDGE('',*,*,#342,.T.);
#117=ORIENTED_EDGE('',*,*,#343,.T.);
#118=ORIENTED_EDGE('',*,*,#344,.T.);
#119=ORIENTED_EDGE('',*,*,#345,.T.);
#120=ORIENTED_EDGE('',*,*,#346,.T.);
#121=ORIENTED_EDGE('',*,*,#347,.T.);
#122=ORIENTED_EDGE('',*,*,#348,.T.);
#123=ORIENTED_EDGE('',*,*,#349,.F.);
#124=ORIENTED_EDGE('',*,*,#350,.F.);
#125=ORIENTED_EDGE('',*,*,#328,.T.);
#126=ORIENTED_EDGE('',*,*,#351,.T.);
#127=ORIENTED_EDGE('',*,*,#352,.T.);
#128=ORIENTED_EDGE('',*,*,#353,.F.);
#129=ORIENTED_EDGE('',*,*,#329,.T.);
#130=ORIENTED_EDGE('',*,*,#350,.T.);
#131=ORIENTED_EDGE('',*,*,#354,.T.);
#132=ORIENTED_EDGE('',*,*,#351,.F.);
#133=ORIENTED_EDGE('',*,*,#331,.T.);
#134=ORIENTED_EDGE('',*,*,#355,.T.);
#135=ORIENTED_EDGE('',*,*,#356,.T.);
#136=ORIENTED_EDGE('',*,*,#357,.T.);
#137=ORIENTED_EDGE('',*,*,#358,.T.);
#138=ORIENTED_EDGE('',*,*,#320,.T.);
#139=ORIENTED_EDGE('',*,*,#359,.T.);
#140=ORIENTED_EDGE('',*,*,#360,.T.);
#141=ORIENTED_EDGE('',*,*,#361,.T.);
#142=ORIENTED_EDGE('',*,*,#322,.T.);
#143=ORIENTED_EDGE('',*,*,#362,.T.);
#144=ORIENTED_EDGE('',*,*,#326,.T.);
#145=ORIENTED_EDGE('',*,*,#363,.T.);
#146=ORIENTED_EDGE('',*,*,#364,.T.);
#147=ORIENTED_EDGE('',*,*,#365,.T.);
#148=ORIENTED_EDGE('',*,*,#364,.F.);
#149=ORIENTED_EDGE('',*,*,#366,.T.);
#150=ORIENTED_EDGE('',*,*,#367,.F.);
#151=ORIENTED_EDGE('',*,*,#368,.T.);
#152=ORIENTED_EDGE('',*,*,#360,.F.);
#153=ORIENTED_EDGE('',*,*,#369,.T.);
#154=ORIENTED_EDGE('',*,*,#357,.F.);
#155=ORIENTED_EDGE('',*,*,#370,.T.);
#156=ORIENTED_EDGE('',*,*,#356,.F.);
#157=ORIENTED_EDGE('',*,*,#371,.F.);
#158=ORIENTED_EDGE('',*,*,#354,.F.);
#159=ORIENTED_EDGE('',*,*,#352,.F.);
#160=ORIENTED_EDGE('',*,*,#372,.F.);
#161=ORIENTED_EDGE('',*,*,#373,.F.);
#162=ORIENTED_EDGE('',*,*,#374,.T.);
#163=ORIENTED_EDGE('',*,*,#375,.T.);
#164=ORIENTED_EDGE('',*,*,#376,.T.);
#165=ORIENTED_EDGE('',*,*,#377,.T.);
#166=ORIENTED_EDGE('',*,*,#378,.T.);
#167=ORIENTED_EDGE('',*,*,#379,.T.);
#168=ORIENTED_EDGE('',*,*,#380,.T.);
#169=ORIENTED_EDGE('',*,*,#381,.T.);
#170=ORIENTED_EDGE('',*,*,#382,.T.);
#171=ORIENTED_EDGE('',*,*,#383,.T.);
#172=ORIENTED_EDGE('',*,*,#384,.T.);
#173=ORIENTED_EDGE('',*,*,#385,.T.);
#174=ORIENTED_EDGE('',*,*,#386,.T.);
#175=ORIENTED_EDGE('',*,*,#387,.T.);
#176=ORIENTED_EDGE('',*,*,#388,.T.);
#177=ORIENTED_EDGE('',*,*,#389,.T.);
#178=ORIENTED_EDGE('',*,*,#355,.F.);
#179=ORIENTED_EDGE('',*,*,#330,.T.);
#180=ORIENTED_EDGE('',*,*,#353,.T.);
#181=ORIENTED_EDGE('',*,*,#371,.T.);
#182=ORIENTED_EDGE('',*,*,#367,.T.);
#183=ORIENTED_EDGE('',*,*,#390,.T.);
#184=ORIENTED_EDGE('',*,*,#324,.T.);
#185=ORIENTED_EDGE('',*,*,#391,.T.);
#186=ORIENTED_EDGE('',*,*,#325,.F.);
#187=ORIENTED_EDGE('',*,*,#390,.F.);
#188=ORIENTED_EDGE('',*,*,#366,.F.);
#189=ORIENTED_EDGE('',*,*,#363,.F.);
#190=ORIENTED_EDGE('',*,*,#323,.F.);
#191=ORIENTED_EDGE('',*,*,#361,.F.);
#192=ORIENTED_EDGE('',*,*,#368,.F.);
#193=ORIENTED_EDGE('',*,*,#391,.F.);
#194=ORIENTED_EDGE('',*,*,#321,.F.);
#195=ORIENTED_EDGE('',*,*,#358,.F.);
#196=ORIENTED_EDGE('',*,*,#369,.F.);
#197=ORIENTED_EDGE('',*,*,#362,.F.);
#198=ORIENTED_EDGE('',*,*,#327,.F.);
#199=ORIENTED_EDGE('',*,*,#365,.F.);
#200=ORIENTED_EDGE('',*,*,#370,.F.);
#201=ORIENTED_EDGE('',*,*,#359,.F.);
#202=ORIENTED_EDGE('',*,*,#318,.F.);
#203=ORIENTED_EDGE('',*,*,#392,.F.);
#204=ORIENTED_EDGE('',*,*,#393,.F.);
#205=ORIENTED_EDGE('',*,*,#307,.T.);
#206=ORIENTED_EDGE('',*,*,#319,.F.);
#207=ORIENTED_EDGE('',*,*,#315,.F.);
#208=ORIENTED_EDGE('',*,*,#394,.F.);
#209=ORIENTED_EDGE('',*,*,#392,.T.);
#210=ORIENTED_EDGE('',*,*,#394,.T.);
#211=ORIENTED_EDGE('',*,*,#314,.F.);
#212=ORIENTED_EDGE('',*,*,#311,.F.);
#213=ORIENTED_EDGE('',*,*,#308,.F.);
#214=ORIENTED_EDGE('',*,*,#393,.T.);
#215=ORIENTED_EDGE('',*,*,#297,.T.);
#216=ORIENTED_EDGE('',*,*,#316,.T.);
#217=ORIENTED_EDGE('',*,*,#395,.F.);
#218=ORIENTED_EDGE('',*,*,#396,.T.);
#219=ORIENTED_EDGE('',*,*,#395,.T.);
#220=ORIENTED_EDGE('',*,*,#317,.T.);
#221=ORIENTED_EDGE('',*,*,#305,.F.);
#222=ORIENTED_EDGE('',*,*,#397,.T.);
#223=ORIENTED_EDGE('',*,*,#304,.F.);
#224=ORIENTED_EDGE('',*,*,#301,.F.);
#225=ORIENTED_EDGE('',*,*,#298,.F.);
#226=ORIENTED_EDGE('',*,*,#396,.F.);
#227=ORIENTED_EDGE('',*,*,#397,.F.);
#228=ORIENTED_EDGE('',*,*,#334,.F.);
#229=ORIENTED_EDGE('',*,*,#398,.T.);
#230=ORIENTED_EDGE('',*,*,#389,.F.);
#231=ORIENTED_EDGE('',*,*,#399,.F.);
#232=ORIENTED_EDGE('',*,*,#332,.T.);
#233=ORIENTED_EDGE('',*,*,#372,.T.);
#234=ORIENTED_EDGE('',*,*,#349,.T.);
#235=ORIENTED_EDGE('',*,*,#373,.T.);
#236=ORIENTED_EDGE('',*,*,#335,.F.);
#237=ORIENTED_EDGE('',*,*,#399,.T.);
#238=ORIENTED_EDGE('',*,*,#388,.F.);
#239=ORIENTED_EDGE('',*,*,#400,.F.);
#240=ORIENTED_EDGE('',*,*,#336,.F.);
#241=ORIENTED_EDGE('',*,*,#400,.T.);
#242=ORIENTED_EDGE('',*,*,#387,.F.);
#243=ORIENTED_EDGE('',*,*,#401,.F.);
#244=ORIENTED_EDGE('',*,*,#337,.F.);
#245=ORIENTED_EDGE('',*,*,#401,.T.);
#246=ORIENTED_EDGE('',*,*,#386,.F.);
#247=ORIENTED_EDGE('',*,*,#402,.F.);
#248=ORIENTED_EDGE('',*,*,#338,.F.);
#249=ORIENTED_EDGE('',*,*,#402,.T.);
#250=ORIENTED_EDGE('',*,*,#385,.F.);
#251=ORIENTED_EDGE('',*,*,#403,.F.);
#252=ORIENTED_EDGE('',*,*,#339,.F.);
#253=ORIENTED_EDGE('',*,*,#403,.T.);
#254=ORIENTED_EDGE('',*,*,#384,.F.);
#255=ORIENTED_EDGE('',*,*,#404,.F.);
#256=ORIENTED_EDGE('',*,*,#340,.F.);
#257=ORIENTED_EDGE('',*,*,#404,.T.);
#258=ORIENTED_EDGE('',*,*,#383,.F.);
#259=ORIENTED_EDGE('',*,*,#405,.F.);
#260=ORIENTED_EDGE('',*,*,#341,.F.);
#261=ORIENTED_EDGE('',*,*,#405,.T.);
#262=ORIENTED_EDGE('',*,*,#382,.F.);
#263=ORIENTED_EDGE('',*,*,#406,.F.);
#264=ORIENTED_EDGE('',*,*,#342,.F.);
#265=ORIENTED_EDGE('',*,*,#406,.T.);
#266=ORIENTED_EDGE('',*,*,#381,.F.);
#267=ORIENTED_EDGE('',*,*,#407,.F.);
#268=ORIENTED_EDGE('',*,*,#343,.F.);
#269=ORIENTED_EDGE('',*,*,#407,.T.);
#270=ORIENTED_EDGE('',*,*,#380,.F.);
#271=ORIENTED_EDGE('',*,*,#408,.F.);
#272=ORIENTED_EDGE('',*,*,#344,.F.);
#273=ORIENTED_EDGE('',*,*,#408,.T.);
#274=ORIENTED_EDGE('',*,*,#379,.F.);
#275=ORIENTED_EDGE('',*,*,#409,.F.);
#276=ORIENTED_EDGE('',*,*,#345,.F.);
#277=ORIENTED_EDGE('',*,*,#409,.T.);
#278=ORIENTED_EDGE('',*,*,#378,.F.);
#279=ORIENTED_EDGE('',*,*,#410,.F.);
#280=ORIENTED_EDGE('',*,*,#346,.F.);
#281=ORIENTED_EDGE('',*,*,#410,.T.);
#282=ORIENTED_EDGE('',*,*,#377,.F.);
#283=ORIENTED_EDGE('',*,*,#411,.F.);
#284=ORIENTED_EDGE('',*,*,#347,.F.);
#285=ORIENTED_EDGE('',*,*,#411,.T.);
#286=ORIENTED_EDGE('',*,*,#376,.F.);
#287=ORIENTED_EDGE('',*,*,#412,.F.);
#288=ORIENTED_EDGE('',*,*,#348,.F.);
#289=ORIENTED_EDGE('',*,*,#412,.T.);
#290=ORIENTED_EDGE('',*,*,#375,.F.);
#291=ORIENTED_EDGE('',*,*,#413,.F.);
#292=ORIENTED_EDGE('',*,*,#333,.F.);
#293=ORIENTED_EDGE('',*,*,#413,.T.);
#294=ORIENTED_EDGE('',*,*,#374,.F.);
#295=ORIENTED_EDGE('',*,*,#398,.F.);
#296=EDGE_CURVE('',#414,#415,#494,.T.);
#297=EDGE_CURVE('',#416,#414,#495,.T.);
#298=EDGE_CURVE('',#416,#417,#496,.T.);
#299=EDGE_CURVE('',#417,#415,#497,.T.);
#300=EDGE_CURVE('',#415,#418,#12,.T.);
#301=EDGE_CURVE('',#417,#419,#13,.T.);
#302=EDGE_CURVE('',#419,#418,#498,.T.);
#303=EDGE_CURVE('',#418,#420,#499,.T.);
#304=EDGE_CURVE('',#419,#421,#500,.T.);
#305=EDGE_CURVE('',#421,#420,#501,.T.);
#306=EDGE_CURVE('',#422,#423,#502,.T.);
#307=EDGE_CURVE('',#424,#422,#503,.T.);
#308=EDGE_CURVE('',#424,#425,#504,.T.);
#309=EDGE_CURVE('',#425,#423,#505,.T.);
#310=EDGE_CURVE('',#423,#426,#14,.T.);
#311=EDGE_CURVE('',#425,#427,#15,.T.);
#312=EDGE_CURVE('',#427,#426,#506,.T.);
#313=EDGE_CURVE('',#426,#428,#507,.T.);
#314=EDGE_CURVE('',#427,#429,#508,.T.);
#315=EDGE_CURVE('',#429,#428,#509,.T.);
#316=EDGE_CURVE('',#414,#430,#510,.T.);
#317=EDGE_CURVE('',#430,#420,#511,.T.);
#318=EDGE_CURVE('',#431,#422,#512,.T.);
#319=EDGE_CURVE('',#428,#431,#513,.T.);
#320=EDGE_CURVE('',#432,#433,#514,.T.);
#321=EDGE_CURVE('',#432,#434,#16,.T.);
#322=EDGE_CURVE('',#435,#434,#515,.T.);
#323=EDGE_CURVE('',#435,#436,#17,.T.);
#324=EDGE_CURVE('',#437,#436,#516,.T.);
#325=EDGE_CURVE('',#437,#438,#18,.T.);
#326=EDGE_CURVE('',#439,#438,#517,.T.);
#327=EDGE_CURVE('',#439,#433,#19,.T.);
#328=EDGE_CURVE('',#440,#441,#518,.T.);
#329=EDGE_CURVE('',#442,#440,#20,.F.);
#330=EDGE_CURVE('',#443,#442,#519,.T.);
#331=EDGE_CURVE('',#441,#443,#21,.F.);
#332=EDGE_CURVE('',#444,#444,#22,.F.);
#333=EDGE_CURVE('',#445,#446,#23,.F.);
#334=EDGE_CURVE('',#446,#447,#520,.T.);
#335=EDGE_CURVE('',#447,#448,#521,.T.);
#336=EDGE_CURVE('',#448,#449,#24,.F.);
#337=EDGE_CURVE('',#449,#450,#522,.T.);
#338=EDGE_CURVE('',#450,#451,#25,.F.);
#339=EDGE_CURVE('',#451,#452,#523,.T.);
#340=EDGE_CURVE('',#452,#453,#524,.T.);
#341=EDGE_CURVE('',#453,#454,#26,.F.);
#342=EDGE_CURVE('',#454,#455,#525,.T.);
#343=EDGE_CURVE('',#455,#456,#526,.T.);
#344=EDGE_CURVE('',#456,#457,#27,.F.);
#345=EDGE_CURVE('',#457,#458,#527,.T.);
#346=EDGE_CURVE('',#458,#459,#28,.F.);
#347=EDGE_CURVE('',#459,#460,#528,.T.);
#348=EDGE_CURVE('',#460,#445,#529,.T.);
#349=EDGE_CURVE('',#461,#461,#29,.F.);
#350=EDGE_CURVE('',#440,#462,#530,.T.);
#351=EDGE_CURVE('',#441,#463,#531,.T.);
#352=EDGE_CURVE('',#463,#462,#532,.T.);
#353=EDGE_CURVE('',#442,#464,#533,.T.);
#354=EDGE_CURVE('',#462,#464,#30,.T.);
#355=EDGE_CURVE('',#443,#465,#534,.T.);
#356=EDGE_CURVE('',#465,#463,#31,.T.);
#357=EDGE_CURVE('',#466,#467,#535,.T.);
#358=EDGE_CURVE('',#467,#432,#536,.F.);
#359=EDGE_CURVE('',#433,#466,#537,.T.);
#360=EDGE_CURVE('',#468,#469,#538,.T.);
#361=EDGE_CURVE('',#469,#435,#539,.F.);
#362=EDGE_CURVE('',#434,#468,#540,.T.);
#363=EDGE_CURVE('',#438,#470,#541,.T.);
#364=EDGE_CURVE('',#470,#471,#542,.T.);
#365=EDGE_CURVE('',#471,#439,#543,.F.);
#366=EDGE_CURVE('',#470,#472,#32,.F.);
#367=EDGE_CURVE('',#473,#472,#544,.T.);
#368=EDGE_CURVE('',#473,#469,#33,.F.);
#369=EDGE_CURVE('',#468,#467,#34,.F.);
#370=EDGE_CURVE('',#466,#471,#35,.F.);
#371=EDGE_CURVE('',#464,#465,#545,.T.);
#372=EDGE_CURVE('',#474,#474,#36,.T.);
#373=EDGE_CURVE('',#475,#475,#37,.T.);
#374=EDGE_CURVE('',#476,#477,#38,.T.);
#375=EDGE_CURVE('',#477,#478,#546,.T.);
#376=EDGE_CURVE('',#478,#479,#547,.T.);
#377=EDGE_CURVE('',#479,#480,#39,.T.);
#378=EDGE_CURVE('',#480,#481,#548,.T.);
#379=EDGE_CURVE('',#481,#482,#40,.T.);
#380=EDGE_CURVE('',#482,#483,#549,.T.);
#381=EDGE_CURVE('',#483,#484,#550,.T.);
#382=EDGE_CURVE('',#484,#485,#41,.T.);
#383=EDGE_CURVE('',#485,#486,#551,.T.);
#384=EDGE_CURVE('',#486,#487,#552,.T.);
#385=EDGE_CURVE('',#487,#488,#42,.T.);
#386=EDGE_CURVE('',#488,#489,#553,.T.);
#387=EDGE_CURVE('',#489,#490,#43,.T.);
#388=EDGE_CURVE('',#490,#491,#554,.T.);
#389=EDGE_CURVE('',#491,#476,#555,.T.);
#390=EDGE_CURVE('',#472,#437,#556,.F.);
#391=EDGE_CURVE('',#436,#473,#557,.T.);
#392=EDGE_CURVE('',#492,#431,#558,.T.);
#393=EDGE_CURVE('',#424,#492,#559,.T.);
#394=EDGE_CURVE('',#492,#429,#560,.T.);
#395=EDGE_CURVE('',#493,#430,#561,.T.);
#396=EDGE_CURVE('',#493,#416,#562,.T.);
#397=EDGE_CURVE('',#421,#493,#563,.T.);
#398=EDGE_CURVE('',#446,#476,#564,.T.);
#399=EDGE_CURVE('',#447,#491,#565,.T.);
#400=EDGE_CURVE('',#448,#490,#566,.T.);
#401=EDGE_CURVE('',#449,#489,#567,.T.);
#402=EDGE_CURVE('',#450,#488,#568,.T.);
#403=EDGE_CURVE('',#451,#487,#569,.T.);
#404=EDGE_CURVE('',#452,#486,#570,.T.);
#405=EDGE_CURVE('',#453,#485,#571,.T.);
#406=EDGE_CURVE('',#454,#484,#572,.T.);
#407=EDGE_CURVE('',#455,#483,#573,.T.);
#408=EDGE_CURVE('',#456,#482,#574,.T.);
#409=EDGE_CURVE('',#457,#481,#575,.T.);
#410=EDGE_CURVE('',#458,#480,#576,.T.);
#411=EDGE_CURVE('',#459,#479,#577,.T.);
#412=EDGE_CURVE('',#460,#478,#578,.T.);
#413=EDGE_CURVE('',#445,#477,#579,.T.);
#414=VERTEX_POINT('',#1182);
#415=VERTEX_POINT('',#1183);
#416=VERTEX_POINT('',#1185);
#417=VERTEX_POINT('',#1187);
#418=VERTEX_POINT('',#1191);
#419=VERTEX_POINT('',#1193);
#420=VERTEX_POINT('',#1197);
#421=VERTEX_POINT('',#1199);
#422=VERTEX_POINT('',#1203);
#423=VERTEX_POINT('',#1204);
#424=VERTEX_POINT('',#1206);
#425=VERTEX_POINT('',#1208);
#426=VERTEX_POINT('',#1212);
#427=VERTEX_POINT('',#1214);
#428=VERTEX_POINT('',#1218);
#429=VERTEX_POINT('',#1220);
#430=VERTEX_POINT('',#1224);
#431=VERTEX_POINT('',#1227);
#432=VERTEX_POINT('',#1230);
#433=VERTEX_POINT('',#1231);
#434=VERTEX_POINT('',#1233);
#435=VERTEX_POINT('',#1235);
#436=VERTEX_POINT('',#1237);
#437=VERTEX_POINT('',#1239);
#438=VERTEX_POINT('',#1241);
#439=VERTEX_POINT('',#1243);
#440=VERTEX_POINT('',#1246);
#441=VERTEX_POINT('',#1247);
#442=VERTEX_POINT('',#1249);
#443=VERTEX_POINT('',#1251);
#444=VERTEX_POINT('',#1254);
#445=VERTEX_POINT('',#1256);
#446=VERTEX_POINT('',#1257);
#447=VERTEX_POINT('',#1259);
#448=VERTEX_POINT('',#1261);
#449=VERTEX_POINT('',#1263);
#450=VERTEX_POINT('',#1265);
#451=VERTEX_POINT('',#1267);
#452=VERTEX_POINT('',#1269);
#453=VERTEX_POINT('',#1271);
#454=VERTEX_POINT('',#1273);
#455=VERTEX_POINT('',#1275);
#456=VERTEX_POINT('',#1277);
#457=VERTEX_POINT('',#1279);
#458=VERTEX_POINT('',#1281);
#459=VERTEX_POINT('',#1283);
#460=VERTEX_POINT('',#1285);
#461=VERTEX_POINT('',#1288);
#462=VERTEX_POINT('',#1291);
#463=VERTEX_POINT('',#1293);
#464=VERTEX_POINT('',#1297);
#465=VERTEX_POINT('',#1301);
#466=VERTEX_POINT('',#1305);
#467=VERTEX_POINT('',#1306);
#468=VERTEX_POINT('',#1311);
#469=VERTEX_POINT('',#1312);
#470=VERTEX_POINT('',#1317);
#471=VERTEX_POINT('',#1319);
#472=VERTEX_POINT('',#1323);
#473=VERTEX_POINT('',#1325);
#474=VERTEX_POINT('',#1331);
#475=VERTEX_POINT('',#1333);
#476=VERTEX_POINT('',#1335);
#477=VERTEX_POINT('',#1336);
#478=VERTEX_POINT('',#1338);
#479=VERTEX_POINT('',#1340);
#480=VERTEX_POINT('',#1342);
#481=VERTEX_POINT('',#1344);
#482=VERTEX_POINT('',#1346);
#483=VERTEX_POINT('',#1348);
#484=VERTEX_POINT('',#1350);
#485=VERTEX_POINT('',#1352);
#486=VERTEX_POINT('',#1354);
#487=VERTEX_POINT('',#1356);
#488=VERTEX_POINT('',#1358);
#489=VERTEX_POINT('',#1360);
#490=VERTEX_POINT('',#1362);
#491=VERTEX_POINT('',#1364);
#492=VERTEX_POINT('',#1376);
#493=VERTEX_POINT('',#1383);
#494=LINE('',#1181,#580);
#495=LINE('',#1184,#581);
#496=LINE('',#1186,#582);
#497=LINE('',#1188,#583);
#498=LINE('',#1194,#584);
#499=LINE('',#1196,#585);
#500=LINE('',#1198,#586);
#501=LINE('',#1200,#587);
#502=LINE('',#1202,#588);
#503=LINE('',#1205,#589);
#504=LINE('',#1207,#590);
#505=LINE('',#1209,#591);
#506=LINE('',#1215,#592);
#507=LINE('',#1217,#593);
#508=LINE('',#1219,#594);
#509=LINE('',#1221,#595);
#510=LINE('',#1223,#596);
#511=LINE('',#1225,#597);
#512=LINE('',#1226,#598);
#513=LINE('',#1228,#599);
#514=LINE('',#1229,#600);
#515=LINE('',#1234,#601);
#516=LINE('',#1238,#602);
#517=LINE('',#1242,#603);
#518=LINE('',#1245,#604);
#519=LINE('',#1250,#605);
#520=LINE('',#1258,#606);
#521=LINE('',#1260,#607);
#522=LINE('',#1264,#608);
#523=LINE('',#1268,#609);
#524=LINE('',#1270,#610);
#525=LINE('',#1274,#611);
#526=LINE('',#1276,#612);
#527=LINE('',#1280,#613);
#528=LINE('',#1284,#614);
#529=LINE('',#1286,#615);
#530=LINE('',#1290,#616);
#531=LINE('',#1292,#617);
#532=LINE('',#1294,#618);
#533=LINE('',#1296,#619);
#534=LINE('',#1300,#620);
#535=LINE('',#1304,#621);
#536=LINE('',#1307,#622);
#537=LINE('',#1308,#623);
#538=LINE('',#1310,#624);
#539=LINE('',#1313,#625);
#540=LINE('',#1314,#626);
#541=LINE('',#1316,#627);
#542=LINE('',#1318,#628);
#543=LINE('',#1320,#629);
#544=LINE('',#1324,#630);
#545=LINE('',#1329,#631);
#546=LINE('',#1337,#632);
#547=LINE('',#1339,#633);
#548=LINE('',#1343,#634);
#549=LINE('',#1347,#635);
#550=LINE('',#1349,#636);
#551=LINE('',#1353,#637);
#552=LINE('',#1355,#638);
#553=LINE('',#1359,#639);
#554=LINE('',#1363,#640);
#555=LINE('',#1365,#641);
#556=LINE('',#1368,#642);
#557=LINE('',#1369,#643);
#558=LINE('',#1375,#644);
#559=LINE('',#1377,#645);
#560=LINE('',#1379,#646);
#561=LINE('',#1382,#647);
#562=LINE('',#1384,#648);
#563=LINE('',#1386,#649);
#564=LINE('',#1389,#650);
#565=LINE('',#1390,#651);
#566=LINE('',#1394,#652);
#567=LINE('',#1396,#653);
#568=LINE('',#1398,#654);
#569=LINE('',#1400,#655);
#570=LINE('',#1402,#656);
#571=LINE('',#1404,#657);
#572=LINE('',#1406,#658);
#573=LINE('',#1408,#659);
#574=LINE('',#1410,#660);
#575=LINE('',#1412,#661);
#576=LINE('',#1414,#662);
#577=LINE('',#1416,#663);
#578=LINE('',#1418,#664);
#579=LINE('',#1420,#665);
#580=VECTOR('',#943,1.);
#581=VECTOR('',#944,1.);
#582=VECTOR('',#945,1.);
#583=VECTOR('',#946,1.);
#584=VECTOR('',#953,1.);
#585=VECTOR('',#956,1.);
#586=VECTOR('',#957,1.);
#587=VECTOR('',#958,1.);
#588=VECTOR('',#961,1.);
#589=VECTOR('',#962,1.);
#590=VECTOR('',#963,1.);
#591=VECTOR('',#964,1.);
#592=VECTOR('',#971,1.);
#593=VECTOR('',#974,1.);
#594=VECTOR('',#975,1.);
#595=VECTOR('',#976,1.);
#596=VECTOR('',#979,1.);
#597=VECTOR('',#980,1.);
#598=VECTOR('',#981,1.);
#599=VECTOR('',#982,1.);
#600=VECTOR('',#983,1.);
#601=VECTOR('',#986,1.);
#602=VECTOR('',#989,1.);
#603=VECTOR('',#992,1.);
#604=VECTOR('',#995,1.);
#605=VECTOR('',#998,1.);
#606=VECTOR('',#1005,1.);
#607=VECTOR('',#1006,1.);
#608=VECTOR('',#1009,1.);
#609=VECTOR('',#1012,1.);
#610=VECTOR('',#1013,1.);
#611=VECTOR('',#1016,1.);
#612=VECTOR('',#1017,1.);
#613=VECTOR('',#1020,1.);
#614=VECTOR('',#1023,1.);
#615=VECTOR('',#1024,1.);
#616=VECTOR('',#1029,1.);
#617=VECTOR('',#1030,1.);
#618=VECTOR('',#1031,1.);
#619=VECTOR('',#1034,1.);
#620=VECTOR('',#1039,1.);
#621=VECTOR('',#1044,1.);
#622=VECTOR('',#1045,1.);
#623=VECTOR('',#1046,1.);
#624=VECTOR('',#1049,1.);
#625=VECTOR('',#1050,1.);
#626=VECTOR('',#1051,1.);
#627=VECTOR('',#1054,1.);
#628=VECTOR('',#1055,1.);
#629=VECTOR('',#1056,1.);
#630=VECTOR('',#1061,1.);
#631=VECTOR('',#1068,1.);
#632=VECTOR('',#1075,1.);
#633=VECTOR('',#1076,1.);
#634=VECTOR('',#1079,1.);
#635=VECTOR('',#1082,1.);
#636=VECTOR('',#1083,1.);
#637=VECTOR('',#1086,1.);
#638=VECTOR('',#1087,1.);
#639=VECTOR('',#1090,1.);
#640=VECTOR('',#1093,1.);
#641=VECTOR('',#1094,1.);
#642=VECTOR('',#1099,1.);
#643=VECTOR('',#1100,1.);
#644=VECTOR('',#1111,1.);
#645=VECTOR('',#1112,1.);
#646=VECTOR('',#1115,1.);
#647=VECTOR('',#1120,1.);
#648=VECTOR('',#1121,1.);
#649=VECTOR('',#1124,1.);
#650=VECTOR('',#1129,1.);
#651=VECTOR('',#1130,1.);
#652=VECTOR('',#1137,1.);
#653=VECTOR('',#1140,1.);
#654=VECTOR('',#1143,1.);
#655=VECTOR('',#1146,1.);
#656=VECTOR('',#1149,1.);
#657=VECTOR('',#1152,1.);
#658=VECTOR('',#1155,1.);
#659=VECTOR('',#1158,1.);
#660=VECTOR('',#1161,1.);
#661=VECTOR('',#1164,1.);
#662=VECTOR('',#1167,1.);
#663=VECTOR('',#1170,1.);
#664=VECTOR('',#1173,1.);
#665=VECTOR('',#1176,1.);
#666=EDGE_LOOP('',(#60,#61,#62,#63));
#667=EDGE_LOOP('',(#64,#65,#66,#67));
#668=EDGE_LOOP('',(#68,#69,#70,#71));
#669=EDGE_LOOP('',(#72,#73,#74,#75));
#670=EDGE_LOOP('',(#76,#77,#78,#79));
#671=EDGE_LOOP('',(#80,#81,#82,#83));
#672=EDGE_LOOP('',(#84,#85,#86,#87,#88));
#673=EDGE_LOOP('',(#89,#90,#91,#92,#93));
#674=EDGE_LOOP('',(#94,#95,#96,#97,#98,#99,#100,#101));
#675=EDGE_LOOP('',(#102,#103,#104,#105));
#676=EDGE_LOOP('',(#106));
#677=EDGE_LOOP('',(#107,#108,#109,#110,#111,#112,#113,#114,#115,#116,#117,#118,#119,#120,#121,#122));
#678=EDGE_LOOP('',(#123));
#679=EDGE_LOOP('',(#124,#125,#126,#127));
#680=EDGE_LOOP('',(#128,#129,#130,#131));
#681=EDGE_LOOP('',(#132,#133,#134,#135));
#682=EDGE_LOOP('',(#136,#137,#138,#139));
#683=EDGE_LOOP('',(#140,#141,#142,#143));
#684=EDGE_LOOP('',(#144,#145,#146,#147));
#685=EDGE_LOOP('',(#148,#149,#150,#151,#152,#153,#154,#155));
#686=EDGE_LOOP('',(#156,#157,#158,#159));
#687=EDGE_LOOP('',(#160));
#688=EDGE_LOOP('',(#161));
#689=EDGE_LOOP('',(#162,#163,#164,#165,#166,#167,#168,#169,#170,#171,#172,#173,#174,#175,#176,#177));
#690=EDGE_LOOP('',(#178,#179,#180,#181));
#691=EDGE_LOOP('',(#182,#183,#184,#185));
#692=EDGE_LOOP('',(#186,#187,#188,#189));
#693=EDGE_LOOP('',(#190,#191,#192,#193));
#694=EDGE_LOOP('',(#194,#195,#196,#197));
#695=EDGE_LOOP('',(#198,#199,#200,#201));
#696=EDGE_LOOP('',(#202,#203,#204,#205));
#697=EDGE_LOOP('',(#206,#207,#208,#209));
#698=EDGE_LOOP('',(#210,#211,#212,#213,#214));
#699=EDGE_LOOP('',(#215,#216,#217,#218));
#700=EDGE_LOOP('',(#219,#220,#221,#222));
#701=EDGE_LOOP('',(#223,#224,#225,#226,#227));
#702=EDGE_LOOP('',(#228,#229,#230,#231));
#703=EDGE_LOOP('',(#232));
#704=EDGE_LOOP('',(#233));
#705=EDGE_LOOP('',(#234));
#706=EDGE_LOOP('',(#235));
#707=EDGE_LOOP('',(#236,#237,#238,#239));
#708=EDGE_LOOP('',(#240,#241,#242,#243));
#709=EDGE_LOOP('',(#244,#245,#246,#247));
#710=EDGE_LOOP('',(#248,#249,#250,#251));
#711=EDGE_LOOP('',(#252,#253,#254,#255));
#712=EDGE_LOOP('',(#256,#257,#258,#259));
#713=EDGE_LOOP('',(#260,#261,#262,#263));
#714=EDGE_LOOP('',(#264,#265,#266,#267));
#715=EDGE_LOOP('',(#268,#269,#270,#271));
#716=EDGE_LOOP('',(#272,#273,#274,#275));
#717=EDGE_LOOP('',(#276,#277,#278,#279));
#718=EDGE_LOOP('',(#280,#281,#282,#283));
#719=EDGE_LOOP('',(#284,#285,#286,#287));
#720=EDGE_LOOP('',(#288,#289,#290,#291));
#721=EDGE_LOOP('',(#292,#293,#294,#295));
#722=FACE_BOUND('',#666,.T.);
#723=FACE_BOUND('',#667,.T.);
#724=FACE_BOUND('',#668,.T.);
#725=FACE_BOUND('',#669,.T.);
#726=FACE_BOUND('',#670,.T.);
#727=FACE_BOUND('',#671,.T.);
#728=FACE_BOUND('',#672,.T.);
#729=FACE_BOUND('',#673,.T.);
#730=FACE_BOUND('',#674,.T.);
#731=FACE_BOUND('',#675,.T.);
#732=FACE_BOUND('',#676,.T.);
#733=FACE_BOUND('',#677,.T.);
#734=FACE_BOUND('',#678,.T.);
#735=FACE_BOUND('',#679,.T.);
#736=FACE_BOUND('',#680,.T.);
#737=FACE_BOUND('',#681,.T.);
#738=FACE_BOUND('',#682,.T.);
#739=FACE_BOUND('',#683,.T.);
#740=FACE_BOUND('',#684,.T.);
#741=FACE_BOUND('',#685,.T.);
#742=FACE_BOUND('',#686,.T.);
#743=FACE_BOUND('',#687,.T.);
#744=FACE_BOUND('',#688,.T.);
#745=FACE_BOUND('',#689,.T.);
#746=FACE_BOUND('',#690,.T.);
#747=FACE_BOUND('',#691,.T.);
#748=FACE_BOUND('',#692,.T.);
#749=FACE_BOUND('',#693,.T.);
#750=FACE_BOUND('',#694,.T.);
#751=FACE_BOUND('',#695,.T.);
#752=FACE_BOUND('',#696,.T.);
#753=FACE_BOUND('',#697,.T.);
#754=FACE_BOUND('',#698,.T.);
#755=FACE_BOUND('',#699,.T.);
#756=FACE_BOUND('',#700,.T.);
#757=FACE_BOUND('',#701,.T.);
#758=FACE_BOUND('',#702,.T.);
#759=FACE_BOUND('',#703,.T.);
#760=FACE_BOUND('',#704,.T.);
#761=FACE_BOUND('',#705,.T.);
#762=FACE_BOUND('',#706,.T.);
#763=FACE_BOUND('',#707,.T.);
#764=FACE_BOUND('',#708,.T.);
#765=FACE_BOUND('',#709,.T.);
#766=FACE_BOUND('',#710,.T.);
#767=FACE_BOUND('',#711,.T.);
#768=FACE_BOUND('',#712,.T.);
#769=FACE_BOUND('',#713,.T.);
#770=FACE_BOUND('',#714,.T.);
#771=FACE_BOUND('',#715,.T.);
#772=FACE_BOUND('',#716,.T.);
#773=FACE_BOUND('',#717,.T.);
#774=FACE_BOUND('',#718,.T.);
#775=FACE_BOUND('',#719,.T.);
#776=FACE_BOUND('',#720,.T.);
#777=FACE_BOUND('',#721,.T.);
#778=PLANE('',#863);
#779=PLANE('',#867);
#780=PLANE('',#868);
#781=PLANE('',#872);
#782=PLANE('',#873);
#783=PLANE('',#888);
#784=PLANE('',#893);
#785=PLANE('',#894);
#786=PLANE('',#895);
#787=PLANE('',#896);
#788=PLANE('',#909);
#789=PLANE('',#910);
#790=PLANE('',#915);
#791=PLANE('',#916);
#792=PLANE('',#917);
#793=PLANE('',#918);
#794=PLANE('',#919);
#795=PLANE('',#920);
#796=PLANE('',#921);
#797=PLANE('',#924);
#798=PLANE('',#926);
#799=PLANE('',#928);
#800=PLANE('',#929);
#801=PLANE('',#931);
#802=PLANE('',#932);
#803=PLANE('',#934);
#804=PLANE('',#936);
#805=PLANE('',#937);
#806=ADVANCED_FACE('',(#722),#778,.F.);
#807=ADVANCED_FACE('',(#723),#44,.T.);
#808=ADVANCED_FACE('',(#724),#779,.F.);
#809=ADVANCED_FACE('',(#725),#780,.F.);
#810=ADVANCED_FACE('',(#726),#45,.T.);
#811=ADVANCED_FACE('',(#727),#781,.F.);
#812=ADVANCED_FACE('',(#728,#729,#730,#731,#732,#733,#734),#782,.F.);
#813=ADVANCED_FACE('',(#735),#783,.F.);
#814=ADVANCED_FACE('',(#736),#46,.F.);
#815=ADVANCED_FACE('',(#737),#47,.F.);
#816=ADVANCED_FACE('',(#738),#784,.F.);
#817=ADVANCED_FACE('',(#739),#785,.F.);
#818=ADVANCED_FACE('',(#740),#786,.F.);
#819=ADVANCED_FACE('',(#741,#742,#743,#744,#745),#787,.T.);
#820=ADVANCED_FACE('',(#746),#788,.F.);
#821=ADVANCED_FACE('',(#747),#789,.F.);
#822=ADVANCED_FACE('',(#748),#48,.F.);
#823=ADVANCED_FACE('',(#749),#49,.F.);
#824=ADVANCED_FACE('',(#750),#50,.F.);
#825=ADVANCED_FACE('',(#751),#51,.F.);
#826=ADVANCED_FACE('',(#752),#790,.T.);
#827=ADVANCED_FACE('',(#753),#791,.T.);
#828=ADVANCED_FACE('',(#754),#792,.F.);
#829=ADVANCED_FACE('',(#755),#793,.F.);
#830=ADVANCED_FACE('',(#756),#794,.F.);
#831=ADVANCED_FACE('',(#757),#795,.F.);
#832=ADVANCED_FACE('',(#758),#796,.T.);
#833=ADVANCED_FACE('',(#759,#760),#52,.F.);
#834=ADVANCED_FACE('',(#761,#762),#53,.F.);
#835=ADVANCED_FACE('',(#763),#797,.T.);
#836=ADVANCED_FACE('',(#764),#54,.T.);
#837=ADVANCED_FACE('',(#765),#798,.T.);
#838=ADVANCED_FACE('',(#766),#55,.T.);
#839=ADVANCED_FACE('',(#767),#799,.T.);
#840=ADVANCED_FACE('',(#768),#800,.T.);
#841=ADVANCED_FACE('',(#769),#56,.T.);
#842=ADVANCED_FACE('',(#770),#801,.T.);
#843=ADVANCED_FACE('',(#771),#802,.T.);
#844=ADVANCED_FACE('',(#772),#57,.T.);
#845=ADVANCED_FACE('',(#773),#803,.T.);
#846=ADVANCED_FACE('',(#774),#58,.T.);
#847=ADVANCED_FACE('',(#775),#804,.T.);
#848=ADVANCED_FACE('',(#776),#805,.T.);
#849=ADVANCED_FACE('',(#777),#59,.T.);
#850=CLOSED_SHELL('',(#806,#807,#808,#809,#810,#811,#812,#813,#814,#815,#816,#817,#818,#819,#820,#821,#822,#823,#824,#825,#826,#827,#828,#829,#830,#831,#832,#833,#834,#835,#836,#837,#838,#839,#840,#841,#842,#843,#844,#845,#846,#847,#848,#849));
#851=STYLED_ITEM('',(#852),#859);
#852=PRESENTATION_STYLE_ASSIGNMENT((#853));
#853=SURFACE_STYLE_USAGE(.BOTH.,#854);
#854=SURFACE_SIDE_STYLE('',(#855));
#855=SURFACE_STYLE_FILL_AREA(#856);
#856=FILL_AREA_STYLE('',(#857));
#857=FILL_AREA_STYLE_COLOUR('',#858);
#858=COLOUR_RGB('',0.498039215686275,0.498039215686275,0.498039215686275);
#859=MANIFOLD_SOLID_BREP('Part 2',#850);
#860=SHAPE_DEFINITION_REPRESENTATION(#1428,#861);
#861=SHAPE_REPRESENTATION('Part 2',(#862),#1423);
#862=AXIS2_PLACEMENT_3D('',#1179,#939,#940);
#863=AXIS2_PLACEMENT_3D('',#1180,#941,#942);
#864=AXIS2_PLACEMENT_3D('',#1189,#947,#948);
#865=AXIS2_PLACEMENT_3D('',#1190,#949,#950);
#866=AXIS2_PLACEMENT_3D('',#1192,#951,#952);
#867=AXIS2_PLACEMENT_3D('',#1195,#954,#955);
#868=AXIS2_PLACEMENT_3D('',#1201,#959,#960);
#869=AXIS2_PLACEMENT_3D('',#1210,#965,#966);
#870=AXIS2_PLACEMENT_3D('',#1211,#967,#968);
#871=AXIS2_PLACEMENT_3D('',#1213,#969,#970);
#872=AXIS2_PLACEMENT_3D('',#1216,#972,#973);
#873=AXIS2_PLACEMENT_3D('',#1222,#977,#978);
#874=AXIS2_PLACEMENT_3D('',#1232,#984,#985);
#875=AXIS2_PLACEMENT_3D('',#1236,#987,#988);
#876=AXIS2_PLACEMENT_3D('',#1240,#990,#991);
#877=AXIS2_PLACEMENT_3D('',#1244,#993,#994);
#878=AXIS2_PLACEMENT_3D('',#1248,#996,#997);
#879=AXIS2_PLACEMENT_3D('',#1252,#999,#1000);
#880=AXIS2_PLACEMENT_3D('',#1253,#1001,#1002);
#881=AXIS2_PLACEMENT_3D('',#1255,#1003,#1004);
#882=AXIS2_PLACEMENT_3D('',#1262,#1007,#1008);
#883=AXIS2_PLACEMENT_3D('',#1266,#1010,#1011);
#884=AXIS2_PLACEMENT_3D('',#1272,#1014,#1015);
#885=AXIS2_PLACEMENT_3D('',#1278,#1018,#1019);
#886=AXIS2_PLACEMENT_3D('',#1282,#1021,#1022);
#887=AXIS2_PLACEMENT_3D('',#1287,#1025,#1026);
#888=AXIS2_PLACEMENT_3D('',#1289,#1027,#1028);
#889=AXIS2_PLACEMENT_3D('',#1295,#1032,#1033);
#890=AXIS2_PLACEMENT_3D('',#1298,#1035,#1036);
#891=AXIS2_PLACEMENT_3D('',#1299,#1037,#1038);
#892=AXIS2_PLACEMENT_3D('',#1302,#1040,#1041);
#893=AXIS2_PLACEMENT_3D('',#1303,#1042,#1043);
#894=AXIS2_PLACEMENT_3D('',#1309,#1047,#1048);
#895=AXIS2_PLACEMENT_3D('',#1315,#1052,#1053);
#896=AXIS2_PLACEMENT_3D('',#1321,#1057,#1058);
#897=AXIS2_PLACEMENT_3D('',#1322,#1059,#1060);
#898=AXIS2_PLACEMENT_3D('',#1326,#1062,#1063);
#899=AXIS2_PLACEMENT_3D('',#1327,#1064,#1065);
#900=AXIS2_PLACEMENT_3D('',#1328,#1066,#1067);
#901=AXIS2_PLACEMENT_3D('',#1330,#1069,#1070);
#902=AXIS2_PLACEMENT_3D('',#1332,#1071,#1072);
#903=AXIS2_PLACEMENT_3D('',#1334,#1073,#1074);
#904=AXIS2_PLACEMENT_3D('',#1341,#1077,#1078);
#905=AXIS2_PLACEMENT_3D('',#1345,#1080,#1081);
#906=AXIS2_PLACEMENT_3D('',#1351,#1084,#1085);
#907=AXIS2_PLACEMENT_3D('',#1357,#1088,#1089);
#908=AXIS2_PLACEMENT_3D('',#1361,#1091,#1092);
#909=AXIS2_PLACEMENT_3D('',#1366,#1095,#1096);
#910=AXIS2_PLACEMENT_3D('',#1367,#1097,#1098);
#911=AXIS2_PLACEMENT_3D('',#1370,#1101,#1102);
#912=AXIS2_PLACEMENT_3D('',#1371,#1103,#1104);
#913=AXIS2_PLACEMENT_3D('',#1372,#1105,#1106);
#914=AXIS2_PLACEMENT_3D('',#1373,#1107,#1108);
#915=AXIS2_PLACEMENT_3D('',#1374,#1109,#1110);
#916=AXIS2_PLACEMENT_3D('',#1378,#1113,#1114);
#917=AXIS2_PLACEMENT_3D('',#1380,#1116,#1117);
#918=AXIS2_PLACEMENT_3D('',#1381,#1118,#1119);
#919=AXIS2_PLACEMENT_3D('',#1385,#1122,#1123);
#920=AXIS2_PLACEMENT_3D('',#1387,#1125,#1126);
#921=AXIS2_PLACEMENT_3D('',#1388,#1127,#1128);
#922=AXIS2_PLACEMENT_3D('',#1391,#1131,#1132);
#923=AXIS2_PLACEMENT_3D('',#1392,#1133,#1134);
#924=AXIS2_PLACEMENT_3D('',#1393,#1135,#1136);
#925=AXIS2_PLACEMENT_3D('',#1395,#1138,#1139);
#926=AXIS2_PLACEMENT_3D('',#1397,#1141,#1142);
#927=AXIS2_PLACEMENT_3D('',#1399,#1144,#1145);
#928=AXIS2_PLACEMENT_3D('',#1401,#1147,#1148);
#929=AXIS2_PLACEMENT_3D('',#1403,#1150,#1151);
#930=AXIS2_PLACEMENT_3D('',#1405,#1153,#1154);
#931=AXIS2_PLACEMENT_3D('',#1407,#1156,#1157);
#932=AXIS2_PLACEMENT_3D('',#1409,#1159,#1160);
#933=AXIS2_PLACEMENT_3D('',#1411,#1162,#1163);
#934=AXIS2_PLACEMENT_3D('',#1413,#1165,#1166);
#935=AXIS2_PLACEMENT_3D('',#1415,#1168,#1169);
#936=AXIS2_PLACEMENT_3D('',#1417,#1171,#1172);
#937=AXIS2_PLACEMENT_3D('',#1419,#1174,#1175);
#938=AXIS2_PLACEMENT_3D('',#1421,#1177,#1178);
#939=DIRECTION('',(0.,0.,1.));
#940=DIRECTION('',(1.,0.,0.));
#941=DIRECTION('',(-1.,0.,0.));
#942=DIRECTION('',(0.,0.,1.));
#943=DIRECTION('',(0.,0.,-1.));
#944=DIRECTION('',(0.,1.,0.));
#945=DIRECTION('',(0.,0.,-1.));
#946=DIRECTION('',(0.,1.,0.));
#947=DIRECTION('',(0.,1.,0.));
#948=DIRECTION('',(0.,0.,1.));
#949=DIRECTION('',(0.,1.,0.));
#950=DIRECTION('',(0.,0.,1.));
#951=DIRECTION('',(0.,1.,0.));
#952=DIRECTION('',(0.,0.,1.));
#953=DIRECTION('',(0.,1.,0.));
#954=DIRECTION('',(0.,0.,1.));
#955=DIRECTION('',(1.,0.,0.));
#956=DIRECTION('',(-1.,0.,0.));
#957=DIRECTION('',(-1.,0.,0.));
#958=DIRECTION('',(0.,1.,0.));
#959=DIRECTION('',(0.,0.,1.));
#960=DIRECTION('',(1.,0.,0.));
#961=DIRECTION('',(-1.,0.,0.));
#962=DIRECTION('',(0.,1.,0.));
#963=DIRECTION('',(-1.,0.,0.));
#964=DIRECTION('',(0.,1.,0.));
#965=DIRECTION('',(0.,1.,0.));
#966=DIRECTION('',(0.,0.,1.));
#967=DIRECTION('',(0.,1.,0.));
#968=DIRECTION('',(0.,0.,1.));
#969=DIRECTION('',(0.,1.,0.));
#970=DIRECTION('',(0.,0.,1.));
#971=DIRECTION('',(0.,1.,0.));
#972=DIRECTION('',(1.,0.,0.));
#973=DIRECTION('',(0.,0.,-1.));
#974=DIRECTION('',(0.,0.,1.));
#975=DIRECTION('',(0.,0.,1.));
#976=DIRECTION('',(0.,1.,0.));
#977=DIRECTION('',(0.,1.,0.));
#978=DIRECTION('',(1.,0.,0.));
#979=DIRECTION('',(-1.,0.,0.));
#980=DIRECTION('',(0.,0.,-1.));
#981=DIRECTION('',(0.,0.,-1.));
#982=DIRECTION('',(1.,0.,0.));
#983=DIRECTION('',(1.,0.,0.));
#984=DIRECTION('',(0.,1.,0.));
#985=DIRECTION('',(0.,0.,1.));
#986=DIRECTION('',(0.,0.,-1.));
#987=DIRECTION('',(0.,1.,0.));
#988=DIRECTION('',(0.,0.,1.));
#989=DIRECTION('',(-1.,0.,0.));
#990=DIRECTION('',(0.,1.,0.));
#991=DIRECTION('',(0.,0.,1.));
#992=DIRECTION('',(0.,0.,1.));
#993=DIRECTION('',(0.,1.,0.));
#994=DIRECTION('',(0.,0.,1.));
#995=DIRECTION('',(1.,0.,0.));
#996=DIRECTION('',(0.,1.,0.));
#997=DIRECTION('',(0.,0.,1.));
#998=DIRECTION('',(-1.,0.,0.));
#999=DIRECTION('',(0.,1.,0.));
#1000=DIRECTION('',(0.,0.,1.));
#1001=DIRECTION('',(0.,1.,0.));
#1002=DIRECTION('',(0.,0.,1.));
#1003=DIRECTION('',(0.,1.,0.));
#1004=DIRECTION('',(0.,0.,1.));
#1005=DIRECTION('',(0.,0.,-1.));
#1006=DIRECTION('',(-1.,0.,0.));
#1007=DIRECTION('',(0.,1.,0.));
#1008=DIRECTION('',(0.,0.,1.));
#1009=DIRECTION('',(0.,0.,-1.));
#1010=DIRECTION('',(0.,1.,0.));
#1011=DIRECTION('',(0.,0.,1.));
#1012=DIRECTION('',(1.,0.,0.));
#1013=DIRECTION('',(0.,0.,-1.));
#1014=DIRECTION('',(0.,1.,0.));
#1015=DIRECTION('',(0.,0.,1.));
#1016=DIRECTION('',(0.,0.,1.));
#1017=DIRECTION('',(1.,0.,0.));
#1018=DIRECTION('',(0.,1.,0.));
#1019=DIRECTION('',(0.,0.,1.));
#1020=DIRECTION('',(0.,0.,1.));
#1021=DIRECTION('',(0.,1.,0.));
#1022=DIRECTION('',(0.,0.,1.));
#1023=DIRECTION('',(-1.,0.,0.));
#1024=DIRECTION('',(0.,0.,1.));
#1025=DIRECTION('',(0.,1.,0.));
#1026=DIRECTION('',(0.,0.,1.));
#1027=DIRECTION('',(0.,0.,-1.));
#1028=DIRECTION('',(-1.,0.,0.));
#1029=DIRECTION('',(0.,1.,0.));
#1030=DIRECTION('',(0.,1.,0.));
#1031=DIRECTION('',(-1.,0.,0.));
#1032=DIRECTION('',(0.,1.,0.));
#1033=DIRECTION('',(0.,0.,1.));
#1034=DIRECTION('',(0.,1.,0.));
#1035=DIRECTION('',(0.,1.,0.));
#1036=DIRECTION('',(0.,0.,1.));
#1037=DIRECTION('',(0.,1.,0.));
#1038=DIRECTION('',(0.,0.,1.));
#1039=DIRECTION('',(0.,1.,0.));
#1040=DIRECTION('',(0.,1.,0.));
#1041=DIRECTION('',(0.,0.,1.));
#1042=DIRECTION('',(0.,0.,-1.));
#1043=DIRECTION('',(-1.,0.,0.));
#1044=DIRECTION('',(-1.,0.,0.));
#1045=DIRECTION('',(0.,1.,0.));
#1046=DIRECTION('',(0.,1.,0.));
#1047=DIRECTION('',(-1.,0.,0.));
#1048=DIRECTION('',(0.,0.,1.));
#1049=DIRECTION('',(0.,0.,1.));
#1050=DIRECTION('',(0.,1.,0.));
#1051=DIRECTION('',(0.,1.,0.));
#1052=DIRECTION('',(1.,0.,0.));
#1053=DIRECTION('',(0.,0.,-1.));
#1054=DIRECTION('',(0.,1.,0.));
#1055=DIRECTION('',(0.,0.,-1.));
#1056=DIRECTION('',(0.,1.,0.));
#1057=DIRECTION('',(0.,1.,0.));
#1058=DIRECTION('',(-1.,0.,0.));
#1059=DIRECTION('',(0.,1.,0.));
#1060=DIRECTION('',(0.,0.,1.));
#1061=DIRECTION('',(1.,0.,0.));
#1062=DIRECTION('',(0.,1.,0.));
#1063=DIRECTION('',(0.,0.,1.));
#1064=DIRECTION('',(0.,1.,0.));
#1065=DIRECTION('',(0.,0.,1.));
#1066=DIRECTION('',(0.,1.,0.));
#1067=DIRECTION('',(0.,0.,1.));
#1068=DIRECTION('',(1.,0.,0.));
#1069=DIRECTION('',(0.,1.,0.));
#1070=DIRECTION('',(0.,0.,1.));
#1071=DIRECTION('',(0.,1.,0.));
#1072=DIRECTION('',(0.,0.,1.));
#1073=DIRECTION('',(0.,1.,0.));
#1074=DIRECTION('',(0.,0.,1.));
#1075=DIRECTION('',(0.,0.,-1.));
#1076=DIRECTION('',(1.,0.,0.));
#1077=DIRECTION('',(0.,1.,0.));
#1078=DIRECTION('',(0.,0.,1.));
#1079=DIRECTION('',(0.,0.,-1.));
#1080=DIRECTION('',(0.,1.,0.));
#1081=DIRECTION('',(0.,0.,1.));
#1082=DIRECTION('',(-1.,0.,0.));
#1083=DIRECTION('',(0.,0.,-1.));
#1084=DIRECTION('',(0.,1.,0.));
#1085=DIRECTION('',(0.,0.,1.));
#1086=DIRECTION('',(0.,0.,1.));
#1087=DIRECTION('',(-1.,0.,0.));
#1088=DIRECTION('',(0.,1.,0.));
#1089=DIRECTION('',(0.,0.,1.));
#1090=DIRECTION('',(0.,0.,1.));
#1091=DIRECTION('',(0.,1.,0.));
#1092=DIRECTION('',(0.,0.,1.));
#1093=DIRECTION('',(1.,0.,0.));
#1094=DIRECTION('',(0.,0.,1.));
#1095=DIRECTION('',(0.,0.,1.));
#1096=DIRECTION('',(1.,0.,0.));
#1097=DIRECTION('',(0.,0.,1.));
#1098=DIRECTION('',(1.,0.,0.));
#1099=DIRECTION('',(0.,1.,0.));
#1100=DIRECTION('',(0.,1.,0.));
#1101=DIRECTION('',(0.,-1.,0.));
#1102=DIRECTION('',(0.,0.,-1.));
#1103=DIRECTION('',(0.,-1.,0.));
#1104=DIRECTION('',(0.,0.,-1.));
#1105=DIRECTION('',(0.,-1.,0.));
#1106=DIRECTION('',(0.,0.,-1.));
#1107=DIRECTION('',(0.,-1.,0.));
#1108=DIRECTION('',(0.,0.,-1.));
#1109=DIRECTION('',(1.,0.,0.));
#1110=DIRECTION('',(0.,0.,-1.));
#1111=DIRECTION('',(0.,1.,0.));
#1112=DIRECTION('',(0.,0.,1.));
#1113=DIRECTION('',(0.,0.,1.));
#1114=DIRECTION('',(1.,0.,0.));
#1115=DIRECTION('',(-1.,0.,0.));
#1116=DIRECTION('',(0.,1.,0.));
#1117=DIRECTION('',(1.,0.,0.));
#1118=DIRECTION('',(0.,0.,-1.));
#1119=DIRECTION('',(-1.,0.,0.));
#1120=DIRECTION('',(0.,1.,0.));
#1121=DIRECTION('',(1.,0.,0.));
#1122=DIRECTION('',(1.,0.,0.));
#1123=DIRECTION('',(0.,0.,-1.));
#1124=DIRECTION('',(0.,0.,1.));
#1125=DIRECTION('',(0.,1.,0.));
#1126=DIRECTION('',(1.,0.,0.));
#1127=DIRECTION('',(-1.,0.,0.));
#1128=DIRECTION('',(0.,0.,1.));
#1129=DIRECTION('',(0.,1.,0.));
#1130=DIRECTION('',(0.,1.,0.));
#1131=DIRECTION('',(0.,1.,0.));
#1132=DIRECTION('',(0.,0.,1.));
#1133=DIRECTION('',(0.,1.,0.));
#1134=DIRECTION('',(0.,0.,1.));
#1135=DIRECTION('',(0.,0.,1.));
#1136=DIRECTION('',(1.,0.,0.));
#1137=DIRECTION('',(0.,1.,0.));
#1138=DIRECTION('',(0.,1.,0.));
#1139=DIRECTION('',(0.,0.,1.));
#1140=DIRECTION('',(0.,1.,0.));
#1141=DIRECTION('',(-1.,0.,0.));
#1142=DIRECTION('',(0.,0.,1.));
#1143=DIRECTION('',(0.,1.,0.));
#1144=DIRECTION('',(0.,1.,0.));
#1145=DIRECTION('',(0.,0.,1.));
#1146=DIRECTION('',(0.,1.,0.));
#1147=DIRECTION('',(0.,0.,-1.));
#1148=DIRECTION('',(-1.,0.,0.));
#1149=DIRECTION('',(0.,1.,0.));
#1150=DIRECTION('',(-1.,0.,0.));
#1151=DIRECTION('',(0.,0.,1.));
#1152=DIRECTION('',(0.,1.,0.));
#1153=DIRECTION('',(0.,1.,0.));
#1154=DIRECTION('',(0.,0.,1.));
#1155=DIRECTION('',(0.,1.,0.));
#1156=DIRECTION('',(1.,0.,0.));
#1157=DIRECTION('',(0.,0.,-1.));
#1158=DIRECTION('',(0.,1.,0.));
#1159=DIRECTION('',(0.,0.,-1.));
#1160=DIRECTION('',(-1.,0.,0.));
#1161=DIRECTION('',(0.,1.,0.));
#1162=DIRECTION('',(0.,1.,0.));
#1163=DIRECTION('',(0.,0.,1.));
#1164=DIRECTION('',(0.,1.,0.));
#1165=DIRECTION('',(1.,0.,0.));
#1166=DIRECTION('',(0.,0.,-1.));
#1167=DIRECTION('',(0.,1.,0.));
#1168=DIRECTION('',(0.,1.,0.));
#1169=DIRECTION('',(0.,0.,1.));
#1170=DIRECTION('',(0.,1.,0.));
#1171=DIRECTION('',(0.,0.,1.));
#1172=DIRECTION('',(1.,0.,0.));
#1173=DIRECTION('',(0.,1.,0.));
#1174=DIRECTION('',(1.,0.,0.));
#1175=DIRECTION('',(0.,0.,-1.));
#1176=DIRECTION('',(0.,1.,0.));
#1177=DIRECTION('',(0.,1.,0.));
#1178=DIRECTION('',(0.,0.,1.));
#1179=CARTESIAN_POINT('',(0.,0.,0.));
#1180=CARTESIAN_POINT('',(0.012754,0.008498,0.));
#1181=CARTESIAN_POINT('',(0.012754,0.0085,0.));
#1182=CARTESIAN_POINT('',(0.012754,0.0085,-0.0092));
#1183=CARTESIAN_POINT('',(0.012754,0.0085,-0.011));
#1184=CARTESIAN_POINT('',(0.012754,0.000998,-0.0092));
#1185=CARTESIAN_POINT('',(0.012754,0.001,-0.0092));
#1186=CARTESIAN_POINT('',(0.012754,0.001,0.));
#1187=CARTESIAN_POINT('',(0.012754,0.001,-0.011));
#1188=CARTESIAN_POINT('',(0.012754,0.008498,-0.011));
#1189=CARTESIAN_POINT('',(0.011,0.008498,-0.011));
#1190=CARTESIAN_POINT('',(0.011,0.0085,-0.011));
#1191=CARTESIAN_POINT('',(0.011,0.0085,-0.012754));
#1192=CARTESIAN_POINT('',(0.011,0.001,-0.011));
#1193=CARTESIAN_POINT('',(0.011,0.001,-0.012754));
#1194=CARTESIAN_POINT('',(0.011,0.008498,-0.012754));
#1195=CARTESIAN_POINT('',(0.,0.008498,-0.012754));
#1196=CARTESIAN_POINT('',(0.,0.0085,-0.012754));
#1197=CARTESIAN_POINT('',(0.0092,0.0085,-0.012754));
#1198=CARTESIAN_POINT('',(0.,0.001,-0.012754));
#1199=CARTESIAN_POINT('',(0.0092,0.001,-0.012754));
#1200=CARTESIAN_POINT('',(0.0092,0.000998,-0.012754));
#1201=CARTESIAN_POINT('',(0.,0.008498,-0.012754));
#1202=CARTESIAN_POINT('',(0.,0.0085,-0.012754));
#1203=CARTESIAN_POINT('',(-0.0092,0.0085,-0.012754));
#1204=CARTESIAN_POINT('',(-0.011,0.0085,-0.012754));
#1205=CARTESIAN_POINT('',(-0.0092,0.000998,-0.012754));
#1206=CARTESIAN_POINT('',(-0.0092,0.001,-0.012754));
#1207=CARTESIAN_POINT('',(0.,0.001,-0.012754));
#1208=CARTESIAN_POINT('',(-0.011,0.001,-0.012754));
#1209=CARTESIAN_POINT('',(-0.011,0.008498,-0.012754));
#1210=CARTESIAN_POINT('',(-0.011,0.008498,-0.011));
#1211=CARTESIAN_POINT('',(-0.011,0.0085,-0.011));
#1212=CARTESIAN_POINT('',(-0.012754,0.0085,-0.011));
#1213=CARTESIAN_POINT('',(-0.011,0.001,-0.011));
#1214=CARTESIAN_POINT('',(-0.012754,0.001,-0.011));
#1215=CARTESIAN_POINT('',(-0.012754,0.008498,-0.011));
#1216=CARTESIAN_POINT('',(-0.012754,0.008498,0.));
#1217=CARTESIAN_POINT('',(-0.012754,0.0085,0.));
#1218=CARTESIAN_POINT('',(-0.012754,0.0085,-0.0092));
#1219=CARTESIAN_POINT('',(-0.012754,0.001,0.));
#1220=CARTESIAN_POINT('',(-0.012754,0.001,-0.0092));
#1221=CARTESIAN_POINT('',(-0.012754,0.000998,-0.0092));
#1222=CARTESIAN_POINT('',(0.,0.0085,0.00525));
#1223=CARTESIAN_POINT('',(0.,0.0085,-0.0092));
#1224=CARTESIAN_POINT('',(0.0092,0.0085,-0.0092));
#1225=CARTESIAN_POINT('',(0.0092,0.0085,0.00525));
#1226=CARTESIAN_POINT('',(-0.0092,0.0085,0.00525));
#1227=CARTESIAN_POINT('',(-0.0092,0.0085,-0.0092));
#1228=CARTESIAN_POINT('',(0.,0.0085,-0.0092));
#1229=CARTESIAN_POINT('',(0.,0.0085,0.00125));
#1230=CARTESIAN_POINT('',(-0.0030801898,0.0085,0.00125));
#1231=CARTESIAN_POINT('',(0.0030801898,0.0085,0.00125));
#1232=CARTESIAN_POINT('',(-0.0030801898,0.0085,0.0021698102));
#1233=CARTESIAN_POINT('',(-0.004,0.0085,0.0021698102));
#1234=CARTESIAN_POINT('',(-0.004,0.0085,0.00525));
#1235=CARTESIAN_POINT('',(-0.004,0.0085,0.0083301898));
#1236=CARTESIAN_POINT('',(-0.0030801898,0.0085,0.0083301898));
#1237=CARTESIAN_POINT('',(-0.0030801898,0.0085,0.00925));
#1238=CARTESIAN_POINT('',(0.,0.0085,0.00925));
#1239=CARTESIAN_POINT('',(0.0030801898,0.0085,0.00925));
#1240=CARTESIAN_POINT('',(0.0030801898,0.0085,0.0083301898));
#1241=CARTESIAN_POINT('',(0.004,0.0085,0.0083301898));
#1242=CARTESIAN_POINT('',(0.004,0.0085,0.00525));
#1243=CARTESIAN_POINT('',(0.004,0.0085,0.0021698102));
#1244=CARTESIAN_POINT('',(0.0030801898,0.0085,0.0021698102));
#1245=CARTESIAN_POINT('',(-5.63785129692462E-18,0.0085,-0.011254));
#1246=CARTESIAN_POINT('',(-0.0045,0.0085,-0.011254));
#1247=CARTESIAN_POINT('',(0.0045,0.0085,-0.011254));
#1248=CARTESIAN_POINT('',(-0.0045,0.0085,-0.00650000000000162));
#1249=CARTESIAN_POINT('',(-0.00469497692171128,0.0085,-0.00175));
#1250=CARTESIAN_POINT('',(-1.25767452008318E-17,0.0085,-0.00175));
#1251=CARTESIAN_POINT('',(0.00469497692171125,0.0085,-0.00175));
#1252=CARTESIAN_POINT('',(0.0045,0.0085,-0.00650000000000091));
#1253=CARTESIAN_POINT('',(0.,0.0085,0.0171623006463051));
#1254=CARTESIAN_POINT('',(0.,0.0085,0.0186863006463051));
#1255=CARTESIAN_POINT('',(0.,0.0085,0.0171623006463051));
#1256=CARTESIAN_POINT('',(0.003429,0.0085,0.0171623006463051));
#1257=CARTESIAN_POINT('',(-0.003429,0.0085,0.0171623006463051));
#1258=CARTESIAN_POINT('',(-0.003429,0.0085,0.0159106503231526));
#1259=CARTESIAN_POINT('',(-0.003429,0.0085,0.014659));
#1260=CARTESIAN_POINT('',(-0.0072145,0.0085,0.014659));
#1261=CARTESIAN_POINT('',(-0.011,0.0085,0.014659));
#1262=CARTESIAN_POINT('',(-0.011,0.0085,0.011));
#1263=CARTESIAN_POINT('',(-0.014659,0.0085,0.011));
#1264=CARTESIAN_POINT('',(-0.014659,0.0085,0.));
#1265=CARTESIAN_POINT('',(-0.014659,0.0085,-0.011));
#1266=CARTESIAN_POINT('',(-0.011,0.0085,-0.011));
#1267=CARTESIAN_POINT('',(-0.011,0.0085,-0.014659));
#1268=CARTESIAN_POINT('',(-0.0072145,0.0085,-0.014659));
#1269=CARTESIAN_POINT('',(-0.003429,0.0085,-0.014659));
#1270=CARTESIAN_POINT('',(-0.003429,0.0085,-0.0159106503231526));
#1271=CARTESIAN_POINT('',(-0.003429,0.0085,-0.0171623006463051));
#1272=CARTESIAN_POINT('',(0.,0.0085,-0.0171623006463051));
#1273=CARTESIAN_POINT('',(0.003429,0.0085,-0.0171623006463051));
#1274=CARTESIAN_POINT('',(0.003429,0.0085,-0.0159106503231526));
#1275=CARTESIAN_POINT('',(0.003429,0.0085,-0.014659));
#1276=CARTESIAN_POINT('',(0.0072145,0.0085,-0.014659));
#1277=CARTESIAN_POINT('',(0.011,0.0085,-0.014659));
#1278=CARTESIAN_POINT('',(0.011,0.0085,-0.011));
#1279=CARTESIAN_POINT('',(0.014659,0.0085,-0.011));
#1280=CARTESIAN_POINT('',(0.014659,0.0085,0.));
#1281=CARTESIAN_POINT('',(0.014659,0.0085,0.011));
#1282=CARTESIAN_POINT('',(0.011,0.0085,0.011));
#1283=CARTESIAN_POINT('',(0.011,0.0085,0.014659));
#1284=CARTESIAN_POINT('',(0.0072145,0.0085,0.014659));
#1285=CARTESIAN_POINT('',(0.003429,0.0085,0.014659));
#1286=CARTESIAN_POINT('',(0.003429,0.0085,0.0159106503231526));
#1287=CARTESIAN_POINT('',(0.,0.0085,-0.0171623006463051));
#1288=CARTESIAN_POINT('',(0.,0.0085,-0.0156383006463051));
#1289=CARTESIAN_POINT('',(-5.63785129692462E-18,0.008498,-0.011254));
#1290=CARTESIAN_POINT('',(-0.0045,0.008498,-0.011254));
#1291=CARTESIAN_POINT('',(-0.0045,0.0108,-0.011254));
#1292=CARTESIAN_POINT('',(0.0045,0.008498,-0.011254));
#1293=CARTESIAN_POINT('',(0.0045,0.0108,-0.011254));
#1294=CARTESIAN_POINT('',(-5.63785129692462E-18,0.0108,-0.011254));
#1295=CARTESIAN_POINT('',(-0.0045,0.008498,-0.00650000000000162));
#1296=CARTESIAN_POINT('',(-0.00469497692171128,0.008498,-0.00175));
#1297=CARTESIAN_POINT('',(-0.00469497692171128,0.0108,-0.00175));
#1298=CARTESIAN_POINT('',(-0.0045,0.0108,-0.00650000000000162));
#1299=CARTESIAN_POINT('',(0.0045,0.008498,-0.00650000000000091));
#1300=CARTESIAN_POINT('',(0.00469497692171125,0.008498,-0.00175));
#1301=CARTESIAN_POINT('',(0.00469497692171125,0.0108,-0.00175));
#1302=CARTESIAN_POINT('',(0.0045,0.0108,-0.00650000000000091));
#1303=CARTESIAN_POINT('',(0.,0.008498,0.00125));
#1304=CARTESIAN_POINT('',(0.,0.0108,0.00125));
#1305=CARTESIAN_POINT('',(0.0030801898,0.0108,0.00125));
#1306=CARTESIAN_POINT('',(-0.0030801898,0.0108,0.00125));
#1307=CARTESIAN_POINT('',(-0.0030801898,0.0085,0.00125));
#1308=CARTESIAN_POINT('',(0.0030801898,0.0108,0.00125));
#1309=CARTESIAN_POINT('',(-0.004,0.008498,0.00525));
#1310=CARTESIAN_POINT('',(-0.004,0.0108,0.00525));
#1311=CARTESIAN_POINT('',(-0.004,0.0108,0.0021698102));
#1312=CARTESIAN_POINT('',(-0.004,0.0108,0.0083301898));
#1313=CARTESIAN_POINT('',(-0.004,0.0085,0.0083301898));
#1314=CARTESIAN_POINT('',(-0.004,0.0108,0.0021698102));
#1315=CARTESIAN_POINT('',(0.004,0.008498,0.00525));
#1316=CARTESIAN_POINT('',(0.004,0.0108,0.0083301898));
#1317=CARTESIAN_POINT('',(0.004,0.0108,0.0083301898));
#1318=CARTESIAN_POINT('',(0.004,0.0108,0.00525));
#1319=CARTESIAN_POINT('',(0.004,0.0108,0.0021698102));
#1320=CARTESIAN_POINT('',(0.004,0.0085,0.0021698102));
#1321=CARTESIAN_POINT('',(0.,0.0108,0.));
#1322=CARTESIAN_POINT('',(0.0030801898,0.0108,0.0083301898));
#1323=CARTESIAN_POINT('',(0.0030801898,0.0108,0.00925));
#1324=CARTESIAN_POINT('',(0.,0.0108,0.00925));
#1325=CARTESIAN_POINT('',(-0.0030801898,0.0108,0.00925));
#1326=CARTESIAN_POINT('',(-0.0030801898,0.0108,0.0083301898));
#1327=CARTESIAN_POINT('',(-0.0030801898,0.0108,0.0021698102));
#1328=CARTESIAN_POINT('',(0.0030801898,0.0108,0.0021698102));
#1329=CARTESIAN_POINT('',(-1.25767452008318E-17,0.0108,-0.00175));
#1330=CARTESIAN_POINT('',(0.,0.0108,0.0171623006463051));
#1331=CARTESIAN_POINT('',(0.,0.0108,0.0186863006463051));
#1332=CARTESIAN_POINT('',(0.,0.0108,-0.0171623006463051));
#1333=CARTESIAN_POINT('',(0.,0.0108,-0.0156383006463051));
#1334=CARTESIAN_POINT('',(0.,0.0108,0.0171623006463051));
#1335=CARTESIAN_POINT('',(-0.003429,0.0108,0.0171623006463051));
#1336=CARTESIAN_POINT('',(0.003429,0.0108,0.0171623006463051));
#1337=CARTESIAN_POINT('',(0.003429,0.0108,0.0159106503231526));
#1338=CARTESIAN_POINT('',(0.003429,0.0108,0.014659));
#1339=CARTESIAN_POINT('',(0.0072145,0.0108,0.014659));
#1340=CARTESIAN_POINT('',(0.011,0.0108,0.014659));
#1341=CARTESIAN_POINT('',(0.011,0.0108,0.011));
#1342=CARTESIAN_POINT('',(0.014659,0.0108,0.011));
#1343=CARTESIAN_POINT('',(0.014659,0.0108,0.));
#1344=CARTESIAN_POINT('',(0.014659,0.0108,-0.011));
#1345=CARTESIAN_POINT('',(0.011,0.0108,-0.011));
#1346=CARTESIAN_POINT('',(0.011,0.0108,-0.014659));
#1347=CARTESIAN_POINT('',(0.0072145,0.0108,-0.014659));
#1348=CARTESIAN_POINT('',(0.003429,0.0108,-0.014659));
#1349=CARTESIAN_POINT('',(0.003429,0.0108,-0.0159106503231526));
#1350=CARTESIAN_POINT('',(0.003429,0.0108,-0.0171623006463051));
#1351=CARTESIAN_POINT('',(0.,0.0108,-0.0171623006463051));
#1352=CARTESIAN_POINT('',(-0.003429,0.0108,-0.0171623006463051));
#1353=CARTESIAN_POINT('',(-0.003429,0.0108,-0.0159106503231526));
#1354=CARTESIAN_POINT('',(-0.003429,0.0108,-0.014659));
#1355=CARTESIAN_POINT('',(-0.0072145,0.0108,-0.014659));
#1356=CARTESIAN_POINT('',(-0.011,0.0108,-0.014659));
#1357=CARTESIAN_POINT('',(-0.011,0.0108,-0.011));
#1358=CARTESIAN_POINT('',(-0.014659,0.0108,-0.011));
#1359=CARTESIAN_POINT('',(-0.014659,0.0108,0.));
#1360=CARTESIAN_POINT('',(-0.014659,0.0108,0.011));
#1361=CARTESIAN_POINT('',(-0.011,0.0108,0.011));
#1362=CARTESIAN_POINT('',(-0.011,0.0108,0.014659));
#1363=CARTESIAN_POINT('',(-0.0072145,0.0108,0.014659));
#1364=CARTESIAN_POINT('',(-0.003429,0.0108,0.014659));
#1365=CARTESIAN_POINT('',(-0.003429,0.0108,0.0159106503231526));
#1366=CARTESIAN_POINT('',(-1.25767452008318E-17,0.008498,-0.00175));
#1367=CARTESIAN_POINT('',(0.,0.008498,0.00925));
#1368=CARTESIAN_POINT('',(0.0030801898,0.0085,0.00925));
#1369=CARTESIAN_POINT('',(-0.0030801898,0.0108,0.00925));
#1370=CARTESIAN_POINT('',(0.0030801898,0.008498,0.0083301898));
#1371=CARTESIAN_POINT('',(-0.0030801898,0.008498,0.0083301898));
#1372=CARTESIAN_POINT('',(-0.0030801898,0.008498,0.0021698102));
#1373=CARTESIAN_POINT('',(0.0030801898,0.008498,0.0021698102));
#1374=CARTESIAN_POINT('',(-0.0092,0.000998,-0.011727));
#1375=CARTESIAN_POINT('',(-0.0092,0.000998,-0.0092));
#1376=CARTESIAN_POINT('',(-0.0092,0.001,-0.0092));
#1377=CARTESIAN_POINT('',(-0.0092,0.001,-0.011727));
#1378=CARTESIAN_POINT('',(-0.011727,0.000998,-0.0092));
#1379=CARTESIAN_POINT('',(-0.011727,0.001,-0.0092));
#1380=CARTESIAN_POINT('',(0.,0.001,0.));
#1381=CARTESIAN_POINT('',(0.011727,0.000998,-0.0092));
#1382=CARTESIAN_POINT('',(0.0092,0.000998,-0.0092));
#1383=CARTESIAN_POINT('',(0.0092,0.001,-0.0092));
#1384=CARTESIAN_POINT('',(0.011727,0.001,-0.0092));
#1385=CARTESIAN_POINT('',(0.0092,0.000998,-0.011727));
#1386=CARTESIAN_POINT('',(0.0092,0.001,-0.011727));
#1387=CARTESIAN_POINT('',(0.,0.001,0.));
#1388=CARTESIAN_POINT('',(-0.003429,0.008498,0.0159106503231526));
#1389=CARTESIAN_POINT('',(-0.003429,0.008498,0.0171623006463051));
#1390=CARTESIAN_POINT('',(-0.003429,0.008498,0.014659));
#1391=CARTESIAN_POINT('',(0.,0.008498,0.0171623006463051));
#1392=CARTESIAN_POINT('',(0.,0.008498,-0.0171623006463051));
#1393=CARTESIAN_POINT('',(-0.0072145,0.008498,0.014659));
#1394=CARTESIAN_POINT('',(-0.011,0.008498,0.014659));
#1395=CARTESIAN_POINT('',(-0.011,0.008498,0.011));
#1396=CARTESIAN_POINT('',(-0.014659,0.008498,0.011));
#1397=CARTESIAN_POINT('',(-0.014659,0.008498,0.));
#1398=CARTESIAN_POINT('',(-0.014659,0.008498,-0.011));
#1399=CARTESIAN_POINT('',(-0.011,0.008498,-0.011));
#1400=CARTESIAN_POINT('',(-0.011,0.008498,-0.014659));
#1401=CARTESIAN_POINT('',(-0.0072145,0.008498,-0.014659));
#1402=CARTESIAN_POINT('',(-0.003429,0.008498,-0.014659));
#1403=CARTESIAN_POINT('',(-0.003429,0.008498,-0.0159106503231526));
#1404=CARTESIAN_POINT('',(-0.003429,0.008498,-0.0171623006463051));
#1405=CARTESIAN_POINT('',(0.,0.008498,-0.0171623006463051));
#1406=CARTESIAN_POINT('',(0.003429,0.008498,-0.0171623006463051));
#1407=CARTESIAN_POINT('',(0.003429,0.008498,-0.0159106503231526));
#1408=CARTESIAN_POINT('',(0.003429,0.008498,-0.014659));
#1409=CARTESIAN_POINT('',(0.0072145,0.008498,-0.014659));
#1410=CARTESIAN_POINT('',(0.011,0.008498,-0.014659));
#1411=CARTESIAN_POINT('',(0.011,0.008498,-0.011));
#1412=CARTESIAN_POINT('',(0.014659,0.008498,-0.011));
#1413=CARTESIAN_POINT('',(0.014659,0.008498,0.));
#1414=CARTESIAN_POINT('',(0.014659,0.008498,0.011));
#1415=CARTESIAN_POINT('',(0.011,0.008498,0.011));
#1416=CARTESIAN_POINT('',(0.011,0.008498,0.014659));
#1417=CARTESIAN_POINT('',(0.0072145,0.008498,0.014659));
#1418=CARTESIAN_POINT('',(0.003429,0.008498,0.014659));
#1419=CARTESIAN_POINT('',(0.003429,0.008498,0.0159106503231526));
#1420=CARTESIAN_POINT('',(0.003429,0.008498,0.0171623006463051));
#1421=CARTESIAN_POINT('',(0.,0.008498,0.0171623006463051));
#1422=MECHANICAL_DESIGN_GEOMETRIC_PRESENTATION_REPRESENTATION('',(#851),#1423);
#1423=(
GEOMETRIC_REPRESENTATION_CONTEXT(3)
GLOBAL_UNCERTAINTY_ASSIGNED_CONTEXT((#1424))
GLOBAL_UNIT_ASSIGNED_CONTEXT((#1427,#1426,#1425))
REPRESENTATION_CONTEXT('Part 2','TOP_LEVEL_ASSEMBLY_PART')
);
#1424=UNCERTAINTY_MEASURE_WITH_UNIT(LENGTH_MEASURE(1.E-08),#1427,'DISTANCE_ACCURACY_VALUE','Maximum Tolerance applied to model');
#1425=(
NAMED_UNIT(*)
SI_UNIT($,.STERADIAN.)
SOLID_ANGLE_UNIT()
);
#1426=(
NAMED_UNIT(*)
PLANE_ANGLE_UNIT()
SI_UNIT($,.RADIAN.)
);
#1427=(
LENGTH_UNIT()
NAMED_UNIT(*)
SI_UNIT($,.METRE.)
);
#1428=PRODUCT_DEFINITION_SHAPE('','',#1429);
#1429=PRODUCT_DEFINITION('','',#1431,#1430);
#1430=PRODUCT_DEFINITION_CONTEXT('',#1437,'design');
#1431=PRODUCT_DEFINITION_FORMATION_WITH_SPECIFIED_SOURCE('','',#1433,.NOT_KNOWN.);
#1432=PRODUCT_RELATED_PRODUCT_CATEGORY('','',(#1433));
#1433=PRODUCT('Part 2','Part 2','Part 2',(#1435));
#1434=PRODUCT_CATEGORY('','');
#1435=PRODUCT_CONTEXT('',#1437,'mechanical');
#1436=APPLICATION_PROTOCOL_DEFINITION('international standard','ap242_managed_model_based_3d_engineering',2020,#1437);
#1437=APPLICATION_CONTEXT('managed model based 3d engineering');
ENDSEC;
END-ISO-10303-21;
