ISO-10303-21;
HEADER;
/*Generated by software containing ST-Developer
 * from STEP Tools, Inc. (www.steptools.com) 
 */
/*OPTION: using custom renumber hook */
/*description */
/*implementation_level */
FILE_DESCRIPTION(('STEP AP242 Edition 2','STEP AP242 Edition 2''CAx-IF Rec.Pracs.---Representation and Presentation of Product Manufa
cturing Information (PMI)---4.0---2014-10-13','STEP AP242 Edition 2''CAx-IF Rec.Pracs.---Representation and Presentation of Product Manufa
cturing Information (PMI)---4.0---2014-10-13''CAx-IF Rec.Pracs.---3D Tessellated Geometry---0.4---2014-09-14','STEP AP242 Edition 2''CAx-IF Rec.Pracs.---Representation and Presentation of Product Manufa
cturing Information (PMI)---4.0---2014-10-13''CAx-IF Rec.Pracs.---3D Tessellated Geometry---0.4---2014-09-14''2;1','STEP AP242 Edition 2''CAx-IF Rec.Pracs.---Representation and Presentation of Product Manufa
cturing Information (PMI)---4.0---2014-10-13''CAx-IF Rec.Pracs.---3D Tessellated Geometry---0.4---2014-09-14''2;1''CAx-IF Rec.Pracs.---User Defined Attributes---1.5---2016-08-15'),'2;1');
/*name */
/*time_stamp */
/*author */
/*organization */
/*preprocessor_version */
/*originating_system */
/*authorisation */
FILE_NAME('/vol/tmp/translate-17401006673883106666/T2-001-V1.2(3D) - Part 2.step','2026-03-19T17:00:07',(''),(''),'ST-DEVELOPER v20','ONSHAPE BY PTC INC, 1.212','  ');
FILE_SCHEMA(('AP242_MANAGED_MODEL_BASED_3D_ENGINEERING_MIM_LF { 1 0 10303 442 3 1 4 }'));
ENDSEC;
DATA;
#10=SHAPE_REPRESENTATION_RELATIONSHIP('','',#1099,#11);
#11=ADVANCED_BREP_SHAPE_REPRESENTATION('',(#1097),#1825);
#12=CYLINDRICAL_SURFACE('',#1122,0.003659);
#13=CYLINDRICAL_SURFACE('',#1126,0.003659);
#14=CYLINDRICAL_SURFACE('',#1130,0.003659);
#15=CYLINDRICAL_SURFACE('',#1133,0.001754);
#16=CYLINDRICAL_SURFACE('',#1135,0.001754);
#17=CYLINDRICAL_SURFACE('',#1138,0.001754);
#18=CYLINDRICAL_SURFACE('',#1145,0.003659);
#19=CYLINDRICAL_SURFACE('',#1147,0.001754);
#20=CYLINDRICAL_SURFACE('',#1161,0.004754);
#21=CYLINDRICAL_SURFACE('',#1162,0.004754);
#22=CYLINDRICAL_SURFACE('',#1172,0.000919815367264149);
#23=CYLINDRICAL_SURFACE('',#1173,0.000919815367264149);
#24=CYLINDRICAL_SURFACE('',#1174,0.000919815367264149);
#25=CYLINDRICAL_SURFACE('',#1175,0.000919815367264149);
#26=CYLINDRICAL_SURFACE('',#1176,0.0009198102);
#27=CYLINDRICAL_SURFACE('',#1177,0.0009198102);
#28=CYLINDRICAL_SURFACE('',#1178,0.0009198102);
#29=CYLINDRICAL_SURFACE('',#1179,0.0009198102);
#30=CYLINDRICAL_SURFACE('',#1187,0.003429);
#31=CYLINDRICAL_SURFACE('',#1189,0.001524);
#32=CYLINDRICAL_SURFACE('',#1194,0.003429);
#33=CYLINDRICAL_SURFACE('',#1197,0.001524);
#34=CIRCLE('',#1104,0.001754);
#35=CIRCLE('',#1105,0.001754);
#36=CIRCLE('',#1106,0.0009198102);
#37=CIRCLE('',#1107,0.0009198102);
#38=CIRCLE('',#1108,0.0009198102);
#39=CIRCLE('',#1109,0.0009198102);
#40=CIRCLE('',#1110,0.004754);
#41=CIRCLE('',#1111,0.004754);
#42=CIRCLE('',#1113,0.000919815367264149);
#43=CIRCLE('',#1114,0.000919815367264149);
#44=CIRCLE('',#1115,0.000919815367264149);
#45=CIRCLE('',#1116,0.000919815367264149);
#46=CIRCLE('',#1118,0.000919815367264149);
#47=CIRCLE('',#1119,0.000919815367264149);
#48=CIRCLE('',#1120,0.000919815367264149);
#49=CIRCLE('',#1121,0.000919815367264149);
#50=CIRCLE('',#1123,0.003659);
#51=CIRCLE('',#1124,0.003659);
#52=CIRCLE('',#1127,0.003659);
#53=CIRCLE('',#1128,0.003659);
#54=CIRCLE('',#1131,0.003659);
#55=CIRCLE('',#1132,0.003659);
#56=CIRCLE('',#1134,0.001754);
#57=CIRCLE('',#1136,0.001754);
#58=CIRCLE('',#1137,0.001754);
#59=CIRCLE('',#1139,0.001754);
#60=CIRCLE('',#1140,0.001754);
#61=CIRCLE('',#1142,0.001754);
#62=CIRCLE('',#1143,0.003659);
#63=CIRCLE('',#1146,0.003659);
#64=CIRCLE('',#1150,0.003429);
#65=CIRCLE('',#1151,0.003429);
#66=CIRCLE('',#1152,0.004754);
#67=CIRCLE('',#1153,0.004754);
#68=CIRCLE('',#1154,0.0009198102);
#69=CIRCLE('',#1155,0.0009198102);
#70=CIRCLE('',#1156,0.0009198102);
#71=CIRCLE('',#1157,0.0009198102);
#72=CIRCLE('',#1158,0.001524);
#73=CIRCLE('',#1159,0.001524);
#74=CIRCLE('',#1188,0.003429);
#75=CIRCLE('',#1190,0.001524);
#76=CIRCLE('',#1195,0.003429);
#77=CIRCLE('',#1198,0.001524);
#78=ORIENTED_EDGE('',*,*,#386,.F.);
#79=ORIENTED_EDGE('',*,*,#387,.T.);
#80=ORIENTED_EDGE('',*,*,#388,.T.);
#81=ORIENTED_EDGE('',*,*,#389,.T.);
#82=ORIENTED_EDGE('',*,*,#390,.F.);
#83=ORIENTED_EDGE('',*,*,#391,.T.);
#84=ORIENTED_EDGE('',*,*,#392,.F.);
#85=ORIENTED_EDGE('',*,*,#393,.T.);
#86=ORIENTED_EDGE('',*,*,#394,.T.);
#87=ORIENTED_EDGE('',*,*,#395,.T.);
#88=ORIENTED_EDGE('',*,*,#396,.F.);
#89=ORIENTED_EDGE('',*,*,#397,.T.);
#90=ORIENTED_EDGE('',*,*,#398,.T.);
#91=ORIENTED_EDGE('',*,*,#399,.T.);
#92=ORIENTED_EDGE('',*,*,#400,.F.);
#93=ORIENTED_EDGE('',*,*,#391,.F.);
#94=ORIENTED_EDGE('',*,*,#401,.F.);
#95=ORIENTED_EDGE('',*,*,#402,.F.);
#96=ORIENTED_EDGE('',*,*,#403,.F.);
#97=ORIENTED_EDGE('',*,*,#404,.F.);
#98=ORIENTED_EDGE('',*,*,#405,.T.);
#99=ORIENTED_EDGE('',*,*,#406,.T.);
#100=ORIENTED_EDGE('',*,*,#395,.F.);
#101=ORIENTED_EDGE('',*,*,#407,.F.);
#102=ORIENTED_EDGE('',*,*,#408,.F.);
#103=ORIENTED_EDGE('',*,*,#409,.T.);
#104=ORIENTED_EDGE('',*,*,#410,.F.);
#105=ORIENTED_EDGE('',*,*,#411,.T.);
#106=ORIENTED_EDGE('',*,*,#412,.F.);
#107=ORIENTED_EDGE('',*,*,#413,.T.);
#108=ORIENTED_EDGE('',*,*,#414,.F.);
#109=ORIENTED_EDGE('',*,*,#415,.T.);
#110=ORIENTED_EDGE('',*,*,#416,.F.);
#111=ORIENTED_EDGE('',*,*,#417,.F.);
#112=ORIENTED_EDGE('',*,*,#418,.F.);
#113=ORIENTED_EDGE('',*,*,#419,.F.);
#114=ORIENTED_EDGE('',*,*,#420,.F.);
#115=ORIENTED_EDGE('',*,*,#402,.T.);
#116=ORIENTED_EDGE('',*,*,#421,.T.);
#117=ORIENTED_EDGE('',*,*,#422,.T.);
#118=ORIENTED_EDGE('',*,*,#423,.F.);
#119=ORIENTED_EDGE('',*,*,#424,.T.);
#120=ORIENTED_EDGE('',*,*,#425,.T.);
#121=ORIENTED_EDGE('',*,*,#426,.T.);
#122=ORIENTED_EDGE('',*,*,#427,.T.);
#123=ORIENTED_EDGE('',*,*,#428,.T.);
#124=ORIENTED_EDGE('',*,*,#429,.F.);
#125=ORIENTED_EDGE('',*,*,#430,.T.);
#126=ORIENTED_EDGE('',*,*,#431,.F.);
#127=ORIENTED_EDGE('',*,*,#432,.T.);
#128=ORIENTED_EDGE('',*,*,#433,.T.);
#129=ORIENTED_EDGE('',*,*,#434,.T.);
#130=ORIENTED_EDGE('',*,*,#435,.T.);
#131=ORIENTED_EDGE('',*,*,#436,.F.);
#132=ORIENTED_EDGE('',*,*,#437,.F.);
#133=ORIENTED_EDGE('',*,*,#438,.T.);
#134=ORIENTED_EDGE('',*,*,#439,.F.);
#135=ORIENTED_EDGE('',*,*,#440,.T.);
#136=ORIENTED_EDGE('',*,*,#441,.T.);
#137=ORIENTED_EDGE('',*,*,#442,.T.);
#138=ORIENTED_EDGE('',*,*,#443,.T.);
#139=ORIENTED_EDGE('',*,*,#444,.T.);
#140=ORIENTED_EDGE('',*,*,#445,.F.);
#141=ORIENTED_EDGE('',*,*,#446,.T.);
#142=ORIENTED_EDGE('',*,*,#435,.F.);
#143=ORIENTED_EDGE('',*,*,#447,.T.);
#144=ORIENTED_EDGE('',*,*,#448,.T.);
#145=ORIENTED_EDGE('',*,*,#449,.F.);
#146=ORIENTED_EDGE('',*,*,#448,.F.);
#147=ORIENTED_EDGE('',*,*,#450,.T.);
#148=ORIENTED_EDGE('',*,*,#451,.T.);
#149=ORIENTED_EDGE('',*,*,#452,.F.);
#150=ORIENTED_EDGE('',*,*,#451,.F.);
#151=ORIENTED_EDGE('',*,*,#453,.T.);
#152=ORIENTED_EDGE('',*,*,#454,.T.);
#153=ORIENTED_EDGE('',*,*,#455,.F.);
#154=ORIENTED_EDGE('',*,*,#456,.F.);
#155=ORIENTED_EDGE('',*,*,#457,.T.);
#156=ORIENTED_EDGE('',*,*,#458,.T.);
#157=ORIENTED_EDGE('',*,*,#459,.T.);
#158=ORIENTED_EDGE('',*,*,#460,.T.);
#159=ORIENTED_EDGE('',*,*,#461,.F.);
#160=ORIENTED_EDGE('',*,*,#454,.F.);
#161=ORIENTED_EDGE('',*,*,#462,.T.);
#162=ORIENTED_EDGE('',*,*,#460,.F.);
#163=ORIENTED_EDGE('',*,*,#463,.T.);
#164=ORIENTED_EDGE('',*,*,#464,.T.);
#165=ORIENTED_EDGE('',*,*,#465,.F.);
#166=ORIENTED_EDGE('',*,*,#421,.F.);
#167=ORIENTED_EDGE('',*,*,#401,.T.);
#168=ORIENTED_EDGE('',*,*,#390,.T.);
#169=ORIENTED_EDGE('',*,*,#466,.T.);
#170=ORIENTED_EDGE('',*,*,#388,.F.);
#171=ORIENTED_EDGE('',*,*,#467,.T.);
#172=ORIENTED_EDGE('',*,*,#392,.T.);
#173=ORIENTED_EDGE('',*,*,#468,.T.);
#174=ORIENTED_EDGE('',*,*,#398,.F.);
#175=ORIENTED_EDGE('',*,*,#469,.T.);
#176=ORIENTED_EDGE('',*,*,#470,.T.);
#177=ORIENTED_EDGE('',*,*,#471,.T.);
#178=ORIENTED_EDGE('',*,*,#472,.F.);
#179=ORIENTED_EDGE('',*,*,#422,.F.);
#180=ORIENTED_EDGE('',*,*,#466,.F.);
#181=ORIENTED_EDGE('',*,*,#389,.F.);
#182=ORIENTED_EDGE('',*,*,#468,.F.);
#183=ORIENTED_EDGE('',*,*,#399,.F.);
#184=ORIENTED_EDGE('',*,*,#471,.F.);
#185=ORIENTED_EDGE('',*,*,#473,.F.);
#186=ORIENTED_EDGE('',*,*,#436,.T.);
#187=ORIENTED_EDGE('',*,*,#449,.T.);
#188=ORIENTED_EDGE('',*,*,#452,.T.);
#189=ORIENTED_EDGE('',*,*,#455,.T.);
#190=ORIENTED_EDGE('',*,*,#461,.T.);
#191=ORIENTED_EDGE('',*,*,#465,.T.);
#192=ORIENTED_EDGE('',*,*,#474,.T.);
#193=ORIENTED_EDGE('',*,*,#475,.T.);
#194=ORIENTED_EDGE('',*,*,#464,.F.);
#195=ORIENTED_EDGE('',*,*,#476,.T.);
#196=ORIENTED_EDGE('',*,*,#477,.T.);
#197=ORIENTED_EDGE('',*,*,#474,.F.);
#198=ORIENTED_EDGE('',*,*,#477,.F.);
#199=ORIENTED_EDGE('',*,*,#478,.T.);
#200=ORIENTED_EDGE('',*,*,#437,.T.);
#201=ORIENTED_EDGE('',*,*,#475,.F.);
#202=ORIENTED_EDGE('',*,*,#479,.F.);
#203=ORIENTED_EDGE('',*,*,#403,.T.);
#204=ORIENTED_EDGE('',*,*,#420,.T.);
#205=ORIENTED_EDGE('',*,*,#472,.T.);
#206=ORIENTED_EDGE('',*,*,#470,.F.);
#207=ORIENTED_EDGE('',*,*,#480,.T.);
#208=ORIENTED_EDGE('',*,*,#481,.T.);
#209=ORIENTED_EDGE('',*,*,#404,.T.);
#210=ORIENTED_EDGE('',*,*,#479,.T.);
#211=ORIENTED_EDGE('',*,*,#473,.T.);
#212=ORIENTED_EDGE('',*,*,#438,.F.);
#213=ORIENTED_EDGE('',*,*,#478,.F.);
#214=ORIENTED_EDGE('',*,*,#476,.F.);
#215=ORIENTED_EDGE('',*,*,#463,.F.);
#216=ORIENTED_EDGE('',*,*,#459,.F.);
#217=ORIENTED_EDGE('',*,*,#482,.T.);
#218=ORIENTED_EDGE('',*,*,#483,.F.);
#219=ORIENTED_EDGE('',*,*,#484,.T.);
#220=ORIENTED_EDGE('',*,*,#462,.F.);
#221=ORIENTED_EDGE('',*,*,#453,.F.);
#222=ORIENTED_EDGE('',*,*,#450,.F.);
#223=ORIENTED_EDGE('',*,*,#447,.F.);
#224=ORIENTED_EDGE('',*,*,#434,.F.);
#225=ORIENTED_EDGE('',*,*,#485,.F.);
#226=ORIENTED_EDGE('',*,*,#486,.T.);
#227=ORIENTED_EDGE('',*,*,#487,.F.);
#228=ORIENTED_EDGE('',*,*,#488,.F.);
#229=ORIENTED_EDGE('',*,*,#489,.F.);
#230=ORIENTED_EDGE('',*,*,#490,.F.);
#231=ORIENTED_EDGE('',*,*,#491,.F.);
#232=ORIENTED_EDGE('',*,*,#492,.F.);
#233=ORIENTED_EDGE('',*,*,#493,.T.);
#234=ORIENTED_EDGE('',*,*,#494,.F.);
#235=ORIENTED_EDGE('',*,*,#495,.T.);
#236=ORIENTED_EDGE('',*,*,#496,.F.);
#237=ORIENTED_EDGE('',*,*,#497,.T.);
#238=ORIENTED_EDGE('',*,*,#498,.F.);
#239=ORIENTED_EDGE('',*,*,#499,.T.);
#240=ORIENTED_EDGE('',*,*,#500,.F.);
#241=ORIENTED_EDGE('',*,*,#501,.F.);
#242=ORIENTED_EDGE('',*,*,#502,.F.);
#243=ORIENTED_EDGE('',*,*,#416,.T.);
#244=ORIENTED_EDGE('',*,*,#503,.T.);
#245=ORIENTED_EDGE('',*,*,#491,.T.);
#246=ORIENTED_EDGE('',*,*,#504,.F.);
#247=ORIENTED_EDGE('',*,*,#417,.T.);
#248=ORIENTED_EDGE('',*,*,#502,.T.);
#249=ORIENTED_EDGE('',*,*,#490,.T.);
#250=ORIENTED_EDGE('',*,*,#503,.F.);
#251=ORIENTED_EDGE('',*,*,#419,.T.);
#252=ORIENTED_EDGE('',*,*,#505,.T.);
#253=ORIENTED_EDGE('',*,*,#488,.T.);
#254=ORIENTED_EDGE('',*,*,#498,.T.);
#255=ORIENTED_EDGE('',*,*,#506,.T.);
#256=ORIENTED_EDGE('',*,*,#408,.T.);
#257=ORIENTED_EDGE('',*,*,#507,.T.);
#258=ORIENTED_EDGE('',*,*,#496,.T.);
#259=ORIENTED_EDGE('',*,*,#508,.T.);
#260=ORIENTED_EDGE('',*,*,#410,.T.);
#261=ORIENTED_EDGE('',*,*,#509,.T.);
#262=ORIENTED_EDGE('',*,*,#414,.T.);
#263=ORIENTED_EDGE('',*,*,#510,.T.);
#264=ORIENTED_EDGE('',*,*,#492,.T.);
#265=ORIENTED_EDGE('',*,*,#511,.T.);
#266=ORIENTED_EDGE('',*,*,#505,.F.);
#267=ORIENTED_EDGE('',*,*,#418,.T.);
#268=ORIENTED_EDGE('',*,*,#504,.T.);
#269=ORIENTED_EDGE('',*,*,#489,.T.);
#270=ORIENTED_EDGE('',*,*,#494,.T.);
#271=ORIENTED_EDGE('',*,*,#512,.T.);
#272=ORIENTED_EDGE('',*,*,#412,.T.);
#273=ORIENTED_EDGE('',*,*,#513,.T.);
#274=ORIENTED_EDGE('',*,*,#441,.F.);
#275=ORIENTED_EDGE('',*,*,#514,.T.);
#276=ORIENTED_EDGE('',*,*,#423,.T.);
#277=ORIENTED_EDGE('',*,*,#515,.T.);
#278=ORIENTED_EDGE('',*,*,#425,.F.);
#279=ORIENTED_EDGE('',*,*,#516,.T.);
#280=ORIENTED_EDGE('',*,*,#439,.T.);
#281=ORIENTED_EDGE('',*,*,#517,.T.);
#282=ORIENTED_EDGE('',*,*,#427,.F.);
#283=ORIENTED_EDGE('',*,*,#518,.T.);
#284=ORIENTED_EDGE('',*,*,#445,.T.);
#285=ORIENTED_EDGE('',*,*,#519,.T.);
#286=ORIENTED_EDGE('',*,*,#443,.F.);
#287=ORIENTED_EDGE('',*,*,#520,.T.);
#288=ORIENTED_EDGE('',*,*,#429,.T.);
#289=ORIENTED_EDGE('',*,*,#521,.T.);
#290=ORIENTED_EDGE('',*,*,#424,.F.);
#291=ORIENTED_EDGE('',*,*,#514,.F.);
#292=ORIENTED_EDGE('',*,*,#440,.F.);
#293=ORIENTED_EDGE('',*,*,#516,.F.);
#294=ORIENTED_EDGE('',*,*,#426,.F.);
#295=ORIENTED_EDGE('',*,*,#517,.F.);
#296=ORIENTED_EDGE('',*,*,#446,.F.);
#297=ORIENTED_EDGE('',*,*,#518,.F.);
#298=ORIENTED_EDGE('',*,*,#430,.F.);
#299=ORIENTED_EDGE('',*,*,#520,.F.);
#300=ORIENTED_EDGE('',*,*,#442,.F.);
#301=ORIENTED_EDGE('',*,*,#515,.F.);
#302=ORIENTED_EDGE('',*,*,#428,.F.);
#303=ORIENTED_EDGE('',*,*,#519,.F.);
#304=ORIENTED_EDGE('',*,*,#444,.F.);
#305=ORIENTED_EDGE('',*,*,#521,.F.);
#306=ORIENTED_EDGE('',*,*,#413,.F.);
#307=ORIENTED_EDGE('',*,*,#512,.F.);
#308=ORIENTED_EDGE('',*,*,#493,.F.);
#309=ORIENTED_EDGE('',*,*,#510,.F.);
#310=ORIENTED_EDGE('',*,*,#411,.F.);
#311=ORIENTED_EDGE('',*,*,#508,.F.);
#312=ORIENTED_EDGE('',*,*,#495,.F.);
#313=ORIENTED_EDGE('',*,*,#513,.F.);
#314=ORIENTED_EDGE('',*,*,#409,.F.);
#315=ORIENTED_EDGE('',*,*,#506,.F.);
#316=ORIENTED_EDGE('',*,*,#497,.F.);
#317=ORIENTED_EDGE('',*,*,#509,.F.);
#318=ORIENTED_EDGE('',*,*,#415,.F.);
#319=ORIENTED_EDGE('',*,*,#511,.F.);
#320=ORIENTED_EDGE('',*,*,#499,.F.);
#321=ORIENTED_EDGE('',*,*,#507,.F.);
#322=ORIENTED_EDGE('',*,*,#406,.F.);
#323=ORIENTED_EDGE('',*,*,#522,.F.);
#324=ORIENTED_EDGE('',*,*,#523,.F.);
#325=ORIENTED_EDGE('',*,*,#396,.T.);
#326=ORIENTED_EDGE('',*,*,#405,.F.);
#327=ORIENTED_EDGE('',*,*,#481,.F.);
#328=ORIENTED_EDGE('',*,*,#524,.F.);
#329=ORIENTED_EDGE('',*,*,#522,.T.);
#330=ORIENTED_EDGE('',*,*,#524,.T.);
#331=ORIENTED_EDGE('',*,*,#480,.F.);
#332=ORIENTED_EDGE('',*,*,#469,.F.);
#333=ORIENTED_EDGE('',*,*,#397,.F.);
#334=ORIENTED_EDGE('',*,*,#523,.T.);
#335=ORIENTED_EDGE('',*,*,#386,.T.);
#336=ORIENTED_EDGE('',*,*,#400,.T.);
#337=ORIENTED_EDGE('',*,*,#525,.F.);
#338=ORIENTED_EDGE('',*,*,#526,.T.);
#339=ORIENTED_EDGE('',*,*,#525,.T.);
#340=ORIENTED_EDGE('',*,*,#407,.T.);
#341=ORIENTED_EDGE('',*,*,#394,.F.);
#342=ORIENTED_EDGE('',*,*,#527,.T.);
#343=ORIENTED_EDGE('',*,*,#393,.F.);
#344=ORIENTED_EDGE('',*,*,#467,.F.);
#345=ORIENTED_EDGE('',*,*,#387,.F.);
#346=ORIENTED_EDGE('',*,*,#526,.F.);
#347=ORIENTED_EDGE('',*,*,#527,.F.);
#348=ORIENTED_EDGE('',*,*,#482,.F.);
#349=ORIENTED_EDGE('',*,*,#458,.F.);
#350=ORIENTED_EDGE('',*,*,#528,.T.);
#351=ORIENTED_EDGE('',*,*,#529,.T.);
#352=ORIENTED_EDGE('',*,*,#483,.T.);
#353=ORIENTED_EDGE('',*,*,#529,.F.);
#354=ORIENTED_EDGE('',*,*,#530,.F.);
#355=ORIENTED_EDGE('',*,*,#531,.T.);
#356=ORIENTED_EDGE('',*,*,#532,.F.);
#357=ORIENTED_EDGE('',*,*,#500,.T.);
#358=ORIENTED_EDGE('',*,*,#484,.F.);
#359=ORIENTED_EDGE('',*,*,#531,.F.);
#360=ORIENTED_EDGE('',*,*,#533,.T.);
#361=ORIENTED_EDGE('',*,*,#456,.T.);
#362=ORIENTED_EDGE('',*,*,#532,.T.);
#363=ORIENTED_EDGE('',*,*,#457,.F.);
#364=ORIENTED_EDGE('',*,*,#533,.F.);
#365=ORIENTED_EDGE('',*,*,#530,.T.);
#366=ORIENTED_EDGE('',*,*,#528,.F.);
#367=ORIENTED_EDGE('',*,*,#485,.T.);
#368=ORIENTED_EDGE('',*,*,#433,.F.);
#369=ORIENTED_EDGE('',*,*,#534,.F.);
#370=ORIENTED_EDGE('',*,*,#535,.T.);
#371=ORIENTED_EDGE('',*,*,#486,.F.);
#372=ORIENTED_EDGE('',*,*,#535,.F.);
#373=ORIENTED_EDGE('',*,*,#536,.T.);
#374=ORIENTED_EDGE('',*,*,#537,.T.);
#375=ORIENTED_EDGE('',*,*,#487,.T.);
#376=ORIENTED_EDGE('',*,*,#537,.F.);
#377=ORIENTED_EDGE('',*,*,#538,.F.);
#378=ORIENTED_EDGE('',*,*,#431,.T.);
#379=ORIENTED_EDGE('',*,*,#539,.F.);
#380=ORIENTED_EDGE('',*,*,#501,.T.);
#381=ORIENTED_EDGE('',*,*,#534,.T.);
#382=ORIENTED_EDGE('',*,*,#432,.F.);
#383=ORIENTED_EDGE('',*,*,#538,.T.);
#384=ORIENTED_EDGE('',*,*,#536,.F.);
#385=ORIENTED_EDGE('',*,*,#539,.T.);
#386=EDGE_CURVE('',#540,#541,#644,.T.);
#387=EDGE_CURVE('',#540,#542,#645,.T.);
#388=EDGE_CURVE('',#542,#543,#646,.T.);
#389=EDGE_CURVE('',#543,#544,#647,.T.);
#390=EDGE_CURVE('',#545,#544,#648,.T.);
#391=EDGE_CURVE('',#545,#541,#649,.T.);
#392=EDGE_CURVE('',#546,#547,#650,.T.);
#393=EDGE_CURVE('',#546,#548,#651,.T.);
#394=EDGE_CURVE('',#548,#549,#652,.T.);
#395=EDGE_CURVE('',#549,#550,#653,.T.);
#396=EDGE_CURVE('',#551,#550,#654,.T.);
#397=EDGE_CURVE('',#551,#552,#655,.T.);
#398=EDGE_CURVE('',#552,#553,#656,.T.);
#399=EDGE_CURVE('',#553,#547,#657,.T.);
#400=EDGE_CURVE('',#541,#554,#658,.T.);
#401=EDGE_CURVE('',#555,#545,#34,.T.);
#402=EDGE_CURVE('',#556,#555,#659,.T.);
#403=EDGE_CURVE('',#557,#556,#35,.T.);
#404=EDGE_CURVE('',#558,#557,#660,.T.);
#405=EDGE_CURVE('',#558,#559,#661,.T.);
#406=EDGE_CURVE('',#559,#550,#662,.T.);
#407=EDGE_CURVE('',#554,#549,#663,.T.);
#408=EDGE_CURVE('',#560,#561,#664,.T.);
#409=EDGE_CURVE('',#560,#562,#36,.T.);
#410=EDGE_CURVE('',#563,#562,#665,.T.);
#411=EDGE_CURVE('',#563,#564,#37,.T.);
#412=EDGE_CURVE('',#565,#564,#666,.T.);
#413=EDGE_CURVE('',#565,#566,#38,.T.);
#414=EDGE_CURVE('',#567,#566,#667,.T.);
#415=EDGE_CURVE('',#567,#561,#39,.T.);
#416=EDGE_CURVE('',#568,#569,#668,.T.);
#417=EDGE_CURVE('',#570,#568,#40,.F.);
#418=EDGE_CURVE('',#571,#570,#669,.T.);
#419=EDGE_CURVE('',#569,#571,#41,.F.);
#420=EDGE_CURVE('',#556,#572,#670,.T.);
#421=EDGE_CURVE('',#555,#573,#671,.T.);
#422=EDGE_CURVE('',#573,#572,#672,.T.);
#423=EDGE_CURVE('',#574,#575,#673,.T.);
#424=EDGE_CURVE('',#574,#576,#42,.T.);
#425=EDGE_CURVE('',#576,#577,#674,.T.);
#426=EDGE_CURVE('',#577,#578,#43,.T.);
#427=EDGE_CURVE('',#578,#579,#675,.T.);
#428=EDGE_CURVE('',#579,#580,#44,.T.);
#429=EDGE_CURVE('',#581,#580,#676,.T.);
#430=EDGE_CURVE('',#581,#575,#45,.T.);
#431=EDGE_CURVE('',#582,#583,#677,.T.);
#432=EDGE_CURVE('',#582,#584,#678,.T.);
#433=EDGE_CURVE('',#584,#585,#679,.T.);
#434=EDGE_CURVE('',#585,#586,#680,.T.);
#435=EDGE_CURVE('',#586,#587,#681,.T.);
#436=EDGE_CURVE('',#588,#587,#682,.T.);
#437=EDGE_CURVE('',#589,#588,#683,.T.);
#438=EDGE_CURVE('',#589,#583,#684,.T.);
#439=EDGE_CURVE('',#590,#591,#685,.T.);
#440=EDGE_CURVE('',#590,#592,#46,.F.);
#441=EDGE_CURVE('',#592,#593,#686,.T.);
#442=EDGE_CURVE('',#593,#594,#47,.F.);
#443=EDGE_CURVE('',#594,#595,#687,.T.);
#444=EDGE_CURVE('',#595,#596,#48,.F.);
#445=EDGE_CURVE('',#597,#596,#688,.T.);
#446=EDGE_CURVE('',#597,#591,#49,.F.);
#447=EDGE_CURVE('',#586,#598,#50,.F.);
#448=EDGE_CURVE('',#598,#599,#689,.T.);
#449=EDGE_CURVE('',#587,#599,#51,.T.);
#450=EDGE_CURVE('',#598,#600,#690,.T.);
#451=EDGE_CURVE('',#600,#601,#691,.T.);
#452=EDGE_CURVE('',#599,#601,#692,.T.);
#453=EDGE_CURVE('',#600,#602,#52,.F.);
#454=EDGE_CURVE('',#602,#603,#693,.T.);
#455=EDGE_CURVE('',#601,#603,#53,.T.);
#456=EDGE_CURVE('',#604,#605,#694,.T.);
#457=EDGE_CURVE('',#604,#606,#695,.T.);
#458=EDGE_CURVE('',#606,#607,#696,.T.);
#459=EDGE_CURVE('',#607,#608,#697,.T.);
#460=EDGE_CURVE('',#608,#609,#698,.T.);
#461=EDGE_CURVE('',#603,#609,#699,.T.);
#462=EDGE_CURVE('',#602,#605,#700,.T.);
#463=EDGE_CURVE('',#608,#610,#54,.F.);
#464=EDGE_CURVE('',#610,#611,#701,.T.);
#465=EDGE_CURVE('',#609,#611,#55,.T.);
#466=EDGE_CURVE('',#544,#573,#56,.T.);
#467=EDGE_CURVE('',#542,#546,#57,.T.);
#468=EDGE_CURVE('',#547,#543,#58,.T.);
#469=EDGE_CURVE('',#552,#612,#59,.T.);
#470=EDGE_CURVE('',#612,#613,#702,.T.);
#471=EDGE_CURVE('',#613,#553,#60,.T.);
#472=EDGE_CURVE('',#572,#614,#61,.T.);
#473=EDGE_CURVE('',#614,#613,#703,.T.);
#474=EDGE_CURVE('',#611,#615,#704,.T.);
#475=EDGE_CURVE('',#615,#588,#62,.T.);
#476=EDGE_CURVE('',#610,#616,#705,.T.);
#477=EDGE_CURVE('',#616,#615,#706,.T.);
#478=EDGE_CURVE('',#616,#589,#63,.F.);
#479=EDGE_CURVE('',#557,#614,#707,.T.);
#480=EDGE_CURVE('',#612,#617,#708,.T.);
#481=EDGE_CURVE('',#617,#558,#709,.T.);
#482=EDGE_CURVE('',#607,#618,#710,.T.);
#483=EDGE_CURVE('',#619,#618,#64,.T.);
#484=EDGE_CURVE('',#619,#605,#711,.T.);
#485=EDGE_CURVE('',#620,#585,#712,.T.);
#486=EDGE_CURVE('',#620,#621,#65,.T.);
#487=EDGE_CURVE('',#583,#621,#713,.T.);
#488=EDGE_CURVE('',#622,#623,#66,.T.);
#489=EDGE_CURVE('',#624,#622,#714,.T.);
#490=EDGE_CURVE('',#625,#624,#67,.T.);
#491=EDGE_CURVE('',#623,#625,#715,.T.);
#492=EDGE_CURVE('',#626,#627,#716,.T.);
#493=EDGE_CURVE('',#626,#628,#68,.F.);
#494=EDGE_CURVE('',#629,#628,#717,.T.);
#495=EDGE_CURVE('',#629,#630,#69,.F.);
#496=EDGE_CURVE('',#631,#630,#718,.T.);
#497=EDGE_CURVE('',#631,#632,#70,.F.);
#498=EDGE_CURVE('',#633,#632,#719,.T.);
#499=EDGE_CURVE('',#633,#627,#71,.F.);
#500=EDGE_CURVE('',#634,#634,#72,.T.);
#501=EDGE_CURVE('',#635,#635,#73,.T.);
#502=EDGE_CURVE('',#568,#625,#720,.T.);
#503=EDGE_CURVE('',#569,#623,#721,.T.);
#504=EDGE_CURVE('',#570,#624,#722,.T.);
#505=EDGE_CURVE('',#571,#622,#723,.T.);
#506=EDGE_CURVE('',#632,#560,#724,.F.);
#507=EDGE_CURVE('',#561,#633,#725,.T.);
#508=EDGE_CURVE('',#630,#563,#726,.F.);
#509=EDGE_CURVE('',#562,#631,#727,.T.);
#510=EDGE_CURVE('',#566,#626,#728,.T.);
#511=EDGE_CURVE('',#627,#567,#729,.F.);
#512=EDGE_CURVE('',#628,#565,#730,.F.);
#513=EDGE_CURVE('',#564,#629,#731,.T.);
#514=EDGE_CURVE('',#592,#574,#732,.F.);
#515=EDGE_CURVE('',#575,#593,#733,.T.);
#516=EDGE_CURVE('',#576,#590,#734,.T.);
#517=EDGE_CURVE('',#591,#577,#735,.F.);
#518=EDGE_CURVE('',#578,#597,#736,.T.);
#519=EDGE_CURVE('',#596,#579,#737,.F.);
#520=EDGE_CURVE('',#594,#581,#738,.F.);
#521=EDGE_CURVE('',#580,#595,#739,.T.);
#522=EDGE_CURVE('',#636,#559,#740,.T.);
#523=EDGE_CURVE('',#551,#636,#741,.T.);
#524=EDGE_CURVE('',#636,#617,#742,.T.);
#525=EDGE_CURVE('',#637,#554,#743,.T.);
#526=EDGE_CURVE('',#637,#540,#744,.T.);
#527=EDGE_CURVE('',#548,#637,#745,.T.);
#528=EDGE_CURVE('',#606,#638,#746,.T.);
#529=EDGE_CURVE('',#638,#618,#747,.T.);
#530=EDGE_CURVE('',#639,#638,#74,.T.);
#531=EDGE_CURVE('',#639,#619,#748,.T.);
#532=EDGE_CURVE('',#640,#640,#75,.T.);
#533=EDGE_CURVE('',#639,#604,#749,.T.);
#534=EDGE_CURVE('',#641,#584,#750,.T.);
#535=EDGE_CURVE('',#641,#620,#751,.T.);
#536=EDGE_CURVE('',#641,#642,#76,.T.);
#537=EDGE_CURVE('',#642,#621,#752,.T.);
#538=EDGE_CURVE('',#582,#642,#753,.T.);
#539=EDGE_CURVE('',#643,#643,#77,.T.);
#540=VERTEX_POINT('',#1513);
#541=VERTEX_POINT('',#1514);
#542=VERTEX_POINT('',#1516);
#543=VERTEX_POINT('',#1518);
#544=VERTEX_POINT('',#1520);
#545=VERTEX_POINT('',#1522);
#546=VERTEX_POINT('',#1526);
#547=VERTEX_POINT('',#1527);
#548=VERTEX_POINT('',#1529);
#549=VERTEX_POINT('',#1531);
#550=VERTEX_POINT('',#1533);
#551=VERTEX_POINT('',#1535);
#552=VERTEX_POINT('',#1537);
#553=VERTEX_POINT('',#1539);
#554=VERTEX_POINT('',#1543);
#555=VERTEX_POINT('',#1545);
#556=VERTEX_POINT('',#1547);
#557=VERTEX_POINT('',#1549);
#558=VERTEX_POINT('',#1551);
#559=VERTEX_POINT('',#1553);
#560=VERTEX_POINT('',#1557);
#561=VERTEX_POINT('',#1558);
#562=VERTEX_POINT('',#1560);
#563=VERTEX_POINT('',#1562);
#564=VERTEX_POINT('',#1564);
#565=VERTEX_POINT('',#1566);
#566=VERTEX_POINT('',#1568);
#567=VERTEX_POINT('',#1570);
#568=VERTEX_POINT('',#1573);
#569=VERTEX_POINT('',#1574);
#570=VERTEX_POINT('',#1576);
#571=VERTEX_POINT('',#1578);
#572=VERTEX_POINT('',#1582);
#573=VERTEX_POINT('',#1584);
#574=VERTEX_POINT('',#1587);
#575=VERTEX_POINT('',#1588);
#576=VERTEX_POINT('',#1590);
#577=VERTEX_POINT('',#1592);
#578=VERTEX_POINT('',#1594);
#579=VERTEX_POINT('',#1596);
#580=VERTEX_POINT('',#1598);
#581=VERTEX_POINT('',#1600);
#582=VERTEX_POINT('',#1604);
#583=VERTEX_POINT('',#1605);
#584=VERTEX_POINT('',#1607);
#585=VERTEX_POINT('',#1609);
#586=VERTEX_POINT('',#1611);
#587=VERTEX_POINT('',#1613);
#588=VERTEX_POINT('',#1615);
#589=VERTEX_POINT('',#1617);
#590=VERTEX_POINT('',#1620);
#591=VERTEX_POINT('',#1621);
#592=VERTEX_POINT('',#1623);
#593=VERTEX_POINT('',#1625);
#594=VERTEX_POINT('',#1627);
#595=VERTEX_POINT('',#1629);
#596=VERTEX_POINT('',#1631);
#597=VERTEX_POINT('',#1633);
#598=VERTEX_POINT('',#1637);
#599=VERTEX_POINT('',#1639);
#600=VERTEX_POINT('',#1643);
#601=VERTEX_POINT('',#1645);
#602=VERTEX_POINT('',#1649);
#603=VERTEX_POINT('',#1651);
#604=VERTEX_POINT('',#1655);
#605=VERTEX_POINT('',#1656);
#606=VERTEX_POINT('',#1658);
#607=VERTEX_POINT('',#1660);
#608=VERTEX_POINT('',#1662);
#609=VERTEX_POINT('',#1664);
#610=VERTEX_POINT('',#1669);
#611=VERTEX_POINT('',#1671);
#612=VERTEX_POINT('',#1680);
#613=VERTEX_POINT('',#1682);
#614=VERTEX_POINT('',#1686);
#615=VERTEX_POINT('',#1689);
#616=VERTEX_POINT('',#1693);
#617=VERTEX_POINT('',#1701);
#618=VERTEX_POINT('',#1705);
#619=VERTEX_POINT('',#1707);
#620=VERTEX_POINT('',#1710);
#621=VERTEX_POINT('',#1712);
#622=VERTEX_POINT('',#1715);
#623=VERTEX_POINT('',#1716);
#624=VERTEX_POINT('',#1718);
#625=VERTEX_POINT('',#1720);
#626=VERTEX_POINT('',#1723);
#627=VERTEX_POINT('',#1724);
#628=VERTEX_POINT('',#1726);
#629=VERTEX_POINT('',#1728);
#630=VERTEX_POINT('',#1730);
#631=VERTEX_POINT('',#1732);
#632=VERTEX_POINT('',#1734);
#633=VERTEX_POINT('',#1736);
#634=VERTEX_POINT('',#1739);
#635=VERTEX_POINT('',#1741);
#636=VERTEX_POINT('',#1784);
#637=VERTEX_POINT('',#1791);
#638=VERTEX_POINT('',#1798);
#639=VERTEX_POINT('',#1802);
#640=VERTEX_POINT('',#1806);
#641=VERTEX_POINT('',#1812);
#642=VERTEX_POINT('',#1816);
#643=VERTEX_POINT('',#1822);
#644=LINE('',#1512,#754);
#645=LINE('',#1515,#755);
#646=LINE('',#1517,#756);
#647=LINE('',#1519,#757);
#648=LINE('',#1521,#758);
#649=LINE('',#1523,#759);
#650=LINE('',#1525,#760);
#651=LINE('',#1528,#761);
#652=LINE('',#1530,#762);
#653=LINE('',#1532,#763);
#654=LINE('',#1534,#764);
#655=LINE('',#1536,#765);
#656=LINE('',#1538,#766);
#657=LINE('',#1540,#767);
#658=LINE('',#1542,#768);
#659=LINE('',#1546,#769);
#660=LINE('',#1550,#770);
#661=LINE('',#1552,#771);
#662=LINE('',#1554,#772);
#663=LINE('',#1555,#773);
#664=LINE('',#1556,#774);
#665=LINE('',#1561,#775);
#666=LINE('',#1565,#776);
#667=LINE('',#1569,#777);
#668=LINE('',#1572,#778);
#669=LINE('',#1577,#779);
#670=LINE('',#1581,#780);
#671=LINE('',#1583,#781);
#672=LINE('',#1585,#782);
#673=LINE('',#1586,#783);
#674=LINE('',#1591,#784);
#675=LINE('',#1595,#785);
#676=LINE('',#1599,#786);
#677=LINE('',#1603,#787);
#678=LINE('',#1606,#788);
#679=LINE('',#1608,#789);
#680=LINE('',#1610,#790);
#681=LINE('',#1612,#791);
#682=LINE('',#1614,#792);
#683=LINE('',#1616,#793);
#684=LINE('',#1618,#794);
#685=LINE('',#1619,#795);
#686=LINE('',#1624,#796);
#687=LINE('',#1628,#797);
#688=LINE('',#1632,#798);
#689=LINE('',#1638,#799);
#690=LINE('',#1642,#800);
#691=LINE('',#1644,#801);
#692=LINE('',#1646,#802);
#693=LINE('',#1650,#803);
#694=LINE('',#1654,#804);
#695=LINE('',#1657,#805);
#696=LINE('',#1659,#806);
#697=LINE('',#1661,#807);
#698=LINE('',#1663,#808);
#699=LINE('',#1665,#809);
#700=LINE('',#1666,#810);
#701=LINE('',#1670,#811);
#702=LINE('',#1681,#812);
#703=LINE('',#1687,#813);
#704=LINE('',#1688,#814);
#705=LINE('',#1692,#815);
#706=LINE('',#1694,#816);
#707=LINE('',#1698,#817);
#708=LINE('',#1700,#818);
#709=LINE('',#1702,#819);
#710=LINE('',#1704,#820);
#711=LINE('',#1708,#821);
#712=LINE('',#1709,#822);
#713=LINE('',#1713,#823);
#714=LINE('',#1717,#824);
#715=LINE('',#1721,#825);
#716=LINE('',#1722,#826);
#717=LINE('',#1727,#827);
#718=LINE('',#1731,#828);
#719=LINE('',#1735,#829);
#720=LINE('',#1743,#830);
#721=LINE('',#1744,#831);
#722=LINE('',#1746,#832);
#723=LINE('',#1748,#833);
#724=LINE('',#1750,#834);
#725=LINE('',#1751,#835);
#726=LINE('',#1753,#836);
#727=LINE('',#1754,#837);
#728=LINE('',#1756,#838);
#729=LINE('',#1757,#839);
#730=LINE('',#1760,#840);
#731=LINE('',#1761,#841);
#732=LINE('',#1763,#842);
#733=LINE('',#1764,#843);
#734=LINE('',#1766,#844);
#735=LINE('',#1767,#845);
#736=LINE('',#1769,#846);
#737=LINE('',#1770,#847);
#738=LINE('',#1772,#848);
#739=LINE('',#1773,#849);
#740=LINE('',#1783,#850);
#741=LINE('',#1785,#851);
#742=LINE('',#1787,#852);
#743=LINE('',#1790,#853);
#744=LINE('',#1792,#854);
#745=LINE('',#1794,#855);
#746=LINE('',#1797,#856);
#747=LINE('',#1799,#857);
#748=LINE('',#1803,#858);
#749=LINE('',#1808,#859);
#750=LINE('',#1811,#860);
#751=LINE('',#1813,#861);
#752=LINE('',#1817,#862);
#753=LINE('',#1819,#863);
#754=VECTOR('',#1204,1.);
#755=VECTOR('',#1205,1.);
#756=VECTOR('',#1206,1.);
#757=VECTOR('',#1207,1.);
#758=VECTOR('',#1208,1.);
#759=VECTOR('',#1209,1.);
#760=VECTOR('',#1212,1.);
#761=VECTOR('',#1213,1.);
#762=VECTOR('',#1214,1.);
#763=VECTOR('',#1215,1.);
#764=VECTOR('',#1216,1.);
#765=VECTOR('',#1217,1.);
#766=VECTOR('',#1218,1.);
#767=VECTOR('',#1219,1.);
#768=VECTOR('',#1222,1.);
#769=VECTOR('',#1225,1.);
#770=VECTOR('',#1228,1.);
#771=VECTOR('',#1229,1.);
#772=VECTOR('',#1230,1.);
#773=VECTOR('',#1231,1.);
#774=VECTOR('',#1232,1.);
#775=VECTOR('',#1235,1.);
#776=VECTOR('',#1238,1.);
#777=VECTOR('',#1241,1.);
#778=VECTOR('',#1244,1.);
#779=VECTOR('',#1247,1.);
#780=VECTOR('',#1252,1.);
#781=VECTOR('',#1253,1.);
#782=VECTOR('',#1254,1.);
#783=VECTOR('',#1255,1.);
#784=VECTOR('',#1258,1.);
#785=VECTOR('',#1261,1.);
#786=VECTOR('',#1264,1.);
#787=VECTOR('',#1269,1.);
#788=VECTOR('',#1270,1.);
#789=VECTOR('',#1271,1.);
#790=VECTOR('',#1272,1.);
#791=VECTOR('',#1273,1.);
#792=VECTOR('',#1274,1.);
#793=VECTOR('',#1275,1.);
#794=VECTOR('',#1276,1.);
#795=VECTOR('',#1277,1.);
#796=VECTOR('',#1280,1.);
#797=VECTOR('',#1283,1.);
#798=VECTOR('',#1286,1.);
#799=VECTOR('',#1293,1.);
#800=VECTOR('',#1298,1.);
#801=VECTOR('',#1299,1.);
#802=VECTOR('',#1300,1.);
#803=VECTOR('',#1305,1.);
#804=VECTOR('',#1310,1.);
#805=VECTOR('',#1311,1.);
#806=VECTOR('',#1312,1.);
#807=VECTOR('',#1313,1.);
#808=VECTOR('',#1314,1.);
#809=VECTOR('',#1315,1.);
#810=VECTOR('',#1316,1.);
#811=VECTOR('',#1321,1.);
#812=VECTOR('',#1338,1.);
#813=VECTOR('',#1345,1.);
#814=VECTOR('',#1346,1.);
#815=VECTOR('',#1351,1.);
#816=VECTOR('',#1352,1.);
#817=VECTOR('',#1359,1.);
#818=VECTOR('',#1362,1.);
#819=VECTOR('',#1363,1.);
#820=VECTOR('',#1366,1.);
#821=VECTOR('',#1369,1.);
#822=VECTOR('',#1370,1.);
#823=VECTOR('',#1373,1.);
#824=VECTOR('',#1376,1.);
#825=VECTOR('',#1379,1.);
#826=VECTOR('',#1380,1.);
#827=VECTOR('',#1383,1.);
#828=VECTOR('',#1386,1.);
#829=VECTOR('',#1389,1.);
#830=VECTOR('',#1398,1.);
#831=VECTOR('',#1399,1.);
#832=VECTOR('',#1402,1.);
#833=VECTOR('',#1405,1.);
#834=VECTOR('',#1408,1.);
#835=VECTOR('',#1409,1.);
#836=VECTOR('',#1412,1.);
#837=VECTOR('',#1413,1.);
#838=VECTOR('',#1416,1.);
#839=VECTOR('',#1417,1.);
#840=VECTOR('',#1422,1.);
#841=VECTOR('',#1423,1.);
#842=VECTOR('',#1426,1.);
#843=VECTOR('',#1427,1.);
#844=VECTOR('',#1430,1.);
#845=VECTOR('',#1431,1.);
#846=VECTOR('',#1434,1.);
#847=VECTOR('',#1435,1.);
#848=VECTOR('',#1438,1.);
#849=VECTOR('',#1439,1.);
#850=VECTOR('',#1458,1.);
#851=VECTOR('',#1459,1.);
#852=VECTOR('',#1462,1.);
#853=VECTOR('',#1467,1.);
#854=VECTOR('',#1468,1.);
#855=VECTOR('',#1471,1.);
#856=VECTOR('',#1476,1.);
#857=VECTOR('',#1477,1.);
#858=VECTOR('',#1482,1.);
#859=VECTOR('',#1489,1.);
#860=VECTOR('',#1494,1.);
#861=VECTOR('',#1495,1.);
#862=VECTOR('',#1500,1.);
#863=VECTOR('',#1503,1.);
#864=EDGE_LOOP('',(#78,#79,#80,#81,#82,#83));
#865=EDGE_LOOP('',(#84,#85,#86,#87,#88,#89,#90,#91));
#866=EDGE_LOOP('',(#92,#93,#94,#95,#96,#97,#98,#99,#100,#101));
#867=EDGE_LOOP('',(#102,#103,#104,#105,#106,#107,#108,#109));
#868=EDGE_LOOP('',(#110,#111,#112,#113));
#869=EDGE_LOOP('',(#114,#115,#116,#117));
#870=EDGE_LOOP('',(#118,#119,#120,#121,#122,#123,#124,#125));
#871=EDGE_LOOP('',(#126,#127,#128,#129,#130,#131,#132,#133));
#872=EDGE_LOOP('',(#134,#135,#136,#137,#138,#139,#140,#141));
#873=EDGE_LOOP('',(#142,#143,#144,#145));
#874=EDGE_LOOP('',(#146,#147,#148,#149));
#875=EDGE_LOOP('',(#150,#151,#152,#153));
#876=EDGE_LOOP('',(#154,#155,#156,#157,#158,#159,#160,#161));
#877=EDGE_LOOP('',(#162,#163,#164,#165));
#878=EDGE_LOOP('',(#166,#167,#168,#169));
#879=EDGE_LOOP('',(#170,#171,#172,#173));
#880=EDGE_LOOP('',(#174,#175,#176,#177));
#881=EDGE_LOOP('',(#178,#179,#180,#181,#182,#183,#184,#185));
#882=EDGE_LOOP('',(#186,#187,#188,#189,#190,#191,#192,#193));
#883=EDGE_LOOP('',(#194,#195,#196,#197));
#884=EDGE_LOOP('',(#198,#199,#200,#201));
#885=EDGE_LOOP('',(#202,#203,#204,#205));
#886=EDGE_LOOP('',(#206,#207,#208,#209,#210,#211));
#887=EDGE_LOOP('',(#212,#213,#214,#215,#216,#217,#218,#219,#220,#221,#222,#223,#224,#225,#226,#227));
#888=EDGE_LOOP('',(#228,#229,#230,#231));
#889=EDGE_LOOP('',(#232,#233,#234,#235,#236,#237,#238,#239));
#890=EDGE_LOOP('',(#240));
#891=EDGE_LOOP('',(#241));
#892=EDGE_LOOP('',(#242,#243,#244,#245));
#893=EDGE_LOOP('',(#246,#247,#248,#249));
#894=EDGE_LOOP('',(#250,#251,#252,#253));
#895=EDGE_LOOP('',(#254,#255,#256,#257));
#896=EDGE_LOOP('',(#258,#259,#260,#261));
#897=EDGE_LOOP('',(#262,#263,#264,#265));
#898=EDGE_LOOP('',(#266,#267,#268,#269));
#899=EDGE_LOOP('',(#270,#271,#272,#273));
#900=EDGE_LOOP('',(#274,#275,#276,#277));
#901=EDGE_LOOP('',(#278,#279,#280,#281));
#902=EDGE_LOOP('',(#282,#283,#284,#285));
#903=EDGE_LOOP('',(#286,#287,#288,#289));
#904=EDGE_LOOP('',(#290,#291,#292,#293));
#905=EDGE_LOOP('',(#294,#295,#296,#297));
#906=EDGE_LOOP('',(#298,#299,#300,#301));
#907=EDGE_LOOP('',(#302,#303,#304,#305));
#908=EDGE_LOOP('',(#306,#307,#308,#309));
#909=EDGE_LOOP('',(#310,#311,#312,#313));
#910=EDGE_LOOP('',(#314,#315,#316,#317));
#911=EDGE_LOOP('',(#318,#319,#320,#321));
#912=EDGE_LOOP('',(#322,#323,#324,#325));
#913=EDGE_LOOP('',(#326,#327,#328,#329));
#914=EDGE_LOOP('',(#330,#331,#332,#333,#334));
#915=EDGE_LOOP('',(#335,#336,#337,#338));
#916=EDGE_LOOP('',(#339,#340,#341,#342));
#917=EDGE_LOOP('',(#343,#344,#345,#346,#347));
#918=EDGE_LOOP('',(#348,#349,#350,#351));
#919=EDGE_LOOP('',(#352,#353,#354,#355));
#920=EDGE_LOOP('',(#356));
#921=EDGE_LOOP('',(#357));
#922=EDGE_LOOP('',(#358,#359,#360,#361));
#923=EDGE_LOOP('',(#362));
#924=EDGE_LOOP('',(#363,#364,#365,#366));
#925=EDGE_LOOP('',(#367,#368,#369,#370));
#926=EDGE_LOOP('',(#371,#372,#373,#374));
#927=EDGE_LOOP('',(#375,#376,#377,#378));
#928=EDGE_LOOP('',(#379));
#929=EDGE_LOOP('',(#380));
#930=EDGE_LOOP('',(#381,#382,#383,#384));
#931=EDGE_LOOP('',(#385));
#932=FACE_BOUND('',#864,.T.);
#933=FACE_BOUND('',#865,.T.);
#934=FACE_BOUND('',#866,.T.);
#935=FACE_BOUND('',#867,.T.);
#936=FACE_BOUND('',#868,.T.);
#937=FACE_BOUND('',#869,.T.);
#938=FACE_BOUND('',#870,.T.);
#939=FACE_BOUND('',#871,.T.);
#940=FACE_BOUND('',#872,.T.);
#941=FACE_BOUND('',#873,.T.);
#942=FACE_BOUND('',#874,.T.);
#943=FACE_BOUND('',#875,.T.);
#944=FACE_BOUND('',#876,.T.);
#945=FACE_BOUND('',#877,.T.);
#946=FACE_BOUND('',#878,.T.);
#947=FACE_BOUND('',#879,.T.);
#948=FACE_BOUND('',#880,.T.);
#949=FACE_BOUND('',#881,.T.);
#950=FACE_BOUND('',#882,.T.);
#951=FACE_BOUND('',#883,.T.);
#952=FACE_BOUND('',#884,.T.);
#953=FACE_BOUND('',#885,.T.);
#954=FACE_BOUND('',#886,.T.);
#955=FACE_BOUND('',#887,.T.);
#956=FACE_BOUND('',#888,.T.);
#957=FACE_BOUND('',#889,.T.);
#958=FACE_BOUND('',#890,.T.);
#959=FACE_BOUND('',#891,.T.);
#960=FACE_BOUND('',#892,.T.);
#961=FACE_BOUND('',#893,.T.);
#962=FACE_BOUND('',#894,.T.);
#963=FACE_BOUND('',#895,.T.);
#964=FACE_BOUND('',#896,.T.);
#965=FACE_BOUND('',#897,.T.);
#966=FACE_BOUND('',#898,.T.);
#967=FACE_BOUND('',#899,.T.);
#968=FACE_BOUND('',#900,.T.);
#969=FACE_BOUND('',#901,.T.);
#970=FACE_BOUND('',#902,.T.);
#971=FACE_BOUND('',#903,.T.);
#972=FACE_BOUND('',#904,.T.);
#973=FACE_BOUND('',#905,.T.);
#974=FACE_BOUND('',#906,.T.);
#975=FACE_BOUND('',#907,.T.);
#976=FACE_BOUND('',#908,.T.);
#977=FACE_BOUND('',#909,.T.);
#978=FACE_BOUND('',#910,.T.);
#979=FACE_BOUND('',#911,.T.);
#980=FACE_BOUND('',#912,.T.);
#981=FACE_BOUND('',#913,.T.);
#982=FACE_BOUND('',#914,.T.);
#983=FACE_BOUND('',#915,.T.);
#984=FACE_BOUND('',#916,.T.);
#985=FACE_BOUND('',#917,.T.);
#986=FACE_BOUND('',#918,.T.);
#987=FACE_BOUND('',#919,.T.);
#988=FACE_BOUND('',#920,.T.);
#989=FACE_BOUND('',#921,.T.);
#990=FACE_BOUND('',#922,.T.);
#991=FACE_BOUND('',#923,.T.);
#992=FACE_BOUND('',#924,.T.);
#993=FACE_BOUND('',#925,.T.);
#994=FACE_BOUND('',#926,.T.);
#995=FACE_BOUND('',#927,.T.);
#996=FACE_BOUND('',#928,.T.);
#997=FACE_BOUND('',#929,.T.);
#998=FACE_BOUND('',#930,.T.);
#999=FACE_BOUND('',#931,.T.);
#1000=PLANE('',#1101);
#1001=PLANE('',#1102);
#1002=PLANE('',#1103);
#1003=PLANE('',#1112);
#1004=PLANE('',#1117);
#1005=PLANE('',#1125);
#1006=PLANE('',#1129);
#1007=PLANE('',#1141);
#1008=PLANE('',#1144);
#1009=PLANE('',#1148);
#1010=PLANE('',#1149);
#1011=PLANE('',#1160);
#1012=PLANE('',#1163);
#1013=PLANE('',#1164);
#1014=PLANE('',#1165);
#1015=PLANE('',#1166);
#1016=PLANE('',#1167);
#1017=PLANE('',#1168);
#1018=PLANE('',#1169);
#1019=PLANE('',#1170);
#1020=PLANE('',#1171);
#1021=PLANE('',#1180);
#1022=PLANE('',#1181);
#1023=PLANE('',#1182);
#1024=PLANE('',#1183);
#1025=PLANE('',#1184);
#1026=PLANE('',#1185);
#1027=PLANE('',#1186);
#1028=PLANE('',#1191);
#1029=PLANE('',#1192);
#1030=PLANE('',#1193);
#1031=PLANE('',#1196);
#1032=PLANE('',#1199);
#1033=ADVANCED_FACE('',(#932),#1000,.F.);
#1034=ADVANCED_FACE('',(#933),#1001,.F.);
#1035=ADVANCED_FACE('',(#934,#935,#936),#1002,.F.);
#1036=ADVANCED_FACE('',(#937,#938),#1003,.F.);
#1037=ADVANCED_FACE('',(#939,#940),#1004,.T.);
#1038=ADVANCED_FACE('',(#941),#12,.T.);
#1039=ADVANCED_FACE('',(#942),#1005,.T.);
#1040=ADVANCED_FACE('',(#943),#13,.T.);
#1041=ADVANCED_FACE('',(#944),#1006,.T.);
#1042=ADVANCED_FACE('',(#945),#14,.T.);
#1043=ADVANCED_FACE('',(#946),#15,.F.);
#1044=ADVANCED_FACE('',(#947),#16,.F.);
#1045=ADVANCED_FACE('',(#948),#17,.F.);
#1046=ADVANCED_FACE('',(#949,#950),#1007,.T.);
#1047=ADVANCED_FACE('',(#951),#1008,.T.);
#1048=ADVANCED_FACE('',(#952),#18,.T.);
#1049=ADVANCED_FACE('',(#953),#19,.F.);
#1050=ADVANCED_FACE('',(#954),#1009,.F.);
#1051=ADVANCED_FACE('',(#955,#956,#957,#958,#959),#1010,.T.);
#1052=ADVANCED_FACE('',(#960),#1011,.F.);
#1053=ADVANCED_FACE('',(#961),#20,.F.);
#1054=ADVANCED_FACE('',(#962),#21,.F.);
#1055=ADVANCED_FACE('',(#963),#1012,.F.);
#1056=ADVANCED_FACE('',(#964),#1013,.F.);
#1057=ADVANCED_FACE('',(#965),#1014,.F.);
#1058=ADVANCED_FACE('',(#966),#1015,.F.);
#1059=ADVANCED_FACE('',(#967),#1016,.F.);
#1060=ADVANCED_FACE('',(#968),#1017,.T.);
#1061=ADVANCED_FACE('',(#969),#1018,.F.);
#1062=ADVANCED_FACE('',(#970),#1019,.F.);
#1063=ADVANCED_FACE('',(#971),#1020,.T.);
#1064=ADVANCED_FACE('',(#972),#22,.F.);
#1065=ADVANCED_FACE('',(#973),#23,.F.);
#1066=ADVANCED_FACE('',(#974),#24,.F.);
#1067=ADVANCED_FACE('',(#975),#25,.F.);
#1068=ADVANCED_FACE('',(#976),#26,.F.);
#1069=ADVANCED_FACE('',(#977),#27,.F.);
#1070=ADVANCED_FACE('',(#978),#28,.F.);
#1071=ADVANCED_FACE('',(#979),#29,.F.);
#1072=ADVANCED_FACE('',(#980),#1021,.T.);
#1073=ADVANCED_FACE('',(#981),#1022,.T.);
#1074=ADVANCED_FACE('',(#982),#1023,.F.);
#1075=ADVANCED_FACE('',(#983),#1024,.F.);
#1076=ADVANCED_FACE('',(#984),#1025,.F.);
#1077=ADVANCED_FACE('',(#985),#1026,.F.);
#1078=ADVANCED_FACE('',(#986),#1027,.T.);
#1079=ADVANCED_FACE('',(#987),#30,.T.);
#1080=ADVANCED_FACE('',(#988,#989),#31,.F.);
#1081=ADVANCED_FACE('',(#990),#1028,.T.);
#1082=ADVANCED_FACE('',(#991,#992),#1029,.F.);
#1083=ADVANCED_FACE('',(#993),#1030,.F.);
#1084=ADVANCED_FACE('',(#994),#32,.T.);
#1085=ADVANCED_FACE('',(#995),#1031,.F.);
#1086=ADVANCED_FACE('',(#996,#997),#33,.F.);
#1087=ADVANCED_FACE('',(#998,#999),#1032,.F.);
#1088=CLOSED_SHELL('',(#1033,#1034,#1035,#1036,#1037,#1038,#1039,#1040,#1041,#1042,#1043,#1044,#1045,#1046,#1047,#1048,#1049,#1050,#1051,#1052,#1053,#1054,#1055,#1056,#1057,#1058,#1059,#1060,#1061,#1062,#1063,#1064,#1065,#1066,#1067,#1068,#1069,#1070,#1071,#1072,#1073,#1074,#1075,#1076,#1077,#1078,#1079,#1080,#1081,#1082,#1083,#1084,#1085,#1086,#1087));
#1089=STYLED_ITEM('',(#1090),#1097);
#1090=PRESENTATION_STYLE_ASSIGNMENT((#1091));
#1091=SURFACE_STYLE_USAGE(.BOTH.,#1092);
#1092=SURFACE_SIDE_STYLE('',(#1093));
#1093=SURFACE_STYLE_FILL_AREA(#1094);
#1094=FILL_AREA_STYLE('',(#1095));
#1095=FILL_AREA_STYLE_COLOUR('',#1096);
#1096=COLOUR_RGB('',0.972549019607843,0.529411764705882,0.00392156862745098);
#1097=MANIFOLD_SOLID_BREP('Part 2',#1088);
#1098=SHAPE_DEFINITION_REPRESENTATION(#1830,#1099);
#1099=SHAPE_REPRESENTATION('Part 2',(#1100),#1825);
#1100=AXIS2_PLACEMENT_3D('',#1510,#1200,#1201);
#1101=AXIS2_PLACEMENT_3D('',#1511,#1202,#1203);
#1102=AXIS2_PLACEMENT_3D('',#1524,#1210,#1211);
#1103=AXIS2_PLACEMENT_3D('',#1541,#1220,#1221);
#1104=AXIS2_PLACEMENT_3D('',#1544,#1223,#1224);
#1105=AXIS2_PLACEMENT_3D('',#1548,#1226,#1227);
#1106=AXIS2_PLACEMENT_3D('',#1559,#1233,#1234);
#1107=AXIS2_PLACEMENT_3D('',#1563,#1236,#1237);
#1108=AXIS2_PLACEMENT_3D('',#1567,#1239,#1240);
#1109=AXIS2_PLACEMENT_3D('',#1571,#1242,#1243);
#1110=AXIS2_PLACEMENT_3D('',#1575,#1245,#1246);
#1111=AXIS2_PLACEMENT_3D('',#1579,#1248,#1249);
#1112=AXIS2_PLACEMENT_3D('',#1580,#1250,#1251);
#1113=AXIS2_PLACEMENT_3D('',#1589,#1256,#1257);
#1114=AXIS2_PLACEMENT_3D('',#1593,#1259,#1260);
#1115=AXIS2_PLACEMENT_3D('',#1597,#1262,#1263);
#1116=AXIS2_PLACEMENT_3D('',#1601,#1265,#1266);
#1117=AXIS2_PLACEMENT_3D('',#1602,#1267,#1268);
#1118=AXIS2_PLACEMENT_3D('',#1622,#1278,#1279);
#1119=AXIS2_PLACEMENT_3D('',#1626,#1281,#1282);
#1120=AXIS2_PLACEMENT_3D('',#1630,#1284,#1285);
#1121=AXIS2_PLACEMENT_3D('',#1634,#1287,#1288);
#1122=AXIS2_PLACEMENT_3D('',#1635,#1289,#1290);
#1123=AXIS2_PLACEMENT_3D('',#1636,#1291,#1292);
#1124=AXIS2_PLACEMENT_3D('',#1640,#1294,#1295);
#1125=AXIS2_PLACEMENT_3D('',#1641,#1296,#1297);
#1126=AXIS2_PLACEMENT_3D('',#1647,#1301,#1302);
#1127=AXIS2_PLACEMENT_3D('',#1648,#1303,#1304);
#1128=AXIS2_PLACEMENT_3D('',#1652,#1306,#1307);
#1129=AXIS2_PLACEMENT_3D('',#1653,#1308,#1309);
#1130=AXIS2_PLACEMENT_3D('',#1667,#1317,#1318);
#1131=AXIS2_PLACEMENT_3D('',#1668,#1319,#1320);
#1132=AXIS2_PLACEMENT_3D('',#1672,#1322,#1323);
#1133=AXIS2_PLACEMENT_3D('',#1673,#1324,#1325);
#1134=AXIS2_PLACEMENT_3D('',#1674,#1326,#1327);
#1135=AXIS2_PLACEMENT_3D('',#1675,#1328,#1329);
#1136=AXIS2_PLACEMENT_3D('',#1676,#1330,#1331);
#1137=AXIS2_PLACEMENT_3D('',#1677,#1332,#1333);
#1138=AXIS2_PLACEMENT_3D('',#1678,#1334,#1335);
#1139=AXIS2_PLACEMENT_3D('',#1679,#1336,#1337);
#1140=AXIS2_PLACEMENT_3D('',#1683,#1339,#1340);
#1141=AXIS2_PLACEMENT_3D('',#1684,#1341,#1342);
#1142=AXIS2_PLACEMENT_3D('',#1685,#1343,#1344);
#1143=AXIS2_PLACEMENT_3D('',#1690,#1347,#1348);
#1144=AXIS2_PLACEMENT_3D('',#1691,#1349,#1350);
#1145=AXIS2_PLACEMENT_3D('',#1695,#1353,#1354);
#1146=AXIS2_PLACEMENT_3D('',#1696,#1355,#1356);
#1147=AXIS2_PLACEMENT_3D('',#1697,#1357,#1358);
#1148=AXIS2_PLACEMENT_3D('',#1699,#1360,#1361);
#1149=AXIS2_PLACEMENT_3D('',#1703,#1364,#1365);
#1150=AXIS2_PLACEMENT_3D('',#1706,#1367,#1368);
#1151=AXIS2_PLACEMENT_3D('',#1711,#1371,#1372);
#1152=AXIS2_PLACEMENT_3D('',#1714,#1374,#1375);
#1153=AXIS2_PLACEMENT_3D('',#1719,#1377,#1378);
#1154=AXIS2_PLACEMENT_3D('',#1725,#1381,#1382);
#1155=AXIS2_PLACEMENT_3D('',#1729,#1384,#1385);
#1156=AXIS2_PLACEMENT_3D('',#1733,#1387,#1388);
#1157=AXIS2_PLACEMENT_3D('',#1737,#1390,#1391);
#1158=AXIS2_PLACEMENT_3D('',#1738,#1392,#1393);
#1159=AXIS2_PLACEMENT_3D('',#1740,#1394,#1395);
#1160=AXIS2_PLACEMENT_3D('',#1742,#1396,#1397);
#1161=AXIS2_PLACEMENT_3D('',#1745,#1400,#1401);
#1162=AXIS2_PLACEMENT_3D('',#1747,#1403,#1404);
#1163=AXIS2_PLACEMENT_3D('',#1749,#1406,#1407);
#1164=AXIS2_PLACEMENT_3D('',#1752,#1410,#1411);
#1165=AXIS2_PLACEMENT_3D('',#1755,#1414,#1415);
#1166=AXIS2_PLACEMENT_3D('',#1758,#1418,#1419);
#1167=AXIS2_PLACEMENT_3D('',#1759,#1420,#1421);
#1168=AXIS2_PLACEMENT_3D('',#1762,#1424,#1425);
#1169=AXIS2_PLACEMENT_3D('',#1765,#1428,#1429);
#1170=AXIS2_PLACEMENT_3D('',#1768,#1432,#1433);
#1171=AXIS2_PLACEMENT_3D('',#1771,#1436,#1437);
#1172=AXIS2_PLACEMENT_3D('',#1774,#1440,#1441);
#1173=AXIS2_PLACEMENT_3D('',#1775,#1442,#1443);
#1174=AXIS2_PLACEMENT_3D('',#1776,#1444,#1445);
#1175=AXIS2_PLACEMENT_3D('',#1777,#1446,#1447);
#1176=AXIS2_PLACEMENT_3D('',#1778,#1448,#1449);
#1177=AXIS2_PLACEMENT_3D('',#1779,#1450,#1451);
#1178=AXIS2_PLACEMENT_3D('',#1780,#1452,#1453);
#1179=AXIS2_PLACEMENT_3D('',#1781,#1454,#1455);
#1180=AXIS2_PLACEMENT_3D('',#1782,#1456,#1457);
#1181=AXIS2_PLACEMENT_3D('',#1786,#1460,#1461);
#1182=AXIS2_PLACEMENT_3D('',#1788,#1463,#1464);
#1183=AXIS2_PLACEMENT_3D('',#1789,#1465,#1466);
#1184=AXIS2_PLACEMENT_3D('',#1793,#1469,#1470);
#1185=AXIS2_PLACEMENT_3D('',#1795,#1472,#1473);
#1186=AXIS2_PLACEMENT_3D('',#1796,#1474,#1475);
#1187=AXIS2_PLACEMENT_3D('',#1800,#1478,#1479);
#1188=AXIS2_PLACEMENT_3D('',#1801,#1480,#1481);
#1189=AXIS2_PLACEMENT_3D('',#1804,#1483,#1484);
#1190=AXIS2_PLACEMENT_3D('',#1805,#1485,#1486);
#1191=AXIS2_PLACEMENT_3D('',#1807,#1487,#1488);
#1192=AXIS2_PLACEMENT_3D('',#1809,#1490,#1491);
#1193=AXIS2_PLACEMENT_3D('',#1810,#1492,#1493);
#1194=AXIS2_PLACEMENT_3D('',#1814,#1496,#1497);
#1195=AXIS2_PLACEMENT_3D('',#1815,#1498,#1499);
#1196=AXIS2_PLACEMENT_3D('',#1818,#1501,#1502);
#1197=AXIS2_PLACEMENT_3D('',#1820,#1504,#1505);
#1198=AXIS2_PLACEMENT_3D('',#1821,#1506,#1507);
#1199=AXIS2_PLACEMENT_3D('',#1823,#1508,#1509);
#1200=DIRECTION('',(0.,0.,1.));
#1201=DIRECTION('',(1.,0.,0.));
#1202=DIRECTION('',(1.,0.,0.));
#1203=DIRECTION('',(0.,0.,-1.));
#1204=DIRECTION('',(0.,1.,0.));
#1205=DIRECTION('',(0.,0.,-1.));
#1206=DIRECTION('',(0.,-1.,0.));
#1207=DIRECTION('',(0.,0.,1.));
#1208=DIRECTION('',(0.,-1.,0.));
#1209=DIRECTION('',(0.,0.,-1.));
#1210=DIRECTION('',(0.,0.,-1.));
#1211=DIRECTION('',(-1.,0.,0.));
#1212=DIRECTION('',(0.,-1.,0.));
#1213=DIRECTION('',(-1.,0.,0.));
#1214=DIRECTION('',(0.,1.,0.));
#1215=DIRECTION('',(-1.,0.,0.));
#1216=DIRECTION('',(0.,1.,0.));
#1217=DIRECTION('',(-1.,0.,0.));
#1218=DIRECTION('',(0.,-1.,0.));
#1219=DIRECTION('',(1.,0.,0.));
#1220=DIRECTION('',(0.,1.,0.));
#1221=DIRECTION('',(1.,0.,0.));
#1222=DIRECTION('',(-1.,0.,0.));
#1223=DIRECTION('',(0.,1.,0.));
#1224=DIRECTION('',(0.,0.,1.));
#1225=DIRECTION('',(1.,0.,0.));
#1226=DIRECTION('',(0.,1.,0.));
#1227=DIRECTION('',(0.,0.,1.));
#1228=DIRECTION('',(0.,0.,1.));
#1229=DIRECTION('',(1.,0.,0.));
#1230=DIRECTION('',(0.,0.,-1.));
#1231=DIRECTION('',(0.,0.,-1.));
#1232=DIRECTION('',(1.,0.,0.));
#1233=DIRECTION('',(0.,1.,0.));
#1234=DIRECTION('',(0.,0.,1.));
#1235=DIRECTION('',(0.,0.,-1.));
#1236=DIRECTION('',(0.,1.,0.));
#1237=DIRECTION('',(0.,0.,1.));
#1238=DIRECTION('',(-1.,0.,0.));
#1239=DIRECTION('',(0.,1.,0.));
#1240=DIRECTION('',(0.,0.,1.));
#1241=DIRECTION('',(0.,0.,1.));
#1242=DIRECTION('',(0.,1.,0.));
#1243=DIRECTION('',(0.,0.,1.));
#1244=DIRECTION('',(1.,0.,0.));
#1245=DIRECTION('',(0.,1.,0.));
#1246=DIRECTION('',(0.,0.,1.));
#1247=DIRECTION('',(-1.,0.,0.));
#1248=DIRECTION('',(0.,1.,0.));
#1249=DIRECTION('',(0.,0.,1.));
#1250=DIRECTION('',(0.,0.,1.));
#1251=DIRECTION('',(1.,0.,0.));
#1252=DIRECTION('',(0.,-1.,0.));
#1253=DIRECTION('',(0.,-1.,0.));
#1254=DIRECTION('',(-1.,0.,0.));
#1255=DIRECTION('',(-1.,-1.21957499717155E-16,0.));
#1256=DIRECTION('',(0.,0.,1.));
#1257=DIRECTION('',(1.,0.,0.));
#1258=DIRECTION('',(0.,1.,0.));
#1259=DIRECTION('',(0.,0.,1.));
#1260=DIRECTION('',(1.,0.,0.));
#1261=DIRECTION('',(-1.,-1.95131999547447E-16,0.));
#1262=DIRECTION('',(0.,0.,1.));
#1263=DIRECTION('',(1.,0.,0.));
#1264=DIRECTION('',(0.,1.,0.));
#1265=DIRECTION('',(0.,0.,1.));
#1266=DIRECTION('',(1.,0.,0.));
#1267=DIRECTION('',(0.,0.,1.));
#1268=DIRECTION('',(1.,0.,0.));
#1269=DIRECTION('',(0.,1.,0.));
#1270=DIRECTION('',(-1.,0.,0.));
#1271=DIRECTION('',(0.,1.,0.));
#1272=DIRECTION('',(-1.,0.,0.));
#1273=DIRECTION('',(0.,-1.,0.));
#1274=DIRECTION('',(-1.,0.,0.));
#1275=DIRECTION('',(0.,-1.,0.));
#1276=DIRECTION('',(-1.,0.,0.));
#1277=DIRECTION('',(0.,1.,0.));
#1278=DIRECTION('',(0.,0.,1.));
#1279=DIRECTION('',(1.,0.,0.));
#1280=DIRECTION('',(-1.,-1.21957499717155E-16,0.));
#1281=DIRECTION('',(0.,0.,1.));
#1282=DIRECTION('',(1.,0.,0.));
#1283=DIRECTION('',(0.,1.,0.));
#1284=DIRECTION('',(0.,0.,1.));
#1285=DIRECTION('',(1.,0.,0.));
#1286=DIRECTION('',(-1.,-1.95131999547447E-16,0.));
#1287=DIRECTION('',(0.,0.,1.));
#1288=DIRECTION('',(1.,0.,0.));
#1289=DIRECTION('',(0.,-1.,0.));
#1290=DIRECTION('',(0.,0.,-1.));
#1291=DIRECTION('',(0.,1.,0.));
#1292=DIRECTION('',(0.,0.,1.));
#1293=DIRECTION('',(0.,-1.,0.));
#1294=DIRECTION('',(0.,-1.,0.));
#1295=DIRECTION('',(0.,0.,-1.));
#1296=DIRECTION('',(-1.,0.,0.));
#1297=DIRECTION('',(0.,0.,1.));
#1298=DIRECTION('',(0.,0.,-1.));
#1299=DIRECTION('',(0.,-1.,0.));
#1300=DIRECTION('',(0.,0.,-1.));
#1301=DIRECTION('',(0.,-1.,0.));
#1302=DIRECTION('',(0.,0.,-1.));
#1303=DIRECTION('',(0.,1.,0.));
#1304=DIRECTION('',(0.,0.,1.));
#1305=DIRECTION('',(0.,-1.,0.));
#1306=DIRECTION('',(0.,-1.,0.));
#1307=DIRECTION('',(0.,0.,-1.));
#1308=DIRECTION('',(0.,0.,-1.));
#1309=DIRECTION('',(-1.,0.,0.));
#1310=DIRECTION('',(0.,1.,0.));
#1311=DIRECTION('',(1.,0.,0.));
#1312=DIRECTION('',(0.,1.,0.));
#1313=DIRECTION('',(1.,0.,0.));
#1314=DIRECTION('',(0.,-1.,0.));
#1315=DIRECTION('',(1.,0.,0.));
#1316=DIRECTION('',(1.,0.,0.));
#1317=DIRECTION('',(0.,-1.,0.));
#1318=DIRECTION('',(0.,0.,-1.));
#1319=DIRECTION('',(0.,1.,0.));
#1320=DIRECTION('',(0.,0.,1.));
#1321=DIRECTION('',(0.,-1.,0.));
#1322=DIRECTION('',(0.,-1.,0.));
#1323=DIRECTION('',(0.,0.,-1.));
#1324=DIRECTION('',(0.,-1.,0.));
#1325=DIRECTION('',(0.,0.,-1.));
#1326=DIRECTION('',(0.,-1.,0.));
#1327=DIRECTION('',(0.,0.,-1.));
#1328=DIRECTION('',(0.,-1.,0.));
#1329=DIRECTION('',(0.,0.,-1.));
#1330=DIRECTION('',(0.,1.,0.));
#1331=DIRECTION('',(0.,0.,1.));
#1332=DIRECTION('',(0.,-1.,0.));
#1333=DIRECTION('',(0.,0.,-1.));
#1334=DIRECTION('',(0.,-1.,0.));
#1335=DIRECTION('',(0.,0.,-1.));
#1336=DIRECTION('',(0.,1.,0.));
#1337=DIRECTION('',(0.,0.,1.));
#1338=DIRECTION('',(0.,-1.,0.));
#1339=DIRECTION('',(0.,-1.,0.));
#1340=DIRECTION('',(0.,0.,-1.));
#1341=DIRECTION('',(0.,-1.,0.));
#1342=DIRECTION('',(1.,0.,0.));
#1343=DIRECTION('',(0.,-1.,0.));
#1344=DIRECTION('',(0.,0.,-1.));
#1345=DIRECTION('',(0.,0.,-1.));
#1346=DIRECTION('',(0.,0.,1.));
#1347=DIRECTION('',(0.,-1.,0.));
#1348=DIRECTION('',(0.,0.,-1.));
#1349=DIRECTION('',(1.,0.,0.));
#1350=DIRECTION('',(0.,0.,-1.));
#1351=DIRECTION('',(0.,0.,1.));
#1352=DIRECTION('',(0.,-1.,0.));
#1353=DIRECTION('',(0.,-1.,0.));
#1354=DIRECTION('',(0.,0.,-1.));
#1355=DIRECTION('',(0.,1.,0.));
#1356=DIRECTION('',(0.,0.,1.));
#1357=DIRECTION('',(0.,-1.,0.));
#1358=DIRECTION('',(0.,0.,-1.));
#1359=DIRECTION('',(0.,-1.,0.));
#1360=DIRECTION('',(-1.,0.,0.));
#1361=DIRECTION('',(0.,0.,1.));
#1362=DIRECTION('',(0.,0.,1.));
#1363=DIRECTION('',(0.,1.,0.));
#1364=DIRECTION('',(0.,1.,0.));
#1365=DIRECTION('',(1.,0.,0.));
#1366=DIRECTION('',(0.,0.,-1.));
#1367=DIRECTION('',(0.,-1.,0.));
#1368=DIRECTION('',(0.,0.,1.));
#1369=DIRECTION('',(0.,0.,1.));
#1370=DIRECTION('',(0.,0.,-1.));
#1371=DIRECTION('',(0.,1.,0.));
#1372=DIRECTION('',(0.,0.,1.));
#1373=DIRECTION('',(0.,0.,1.));
#1374=DIRECTION('',(0.,1.,0.));
#1375=DIRECTION('',(0.,0.,1.));
#1376=DIRECTION('',(1.,0.,0.));
#1377=DIRECTION('',(0.,1.,0.));
#1378=DIRECTION('',(0.,0.,1.));
#1379=DIRECTION('',(-1.,0.,0.));
#1380=DIRECTION('',(0.,0.,-1.));
#1381=DIRECTION('',(0.,1.,0.));
#1382=DIRECTION('',(0.,0.,1.));
#1383=DIRECTION('',(1.,0.,0.));
#1384=DIRECTION('',(0.,1.,0.));
#1385=DIRECTION('',(0.,0.,1.));
#1386=DIRECTION('',(0.,0.,1.));
#1387=DIRECTION('',(0.,1.,0.));
#1388=DIRECTION('',(0.,0.,1.));
#1389=DIRECTION('',(-1.,0.,0.));
#1390=DIRECTION('',(0.,1.,0.));
#1391=DIRECTION('',(0.,0.,1.));
#1392=DIRECTION('',(0.,1.,0.));
#1393=DIRECTION('',(0.,0.,1.));
#1394=DIRECTION('',(0.,1.,0.));
#1395=DIRECTION('',(0.,0.,1.));
#1396=DIRECTION('',(0.,0.,-1.));
#1397=DIRECTION('',(-1.,0.,0.));
#1398=DIRECTION('',(0.,1.,0.));
#1399=DIRECTION('',(0.,1.,0.));
#1400=DIRECTION('',(0.,1.,0.));
#1401=DIRECTION('',(0.,0.,1.));
#1402=DIRECTION('',(0.,1.,0.));
#1403=DIRECTION('',(0.,1.,0.));
#1404=DIRECTION('',(0.,0.,1.));
#1405=DIRECTION('',(0.,1.,0.));
#1406=DIRECTION('',(0.,0.,-1.));
#1407=DIRECTION('',(-1.,0.,0.));
#1408=DIRECTION('',(0.,1.,0.));
#1409=DIRECTION('',(0.,1.,0.));
#1410=DIRECTION('',(-1.,0.,0.));
#1411=DIRECTION('',(0.,0.,1.));
#1412=DIRECTION('',(0.,1.,0.));
#1413=DIRECTION('',(0.,1.,0.));
#1414=DIRECTION('',(1.,0.,0.));
#1415=DIRECTION('',(0.,0.,-1.));
#1416=DIRECTION('',(0.,1.,0.));
#1417=DIRECTION('',(0.,1.,0.));
#1418=DIRECTION('',(0.,0.,1.));
#1419=DIRECTION('',(1.,0.,0.));
#1420=DIRECTION('',(0.,0.,1.));
#1421=DIRECTION('',(1.,0.,0.));
#1422=DIRECTION('',(0.,1.,0.));
#1423=DIRECTION('',(0.,1.,0.));
#1424=DIRECTION('',(-1.21957499717155E-16,1.,0.));
#1425=DIRECTION('',(-1.,-1.21957499717155E-16,0.));
#1426=DIRECTION('',(0.,0.,1.));
#1427=DIRECTION('',(0.,0.,1.));
#1428=DIRECTION('',(1.,0.,0.));
#1429=DIRECTION('',(0.,0.,-1.));
#1430=DIRECTION('',(0.,0.,1.));
#1431=DIRECTION('',(0.,0.,1.));
#1432=DIRECTION('',(-1.95131999547447E-16,1.,0.));
#1433=DIRECTION('',(-1.,-1.95131999547447E-16,0.));
#1434=DIRECTION('',(0.,0.,1.));
#1435=DIRECTION('',(0.,0.,1.));
#1436=DIRECTION('',(1.,0.,0.));
#1437=DIRECTION('',(0.,0.,-1.));
#1438=DIRECTION('',(0.,0.,1.));
#1439=DIRECTION('',(0.,0.,1.));
#1440=DIRECTION('',(0.,0.,1.));
#1441=DIRECTION('',(1.,0.,0.));
#1442=DIRECTION('',(0.,0.,-1.));
#1443=DIRECTION('',(-1.,0.,0.));
#1444=DIRECTION('',(0.,0.,-1.));
#1445=DIRECTION('',(-1.,0.,0.));
#1446=DIRECTION('',(0.,0.,1.));
#1447=DIRECTION('',(1.,0.,0.));
#1448=DIRECTION('',(0.,-1.,0.));
#1449=DIRECTION('',(0.,0.,-1.));
#1450=DIRECTION('',(0.,-1.,0.));
#1451=DIRECTION('',(0.,0.,-1.));
#1452=DIRECTION('',(0.,-1.,0.));
#1453=DIRECTION('',(0.,0.,-1.));
#1454=DIRECTION('',(0.,-1.,0.));
#1455=DIRECTION('',(0.,0.,-1.));
#1456=DIRECTION('',(1.,0.,0.));
#1457=DIRECTION('',(0.,0.,-1.));
#1458=DIRECTION('',(0.,1.,0.));
#1459=DIRECTION('',(0.,0.,1.));
#1460=DIRECTION('',(0.,0.,1.));
#1461=DIRECTION('',(1.,0.,0.));
#1462=DIRECTION('',(-1.,0.,0.));
#1463=DIRECTION('',(0.,1.,0.));
#1464=DIRECTION('',(1.,0.,0.));
#1465=DIRECTION('',(0.,0.,-1.));
#1466=DIRECTION('',(-1.,0.,0.));
#1467=DIRECTION('',(0.,1.,0.));
#1468=DIRECTION('',(1.,0.,0.));
#1469=DIRECTION('',(1.,0.,0.));
#1470=DIRECTION('',(0.,0.,-1.));
#1471=DIRECTION('',(0.,0.,1.));
#1472=DIRECTION('',(0.,1.,0.));
#1473=DIRECTION('',(1.,0.,0.));
#1474=DIRECTION('',(1.,0.,0.));
#1475=DIRECTION('',(0.,0.,-1.));
#1476=DIRECTION('',(0.,0.,-1.));
#1477=DIRECTION('',(0.,1.,0.));
#1478=DIRECTION('',(0.,1.,0.));
#1479=DIRECTION('',(0.,0.,1.));
#1480=DIRECTION('',(0.,-1.,0.));
#1481=DIRECTION('',(0.,0.,1.));
#1482=DIRECTION('',(0.,1.,0.));
#1483=DIRECTION('',(0.,1.,0.));
#1484=DIRECTION('',(0.,0.,1.));
#1485=DIRECTION('',(0.,1.,0.));
#1486=DIRECTION('',(0.,0.,1.));
#1487=DIRECTION('',(-1.,0.,0.));
#1488=DIRECTION('',(0.,0.,1.));
#1489=DIRECTION('',(0.,0.,1.));
#1490=DIRECTION('',(0.,1.,0.));
#1491=DIRECTION('',(-1.,0.,0.));
#1492=DIRECTION('',(1.,0.,0.));
#1493=DIRECTION('',(0.,0.,-1.));
#1494=DIRECTION('',(0.,0.,-1.));
#1495=DIRECTION('',(0.,1.,0.));
#1496=DIRECTION('',(0.,1.,0.));
#1497=DIRECTION('',(0.,0.,1.));
#1498=DIRECTION('',(0.,1.,0.));
#1499=DIRECTION('',(0.,0.,1.));
#1500=DIRECTION('',(0.,1.,0.));
#1501=DIRECTION('',(-1.,0.,0.));
#1502=DIRECTION('',(0.,0.,1.));
#1503=DIRECTION('',(0.,0.,1.));
#1504=DIRECTION('',(0.,1.,0.));
#1505=DIRECTION('',(0.,0.,1.));
#1506=DIRECTION('',(0.,1.,0.));
#1507=DIRECTION('',(0.,0.,1.));
#1508=DIRECTION('',(0.,1.,0.));
#1509=DIRECTION('',(-1.,0.,0.));
#1510=CARTESIAN_POINT('',(0.,0.,0.));
#1511=CARTESIAN_POINT('',(0.012754,0.010802,0.));
#1512=CARTESIAN_POINT('',(0.012754,0.000998,-0.0092));
#1513=CARTESIAN_POINT('',(0.012754,0.001,-0.0092));
#1514=CARTESIAN_POINT('',(0.012754,0.0085,-0.0092));
#1515=CARTESIAN_POINT('',(0.012754,0.001,0.));
#1516=CARTESIAN_POINT('',(0.012754,0.001,-0.011));
#1517=CARTESIAN_POINT('',(0.012754,0.010802,-0.011));
#1518=CARTESIAN_POINT('',(0.012754,-0.0025,-0.011));
#1519=CARTESIAN_POINT('',(0.012754,-0.0025,0.));
#1520=CARTESIAN_POINT('',(0.012754,-0.0025,0.011));
#1521=CARTESIAN_POINT('',(0.012754,0.010802,0.011));
#1522=CARTESIAN_POINT('',(0.012754,0.0085,0.011));
#1523=CARTESIAN_POINT('',(0.012754,0.0085,0.));
#1524=CARTESIAN_POINT('',(0.,0.010802,-0.012754));
#1525=CARTESIAN_POINT('',(0.011,0.010802,-0.012754));
#1526=CARTESIAN_POINT('',(0.011,0.001,-0.012754));
#1527=CARTESIAN_POINT('',(0.011,-0.0025,-0.012754));
#1528=CARTESIAN_POINT('',(0.,0.001,-0.012754));
#1529=CARTESIAN_POINT('',(0.0092,0.001,-0.012754));
#1530=CARTESIAN_POINT('',(0.0092,0.000998,-0.012754));
#1531=CARTESIAN_POINT('',(0.0092,0.0085,-0.012754));
#1532=CARTESIAN_POINT('',(0.,0.0085,-0.012754));
#1533=CARTESIAN_POINT('',(-0.0092,0.0085,-0.012754));
#1534=CARTESIAN_POINT('',(-0.0092,0.000998,-0.012754));
#1535=CARTESIAN_POINT('',(-0.0092,0.001,-0.012754));
#1536=CARTESIAN_POINT('',(0.,0.001,-0.012754));
#1537=CARTESIAN_POINT('',(-0.011,0.001,-0.012754));
#1538=CARTESIAN_POINT('',(-0.011,0.010802,-0.012754));
#1539=CARTESIAN_POINT('',(-0.011,-0.0025,-0.012754));
#1540=CARTESIAN_POINT('',(0.,-0.0025,-0.012754));
#1541=CARTESIAN_POINT('',(0.,0.0085,0.00525));
#1542=CARTESIAN_POINT('',(0.,0.0085,-0.0092));
#1543=CARTESIAN_POINT('',(0.0092,0.0085,-0.0092));
#1544=CARTESIAN_POINT('',(0.011,0.0085,0.011));
#1545=CARTESIAN_POINT('',(0.011,0.0085,0.012754));
#1546=CARTESIAN_POINT('',(0.,0.0085,0.012754));
#1547=CARTESIAN_POINT('',(-0.011,0.0085,0.012754));
#1548=CARTESIAN_POINT('',(-0.011,0.0085,0.011));
#1549=CARTESIAN_POINT('',(-0.012754,0.0085,0.011));
#1550=CARTESIAN_POINT('',(-0.012754,0.0085,0.));
#1551=CARTESIAN_POINT('',(-0.012754,0.0085,-0.0092));
#1552=CARTESIAN_POINT('',(0.,0.0085,-0.0092));
#1553=CARTESIAN_POINT('',(-0.0092,0.0085,-0.0092));
#1554=CARTESIAN_POINT('',(-0.0092,0.0085,0.00525));
#1555=CARTESIAN_POINT('',(0.0092,0.0085,0.00525));
#1556=CARTESIAN_POINT('',(0.,0.0085,0.00125));
#1557=CARTESIAN_POINT('',(-0.0030801898,0.0085,0.00125));
#1558=CARTESIAN_POINT('',(0.0030801898,0.0085,0.00125));
#1559=CARTESIAN_POINT('',(-0.0030801898,0.0085,0.0021698102));
#1560=CARTESIAN_POINT('',(-0.004,0.0085,0.0021698102));
#1561=CARTESIAN_POINT('',(-0.004,0.0085,0.00525));
#1562=CARTESIAN_POINT('',(-0.004,0.0085,0.0083301898));
#1563=CARTESIAN_POINT('',(-0.0030801898,0.0085,0.0083301898));
#1564=CARTESIAN_POINT('',(-0.0030801898,0.0085,0.00925));
#1565=CARTESIAN_POINT('',(0.,0.0085,0.00925));
#1566=CARTESIAN_POINT('',(0.0030801898,0.0085,0.00925));
#1567=CARTESIAN_POINT('',(0.0030801898,0.0085,0.0083301898));
#1568=CARTESIAN_POINT('',(0.004,0.0085,0.0083301898));
#1569=CARTESIAN_POINT('',(0.004,0.0085,0.00525));
#1570=CARTESIAN_POINT('',(0.004,0.0085,0.0021698102));
#1571=CARTESIAN_POINT('',(0.0030801898,0.0085,0.0021698102));
#1572=CARTESIAN_POINT('',(-5.63785129692462E-18,0.0085,-0.011254));
#1573=CARTESIAN_POINT('',(-0.0045,0.0085,-0.011254));
#1574=CARTESIAN_POINT('',(0.0045,0.0085,-0.011254));
#1575=CARTESIAN_POINT('',(-0.0045,0.0085,-0.00650000000000162));
#1576=CARTESIAN_POINT('',(-0.00469497692171128,0.0085,-0.00175));
#1577=CARTESIAN_POINT('',(-1.25767452008318E-17,0.0085,-0.00175));
#1578=CARTESIAN_POINT('',(0.00469497692171125,0.0085,-0.00175));
#1579=CARTESIAN_POINT('',(0.0045,0.0085,-0.00650000000000091));
#1580=CARTESIAN_POINT('',(0.,0.010802,0.012754));
#1581=CARTESIAN_POINT('',(-0.011,0.010802,0.012754));
#1582=CARTESIAN_POINT('',(-0.011,-0.0025,0.012754));
#1583=CARTESIAN_POINT('',(0.011,0.010802,0.012754));
#1584=CARTESIAN_POINT('',(0.011,-0.0025,0.012754));
#1585=CARTESIAN_POINT('',(0.,-0.0025,0.012754));
#1586=CARTESIAN_POINT('',(1.28262702452531E-18,0.000285,0.012754));
#1587=CARTESIAN_POINT('',(0.00352518463273585,0.000285,0.012754));
#1588=CARTESIAN_POINT('',(-0.00352518463273585,0.000285,0.012754));
#1589=CARTESIAN_POINT('',(0.00352518463273585,0.00120481536726415,0.012754));
#1590=CARTESIAN_POINT('',(0.004445,0.00120481536726415,0.012754));
#1591=CARTESIAN_POINT('',(0.004445,0.010802,0.012754));
#1592=CARTESIAN_POINT('',(0.004445,0.00444518463273585,0.012754));
#1593=CARTESIAN_POINT('',(0.00352518463273585,0.00444518463273585,0.012754));
#1594=CARTESIAN_POINT('',(0.00352518463273585,0.005365,0.012754));
#1595=CARTESIAN_POINT('',(1.06093268153947E-18,0.005365,0.012754));
#1596=CARTESIAN_POINT('',(-0.00352518463273585,0.005365,0.012754));
#1597=CARTESIAN_POINT('',(-0.00352518463273585,0.00444518463273585,0.012754));
#1598=CARTESIAN_POINT('',(-0.004445,0.00444518463273585,0.012754));
#1599=CARTESIAN_POINT('',(-0.004445,0.010802,0.012754));
#1600=CARTESIAN_POINT('',(-0.004445,0.00120481536726415,0.012754));
#1601=CARTESIAN_POINT('',(-0.00352518463273585,0.00120481536726415,0.012754));
#1602=CARTESIAN_POINT('',(0.,0.010802,0.014659));
#1603=CARTESIAN_POINT('',(0.003429,0.00826,0.014659));
#1604=CARTESIAN_POINT('',(0.003429,0.00826,0.014659));
#1605=CARTESIAN_POINT('',(0.003429,0.0108,0.014659));
#1606=CARTESIAN_POINT('',(0.,0.00826,0.014659));
#1607=CARTESIAN_POINT('',(-0.003429,0.00826,0.014659));
#1608=CARTESIAN_POINT('',(-0.003429,0.00826,0.014659));
#1609=CARTESIAN_POINT('',(-0.003429,0.0108,0.014659));
#1610=CARTESIAN_POINT('',(0.,0.0108,0.014659));
#1611=CARTESIAN_POINT('',(-0.011,0.0108,0.014659));
#1612=CARTESIAN_POINT('',(-0.011,0.010802,0.014659));
#1613=CARTESIAN_POINT('',(-0.011,-0.0025,0.014659));
#1614=CARTESIAN_POINT('',(0.,-0.0025,0.014659));
#1615=CARTESIAN_POINT('',(0.011,-0.0025,0.014659));
#1616=CARTESIAN_POINT('',(0.011,0.010802,0.014659));
#1617=CARTESIAN_POINT('',(0.011,0.0108,0.014659));
#1618=CARTESIAN_POINT('',(0.,0.0108,0.014659));
#1619=CARTESIAN_POINT('',(0.004445,0.002825,0.014659));
#1620=CARTESIAN_POINT('',(0.004445,0.00120481536726415,0.014659));
#1621=CARTESIAN_POINT('',(0.004445,0.00444518463273585,0.014659));
#1622=CARTESIAN_POINT('',(0.00352518463273585,0.00120481536726415,0.014659));
#1623=CARTESIAN_POINT('',(0.00352518463273585,0.000285,0.014659));
#1624=CARTESIAN_POINT('',(0.,0.000285,0.014659));
#1625=CARTESIAN_POINT('',(-0.00352518463273585,0.000285,0.014659));
#1626=CARTESIAN_POINT('',(-0.00352518463273585,0.00120481536726415,0.014659));
#1627=CARTESIAN_POINT('',(-0.004445,0.00120481536726415,0.014659));
#1628=CARTESIAN_POINT('',(-0.004445,0.002825,0.014659));
#1629=CARTESIAN_POINT('',(-0.004445,0.00444518463273585,0.014659));
#1630=CARTESIAN_POINT('',(-0.00352518463273585,0.00444518463273585,0.014659));
#1631=CARTESIAN_POINT('',(-0.00352518463273585,0.005365,0.014659));
#1632=CARTESIAN_POINT('',(0.,0.005365,0.014659));
#1633=CARTESIAN_POINT('',(0.00352518463273585,0.005365,0.014659));
#1634=CARTESIAN_POINT('',(0.00352518463273585,0.00444518463273585,0.014659));
#1635=CARTESIAN_POINT('',(-0.011,0.010802,0.011));
#1636=CARTESIAN_POINT('',(-0.011,0.0108,0.011));
#1637=CARTESIAN_POINT('',(-0.014659,0.0108,0.011));
#1638=CARTESIAN_POINT('',(-0.014659,0.010802,0.011));
#1639=CARTESIAN_POINT('',(-0.014659,-0.0025,0.011));
#1640=CARTESIAN_POINT('',(-0.011,-0.0025,0.011));
#1641=CARTESIAN_POINT('',(-0.014659,0.010802,0.));
#1642=CARTESIAN_POINT('',(-0.014659,0.0108,0.));
#1643=CARTESIAN_POINT('',(-0.014659,0.0108,-0.011));
#1644=CARTESIAN_POINT('',(-0.014659,0.010802,-0.011));
#1645=CARTESIAN_POINT('',(-0.014659,-0.0025,-0.011));
#1646=CARTESIAN_POINT('',(-0.014659,-0.0025,0.));
#1647=CARTESIAN_POINT('',(-0.011,0.010802,-0.011));
#1648=CARTESIAN_POINT('',(-0.011,0.0108,-0.011));
#1649=CARTESIAN_POINT('',(-0.011,0.0108,-0.014659));
#1650=CARTESIAN_POINT('',(-0.011,0.010802,-0.014659));
#1651=CARTESIAN_POINT('',(-0.011,-0.0025,-0.014659));
#1652=CARTESIAN_POINT('',(-0.011,-0.0025,-0.011));
#1653=CARTESIAN_POINT('',(0.,0.010802,-0.014659));
#1654=CARTESIAN_POINT('',(-0.003429,0.00826,-0.014659));
#1655=CARTESIAN_POINT('',(-0.003429,0.00826,-0.014659));
#1656=CARTESIAN_POINT('',(-0.003429,0.0108,-0.014659));
#1657=CARTESIAN_POINT('',(0.,0.00826,-0.014659));
#1658=CARTESIAN_POINT('',(0.003429,0.00826,-0.014659));
#1659=CARTESIAN_POINT('',(0.003429,0.00826,-0.014659));
#1660=CARTESIAN_POINT('',(0.003429,0.0108,-0.014659));
#1661=CARTESIAN_POINT('',(0.,0.0108,-0.014659));
#1662=CARTESIAN_POINT('',(0.011,0.0108,-0.014659));
#1663=CARTESIAN_POINT('',(0.011,0.010802,-0.014659));
#1664=CARTESIAN_POINT('',(0.011,-0.0025,-0.014659));
#1665=CARTESIAN_POINT('',(0.,-0.0025,-0.014659));
#1666=CARTESIAN_POINT('',(0.,0.0108,-0.014659));
#1667=CARTESIAN_POINT('',(0.011,0.010802,-0.011));
#1668=CARTESIAN_POINT('',(0.011,0.0108,-0.011));
#1669=CARTESIAN_POINT('',(0.014659,0.0108,-0.011));
#1670=CARTESIAN_POINT('',(0.014659,0.010802,-0.011));
#1671=CARTESIAN_POINT('',(0.014659,-0.0025,-0.011));
#1672=CARTESIAN_POINT('',(0.011,-0.0025,-0.011));
#1673=CARTESIAN_POINT('',(0.011,0.010802,0.011));
#1674=CARTESIAN_POINT('',(0.011,-0.0025,0.011));
#1675=CARTESIAN_POINT('',(0.011,0.010802,-0.011));
#1676=CARTESIAN_POINT('',(0.011,0.001,-0.011));
#1677=CARTESIAN_POINT('',(0.011,-0.0025,-0.011));
#1678=CARTESIAN_POINT('',(-0.011,0.010802,-0.011));
#1679=CARTESIAN_POINT('',(-0.011,0.001,-0.011));
#1680=CARTESIAN_POINT('',(-0.012754,0.001,-0.011));
#1681=CARTESIAN_POINT('',(-0.012754,0.010802,-0.011));
#1682=CARTESIAN_POINT('',(-0.012754,-0.0025,-0.011));
#1683=CARTESIAN_POINT('',(-0.011,-0.0025,-0.011));
#1684=CARTESIAN_POINT('',(0.,-0.0025,0.));
#1685=CARTESIAN_POINT('',(-0.011,-0.0025,0.011));
#1686=CARTESIAN_POINT('',(-0.012754,-0.0025,0.011));
#1687=CARTESIAN_POINT('',(-0.012754,-0.0025,0.));
#1688=CARTESIAN_POINT('',(0.014659,-0.0025,0.));
#1689=CARTESIAN_POINT('',(0.014659,-0.0025,0.011));
#1690=CARTESIAN_POINT('',(0.011,-0.0025,0.011));
#1691=CARTESIAN_POINT('',(0.014659,0.010802,0.));
#1692=CARTESIAN_POINT('',(0.014659,0.0108,0.));
#1693=CARTESIAN_POINT('',(0.014659,0.0108,0.011));
#1694=CARTESIAN_POINT('',(0.014659,0.010802,0.011));
#1695=CARTESIAN_POINT('',(0.011,0.010802,0.011));
#1696=CARTESIAN_POINT('',(0.011,0.0108,0.011));
#1697=CARTESIAN_POINT('',(-0.011,0.010802,0.011));
#1698=CARTESIAN_POINT('',(-0.012754,0.010802,0.011));
#1699=CARTESIAN_POINT('',(-0.012754,0.010802,0.));
#1700=CARTESIAN_POINT('',(-0.012754,0.001,0.));
#1701=CARTESIAN_POINT('',(-0.012754,0.001,-0.0092));
#1702=CARTESIAN_POINT('',(-0.012754,0.000998,-0.0092));
#1703=CARTESIAN_POINT('',(1.301925678376E-11,0.0108,-0.0065));
#1704=CARTESIAN_POINT('',(0.003429,0.0108,-0.0159106503231526));
#1705=CARTESIAN_POINT('',(0.003429,0.0108,-0.0171623006463051));
#1706=CARTESIAN_POINT('',(0.,0.0108,-0.0171623006463051));
#1707=CARTESIAN_POINT('',(-0.003429,0.0108,-0.0171623006463051));
#1708=CARTESIAN_POINT('',(-0.003429,0.0108,-0.0159106503231526));
#1709=CARTESIAN_POINT('',(-0.003429,0.0108,0.0159106503231526));
#1710=CARTESIAN_POINT('',(-0.003429,0.0108,0.0171623006463051));
#1711=CARTESIAN_POINT('',(0.,0.0108,0.0171623006463051));
#1712=CARTESIAN_POINT('',(0.003429,0.0108,0.0171623006463051));
#1713=CARTESIAN_POINT('',(0.003429,0.0108,0.0159106503231526));
#1714=CARTESIAN_POINT('',(0.0045,0.0108,-0.00650000000000091));
#1715=CARTESIAN_POINT('',(0.00469497692171125,0.0108,-0.00175));
#1716=CARTESIAN_POINT('',(0.0045,0.0108,-0.011254));
#1717=CARTESIAN_POINT('',(-1.25767452008318E-17,0.0108,-0.00175));
#1718=CARTESIAN_POINT('',(-0.00469497692171128,0.0108,-0.00175));
#1719=CARTESIAN_POINT('',(-0.0045,0.0108,-0.00650000000000162));
#1720=CARTESIAN_POINT('',(-0.0045,0.0108,-0.011254));
#1721=CARTESIAN_POINT('',(-5.63785129692462E-18,0.0108,-0.011254));
#1722=CARTESIAN_POINT('',(0.004,0.0108,0.00525));
#1723=CARTESIAN_POINT('',(0.004,0.0108,0.0083301898));
#1724=CARTESIAN_POINT('',(0.004,0.0108,0.0021698102));
#1725=CARTESIAN_POINT('',(0.0030801898,0.0108,0.0083301898));
#1726=CARTESIAN_POINT('',(0.0030801898,0.0108,0.00925));
#1727=CARTESIAN_POINT('',(0.,0.0108,0.00925));
#1728=CARTESIAN_POINT('',(-0.0030801898,0.0108,0.00925));
#1729=CARTESIAN_POINT('',(-0.0030801898,0.0108,0.0083301898));
#1730=CARTESIAN_POINT('',(-0.004,0.0108,0.0083301898));
#1731=CARTESIAN_POINT('',(-0.004,0.0108,0.00525));
#1732=CARTESIAN_POINT('',(-0.004,0.0108,0.0021698102));
#1733=CARTESIAN_POINT('',(-0.0030801898,0.0108,0.0021698102));
#1734=CARTESIAN_POINT('',(-0.0030801898,0.0108,0.00125));
#1735=CARTESIAN_POINT('',(0.,0.0108,0.00125));
#1736=CARTESIAN_POINT('',(0.0030801898,0.0108,0.00125));
#1737=CARTESIAN_POINT('',(0.0030801898,0.0108,0.0021698102));
#1738=CARTESIAN_POINT('',(0.,0.0108,-0.0171623006463051));
#1739=CARTESIAN_POINT('',(0.,0.0108,-0.0156383006463051));
#1740=CARTESIAN_POINT('',(0.,0.0108,0.0171623006463051));
#1741=CARTESIAN_POINT('',(0.,0.0108,0.0186863006463051));
#1742=CARTESIAN_POINT('',(-5.63785129692462E-18,0.008498,-0.011254));
#1743=CARTESIAN_POINT('',(-0.0045,0.008498,-0.011254));
#1744=CARTESIAN_POINT('',(0.0045,0.008498,-0.011254));
#1745=CARTESIAN_POINT('',(-0.0045,0.008498,-0.00650000000000162));
#1746=CARTESIAN_POINT('',(-0.00469497692171128,0.008498,-0.00175));
#1747=CARTESIAN_POINT('',(0.0045,0.008498,-0.00650000000000091));
#1748=CARTESIAN_POINT('',(0.00469497692171125,0.008498,-0.00175));
#1749=CARTESIAN_POINT('',(0.,0.008498,0.00125));
#1750=CARTESIAN_POINT('',(-0.0030801898,0.0085,0.00125));
#1751=CARTESIAN_POINT('',(0.0030801898,0.0108,0.00125));
#1752=CARTESIAN_POINT('',(-0.004,0.008498,0.00525));
#1753=CARTESIAN_POINT('',(-0.004,0.0085,0.0083301898));
#1754=CARTESIAN_POINT('',(-0.004,0.0108,0.0021698102));
#1755=CARTESIAN_POINT('',(0.004,0.008498,0.00525));
#1756=CARTESIAN_POINT('',(0.004,0.0108,0.0083301898));
#1757=CARTESIAN_POINT('',(0.004,0.0085,0.0021698102));
#1758=CARTESIAN_POINT('',(-1.25767452008318E-17,0.008498,-0.00175));
#1759=CARTESIAN_POINT('',(0.,0.008498,0.00925));
#1760=CARTESIAN_POINT('',(0.0030801898,0.0085,0.00925));
#1761=CARTESIAN_POINT('',(-0.0030801898,0.0108,0.00925));
#1762=CARTESIAN_POINT('',(0.,0.000285,-0.010741));
#1763=CARTESIAN_POINT('',(0.00352518463273585,0.000285,-0.010741));
#1764=CARTESIAN_POINT('',(-0.00352518463273585,0.000285,0.014659));
#1765=CARTESIAN_POINT('',(0.004445,0.002825,-0.010741));
#1766=CARTESIAN_POINT('',(0.004445,0.00120481536726415,-0.010741));
#1767=CARTESIAN_POINT('',(0.004445,0.00444518463273585,0.012754));
#1768=CARTESIAN_POINT('',(0.,0.005365,-0.010741));
#1769=CARTESIAN_POINT('',(0.00352518463273585,0.005365,0.014659));
#1770=CARTESIAN_POINT('',(-0.00352518463273585,0.005365,-0.010741));
#1771=CARTESIAN_POINT('',(-0.004445,0.002825,-0.010741));
#1772=CARTESIAN_POINT('',(-0.004445,0.00120481536726415,0.012754));
#1773=CARTESIAN_POINT('',(-0.004445,0.00444518463273585,-0.010741));
#1774=CARTESIAN_POINT('',(0.00352518463273585,0.00120481536726415,-0.010741));
#1775=CARTESIAN_POINT('',(0.00352518463273585,0.00444518463273585,-0.010741));
#1776=CARTESIAN_POINT('',(-0.00352518463273585,0.00120481536726415,-0.010741));
#1777=CARTESIAN_POINT('',(-0.00352518463273585,0.00444518463273585,-0.010741));
#1778=CARTESIAN_POINT('',(0.0030801898,0.008498,0.0083301898));
#1779=CARTESIAN_POINT('',(-0.0030801898,0.008498,0.0083301898));
#1780=CARTESIAN_POINT('',(-0.0030801898,0.008498,0.0021698102));
#1781=CARTESIAN_POINT('',(0.0030801898,0.008498,0.0021698102));
#1782=CARTESIAN_POINT('',(-0.0092,0.000998,-0.011727));
#1783=CARTESIAN_POINT('',(-0.0092,0.000998,-0.0092));
#1784=CARTESIAN_POINT('',(-0.0092,0.001,-0.0092));
#1785=CARTESIAN_POINT('',(-0.0092,0.001,-0.011727));
#1786=CARTESIAN_POINT('',(-0.011727,0.000998,-0.0092));
#1787=CARTESIAN_POINT('',(-0.011727,0.001,-0.0092));
#1788=CARTESIAN_POINT('',(0.,0.001,0.));
#1789=CARTESIAN_POINT('',(0.011727,0.000998,-0.0092));
#1790=CARTESIAN_POINT('',(0.0092,0.000998,-0.0092));
#1791=CARTESIAN_POINT('',(0.0092,0.001,-0.0092));
#1792=CARTESIAN_POINT('',(0.011727,0.001,-0.0092));
#1793=CARTESIAN_POINT('',(0.0092,0.000998,-0.011727));
#1794=CARTESIAN_POINT('',(0.0092,0.001,-0.011727));
#1795=CARTESIAN_POINT('',(0.,0.001,0.));
#1796=CARTESIAN_POINT('',(0.003429,0.00826,-0.0159106503231526));
#1797=CARTESIAN_POINT('',(0.003429,0.00826,-0.0159106503231526));
#1798=CARTESIAN_POINT('',(0.003429,0.00826,-0.0171623006463051));
#1799=CARTESIAN_POINT('',(0.003429,0.00826,-0.0171623006463051));
#1800=CARTESIAN_POINT('',(0.,0.00826,-0.0171623006463051));
#1801=CARTESIAN_POINT('',(0.,0.00826,-0.0171623006463051));
#1802=CARTESIAN_POINT('',(-0.003429,0.00826,-0.0171623006463051));
#1803=CARTESIAN_POINT('',(-0.003429,0.00826,-0.0171623006463051));
#1804=CARTESIAN_POINT('',(0.,0.00826,-0.0171623006463051));
#1805=CARTESIAN_POINT('',(0.,0.00826,-0.0171623006463051));
#1806=CARTESIAN_POINT('',(0.,0.00826,-0.0156383006463051));
#1807=CARTESIAN_POINT('',(-0.003429,0.00826,-0.0159106503231526));
#1808=CARTESIAN_POINT('',(-0.003429,0.00826,-0.0159106503231526));
#1809=CARTESIAN_POINT('',(0.,0.00826,0.));
#1810=CARTESIAN_POINT('',(-0.003429,0.00826,0.0159106503231526));
#1811=CARTESIAN_POINT('',(-0.003429,0.00826,0.0159106503231526));
#1812=CARTESIAN_POINT('',(-0.003429,0.00826,0.0171623006463051));
#1813=CARTESIAN_POINT('',(-0.003429,0.00826,0.0171623006463051));
#1814=CARTESIAN_POINT('',(0.,0.00826,0.0171623006463051));
#1815=CARTESIAN_POINT('',(0.,0.00826,0.0171623006463051));
#1816=CARTESIAN_POINT('',(0.003429,0.00826,0.0171623006463051));
#1817=CARTESIAN_POINT('',(0.003429,0.00826,0.0171623006463051));
#1818=CARTESIAN_POINT('',(0.003429,0.00826,0.0159106503231526));
#1819=CARTESIAN_POINT('',(0.003429,0.00826,0.0159106503231526));
#1820=CARTESIAN_POINT('',(0.,0.00826,0.0171623006463051));
#1821=CARTESIAN_POINT('',(0.,0.00826,0.0171623006463051));
#1822=CARTESIAN_POINT('',(0.,0.00826,0.0186863006463051));
#1823=CARTESIAN_POINT('',(0.,0.00826,0.));
#1824=MECHANICAL_DESIGN_GEOMETRIC_PRESENTATION_REPRESENTATION('',(#1089),#1825);
#1825=(
GEOMETRIC_REPRESENTATION_CONTEXT(3)
GLOBAL_UNCERTAINTY_ASSIGNED_CONTEXT((#1826))
GLOBAL_UNIT_ASSIGNED_CONTEXT((#1829,#1828,#1827))
REPRESENTATION_CONTEXT('Part 2','TOP_LEVEL_ASSEMBLY_PART')
);
#1826=UNCERTAINTY_MEASURE_WITH_UNIT(LENGTH_MEASURE(1.E-08),#1829,'DISTANCE_ACCURACY_VALUE','Maximum Tolerance applied to model');
#1827=(
NAMED_UNIT(*)
SI_UNIT($,.STERADIAN.)
SOLID_ANGLE_UNIT()
);
#1828=(
NAMED_UNIT(*)
PLANE_ANGLE_UNIT()
SI_UNIT($,.RADIAN.)
);
#1829=(
LENGTH_UNIT()
NAMED_UNIT(*)
SI_UNIT($,.METRE.)
);
#1830=PRODUCT_DEFINITION_SHAPE('','',#1831);
#1831=PRODUCT_DEFINITION('','',#1833,#1832);
#1832=PRODUCT_DEFINITION_CONTEXT('',#1839,'design');
#1833=PRODUCT_DEFINITION_FORMATION_WITH_SPECIFIED_SOURCE('','',#1835,.NOT_KNOWN.);
#1834=PRODUCT_RELATED_PRODUCT_CATEGORY('','',(#1835));
#1835=PRODUCT('Part 2','Part 2','Part 2',(#1837));
#1836=PRODUCT_CATEGORY('','');
#1837=PRODUCT_CONTEXT('',#1839,'mechanical');
#1838=APPLICATION_PROTOCOL_DEFINITION('international standard','ap242_managed_model_based_3d_engineering',2020,#1839);
#1839=APPLICATION_CONTEXT('managed model based 3d engineering');
ENDSEC;
END-ISO-10303-21;
