ISO-10303-21;
HEADER;
/*Generated by software containing ST-Developer
 * from STEP Tools, Inc. (www.steptools.com) 
 */
/*OPTION: using custom renumber hook */
/*description */
/*implementation_level */
FILE_DESCRIPTION(('STEP AP242 Edition 2','STEP AP242 Edition 2''CAx-IF Rec.Pracs.---Representation and Presentation of Product Manufa
cturing Information (PMI)---4.0---2014-10-13','STEP AP242 Edition 2''CAx-IF Rec.Pracs.---Representation and Presentation of Product Manufa
cturing Information (PMI)---4.0---2014-10-13''CAx-IF Rec.Pracs.---3D Tessellated Geometry---0.4---2014-09-14','STEP AP242 Edition 2''CAx-IF Rec.Pracs.---Representation and Presentation of Product Manufa
cturing Information (PMI)---4.0---2014-10-13''CAx-IF Rec.Pracs.---3D Tessellated Geometry---0.4---2014-09-14''2;1','STEP AP242 Edition 2''CAx-IF Rec.Pracs.---Representation and Presentation of Product Manufa
cturing Information (PMI)---4.0---2014-10-13''CAx-IF Rec.Pracs.---3D Tessellated Geometry---0.4---2014-09-14''2;1''CAx-IF Rec.Pracs.---User Defined Attributes---1.5---2016-08-15'),'2;1');
/*name */
/*time_stamp */
/*author */
/*organization */
/*preprocessor_version */
/*originating_system */
/*authorisation */
FILE_NAME('/vol/tmp/translate-12766305938354259508/T2-001-V1.2(3D) - Part 3.step','2026-03-24T16:18:59',(''),(''),'ST-DEVELOPER v20','ONSHAPE BY PTC INC, 1.212','  ');
FILE_SCHEMA(('AP242_MANAGED_MODEL_BASED_3D_ENGINEERING_MIM_LF { 1 0 10303 442 3 1 4 }'));
ENDSEC;
DATA;
#10=SHAPE_REPRESENTATION_RELATIONSHIP('','',#977,#11);
#11=ADVANCED_BREP_SHAPE_REPRESENTATION('',(#975),#1607);
#12=CYLINDRICAL_SURFACE('',#985,0.003659);
#13=CYLINDRICAL_SURFACE('',#988,0.003659);
#14=CYLINDRICAL_SURFACE('',#992,0.003659);
#15=CYLINDRICAL_SURFACE('',#995,0.003659);
#16=CYLINDRICAL_SURFACE('',#1005,0.001754);
#17=CYLINDRICAL_SURFACE('',#1008,0.001754);
#18=CYLINDRICAL_SURFACE('',#1011,0.001754);
#19=CYLINDRICAL_SURFACE('',#1014,0.001754);
#20=CYLINDRICAL_SURFACE('',#1021,0.003429);
#21=CYLINDRICAL_SURFACE('',#1024,0.001524);
#22=CYLINDRICAL_SURFACE('',#1029,0.003429);
#23=CYLINDRICAL_SURFACE('',#1033,0.001524);
#24=CYLINDRICAL_SURFACE('',#1040,0.000919815367264149);
#25=CYLINDRICAL_SURFACE('',#1041,0.000919815367264149);
#26=CYLINDRICAL_SURFACE('',#1042,0.000919815367264149);
#27=CYLINDRICAL_SURFACE('',#1043,0.000919815367264149);
#28=CIRCLE('',#980,0.000919815367264149);
#29=CIRCLE('',#981,0.000919815367264149);
#30=CIRCLE('',#982,0.000919815367264149);
#31=CIRCLE('',#983,0.000919815367264149);
#32=CIRCLE('',#986,0.003659);
#33=CIRCLE('',#987,0.003659);
#34=CIRCLE('',#989,0.003659);
#35=CIRCLE('',#990,0.003659);
#36=CIRCLE('',#993,0.003659);
#37=CIRCLE('',#994,0.003659);
#38=CIRCLE('',#996,0.003659);
#39=CIRCLE('',#997,0.003659);
#40=CIRCLE('',#1001,0.000919815367264149);
#41=CIRCLE('',#1002,0.000919815367264149);
#42=CIRCLE('',#1003,0.000919815367264149);
#43=CIRCLE('',#1004,0.000919815367264149);
#44=CIRCLE('',#1006,0.001754);
#45=CIRCLE('',#1007,0.001754);
#46=CIRCLE('',#1009,0.001754);
#47=CIRCLE('',#1010,0.001754);
#48=CIRCLE('',#1012,0.001754);
#49=CIRCLE('',#1013,0.001754);
#50=CIRCLE('',#1015,0.001754);
#51=CIRCLE('',#1016,0.001754);
#52=CIRCLE('',#1022,0.003429);
#53=CIRCLE('',#1023,0.003429);
#54=CIRCLE('',#1025,0.001524);
#55=CIRCLE('',#1026,0.001524);
#56=CIRCLE('',#1030,0.003429);
#57=CIRCLE('',#1031,0.003429);
#58=CIRCLE('',#1034,0.001524);
#59=CIRCLE('',#1035,0.001524);
#60=ORIENTED_EDGE('',*,*,#332,.F.);
#61=ORIENTED_EDGE('',*,*,#333,.T.);
#62=ORIENTED_EDGE('',*,*,#334,.T.);
#63=ORIENTED_EDGE('',*,*,#335,.T.);
#64=ORIENTED_EDGE('',*,*,#336,.T.);
#65=ORIENTED_EDGE('',*,*,#337,.T.);
#66=ORIENTED_EDGE('',*,*,#338,.F.);
#67=ORIENTED_EDGE('',*,*,#339,.T.);
#68=ORIENTED_EDGE('',*,*,#340,.F.);
#69=ORIENTED_EDGE('',*,*,#341,.T.);
#70=ORIENTED_EDGE('',*,*,#342,.T.);
#71=ORIENTED_EDGE('',*,*,#343,.F.);
#72=ORIENTED_EDGE('',*,*,#344,.F.);
#73=ORIENTED_EDGE('',*,*,#345,.F.);
#74=ORIENTED_EDGE('',*,*,#346,.T.);
#75=ORIENTED_EDGE('',*,*,#347,.F.);
#76=ORIENTED_EDGE('',*,*,#348,.F.);
#77=ORIENTED_EDGE('',*,*,#349,.T.);
#78=ORIENTED_EDGE('',*,*,#350,.T.);
#79=ORIENTED_EDGE('',*,*,#351,.F.);
#80=ORIENTED_EDGE('',*,*,#352,.F.);
#81=ORIENTED_EDGE('',*,*,#353,.F.);
#82=ORIENTED_EDGE('',*,*,#354,.T.);
#83=ORIENTED_EDGE('',*,*,#355,.F.);
#84=ORIENTED_EDGE('',*,*,#356,.T.);
#85=ORIENTED_EDGE('',*,*,#357,.F.);
#86=ORIENTED_EDGE('',*,*,#346,.F.);
#87=ORIENTED_EDGE('',*,*,#358,.F.);
#88=ORIENTED_EDGE('',*,*,#344,.T.);
#89=ORIENTED_EDGE('',*,*,#359,.F.);
#90=ORIENTED_EDGE('',*,*,#360,.F.);
#91=ORIENTED_EDGE('',*,*,#361,.F.);
#92=ORIENTED_EDGE('',*,*,#360,.T.);
#93=ORIENTED_EDGE('',*,*,#362,.F.);
#94=ORIENTED_EDGE('',*,*,#363,.F.);
#95=ORIENTED_EDGE('',*,*,#364,.F.);
#96=ORIENTED_EDGE('',*,*,#363,.T.);
#97=ORIENTED_EDGE('',*,*,#365,.F.);
#98=ORIENTED_EDGE('',*,*,#354,.F.);
#99=ORIENTED_EDGE('',*,*,#366,.F.);
#100=ORIENTED_EDGE('',*,*,#352,.T.);
#101=ORIENTED_EDGE('',*,*,#367,.F.);
#102=ORIENTED_EDGE('',*,*,#368,.F.);
#103=ORIENTED_EDGE('',*,*,#369,.F.);
#104=ORIENTED_EDGE('',*,*,#368,.T.);
#105=ORIENTED_EDGE('',*,*,#370,.F.);
#106=ORIENTED_EDGE('',*,*,#356,.F.);
#107=ORIENTED_EDGE('',*,*,#371,.F.);
#108=ORIENTED_EDGE('',*,*,#358,.T.);
#109=ORIENTED_EDGE('',*,*,#345,.T.);
#110=ORIENTED_EDGE('',*,*,#361,.T.);
#111=ORIENTED_EDGE('',*,*,#364,.T.);
#112=ORIENTED_EDGE('',*,*,#366,.T.);
#113=ORIENTED_EDGE('',*,*,#353,.T.);
#114=ORIENTED_EDGE('',*,*,#369,.T.);
#115=ORIENTED_EDGE('',*,*,#371,.T.);
#116=ORIENTED_EDGE('',*,*,#372,.F.);
#117=ORIENTED_EDGE('',*,*,#373,.T.);
#118=ORIENTED_EDGE('',*,*,#374,.F.);
#119=ORIENTED_EDGE('',*,*,#375,.T.);
#120=ORIENTED_EDGE('',*,*,#376,.T.);
#121=ORIENTED_EDGE('',*,*,#377,.T.);
#122=ORIENTED_EDGE('',*,*,#378,.T.);
#123=ORIENTED_EDGE('',*,*,#379,.T.);
#124=ORIENTED_EDGE('',*,*,#380,.F.);
#125=ORIENTED_EDGE('',*,*,#381,.T.);
#126=ORIENTED_EDGE('',*,*,#382,.T.);
#127=ORIENTED_EDGE('',*,*,#383,.T.);
#128=ORIENTED_EDGE('',*,*,#384,.T.);
#129=ORIENTED_EDGE('',*,*,#385,.T.);
#130=ORIENTED_EDGE('',*,*,#386,.F.);
#131=ORIENTED_EDGE('',*,*,#387,.T.);
#132=ORIENTED_EDGE('',*,*,#388,.T.);
#133=ORIENTED_EDGE('',*,*,#389,.T.);
#134=ORIENTED_EDGE('',*,*,#390,.F.);
#135=ORIENTED_EDGE('',*,*,#391,.T.);
#136=ORIENTED_EDGE('',*,*,#392,.T.);
#137=ORIENTED_EDGE('',*,*,#393,.T.);
#138=ORIENTED_EDGE('',*,*,#394,.F.);
#139=ORIENTED_EDGE('',*,*,#395,.T.);
#140=ORIENTED_EDGE('',*,*,#396,.T.);
#141=ORIENTED_EDGE('',*,*,#397,.T.);
#142=ORIENTED_EDGE('',*,*,#376,.F.);
#143=ORIENTED_EDGE('',*,*,#398,.T.);
#144=ORIENTED_EDGE('',*,*,#374,.T.);
#145=ORIENTED_EDGE('',*,*,#399,.T.);
#146=ORIENTED_EDGE('',*,*,#400,.F.);
#147=ORIENTED_EDGE('',*,*,#401,.T.);
#148=ORIENTED_EDGE('',*,*,#390,.T.);
#149=ORIENTED_EDGE('',*,*,#402,.T.);
#150=ORIENTED_EDGE('',*,*,#403,.F.);
#151=ORIENTED_EDGE('',*,*,#404,.T.);
#152=ORIENTED_EDGE('',*,*,#405,.T.);
#153=ORIENTED_EDGE('',*,*,#406,.T.);
#154=ORIENTED_EDGE('',*,*,#396,.F.);
#155=ORIENTED_EDGE('',*,*,#407,.T.);
#156=ORIENTED_EDGE('',*,*,#400,.T.);
#157=ORIENTED_EDGE('',*,*,#408,.T.);
#158=ORIENTED_EDGE('',*,*,#409,.F.);
#159=ORIENTED_EDGE('',*,*,#410,.T.);
#160=ORIENTED_EDGE('',*,*,#411,.T.);
#161=ORIENTED_EDGE('',*,*,#412,.T.);
#162=ORIENTED_EDGE('',*,*,#392,.F.);
#163=ORIENTED_EDGE('',*,*,#413,.T.);
#164=ORIENTED_EDGE('',*,*,#394,.T.);
#165=ORIENTED_EDGE('',*,*,#414,.T.);
#166=ORIENTED_EDGE('',*,*,#415,.T.);
#167=ORIENTED_EDGE('',*,*,#416,.T.);
#168=ORIENTED_EDGE('',*,*,#417,.F.);
#169=ORIENTED_EDGE('',*,*,#418,.T.);
#170=ORIENTED_EDGE('',*,*,#388,.F.);
#171=ORIENTED_EDGE('',*,*,#419,.T.);
#172=ORIENTED_EDGE('',*,*,#420,.T.);
#173=ORIENTED_EDGE('',*,*,#421,.T.);
#174=ORIENTED_EDGE('',*,*,#350,.F.);
#175=ORIENTED_EDGE('',*,*,#422,.T.);
#176=ORIENTED_EDGE('',*,*,#423,.F.);
#177=ORIENTED_EDGE('',*,*,#420,.F.);
#178=ORIENTED_EDGE('',*,*,#424,.F.);
#179=ORIENTED_EDGE('',*,*,#425,.T.);
#180=ORIENTED_EDGE('',*,*,#426,.F.);
#181=ORIENTED_EDGE('',*,*,#427,.F.);
#182=ORIENTED_EDGE('',*,*,#348,.T.);
#183=ORIENTED_EDGE('',*,*,#428,.T.);
#184=ORIENTED_EDGE('',*,*,#425,.F.);
#185=ORIENTED_EDGE('',*,*,#429,.T.);
#186=ORIENTED_EDGE('',*,*,#430,.F.);
#187=ORIENTED_EDGE('',*,*,#342,.F.);
#188=ORIENTED_EDGE('',*,*,#431,.F.);
#189=ORIENTED_EDGE('',*,*,#432,.T.);
#190=ORIENTED_EDGE('',*,*,#433,.T.);
#191=ORIENTED_EDGE('',*,*,#434,.T.);
#192=ORIENTED_EDGE('',*,*,#432,.F.);
#193=ORIENTED_EDGE('',*,*,#435,.T.);
#194=ORIENTED_EDGE('',*,*,#436,.F.);
#195=ORIENTED_EDGE('',*,*,#433,.F.);
#196=ORIENTED_EDGE('',*,*,#437,.F.);
#197=ORIENTED_EDGE('',*,*,#340,.T.);
#198=ORIENTED_EDGE('',*,*,#438,.F.);
#199=ORIENTED_EDGE('',*,*,#439,.F.);
#200=ORIENTED_EDGE('',*,*,#334,.F.);
#201=ORIENTED_EDGE('',*,*,#440,.T.);
#202=ORIENTED_EDGE('',*,*,#380,.T.);
#203=ORIENTED_EDGE('',*,*,#441,.T.);
#204=ORIENTED_EDGE('',*,*,#382,.F.);
#205=ORIENTED_EDGE('',*,*,#442,.T.);
#206=ORIENTED_EDGE('',*,*,#332,.T.);
#207=ORIENTED_EDGE('',*,*,#443,.T.);
#208=ORIENTED_EDGE('',*,*,#384,.F.);
#209=ORIENTED_EDGE('',*,*,#444,.T.);
#210=ORIENTED_EDGE('',*,*,#338,.T.);
#211=ORIENTED_EDGE('',*,*,#445,.T.);
#212=ORIENTED_EDGE('',*,*,#336,.F.);
#213=ORIENTED_EDGE('',*,*,#446,.T.);
#214=ORIENTED_EDGE('',*,*,#386,.T.);
#215=ORIENTED_EDGE('',*,*,#447,.T.);
#216=ORIENTED_EDGE('',*,*,#381,.F.);
#217=ORIENTED_EDGE('',*,*,#440,.F.);
#218=ORIENTED_EDGE('',*,*,#333,.F.);
#219=ORIENTED_EDGE('',*,*,#442,.F.);
#220=ORIENTED_EDGE('',*,*,#383,.F.);
#221=ORIENTED_EDGE('',*,*,#443,.F.);
#222=ORIENTED_EDGE('',*,*,#339,.F.);
#223=ORIENTED_EDGE('',*,*,#444,.F.);
#224=ORIENTED_EDGE('',*,*,#387,.F.);
#225=ORIENTED_EDGE('',*,*,#446,.F.);
#226=ORIENTED_EDGE('',*,*,#335,.F.);
#227=ORIENTED_EDGE('',*,*,#441,.F.);
#228=ORIENTED_EDGE('',*,*,#385,.F.);
#229=ORIENTED_EDGE('',*,*,#445,.F.);
#230=ORIENTED_EDGE('',*,*,#337,.F.);
#231=ORIENTED_EDGE('',*,*,#447,.F.);
#232=ORIENTED_EDGE('',*,*,#436,.T.);
#233=ORIENTED_EDGE('',*,*,#347,.T.);
#234=ORIENTED_EDGE('',*,*,#357,.T.);
#235=ORIENTED_EDGE('',*,*,#370,.T.);
#236=ORIENTED_EDGE('',*,*,#367,.T.);
#237=ORIENTED_EDGE('',*,*,#351,.T.);
#238=ORIENTED_EDGE('',*,*,#421,.F.);
#239=ORIENTED_EDGE('',*,*,#423,.T.);
#240=ORIENTED_EDGE('',*,*,#428,.F.);
#241=ORIENTED_EDGE('',*,*,#355,.T.);
#242=ORIENTED_EDGE('',*,*,#365,.T.);
#243=ORIENTED_EDGE('',*,*,#362,.T.);
#244=ORIENTED_EDGE('',*,*,#359,.T.);
#245=ORIENTED_EDGE('',*,*,#343,.T.);
#246=ORIENTED_EDGE('',*,*,#430,.T.);
#247=ORIENTED_EDGE('',*,*,#434,.F.);
#248=ORIENTED_EDGE('',*,*,#375,.F.);
#249=ORIENTED_EDGE('',*,*,#401,.F.);
#250=ORIENTED_EDGE('',*,*,#413,.F.);
#251=ORIENTED_EDGE('',*,*,#395,.F.);
#252=ORIENTED_EDGE('',*,*,#419,.F.);
#253=ORIENTED_EDGE('',*,*,#391,.F.);
#254=ORIENTED_EDGE('',*,*,#407,.F.);
#255=ORIENTED_EDGE('',*,*,#398,.F.);
#256=ORIENTED_EDGE('',*,*,#438,.T.);
#257=ORIENTED_EDGE('',*,*,#426,.T.);
#258=ORIENTED_EDGE('',*,*,#448,.F.);
#259=ORIENTED_EDGE('',*,*,#404,.F.);
#260=ORIENTED_EDGE('',*,*,#449,.T.);
#261=ORIENTED_EDGE('',*,*,#410,.F.);
#262=ORIENTED_EDGE('',*,*,#450,.F.);
#263=ORIENTED_EDGE('',*,*,#451,.T.);
#264=ORIENTED_EDGE('',*,*,#452,.T.);
#265=ORIENTED_EDGE('',*,*,#416,.F.);
#266=ORIENTED_EDGE('',*,*,#452,.F.);
#267=ORIENTED_EDGE('',*,*,#453,.F.);
#268=ORIENTED_EDGE('',*,*,#454,.T.);
#269=ORIENTED_EDGE('',*,*,#417,.T.);
#270=ORIENTED_EDGE('',*,*,#451,.F.);
#271=ORIENTED_EDGE('',*,*,#455,.F.);
#272=ORIENTED_EDGE('',*,*,#456,.T.);
#273=ORIENTED_EDGE('',*,*,#411,.F.);
#274=ORIENTED_EDGE('',*,*,#449,.F.);
#275=ORIENTED_EDGE('',*,*,#403,.T.);
#276=ORIENTED_EDGE('',*,*,#457,.T.);
#277=ORIENTED_EDGE('',*,*,#453,.T.);
#278=ORIENTED_EDGE('',*,*,#455,.T.);
#279=ORIENTED_EDGE('',*,*,#450,.T.);
#280=ORIENTED_EDGE('',*,*,#415,.F.);
#281=ORIENTED_EDGE('',*,*,#458,.F.);
#282=ORIENTED_EDGE('',*,*,#459,.T.);
#283=ORIENTED_EDGE('',*,*,#460,.T.);
#284=ORIENTED_EDGE('',*,*,#461,.F.);
#285=ORIENTED_EDGE('',*,*,#462,.F.);
#286=ORIENTED_EDGE('',*,*,#405,.F.);
#287=ORIENTED_EDGE('',*,*,#448,.T.);
#288=ORIENTED_EDGE('',*,*,#409,.T.);
#289=ORIENTED_EDGE('',*,*,#463,.F.);
#290=ORIENTED_EDGE('',*,*,#464,.F.);
#291=ORIENTED_EDGE('',*,*,#378,.F.);
#292=ORIENTED_EDGE('',*,*,#465,.T.);
#293=ORIENTED_EDGE('',*,*,#461,.T.);
#294=ORIENTED_EDGE('',*,*,#406,.F.);
#295=ORIENTED_EDGE('',*,*,#462,.T.);
#296=ORIENTED_EDGE('',*,*,#465,.F.);
#297=ORIENTED_EDGE('',*,*,#377,.F.);
#298=ORIENTED_EDGE('',*,*,#397,.F.);
#299=ORIENTED_EDGE('',*,*,#457,.F.);
#300=ORIENTED_EDGE('',*,*,#402,.F.);
#301=ORIENTED_EDGE('',*,*,#389,.F.);
#302=ORIENTED_EDGE('',*,*,#418,.F.);
#303=ORIENTED_EDGE('',*,*,#454,.F.);
#304=ORIENTED_EDGE('',*,*,#456,.F.);
#305=ORIENTED_EDGE('',*,*,#458,.T.);
#306=ORIENTED_EDGE('',*,*,#414,.F.);
#307=ORIENTED_EDGE('',*,*,#393,.F.);
#308=ORIENTED_EDGE('',*,*,#412,.F.);
#309=ORIENTED_EDGE('',*,*,#466,.T.);
#310=ORIENTED_EDGE('',*,*,#463,.T.);
#311=ORIENTED_EDGE('',*,*,#408,.F.);
#312=ORIENTED_EDGE('',*,*,#399,.F.);
#313=ORIENTED_EDGE('',*,*,#373,.F.);
#314=ORIENTED_EDGE('',*,*,#372,.T.);
#315=ORIENTED_EDGE('',*,*,#467,.T.);
#316=ORIENTED_EDGE('',*,*,#459,.F.);
#317=ORIENTED_EDGE('',*,*,#466,.F.);
#318=ORIENTED_EDGE('',*,*,#379,.F.);
#319=ORIENTED_EDGE('',*,*,#464,.T.);
#320=ORIENTED_EDGE('',*,*,#460,.F.);
#321=ORIENTED_EDGE('',*,*,#467,.F.);
#322=ORIENTED_EDGE('',*,*,#431,.T.);
#323=ORIENTED_EDGE('',*,*,#341,.F.);
#324=ORIENTED_EDGE('',*,*,#437,.T.);
#325=ORIENTED_EDGE('',*,*,#435,.F.);
#326=ORIENTED_EDGE('',*,*,#439,.T.);
#327=ORIENTED_EDGE('',*,*,#427,.T.);
#328=ORIENTED_EDGE('',*,*,#349,.F.);
#329=ORIENTED_EDGE('',*,*,#429,.F.);
#330=ORIENTED_EDGE('',*,*,#424,.T.);
#331=ORIENTED_EDGE('',*,*,#422,.F.);
#332=EDGE_CURVE('',#468,#469,#560,.T.);
#333=EDGE_CURVE('',#468,#470,#28,.F.);
#334=EDGE_CURVE('',#470,#471,#561,.T.);
#335=EDGE_CURVE('',#471,#472,#29,.F.);
#336=EDGE_CURVE('',#472,#473,#562,.T.);
#337=EDGE_CURVE('',#473,#474,#30,.F.);
#338=EDGE_CURVE('',#475,#474,#563,.T.);
#339=EDGE_CURVE('',#475,#469,#31,.F.);
#340=EDGE_CURVE('',#476,#477,#564,.T.);
#341=EDGE_CURVE('',#476,#478,#565,.T.);
#342=EDGE_CURVE('',#478,#479,#566,.T.);
#343=EDGE_CURVE('',#480,#479,#567,.T.);
#344=EDGE_CURVE('',#481,#480,#568,.T.);
#345=EDGE_CURVE('',#482,#481,#569,.T.);
#346=EDGE_CURVE('',#482,#483,#570,.T.);
#347=EDGE_CURVE('',#477,#483,#571,.T.);
#348=EDGE_CURVE('',#484,#485,#572,.T.);
#349=EDGE_CURVE('',#484,#486,#573,.T.);
#350=EDGE_CURVE('',#486,#487,#574,.T.);
#351=EDGE_CURVE('',#488,#487,#575,.T.);
#352=EDGE_CURVE('',#489,#488,#576,.T.);
#353=EDGE_CURVE('',#490,#489,#577,.T.);
#354=EDGE_CURVE('',#490,#491,#578,.T.);
#355=EDGE_CURVE('',#485,#491,#579,.T.);
#356=EDGE_CURVE('',#492,#493,#580,.T.);
#357=EDGE_CURVE('',#483,#493,#32,.T.);
#358=EDGE_CURVE('',#492,#482,#33,.T.);
#359=EDGE_CURVE('',#494,#480,#34,.T.);
#360=EDGE_CURVE('',#495,#494,#581,.T.);
#361=EDGE_CURVE('',#481,#495,#35,.T.);
#362=EDGE_CURVE('',#496,#494,#582,.T.);
#363=EDGE_CURVE('',#497,#496,#583,.T.);
#364=EDGE_CURVE('',#495,#497,#584,.T.);
#365=EDGE_CURVE('',#491,#496,#36,.T.);
#366=EDGE_CURVE('',#497,#490,#37,.T.);
#367=EDGE_CURVE('',#498,#488,#38,.T.);
#368=EDGE_CURVE('',#499,#498,#585,.T.);
#369=EDGE_CURVE('',#489,#499,#39,.T.);
#370=EDGE_CURVE('',#493,#498,#586,.T.);
#371=EDGE_CURVE('',#499,#492,#587,.T.);
#372=EDGE_CURVE('',#500,#501,#588,.T.);
#373=EDGE_CURVE('',#500,#502,#589,.T.);
#374=EDGE_CURVE('',#503,#502,#590,.T.);
#375=EDGE_CURVE('',#503,#504,#591,.T.);
#376=EDGE_CURVE('',#504,#505,#592,.T.);
#377=EDGE_CURVE('',#505,#506,#593,.T.);
#378=EDGE_CURVE('',#506,#507,#594,.T.);
#379=EDGE_CURVE('',#507,#501,#595,.T.);
#380=EDGE_CURVE('',#508,#509,#596,.T.);
#381=EDGE_CURVE('',#508,#510,#40,.T.);
#382=EDGE_CURVE('',#510,#511,#597,.T.);
#383=EDGE_CURVE('',#511,#512,#41,.T.);
#384=EDGE_CURVE('',#512,#513,#598,.T.);
#385=EDGE_CURVE('',#513,#514,#42,.T.);
#386=EDGE_CURVE('',#515,#514,#599,.T.);
#387=EDGE_CURVE('',#515,#509,#43,.T.);
#388=EDGE_CURVE('',#516,#517,#600,.T.);
#389=EDGE_CURVE('',#517,#518,#44,.T.);
#390=EDGE_CURVE('',#519,#518,#601,.T.);
#391=EDGE_CURVE('',#519,#516,#45,.T.);
#392=EDGE_CURVE('',#520,#521,#602,.T.);
#393=EDGE_CURVE('',#521,#522,#46,.T.);
#394=EDGE_CURVE('',#523,#522,#603,.T.);
#395=EDGE_CURVE('',#523,#520,#47,.T.);
#396=EDGE_CURVE('',#524,#525,#604,.T.);
#397=EDGE_CURVE('',#525,#505,#48,.T.);
#398=EDGE_CURVE('',#504,#524,#49,.T.);
#399=EDGE_CURVE('',#502,#526,#50,.T.);
#400=EDGE_CURVE('',#527,#526,#605,.T.);
#401=EDGE_CURVE('',#527,#503,#51,.T.);
#402=EDGE_CURVE('',#518,#528,#606,.T.);
#403=EDGE_CURVE('',#529,#528,#607,.T.);
#404=EDGE_CURVE('',#529,#530,#608,.T.);
#405=EDGE_CURVE('',#530,#531,#609,.T.);
#406=EDGE_CURVE('',#531,#525,#610,.T.);
#407=EDGE_CURVE('',#524,#519,#611,.T.);
#408=EDGE_CURVE('',#526,#532,#612,.T.);
#409=EDGE_CURVE('',#533,#532,#613,.T.);
#410=EDGE_CURVE('',#533,#534,#614,.T.);
#411=EDGE_CURVE('',#534,#535,#615,.T.);
#412=EDGE_CURVE('',#535,#521,#616,.T.);
#413=EDGE_CURVE('',#520,#527,#617,.T.);
#414=EDGE_CURVE('',#522,#536,#618,.T.);
#415=EDGE_CURVE('',#536,#537,#619,.T.);
#416=EDGE_CURVE('',#537,#538,#620,.T.);
#417=EDGE_CURVE('',#539,#538,#621,.T.);
#418=EDGE_CURVE('',#539,#517,#622,.T.);
#419=EDGE_CURVE('',#516,#523,#623,.T.);
#420=EDGE_CURVE('',#540,#541,#624,.T.);
#421=EDGE_CURVE('',#541,#487,#625,.T.);
#422=EDGE_CURVE('',#486,#540,#626,.T.);
#423=EDGE_CURVE('',#541,#542,#52,.T.);
#424=EDGE_CURVE('',#543,#540,#53,.T.);
#425=EDGE_CURVE('',#543,#542,#627,.T.);
#426=EDGE_CURVE('',#544,#544,#54,.F.);
#427=EDGE_CURVE('',#545,#545,#55,.T.);
#428=EDGE_CURVE('',#485,#542,#628,.T.);
#429=EDGE_CURVE('',#543,#484,#629,.T.);
#430=EDGE_CURVE('',#479,#546,#630,.T.);
#431=EDGE_CURVE('',#547,#478,#631,.T.);
#432=EDGE_CURVE('',#547,#546,#632,.T.);
#433=EDGE_CURVE('',#548,#549,#633,.T.);
#434=EDGE_CURVE('',#549,#546,#56,.F.);
#435=EDGE_CURVE('',#547,#548,#57,.T.);
#436=EDGE_CURVE('',#549,#477,#634,.T.);
#437=EDGE_CURVE('',#476,#548,#635,.T.);
#438=EDGE_CURVE('',#550,#550,#58,.F.);
#439=EDGE_CURVE('',#551,#551,#59,.T.);
#440=EDGE_CURVE('',#470,#508,#636,.F.);
#441=EDGE_CURVE('',#509,#471,#637,.T.);
#442=EDGE_CURVE('',#510,#468,#638,.T.);
#443=EDGE_CURVE('',#469,#511,#639,.F.);
#444=EDGE_CURVE('',#512,#475,#640,.T.);
#445=EDGE_CURVE('',#474,#513,#641,.F.);
#446=EDGE_CURVE('',#472,#515,#642,.F.);
#447=EDGE_CURVE('',#514,#473,#643,.T.);
#448=EDGE_CURVE('',#530,#533,#644,.T.);
#449=EDGE_CURVE('',#529,#534,#645,.T.);
#450=EDGE_CURVE('',#552,#537,#646,.T.);
#451=EDGE_CURVE('',#552,#553,#647,.T.);
#452=EDGE_CURVE('',#553,#538,#648,.T.);
#453=EDGE_CURVE('',#554,#553,#649,.T.);
#454=EDGE_CURVE('',#554,#539,#650,.T.);
#455=EDGE_CURVE('',#555,#552,#651,.T.);
#456=EDGE_CURVE('',#555,#535,#652,.T.);
#457=EDGE_CURVE('',#528,#554,#653,.T.);
#458=EDGE_CURVE('',#555,#536,#654,.T.);
#459=EDGE_CURVE('',#556,#557,#655,.T.);
#460=EDGE_CURVE('',#557,#558,#656,.T.);
#461=EDGE_CURVE('',#559,#558,#657,.T.);
#462=EDGE_CURVE('',#531,#559,#658,.T.);
#463=EDGE_CURVE('',#556,#532,#659,.T.);
#464=EDGE_CURVE('',#507,#558,#660,.T.);
#465=EDGE_CURVE('',#506,#559,#661,.T.);
#466=EDGE_CURVE('',#500,#556,#662,.T.);
#467=EDGE_CURVE('',#501,#557,#663,.T.);
#468=VERTEX_POINT('',#1331);
#469=VERTEX_POINT('',#1332);
#470=VERTEX_POINT('',#1334);
#471=VERTEX_POINT('',#1336);
#472=VERTEX_POINT('',#1338);
#473=VERTEX_POINT('',#1340);
#474=VERTEX_POINT('',#1342);
#475=VERTEX_POINT('',#1344);
#476=VERTEX_POINT('',#1347);
#477=VERTEX_POINT('',#1348);
#478=VERTEX_POINT('',#1350);
#479=VERTEX_POINT('',#1352);
#480=VERTEX_POINT('',#1354);
#481=VERTEX_POINT('',#1356);
#482=VERTEX_POINT('',#1358);
#483=VERTEX_POINT('',#1360);
#484=VERTEX_POINT('',#1364);
#485=VERTEX_POINT('',#1365);
#486=VERTEX_POINT('',#1367);
#487=VERTEX_POINT('',#1369);
#488=VERTEX_POINT('',#1371);
#489=VERTEX_POINT('',#1373);
#490=VERTEX_POINT('',#1375);
#491=VERTEX_POINT('',#1377);
#492=VERTEX_POINT('',#1381);
#493=VERTEX_POINT('',#1382);
#494=VERTEX_POINT('',#1387);
#495=VERTEX_POINT('',#1389);
#496=VERTEX_POINT('',#1393);
#497=VERTEX_POINT('',#1395);
#498=VERTEX_POINT('',#1402);
#499=VERTEX_POINT('',#1404);
#500=VERTEX_POINT('',#1412);
#501=VERTEX_POINT('',#1413);
#502=VERTEX_POINT('',#1415);
#503=VERTEX_POINT('',#1417);
#504=VERTEX_POINT('',#1419);
#505=VERTEX_POINT('',#1421);
#506=VERTEX_POINT('',#1423);
#507=VERTEX_POINT('',#1425);
#508=VERTEX_POINT('',#1428);
#509=VERTEX_POINT('',#1429);
#510=VERTEX_POINT('',#1431);
#511=VERTEX_POINT('',#1433);
#512=VERTEX_POINT('',#1435);
#513=VERTEX_POINT('',#1437);
#514=VERTEX_POINT('',#1439);
#515=VERTEX_POINT('',#1441);
#516=VERTEX_POINT('',#1445);
#517=VERTEX_POINT('',#1446);
#518=VERTEX_POINT('',#1448);
#519=VERTEX_POINT('',#1450);
#520=VERTEX_POINT('',#1454);
#521=VERTEX_POINT('',#1455);
#522=VERTEX_POINT('',#1457);
#523=VERTEX_POINT('',#1459);
#524=VERTEX_POINT('',#1463);
#525=VERTEX_POINT('',#1464);
#526=VERTEX_POINT('',#1469);
#527=VERTEX_POINT('',#1471);
#528=VERTEX_POINT('',#1475);
#529=VERTEX_POINT('',#1477);
#530=VERTEX_POINT('',#1479);
#531=VERTEX_POINT('',#1481);
#532=VERTEX_POINT('',#1486);
#533=VERTEX_POINT('',#1488);
#534=VERTEX_POINT('',#1490);
#535=VERTEX_POINT('',#1492);
#536=VERTEX_POINT('',#1497);
#537=VERTEX_POINT('',#1499);
#538=VERTEX_POINT('',#1501);
#539=VERTEX_POINT('',#1503);
#540=VERTEX_POINT('',#1508);
#541=VERTEX_POINT('',#1509);
#542=VERTEX_POINT('',#1514);
#543=VERTEX_POINT('',#1516);
#544=VERTEX_POINT('',#1520);
#545=VERTEX_POINT('',#1522);
#546=VERTEX_POINT('',#1528);
#547=VERTEX_POINT('',#1530);
#548=VERTEX_POINT('',#1534);
#549=VERTEX_POINT('',#1535);
#550=VERTEX_POINT('',#1543);
#551=VERTEX_POINT('',#1545);
#552=VERTEX_POINT('',#1568);
#553=VERTEX_POINT('',#1570);
#554=VERTEX_POINT('',#1574);
#555=VERTEX_POINT('',#1578);
#556=VERTEX_POINT('',#1585);
#557=VERTEX_POINT('',#1586);
#558=VERTEX_POINT('',#1588);
#559=VERTEX_POINT('',#1590);
#560=LINE('',#1330,#664);
#561=LINE('',#1335,#665);
#562=LINE('',#1339,#666);
#563=LINE('',#1343,#667);
#564=LINE('',#1346,#668);
#565=LINE('',#1349,#669);
#566=LINE('',#1351,#670);
#567=LINE('',#1353,#671);
#568=LINE('',#1355,#672);
#569=LINE('',#1357,#673);
#570=LINE('',#1359,#674);
#571=LINE('',#1361,#675);
#572=LINE('',#1363,#676);
#573=LINE('',#1366,#677);
#574=LINE('',#1368,#678);
#575=LINE('',#1370,#679);
#576=LINE('',#1372,#680);
#577=LINE('',#1374,#681);
#578=LINE('',#1376,#682);
#579=LINE('',#1378,#683);
#580=LINE('',#1380,#684);
#581=LINE('',#1388,#685);
#582=LINE('',#1392,#686);
#583=LINE('',#1394,#687);
#584=LINE('',#1396,#688);
#585=LINE('',#1403,#689);
#586=LINE('',#1407,#690);
#587=LINE('',#1408,#691);
#588=LINE('',#1411,#692);
#589=LINE('',#1414,#693);
#590=LINE('',#1416,#694);
#591=LINE('',#1418,#695);
#592=LINE('',#1420,#696);
#593=LINE('',#1422,#697);
#594=LINE('',#1424,#698);
#595=LINE('',#1426,#699);
#596=LINE('',#1427,#700);
#597=LINE('',#1432,#701);
#598=LINE('',#1436,#702);
#599=LINE('',#1440,#703);
#600=LINE('',#1444,#704);
#601=LINE('',#1449,#705);
#602=LINE('',#1453,#706);
#603=LINE('',#1458,#707);
#604=LINE('',#1462,#708);
#605=LINE('',#1470,#709);
#606=LINE('',#1474,#710);
#607=LINE('',#1476,#711);
#608=LINE('',#1478,#712);
#609=LINE('',#1480,#713);
#610=LINE('',#1482,#714);
#611=LINE('',#1483,#715);
#612=LINE('',#1485,#716);
#613=LINE('',#1487,#717);
#614=LINE('',#1489,#718);
#615=LINE('',#1491,#719);
#616=LINE('',#1493,#720);
#617=LINE('',#1494,#721);
#618=LINE('',#1496,#722);
#619=LINE('',#1498,#723);
#620=LINE('',#1500,#724);
#621=LINE('',#1502,#725);
#622=LINE('',#1504,#726);
#623=LINE('',#1505,#727);
#624=LINE('',#1507,#728);
#625=LINE('',#1510,#729);
#626=LINE('',#1511,#730);
#627=LINE('',#1517,#731);
#628=LINE('',#1524,#732);
#629=LINE('',#1525,#733);
#630=LINE('',#1527,#734);
#631=LINE('',#1529,#735);
#632=LINE('',#1531,#736);
#633=LINE('',#1533,#737);
#634=LINE('',#1539,#738);
#635=LINE('',#1540,#739);
#636=LINE('',#1547,#740);
#637=LINE('',#1548,#741);
#638=LINE('',#1550,#742);
#639=LINE('',#1551,#743);
#640=LINE('',#1553,#744);
#641=LINE('',#1554,#745);
#642=LINE('',#1556,#746);
#643=LINE('',#1557,#747);
#644=LINE('',#1564,#748);
#645=LINE('',#1565,#749);
#646=LINE('',#1567,#750);
#647=LINE('',#1569,#751);
#648=LINE('',#1571,#752);
#649=LINE('',#1573,#753);
#650=LINE('',#1575,#754);
#651=LINE('',#1577,#755);
#652=LINE('',#1579,#756);
#653=LINE('',#1580,#757);
#654=LINE('',#1582,#758);
#655=LINE('',#1584,#759);
#656=LINE('',#1587,#760);
#657=LINE('',#1589,#761);
#658=LINE('',#1591,#762);
#659=LINE('',#1592,#763);
#660=LINE('',#1594,#764);
#661=LINE('',#1595,#765);
#662=LINE('',#1600,#766);
#663=LINE('',#1602,#767);
#664=VECTOR('',#1064,1.);
#665=VECTOR('',#1067,1.);
#666=VECTOR('',#1070,1.);
#667=VECTOR('',#1073,1.);
#668=VECTOR('',#1076,1.);
#669=VECTOR('',#1077,1.);
#670=VECTOR('',#1078,1.);
#671=VECTOR('',#1079,1.);
#672=VECTOR('',#1080,1.);
#673=VECTOR('',#1081,1.);
#674=VECTOR('',#1082,1.);
#675=VECTOR('',#1083,1.);
#676=VECTOR('',#1086,1.);
#677=VECTOR('',#1087,1.);
#678=VECTOR('',#1088,1.);
#679=VECTOR('',#1089,1.);
#680=VECTOR('',#1090,1.);
#681=VECTOR('',#1091,1.);
#682=VECTOR('',#1092,1.);
#683=VECTOR('',#1093,1.);
#684=VECTOR('',#1096,1.);
#685=VECTOR('',#1105,1.);
#686=VECTOR('',#1110,1.);
#687=VECTOR('',#1111,1.);
#688=VECTOR('',#1112,1.);
#689=VECTOR('',#1123,1.);
#690=VECTOR('',#1128,1.);
#691=VECTOR('',#1129,1.);
#692=VECTOR('',#1134,1.);
#693=VECTOR('',#1135,1.);
#694=VECTOR('',#1136,1.);
#695=VECTOR('',#1137,1.);
#696=VECTOR('',#1138,1.);
#697=VECTOR('',#1139,1.);
#698=VECTOR('',#1140,1.);
#699=VECTOR('',#1141,1.);
#700=VECTOR('',#1142,1.);
#701=VECTOR('',#1145,1.);
#702=VECTOR('',#1148,1.);
#703=VECTOR('',#1151,1.);
#704=VECTOR('',#1156,1.);
#705=VECTOR('',#1159,1.);
#706=VECTOR('',#1164,1.);
#707=VECTOR('',#1167,1.);
#708=VECTOR('',#1172,1.);
#709=VECTOR('',#1181,1.);
#710=VECTOR('',#1186,1.);
#711=VECTOR('',#1187,1.);
#712=VECTOR('',#1188,1.);
#713=VECTOR('',#1189,1.);
#714=VECTOR('',#1190,1.);
#715=VECTOR('',#1191,1.);
#716=VECTOR('',#1194,1.);
#717=VECTOR('',#1195,1.);
#718=VECTOR('',#1196,1.);
#719=VECTOR('',#1197,1.);
#720=VECTOR('',#1198,1.);
#721=VECTOR('',#1199,1.);
#722=VECTOR('',#1202,1.);
#723=VECTOR('',#1203,1.);
#724=VECTOR('',#1204,1.);
#725=VECTOR('',#1205,1.);
#726=VECTOR('',#1206,1.);
#727=VECTOR('',#1207,1.);
#728=VECTOR('',#1210,1.);
#729=VECTOR('',#1211,1.);
#730=VECTOR('',#1212,1.);
#731=VECTOR('',#1219,1.);
#732=VECTOR('',#1228,1.);
#733=VECTOR('',#1229,1.);
#734=VECTOR('',#1232,1.);
#735=VECTOR('',#1233,1.);
#736=VECTOR('',#1234,1.);
#737=VECTOR('',#1237,1.);
#738=VECTOR('',#1244,1.);
#739=VECTOR('',#1245,1.);
#740=VECTOR('',#1254,1.);
#741=VECTOR('',#1255,1.);
#742=VECTOR('',#1258,1.);
#743=VECTOR('',#1259,1.);
#744=VECTOR('',#1262,1.);
#745=VECTOR('',#1263,1.);
#746=VECTOR('',#1266,1.);
#747=VECTOR('',#1267,1.);
#748=VECTOR('',#1280,1.);
#749=VECTOR('',#1281,1.);
#750=VECTOR('',#1284,1.);
#751=VECTOR('',#1285,1.);
#752=VECTOR('',#1286,1.);
#753=VECTOR('',#1289,1.);
#754=VECTOR('',#1290,1.);
#755=VECTOR('',#1293,1.);
#756=VECTOR('',#1294,1.);
#757=VECTOR('',#1295,1.);
#758=VECTOR('',#1298,1.);
#759=VECTOR('',#1301,1.);
#760=VECTOR('',#1302,1.);
#761=VECTOR('',#1303,1.);
#762=VECTOR('',#1304,1.);
#763=VECTOR('',#1305,1.);
#764=VECTOR('',#1308,1.);
#765=VECTOR('',#1309,1.);
#766=VECTOR('',#1318,1.);
#767=VECTOR('',#1321,1.);
#768=EDGE_LOOP('',(#60,#61,#62,#63,#64,#65,#66,#67));
#769=EDGE_LOOP('',(#68,#69,#70,#71,#72,#73,#74,#75));
#770=EDGE_LOOP('',(#76,#77,#78,#79,#80,#81,#82,#83));
#771=EDGE_LOOP('',(#84,#85,#86,#87));
#772=EDGE_LOOP('',(#88,#89,#90,#91));
#773=EDGE_LOOP('',(#92,#93,#94,#95));
#774=EDGE_LOOP('',(#96,#97,#98,#99));
#775=EDGE_LOOP('',(#100,#101,#102,#103));
#776=EDGE_LOOP('',(#104,#105,#106,#107));
#777=EDGE_LOOP('',(#108,#109,#110,#111,#112,#113,#114,#115));
#778=EDGE_LOOP('',(#116,#117,#118,#119,#120,#121,#122,#123));
#779=EDGE_LOOP('',(#124,#125,#126,#127,#128,#129,#130,#131));
#780=EDGE_LOOP('',(#132,#133,#134,#135));
#781=EDGE_LOOP('',(#136,#137,#138,#139));
#782=EDGE_LOOP('',(#140,#141,#142,#143));
#783=EDGE_LOOP('',(#144,#145,#146,#147));
#784=EDGE_LOOP('',(#148,#149,#150,#151,#152,#153,#154,#155));
#785=EDGE_LOOP('',(#156,#157,#158,#159,#160,#161,#162,#163));
#786=EDGE_LOOP('',(#164,#165,#166,#167,#168,#169,#170,#171));
#787=EDGE_LOOP('',(#172,#173,#174,#175));
#788=EDGE_LOOP('',(#176,#177,#178,#179));
#789=EDGE_LOOP('',(#180));
#790=EDGE_LOOP('',(#181));
#791=EDGE_LOOP('',(#182,#183,#184,#185));
#792=EDGE_LOOP('',(#186,#187,#188,#189));
#793=EDGE_LOOP('',(#190,#191,#192,#193));
#794=EDGE_LOOP('',(#194,#195,#196,#197));
#795=EDGE_LOOP('',(#198));
#796=EDGE_LOOP('',(#199));
#797=EDGE_LOOP('',(#200,#201,#202,#203));
#798=EDGE_LOOP('',(#204,#205,#206,#207));
#799=EDGE_LOOP('',(#208,#209,#210,#211));
#800=EDGE_LOOP('',(#212,#213,#214,#215));
#801=EDGE_LOOP('',(#216,#217,#218,#219));
#802=EDGE_LOOP('',(#220,#221,#222,#223));
#803=EDGE_LOOP('',(#224,#225,#226,#227));
#804=EDGE_LOOP('',(#228,#229,#230,#231));
#805=EDGE_LOOP('',(#232,#233,#234,#235,#236,#237,#238,#239,#240,#241,#242,#243,#244,#245,#246,#247));
#806=EDGE_LOOP('',(#248,#249,#250,#251,#252,#253,#254,#255));
#807=EDGE_LOOP('',(#256));
#808=EDGE_LOOP('',(#257));
#809=EDGE_LOOP('',(#258,#259,#260,#261));
#810=EDGE_LOOP('',(#262,#263,#264,#265));
#811=EDGE_LOOP('',(#266,#267,#268,#269));
#812=EDGE_LOOP('',(#270,#271,#272,#273,#274,#275,#276,#277));
#813=EDGE_LOOP('',(#278,#279,#280,#281));
#814=EDGE_LOOP('',(#282,#283,#284,#285,#286,#287,#288,#289));
#815=EDGE_LOOP('',(#290,#291,#292,#293));
#816=EDGE_LOOP('',(#294,#295,#296,#297,#298));
#817=EDGE_LOOP('',(#299,#300,#301,#302,#303));
#818=EDGE_LOOP('',(#304,#305,#306,#307,#308));
#819=EDGE_LOOP('',(#309,#310,#311,#312,#313));
#820=EDGE_LOOP('',(#314,#315,#316,#317));
#821=EDGE_LOOP('',(#318,#319,#320,#321));
#822=EDGE_LOOP('',(#322,#323,#324,#325));
#823=EDGE_LOOP('',(#326));
#824=EDGE_LOOP('',(#327));
#825=EDGE_LOOP('',(#328,#329,#330,#331));
#826=FACE_BOUND('',#768,.T.);
#827=FACE_BOUND('',#769,.T.);
#828=FACE_BOUND('',#770,.T.);
#829=FACE_BOUND('',#771,.T.);
#830=FACE_BOUND('',#772,.T.);
#831=FACE_BOUND('',#773,.T.);
#832=FACE_BOUND('',#774,.T.);
#833=FACE_BOUND('',#775,.T.);
#834=FACE_BOUND('',#776,.T.);
#835=FACE_BOUND('',#777,.T.);
#836=FACE_BOUND('',#778,.T.);
#837=FACE_BOUND('',#779,.T.);
#838=FACE_BOUND('',#780,.T.);
#839=FACE_BOUND('',#781,.T.);
#840=FACE_BOUND('',#782,.T.);
#841=FACE_BOUND('',#783,.T.);
#842=FACE_BOUND('',#784,.T.);
#843=FACE_BOUND('',#785,.T.);
#844=FACE_BOUND('',#786,.T.);
#845=FACE_BOUND('',#787,.T.);
#846=FACE_BOUND('',#788,.T.);
#847=FACE_BOUND('',#789,.T.);
#848=FACE_BOUND('',#790,.T.);
#849=FACE_BOUND('',#791,.T.);
#850=FACE_BOUND('',#792,.T.);
#851=FACE_BOUND('',#793,.T.);
#852=FACE_BOUND('',#794,.T.);
#853=FACE_BOUND('',#795,.T.);
#854=FACE_BOUND('',#796,.T.);
#855=FACE_BOUND('',#797,.T.);
#856=FACE_BOUND('',#798,.T.);
#857=FACE_BOUND('',#799,.T.);
#858=FACE_BOUND('',#800,.T.);
#859=FACE_BOUND('',#801,.T.);
#860=FACE_BOUND('',#802,.T.);
#861=FACE_BOUND('',#803,.T.);
#862=FACE_BOUND('',#804,.T.);
#863=FACE_BOUND('',#805,.T.);
#864=FACE_BOUND('',#806,.T.);
#865=FACE_BOUND('',#807,.T.);
#866=FACE_BOUND('',#808,.T.);
#867=FACE_BOUND('',#809,.T.);
#868=FACE_BOUND('',#810,.T.);
#869=FACE_BOUND('',#811,.T.);
#870=FACE_BOUND('',#812,.T.);
#871=FACE_BOUND('',#813,.T.);
#872=FACE_BOUND('',#814,.T.);
#873=FACE_BOUND('',#815,.T.);
#874=FACE_BOUND('',#816,.T.);
#875=FACE_BOUND('',#817,.T.);
#876=FACE_BOUND('',#818,.T.);
#877=FACE_BOUND('',#819,.T.);
#878=FACE_BOUND('',#820,.T.);
#879=FACE_BOUND('',#821,.T.);
#880=FACE_BOUND('',#822,.T.);
#881=FACE_BOUND('',#823,.T.);
#882=FACE_BOUND('',#824,.T.);
#883=FACE_BOUND('',#825,.T.);
#884=PLANE('',#979);
#885=PLANE('',#984);
#886=PLANE('',#991);
#887=PLANE('',#998);
#888=PLANE('',#999);
#889=PLANE('',#1000);
#890=PLANE('',#1017);
#891=PLANE('',#1018);
#892=PLANE('',#1019);
#893=PLANE('',#1020);
#894=PLANE('',#1027);
#895=PLANE('',#1028);
#896=PLANE('',#1032);
#897=PLANE('',#1036);
#898=PLANE('',#1037);
#899=PLANE('',#1038);
#900=PLANE('',#1039);
#901=PLANE('',#1044);
#902=PLANE('',#1045);
#903=PLANE('',#1046);
#904=PLANE('',#1047);
#905=PLANE('',#1048);
#906=PLANE('',#1049);
#907=PLANE('',#1050);
#908=PLANE('',#1051);
#909=PLANE('',#1052);
#910=PLANE('',#1053);
#911=PLANE('',#1054);
#912=PLANE('',#1055);
#913=PLANE('',#1056);
#914=PLANE('',#1057);
#915=PLANE('',#1058);
#916=PLANE('',#1059);
#917=ADVANCED_FACE('',(#826,#827),#884,.F.);
#918=ADVANCED_FACE('',(#828),#885,.F.);
#919=ADVANCED_FACE('',(#829),#12,.T.);
#920=ADVANCED_FACE('',(#830),#13,.T.);
#921=ADVANCED_FACE('',(#831),#886,.F.);
#922=ADVANCED_FACE('',(#832),#14,.T.);
#923=ADVANCED_FACE('',(#833),#15,.T.);
#924=ADVANCED_FACE('',(#834),#887,.F.);
#925=ADVANCED_FACE('',(#835),#888,.T.);
#926=ADVANCED_FACE('',(#836,#837),#889,.F.);
#927=ADVANCED_FACE('',(#838),#16,.F.);
#928=ADVANCED_FACE('',(#839),#17,.F.);
#929=ADVANCED_FACE('',(#840),#18,.F.);
#930=ADVANCED_FACE('',(#841),#19,.F.);
#931=ADVANCED_FACE('',(#842),#890,.F.);
#932=ADVANCED_FACE('',(#843),#891,.F.);
#933=ADVANCED_FACE('',(#844),#892,.F.);
#934=ADVANCED_FACE('',(#845),#893,.T.);
#935=ADVANCED_FACE('',(#846),#20,.T.);
#936=ADVANCED_FACE('',(#847,#848),#21,.F.);
#937=ADVANCED_FACE('',(#849),#894,.T.);
#938=ADVANCED_FACE('',(#850),#895,.F.);
#939=ADVANCED_FACE('',(#851),#22,.T.);
#940=ADVANCED_FACE('',(#852),#896,.F.);
#941=ADVANCED_FACE('',(#853,#854),#23,.F.);
#942=ADVANCED_FACE('',(#855),#897,.T.);
#943=ADVANCED_FACE('',(#856),#898,.F.);
#944=ADVANCED_FACE('',(#857),#899,.F.);
#945=ADVANCED_FACE('',(#858),#900,.T.);
#946=ADVANCED_FACE('',(#859),#24,.F.);
#947=ADVANCED_FACE('',(#860),#25,.F.);
#948=ADVANCED_FACE('',(#861),#26,.F.);
#949=ADVANCED_FACE('',(#862),#27,.F.);
#950=ADVANCED_FACE('',(#863,#864,#865,#866),#901,.T.);
#951=ADVANCED_FACE('',(#867),#902,.T.);
#952=ADVANCED_FACE('',(#868),#903,.T.);
#953=ADVANCED_FACE('',(#869),#904,.T.);
#954=ADVANCED_FACE('',(#870),#905,.T.);
#955=ADVANCED_FACE('',(#871),#906,.F.);
#956=ADVANCED_FACE('',(#872),#907,.F.);
#957=ADVANCED_FACE('',(#873),#908,.T.);
#958=ADVANCED_FACE('',(#874),#909,.F.);
#959=ADVANCED_FACE('',(#875),#910,.F.);
#960=ADVANCED_FACE('',(#876),#911,.F.);
#961=ADVANCED_FACE('',(#877),#912,.F.);
#962=ADVANCED_FACE('',(#878),#913,.F.);
#963=ADVANCED_FACE('',(#879),#914,.F.);
#964=ADVANCED_FACE('',(#880,#881),#915,.F.);
#965=ADVANCED_FACE('',(#882,#883),#916,.F.);
#966=CLOSED_SHELL('',(#917,#918,#919,#920,#921,#922,#923,#924,#925,#926,#927,#928,#929,#930,#931,#932,#933,#934,#935,#936,#937,#938,#939,#940,#941,#942,#943,#944,#945,#946,#947,#948,#949,#950,#951,#952,#953,#954,#955,#956,#957,#958,#959,#960,#961,#962,#963,#964,#965));
#967=STYLED_ITEM('',(#968),#975);
#968=PRESENTATION_STYLE_ASSIGNMENT((#969));
#969=SURFACE_STYLE_USAGE(.BOTH.,#970);
#970=SURFACE_SIDE_STYLE('',(#971));
#971=SURFACE_STYLE_FILL_AREA(#972);
#972=FILL_AREA_STYLE('',(#973));
#973=FILL_AREA_STYLE_COLOUR('',#974);
#974=COLOUR_RGB('',0.498039215686275,0.498039215686275,0.498039215686275);
#975=MANIFOLD_SOLID_BREP('Part 3',#966);
#976=SHAPE_DEFINITION_REPRESENTATION(#1612,#977);
#977=SHAPE_REPRESENTATION('Part 3',(#978),#1607);
#978=AXIS2_PLACEMENT_3D('',#1328,#1060,#1061);
#979=AXIS2_PLACEMENT_3D('',#1329,#1062,#1063);
#980=AXIS2_PLACEMENT_3D('',#1333,#1065,#1066);
#981=AXIS2_PLACEMENT_3D('',#1337,#1068,#1069);
#982=AXIS2_PLACEMENT_3D('',#1341,#1071,#1072);
#983=AXIS2_PLACEMENT_3D('',#1345,#1074,#1075);
#984=AXIS2_PLACEMENT_3D('',#1362,#1084,#1085);
#985=AXIS2_PLACEMENT_3D('',#1379,#1094,#1095);
#986=AXIS2_PLACEMENT_3D('',#1383,#1097,#1098);
#987=AXIS2_PLACEMENT_3D('',#1384,#1099,#1100);
#988=AXIS2_PLACEMENT_3D('',#1385,#1101,#1102);
#989=AXIS2_PLACEMENT_3D('',#1386,#1103,#1104);
#990=AXIS2_PLACEMENT_3D('',#1390,#1106,#1107);
#991=AXIS2_PLACEMENT_3D('',#1391,#1108,#1109);
#992=AXIS2_PLACEMENT_3D('',#1397,#1113,#1114);
#993=AXIS2_PLACEMENT_3D('',#1398,#1115,#1116);
#994=AXIS2_PLACEMENT_3D('',#1399,#1117,#1118);
#995=AXIS2_PLACEMENT_3D('',#1400,#1119,#1120);
#996=AXIS2_PLACEMENT_3D('',#1401,#1121,#1122);
#997=AXIS2_PLACEMENT_3D('',#1405,#1124,#1125);
#998=AXIS2_PLACEMENT_3D('',#1406,#1126,#1127);
#999=AXIS2_PLACEMENT_3D('',#1409,#1130,#1131);
#1000=AXIS2_PLACEMENT_3D('',#1410,#1132,#1133);
#1001=AXIS2_PLACEMENT_3D('',#1430,#1143,#1144);
#1002=AXIS2_PLACEMENT_3D('',#1434,#1146,#1147);
#1003=AXIS2_PLACEMENT_3D('',#1438,#1149,#1150);
#1004=AXIS2_PLACEMENT_3D('',#1442,#1152,#1153);
#1005=AXIS2_PLACEMENT_3D('',#1443,#1154,#1155);
#1006=AXIS2_PLACEMENT_3D('',#1447,#1157,#1158);
#1007=AXIS2_PLACEMENT_3D('',#1451,#1160,#1161);
#1008=AXIS2_PLACEMENT_3D('',#1452,#1162,#1163);
#1009=AXIS2_PLACEMENT_3D('',#1456,#1165,#1166);
#1010=AXIS2_PLACEMENT_3D('',#1460,#1168,#1169);
#1011=AXIS2_PLACEMENT_3D('',#1461,#1170,#1171);
#1012=AXIS2_PLACEMENT_3D('',#1465,#1173,#1174);
#1013=AXIS2_PLACEMENT_3D('',#1466,#1175,#1176);
#1014=AXIS2_PLACEMENT_3D('',#1467,#1177,#1178);
#1015=AXIS2_PLACEMENT_3D('',#1468,#1179,#1180);
#1016=AXIS2_PLACEMENT_3D('',#1472,#1182,#1183);
#1017=AXIS2_PLACEMENT_3D('',#1473,#1184,#1185);
#1018=AXIS2_PLACEMENT_3D('',#1484,#1192,#1193);
#1019=AXIS2_PLACEMENT_3D('',#1495,#1200,#1201);
#1020=AXIS2_PLACEMENT_3D('',#1506,#1208,#1209);
#1021=AXIS2_PLACEMENT_3D('',#1512,#1213,#1214);
#1022=AXIS2_PLACEMENT_3D('',#1513,#1215,#1216);
#1023=AXIS2_PLACEMENT_3D('',#1515,#1217,#1218);
#1024=AXIS2_PLACEMENT_3D('',#1518,#1220,#1221);
#1025=AXIS2_PLACEMENT_3D('',#1519,#1222,#1223);
#1026=AXIS2_PLACEMENT_3D('',#1521,#1224,#1225);
#1027=AXIS2_PLACEMENT_3D('',#1523,#1226,#1227);
#1028=AXIS2_PLACEMENT_3D('',#1526,#1230,#1231);
#1029=AXIS2_PLACEMENT_3D('',#1532,#1235,#1236);
#1030=AXIS2_PLACEMENT_3D('',#1536,#1238,#1239);
#1031=AXIS2_PLACEMENT_3D('',#1537,#1240,#1241);
#1032=AXIS2_PLACEMENT_3D('',#1538,#1242,#1243);
#1033=AXIS2_PLACEMENT_3D('',#1541,#1246,#1247);
#1034=AXIS2_PLACEMENT_3D('',#1542,#1248,#1249);
#1035=AXIS2_PLACEMENT_3D('',#1544,#1250,#1251);
#1036=AXIS2_PLACEMENT_3D('',#1546,#1252,#1253);
#1037=AXIS2_PLACEMENT_3D('',#1549,#1256,#1257);
#1038=AXIS2_PLACEMENT_3D('',#1552,#1260,#1261);
#1039=AXIS2_PLACEMENT_3D('',#1555,#1264,#1265);
#1040=AXIS2_PLACEMENT_3D('',#1558,#1268,#1269);
#1041=AXIS2_PLACEMENT_3D('',#1559,#1270,#1271);
#1042=AXIS2_PLACEMENT_3D('',#1560,#1272,#1273);
#1043=AXIS2_PLACEMENT_3D('',#1561,#1274,#1275);
#1044=AXIS2_PLACEMENT_3D('',#1562,#1276,#1277);
#1045=AXIS2_PLACEMENT_3D('',#1563,#1278,#1279);
#1046=AXIS2_PLACEMENT_3D('',#1566,#1282,#1283);
#1047=AXIS2_PLACEMENT_3D('',#1572,#1287,#1288);
#1048=AXIS2_PLACEMENT_3D('',#1576,#1291,#1292);
#1049=AXIS2_PLACEMENT_3D('',#1581,#1296,#1297);
#1050=AXIS2_PLACEMENT_3D('',#1583,#1299,#1300);
#1051=AXIS2_PLACEMENT_3D('',#1593,#1306,#1307);
#1052=AXIS2_PLACEMENT_3D('',#1596,#1310,#1311);
#1053=AXIS2_PLACEMENT_3D('',#1597,#1312,#1313);
#1054=AXIS2_PLACEMENT_3D('',#1598,#1314,#1315);
#1055=AXIS2_PLACEMENT_3D('',#1599,#1316,#1317);
#1056=AXIS2_PLACEMENT_3D('',#1601,#1319,#1320);
#1057=AXIS2_PLACEMENT_3D('',#1603,#1322,#1323);
#1058=AXIS2_PLACEMENT_3D('',#1604,#1324,#1325);
#1059=AXIS2_PLACEMENT_3D('',#1605,#1326,#1327);
#1060=DIRECTION('',(0.,0.,1.));
#1061=DIRECTION('',(1.,0.,0.));
#1062=DIRECTION('',(0.,0.,-1.));
#1063=DIRECTION('',(-1.,0.,0.));
#1064=DIRECTION('',(0.,1.,0.));
#1065=DIRECTION('',(0.,0.,1.));
#1066=DIRECTION('',(1.,0.,0.));
#1067=DIRECTION('',(-1.,-1.21957499717155E-16,0.));
#1068=DIRECTION('',(0.,0.,1.));
#1069=DIRECTION('',(1.,0.,0.));
#1070=DIRECTION('',(0.,1.,0.));
#1071=DIRECTION('',(0.,0.,1.));
#1072=DIRECTION('',(1.,0.,0.));
#1073=DIRECTION('',(-1.,-1.95131999547447E-16,0.));
#1074=DIRECTION('',(0.,0.,1.));
#1075=DIRECTION('',(1.,0.,0.));
#1076=DIRECTION('',(0.,1.,0.));
#1077=DIRECTION('',(-1.,0.,0.));
#1078=DIRECTION('',(0.,1.,0.));
#1079=DIRECTION('',(1.,0.,0.));
#1080=DIRECTION('',(0.,1.,0.));
#1081=DIRECTION('',(-1.,0.,0.));
#1082=DIRECTION('',(0.,1.,0.));
#1083=DIRECTION('',(1.,0.,0.));
#1084=DIRECTION('',(0.,0.,1.));
#1085=DIRECTION('',(1.,0.,0.));
#1086=DIRECTION('',(0.,1.,0.));
#1087=DIRECTION('',(1.,0.,0.));
#1088=DIRECTION('',(0.,1.,0.));
#1089=DIRECTION('',(-1.,0.,0.));
#1090=DIRECTION('',(0.,1.,0.));
#1091=DIRECTION('',(1.,0.,0.));
#1092=DIRECTION('',(0.,1.,0.));
#1093=DIRECTION('',(-1.,0.,0.));
#1094=DIRECTION('',(0.,1.,0.));
#1095=DIRECTION('',(0.,0.,1.));
#1096=DIRECTION('',(0.,1.,0.));
#1097=DIRECTION('',(0.,1.,0.));
#1098=DIRECTION('',(0.,0.,1.));
#1099=DIRECTION('',(0.,-1.,0.));
#1100=DIRECTION('',(0.,0.,-1.));
#1101=DIRECTION('',(0.,1.,0.));
#1102=DIRECTION('',(0.,0.,1.));
#1103=DIRECTION('',(0.,1.,0.));
#1104=DIRECTION('',(0.,0.,1.));
#1105=DIRECTION('',(0.,1.,0.));
#1106=DIRECTION('',(0.,-1.,0.));
#1107=DIRECTION('',(0.,0.,-1.));
#1108=DIRECTION('',(1.,0.,0.));
#1109=DIRECTION('',(0.,0.,-1.));
#1110=DIRECTION('',(0.,0.,1.));
#1111=DIRECTION('',(0.,1.,0.));
#1112=DIRECTION('',(0.,0.,-1.));
#1113=DIRECTION('',(0.,1.,0.));
#1114=DIRECTION('',(0.,0.,1.));
#1115=DIRECTION('',(0.,1.,0.));
#1116=DIRECTION('',(0.,0.,1.));
#1117=DIRECTION('',(0.,-1.,0.));
#1118=DIRECTION('',(0.,0.,-1.));
#1119=DIRECTION('',(0.,1.,0.));
#1120=DIRECTION('',(0.,0.,1.));
#1121=DIRECTION('',(0.,1.,0.));
#1122=DIRECTION('',(0.,0.,1.));
#1123=DIRECTION('',(0.,1.,0.));
#1124=DIRECTION('',(0.,-1.,0.));
#1125=DIRECTION('',(0.,0.,-1.));
#1126=DIRECTION('',(-1.,0.,0.));
#1127=DIRECTION('',(0.,0.,1.));
#1128=DIRECTION('',(0.,0.,-1.));
#1129=DIRECTION('',(0.,0.,1.));
#1130=DIRECTION('',(0.,-1.,0.));
#1131=DIRECTION('',(1.,0.,0.));
#1132=DIRECTION('',(0.,0.,1.));
#1133=DIRECTION('',(1.,0.,0.));
#1134=DIRECTION('',(0.,-1.,0.));
#1135=DIRECTION('',(-1.,0.,0.));
#1136=DIRECTION('',(0.,-1.,0.));
#1137=DIRECTION('',(1.,0.,0.));
#1138=DIRECTION('',(0.,-1.,0.));
#1139=DIRECTION('',(-1.,0.,0.));
#1140=DIRECTION('',(0.,-1.,0.));
#1141=DIRECTION('',(-1.,0.,0.));
#1142=DIRECTION('',(-1.,-1.21957499717155E-16,0.));
#1143=DIRECTION('',(0.,0.,1.));
#1144=DIRECTION('',(1.,0.,0.));
#1145=DIRECTION('',(0.,1.,0.));
#1146=DIRECTION('',(0.,0.,1.));
#1147=DIRECTION('',(1.,0.,0.));
#1148=DIRECTION('',(-1.,-1.95131999547447E-16,0.));
#1149=DIRECTION('',(0.,0.,1.));
#1150=DIRECTION('',(1.,0.,0.));
#1151=DIRECTION('',(0.,1.,0.));
#1152=DIRECTION('',(0.,0.,1.));
#1153=DIRECTION('',(1.,0.,0.));
#1154=DIRECTION('',(0.,-1.,0.));
#1155=DIRECTION('',(0.,0.,-1.));
#1156=DIRECTION('',(0.,-1.,0.));
#1157=DIRECTION('',(0.,-1.,0.));
#1158=DIRECTION('',(0.,0.,-1.));
#1159=DIRECTION('',(0.,-1.,0.));
#1160=DIRECTION('',(0.,1.,0.));
#1161=DIRECTION('',(0.,0.,1.));
#1162=DIRECTION('',(0.,-1.,0.));
#1163=DIRECTION('',(0.,0.,-1.));
#1164=DIRECTION('',(0.,-1.,0.));
#1165=DIRECTION('',(0.,-1.,0.));
#1166=DIRECTION('',(0.,0.,-1.));
#1167=DIRECTION('',(0.,-1.,0.));
#1168=DIRECTION('',(0.,1.,0.));
#1169=DIRECTION('',(0.,0.,1.));
#1170=DIRECTION('',(0.,-1.,0.));
#1171=DIRECTION('',(0.,0.,-1.));
#1172=DIRECTION('',(0.,-1.,0.));
#1173=DIRECTION('',(0.,-1.,0.));
#1174=DIRECTION('',(0.,0.,-1.));
#1175=DIRECTION('',(0.,1.,0.));
#1176=DIRECTION('',(0.,0.,1.));
#1177=DIRECTION('',(0.,-1.,0.));
#1178=DIRECTION('',(0.,0.,-1.));
#1179=DIRECTION('',(0.,-1.,0.));
#1180=DIRECTION('',(0.,0.,-1.));
#1181=DIRECTION('',(0.,-1.,0.));
#1182=DIRECTION('',(0.,1.,0.));
#1183=DIRECTION('',(0.,0.,1.));
#1184=DIRECTION('',(1.,0.,0.));
#1185=DIRECTION('',(0.,0.,-1.));
#1186=DIRECTION('',(0.,0.,1.));
#1187=DIRECTION('',(0.,-1.,0.));
#1188=DIRECTION('',(0.,0.,1.));
#1189=DIRECTION('',(0.,-1.,0.));
#1190=DIRECTION('',(0.,0.,1.));
#1191=DIRECTION('',(0.,0.,-1.));
#1192=DIRECTION('',(-1.,0.,0.));
#1193=DIRECTION('',(0.,0.,1.));
#1194=DIRECTION('',(0.,0.,-1.));
#1195=DIRECTION('',(0.,-1.,0.));
#1196=DIRECTION('',(0.,0.,-1.));
#1197=DIRECTION('',(0.,-1.,0.));
#1198=DIRECTION('',(0.,0.,-1.));
#1199=DIRECTION('',(0.,0.,1.));
#1200=DIRECTION('',(0.,0.,-1.));
#1201=DIRECTION('',(-1.,0.,0.));
#1202=DIRECTION('',(1.,0.,0.));
#1203=DIRECTION('',(0.,-1.,0.));
#1204=DIRECTION('',(1.,0.,0.));
#1205=DIRECTION('',(0.,-1.,0.));
#1206=DIRECTION('',(1.,0.,0.));
#1207=DIRECTION('',(-1.,0.,0.));
#1208=DIRECTION('',(1.,0.,0.));
#1209=DIRECTION('',(0.,0.,-1.));
#1210=DIRECTION('',(0.,1.,0.));
#1211=DIRECTION('',(0.,0.,1.));
#1212=DIRECTION('',(0.,0.,-1.));
#1213=DIRECTION('',(0.,1.,0.));
#1214=DIRECTION('',(0.,0.,1.));
#1215=DIRECTION('',(0.,1.,0.));
#1216=DIRECTION('',(0.,0.,1.));
#1217=DIRECTION('',(0.,-1.,0.));
#1218=DIRECTION('',(0.,0.,1.));
#1219=DIRECTION('',(0.,1.,0.));
#1220=DIRECTION('',(0.,1.,0.));
#1221=DIRECTION('',(0.,0.,1.));
#1222=DIRECTION('',(0.,1.,0.));
#1223=DIRECTION('',(0.,0.,1.));
#1224=DIRECTION('',(0.,1.,0.));
#1225=DIRECTION('',(0.,0.,1.));
#1226=DIRECTION('',(-1.,0.,0.));
#1227=DIRECTION('',(0.,0.,1.));
#1228=DIRECTION('',(0.,0.,-1.));
#1229=DIRECTION('',(0.,0.,1.));
#1230=DIRECTION('',(1.,0.,0.));
#1231=DIRECTION('',(0.,0.,-1.));
#1232=DIRECTION('',(0.,0.,1.));
#1233=DIRECTION('',(0.,0.,-1.));
#1234=DIRECTION('',(0.,1.,0.));
#1235=DIRECTION('',(0.,1.,0.));
#1236=DIRECTION('',(0.,0.,1.));
#1237=DIRECTION('',(0.,1.,0.));
#1238=DIRECTION('',(0.,1.,0.));
#1239=DIRECTION('',(0.,0.,1.));
#1240=DIRECTION('',(0.,1.,0.));
#1241=DIRECTION('',(0.,0.,1.));
#1242=DIRECTION('',(-1.,0.,0.));
#1243=DIRECTION('',(0.,0.,1.));
#1244=DIRECTION('',(0.,0.,-1.));
#1245=DIRECTION('',(0.,0.,1.));
#1246=DIRECTION('',(0.,1.,0.));
#1247=DIRECTION('',(0.,0.,1.));
#1248=DIRECTION('',(0.,1.,0.));
#1249=DIRECTION('',(0.,0.,1.));
#1250=DIRECTION('',(0.,1.,0.));
#1251=DIRECTION('',(0.,0.,1.));
#1252=DIRECTION('',(-1.21957499717155E-16,1.,0.));
#1253=DIRECTION('',(-1.,-1.21957499717155E-16,0.));
#1254=DIRECTION('',(0.,0.,1.));
#1255=DIRECTION('',(0.,0.,1.));
#1256=DIRECTION('',(1.,0.,0.));
#1257=DIRECTION('',(0.,0.,-1.));
#1258=DIRECTION('',(0.,0.,1.));
#1259=DIRECTION('',(0.,0.,1.));
#1260=DIRECTION('',(-1.95131999547447E-16,1.,0.));
#1261=DIRECTION('',(-1.,-1.95131999547447E-16,0.));
#1262=DIRECTION('',(0.,0.,1.));
#1263=DIRECTION('',(0.,0.,1.));
#1264=DIRECTION('',(1.,0.,0.));
#1265=DIRECTION('',(0.,0.,-1.));
#1266=DIRECTION('',(0.,0.,1.));
#1267=DIRECTION('',(0.,0.,1.));
#1268=DIRECTION('',(0.,0.,1.));
#1269=DIRECTION('',(1.,0.,0.));
#1270=DIRECTION('',(0.,0.,-1.));
#1271=DIRECTION('',(-1.,0.,0.));
#1272=DIRECTION('',(0.,0.,-1.));
#1273=DIRECTION('',(-1.,0.,0.));
#1274=DIRECTION('',(0.,0.,1.));
#1275=DIRECTION('',(1.,0.,0.));
#1276=DIRECTION('',(0.,1.,0.));
#1277=DIRECTION('',(1.,0.,0.));
#1278=DIRECTION('',(0.,1.,0.));
#1279=DIRECTION('',(1.,0.,0.));
#1280=DIRECTION('',(-1.,0.,0.));
#1281=DIRECTION('',(-1.,0.,0.));
#1282=DIRECTION('',(0.,1.,0.));
#1283=DIRECTION('',(-1.,0.,0.));
#1284=DIRECTION('',(0.,0.,-1.));
#1285=DIRECTION('',(1.,0.,0.));
#1286=DIRECTION('',(0.,0.,-1.));
#1287=DIRECTION('',(-1.,0.,0.));
#1288=DIRECTION('',(0.,0.,1.));
#1289=DIRECTION('',(0.,-1.,0.));
#1290=DIRECTION('',(0.,0.,-1.));
#1291=DIRECTION('',(0.,0.,-1.));
#1292=DIRECTION('',(-1.,0.,0.));
#1293=DIRECTION('',(0.,-1.,0.));
#1294=DIRECTION('',(-1.,0.,0.));
#1295=DIRECTION('',(-1.,0.,0.));
#1296=DIRECTION('',(-1.,0.,0.));
#1297=DIRECTION('',(0.,0.,1.));
#1298=DIRECTION('',(0.,0.,-1.));
#1299=DIRECTION('',(0.,0.,-1.));
#1300=DIRECTION('',(-1.,0.,0.));
#1301=DIRECTION('',(0.,-1.,0.));
#1302=DIRECTION('',(1.,0.,0.));
#1303=DIRECTION('',(0.,-1.,0.));
#1304=DIRECTION('',(-1.,0.,0.));
#1305=DIRECTION('',(-1.,0.,0.));
#1306=DIRECTION('',(-1.,0.,-1.83529779515108E-16));
#1307=DIRECTION('',(-1.83529779515108E-16,0.,1.));
#1308=DIRECTION('',(1.83529779515108E-16,0.,-1.));
#1309=DIRECTION('',(1.83529779515108E-16,0.,-1.));
#1310=DIRECTION('',(0.,-1.,0.));
#1311=DIRECTION('',(1.,0.,0.));
#1312=DIRECTION('',(0.,-1.,0.));
#1313=DIRECTION('',(1.,0.,0.));
#1314=DIRECTION('',(0.,-1.,0.));
#1315=DIRECTION('',(1.,0.,0.));
#1316=DIRECTION('',(0.,-1.,0.));
#1317=DIRECTION('',(1.,0.,0.));
#1318=DIRECTION('',(0.,0.,-1.));
#1319=DIRECTION('',(-1.,0.,0.));
#1320=DIRECTION('',(0.,0.,1.));
#1321=DIRECTION('',(0.,0.,-1.));
#1322=DIRECTION('',(0.,-1.,0.));
#1323=DIRECTION('',(1.,0.,0.));
#1324=DIRECTION('',(0.,1.,0.));
#1325=DIRECTION('',(-1.,0.,0.));
#1326=DIRECTION('',(0.,1.,0.));
#1327=DIRECTION('',(-1.,0.,0.));
#1328=CARTESIAN_POINT('',(0.,0.,0.));
#1329=CARTESIAN_POINT('',(0.,-0.00377,0.014659));
#1330=CARTESIAN_POINT('',(0.004445,0.002825,0.014659));
#1331=CARTESIAN_POINT('',(0.004445,0.00120481536726415,0.014659));
#1332=CARTESIAN_POINT('',(0.004445,0.00444518463273585,0.014659));
#1333=CARTESIAN_POINT('',(0.00352518463273585,0.00120481536726415,0.014659));
#1334=CARTESIAN_POINT('',(0.00352518463273585,0.000285,0.014659));
#1335=CARTESIAN_POINT('',(0.,0.000285,0.014659));
#1336=CARTESIAN_POINT('',(-0.00352518463273585,0.000285,0.014659));
#1337=CARTESIAN_POINT('',(-0.00352518463273585,0.00120481536726415,0.014659));
#1338=CARTESIAN_POINT('',(-0.004445,0.00120481536726415,0.014659));
#1339=CARTESIAN_POINT('',(-0.004445,0.002825,0.014659));
#1340=CARTESIAN_POINT('',(-0.004445,0.00444518463273585,0.014659));
#1341=CARTESIAN_POINT('',(-0.00352518463273585,0.00444518463273585,0.014659));
#1342=CARTESIAN_POINT('',(-0.00352518463273585,0.005365,0.014659));
#1343=CARTESIAN_POINT('',(0.,0.005365,0.014659));
#1344=CARTESIAN_POINT('',(0.00352518463273585,0.005365,0.014659));
#1345=CARTESIAN_POINT('',(0.00352518463273585,0.00444518463273585,0.014659));
#1346=CARTESIAN_POINT('',(0.003429,0.00826,0.014659));
#1347=CARTESIAN_POINT('',(0.003429,0.00699,0.014659));
#1348=CARTESIAN_POINT('',(0.003429,0.0085,0.014659));
#1349=CARTESIAN_POINT('',(0.,0.00699,0.014659));
#1350=CARTESIAN_POINT('',(-0.003429,0.00699,0.014659));
#1351=CARTESIAN_POINT('',(-0.003429,0.00826,0.014659));
#1352=CARTESIAN_POINT('',(-0.003429,0.0085,0.014659));
#1353=CARTESIAN_POINT('',(0.,0.0085,0.014659));
#1354=CARTESIAN_POINT('',(-0.011,0.0085,0.014659));
#1355=CARTESIAN_POINT('',(-0.011,-0.00377,0.014659));
#1356=CARTESIAN_POINT('',(-0.011,-0.004405,0.014659));
#1357=CARTESIAN_POINT('',(0.,-0.004405,0.014659));
#1358=CARTESIAN_POINT('',(0.011,-0.004405,0.014659));
#1359=CARTESIAN_POINT('',(0.011,-0.00377,0.014659));
#1360=CARTESIAN_POINT('',(0.011,0.0085,0.014659));
#1361=CARTESIAN_POINT('',(0.,0.0085,0.014659));
#1362=CARTESIAN_POINT('',(0.,-0.00377,-0.014659));
#1363=CARTESIAN_POINT('',(-0.003429,0.00826,-0.014659));
#1364=CARTESIAN_POINT('',(-0.003429,0.00699,-0.014659));
#1365=CARTESIAN_POINT('',(-0.003429,0.0085,-0.014659));
#1366=CARTESIAN_POINT('',(0.,0.00699,-0.014659));
#1367=CARTESIAN_POINT('',(0.003429,0.00699,-0.014659));
#1368=CARTESIAN_POINT('',(0.003429,0.00826,-0.014659));
#1369=CARTESIAN_POINT('',(0.003429,0.0085,-0.014659));
#1370=CARTESIAN_POINT('',(0.,0.0085,-0.014659));
#1371=CARTESIAN_POINT('',(0.011,0.0085,-0.014659));
#1372=CARTESIAN_POINT('',(0.011,-0.00377,-0.014659));
#1373=CARTESIAN_POINT('',(0.011,-0.004405,-0.014659));
#1374=CARTESIAN_POINT('',(0.,-0.004405,-0.014659));
#1375=CARTESIAN_POINT('',(-0.011,-0.004405,-0.014659));
#1376=CARTESIAN_POINT('',(-0.011,-0.00377,-0.014659));
#1377=CARTESIAN_POINT('',(-0.011,0.0085,-0.014659));
#1378=CARTESIAN_POINT('',(0.,0.0085,-0.014659));
#1379=CARTESIAN_POINT('',(0.011,-0.00377,0.011));
#1380=CARTESIAN_POINT('',(0.014659,-0.00377,0.011));
#1381=CARTESIAN_POINT('',(0.014659,-0.004405,0.011));
#1382=CARTESIAN_POINT('',(0.014659,0.0085,0.011));
#1383=CARTESIAN_POINT('',(0.011,0.0085,0.011));
#1384=CARTESIAN_POINT('',(0.011,-0.004405,0.011));
#1385=CARTESIAN_POINT('',(-0.011,-0.00377,0.011));
#1386=CARTESIAN_POINT('',(-0.011,0.0085,0.011));
#1387=CARTESIAN_POINT('',(-0.014659,0.0085,0.011));
#1388=CARTESIAN_POINT('',(-0.014659,-0.00377,0.011));
#1389=CARTESIAN_POINT('',(-0.014659,-0.004405,0.011));
#1390=CARTESIAN_POINT('',(-0.011,-0.004405,0.011));
#1391=CARTESIAN_POINT('',(-0.014659,-0.00377,0.));
#1392=CARTESIAN_POINT('',(-0.014659,0.0085,0.));
#1393=CARTESIAN_POINT('',(-0.014659,0.0085,-0.011));
#1394=CARTESIAN_POINT('',(-0.014659,-0.00377,-0.011));
#1395=CARTESIAN_POINT('',(-0.014659,-0.004405,-0.011));
#1396=CARTESIAN_POINT('',(-0.014659,-0.004405,0.));
#1397=CARTESIAN_POINT('',(-0.011,-0.00377,-0.011));
#1398=CARTESIAN_POINT('',(-0.011,0.0085,-0.011));
#1399=CARTESIAN_POINT('',(-0.011,-0.004405,-0.011));
#1400=CARTESIAN_POINT('',(0.011,-0.00377,-0.011));
#1401=CARTESIAN_POINT('',(0.011,0.0085,-0.011));
#1402=CARTESIAN_POINT('',(0.014659,0.0085,-0.011));
#1403=CARTESIAN_POINT('',(0.014659,-0.00377,-0.011));
#1404=CARTESIAN_POINT('',(0.014659,-0.004405,-0.011));
#1405=CARTESIAN_POINT('',(0.011,-0.004405,-0.011));
#1406=CARTESIAN_POINT('',(0.014659,-0.00377,0.));
#1407=CARTESIAN_POINT('',(0.014659,0.0085,0.));
#1408=CARTESIAN_POINT('',(0.014659,-0.004405,0.));
#1409=CARTESIAN_POINT('',(0.,-0.004405,0.));
#1410=CARTESIAN_POINT('',(0.,0.010802,0.012754));
#1411=CARTESIAN_POINT('',(-0.00711486026358605,-0.000468,0.012754));
#1412=CARTESIAN_POINT('',(-0.00711486026358605,-0.000468,0.012754));
#1413=CARTESIAN_POINT('',(-0.00711486026358605,-0.0025,0.012754));
#1414=CARTESIAN_POINT('',(0.,-0.000468,0.012754));
#1415=CARTESIAN_POINT('',(-0.011,-0.000468,0.012754));
#1416=CARTESIAN_POINT('',(-0.011,0.010802,0.012754));
#1417=CARTESIAN_POINT('',(-0.011,0.0085,0.012754));
#1418=CARTESIAN_POINT('',(0.,0.0085,0.012754));
#1419=CARTESIAN_POINT('',(0.011,0.0085,0.012754));
#1420=CARTESIAN_POINT('',(0.011,0.010802,0.012754));
#1421=CARTESIAN_POINT('',(0.011,-0.000468,0.012754));
#1422=CARTESIAN_POINT('',(0.,-0.000468,0.012754));
#1423=CARTESIAN_POINT('',(0.00711486026358604,-0.000468,0.012754));
#1424=CARTESIAN_POINT('',(0.00711486026358604,-0.000468,0.012754));
#1425=CARTESIAN_POINT('',(0.00711486026358604,-0.0025,0.012754));
#1426=CARTESIAN_POINT('',(0.,-0.0025,0.012754));
#1427=CARTESIAN_POINT('',(1.28262702452531E-18,0.000285,0.012754));
#1428=CARTESIAN_POINT('',(0.00352518463273585,0.000285,0.012754));
#1429=CARTESIAN_POINT('',(-0.00352518463273585,0.000285,0.012754));
#1430=CARTESIAN_POINT('',(0.00352518463273585,0.00120481536726415,0.012754));
#1431=CARTESIAN_POINT('',(0.004445,0.00120481536726415,0.012754));
#1432=CARTESIAN_POINT('',(0.004445,0.010802,0.012754));
#1433=CARTESIAN_POINT('',(0.004445,0.00444518463273585,0.012754));
#1434=CARTESIAN_POINT('',(0.00352518463273585,0.00444518463273585,0.012754));
#1435=CARTESIAN_POINT('',(0.00352518463273585,0.005365,0.012754));
#1436=CARTESIAN_POINT('',(1.06093268153947E-18,0.005365,0.012754));
#1437=CARTESIAN_POINT('',(-0.00352518463273585,0.005365,0.012754));
#1438=CARTESIAN_POINT('',(-0.00352518463273585,0.00444518463273585,0.012754));
#1439=CARTESIAN_POINT('',(-0.004445,0.00444518463273585,0.012754));
#1440=CARTESIAN_POINT('',(-0.004445,0.010802,0.012754));
#1441=CARTESIAN_POINT('',(-0.004445,0.00120481536726415,0.012754));
#1442=CARTESIAN_POINT('',(-0.00352518463273585,0.00120481536726415,0.012754));
#1443=CARTESIAN_POINT('',(0.011,0.010802,-0.011));
#1444=CARTESIAN_POINT('',(0.011,0.010802,-0.012754));
#1445=CARTESIAN_POINT('',(0.011,0.0085,-0.012754));
#1446=CARTESIAN_POINT('',(0.011,-0.000468,-0.012754));
#1447=CARTESIAN_POINT('',(0.011,-0.000468,-0.011));
#1448=CARTESIAN_POINT('',(0.012754,-0.000468,-0.011));
#1449=CARTESIAN_POINT('',(0.012754,0.010802,-0.011));
#1450=CARTESIAN_POINT('',(0.012754,0.0085,-0.011));
#1451=CARTESIAN_POINT('',(0.011,0.0085,-0.011));
#1452=CARTESIAN_POINT('',(-0.011,0.010802,-0.011));
#1453=CARTESIAN_POINT('',(-0.012754,0.010802,-0.011));
#1454=CARTESIAN_POINT('',(-0.012754,0.0085,-0.011));
#1455=CARTESIAN_POINT('',(-0.012754,-0.000468,-0.011));
#1456=CARTESIAN_POINT('',(-0.011,-0.000468,-0.011));
#1457=CARTESIAN_POINT('',(-0.011,-0.000468,-0.012754));
#1458=CARTESIAN_POINT('',(-0.011,0.010802,-0.012754));
#1459=CARTESIAN_POINT('',(-0.011,0.0085,-0.012754));
#1460=CARTESIAN_POINT('',(-0.011,0.0085,-0.011));
#1461=CARTESIAN_POINT('',(0.011,0.010802,0.011));
#1462=CARTESIAN_POINT('',(0.012754,0.010802,0.011));
#1463=CARTESIAN_POINT('',(0.012754,0.0085,0.011));
#1464=CARTESIAN_POINT('',(0.012754,-0.000468,0.011));
#1465=CARTESIAN_POINT('',(0.011,-0.000468,0.011));
#1466=CARTESIAN_POINT('',(0.011,0.0085,0.011));
#1467=CARTESIAN_POINT('',(-0.011,0.010802,0.011));
#1468=CARTESIAN_POINT('',(-0.011,-0.000468,0.011));
#1469=CARTESIAN_POINT('',(-0.012754,-0.000468,0.011));
#1470=CARTESIAN_POINT('',(-0.012754,0.010802,0.011));
#1471=CARTESIAN_POINT('',(-0.012754,0.0085,0.011));
#1472=CARTESIAN_POINT('',(-0.011,0.0085,0.011));
#1473=CARTESIAN_POINT('',(0.012754,0.010802,0.));
#1474=CARTESIAN_POINT('',(0.012754,-0.000468,0.));
#1475=CARTESIAN_POINT('',(0.012754,-0.000468,0.));
#1476=CARTESIAN_POINT('',(0.012754,2.E-06,0.));
#1477=CARTESIAN_POINT('',(0.012754,0.,0.));
#1478=CARTESIAN_POINT('',(0.012754,0.,0.));
#1479=CARTESIAN_POINT('',(0.012754,0.,0.003302));
#1480=CARTESIAN_POINT('',(0.012754,2.E-06,0.003302));
#1481=CARTESIAN_POINT('',(0.012754,-0.000468,0.003302));
#1482=CARTESIAN_POINT('',(0.012754,-0.000468,0.));
#1483=CARTESIAN_POINT('',(0.012754,0.0085,0.));
#1484=CARTESIAN_POINT('',(-0.012754,0.010802,0.));
#1485=CARTESIAN_POINT('',(-0.012754,-0.000468,0.));
#1486=CARTESIAN_POINT('',(-0.012754,-0.000468,0.003302));
#1487=CARTESIAN_POINT('',(-0.012754,2.E-06,0.003302));
#1488=CARTESIAN_POINT('',(-0.012754,0.,0.003302));
#1489=CARTESIAN_POINT('',(-0.012754,0.,0.));
#1490=CARTESIAN_POINT('',(-0.012754,0.,0.));
#1491=CARTESIAN_POINT('',(-0.012754,2.E-06,0.));
#1492=CARTESIAN_POINT('',(-0.012754,-0.000468,0.));
#1493=CARTESIAN_POINT('',(-0.012754,-0.000468,0.));
#1494=CARTESIAN_POINT('',(-0.012754,0.0085,0.));
#1495=CARTESIAN_POINT('',(0.,0.010802,-0.012754));
#1496=CARTESIAN_POINT('',(0.,-0.000468,-0.012754));
#1497=CARTESIAN_POINT('',(-0.00889286026358604,-0.000468,-0.012754));
#1498=CARTESIAN_POINT('',(-0.00889286026358604,-0.000468,-0.012754));
#1499=CARTESIAN_POINT('',(-0.00889286026358604,-0.0018,-0.012754));
#1500=CARTESIAN_POINT('',(0.,-0.0018,-0.012754));
#1501=CARTESIAN_POINT('',(0.00889286026358604,-0.0018,-0.012754));
#1502=CARTESIAN_POINT('',(0.00889286026358604,-0.000468,-0.012754));
#1503=CARTESIAN_POINT('',(0.00889286026358604,-0.000468,-0.012754));
#1504=CARTESIAN_POINT('',(0.,-0.000468,-0.012754));
#1505=CARTESIAN_POINT('',(0.,0.0085,-0.012754));
#1506=CARTESIAN_POINT('',(0.003429,0.00826,-0.0159106503231526));
#1507=CARTESIAN_POINT('',(0.003429,0.00826,-0.0171623006463051));
#1508=CARTESIAN_POINT('',(0.003429,0.00699,-0.0171623006463051));
#1509=CARTESIAN_POINT('',(0.003429,0.0085,-0.0171623006463051));
#1510=CARTESIAN_POINT('',(0.003429,0.0085,-0.0159106503231526));
#1511=CARTESIAN_POINT('',(0.003429,0.00699,-0.0159106503231526));
#1512=CARTESIAN_POINT('',(0.,0.00826,-0.0171623006463051));
#1513=CARTESIAN_POINT('',(0.,0.0085,-0.0171623006463051));
#1514=CARTESIAN_POINT('',(-0.003429,0.0085,-0.0171623006463051));
#1515=CARTESIAN_POINT('',(0.,0.00699,-0.0171623006463051));
#1516=CARTESIAN_POINT('',(-0.003429,0.00699,-0.0171623006463051));
#1517=CARTESIAN_POINT('',(-0.003429,0.00826,-0.0171623006463051));
#1518=CARTESIAN_POINT('',(0.,0.00826,-0.0171623006463051));
#1519=CARTESIAN_POINT('',(0.,0.0085,-0.0171623006463051));
#1520=CARTESIAN_POINT('',(0.,0.0085,-0.0156383006463051));
#1521=CARTESIAN_POINT('',(0.,0.00699,-0.0171623006463051));
#1522=CARTESIAN_POINT('',(0.,0.00699,-0.0156383006463051));
#1523=CARTESIAN_POINT('',(-0.003429,0.00826,-0.0159106503231526));
#1524=CARTESIAN_POINT('',(-0.003429,0.0085,-0.0159106503231526));
#1525=CARTESIAN_POINT('',(-0.003429,0.00699,-0.0159106503231526));
#1526=CARTESIAN_POINT('',(-0.003429,0.00826,0.0159106503231526));
#1527=CARTESIAN_POINT('',(-0.003429,0.0085,0.0159106503231526));
#1528=CARTESIAN_POINT('',(-0.003429,0.0085,0.0171623006463051));
#1529=CARTESIAN_POINT('',(-0.003429,0.00699,0.0159106503231526));
#1530=CARTESIAN_POINT('',(-0.003429,0.00699,0.0171623006463051));
#1531=CARTESIAN_POINT('',(-0.003429,0.00826,0.0171623006463051));
#1532=CARTESIAN_POINT('',(0.,0.00826,0.0171623006463051));
#1533=CARTESIAN_POINT('',(0.003429,0.00826,0.0171623006463051));
#1534=CARTESIAN_POINT('',(0.003429,0.00699,0.0171623006463051));
#1535=CARTESIAN_POINT('',(0.003429,0.0085,0.0171623006463051));
#1536=CARTESIAN_POINT('',(0.,0.0085,0.0171623006463051));
#1537=CARTESIAN_POINT('',(0.,0.00699,0.0171623006463051));
#1538=CARTESIAN_POINT('',(0.003429,0.00826,0.0159106503231526));
#1539=CARTESIAN_POINT('',(0.003429,0.0085,0.0159106503231526));
#1540=CARTESIAN_POINT('',(0.003429,0.00699,0.0159106503231526));
#1541=CARTESIAN_POINT('',(0.,0.00826,0.0171623006463051));
#1542=CARTESIAN_POINT('',(0.,0.0085,0.0171623006463051));
#1543=CARTESIAN_POINT('',(0.,0.0085,0.0186863006463051));
#1544=CARTESIAN_POINT('',(0.,0.00699,0.0171623006463051));
#1545=CARTESIAN_POINT('',(0.,0.00699,0.0186863006463051));
#1546=CARTESIAN_POINT('',(0.,0.000285,-0.010741));
#1547=CARTESIAN_POINT('',(0.00352518463273585,0.000285,-0.010741));
#1548=CARTESIAN_POINT('',(-0.00352518463273585,0.000285,0.014659));
#1549=CARTESIAN_POINT('',(0.004445,0.002825,-0.010741));
#1550=CARTESIAN_POINT('',(0.004445,0.00120481536726415,-0.010741));
#1551=CARTESIAN_POINT('',(0.004445,0.00444518463273585,0.012754));
#1552=CARTESIAN_POINT('',(0.,0.005365,-0.010741));
#1553=CARTESIAN_POINT('',(0.00352518463273585,0.005365,0.014659));
#1554=CARTESIAN_POINT('',(-0.00352518463273585,0.005365,-0.010741));
#1555=CARTESIAN_POINT('',(-0.004445,0.002825,-0.010741));
#1556=CARTESIAN_POINT('',(-0.004445,0.00120481536726415,0.012754));
#1557=CARTESIAN_POINT('',(-0.004445,0.00444518463273585,-0.010741));
#1558=CARTESIAN_POINT('',(0.00352518463273585,0.00120481536726415,-0.010741));
#1559=CARTESIAN_POINT('',(0.00352518463273585,0.00444518463273585,-0.010741));
#1560=CARTESIAN_POINT('',(-0.00352518463273585,0.00120481536726415,-0.010741));
#1561=CARTESIAN_POINT('',(-0.00352518463273585,0.00444518463273585,-0.010741));
#1562=CARTESIAN_POINT('',(0.,0.0085,0.00525));
#1563=CARTESIAN_POINT('',(0.,0.,0.));
#1564=CARTESIAN_POINT('',(0.,0.,0.003302));
#1565=CARTESIAN_POINT('',(0.,0.,0.));
#1566=CARTESIAN_POINT('',(0.,-0.0018,-0.0065));
#1567=CARTESIAN_POINT('',(-0.00889286026358604,-0.0018,-0.006377));
#1568=CARTESIAN_POINT('',(-0.00889286026358604,-0.0018,0.));
#1569=CARTESIAN_POINT('',(0.00800386026358604,-0.0018,0.));
#1570=CARTESIAN_POINT('',(0.00889286026358604,-0.0018,0.));
#1571=CARTESIAN_POINT('',(0.00889286026358604,-0.0018,-0.006377));
#1572=CARTESIAN_POINT('',(0.00889286026358604,-0.000468,-0.006377));
#1573=CARTESIAN_POINT('',(0.00889286026358604,-0.000468,0.));
#1574=CARTESIAN_POINT('',(0.00889286026358604,-0.000468,0.));
#1575=CARTESIAN_POINT('',(0.00889286026358604,-0.000468,-0.006377));
#1576=CARTESIAN_POINT('',(0.00800386026358604,-0.000468,0.));
#1577=CARTESIAN_POINT('',(-0.00889286026358604,-0.000468,0.));
#1578=CARTESIAN_POINT('',(-0.00889286026358604,-0.000468,0.));
#1579=CARTESIAN_POINT('',(0.,-0.000468,0.));
#1580=CARTESIAN_POINT('',(0.,-0.000468,0.));
#1581=CARTESIAN_POINT('',(-0.00889286026358604,-0.000468,-0.006377));
#1582=CARTESIAN_POINT('',(-0.00889286026358604,-0.000468,-0.006377));
#1583=CARTESIAN_POINT('',(-3.46944695195361E-18,-0.000468,0.003302));
#1584=CARTESIAN_POINT('',(-0.00711486026358604,-0.000468,0.003302));
#1585=CARTESIAN_POINT('',(-0.00711486026358604,-0.000468,0.003302));
#1586=CARTESIAN_POINT('',(-0.00711486026358604,-0.0025,0.003302));
#1587=CARTESIAN_POINT('',(-3.46944695195361E-18,-0.0025,0.003302));
#1588=CARTESIAN_POINT('',(0.00711486026358604,-0.0025,0.003302));
#1589=CARTESIAN_POINT('',(0.00711486026358604,-0.000468,0.003302));
#1590=CARTESIAN_POINT('',(0.00711486026358604,-0.000468,0.003302));
#1591=CARTESIAN_POINT('',(0.,-0.000468,0.003302));
#1592=CARTESIAN_POINT('',(0.,-0.000468,0.003302));
#1593=CARTESIAN_POINT('',(0.00711486026358604,-0.000468,0.008028));
#1594=CARTESIAN_POINT('',(0.00711486026358604,-0.0025,0.008028));
#1595=CARTESIAN_POINT('',(0.00711486026358604,-0.000468,0.008028));
#1596=CARTESIAN_POINT('',(0.,-0.000468,0.));
#1597=CARTESIAN_POINT('',(0.,-0.000468,0.));
#1598=CARTESIAN_POINT('',(0.,-0.000468,0.));
#1599=CARTESIAN_POINT('',(0.,-0.000468,0.));
#1600=CARTESIAN_POINT('',(-0.00711486026358605,-0.000468,0.008028));
#1601=CARTESIAN_POINT('',(-0.00711486026358605,-0.000468,0.008028));
#1602=CARTESIAN_POINT('',(-0.00711486026358605,-0.0025,0.008028));
#1603=CARTESIAN_POINT('',(0.,-0.0025,0.));
#1604=CARTESIAN_POINT('',(0.,0.00699,0.));
#1605=CARTESIAN_POINT('',(0.,0.00699,0.));
#1606=MECHANICAL_DESIGN_GEOMETRIC_PRESENTATION_REPRESENTATION('',(#967),#1607);
#1607=(
GEOMETRIC_REPRESENTATION_CONTEXT(3)
GLOBAL_UNCERTAINTY_ASSIGNED_CONTEXT((#1608))
GLOBAL_UNIT_ASSIGNED_CONTEXT((#1611,#1610,#1609))
REPRESENTATION_CONTEXT('Part 3','TOP_LEVEL_ASSEMBLY_PART')
);
#1608=UNCERTAINTY_MEASURE_WITH_UNIT(LENGTH_MEASURE(1.E-08),#1611,'DISTANCE_ACCURACY_VALUE','Maximum Tolerance applied to model');
#1609=(
NAMED_UNIT(*)
SI_UNIT($,.STERADIAN.)
SOLID_ANGLE_UNIT()
);
#1610=(
NAMED_UNIT(*)
PLANE_ANGLE_UNIT()
SI_UNIT($,.RADIAN.)
);
#1611=(
LENGTH_UNIT()
NAMED_UNIT(*)
SI_UNIT($,.METRE.)
);
#1612=PRODUCT_DEFINITION_SHAPE('','',#1613);
#1613=PRODUCT_DEFINITION('','',#1615,#1614);
#1614=PRODUCT_DEFINITION_CONTEXT('',#1621,'design');
#1615=PRODUCT_DEFINITION_FORMATION_WITH_SPECIFIED_SOURCE('','',#1617,.NOT_KNOWN.);
#1616=PRODUCT_RELATED_PRODUCT_CATEGORY('','',(#1617));
#1617=PRODUCT('Part 3','Part 3','Part 3',(#1619));
#1618=PRODUCT_CATEGORY('','');
#1619=PRODUCT_CONTEXT('',#1621,'mechanical');
#1620=APPLICATION_PROTOCOL_DEFINITION('international standard','ap242_managed_model_based_3d_engineering',2020,#1621);
#1621=APPLICATION_CONTEXT('managed model based 3d engineering');
ENDSEC;
END-ISO-10303-21;
