ISO-10303-21;
HEADER;
/*Generated by software containing ST-Developer
 * from STEP Tools, Inc. (www.steptools.com) 
 */
/*OPTION: using custom renumber hook */
/*description */
/*implementation_level */
FILE_DESCRIPTION(('STEP AP242 Edition 2','STEP AP242 Edition 2''CAx-IF Rec.Pracs.---Representation and Presentation of Product Manufa
cturing Information (PMI)---4.0---2014-10-13','STEP AP242 Edition 2''CAx-IF Rec.Pracs.---Representation and Presentation of Product Manufa
cturing Information (PMI)---4.0---2014-10-13''CAx-IF Rec.Pracs.---3D Tessellated Geometry---0.4---2014-09-14','STEP AP242 Edition 2''CAx-IF Rec.Pracs.---Representation and Presentation of Product Manufa
cturing Information (PMI)---4.0---2014-10-13''CAx-IF Rec.Pracs.---3D Tessellated Geometry---0.4---2014-09-14''2;1','STEP AP242 Edition 2''CAx-IF Rec.Pracs.---Representation and Presentation of Product Manufa
cturing Information (PMI)---4.0---2014-10-13''CAx-IF Rec.Pracs.---3D Tessellated Geometry---0.4---2014-09-14''2;1''CAx-IF Rec.Pracs.---User Defined Attributes---1.5---2016-08-15'),'2;1');
/*name */
/*time_stamp */
/*author */
/*organization */
/*preprocessor_version */
/*originating_system */
/*authorisation */
FILE_NAME('/vol/tmp/translate-10835130476442757642/T2-001-V1.2(3D) - Part 3.step','2026-03-19T16:59:51',(''),(''),'ST-DEVELOPER v20','ONSHAPE BY PTC INC, 1.212','  ');
FILE_SCHEMA(('AP242_MANAGED_MODEL_BASED_3D_ENGINEERING_MIM_LF { 1 0 10303 442 3 1 4 }'));
ENDSEC;
DATA;
#10=SHAPE_REPRESENTATION_RELATIONSHIP('','',#711,#11);
#11=ADVANCED_BREP_SHAPE_REPRESENTATION('',(#709),#1163);
#12=CYLINDRICAL_SURFACE('',#720,0.003659);
#13=CYLINDRICAL_SURFACE('',#724,0.003659);
#14=CYLINDRICAL_SURFACE('',#728,0.003659);
#15=CYLINDRICAL_SURFACE('',#732,0.003659);
#16=CYLINDRICAL_SURFACE('',#744,0.001754);
#17=CYLINDRICAL_SURFACE('',#747,0.001754);
#18=CYLINDRICAL_SURFACE('',#749,0.001754);
#19=CYLINDRICAL_SURFACE('',#751,0.001754);
#20=CYLINDRICAL_SURFACE('',#763,0.001524);
#21=CYLINDRICAL_SURFACE('',#765,0.003429);
#22=CIRCLE('',#715,0.001754);
#23=CIRCLE('',#717,0.001754);
#24=CIRCLE('',#719,0.001754);
#25=CIRCLE('',#721,0.003659);
#26=CIRCLE('',#722,0.003659);
#27=CIRCLE('',#725,0.003659);
#28=CIRCLE('',#726,0.003659);
#29=CIRCLE('',#729,0.003659);
#30=CIRCLE('',#730,0.003659);
#31=CIRCLE('',#733,0.003659);
#32=CIRCLE('',#734,0.003659);
#33=CIRCLE('',#737,0.001754);
#34=CIRCLE('',#738,0.001754);
#35=CIRCLE('',#739,0.001754);
#36=CIRCLE('',#740,0.001754);
#37=CIRCLE('',#741,0.003429);
#38=CIRCLE('',#742,0.001524);
#39=CIRCLE('',#745,0.001754);
#40=CIRCLE('',#764,0.001524);
#41=CIRCLE('',#766,0.003429);
#42=ORIENTED_EDGE('',*,*,#238,.F.);
#43=ORIENTED_EDGE('',*,*,#239,.T.);
#44=ORIENTED_EDGE('',*,*,#240,.F.);
#45=ORIENTED_EDGE('',*,*,#241,.F.);
#46=ORIENTED_EDGE('',*,*,#242,.F.);
#47=ORIENTED_EDGE('',*,*,#243,.T.);
#48=ORIENTED_EDGE('',*,*,#244,.F.);
#49=ORIENTED_EDGE('',*,*,#245,.F.);
#50=ORIENTED_EDGE('',*,*,#246,.F.);
#51=ORIENTED_EDGE('',*,*,#247,.F.);
#52=ORIENTED_EDGE('',*,*,#248,.F.);
#53=ORIENTED_EDGE('',*,*,#249,.F.);
#54=ORIENTED_EDGE('',*,*,#250,.F.);
#55=ORIENTED_EDGE('',*,*,#251,.F.);
#56=ORIENTED_EDGE('',*,*,#252,.F.);
#57=ORIENTED_EDGE('',*,*,#253,.T.);
#58=ORIENTED_EDGE('',*,*,#254,.F.);
#59=ORIENTED_EDGE('',*,*,#255,.F.);
#60=ORIENTED_EDGE('',*,*,#256,.F.);
#61=ORIENTED_EDGE('',*,*,#257,.T.);
#62=ORIENTED_EDGE('',*,*,#258,.F.);
#63=ORIENTED_EDGE('',*,*,#259,.F.);
#64=ORIENTED_EDGE('',*,*,#260,.T.);
#65=ORIENTED_EDGE('',*,*,#261,.T.);
#66=ORIENTED_EDGE('',*,*,#262,.F.);
#67=ORIENTED_EDGE('',*,*,#263,.F.);
#68=ORIENTED_EDGE('',*,*,#258,.T.);
#69=ORIENTED_EDGE('',*,*,#264,.T.);
#70=ORIENTED_EDGE('',*,*,#265,.F.);
#71=ORIENTED_EDGE('',*,*,#266,.F.);
#72=ORIENTED_EDGE('',*,*,#262,.T.);
#73=ORIENTED_EDGE('',*,*,#267,.T.);
#74=ORIENTED_EDGE('',*,*,#268,.F.);
#75=ORIENTED_EDGE('',*,*,#269,.F.);
#76=ORIENTED_EDGE('',*,*,#265,.T.);
#77=ORIENTED_EDGE('',*,*,#270,.T.);
#78=ORIENTED_EDGE('',*,*,#271,.F.);
#79=ORIENTED_EDGE('',*,*,#272,.F.);
#80=ORIENTED_EDGE('',*,*,#268,.T.);
#81=ORIENTED_EDGE('',*,*,#273,.T.);
#82=ORIENTED_EDGE('',*,*,#274,.T.);
#83=ORIENTED_EDGE('',*,*,#275,.F.);
#84=ORIENTED_EDGE('',*,*,#271,.T.);
#85=ORIENTED_EDGE('',*,*,#276,.T.);
#86=ORIENTED_EDGE('',*,*,#277,.F.);
#87=ORIENTED_EDGE('',*,*,#278,.F.);
#88=ORIENTED_EDGE('',*,*,#240,.T.);
#89=ORIENTED_EDGE('',*,*,#279,.T.);
#90=ORIENTED_EDGE('',*,*,#260,.F.);
#91=ORIENTED_EDGE('',*,*,#280,.F.);
#92=ORIENTED_EDGE('',*,*,#277,.T.);
#93=ORIENTED_EDGE('',*,*,#281,.T.);
#94=ORIENTED_EDGE('',*,*,#282,.T.);
#95=ORIENTED_EDGE('',*,*,#283,.T.);
#96=ORIENTED_EDGE('',*,*,#284,.T.);
#97=ORIENTED_EDGE('',*,*,#285,.T.);
#98=ORIENTED_EDGE('',*,*,#286,.T.);
#99=ORIENTED_EDGE('',*,*,#287,.T.);
#100=ORIENTED_EDGE('',*,*,#288,.T.);
#101=ORIENTED_EDGE('',*,*,#289,.T.);
#102=ORIENTED_EDGE('',*,*,#290,.F.);
#103=ORIENTED_EDGE('',*,*,#291,.F.);
#104=ORIENTED_EDGE('',*,*,#292,.T.);
#105=ORIENTED_EDGE('',*,*,#257,.F.);
#106=ORIENTED_EDGE('',*,*,#279,.F.);
#107=ORIENTED_EDGE('',*,*,#276,.F.);
#108=ORIENTED_EDGE('',*,*,#239,.F.);
#109=ORIENTED_EDGE('',*,*,#293,.T.);
#110=ORIENTED_EDGE('',*,*,#294,.T.);
#111=ORIENTED_EDGE('',*,*,#295,.T.);
#112=ORIENTED_EDGE('',*,*,#273,.F.);
#113=ORIENTED_EDGE('',*,*,#270,.F.);
#114=ORIENTED_EDGE('',*,*,#267,.F.);
#115=ORIENTED_EDGE('',*,*,#264,.F.);
#116=ORIENTED_EDGE('',*,*,#261,.F.);
#117=ORIENTED_EDGE('',*,*,#296,.F.);
#118=ORIENTED_EDGE('',*,*,#292,.F.);
#119=ORIENTED_EDGE('',*,*,#297,.F.);
#120=ORIENTED_EDGE('',*,*,#298,.T.);
#121=ORIENTED_EDGE('',*,*,#299,.T.);
#122=ORIENTED_EDGE('',*,*,#281,.F.);
#123=ORIENTED_EDGE('',*,*,#299,.F.);
#124=ORIENTED_EDGE('',*,*,#300,.T.);
#125=ORIENTED_EDGE('',*,*,#301,.T.);
#126=ORIENTED_EDGE('',*,*,#282,.F.);
#127=ORIENTED_EDGE('',*,*,#301,.F.);
#128=ORIENTED_EDGE('',*,*,#302,.T.);
#129=ORIENTED_EDGE('',*,*,#303,.F.);
#130=ORIENTED_EDGE('',*,*,#304,.T.);
#131=ORIENTED_EDGE('',*,*,#305,.T.);
#132=ORIENTED_EDGE('',*,*,#256,.T.);
#133=ORIENTED_EDGE('',*,*,#306,.T.);
#134=ORIENTED_EDGE('',*,*,#283,.F.);
#135=ORIENTED_EDGE('',*,*,#306,.F.);
#136=ORIENTED_EDGE('',*,*,#255,.T.);
#137=ORIENTED_EDGE('',*,*,#307,.T.);
#138=ORIENTED_EDGE('',*,*,#284,.F.);
#139=ORIENTED_EDGE('',*,*,#307,.F.);
#140=ORIENTED_EDGE('',*,*,#254,.T.);
#141=ORIENTED_EDGE('',*,*,#308,.T.);
#142=ORIENTED_EDGE('',*,*,#309,.T.);
#143=ORIENTED_EDGE('',*,*,#310,.F.);
#144=ORIENTED_EDGE('',*,*,#250,.T.);
#145=ORIENTED_EDGE('',*,*,#311,.T.);
#146=ORIENTED_EDGE('',*,*,#285,.F.);
#147=ORIENTED_EDGE('',*,*,#311,.F.);
#148=ORIENTED_EDGE('',*,*,#249,.T.);
#149=ORIENTED_EDGE('',*,*,#312,.T.);
#150=ORIENTED_EDGE('',*,*,#286,.F.);
#151=ORIENTED_EDGE('',*,*,#312,.F.);
#152=ORIENTED_EDGE('',*,*,#248,.T.);
#153=ORIENTED_EDGE('',*,*,#313,.F.);
#154=ORIENTED_EDGE('',*,*,#314,.T.);
#155=ORIENTED_EDGE('',*,*,#315,.T.);
#156=ORIENTED_EDGE('',*,*,#242,.T.);
#157=ORIENTED_EDGE('',*,*,#316,.T.);
#158=ORIENTED_EDGE('',*,*,#287,.F.);
#159=ORIENTED_EDGE('',*,*,#316,.F.);
#160=ORIENTED_EDGE('',*,*,#246,.T.);
#161=ORIENTED_EDGE('',*,*,#317,.T.);
#162=ORIENTED_EDGE('',*,*,#288,.F.);
#163=ORIENTED_EDGE('',*,*,#317,.F.);
#164=ORIENTED_EDGE('',*,*,#245,.T.);
#165=ORIENTED_EDGE('',*,*,#318,.T.);
#166=ORIENTED_EDGE('',*,*,#289,.F.);
#167=ORIENTED_EDGE('',*,*,#318,.F.);
#168=ORIENTED_EDGE('',*,*,#244,.T.);
#169=ORIENTED_EDGE('',*,*,#319,.T.);
#170=ORIENTED_EDGE('',*,*,#320,.T.);
#171=ORIENTED_EDGE('',*,*,#290,.T.);
#172=ORIENTED_EDGE('',*,*,#319,.F.);
#173=ORIENTED_EDGE('',*,*,#243,.F.);
#174=ORIENTED_EDGE('',*,*,#315,.F.);
#175=ORIENTED_EDGE('',*,*,#321,.T.);
#176=ORIENTED_EDGE('',*,*,#303,.T.);
#177=ORIENTED_EDGE('',*,*,#322,.F.);
#178=ORIENTED_EDGE('',*,*,#297,.T.);
#179=ORIENTED_EDGE('',*,*,#291,.T.);
#180=ORIENTED_EDGE('',*,*,#320,.F.);
#181=ORIENTED_EDGE('',*,*,#323,.F.);
#182=ORIENTED_EDGE('',*,*,#324,.T.);
#183=ORIENTED_EDGE('',*,*,#325,.T.);
#184=ORIENTED_EDGE('',*,*,#308,.F.);
#185=ORIENTED_EDGE('',*,*,#253,.F.);
#186=ORIENTED_EDGE('',*,*,#326,.F.);
#187=ORIENTED_EDGE('',*,*,#324,.F.);
#188=ORIENTED_EDGE('',*,*,#252,.T.);
#189=ORIENTED_EDGE('',*,*,#305,.F.);
#190=ORIENTED_EDGE('',*,*,#327,.F.);
#191=ORIENTED_EDGE('',*,*,#313,.T.);
#192=ORIENTED_EDGE('',*,*,#247,.T.);
#193=ORIENTED_EDGE('',*,*,#328,.T.);
#194=ORIENTED_EDGE('',*,*,#329,.F.);
#195=ORIENTED_EDGE('',*,*,#328,.F.);
#196=ORIENTED_EDGE('',*,*,#251,.T.);
#197=ORIENTED_EDGE('',*,*,#310,.T.);
#198=ORIENTED_EDGE('',*,*,#323,.T.);
#199=ORIENTED_EDGE('',*,*,#322,.T.);
#200=ORIENTED_EDGE('',*,*,#302,.F.);
#201=ORIENTED_EDGE('',*,*,#300,.F.);
#202=ORIENTED_EDGE('',*,*,#298,.F.);
#203=ORIENTED_EDGE('',*,*,#321,.F.);
#204=ORIENTED_EDGE('',*,*,#314,.F.);
#205=ORIENTED_EDGE('',*,*,#327,.T.);
#206=ORIENTED_EDGE('',*,*,#304,.F.);
#207=ORIENTED_EDGE('',*,*,#325,.F.);
#208=ORIENTED_EDGE('',*,*,#326,.T.);
#209=ORIENTED_EDGE('',*,*,#329,.T.);
#210=ORIENTED_EDGE('',*,*,#309,.F.);
#211=ORIENTED_EDGE('',*,*,#293,.F.);
#212=ORIENTED_EDGE('',*,*,#238,.T.);
#213=ORIENTED_EDGE('',*,*,#330,.F.);
#214=ORIENTED_EDGE('',*,*,#331,.F.);
#215=ORIENTED_EDGE('',*,*,#296,.T.);
#216=ORIENTED_EDGE('',*,*,#332,.T.);
#217=ORIENTED_EDGE('',*,*,#294,.F.);
#218=ORIENTED_EDGE('',*,*,#331,.T.);
#219=ORIENTED_EDGE('',*,*,#333,.F.);
#220=ORIENTED_EDGE('',*,*,#334,.F.);
#221=ORIENTED_EDGE('',*,*,#295,.F.);
#222=ORIENTED_EDGE('',*,*,#334,.T.);
#223=ORIENTED_EDGE('',*,*,#335,.F.);
#224=ORIENTED_EDGE('',*,*,#274,.F.);
#225=ORIENTED_EDGE('',*,*,#259,.T.);
#226=ORIENTED_EDGE('',*,*,#263,.T.);
#227=ORIENTED_EDGE('',*,*,#266,.T.);
#228=ORIENTED_EDGE('',*,*,#269,.T.);
#229=ORIENTED_EDGE('',*,*,#272,.T.);
#230=ORIENTED_EDGE('',*,*,#275,.T.);
#231=ORIENTED_EDGE('',*,*,#335,.T.);
#232=ORIENTED_EDGE('',*,*,#333,.T.);
#233=ORIENTED_EDGE('',*,*,#330,.T.);
#234=ORIENTED_EDGE('',*,*,#241,.T.);
#235=ORIENTED_EDGE('',*,*,#278,.T.);
#236=ORIENTED_EDGE('',*,*,#280,.T.);
#237=ORIENTED_EDGE('',*,*,#332,.F.);
#238=EDGE_CURVE('',#336,#337,#402,.T.);
#239=EDGE_CURVE('',#336,#338,#403,.T.);
#240=EDGE_CURVE('',#339,#338,#404,.T.);
#241=EDGE_CURVE('',#337,#339,#405,.T.);
#242=EDGE_CURVE('',#340,#341,#406,.T.);
#243=EDGE_CURVE('',#340,#342,#407,.T.);
#244=EDGE_CURVE('',#343,#342,#408,.T.);
#245=EDGE_CURVE('',#344,#343,#409,.T.);
#246=EDGE_CURVE('',#341,#344,#22,.T.);
#247=EDGE_CURVE('',#345,#346,#410,.T.);
#248=EDGE_CURVE('',#347,#345,#411,.T.);
#249=EDGE_CURVE('',#348,#347,#23,.T.);
#250=EDGE_CURVE('',#349,#348,#412,.T.);
#251=EDGE_CURVE('',#346,#349,#413,.T.);
#252=EDGE_CURVE('',#350,#351,#414,.T.);
#253=EDGE_CURVE('',#350,#352,#415,.T.);
#254=EDGE_CURVE('',#353,#352,#416,.T.);
#255=EDGE_CURVE('',#354,#353,#24,.T.);
#256=EDGE_CURVE('',#351,#354,#417,.T.);
#257=EDGE_CURVE('',#355,#356,#25,.T.);
#258=EDGE_CURVE('',#357,#356,#418,.T.);
#259=EDGE_CURVE('',#358,#357,#26,.T.);
#260=EDGE_CURVE('',#358,#355,#419,.T.);
#261=EDGE_CURVE('',#356,#359,#420,.T.);
#262=EDGE_CURVE('',#360,#359,#421,.T.);
#263=EDGE_CURVE('',#357,#360,#422,.T.);
#264=EDGE_CURVE('',#359,#361,#27,.T.);
#265=EDGE_CURVE('',#362,#361,#423,.T.);
#266=EDGE_CURVE('',#360,#362,#28,.T.);
#267=EDGE_CURVE('',#361,#363,#424,.T.);
#268=EDGE_CURVE('',#364,#363,#425,.T.);
#269=EDGE_CURVE('',#362,#364,#426,.T.);
#270=EDGE_CURVE('',#363,#365,#29,.T.);
#271=EDGE_CURVE('',#366,#365,#427,.T.);
#272=EDGE_CURVE('',#364,#366,#30,.T.);
#273=EDGE_CURVE('',#365,#367,#428,.T.);
#274=EDGE_CURVE('',#367,#368,#429,.T.);
#275=EDGE_CURVE('',#366,#368,#430,.T.);
#276=EDGE_CURVE('',#338,#369,#31,.T.);
#277=EDGE_CURVE('',#370,#369,#431,.T.);
#278=EDGE_CURVE('',#339,#370,#32,.T.);
#279=EDGE_CURVE('',#369,#355,#432,.T.);
#280=EDGE_CURVE('',#370,#358,#433,.T.);
#281=EDGE_CURVE('',#371,#372,#33,.T.);
#282=EDGE_CURVE('',#372,#373,#434,.T.);
#283=EDGE_CURVE('',#373,#374,#34,.T.);
#284=EDGE_CURVE('',#374,#375,#435,.T.);
#285=EDGE_CURVE('',#375,#376,#35,.T.);
#286=EDGE_CURVE('',#376,#377,#436,.T.);
#287=EDGE_CURVE('',#377,#378,#36,.T.);
#288=EDGE_CURVE('',#378,#379,#437,.T.);
#289=EDGE_CURVE('',#379,#380,#438,.T.);
#290=EDGE_CURVE('',#381,#380,#439,.T.);
#291=EDGE_CURVE('',#382,#381,#440,.T.);
#292=EDGE_CURVE('',#382,#371,#441,.T.);
#293=EDGE_CURVE('',#336,#383,#442,.T.);
#294=EDGE_CURVE('',#383,#384,#37,.F.);
#295=EDGE_CURVE('',#384,#367,#443,.T.);
#296=EDGE_CURVE('',#385,#385,#38,.F.);
#297=EDGE_CURVE('',#386,#382,#444,.T.);
#298=EDGE_CURVE('',#386,#387,#445,.T.);
#299=EDGE_CURVE('',#387,#371,#446,.T.);
#300=EDGE_CURVE('',#387,#388,#39,.T.);
#301=EDGE_CURVE('',#388,#372,#447,.T.);
#302=EDGE_CURVE('',#388,#389,#448,.T.);
#303=EDGE_CURVE('',#390,#389,#449,.T.);
#304=EDGE_CURVE('',#390,#391,#450,.T.);
#305=EDGE_CURVE('',#391,#351,#451,.T.);
#306=EDGE_CURVE('',#354,#373,#452,.T.);
#307=EDGE_CURVE('',#353,#374,#453,.T.);
#308=EDGE_CURVE('',#352,#392,#454,.T.);
#309=EDGE_CURVE('',#392,#393,#455,.T.);
#310=EDGE_CURVE('',#349,#393,#456,.T.);
#311=EDGE_CURVE('',#348,#375,#457,.T.);
#312=EDGE_CURVE('',#347,#376,#458,.T.);
#313=EDGE_CURVE('',#394,#345,#459,.T.);
#314=EDGE_CURVE('',#394,#395,#460,.T.);
#315=EDGE_CURVE('',#395,#340,#461,.T.);
#316=EDGE_CURVE('',#341,#377,#462,.T.);
#317=EDGE_CURVE('',#344,#378,#463,.T.);
#318=EDGE_CURVE('',#343,#379,#464,.T.);
#319=EDGE_CURVE('',#342,#380,#465,.T.);
#320=EDGE_CURVE('',#396,#381,#466,.T.);
#321=EDGE_CURVE('',#395,#390,#467,.T.);
#322=EDGE_CURVE('',#396,#389,#468,.T.);
#323=EDGE_CURVE('',#386,#396,#469,.T.);
#324=EDGE_CURVE('',#350,#397,#470,.T.);
#325=EDGE_CURVE('',#397,#392,#471,.T.);
#326=EDGE_CURVE('',#397,#398,#472,.T.);
#327=EDGE_CURVE('',#394,#391,#473,.T.);
#328=EDGE_CURVE('',#346,#398,#474,.T.);
#329=EDGE_CURVE('',#398,#393,#475,.T.);
#330=EDGE_CURVE('',#399,#337,#476,.T.);
#331=EDGE_CURVE('',#383,#399,#477,.T.);
#332=EDGE_CURVE('',#400,#400,#40,.T.);
#333=EDGE_CURVE('',#401,#399,#41,.T.);
#334=EDGE_CURVE('',#384,#401,#478,.T.);
#335=EDGE_CURVE('',#368,#401,#479,.T.);
#336=VERTEX_POINT('',#964);
#337=VERTEX_POINT('',#965);
#338=VERTEX_POINT('',#967);
#339=VERTEX_POINT('',#969);
#340=VERTEX_POINT('',#973);
#341=VERTEX_POINT('',#974);
#342=VERTEX_POINT('',#976);
#343=VERTEX_POINT('',#978);
#344=VERTEX_POINT('',#980);
#345=VERTEX_POINT('',#984);
#346=VERTEX_POINT('',#985);
#347=VERTEX_POINT('',#987);
#348=VERTEX_POINT('',#989);
#349=VERTEX_POINT('',#991);
#350=VERTEX_POINT('',#995);
#351=VERTEX_POINT('',#996);
#352=VERTEX_POINT('',#998);
#353=VERTEX_POINT('',#1000);
#354=VERTEX_POINT('',#1002);
#355=VERTEX_POINT('',#1006);
#356=VERTEX_POINT('',#1007);
#357=VERTEX_POINT('',#1009);
#358=VERTEX_POINT('',#1011);
#359=VERTEX_POINT('',#1015);
#360=VERTEX_POINT('',#1017);
#361=VERTEX_POINT('',#1021);
#362=VERTEX_POINT('',#1023);
#363=VERTEX_POINT('',#1027);
#364=VERTEX_POINT('',#1029);
#365=VERTEX_POINT('',#1033);
#366=VERTEX_POINT('',#1035);
#367=VERTEX_POINT('',#1039);
#368=VERTEX_POINT('',#1041);
#369=VERTEX_POINT('',#1045);
#370=VERTEX_POINT('',#1047);
#371=VERTEX_POINT('',#1054);
#372=VERTEX_POINT('',#1055);
#373=VERTEX_POINT('',#1057);
#374=VERTEX_POINT('',#1059);
#375=VERTEX_POINT('',#1061);
#376=VERTEX_POINT('',#1063);
#377=VERTEX_POINT('',#1065);
#378=VERTEX_POINT('',#1067);
#379=VERTEX_POINT('',#1069);
#380=VERTEX_POINT('',#1071);
#381=VERTEX_POINT('',#1073);
#382=VERTEX_POINT('',#1075);
#383=VERTEX_POINT('',#1078);
#384=VERTEX_POINT('',#1080);
#385=VERTEX_POINT('',#1083);
#386=VERTEX_POINT('',#1086);
#387=VERTEX_POINT('',#1088);
#388=VERTEX_POINT('',#1092);
#389=VERTEX_POINT('',#1096);
#390=VERTEX_POINT('',#1098);
#391=VERTEX_POINT('',#1100);
#392=VERTEX_POINT('',#1107);
#393=VERTEX_POINT('',#1109);
#394=VERTEX_POINT('',#1116);
#395=VERTEX_POINT('',#1118);
#396=VERTEX_POINT('',#1129);
#397=VERTEX_POINT('',#1136);
#398=VERTEX_POINT('',#1140);
#399=VERTEX_POINT('',#1150);
#400=VERTEX_POINT('',#1154);
#401=VERTEX_POINT('',#1157);
#402=LINE('',#963,#480);
#403=LINE('',#966,#481);
#404=LINE('',#968,#482);
#405=LINE('',#970,#483);
#406=LINE('',#972,#484);
#407=LINE('',#975,#485);
#408=LINE('',#977,#486);
#409=LINE('',#979,#487);
#410=LINE('',#983,#488);
#411=LINE('',#986,#489);
#412=LINE('',#990,#490);
#413=LINE('',#992,#491);
#414=LINE('',#994,#492);
#415=LINE('',#997,#493);
#416=LINE('',#999,#494);
#417=LINE('',#1003,#495);
#418=LINE('',#1008,#496);
#419=LINE('',#1012,#497);
#420=LINE('',#1014,#498);
#421=LINE('',#1016,#499);
#422=LINE('',#1018,#500);
#423=LINE('',#1022,#501);
#424=LINE('',#1026,#502);
#425=LINE('',#1028,#503);
#426=LINE('',#1030,#504);
#427=LINE('',#1034,#505);
#428=LINE('',#1038,#506);
#429=LINE('',#1040,#507);
#430=LINE('',#1042,#508);
#431=LINE('',#1046,#509);
#432=LINE('',#1050,#510);
#433=LINE('',#1051,#511);
#434=LINE('',#1056,#512);
#435=LINE('',#1060,#513);
#436=LINE('',#1064,#514);
#437=LINE('',#1068,#515);
#438=LINE('',#1070,#516);
#439=LINE('',#1072,#517);
#440=LINE('',#1074,#518);
#441=LINE('',#1076,#519);
#442=LINE('',#1077,#520);
#443=LINE('',#1081,#521);
#444=LINE('',#1085,#522);
#445=LINE('',#1087,#523);
#446=LINE('',#1089,#524);
#447=LINE('',#1093,#525);
#448=LINE('',#1095,#526);
#449=LINE('',#1097,#527);
#450=LINE('',#1099,#528);
#451=LINE('',#1101,#529);
#452=LINE('',#1102,#530);
#453=LINE('',#1104,#531);
#454=LINE('',#1106,#532);
#455=LINE('',#1108,#533);
#456=LINE('',#1110,#534);
#457=LINE('',#1111,#535);
#458=LINE('',#1113,#536);
#459=LINE('',#1115,#537);
#460=LINE('',#1117,#538);
#461=LINE('',#1119,#539);
#462=LINE('',#1120,#540);
#463=LINE('',#1122,#541);
#464=LINE('',#1124,#542);
#465=LINE('',#1126,#543);
#466=LINE('',#1128,#544);
#467=LINE('',#1130,#545);
#468=LINE('',#1131,#546);
#469=LINE('',#1133,#547);
#470=LINE('',#1135,#548);
#471=LINE('',#1137,#549);
#472=LINE('',#1139,#550);
#473=LINE('',#1141,#551);
#474=LINE('',#1142,#552);
#475=LINE('',#1144,#553);
#476=LINE('',#1149,#554);
#477=LINE('',#1151,#555);
#478=LINE('',#1158,#556);
#479=LINE('',#1160,#557);
#480=VECTOR('',#773,1.);
#481=VECTOR('',#774,1.);
#482=VECTOR('',#775,1.);
#483=VECTOR('',#776,1.);
#484=VECTOR('',#779,1.);
#485=VECTOR('',#780,1.);
#486=VECTOR('',#781,1.);
#487=VECTOR('',#782,1.);
#488=VECTOR('',#787,1.);
#489=VECTOR('',#788,1.);
#490=VECTOR('',#791,1.);
#491=VECTOR('',#792,1.);
#492=VECTOR('',#795,1.);
#493=VECTOR('',#796,1.);
#494=VECTOR('',#797,1.);
#495=VECTOR('',#800,1.);
#496=VECTOR('',#805,1.);
#497=VECTOR('',#808,1.);
#498=VECTOR('',#811,1.);
#499=VECTOR('',#812,1.);
#500=VECTOR('',#813,1.);
#501=VECTOR('',#818,1.);
#502=VECTOR('',#823,1.);
#503=VECTOR('',#824,1.);
#504=VECTOR('',#825,1.);
#505=VECTOR('',#830,1.);
#506=VECTOR('',#835,1.);
#507=VECTOR('',#836,1.);
#508=VECTOR('',#837,1.);
#509=VECTOR('',#842,1.);
#510=VECTOR('',#847,1.);
#511=VECTOR('',#848,1.);
#512=VECTOR('',#853,1.);
#513=VECTOR('',#856,1.);
#514=VECTOR('',#859,1.);
#515=VECTOR('',#862,1.);
#516=VECTOR('',#863,1.);
#517=VECTOR('',#864,1.);
#518=VECTOR('',#865,1.);
#519=VECTOR('',#866,1.);
#520=VECTOR('',#867,1.);
#521=VECTOR('',#870,1.);
#522=VECTOR('',#875,1.);
#523=VECTOR('',#876,1.);
#524=VECTOR('',#877,1.);
#525=VECTOR('',#882,1.);
#526=VECTOR('',#885,1.);
#527=VECTOR('',#886,1.);
#528=VECTOR('',#887,1.);
#529=VECTOR('',#888,1.);
#530=VECTOR('',#889,1.);
#531=VECTOR('',#892,1.);
#532=VECTOR('',#895,1.);
#533=VECTOR('',#896,1.);
#534=VECTOR('',#897,1.);
#535=VECTOR('',#898,1.);
#536=VECTOR('',#901,1.);
#537=VECTOR('',#904,1.);
#538=VECTOR('',#905,1.);
#539=VECTOR('',#906,1.);
#540=VECTOR('',#907,1.);
#541=VECTOR('',#910,1.);
#542=VECTOR('',#913,1.);
#543=VECTOR('',#916,1.);
#544=VECTOR('',#919,1.);
#545=VECTOR('',#920,1.);
#546=VECTOR('',#921,1.);
#547=VECTOR('',#924,1.);
#548=VECTOR('',#927,1.);
#549=VECTOR('',#928,1.);
#550=VECTOR('',#931,1.);
#551=VECTOR('',#932,1.);
#552=VECTOR('',#933,1.);
#553=VECTOR('',#936,1.);
#554=VECTOR('',#945,1.);
#555=VECTOR('',#946,1.);
#556=VECTOR('',#955,1.);
#557=VECTOR('',#958,1.);
#558=EDGE_LOOP('',(#42,#43,#44,#45));
#559=EDGE_LOOP('',(#46,#47,#48,#49,#50));
#560=EDGE_LOOP('',(#51,#52,#53,#54,#55));
#561=EDGE_LOOP('',(#56,#57,#58,#59,#60));
#562=EDGE_LOOP('',(#61,#62,#63,#64));
#563=EDGE_LOOP('',(#65,#66,#67,#68));
#564=EDGE_LOOP('',(#69,#70,#71,#72));
#565=EDGE_LOOP('',(#73,#74,#75,#76));
#566=EDGE_LOOP('',(#77,#78,#79,#80));
#567=EDGE_LOOP('',(#81,#82,#83,#84));
#568=EDGE_LOOP('',(#85,#86,#87,#88));
#569=EDGE_LOOP('',(#89,#90,#91,#92));
#570=EDGE_LOOP('',(#93,#94,#95,#96,#97,#98,#99,#100,#101,#102,#103,#104));
#571=EDGE_LOOP('',(#105,#106,#107,#108,#109,#110,#111,#112,#113,#114,#115,#116));
#572=EDGE_LOOP('',(#117));
#573=EDGE_LOOP('',(#118,#119,#120,#121));
#574=EDGE_LOOP('',(#122,#123,#124,#125));
#575=EDGE_LOOP('',(#126,#127,#128,#129,#130,#131,#132,#133));
#576=EDGE_LOOP('',(#134,#135,#136,#137));
#577=EDGE_LOOP('',(#138,#139,#140,#141,#142,#143,#144,#145));
#578=EDGE_LOOP('',(#146,#147,#148,#149));
#579=EDGE_LOOP('',(#150,#151,#152,#153,#154,#155,#156,#157));
#580=EDGE_LOOP('',(#158,#159,#160,#161));
#581=EDGE_LOOP('',(#162,#163,#164,#165));
#582=EDGE_LOOP('',(#166,#167,#168,#169));
#583=EDGE_LOOP('',(#170,#171,#172,#173,#174,#175,#176,#177));
#584=EDGE_LOOP('',(#178,#179,#180,#181));
#585=EDGE_LOOP('',(#182,#183,#184,#185));
#586=EDGE_LOOP('',(#186,#187,#188,#189,#190,#191,#192,#193));
#587=EDGE_LOOP('',(#194,#195,#196,#197));
#588=EDGE_LOOP('',(#198,#199,#200,#201,#202));
#589=EDGE_LOOP('',(#203,#204,#205,#206));
#590=EDGE_LOOP('',(#207,#208,#209,#210));
#591=EDGE_LOOP('',(#211,#212,#213,#214));
#592=EDGE_LOOP('',(#215));
#593=EDGE_LOOP('',(#216));
#594=EDGE_LOOP('',(#217,#218,#219,#220));
#595=EDGE_LOOP('',(#221,#222,#223,#224));
#596=EDGE_LOOP('',(#225,#226,#227,#228,#229,#230,#231,#232,#233,#234,#235,#236));
#597=EDGE_LOOP('',(#237));
#598=FACE_BOUND('',#558,.T.);
#599=FACE_BOUND('',#559,.T.);
#600=FACE_BOUND('',#560,.T.);
#601=FACE_BOUND('',#561,.T.);
#602=FACE_BOUND('',#562,.T.);
#603=FACE_BOUND('',#563,.T.);
#604=FACE_BOUND('',#564,.T.);
#605=FACE_BOUND('',#565,.T.);
#606=FACE_BOUND('',#566,.T.);
#607=FACE_BOUND('',#567,.T.);
#608=FACE_BOUND('',#568,.T.);
#609=FACE_BOUND('',#569,.T.);
#610=FACE_BOUND('',#570,.T.);
#611=FACE_BOUND('',#571,.T.);
#612=FACE_BOUND('',#572,.T.);
#613=FACE_BOUND('',#573,.T.);
#614=FACE_BOUND('',#574,.T.);
#615=FACE_BOUND('',#575,.T.);
#616=FACE_BOUND('',#576,.T.);
#617=FACE_BOUND('',#577,.T.);
#618=FACE_BOUND('',#578,.T.);
#619=FACE_BOUND('',#579,.T.);
#620=FACE_BOUND('',#580,.T.);
#621=FACE_BOUND('',#581,.T.);
#622=FACE_BOUND('',#582,.T.);
#623=FACE_BOUND('',#583,.T.);
#624=FACE_BOUND('',#584,.T.);
#625=FACE_BOUND('',#585,.T.);
#626=FACE_BOUND('',#586,.T.);
#627=FACE_BOUND('',#587,.T.);
#628=FACE_BOUND('',#588,.T.);
#629=FACE_BOUND('',#589,.T.);
#630=FACE_BOUND('',#590,.T.);
#631=FACE_BOUND('',#591,.T.);
#632=FACE_BOUND('',#592,.T.);
#633=FACE_BOUND('',#593,.T.);
#634=FACE_BOUND('',#594,.T.);
#635=FACE_BOUND('',#595,.T.);
#636=FACE_BOUND('',#596,.T.);
#637=FACE_BOUND('',#597,.T.);
#638=PLANE('',#713);
#639=PLANE('',#714);
#640=PLANE('',#716);
#641=PLANE('',#718);
#642=PLANE('',#723);
#643=PLANE('',#727);
#644=PLANE('',#731);
#645=PLANE('',#735);
#646=PLANE('',#736);
#647=PLANE('',#743);
#648=PLANE('',#746);
#649=PLANE('',#748);
#650=PLANE('',#750);
#651=PLANE('',#752);
#652=PLANE('',#753);
#653=PLANE('',#754);
#654=PLANE('',#755);
#655=PLANE('',#756);
#656=PLANE('',#757);
#657=PLANE('',#758);
#658=PLANE('',#759);
#659=PLANE('',#760);
#660=PLANE('',#761);
#661=PLANE('',#762);
#662=PLANE('',#767);
#663=PLANE('',#768);
#664=ADVANCED_FACE('',(#598),#638,.F.);
#665=ADVANCED_FACE('',(#599),#639,.F.);
#666=ADVANCED_FACE('',(#600),#640,.F.);
#667=ADVANCED_FACE('',(#601),#641,.F.);
#668=ADVANCED_FACE('',(#602),#12,.T.);
#669=ADVANCED_FACE('',(#603),#642,.F.);
#670=ADVANCED_FACE('',(#604),#13,.T.);
#671=ADVANCED_FACE('',(#605),#643,.F.);
#672=ADVANCED_FACE('',(#606),#14,.T.);
#673=ADVANCED_FACE('',(#607),#644,.F.);
#674=ADVANCED_FACE('',(#608),#15,.T.);
#675=ADVANCED_FACE('',(#609),#645,.F.);
#676=ADVANCED_FACE('',(#610,#611,#612),#646,.F.);
#677=ADVANCED_FACE('',(#613),#647,.T.);
#678=ADVANCED_FACE('',(#614),#16,.T.);
#679=ADVANCED_FACE('',(#615),#648,.T.);
#680=ADVANCED_FACE('',(#616),#17,.T.);
#681=ADVANCED_FACE('',(#617),#649,.T.);
#682=ADVANCED_FACE('',(#618),#18,.T.);
#683=ADVANCED_FACE('',(#619),#650,.T.);
#684=ADVANCED_FACE('',(#620),#19,.T.);
#685=ADVANCED_FACE('',(#621),#651,.T.);
#686=ADVANCED_FACE('',(#622),#652,.T.);
#687=ADVANCED_FACE('',(#623),#653,.F.);
#688=ADVANCED_FACE('',(#624),#654,.F.);
#689=ADVANCED_FACE('',(#625),#655,.F.);
#690=ADVANCED_FACE('',(#626),#656,.T.);
#691=ADVANCED_FACE('',(#627),#657,.T.);
#692=ADVANCED_FACE('',(#628),#658,.F.);
#693=ADVANCED_FACE('',(#629),#659,.T.);
#694=ADVANCED_FACE('',(#630),#660,.T.);
#695=ADVANCED_FACE('',(#631),#661,.T.);
#696=ADVANCED_FACE('',(#632,#633),#20,.F.);
#697=ADVANCED_FACE('',(#634),#21,.T.);
#698=ADVANCED_FACE('',(#635),#662,.T.);
#699=ADVANCED_FACE('',(#636,#637),#663,.T.);
#700=CLOSED_SHELL('',(#664,#665,#666,#667,#668,#669,#670,#671,#672,#673,#674,#675,#676,#677,#678,#679,#680,#681,#682,#683,#684,#685,#686,#687,#688,#689,#690,#691,#692,#693,#694,#695,#696,#697,#698,#699));
#701=STYLED_ITEM('',(#702),#709);
#702=PRESENTATION_STYLE_ASSIGNMENT((#703));
#703=SURFACE_STYLE_USAGE(.BOTH.,#704);
#704=SURFACE_SIDE_STYLE('',(#705));
#705=SURFACE_STYLE_FILL_AREA(#706);
#706=FILL_AREA_STYLE('',(#707));
#707=FILL_AREA_STYLE_COLOUR('',#708);
#708=COLOUR_RGB('',0.498039215686275,0.498039215686275,0.498039215686275);
#709=MANIFOLD_SOLID_BREP('Part 3',#700);
#710=SHAPE_DEFINITION_REPRESENTATION(#1168,#711);
#711=SHAPE_REPRESENTATION('Part 3',(#712),#1163);
#712=AXIS2_PLACEMENT_3D('',#961,#769,#770);
#713=AXIS2_PLACEMENT_3D('',#962,#771,#772);
#714=AXIS2_PLACEMENT_3D('',#971,#777,#778);
#715=AXIS2_PLACEMENT_3D('',#981,#783,#784);
#716=AXIS2_PLACEMENT_3D('',#982,#785,#786);
#717=AXIS2_PLACEMENT_3D('',#988,#789,#790);
#718=AXIS2_PLACEMENT_3D('',#993,#793,#794);
#719=AXIS2_PLACEMENT_3D('',#1001,#798,#799);
#720=AXIS2_PLACEMENT_3D('',#1004,#801,#802);
#721=AXIS2_PLACEMENT_3D('',#1005,#803,#804);
#722=AXIS2_PLACEMENT_3D('',#1010,#806,#807);
#723=AXIS2_PLACEMENT_3D('',#1013,#809,#810);
#724=AXIS2_PLACEMENT_3D('',#1019,#814,#815);
#725=AXIS2_PLACEMENT_3D('',#1020,#816,#817);
#726=AXIS2_PLACEMENT_3D('',#1024,#819,#820);
#727=AXIS2_PLACEMENT_3D('',#1025,#821,#822);
#728=AXIS2_PLACEMENT_3D('',#1031,#826,#827);
#729=AXIS2_PLACEMENT_3D('',#1032,#828,#829);
#730=AXIS2_PLACEMENT_3D('',#1036,#831,#832);
#731=AXIS2_PLACEMENT_3D('',#1037,#833,#834);
#732=AXIS2_PLACEMENT_3D('',#1043,#838,#839);
#733=AXIS2_PLACEMENT_3D('',#1044,#840,#841);
#734=AXIS2_PLACEMENT_3D('',#1048,#843,#844);
#735=AXIS2_PLACEMENT_3D('',#1049,#845,#846);
#736=AXIS2_PLACEMENT_3D('',#1052,#849,#850);
#737=AXIS2_PLACEMENT_3D('',#1053,#851,#852);
#738=AXIS2_PLACEMENT_3D('',#1058,#854,#855);
#739=AXIS2_PLACEMENT_3D('',#1062,#857,#858);
#740=AXIS2_PLACEMENT_3D('',#1066,#860,#861);
#741=AXIS2_PLACEMENT_3D('',#1079,#868,#869);
#742=AXIS2_PLACEMENT_3D('',#1082,#871,#872);
#743=AXIS2_PLACEMENT_3D('',#1084,#873,#874);
#744=AXIS2_PLACEMENT_3D('',#1090,#878,#879);
#745=AXIS2_PLACEMENT_3D('',#1091,#880,#881);
#746=AXIS2_PLACEMENT_3D('',#1094,#883,#884);
#747=AXIS2_PLACEMENT_3D('',#1103,#890,#891);
#748=AXIS2_PLACEMENT_3D('',#1105,#893,#894);
#749=AXIS2_PLACEMENT_3D('',#1112,#899,#900);
#750=AXIS2_PLACEMENT_3D('',#1114,#902,#903);
#751=AXIS2_PLACEMENT_3D('',#1121,#908,#909);
#752=AXIS2_PLACEMENT_3D('',#1123,#911,#912);
#753=AXIS2_PLACEMENT_3D('',#1125,#914,#915);
#754=AXIS2_PLACEMENT_3D('',#1127,#917,#918);
#755=AXIS2_PLACEMENT_3D('',#1132,#922,#923);
#756=AXIS2_PLACEMENT_3D('',#1134,#925,#926);
#757=AXIS2_PLACEMENT_3D('',#1138,#929,#930);
#758=AXIS2_PLACEMENT_3D('',#1143,#934,#935);
#759=AXIS2_PLACEMENT_3D('',#1145,#937,#938);
#760=AXIS2_PLACEMENT_3D('',#1146,#939,#940);
#761=AXIS2_PLACEMENT_3D('',#1147,#941,#942);
#762=AXIS2_PLACEMENT_3D('',#1148,#943,#944);
#763=AXIS2_PLACEMENT_3D('',#1152,#947,#948);
#764=AXIS2_PLACEMENT_3D('',#1153,#949,#950);
#765=AXIS2_PLACEMENT_3D('',#1155,#951,#952);
#766=AXIS2_PLACEMENT_3D('',#1156,#953,#954);
#767=AXIS2_PLACEMENT_3D('',#1159,#956,#957);
#768=AXIS2_PLACEMENT_3D('',#1161,#959,#960);
#769=DIRECTION('',(0.,0.,1.));
#770=DIRECTION('',(1.,0.,0.));
#771=DIRECTION('',(0.,0.,1.));
#772=DIRECTION('',(1.,0.,0.));
#773=DIRECTION('',(0.,-1.,0.));
#774=DIRECTION('',(1.,0.,0.));
#775=DIRECTION('',(0.,1.,0.));
#776=DIRECTION('',(1.,0.,0.));
#777=DIRECTION('',(0.,-1.,0.));
#778=DIRECTION('',(1.,0.,0.));
#779=DIRECTION('',(0.,0.,1.));
#780=DIRECTION('',(-1.,0.,0.));
#781=DIRECTION('',(1.83529779515108E-16,0.,-1.));
#782=DIRECTION('',(-1.,0.,0.));
#783=DIRECTION('',(0.,-1.,0.));
#784=DIRECTION('',(0.,0.,-1.));
#785=DIRECTION('',(0.,-1.,0.));
#786=DIRECTION('',(1.,0.,0.));
#787=DIRECTION('',(-1.,0.,0.));
#788=DIRECTION('',(0.,0.,1.));
#789=DIRECTION('',(0.,-1.,0.));
#790=DIRECTION('',(0.,0.,-1.));
#791=DIRECTION('',(1.,0.,0.));
#792=DIRECTION('',(0.,0.,-1.));
#793=DIRECTION('',(0.,-1.,0.));
#794=DIRECTION('',(1.,0.,0.));
#795=DIRECTION('',(-1.,0.,0.));
#796=DIRECTION('',(0.,0.,-1.));
#797=DIRECTION('',(1.,0.,0.));
#798=DIRECTION('',(0.,-1.,0.));
#799=DIRECTION('',(0.,0.,-1.));
#800=DIRECTION('',(0.,0.,-1.));
#801=DIRECTION('',(0.,1.,0.));
#802=DIRECTION('',(0.,0.,1.));
#803=DIRECTION('',(0.,-1.,0.));
#804=DIRECTION('',(0.,0.,-1.));
#805=DIRECTION('',(0.,1.,0.));
#806=DIRECTION('',(0.,-1.,0.));
#807=DIRECTION('',(0.,0.,-1.));
#808=DIRECTION('',(0.,1.,0.));
#809=DIRECTION('',(0.,0.,-1.));
#810=DIRECTION('',(-1.,0.,0.));
#811=DIRECTION('',(-1.,0.,0.));
#812=DIRECTION('',(0.,1.,0.));
#813=DIRECTION('',(-1.,0.,0.));
#814=DIRECTION('',(0.,1.,0.));
#815=DIRECTION('',(0.,0.,1.));
#816=DIRECTION('',(0.,-1.,0.));
#817=DIRECTION('',(0.,0.,-1.));
#818=DIRECTION('',(0.,1.,0.));
#819=DIRECTION('',(0.,-1.,0.));
#820=DIRECTION('',(0.,0.,-1.));
#821=DIRECTION('',(1.,0.,0.));
#822=DIRECTION('',(0.,0.,-1.));
#823=DIRECTION('',(0.,0.,-1.));
#824=DIRECTION('',(0.,1.,0.));
#825=DIRECTION('',(0.,0.,-1.));
#826=DIRECTION('',(0.,1.,0.));
#827=DIRECTION('',(0.,0.,1.));
#828=DIRECTION('',(0.,-1.,0.));
#829=DIRECTION('',(0.,0.,-1.));
#830=DIRECTION('',(0.,1.,0.));
#831=DIRECTION('',(0.,-1.,0.));
#832=DIRECTION('',(0.,0.,-1.));
#833=DIRECTION('',(0.,0.,1.));
#834=DIRECTION('',(1.,0.,0.));
#835=DIRECTION('',(1.,0.,0.));
#836=DIRECTION('',(0.,-1.,0.));
#837=DIRECTION('',(1.,0.,0.));
#838=DIRECTION('',(0.,1.,0.));
#839=DIRECTION('',(0.,0.,1.));
#840=DIRECTION('',(0.,-1.,0.));
#841=DIRECTION('',(0.,0.,-1.));
#842=DIRECTION('',(0.,1.,0.));
#843=DIRECTION('',(0.,-1.,0.));
#844=DIRECTION('',(0.,0.,-1.));
#845=DIRECTION('',(-1.,0.,0.));
#846=DIRECTION('',(0.,0.,1.));
#847=DIRECTION('',(0.,0.,1.));
#848=DIRECTION('',(0.,0.,1.));
#849=DIRECTION('',(0.,-1.,0.));
#850=DIRECTION('',(1.,0.,0.));
#851=DIRECTION('',(0.,-1.,0.));
#852=DIRECTION('',(0.,0.,-1.));
#853=DIRECTION('',(0.,0.,-1.));
#854=DIRECTION('',(0.,-1.,0.));
#855=DIRECTION('',(0.,0.,-1.));
#856=DIRECTION('',(1.,0.,0.));
#857=DIRECTION('',(0.,-1.,0.));
#858=DIRECTION('',(0.,0.,-1.));
#859=DIRECTION('',(0.,0.,1.));
#860=DIRECTION('',(0.,-1.,0.));
#861=DIRECTION('',(0.,0.,-1.));
#862=DIRECTION('',(-1.,0.,0.));
#863=DIRECTION('',(1.83529779515108E-16,0.,-1.));
#864=DIRECTION('',(1.,0.,0.));
#865=DIRECTION('',(0.,0.,-1.));
#866=DIRECTION('',(-1.,0.,0.));
#867=DIRECTION('',(0.,0.,-1.));
#868=DIRECTION('',(0.,-1.,0.));
#869=DIRECTION('',(0.,0.,-1.));
#870=DIRECTION('',(0.,0.,1.));
#871=DIRECTION('',(0.,-1.,0.));
#872=DIRECTION('',(0.,0.,-1.));
#873=DIRECTION('',(0.,0.,1.));
#874=DIRECTION('',(1.,0.,0.));
#875=DIRECTION('',(0.,-1.,0.));
#876=DIRECTION('',(-1.,0.,0.));
#877=DIRECTION('',(0.,-1.,0.));
#878=DIRECTION('',(0.,-1.,0.));
#879=DIRECTION('',(0.,0.,-1.));
#880=DIRECTION('',(0.,-1.,0.));
#881=DIRECTION('',(0.,0.,-1.));
#882=DIRECTION('',(0.,-1.,0.));
#883=DIRECTION('',(-1.,0.,0.));
#884=DIRECTION('',(0.,0.,1.));
#885=DIRECTION('',(0.,0.,-1.));
#886=DIRECTION('',(0.,-1.,0.));
#887=DIRECTION('',(0.,0.,-1.));
#888=DIRECTION('',(0.,-1.,0.));
#889=DIRECTION('',(0.,-1.,0.));
#890=DIRECTION('',(0.,-1.,0.));
#891=DIRECTION('',(0.,0.,-1.));
#892=DIRECTION('',(0.,-1.,0.));
#893=DIRECTION('',(0.,0.,-1.));
#894=DIRECTION('',(-1.,0.,0.));
#895=DIRECTION('',(0.,-1.,0.));
#896=DIRECTION('',(1.,0.,0.));
#897=DIRECTION('',(0.,-1.,0.));
#898=DIRECTION('',(0.,-1.,0.));
#899=DIRECTION('',(0.,-1.,0.));
#900=DIRECTION('',(0.,0.,-1.));
#901=DIRECTION('',(0.,-1.,0.));
#902=DIRECTION('',(1.,0.,0.));
#903=DIRECTION('',(0.,0.,-1.));
#904=DIRECTION('',(0.,-1.,0.));
#905=DIRECTION('',(0.,0.,1.));
#906=DIRECTION('',(0.,-1.,0.));
#907=DIRECTION('',(0.,-1.,0.));
#908=DIRECTION('',(0.,-1.,0.));
#909=DIRECTION('',(0.,0.,-1.));
#910=DIRECTION('',(0.,-1.,0.));
#911=DIRECTION('',(0.,0.,1.));
#912=DIRECTION('',(1.,0.,0.));
#913=DIRECTION('',(0.,-1.,0.));
#914=DIRECTION('',(-1.,0.,-1.83529779515108E-16));
#915=DIRECTION('',(-1.83529779515108E-16,0.,1.));
#916=DIRECTION('',(0.,-1.,0.));
#917=DIRECTION('',(0.,0.,-1.));
#918=DIRECTION('',(-1.,0.,0.));
#919=DIRECTION('',(0.,-1.,0.));
#920=DIRECTION('',(-1.,0.,0.));
#921=DIRECTION('',(-1.,0.,0.));
#922=DIRECTION('',(-1.,0.,0.));
#923=DIRECTION('',(0.,0.,1.));
#924=DIRECTION('',(0.,0.,-1.));
#925=DIRECTION('',(-1.,0.,0.));
#926=DIRECTION('',(0.,0.,1.));
#927=DIRECTION('',(0.,-1.,0.));
#928=DIRECTION('',(0.,0.,-1.));
#929=DIRECTION('',(0.,0.,-1.));
#930=DIRECTION('',(-1.,0.,0.));
#931=DIRECTION('',(1.,0.,0.));
#932=DIRECTION('',(-1.,0.,0.));
#933=DIRECTION('',(0.,-1.,0.));
#934=DIRECTION('',(-1.,0.,0.));
#935=DIRECTION('',(0.,0.,1.));
#936=DIRECTION('',(0.,0.,-1.));
#937=DIRECTION('',(0.,-1.,0.));
#938=DIRECTION('',(1.,0.,0.));
#939=DIRECTION('',(0.,1.,0.));
#940=DIRECTION('',(1.,0.,0.));
#941=DIRECTION('',(0.,1.,0.));
#942=DIRECTION('',(-1.,0.,0.));
#943=DIRECTION('',(1.,0.,0.));
#944=DIRECTION('',(0.,0.,-1.));
#945=DIRECTION('',(0.,0.,1.));
#946=DIRECTION('',(0.,-1.,0.));
#947=DIRECTION('',(0.,-1.,0.));
#948=DIRECTION('',(0.,0.,-1.));
#949=DIRECTION('',(0.,-1.,0.));
#950=DIRECTION('',(0.,0.,-1.));
#951=DIRECTION('',(0.,-1.,0.));
#952=DIRECTION('',(0.,0.,-1.));
#953=DIRECTION('',(0.,-1.,0.));
#954=DIRECTION('',(0.,0.,-1.));
#955=DIRECTION('',(0.,-1.,0.));
#956=DIRECTION('',(-1.,0.,0.));
#957=DIRECTION('',(0.,0.,1.));
#958=DIRECTION('',(0.,0.,-1.));
#959=DIRECTION('',(0.,-1.,0.));
#960=DIRECTION('',(1.,0.,0.));
#961=CARTESIAN_POINT('',(0.,0.,0.));
#962=CARTESIAN_POINT('',(0.,-0.00377,-0.014659));
#963=CARTESIAN_POINT('',(0.003429,-0.002498,-0.014659));
#964=CARTESIAN_POINT('',(0.003429,-0.0025,-0.014659));
#965=CARTESIAN_POINT('',(0.003429,-0.004405,-0.014659));
#966=CARTESIAN_POINT('',(0.,-0.0025,-0.014659));
#967=CARTESIAN_POINT('',(0.011,-0.0025,-0.014659));
#968=CARTESIAN_POINT('',(0.011,-0.00377,-0.014659));
#969=CARTESIAN_POINT('',(0.011,-0.004405,-0.014659));
#970=CARTESIAN_POINT('',(0.,-0.004405,-0.014659));
#971=CARTESIAN_POINT('',(0.,-0.000468,0.));
#972=CARTESIAN_POINT('',(0.012754,-0.000468,0.));
#973=CARTESIAN_POINT('',(0.012754,-0.000468,0.003302));
#974=CARTESIAN_POINT('',(0.012754,-0.000468,0.011));
#975=CARTESIAN_POINT('',(0.,-0.000468,0.003302));
#976=CARTESIAN_POINT('',(0.00711486026358604,-0.000468,0.003302));
#977=CARTESIAN_POINT('',(0.00711486026358604,-0.000468,0.008028));
#978=CARTESIAN_POINT('',(0.00711486026358604,-0.000468,0.012754));
#979=CARTESIAN_POINT('',(0.,-0.000468,0.012754));
#980=CARTESIAN_POINT('',(0.011,-0.000468,0.012754));
#981=CARTESIAN_POINT('',(0.011,-0.000468,0.011));
#982=CARTESIAN_POINT('',(0.,-0.000468,0.));
#983=CARTESIAN_POINT('',(0.,-0.000468,0.));
#984=CARTESIAN_POINT('',(0.012754,-0.000468,0.));
#985=CARTESIAN_POINT('',(0.00889286026358604,-0.000468,0.));
#986=CARTESIAN_POINT('',(0.012754,-0.000468,0.));
#987=CARTESIAN_POINT('',(0.012754,-0.000468,-0.011));
#988=CARTESIAN_POINT('',(0.011,-0.000468,-0.011));
#989=CARTESIAN_POINT('',(0.011,-0.000468,-0.012754));
#990=CARTESIAN_POINT('',(0.,-0.000468,-0.012754));
#991=CARTESIAN_POINT('',(0.00889286026358604,-0.000468,-0.012754));
#992=CARTESIAN_POINT('',(0.00889286026358604,-0.000468,-0.006377));
#993=CARTESIAN_POINT('',(0.,-0.000468,0.));
#994=CARTESIAN_POINT('',(0.,-0.000468,0.));
#995=CARTESIAN_POINT('',(-0.00889286026358604,-0.000468,0.));
#996=CARTESIAN_POINT('',(-0.012754,-0.000468,0.));
#997=CARTESIAN_POINT('',(-0.00889286026358604,-0.000468,-0.006377));
#998=CARTESIAN_POINT('',(-0.00889286026358604,-0.000468,-0.012754));
#999=CARTESIAN_POINT('',(0.,-0.000468,-0.012754));
#1000=CARTESIAN_POINT('',(-0.011,-0.000468,-0.012754));
#1001=CARTESIAN_POINT('',(-0.011,-0.000468,-0.011));
#1002=CARTESIAN_POINT('',(-0.012754,-0.000468,-0.011));
#1003=CARTESIAN_POINT('',(-0.012754,-0.000468,0.));
#1004=CARTESIAN_POINT('',(0.011,-0.00377,0.011));
#1005=CARTESIAN_POINT('',(0.011,-0.0025,0.011));
#1006=CARTESIAN_POINT('',(0.014659,-0.0025,0.011));
#1007=CARTESIAN_POINT('',(0.011,-0.0025,0.014659));
#1008=CARTESIAN_POINT('',(0.011,-0.00377,0.014659));
#1009=CARTESIAN_POINT('',(0.011,-0.004405,0.014659));
#1010=CARTESIAN_POINT('',(0.011,-0.004405,0.011));
#1011=CARTESIAN_POINT('',(0.014659,-0.004405,0.011));
#1012=CARTESIAN_POINT('',(0.014659,-0.00377,0.011));
#1013=CARTESIAN_POINT('',(0.,-0.00377,0.014659));
#1014=CARTESIAN_POINT('',(0.,-0.0025,0.014659));
#1015=CARTESIAN_POINT('',(-0.011,-0.0025,0.014659));
#1016=CARTESIAN_POINT('',(-0.011,-0.00377,0.014659));
#1017=CARTESIAN_POINT('',(-0.011,-0.004405,0.014659));
#1018=CARTESIAN_POINT('',(0.,-0.004405,0.014659));
#1019=CARTESIAN_POINT('',(-0.011,-0.00377,0.011));
#1020=CARTESIAN_POINT('',(-0.011,-0.0025,0.011));
#1021=CARTESIAN_POINT('',(-0.014659,-0.0025,0.011));
#1022=CARTESIAN_POINT('',(-0.014659,-0.00377,0.011));
#1023=CARTESIAN_POINT('',(-0.014659,-0.004405,0.011));
#1024=CARTESIAN_POINT('',(-0.011,-0.004405,0.011));
#1025=CARTESIAN_POINT('',(-0.014659,-0.00377,0.));
#1026=CARTESIAN_POINT('',(-0.014659,-0.0025,0.));
#1027=CARTESIAN_POINT('',(-0.014659,-0.0025,-0.011));
#1028=CARTESIAN_POINT('',(-0.014659,-0.00377,-0.011));
#1029=CARTESIAN_POINT('',(-0.014659,-0.004405,-0.011));
#1030=CARTESIAN_POINT('',(-0.014659,-0.004405,0.));
#1031=CARTESIAN_POINT('',(-0.011,-0.00377,-0.011));
#1032=CARTESIAN_POINT('',(-0.011,-0.0025,-0.011));
#1033=CARTESIAN_POINT('',(-0.011,-0.0025,-0.014659));
#1034=CARTESIAN_POINT('',(-0.011,-0.00377,-0.014659));
#1035=CARTESIAN_POINT('',(-0.011,-0.004405,-0.014659));
#1036=CARTESIAN_POINT('',(-0.011,-0.004405,-0.011));
#1037=CARTESIAN_POINT('',(0.,-0.00377,-0.014659));
#1038=CARTESIAN_POINT('',(0.,-0.0025,-0.014659));
#1039=CARTESIAN_POINT('',(-0.003429,-0.0025,-0.014659));
#1040=CARTESIAN_POINT('',(-0.003429,-0.002498,-0.014659));
#1041=CARTESIAN_POINT('',(-0.003429,-0.004405,-0.014659));
#1042=CARTESIAN_POINT('',(0.,-0.004405,-0.014659));
#1043=CARTESIAN_POINT('',(0.011,-0.00377,-0.011));
#1044=CARTESIAN_POINT('',(0.011,-0.0025,-0.011));
#1045=CARTESIAN_POINT('',(0.014659,-0.0025,-0.011));
#1046=CARTESIAN_POINT('',(0.014659,-0.00377,-0.011));
#1047=CARTESIAN_POINT('',(0.014659,-0.004405,-0.011));
#1048=CARTESIAN_POINT('',(0.011,-0.004405,-0.011));
#1049=CARTESIAN_POINT('',(0.014659,-0.00377,0.));
#1050=CARTESIAN_POINT('',(0.014659,-0.0025,0.));
#1051=CARTESIAN_POINT('',(0.014659,-0.004405,0.));
#1052=CARTESIAN_POINT('',(0.,-0.0025,0.));
#1053=CARTESIAN_POINT('',(-0.011,-0.0025,0.011));
#1054=CARTESIAN_POINT('',(-0.011,-0.0025,0.012754));
#1055=CARTESIAN_POINT('',(-0.012754,-0.0025,0.011));
#1056=CARTESIAN_POINT('',(-0.012754,-0.0025,0.));
#1057=CARTESIAN_POINT('',(-0.012754,-0.0025,-0.011));
#1058=CARTESIAN_POINT('',(-0.011,-0.0025,-0.011));
#1059=CARTESIAN_POINT('',(-0.011,-0.0025,-0.012754));
#1060=CARTESIAN_POINT('',(0.,-0.0025,-0.012754));
#1061=CARTESIAN_POINT('',(0.011,-0.0025,-0.012754));
#1062=CARTESIAN_POINT('',(0.011,-0.0025,-0.011));
#1063=CARTESIAN_POINT('',(0.012754,-0.0025,-0.011));
#1064=CARTESIAN_POINT('',(0.012754,-0.0025,0.));
#1065=CARTESIAN_POINT('',(0.012754,-0.0025,0.011));
#1066=CARTESIAN_POINT('',(0.011,-0.0025,0.011));
#1067=CARTESIAN_POINT('',(0.011,-0.0025,0.012754));
#1068=CARTESIAN_POINT('',(0.,-0.0025,0.012754));
#1069=CARTESIAN_POINT('',(0.00711486026358604,-0.0025,0.012754));
#1070=CARTESIAN_POINT('',(0.00711486026358604,-0.0025,0.008028));
#1071=CARTESIAN_POINT('',(0.00711486026358604,-0.0025,0.003302));
#1072=CARTESIAN_POINT('',(-3.46944695195361E-18,-0.0025,0.003302));
#1073=CARTESIAN_POINT('',(-0.00711486026358604,-0.0025,0.003302));
#1074=CARTESIAN_POINT('',(-0.00711486026358605,-0.0025,0.008028));
#1075=CARTESIAN_POINT('',(-0.00711486026358605,-0.0025,0.012754));
#1076=CARTESIAN_POINT('',(0.,-0.0025,0.012754));
#1077=CARTESIAN_POINT('',(0.003429,-0.0025,-0.0159106503231526));
#1078=CARTESIAN_POINT('',(0.003429,-0.0025,-0.0171623006463051));
#1079=CARTESIAN_POINT('',(0.,-0.0025,-0.0171623006463051));
#1080=CARTESIAN_POINT('',(-0.003429,-0.0025,-0.0171623006463051));
#1081=CARTESIAN_POINT('',(-0.003429,-0.0025,-0.0159106503231526));
#1082=CARTESIAN_POINT('',(0.,-0.0025,-0.0171623006463051));
#1083=CARTESIAN_POINT('',(0.,-0.0025,-0.0186863006463051));
#1084=CARTESIAN_POINT('',(0.,-0.000468,0.012754));
#1085=CARTESIAN_POINT('',(-0.00711486026358605,-0.000468,0.012754));
#1086=CARTESIAN_POINT('',(-0.00711486026358605,-0.000468,0.012754));
#1087=CARTESIAN_POINT('',(0.,-0.000468,0.012754));
#1088=CARTESIAN_POINT('',(-0.011,-0.000468,0.012754));
#1089=CARTESIAN_POINT('',(-0.011,-0.000468,0.012754));
#1090=CARTESIAN_POINT('',(-0.011,-0.000468,0.011));
#1091=CARTESIAN_POINT('',(-0.011,-0.000468,0.011));
#1092=CARTESIAN_POINT('',(-0.012754,-0.000468,0.011));
#1093=CARTESIAN_POINT('',(-0.012754,-0.000468,0.011));
#1094=CARTESIAN_POINT('',(-0.012754,-0.000468,0.));
#1095=CARTESIAN_POINT('',(-0.012754,-0.000468,0.));
#1096=CARTESIAN_POINT('',(-0.012754,-0.000468,0.003302));
#1097=CARTESIAN_POINT('',(-0.012754,2.E-06,0.003302));
#1098=CARTESIAN_POINT('',(-0.012754,0.,0.003302));
#1099=CARTESIAN_POINT('',(-0.012754,0.,0.));
#1100=CARTESIAN_POINT('',(-0.012754,0.,0.));
#1101=CARTESIAN_POINT('',(-0.012754,2.E-06,0.));
#1102=CARTESIAN_POINT('',(-0.012754,-0.000468,-0.011));
#1103=CARTESIAN_POINT('',(-0.011,-0.000468,-0.011));
#1104=CARTESIAN_POINT('',(-0.011,-0.000468,-0.012754));
#1105=CARTESIAN_POINT('',(0.,-0.000468,-0.012754));
#1106=CARTESIAN_POINT('',(-0.00889286026358604,-0.000468,-0.012754));
#1107=CARTESIAN_POINT('',(-0.00889286026358604,-0.0018,-0.012754));
#1108=CARTESIAN_POINT('',(0.,-0.0018,-0.012754));
#1109=CARTESIAN_POINT('',(0.00889286026358604,-0.0018,-0.012754));
#1110=CARTESIAN_POINT('',(0.00889286026358604,-0.000468,-0.012754));
#1111=CARTESIAN_POINT('',(0.011,-0.000468,-0.012754));
#1112=CARTESIAN_POINT('',(0.011,-0.000468,-0.011));
#1113=CARTESIAN_POINT('',(0.012754,-0.000468,-0.011));
#1114=CARTESIAN_POINT('',(0.012754,-0.000468,0.));
#1115=CARTESIAN_POINT('',(0.012754,2.E-06,0.));
#1116=CARTESIAN_POINT('',(0.012754,0.,0.));
#1117=CARTESIAN_POINT('',(0.012754,0.,0.));
#1118=CARTESIAN_POINT('',(0.012754,0.,0.003302));
#1119=CARTESIAN_POINT('',(0.012754,2.E-06,0.003302));
#1120=CARTESIAN_POINT('',(0.012754,-0.000468,0.011));
#1121=CARTESIAN_POINT('',(0.011,-0.000468,0.011));
#1122=CARTESIAN_POINT('',(0.011,-0.000468,0.012754));
#1123=CARTESIAN_POINT('',(0.,-0.000468,0.012754));
#1124=CARTESIAN_POINT('',(0.00711486026358604,-0.000468,0.012754));
#1125=CARTESIAN_POINT('',(0.00711486026358604,-0.000468,0.008028));
#1126=CARTESIAN_POINT('',(0.00711486026358604,-0.000468,0.003302));
#1127=CARTESIAN_POINT('',(-3.46944695195361E-18,-0.000468,0.003302));
#1128=CARTESIAN_POINT('',(-0.00711486026358604,-0.000468,0.003302));
#1129=CARTESIAN_POINT('',(-0.00711486026358604,-0.000468,0.003302));
#1130=CARTESIAN_POINT('',(0.,0.,0.003302));
#1131=CARTESIAN_POINT('',(0.,-0.000468,0.003302));
#1132=CARTESIAN_POINT('',(-0.00711486026358605,-0.000468,0.008028));
#1133=CARTESIAN_POINT('',(-0.00711486026358605,-0.000468,0.008028));
#1134=CARTESIAN_POINT('',(-0.00889286026358604,-0.000468,-0.006377));
#1135=CARTESIAN_POINT('',(-0.00889286026358604,-0.000468,0.));
#1136=CARTESIAN_POINT('',(-0.00889286026358604,-0.0018,0.));
#1137=CARTESIAN_POINT('',(-0.00889286026358604,-0.0018,-0.006377));
#1138=CARTESIAN_POINT('',(0.00800386026358604,-0.000468,0.));
#1139=CARTESIAN_POINT('',(0.00800386026358604,-0.0018,0.));
#1140=CARTESIAN_POINT('',(0.00889286026358604,-0.0018,0.));
#1141=CARTESIAN_POINT('',(0.,0.,0.));
#1142=CARTESIAN_POINT('',(0.00889286026358604,-0.000468,0.));
#1143=CARTESIAN_POINT('',(0.00889286026358604,-0.000468,-0.006377));
#1144=CARTESIAN_POINT('',(0.00889286026358604,-0.0018,-0.006377));
#1145=CARTESIAN_POINT('',(0.,-0.000468,0.));
#1146=CARTESIAN_POINT('',(0.,0.,0.));
#1147=CARTESIAN_POINT('',(0.,-0.0018,-0.0065));
#1148=CARTESIAN_POINT('',(0.003429,-0.002498,-0.0159106503231526));
#1149=CARTESIAN_POINT('',(0.003429,-0.004405,-0.0159106503231526));
#1150=CARTESIAN_POINT('',(0.003429,-0.004405,-0.0171623006463051));
#1151=CARTESIAN_POINT('',(0.003429,-0.002498,-0.0171623006463051));
#1152=CARTESIAN_POINT('',(0.,-0.002498,-0.0171623006463051));
#1153=CARTESIAN_POINT('',(0.,-0.004405,-0.0171623006463051));
#1154=CARTESIAN_POINT('',(0.,-0.004405,-0.0186863006463051));
#1155=CARTESIAN_POINT('',(0.,-0.002498,-0.0171623006463051));
#1156=CARTESIAN_POINT('',(0.,-0.004405,-0.0171623006463051));
#1157=CARTESIAN_POINT('',(-0.003429,-0.004405,-0.0171623006463051));
#1158=CARTESIAN_POINT('',(-0.003429,-0.002498,-0.0171623006463051));
#1159=CARTESIAN_POINT('',(-0.003429,-0.002498,-0.0159106503231526));
#1160=CARTESIAN_POINT('',(-0.003429,-0.004405,-0.0159106503231526));
#1161=CARTESIAN_POINT('',(0.,-0.004405,0.));
#1162=MECHANICAL_DESIGN_GEOMETRIC_PRESENTATION_REPRESENTATION('',(#701),#1163);
#1163=(
GEOMETRIC_REPRESENTATION_CONTEXT(3)
GLOBAL_UNCERTAINTY_ASSIGNED_CONTEXT((#1164))
GLOBAL_UNIT_ASSIGNED_CONTEXT((#1167,#1166,#1165))
REPRESENTATION_CONTEXT('Part 3','TOP_LEVEL_ASSEMBLY_PART')
);
#1164=UNCERTAINTY_MEASURE_WITH_UNIT(LENGTH_MEASURE(1.E-08),#1167,'DISTANCE_ACCURACY_VALUE','Maximum Tolerance applied to model');
#1165=(
NAMED_UNIT(*)
SI_UNIT($,.STERADIAN.)
SOLID_ANGLE_UNIT()
);
#1166=(
NAMED_UNIT(*)
PLANE_ANGLE_UNIT()
SI_UNIT($,.RADIAN.)
);
#1167=(
LENGTH_UNIT()
NAMED_UNIT(*)
SI_UNIT($,.METRE.)
);
#1168=PRODUCT_DEFINITION_SHAPE('','',#1169);
#1169=PRODUCT_DEFINITION('','',#1171,#1170);
#1170=PRODUCT_DEFINITION_CONTEXT('',#1177,'design');
#1171=PRODUCT_DEFINITION_FORMATION_WITH_SPECIFIED_SOURCE('','',#1173,.NOT_KNOWN.);
#1172=PRODUCT_RELATED_PRODUCT_CATEGORY('','',(#1173));
#1173=PRODUCT('Part 3','Part 3','Part 3',(#1175));
#1174=PRODUCT_CATEGORY('','');
#1175=PRODUCT_CONTEXT('',#1177,'mechanical');
#1176=APPLICATION_PROTOCOL_DEFINITION('international standard','ap242_managed_model_based_3d_engineering',2020,#1177);
#1177=APPLICATION_CONTEXT('managed model based 3d engineering');
ENDSEC;
END-ISO-10303-21;
