ISO-10303-21;
HEADER;
/* Generated by software containing ST-Developer
 * from STEP Tools, Inc. (www.steptools.com) 
 */
/* OPTION: using custom renumber hook */

FILE_DESCRIPTION(
/* description */ ('STEP AP242 Edition 2',
'CAx-IF Rec.Pracs.---Representation and Presentation of Product Manufa
cturing Information (PMI)---4.0---2014-10-13',
'CAx-IF Rec.Pracs.---3D Tessellated Geometry---0.4---2014-09-14','2;1',
'CAx-IF Rec.Pracs.---User Defined Attributes---1.5---2016-08-15'),
/* implementation_level */ '2;1');

FILE_NAME(
/* name */ 'xt30_male_vertikal_mount - XT30_Rahmen_1-Fach',
/* time_stamp */ '2026-05-05T21:17:51Z',
/* author */ (''),
/* organization */ (''),
/* preprocessor_version */ 'ST-DEVELOPER v20',
/* originating_system */ 'ONSHAPE BY PTC INC, 1.214',
/* authorisation */ '  ');

FILE_SCHEMA (('AP242_MANAGED_MODEL_BASED_3D_ENGINEERING_MIM_LF { 1 0 10303 442 3 1 4 }'));
ENDSEC;

DATA;
#10=SHAPE_REPRESENTATION_RELATIONSHIP('','',#969,#11);
#11=ADVANCED_BREP_SHAPE_REPRESENTATION('',(#967),#1649);
#12=DEGENERATE_TOROIDAL_SURFACE('',#1056,4.53528286100645E-5,0.000429247171389937,
 .T.);
#13=DEGENERATE_TOROIDAL_SURFACE('',#1058,4.53528286100632E-5,0.000429247171389937,
 .T.);
#14=DEGENERATE_TOROIDAL_SURFACE('',#1064,4.53528286100641E-5,0.000429247171389937,
 .T.);
#15=DEGENERATE_TOROIDAL_SURFACE('',#1066,4.53528286100619E-5,0.000429247171389937,
 .T.);
#16=DEGENERATE_TOROIDAL_SURFACE('',#1072,4.53528286100747E-5,0.000429247171389937,
 .T.);
#17=DEGENERATE_TOROIDAL_SURFACE('',#1074,4.53528286100579E-5,0.000429247171389937,
 .T.);
#18=CONICAL_SURFACE('',#1013,0.001375,0.785398163397448);
#19=CONICAL_SURFACE('',#1015,0.001375,0.785398163397448);
#20=LINE('',#1386,#100);
#21=LINE('',#1390,#101);
#22=LINE('',#1395,#102);
#23=LINE('',#1400,#103);
#24=LINE('',#1404,#104);
#25=LINE('',#1408,#105);
#26=LINE('',#1412,#106);
#27=LINE('',#1416,#107);
#28=LINE('',#1424,#108);
#29=LINE('',#1429,#109);
#30=LINE('',#1433,#110);
#31=LINE('',#1437,#111);
#32=LINE('',#1443,#112);
#33=LINE('',#1447,#113);
#34=LINE('',#1449,#114);
#35=LINE('',#1450,#115);
#36=LINE('',#1452,#116);
#37=LINE('',#1454,#117);
#38=LINE('',#1457,#118);
#39=LINE('',#1459,#119);
#40=LINE('',#1463,#120);
#41=LINE('',#1465,#121);
#42=LINE('',#1467,#122);
#43=LINE('',#1469,#123);
#44=LINE('',#1471,#124);
#45=LINE('',#1473,#125);
#46=LINE('',#1475,#126);
#47=LINE('',#1479,#127);
#48=LINE('',#1481,#128);
#49=LINE('',#1483,#129);
#50=LINE('',#1485,#130);
#51=LINE('',#1487,#131);
#52=LINE('',#1491,#132);
#53=LINE('',#1493,#133);
#54=LINE('',#1495,#134);
#55=LINE('',#1497,#135);
#56=LINE('',#1499,#136);
#57=LINE('',#1503,#137);
#58=LINE('',#1513,#138);
#59=LINE('',#1516,#139);
#60=LINE('',#1518,#140);
#61=LINE('',#1520,#141);
#62=LINE('',#1522,#142);
#63=LINE('',#1524,#143);
#64=LINE('',#1526,#144);
#65=LINE('',#1528,#145);
#66=LINE('',#1530,#146);
#67=LINE('',#1532,#147);
#68=LINE('',#1534,#148);
#69=LINE('',#1536,#149);
#70=LINE('',#1538,#150);
#71=LINE('',#1540,#151);
#72=LINE('',#1542,#152);
#73=LINE('',#1544,#153);
#74=LINE('',#1546,#154);
#75=LINE('',#1548,#155);
#76=LINE('',#1550,#156);
#77=LINE('',#1554,#157);
#78=LINE('',#1556,#158);
#79=LINE('',#1558,#159);
#80=LINE('',#1560,#160);
#81=LINE('',#1562,#161);
#82=LINE('',#1564,#162);
#83=LINE('',#1568,#163);
#84=LINE('',#1570,#164);
#85=LINE('',#1572,#165);
#86=LINE('',#1576,#166);
#87=LINE('',#1578,#167);
#88=LINE('',#1580,#168);
#89=LINE('',#1584,#169);
#90=LINE('',#1586,#170);
#91=LINE('',#1588,#171);
#92=LINE('',#1592,#172);
#93=LINE('',#1594,#173);
#94=LINE('',#1603,#174);
#95=LINE('',#1607,#175);
#96=LINE('',#1611,#176);
#97=LINE('',#1615,#177);
#98=LINE('',#1619,#178);
#99=LINE('',#1623,#179);
#100=VECTOR('',#1095,1.);
#101=VECTOR('',#1098,1.);
#102=VECTOR('',#1103,1.);
#103=VECTOR('',#1106,1.);
#104=VECTOR('',#1109,1.);
#105=VECTOR('',#1112,1.);
#106=VECTOR('',#1115,1.);
#107=VECTOR('',#1118,1.);
#108=VECTOR('',#1127,1.);
#109=VECTOR('',#1130,1.);
#110=VECTOR('',#1133,1.);
#111=VECTOR('',#1136,1.);
#112=VECTOR('',#1141,1.);
#113=VECTOR('',#1144,1.);
#114=VECTOR('',#1147,1.);
#115=VECTOR('',#1148,1.);
#116=VECTOR('',#1151,1.);
#117=VECTOR('',#1154,1.);
#118=VECTOR('',#1159,1.);
#119=VECTOR('',#1160,1.);
#120=VECTOR('',#1163,1.);
#121=VECTOR('',#1164,1.);
#122=VECTOR('',#1167,1.);
#123=VECTOR('',#1168,1.);
#124=VECTOR('',#1169,1.);
#125=VECTOR('',#1172,1.);
#126=VECTOR('',#1173,1.);
#127=VECTOR('',#1178,1.);
#128=VECTOR('',#1179,1.);
#129=VECTOR('',#1180,1.);
#130=VECTOR('',#1183,1.);
#131=VECTOR('',#1184,1.);
#132=VECTOR('',#1189,1.);
#133=VECTOR('',#1190,1.);
#134=VECTOR('',#1191,1.);
#135=VECTOR('',#1194,1.);
#136=VECTOR('',#1195,1.);
#137=VECTOR('',#1200,1.);
#138=VECTOR('',#1215,1.);
#139=VECTOR('',#1216,1.);
#140=VECTOR('',#1217,1.);
#141=VECTOR('',#1218,1.);
#142=VECTOR('',#1219,1.);
#143=VECTOR('',#1220,1.);
#144=VECTOR('',#1223,1.);
#145=VECTOR('',#1224,1.);
#146=VECTOR('',#1225,1.);
#147=VECTOR('',#1228,1.);
#148=VECTOR('',#1229,1.);
#149=VECTOR('',#1232,1.);
#150=VECTOR('',#1233,1.);
#151=VECTOR('',#1236,1.);
#152=VECTOR('',#1237,1.);
#153=VECTOR('',#1240,1.);
#154=VECTOR('',#1241,1.);
#155=VECTOR('',#1244,1.);
#156=VECTOR('',#1247,1.);
#157=VECTOR('',#1250,1.);
#158=VECTOR('',#1253,1.);
#159=VECTOR('',#1254,1.);
#160=VECTOR('',#1257,1.);
#161=VECTOR('',#1258,1.);
#162=VECTOR('',#1261,1.);
#163=VECTOR('',#1266,1.);
#164=VECTOR('',#1267,1.);
#165=VECTOR('',#1270,1.);
#166=VECTOR('',#1275,1.);
#167=VECTOR('',#1276,1.);
#168=VECTOR('',#1279,1.);
#169=VECTOR('',#1284,1.);
#170=VECTOR('',#1285,1.);
#171=VECTOR('',#1288,1.);
#172=VECTOR('',#1293,1.);
#173=VECTOR('',#1294,1.);
#174=VECTOR('',#1307,1.);
#175=VECTOR('',#1310,1.);
#176=VECTOR('',#1313,1.);
#177=VECTOR('',#1316,1.);
#178=VECTOR('',#1319,1.);
#179=VECTOR('',#1322,1.);
#180=PLANE('',#977);
#181=PLANE('',#988);
#182=PLANE('',#998);
#183=PLANE('',#1000);
#184=PLANE('',#1003);
#185=PLANE('',#1006);
#186=PLANE('',#1009);
#187=PLANE('',#1012);
#188=PLANE('',#1019);
#189=PLANE('',#1020);
#190=PLANE('',#1021);
#191=PLANE('',#1022);
#192=PLANE('',#1023);
#193=PLANE('',#1024);
#194=PLANE('',#1025);
#195=PLANE('',#1028);
#196=PLANE('',#1029);
#197=PLANE('',#1032);
#198=PLANE('',#1035);
#199=PLANE('',#1038);
#200=PLANE('',#1041);
#201=PLANE('',#1044);
#202=PLANE('',#1045);
#203=PLANE('',#1046);
#204=ORIENTED_EDGE('',*,*,#468,.F.);
#205=ORIENTED_EDGE('',*,*,#469,.F.);
#206=ORIENTED_EDGE('',*,*,#470,.F.);
#207=ORIENTED_EDGE('',*,*,#471,.F.);
#208=ORIENTED_EDGE('',*,*,#472,.F.);
#209=ORIENTED_EDGE('',*,*,#473,.F.);
#210=ORIENTED_EDGE('',*,*,#474,.F.);
#211=ORIENTED_EDGE('',*,*,#475,.F.);
#212=ORIENTED_EDGE('',*,*,#476,.T.);
#213=ORIENTED_EDGE('',*,*,#477,.T.);
#214=ORIENTED_EDGE('',*,*,#478,.F.);
#215=ORIENTED_EDGE('',*,*,#479,.F.);
#216=ORIENTED_EDGE('',*,*,#480,.F.);
#217=ORIENTED_EDGE('',*,*,#481,.F.);
#218=ORIENTED_EDGE('',*,*,#482,.F.);
#219=ORIENTED_EDGE('',*,*,#483,.F.);
#220=ORIENTED_EDGE('',*,*,#484,.F.);
#221=ORIENTED_EDGE('',*,*,#485,.F.);
#222=ORIENTED_EDGE('',*,*,#486,.F.);
#223=ORIENTED_EDGE('',*,*,#487,.F.);
#224=ORIENTED_EDGE('',*,*,#488,.F.);
#225=ORIENTED_EDGE('',*,*,#489,.F.);
#226=ORIENTED_EDGE('',*,*,#490,.F.);
#227=ORIENTED_EDGE('',*,*,#491,.F.);
#228=ORIENTED_EDGE('',*,*,#492,.T.);
#229=ORIENTED_EDGE('',*,*,#493,.T.);
#230=ORIENTED_EDGE('',*,*,#494,.T.);
#231=ORIENTED_EDGE('',*,*,#495,.T.);
#232=ORIENTED_EDGE('',*,*,#496,.T.);
#233=ORIENTED_EDGE('',*,*,#497,.T.);
#234=ORIENTED_EDGE('',*,*,#498,.T.);
#235=ORIENTED_EDGE('',*,*,#499,.T.);
#236=ORIENTED_EDGE('',*,*,#500,.T.);
#237=ORIENTED_EDGE('',*,*,#501,.T.);
#238=ORIENTED_EDGE('',*,*,#502,.T.);
#239=ORIENTED_EDGE('',*,*,#503,.T.);
#240=ORIENTED_EDGE('',*,*,#472,.T.);
#241=ORIENTED_EDGE('',*,*,#504,.T.);
#242=ORIENTED_EDGE('',*,*,#500,.F.);
#243=ORIENTED_EDGE('',*,*,#505,.F.);
#244=ORIENTED_EDGE('',*,*,#475,.T.);
#245=ORIENTED_EDGE('',*,*,#506,.T.);
#246=ORIENTED_EDGE('',*,*,#501,.F.);
#247=ORIENTED_EDGE('',*,*,#504,.F.);
#248=ORIENTED_EDGE('',*,*,#474,.T.);
#249=ORIENTED_EDGE('',*,*,#507,.T.);
#250=ORIENTED_EDGE('',*,*,#502,.F.);
#251=ORIENTED_EDGE('',*,*,#506,.F.);
#252=ORIENTED_EDGE('',*,*,#473,.T.);
#253=ORIENTED_EDGE('',*,*,#505,.T.);
#254=ORIENTED_EDGE('',*,*,#503,.F.);
#255=ORIENTED_EDGE('',*,*,#507,.F.);
#256=ORIENTED_EDGE('',*,*,#499,.F.);
#257=ORIENTED_EDGE('',*,*,#508,.T.);
#258=ORIENTED_EDGE('',*,*,#509,.F.);
#259=ORIENTED_EDGE('',*,*,#510,.F.);
#260=ORIENTED_EDGE('',*,*,#511,.T.);
#261=ORIENTED_EDGE('',*,*,#512,.F.);
#262=ORIENTED_EDGE('',*,*,#468,.T.);
#263=ORIENTED_EDGE('',*,*,#498,.F.);
#264=ORIENTED_EDGE('',*,*,#513,.T.);
#265=ORIENTED_EDGE('',*,*,#514,.F.);
#266=ORIENTED_EDGE('',*,*,#515,.F.);
#267=ORIENTED_EDGE('',*,*,#509,.T.);
#268=ORIENTED_EDGE('',*,*,#508,.F.);
#269=ORIENTED_EDGE('',*,*,#497,.F.);
#270=ORIENTED_EDGE('',*,*,#516,.T.);
#271=ORIENTED_EDGE('',*,*,#517,.F.);
#272=ORIENTED_EDGE('',*,*,#518,.F.);
#273=ORIENTED_EDGE('',*,*,#514,.T.);
#274=ORIENTED_EDGE('',*,*,#513,.F.);
#275=ORIENTED_EDGE('',*,*,#496,.F.);
#276=ORIENTED_EDGE('',*,*,#519,.T.);
#277=ORIENTED_EDGE('',*,*,#520,.F.);
#278=ORIENTED_EDGE('',*,*,#521,.F.);
#279=ORIENTED_EDGE('',*,*,#517,.T.);
#280=ORIENTED_EDGE('',*,*,#516,.F.);
#281=ORIENTED_EDGE('',*,*,#495,.F.);
#282=ORIENTED_EDGE('',*,*,#522,.T.);
#283=ORIENTED_EDGE('',*,*,#523,.F.);
#284=ORIENTED_EDGE('',*,*,#524,.F.);
#285=ORIENTED_EDGE('',*,*,#520,.T.);
#286=ORIENTED_EDGE('',*,*,#519,.F.);
#287=ORIENTED_EDGE('',*,*,#470,.T.);
#288=ORIENTED_EDGE('',*,*,#494,.F.);
#289=ORIENTED_EDGE('',*,*,#525,.T.);
#290=ORIENTED_EDGE('',*,*,#526,.F.);
#291=ORIENTED_EDGE('',*,*,#527,.F.);
#292=ORIENTED_EDGE('',*,*,#523,.T.);
#293=ORIENTED_EDGE('',*,*,#522,.F.);
#294=ORIENTED_EDGE('',*,*,#493,.F.);
#295=ORIENTED_EDGE('',*,*,#528,.T.);
#296=ORIENTED_EDGE('',*,*,#529,.F.);
#297=ORIENTED_EDGE('',*,*,#530,.F.);
#298=ORIENTED_EDGE('',*,*,#526,.T.);
#299=ORIENTED_EDGE('',*,*,#525,.F.);
#300=ORIENTED_EDGE('',*,*,#492,.F.);
#301=ORIENTED_EDGE('',*,*,#512,.T.);
#302=ORIENTED_EDGE('',*,*,#511,.F.);
#303=ORIENTED_EDGE('',*,*,#531,.F.);
#304=ORIENTED_EDGE('',*,*,#529,.T.);
#305=ORIENTED_EDGE('',*,*,#528,.F.);
#306=ORIENTED_EDGE('',*,*,#532,.T.);
#307=ORIENTED_EDGE('',*,*,#477,.F.);
#308=ORIENTED_EDGE('',*,*,#533,.T.);
#309=ORIENTED_EDGE('',*,*,#476,.F.);
#310=ORIENTED_EDGE('',*,*,#491,.T.);
#311=ORIENTED_EDGE('',*,*,#533,.F.);
#312=ORIENTED_EDGE('',*,*,#490,.T.);
#313=ORIENTED_EDGE('',*,*,#532,.F.);
#314=ORIENTED_EDGE('',*,*,#510,.T.);
#315=ORIENTED_EDGE('',*,*,#515,.T.);
#316=ORIENTED_EDGE('',*,*,#518,.T.);
#317=ORIENTED_EDGE('',*,*,#521,.T.);
#318=ORIENTED_EDGE('',*,*,#524,.T.);
#319=ORIENTED_EDGE('',*,*,#527,.T.);
#320=ORIENTED_EDGE('',*,*,#530,.T.);
#321=ORIENTED_EDGE('',*,*,#531,.T.);
#322=ORIENTED_EDGE('',*,*,#534,.F.);
#323=ORIENTED_EDGE('',*,*,#535,.T.);
#324=ORIENTED_EDGE('',*,*,#536,.T.);
#325=ORIENTED_EDGE('',*,*,#537,.T.);
#326=ORIENTED_EDGE('',*,*,#538,.T.);
#327=ORIENTED_EDGE('',*,*,#539,.F.);
#328=ORIENTED_EDGE('',*,*,#540,.F.);
#329=ORIENTED_EDGE('',*,*,#541,.F.);
#330=ORIENTED_EDGE('',*,*,#542,.T.);
#331=ORIENTED_EDGE('',*,*,#534,.T.);
#332=ORIENTED_EDGE('',*,*,#543,.T.);
#333=ORIENTED_EDGE('',*,*,#544,.T.);
#334=ORIENTED_EDGE('',*,*,#535,.F.);
#335=ORIENTED_EDGE('',*,*,#542,.F.);
#336=ORIENTED_EDGE('',*,*,#545,.T.);
#337=ORIENTED_EDGE('',*,*,#546,.T.);
#338=ORIENTED_EDGE('',*,*,#536,.F.);
#339=ORIENTED_EDGE('',*,*,#544,.F.);
#340=ORIENTED_EDGE('',*,*,#547,.T.);
#341=ORIENTED_EDGE('',*,*,#548,.T.);
#342=ORIENTED_EDGE('',*,*,#537,.F.);
#343=ORIENTED_EDGE('',*,*,#546,.F.);
#344=ORIENTED_EDGE('',*,*,#549,.T.);
#345=ORIENTED_EDGE('',*,*,#550,.T.);
#346=ORIENTED_EDGE('',*,*,#538,.F.);
#347=ORIENTED_EDGE('',*,*,#548,.F.);
#348=ORIENTED_EDGE('',*,*,#550,.F.);
#349=ORIENTED_EDGE('',*,*,#551,.F.);
#350=ORIENTED_EDGE('',*,*,#540,.T.);
#351=ORIENTED_EDGE('',*,*,#539,.T.);
#352=ORIENTED_EDGE('',*,*,#552,.F.);
#353=ORIENTED_EDGE('',*,*,#553,.T.);
#354=ORIENTED_EDGE('',*,*,#554,.T.);
#355=ORIENTED_EDGE('',*,*,#489,.T.);
#356=ORIENTED_EDGE('',*,*,#554,.F.);
#357=ORIENTED_EDGE('',*,*,#555,.T.);
#358=ORIENTED_EDGE('',*,*,#556,.T.);
#359=ORIENTED_EDGE('',*,*,#478,.T.);
#360=ORIENTED_EDGE('',*,*,#557,.F.);
#361=ORIENTED_EDGE('',*,*,#558,.T.);
#362=ORIENTED_EDGE('',*,*,#552,.T.);
#363=ORIENTED_EDGE('',*,*,#488,.T.);
#364=ORIENTED_EDGE('',*,*,#559,.F.);
#365=ORIENTED_EDGE('',*,*,#560,.T.);
#366=ORIENTED_EDGE('',*,*,#557,.T.);
#367=ORIENTED_EDGE('',*,*,#487,.T.);
#368=ORIENTED_EDGE('',*,*,#561,.F.);
#369=ORIENTED_EDGE('',*,*,#562,.T.);
#370=ORIENTED_EDGE('',*,*,#559,.T.);
#371=ORIENTED_EDGE('',*,*,#486,.T.);
#372=ORIENTED_EDGE('',*,*,#563,.F.);
#373=ORIENTED_EDGE('',*,*,#564,.T.);
#374=ORIENTED_EDGE('',*,*,#561,.T.);
#375=ORIENTED_EDGE('',*,*,#485,.T.);
#376=ORIENTED_EDGE('',*,*,#565,.F.);
#377=ORIENTED_EDGE('',*,*,#566,.T.);
#378=ORIENTED_EDGE('',*,*,#563,.T.);
#379=ORIENTED_EDGE('',*,*,#484,.T.);
#380=ORIENTED_EDGE('',*,*,#567,.F.);
#381=ORIENTED_EDGE('',*,*,#568,.T.);
#382=ORIENTED_EDGE('',*,*,#565,.T.);
#383=ORIENTED_EDGE('',*,*,#483,.T.);
#384=ORIENTED_EDGE('',*,*,#569,.F.);
#385=ORIENTED_EDGE('',*,*,#570,.T.);
#386=ORIENTED_EDGE('',*,*,#567,.T.);
#387=ORIENTED_EDGE('',*,*,#482,.T.);
#388=ORIENTED_EDGE('',*,*,#571,.F.);
#389=ORIENTED_EDGE('',*,*,#572,.T.);
#390=ORIENTED_EDGE('',*,*,#569,.T.);
#391=ORIENTED_EDGE('',*,*,#481,.T.);
#392=ORIENTED_EDGE('',*,*,#573,.F.);
#393=ORIENTED_EDGE('',*,*,#574,.T.);
#394=ORIENTED_EDGE('',*,*,#571,.T.);
#395=ORIENTED_EDGE('',*,*,#480,.T.);
#396=ORIENTED_EDGE('',*,*,#556,.F.);
#397=ORIENTED_EDGE('',*,*,#575,.T.);
#398=ORIENTED_EDGE('',*,*,#573,.T.);
#399=ORIENTED_EDGE('',*,*,#479,.T.);
#400=ORIENTED_EDGE('',*,*,#471,.T.);
#401=ORIENTED_EDGE('',*,*,#469,.T.);
#402=ORIENTED_EDGE('',*,*,#576,.T.);
#403=ORIENTED_EDGE('',*,*,#577,.T.);
#404=ORIENTED_EDGE('',*,*,#578,.T.);
#405=ORIENTED_EDGE('',*,*,#579,.T.);
#406=ORIENTED_EDGE('',*,*,#580,.T.);
#407=ORIENTED_EDGE('',*,*,#581,.T.);
#408=ORIENTED_EDGE('',*,*,#582,.T.);
#409=ORIENTED_EDGE('',*,*,#583,.T.);
#410=ORIENTED_EDGE('',*,*,#584,.T.);
#411=ORIENTED_EDGE('',*,*,#585,.T.);
#412=ORIENTED_EDGE('',*,*,#586,.T.);
#413=ORIENTED_EDGE('',*,*,#587,.T.);
#414=ORIENTED_EDGE('',*,*,#541,.T.);
#415=ORIENTED_EDGE('',*,*,#551,.T.);
#416=ORIENTED_EDGE('',*,*,#549,.F.);
#417=ORIENTED_EDGE('',*,*,#547,.F.);
#418=ORIENTED_EDGE('',*,*,#545,.F.);
#419=ORIENTED_EDGE('',*,*,#543,.F.);
#420=ORIENTED_EDGE('',*,*,#588,.F.);
#421=ORIENTED_EDGE('',*,*,#570,.F.);
#422=ORIENTED_EDGE('',*,*,#589,.F.);
#423=ORIENTED_EDGE('',*,*,#583,.F.);
#424=ORIENTED_EDGE('',*,*,#589,.T.);
#425=ORIENTED_EDGE('',*,*,#572,.F.);
#426=ORIENTED_EDGE('',*,*,#590,.F.);
#427=ORIENTED_EDGE('',*,*,#584,.F.);
#428=ORIENTED_EDGE('',*,*,#588,.T.);
#429=ORIENTED_EDGE('',*,*,#582,.F.);
#430=ORIENTED_EDGE('',*,*,#591,.F.);
#431=ORIENTED_EDGE('',*,*,#568,.F.);
#432=ORIENTED_EDGE('',*,*,#590,.T.);
#433=ORIENTED_EDGE('',*,*,#574,.F.);
#434=ORIENTED_EDGE('',*,*,#592,.F.);
#435=ORIENTED_EDGE('',*,*,#585,.F.);
#436=ORIENTED_EDGE('',*,*,#591,.T.);
#437=ORIENTED_EDGE('',*,*,#581,.F.);
#438=ORIENTED_EDGE('',*,*,#593,.F.);
#439=ORIENTED_EDGE('',*,*,#566,.F.);
#440=ORIENTED_EDGE('',*,*,#592,.T.);
#441=ORIENTED_EDGE('',*,*,#575,.F.);
#442=ORIENTED_EDGE('',*,*,#594,.F.);
#443=ORIENTED_EDGE('',*,*,#586,.F.);
#444=ORIENTED_EDGE('',*,*,#593,.T.);
#445=ORIENTED_EDGE('',*,*,#580,.F.);
#446=ORIENTED_EDGE('',*,*,#595,.F.);
#447=ORIENTED_EDGE('',*,*,#564,.F.);
#448=ORIENTED_EDGE('',*,*,#594,.T.);
#449=ORIENTED_EDGE('',*,*,#555,.F.);
#450=ORIENTED_EDGE('',*,*,#596,.F.);
#451=ORIENTED_EDGE('',*,*,#587,.F.);
#452=ORIENTED_EDGE('',*,*,#595,.T.);
#453=ORIENTED_EDGE('',*,*,#579,.F.);
#454=ORIENTED_EDGE('',*,*,#597,.F.);
#455=ORIENTED_EDGE('',*,*,#562,.F.);
#456=ORIENTED_EDGE('',*,*,#596,.T.);
#457=ORIENTED_EDGE('',*,*,#553,.F.);
#458=ORIENTED_EDGE('',*,*,#598,.F.);
#459=ORIENTED_EDGE('',*,*,#576,.F.);
#460=ORIENTED_EDGE('',*,*,#597,.T.);
#461=ORIENTED_EDGE('',*,*,#578,.F.);
#462=ORIENTED_EDGE('',*,*,#599,.F.);
#463=ORIENTED_EDGE('',*,*,#560,.F.);
#464=ORIENTED_EDGE('',*,*,#598,.T.);
#465=ORIENTED_EDGE('',*,*,#558,.F.);
#466=ORIENTED_EDGE('',*,*,#599,.T.);
#467=ORIENTED_EDGE('',*,*,#577,.F.);
#468=EDGE_CURVE('',#600,#600,#690,.T.);
#469=EDGE_CURVE('',#601,#601,#691,.F.);
#470=EDGE_CURVE('',#602,#602,#692,.T.);
#471=EDGE_CURVE('',#603,#603,#693,.F.);
#472=EDGE_CURVE('',#604,#605,#694,.T.);
#473=EDGE_CURVE('',#606,#604,#20,.T.);
#474=EDGE_CURVE('',#607,#606,#695,.T.);
#475=EDGE_CURVE('',#605,#607,#21,.T.);
#476=EDGE_CURVE('',#608,#608,#696,.T.);
#477=EDGE_CURVE('',#609,#609,#697,.T.);
#478=EDGE_CURVE('',#610,#611,#22,.T.);
#479=EDGE_CURVE('',#612,#610,#698,.T.);
#480=EDGE_CURVE('',#613,#612,#23,.T.);
#481=EDGE_CURVE('',#614,#613,#699,.T.);
#482=EDGE_CURVE('',#615,#614,#24,.T.);
#483=EDGE_CURVE('',#616,#615,#700,.T.);
#484=EDGE_CURVE('',#617,#616,#25,.T.);
#485=EDGE_CURVE('',#618,#617,#701,.T.);
#486=EDGE_CURVE('',#619,#618,#26,.T.);
#487=EDGE_CURVE('',#620,#619,#702,.T.);
#488=EDGE_CURVE('',#621,#620,#27,.T.);
#489=EDGE_CURVE('',#611,#621,#703,.T.);
#490=EDGE_CURVE('',#622,#622,#704,.T.);
#491=EDGE_CURVE('',#623,#623,#705,.T.);
#492=EDGE_CURVE('',#624,#625,#28,.T.);
#493=EDGE_CURVE('',#625,#626,#706,.T.);
#494=EDGE_CURVE('',#626,#627,#29,.T.);
#495=EDGE_CURVE('',#627,#628,#707,.T.);
#496=EDGE_CURVE('',#628,#629,#30,.T.);
#497=EDGE_CURVE('',#629,#630,#708,.T.);
#498=EDGE_CURVE('',#630,#631,#31,.T.);
#499=EDGE_CURVE('',#631,#624,#709,.T.);
#500=EDGE_CURVE('',#632,#633,#710,.T.);
#501=EDGE_CURVE('',#633,#634,#32,.T.);
#502=EDGE_CURVE('',#634,#635,#711,.T.);
#503=EDGE_CURVE('',#635,#632,#33,.T.);
#504=EDGE_CURVE('',#605,#633,#34,.T.);
#505=EDGE_CURVE('',#604,#632,#35,.T.);
#506=EDGE_CURVE('',#607,#634,#36,.T.);
#507=EDGE_CURVE('',#606,#635,#37,.T.);
#508=EDGE_CURVE('',#631,#636,#38,.T.);
#509=EDGE_CURVE('',#637,#636,#39,.T.);
#510=EDGE_CURVE('',#638,#637,#712,.T.);
#511=EDGE_CURVE('',#638,#639,#40,.T.);
#512=EDGE_CURVE('',#624,#639,#41,.T.);
#513=EDGE_CURVE('',#630,#640,#42,.T.);
#514=EDGE_CURVE('',#641,#640,#43,.T.);
#515=EDGE_CURVE('',#637,#641,#44,.T.);
#516=EDGE_CURVE('',#629,#642,#45,.T.);
#517=EDGE_CURVE('',#643,#642,#46,.T.);
#518=EDGE_CURVE('',#641,#643,#713,.T.);
#519=EDGE_CURVE('',#628,#644,#47,.T.);
#520=EDGE_CURVE('',#645,#644,#48,.T.);
#521=EDGE_CURVE('',#643,#645,#49,.T.);
#522=EDGE_CURVE('',#627,#646,#50,.T.);
#523=EDGE_CURVE('',#647,#646,#51,.T.);
#524=EDGE_CURVE('',#645,#647,#714,.T.);
#525=EDGE_CURVE('',#626,#648,#52,.T.);
#526=EDGE_CURVE('',#649,#648,#53,.T.);
#527=EDGE_CURVE('',#647,#649,#54,.T.);
#528=EDGE_CURVE('',#625,#650,#55,.T.);
#529=EDGE_CURVE('',#651,#650,#56,.T.);
#530=EDGE_CURVE('',#649,#651,#715,.T.);
#531=EDGE_CURVE('',#651,#638,#57,.T.);
#532=EDGE_CURVE('',#652,#652,#716,.F.);
#533=EDGE_CURVE('',#653,#653,#717,.F.);
#534=EDGE_CURVE('',#654,#655,#58,.T.);
#535=EDGE_CURVE('',#654,#656,#59,.T.);
#536=EDGE_CURVE('',#656,#657,#60,.T.);
#537=EDGE_CURVE('',#657,#658,#61,.T.);
#538=EDGE_CURVE('',#658,#659,#62,.T.);
#539=EDGE_CURVE('',#655,#659,#63,.T.);
#540=EDGE_CURVE('',#660,#655,#64,.T.);
#541=EDGE_CURVE('',#661,#660,#65,.T.);
#542=EDGE_CURVE('',#661,#654,#66,.T.);
#543=EDGE_CURVE('',#661,#662,#67,.T.);
#544=EDGE_CURVE('',#662,#656,#68,.T.);
#545=EDGE_CURVE('',#662,#663,#69,.T.);
#546=EDGE_CURVE('',#663,#657,#70,.T.);
#547=EDGE_CURVE('',#663,#664,#71,.T.);
#548=EDGE_CURVE('',#664,#658,#72,.T.);
#549=EDGE_CURVE('',#664,#665,#73,.T.);
#550=EDGE_CURVE('',#665,#659,#74,.T.);
#551=EDGE_CURVE('',#660,#665,#75,.T.);
#552=EDGE_CURVE('',#666,#621,#76,.T.);
#553=EDGE_CURVE('',#666,#667,#718,.T.);
#554=EDGE_CURVE('',#667,#611,#77,.T.);
#555=EDGE_CURVE('',#667,#668,#78,.F.);
#556=EDGE_CURVE('',#668,#610,#79,.T.);
#557=EDGE_CURVE('',#669,#620,#80,.T.);
#558=EDGE_CURVE('',#669,#666,#81,.F.);
#559=EDGE_CURVE('',#670,#619,#82,.T.);
#560=EDGE_CURVE('',#670,#669,#719,.T.);
#561=EDGE_CURVE('',#671,#618,#83,.T.);
#562=EDGE_CURVE('',#671,#670,#84,.F.);
#563=EDGE_CURVE('',#672,#617,#85,.T.);
#564=EDGE_CURVE('',#672,#671,#720,.T.);
#565=EDGE_CURVE('',#673,#616,#86,.T.);
#566=EDGE_CURVE('',#673,#672,#87,.F.);
#567=EDGE_CURVE('',#674,#615,#88,.T.);
#568=EDGE_CURVE('',#674,#673,#721,.T.);
#569=EDGE_CURVE('',#675,#614,#89,.T.);
#570=EDGE_CURVE('',#675,#674,#90,.F.);
#571=EDGE_CURVE('',#676,#613,#91,.T.);
#572=EDGE_CURVE('',#676,#675,#722,.T.);
#573=EDGE_CURVE('',#677,#612,#92,.T.);
#574=EDGE_CURVE('',#677,#676,#93,.F.);
#575=EDGE_CURVE('',#668,#677,#723,.T.);
#576=EDGE_CURVE('',#678,#679,#724,.F.);
#577=EDGE_CURVE('',#679,#680,#94,.T.);
#578=EDGE_CURVE('',#680,#681,#725,.F.);
#579=EDGE_CURVE('',#681,#682,#95,.T.);
#580=EDGE_CURVE('',#682,#683,#726,.F.);
#581=EDGE_CURVE('',#683,#684,#96,.T.);
#582=EDGE_CURVE('',#684,#685,#727,.F.);
#583=EDGE_CURVE('',#685,#686,#97,.T.);
#584=EDGE_CURVE('',#686,#687,#728,.F.);
#585=EDGE_CURVE('',#687,#688,#98,.T.);
#586=EDGE_CURVE('',#688,#689,#729,.F.);
#587=EDGE_CURVE('',#689,#678,#99,.T.);
#588=EDGE_CURVE('',#674,#685,#730,.T.);
#589=EDGE_CURVE('',#686,#675,#731,.T.);
#590=EDGE_CURVE('',#687,#676,#732,.T.);
#591=EDGE_CURVE('',#673,#684,#733,.T.);
#592=EDGE_CURVE('',#688,#677,#734,.T.);
#593=EDGE_CURVE('',#672,#683,#735,.T.);
#594=EDGE_CURVE('',#689,#668,#736,.T.);
#595=EDGE_CURVE('',#671,#682,#737,.T.);
#596=EDGE_CURVE('',#678,#667,#738,.T.);
#597=EDGE_CURVE('',#670,#681,#739,.T.);
#598=EDGE_CURVE('',#679,#666,#740,.T.);
#599=EDGE_CURVE('',#669,#680,#741,.T.);
#600=VERTEX_POINT('',#1374);
#601=VERTEX_POINT('',#1376);
#602=VERTEX_POINT('',#1379);
#603=VERTEX_POINT('',#1381);
#604=VERTEX_POINT('',#1384);
#605=VERTEX_POINT('',#1385);
#606=VERTEX_POINT('',#1387);
#607=VERTEX_POINT('',#1389);
#608=VERTEX_POINT('',#1392);
#609=VERTEX_POINT('',#1394);
#610=VERTEX_POINT('',#1396);
#611=VERTEX_POINT('',#1397);
#612=VERTEX_POINT('',#1399);
#613=VERTEX_POINT('',#1401);
#614=VERTEX_POINT('',#1403);
#615=VERTEX_POINT('',#1405);
#616=VERTEX_POINT('',#1407);
#617=VERTEX_POINT('',#1409);
#618=VERTEX_POINT('',#1411);
#619=VERTEX_POINT('',#1413);
#620=VERTEX_POINT('',#1415);
#621=VERTEX_POINT('',#1417);
#622=VERTEX_POINT('',#1421);
#623=VERTEX_POINT('',#1423);
#624=VERTEX_POINT('',#1425);
#625=VERTEX_POINT('',#1426);
#626=VERTEX_POINT('',#1428);
#627=VERTEX_POINT('',#1430);
#628=VERTEX_POINT('',#1432);
#629=VERTEX_POINT('',#1434);
#630=VERTEX_POINT('',#1436);
#631=VERTEX_POINT('',#1438);
#632=VERTEX_POINT('',#1441);
#633=VERTEX_POINT('',#1442);
#634=VERTEX_POINT('',#1444);
#635=VERTEX_POINT('',#1446);
#636=VERTEX_POINT('',#1458);
#637=VERTEX_POINT('',#1460);
#638=VERTEX_POINT('',#1462);
#639=VERTEX_POINT('',#1464);
#640=VERTEX_POINT('',#1468);
#641=VERTEX_POINT('',#1470);
#642=VERTEX_POINT('',#1474);
#643=VERTEX_POINT('',#1476);
#644=VERTEX_POINT('',#1480);
#645=VERTEX_POINT('',#1482);
#646=VERTEX_POINT('',#1486);
#647=VERTEX_POINT('',#1488);
#648=VERTEX_POINT('',#1492);
#649=VERTEX_POINT('',#1494);
#650=VERTEX_POINT('',#1498);
#651=VERTEX_POINT('',#1500);
#652=VERTEX_POINT('',#1506);
#653=VERTEX_POINT('',#1509);
#654=VERTEX_POINT('',#1514);
#655=VERTEX_POINT('',#1515);
#656=VERTEX_POINT('',#1517);
#657=VERTEX_POINT('',#1519);
#658=VERTEX_POINT('',#1521);
#659=VERTEX_POINT('',#1523);
#660=VERTEX_POINT('',#1527);
#661=VERTEX_POINT('',#1529);
#662=VERTEX_POINT('',#1533);
#663=VERTEX_POINT('',#1537);
#664=VERTEX_POINT('',#1541);
#665=VERTEX_POINT('',#1545);
#666=VERTEX_POINT('',#1551);
#667=VERTEX_POINT('',#1553);
#668=VERTEX_POINT('',#1557);
#669=VERTEX_POINT('',#1561);
#670=VERTEX_POINT('',#1565);
#671=VERTEX_POINT('',#1569);
#672=VERTEX_POINT('',#1573);
#673=VERTEX_POINT('',#1577);
#674=VERTEX_POINT('',#1581);
#675=VERTEX_POINT('',#1585);
#676=VERTEX_POINT('',#1589);
#677=VERTEX_POINT('',#1593);
#678=VERTEX_POINT('',#1601);
#679=VERTEX_POINT('',#1602);
#680=VERTEX_POINT('',#1604);
#681=VERTEX_POINT('',#1606);
#682=VERTEX_POINT('',#1608);
#683=VERTEX_POINT('',#1610);
#684=VERTEX_POINT('',#1612);
#685=VERTEX_POINT('',#1614);
#686=VERTEX_POINT('',#1616);
#687=VERTEX_POINT('',#1618);
#688=VERTEX_POINT('',#1620);
#689=VERTEX_POINT('',#1622);
#690=CIRCLE('',#972,0.0006);
#691=CIRCLE('',#973,0.0006);
#692=CIRCLE('',#975,0.0006);
#693=CIRCLE('',#976,0.0006);
#694=CIRCLE('',#978,0.006);
#695=CIRCLE('',#979,0.006);
#696=CIRCLE('',#980,0.002);
#697=CIRCLE('',#981,0.002);
#698=CIRCLE('',#982,0.0004746);
#699=CIRCLE('',#983,0.0004746);
#700=CIRCLE('',#984,0.0004746);
#701=CIRCLE('',#985,0.0004746);
#702=CIRCLE('',#986,0.000474599999999994);
#703=CIRCLE('',#987,0.000474600000000011);
#704=CIRCLE('',#989,0.001143);
#705=CIRCLE('',#990,0.001143);
#706=CIRCLE('',#991,0.0015);
#707=CIRCLE('',#992,0.0015);
#708=CIRCLE('',#993,0.0015);
#709=CIRCLE('',#994,0.0015);
#710=CIRCLE('',#995,0.006);
#711=CIRCLE('',#996,0.006);
#712=CIRCLE('',#1002,0.0015);
#713=CIRCLE('',#1005,0.0015);
#714=CIRCLE('',#1008,0.0015);
#715=CIRCLE('',#1011,0.0015);
#716=CIRCLE('',#1014,0.001143);
#717=CIRCLE('',#1016,0.001143);
#718=CIRCLE('',#1027,0.000474600000000011);
#719=CIRCLE('',#1031,0.000474599999999994);
#720=CIRCLE('',#1034,0.0004746);
#721=CIRCLE('',#1037,0.0004746);
#722=CIRCLE('',#1040,0.0004746);
#723=CIRCLE('',#1043,0.0004746);
#724=CIRCLE('',#1047,4.53528286100747E-5);
#725=CIRCLE('',#1048,4.53528286100579E-5);
#726=CIRCLE('',#1049,4.53528286100619E-5);
#727=CIRCLE('',#1050,4.53528286100632E-5);
#728=CIRCLE('',#1051,4.53528286100645E-5);
#729=CIRCLE('',#1052,4.53528286100641E-5);
#730=CIRCLE('',#1054,0.000429247171389937);
#731=CIRCLE('',#1055,0.000429247171389937);
#732=CIRCLE('',#1057,0.000429247171389937);
#733=CIRCLE('',#1059,0.000429247171389937);
#734=CIRCLE('',#1061,0.000429247171389937);
#735=CIRCLE('',#1063,0.000429247171389937);
#736=CIRCLE('',#1065,0.000429247171389937);
#737=CIRCLE('',#1067,0.000429247171389937);
#738=CIRCLE('',#1069,0.000429247171389937);
#739=CIRCLE('',#1071,0.000429247171389937);
#740=CIRCLE('',#1073,0.000429247171389937);
#741=CIRCLE('',#1075,0.000429247171389937);
#742=EDGE_LOOP('',(#204));
#743=EDGE_LOOP('',(#205));
#744=EDGE_LOOP('',(#206));
#745=EDGE_LOOP('',(#207));
#746=EDGE_LOOP('',(#208,#209,#210,#211));
#747=EDGE_LOOP('',(#212));
#748=EDGE_LOOP('',(#213));
#749=EDGE_LOOP('',(#214,#215,#216,#217,#218,#219,#220,#221,#222,#223,#224,
#225));
#750=EDGE_LOOP('',(#226));
#751=EDGE_LOOP('',(#227));
#752=EDGE_LOOP('',(#228,#229,#230,#231,#232,#233,#234,#235));
#753=EDGE_LOOP('',(#236,#237,#238,#239));
#754=EDGE_LOOP('',(#240,#241,#242,#243));
#755=EDGE_LOOP('',(#244,#245,#246,#247));
#756=EDGE_LOOP('',(#248,#249,#250,#251));
#757=EDGE_LOOP('',(#252,#253,#254,#255));
#758=EDGE_LOOP('',(#256,#257,#258,#259,#260,#261));
#759=EDGE_LOOP('',(#262));
#760=EDGE_LOOP('',(#263,#264,#265,#266,#267,#268));
#761=EDGE_LOOP('',(#269,#270,#271,#272,#273,#274));
#762=EDGE_LOOP('',(#275,#276,#277,#278,#279,#280));
#763=EDGE_LOOP('',(#281,#282,#283,#284,#285,#286));
#764=EDGE_LOOP('',(#287));
#765=EDGE_LOOP('',(#288,#289,#290,#291,#292,#293));
#766=EDGE_LOOP('',(#294,#295,#296,#297,#298,#299));
#767=EDGE_LOOP('',(#300,#301,#302,#303,#304,#305));
#768=EDGE_LOOP('',(#306));
#769=EDGE_LOOP('',(#307));
#770=EDGE_LOOP('',(#308));
#771=EDGE_LOOP('',(#309));
#772=EDGE_LOOP('',(#310));
#773=EDGE_LOOP('',(#311));
#774=EDGE_LOOP('',(#312));
#775=EDGE_LOOP('',(#313));
#776=EDGE_LOOP('',(#314,#315,#316,#317,#318,#319,#320,#321));
#777=EDGE_LOOP('',(#322,#323,#324,#325,#326,#327));
#778=EDGE_LOOP('',(#328,#329,#330,#331));
#779=EDGE_LOOP('',(#332,#333,#334,#335));
#780=EDGE_LOOP('',(#336,#337,#338,#339));
#781=EDGE_LOOP('',(#340,#341,#342,#343));
#782=EDGE_LOOP('',(#344,#345,#346,#347));
#783=EDGE_LOOP('',(#348,#349,#350,#351));
#784=EDGE_LOOP('',(#352,#353,#354,#355));
#785=EDGE_LOOP('',(#356,#357,#358,#359));
#786=EDGE_LOOP('',(#360,#361,#362,#363));
#787=EDGE_LOOP('',(#364,#365,#366,#367));
#788=EDGE_LOOP('',(#368,#369,#370,#371));
#789=EDGE_LOOP('',(#372,#373,#374,#375));
#790=EDGE_LOOP('',(#376,#377,#378,#379));
#791=EDGE_LOOP('',(#380,#381,#382,#383));
#792=EDGE_LOOP('',(#384,#385,#386,#387));
#793=EDGE_LOOP('',(#388,#389,#390,#391));
#794=EDGE_LOOP('',(#392,#393,#394,#395));
#795=EDGE_LOOP('',(#396,#397,#398,#399));
#796=EDGE_LOOP('',(#400));
#797=EDGE_LOOP('',(#401));
#798=EDGE_LOOP('',(#402,#403,#404,#405,#406,#407,#408,#409,#410,#411,#412,
#413));
#799=EDGE_LOOP('',(#414,#415,#416,#417,#418,#419));
#800=EDGE_LOOP('',(#420,#421,#422,#423));
#801=EDGE_LOOP('',(#424,#425,#426,#427));
#802=EDGE_LOOP('',(#428,#429,#430,#431));
#803=EDGE_LOOP('',(#432,#433,#434,#435));
#804=EDGE_LOOP('',(#436,#437,#438,#439));
#805=EDGE_LOOP('',(#440,#441,#442,#443));
#806=EDGE_LOOP('',(#444,#445,#446,#447));
#807=EDGE_LOOP('',(#448,#449,#450,#451));
#808=EDGE_LOOP('',(#452,#453,#454,#455));
#809=EDGE_LOOP('',(#456,#457,#458,#459));
#810=EDGE_LOOP('',(#460,#461,#462,#463));
#811=EDGE_LOOP('',(#464,#465,#466,#467));
#812=FACE_BOUND('',#742,.T.);
#813=FACE_BOUND('',#743,.T.);
#814=FACE_BOUND('',#744,.T.);
#815=FACE_BOUND('',#745,.T.);
#816=FACE_BOUND('',#746,.T.);
#817=FACE_BOUND('',#747,.T.);
#818=FACE_BOUND('',#748,.T.);
#819=FACE_BOUND('',#749,.T.);
#820=FACE_BOUND('',#750,.T.);
#821=FACE_BOUND('',#751,.T.);
#822=FACE_BOUND('',#752,.T.);
#823=FACE_BOUND('',#753,.T.);
#824=FACE_BOUND('',#754,.T.);
#825=FACE_BOUND('',#755,.T.);
#826=FACE_BOUND('',#756,.T.);
#827=FACE_BOUND('',#757,.T.);
#828=FACE_BOUND('',#758,.T.);
#829=FACE_BOUND('',#759,.T.);
#830=FACE_BOUND('',#760,.T.);
#831=FACE_BOUND('',#761,.T.);
#832=FACE_BOUND('',#762,.T.);
#833=FACE_BOUND('',#763,.T.);
#834=FACE_BOUND('',#764,.T.);
#835=FACE_BOUND('',#765,.T.);
#836=FACE_BOUND('',#766,.T.);
#837=FACE_BOUND('',#767,.T.);
#838=FACE_BOUND('',#768,.T.);
#839=FACE_BOUND('',#769,.T.);
#840=FACE_BOUND('',#770,.T.);
#841=FACE_BOUND('',#771,.T.);
#842=FACE_BOUND('',#772,.T.);
#843=FACE_BOUND('',#773,.T.);
#844=FACE_BOUND('',#774,.T.);
#845=FACE_BOUND('',#775,.T.);
#846=FACE_BOUND('',#776,.T.);
#847=FACE_BOUND('',#777,.T.);
#848=FACE_BOUND('',#778,.T.);
#849=FACE_BOUND('',#779,.T.);
#850=FACE_BOUND('',#780,.T.);
#851=FACE_BOUND('',#781,.T.);
#852=FACE_BOUND('',#782,.T.);
#853=FACE_BOUND('',#783,.T.);
#854=FACE_BOUND('',#784,.T.);
#855=FACE_BOUND('',#785,.T.);
#856=FACE_BOUND('',#786,.T.);
#857=FACE_BOUND('',#787,.T.);
#858=FACE_BOUND('',#788,.T.);
#859=FACE_BOUND('',#789,.T.);
#860=FACE_BOUND('',#790,.T.);
#861=FACE_BOUND('',#791,.T.);
#862=FACE_BOUND('',#792,.T.);
#863=FACE_BOUND('',#793,.T.);
#864=FACE_BOUND('',#794,.T.);
#865=FACE_BOUND('',#795,.T.);
#866=FACE_BOUND('',#796,.T.);
#867=FACE_BOUND('',#797,.T.);
#868=FACE_BOUND('',#798,.T.);
#869=FACE_BOUND('',#799,.T.);
#870=FACE_BOUND('',#800,.T.);
#871=FACE_BOUND('',#801,.T.);
#872=FACE_BOUND('',#802,.T.);
#873=FACE_BOUND('',#803,.T.);
#874=FACE_BOUND('',#804,.T.);
#875=FACE_BOUND('',#805,.T.);
#876=FACE_BOUND('',#806,.T.);
#877=FACE_BOUND('',#807,.T.);
#878=FACE_BOUND('',#808,.T.);
#879=FACE_BOUND('',#809,.T.);
#880=FACE_BOUND('',#810,.T.);
#881=FACE_BOUND('',#811,.T.);
#882=CYLINDRICAL_SURFACE('',#971,0.0006);
#883=CYLINDRICAL_SURFACE('',#974,0.0006);
#884=CYLINDRICAL_SURFACE('',#997,0.006);
#885=CYLINDRICAL_SURFACE('',#999,0.006);
#886=CYLINDRICAL_SURFACE('',#1001,0.0015);
#887=CYLINDRICAL_SURFACE('',#1004,0.0015);
#888=CYLINDRICAL_SURFACE('',#1007,0.0015);
#889=CYLINDRICAL_SURFACE('',#1010,0.0015);
#890=CYLINDRICAL_SURFACE('',#1017,0.001143);
#891=CYLINDRICAL_SURFACE('',#1018,0.001143);
#892=CYLINDRICAL_SURFACE('',#1026,0.000474600000000011);
#893=CYLINDRICAL_SURFACE('',#1030,0.000474599999999994);
#894=CYLINDRICAL_SURFACE('',#1033,0.0004746);
#895=CYLINDRICAL_SURFACE('',#1036,0.0004746);
#896=CYLINDRICAL_SURFACE('',#1039,0.0004746);
#897=CYLINDRICAL_SURFACE('',#1042,0.0004746);
#898=CYLINDRICAL_SURFACE('',#1053,0.000429247171389937);
#899=CYLINDRICAL_SURFACE('',#1060,0.000429247171389937);
#900=CYLINDRICAL_SURFACE('',#1062,0.000429247171389937);
#901=CYLINDRICAL_SURFACE('',#1068,0.000429247171389937);
#902=CYLINDRICAL_SURFACE('',#1070,0.000429247171389937);
#903=CYLINDRICAL_SURFACE('',#1076,0.000429247171389937);
#904=ADVANCED_FACE('',(#812,#813),#882,.F.);
#905=ADVANCED_FACE('',(#814,#815),#883,.F.);
#906=ADVANCED_FACE('',(#816,#817,#818,#819),#180,.F.);
#907=ADVANCED_FACE('',(#820,#821,#822,#823),#181,.T.);
#908=ADVANCED_FACE('',(#824),#884,.T.);
#909=ADVANCED_FACE('',(#825),#182,.T.);
#910=ADVANCED_FACE('',(#826),#885,.T.);
#911=ADVANCED_FACE('',(#827),#183,.T.);
#912=ADVANCED_FACE('',(#828),#886,.T.);
#913=ADVANCED_FACE('',(#829,#830),#184,.T.);
#914=ADVANCED_FACE('',(#831),#887,.T.);
#915=ADVANCED_FACE('',(#832),#185,.T.);
#916=ADVANCED_FACE('',(#833),#888,.T.);
#917=ADVANCED_FACE('',(#834,#835),#186,.T.);
#918=ADVANCED_FACE('',(#836),#889,.T.);
#919=ADVANCED_FACE('',(#837),#187,.T.);
#920=ADVANCED_FACE('',(#838,#839),#18,.F.);
#921=ADVANCED_FACE('',(#840,#841),#19,.F.);
#922=ADVANCED_FACE('',(#842,#843),#890,.F.);
#923=ADVANCED_FACE('',(#844,#845),#891,.F.);
#924=ADVANCED_FACE('',(#846,#847),#188,.T.);
#925=ADVANCED_FACE('',(#848),#189,.F.);
#926=ADVANCED_FACE('',(#849),#190,.T.);
#927=ADVANCED_FACE('',(#850),#191,.T.);
#928=ADVANCED_FACE('',(#851),#192,.T.);
#929=ADVANCED_FACE('',(#852),#193,.T.);
#930=ADVANCED_FACE('',(#853),#194,.F.);
#931=ADVANCED_FACE('',(#854),#892,.F.);
#932=ADVANCED_FACE('',(#855),#195,.F.);
#933=ADVANCED_FACE('',(#856),#196,.F.);
#934=ADVANCED_FACE('',(#857),#893,.F.);
#935=ADVANCED_FACE('',(#858),#197,.F.);
#936=ADVANCED_FACE('',(#859),#894,.F.);
#937=ADVANCED_FACE('',(#860),#198,.F.);
#938=ADVANCED_FACE('',(#861),#895,.F.);
#939=ADVANCED_FACE('',(#862),#199,.F.);
#940=ADVANCED_FACE('',(#863),#896,.F.);
#941=ADVANCED_FACE('',(#864),#200,.F.);
#942=ADVANCED_FACE('',(#865),#897,.F.);
#943=ADVANCED_FACE('',(#866),#201,.F.);
#944=ADVANCED_FACE('',(#867),#202,.F.);
#945=ADVANCED_FACE('',(#868,#869),#203,.F.);
#946=ADVANCED_FACE('',(#870),#898,.F.);
#947=ADVANCED_FACE('',(#871),#12,.F.);
#948=ADVANCED_FACE('',(#872),#13,.F.);
#949=ADVANCED_FACE('',(#873),#899,.F.);
#950=ADVANCED_FACE('',(#874),#900,.F.);
#951=ADVANCED_FACE('',(#875),#14,.F.);
#952=ADVANCED_FACE('',(#876),#15,.F.);
#953=ADVANCED_FACE('',(#877),#901,.F.);
#954=ADVANCED_FACE('',(#878),#902,.F.);
#955=ADVANCED_FACE('',(#879),#16,.F.);
#956=ADVANCED_FACE('',(#880),#17,.F.);
#957=ADVANCED_FACE('',(#881),#903,.F.);
#958=CLOSED_SHELL('',(#904,#905,#906,#907,#908,#909,#910,#911,#912,#913,
#914,#915,#916,#917,#918,#919,#920,#921,#922,#923,#924,#925,#926,#927,#928,
#929,#930,#931,#932,#933,#934,#935,#936,#937,#938,#939,#940,#941,#942,#943,
#944,#945,#946,#947,#948,#949,#950,#951,#952,#953,#954,#955,#956,#957));
#959=STYLED_ITEM('',(#960),#967);
#960=PRESENTATION_STYLE_ASSIGNMENT((#961));
#961=SURFACE_STYLE_USAGE(.BOTH.,#962);
#962=SURFACE_SIDE_STYLE('',(#963));
#963=SURFACE_STYLE_FILL_AREA(#964);
#964=FILL_AREA_STYLE('',(#965));
#965=FILL_AREA_STYLE_COLOUR('',#966);
#966=COLOUR_RGB('',0.0745098039215686,0.588235294117647,0.945098039215686);
#967=MANIFOLD_SOLID_BREP('XT30_Rahmen_1-Fach',#958);
#968=SHAPE_DEFINITION_REPRESENTATION(#1654,#969);
#969=SHAPE_REPRESENTATION('XT30_Rahmen_1-Fach',(#970),#1649);
#970=AXIS2_PLACEMENT_3D('',#1371,#1077,#1078);
#971=AXIS2_PLACEMENT_3D('',#1372,#1079,#1080);
#972=AXIS2_PLACEMENT_3D('',#1373,#1081,#1082);
#973=AXIS2_PLACEMENT_3D('',#1375,#1083,#1084);
#974=AXIS2_PLACEMENT_3D('',#1377,#1085,#1086);
#975=AXIS2_PLACEMENT_3D('',#1378,#1087,#1088);
#976=AXIS2_PLACEMENT_3D('',#1380,#1089,#1090);
#977=AXIS2_PLACEMENT_3D('',#1382,#1091,#1092);
#978=AXIS2_PLACEMENT_3D('',#1383,#1093,#1094);
#979=AXIS2_PLACEMENT_3D('',#1388,#1096,#1097);
#980=AXIS2_PLACEMENT_3D('',#1391,#1099,#1100);
#981=AXIS2_PLACEMENT_3D('',#1393,#1101,#1102);
#982=AXIS2_PLACEMENT_3D('',#1398,#1104,#1105);
#983=AXIS2_PLACEMENT_3D('',#1402,#1107,#1108);
#984=AXIS2_PLACEMENT_3D('',#1406,#1110,#1111);
#985=AXIS2_PLACEMENT_3D('',#1410,#1113,#1114);
#986=AXIS2_PLACEMENT_3D('',#1414,#1116,#1117);
#987=AXIS2_PLACEMENT_3D('',#1418,#1119,#1120);
#988=AXIS2_PLACEMENT_3D('',#1419,#1121,#1122);
#989=AXIS2_PLACEMENT_3D('',#1420,#1123,#1124);
#990=AXIS2_PLACEMENT_3D('',#1422,#1125,#1126);
#991=AXIS2_PLACEMENT_3D('',#1427,#1128,#1129);
#992=AXIS2_PLACEMENT_3D('',#1431,#1131,#1132);
#993=AXIS2_PLACEMENT_3D('',#1435,#1134,#1135);
#994=AXIS2_PLACEMENT_3D('',#1439,#1137,#1138);
#995=AXIS2_PLACEMENT_3D('',#1440,#1139,#1140);
#996=AXIS2_PLACEMENT_3D('',#1445,#1142,#1143);
#997=AXIS2_PLACEMENT_3D('',#1448,#1145,#1146);
#998=AXIS2_PLACEMENT_3D('',#1451,#1149,#1150);
#999=AXIS2_PLACEMENT_3D('',#1453,#1152,#1153);
#1000=AXIS2_PLACEMENT_3D('',#1455,#1155,#1156);
#1001=AXIS2_PLACEMENT_3D('',#1456,#1157,#1158);
#1002=AXIS2_PLACEMENT_3D('',#1461,#1161,#1162);
#1003=AXIS2_PLACEMENT_3D('',#1466,#1165,#1166);
#1004=AXIS2_PLACEMENT_3D('',#1472,#1170,#1171);
#1005=AXIS2_PLACEMENT_3D('',#1477,#1174,#1175);
#1006=AXIS2_PLACEMENT_3D('',#1478,#1176,#1177);
#1007=AXIS2_PLACEMENT_3D('',#1484,#1181,#1182);
#1008=AXIS2_PLACEMENT_3D('',#1489,#1185,#1186);
#1009=AXIS2_PLACEMENT_3D('',#1490,#1187,#1188);
#1010=AXIS2_PLACEMENT_3D('',#1496,#1192,#1193);
#1011=AXIS2_PLACEMENT_3D('',#1501,#1196,#1197);
#1012=AXIS2_PLACEMENT_3D('',#1502,#1198,#1199);
#1013=AXIS2_PLACEMENT_3D('',#1504,#1201,#1202);
#1014=AXIS2_PLACEMENT_3D('',#1505,#1203,#1204);
#1015=AXIS2_PLACEMENT_3D('',#1507,#1205,#1206);
#1016=AXIS2_PLACEMENT_3D('',#1508,#1207,#1208);
#1017=AXIS2_PLACEMENT_3D('',#1510,#1209,#1210);
#1018=AXIS2_PLACEMENT_3D('',#1511,#1211,#1212);
#1019=AXIS2_PLACEMENT_3D('',#1512,#1213,#1214);
#1020=AXIS2_PLACEMENT_3D('',#1525,#1221,#1222);
#1021=AXIS2_PLACEMENT_3D('',#1531,#1226,#1227);
#1022=AXIS2_PLACEMENT_3D('',#1535,#1230,#1231);
#1023=AXIS2_PLACEMENT_3D('',#1539,#1234,#1235);
#1024=AXIS2_PLACEMENT_3D('',#1543,#1238,#1239);
#1025=AXIS2_PLACEMENT_3D('',#1547,#1242,#1243);
#1026=AXIS2_PLACEMENT_3D('',#1549,#1245,#1246);
#1027=AXIS2_PLACEMENT_3D('',#1552,#1248,#1249);
#1028=AXIS2_PLACEMENT_3D('',#1555,#1251,#1252);
#1029=AXIS2_PLACEMENT_3D('',#1559,#1255,#1256);
#1030=AXIS2_PLACEMENT_3D('',#1563,#1259,#1260);
#1031=AXIS2_PLACEMENT_3D('',#1566,#1262,#1263);
#1032=AXIS2_PLACEMENT_3D('',#1567,#1264,#1265);
#1033=AXIS2_PLACEMENT_3D('',#1571,#1268,#1269);
#1034=AXIS2_PLACEMENT_3D('',#1574,#1271,#1272);
#1035=AXIS2_PLACEMENT_3D('',#1575,#1273,#1274);
#1036=AXIS2_PLACEMENT_3D('',#1579,#1277,#1278);
#1037=AXIS2_PLACEMENT_3D('',#1582,#1280,#1281);
#1038=AXIS2_PLACEMENT_3D('',#1583,#1282,#1283);
#1039=AXIS2_PLACEMENT_3D('',#1587,#1286,#1287);
#1040=AXIS2_PLACEMENT_3D('',#1590,#1289,#1290);
#1041=AXIS2_PLACEMENT_3D('',#1591,#1291,#1292);
#1042=AXIS2_PLACEMENT_3D('',#1595,#1295,#1296);
#1043=AXIS2_PLACEMENT_3D('',#1596,#1297,#1298);
#1044=AXIS2_PLACEMENT_3D('',#1597,#1299,#1300);
#1045=AXIS2_PLACEMENT_3D('',#1598,#1301,#1302);
#1046=AXIS2_PLACEMENT_3D('',#1599,#1303,#1304);
#1047=AXIS2_PLACEMENT_3D('',#1600,#1305,#1306);
#1048=AXIS2_PLACEMENT_3D('',#1605,#1308,#1309);
#1049=AXIS2_PLACEMENT_3D('',#1609,#1311,#1312);
#1050=AXIS2_PLACEMENT_3D('',#1613,#1314,#1315);
#1051=AXIS2_PLACEMENT_3D('',#1617,#1317,#1318);
#1052=AXIS2_PLACEMENT_3D('',#1621,#1320,#1321);
#1053=AXIS2_PLACEMENT_3D('',#1624,#1323,#1324);
#1054=AXIS2_PLACEMENT_3D('',#1625,#1325,#1326);
#1055=AXIS2_PLACEMENT_3D('',#1626,#1327,#1328);
#1056=AXIS2_PLACEMENT_3D('',#1627,#1329,#1330);
#1057=AXIS2_PLACEMENT_3D('',#1628,#1331,#1332);
#1058=AXIS2_PLACEMENT_3D('',#1629,#1333,#1334);
#1059=AXIS2_PLACEMENT_3D('',#1630,#1335,#1336);
#1060=AXIS2_PLACEMENT_3D('',#1631,#1337,#1338);
#1061=AXIS2_PLACEMENT_3D('',#1632,#1339,#1340);
#1062=AXIS2_PLACEMENT_3D('',#1633,#1341,#1342);
#1063=AXIS2_PLACEMENT_3D('',#1634,#1343,#1344);
#1064=AXIS2_PLACEMENT_3D('',#1635,#1345,#1346);
#1065=AXIS2_PLACEMENT_3D('',#1636,#1347,#1348);
#1066=AXIS2_PLACEMENT_3D('',#1637,#1349,#1350);
#1067=AXIS2_PLACEMENT_3D('',#1638,#1351,#1352);
#1068=AXIS2_PLACEMENT_3D('',#1639,#1353,#1354);
#1069=AXIS2_PLACEMENT_3D('',#1640,#1355,#1356);
#1070=AXIS2_PLACEMENT_3D('',#1641,#1357,#1358);
#1071=AXIS2_PLACEMENT_3D('',#1642,#1359,#1360);
#1072=AXIS2_PLACEMENT_3D('',#1643,#1361,#1362);
#1073=AXIS2_PLACEMENT_3D('',#1644,#1363,#1364);
#1074=AXIS2_PLACEMENT_3D('',#1645,#1365,#1366);
#1075=AXIS2_PLACEMENT_3D('',#1646,#1367,#1368);
#1076=AXIS2_PLACEMENT_3D('',#1647,#1369,#1370);
#1077=DIRECTION('',(0.,0.,1.));
#1078=DIRECTION('',(1.,0.,0.));
#1079=DIRECTION('',(-1.,5.78241158658936E-17,0.));
#1080=DIRECTION('',(5.78241158658936E-17,1.,0.));
#1081=DIRECTION('',(1.,5.78241158658936E-17,0.));
#1082=DIRECTION('',(5.78241158658936E-17,1.,0.));
#1083=DIRECTION('',(1.,0.,0.));
#1084=DIRECTION('',(0.,0.,-1.));
#1085=DIRECTION('',(-1.,5.78241158658936E-17,0.));
#1086=DIRECTION('',(5.78241158658936E-17,1.,0.));
#1087=DIRECTION('',(-1.,5.78241158658936E-17,0.));
#1088=DIRECTION('',(5.78241158658936E-17,1.,0.));
#1089=DIRECTION('',(-1.,0.,0.));
#1090=DIRECTION('',(0.,0.,1.));
#1091=DIRECTION('',(0.,0.,1.));
#1092=DIRECTION('',(1.,0.,0.));
#1093=DIRECTION('',(0.,0.,1.));
#1094=DIRECTION('',(-1.,1.85037170770859E-16,0.));
#1095=DIRECTION('',(0.,-1.,0.));
#1096=DIRECTION('',(0.,0.,1.));
#1097=DIRECTION('',(1.,1.85037170770859E-16,0.));
#1098=DIRECTION('',(0.,1.,0.));
#1099=DIRECTION('',(0.,0.,1.));
#1100=DIRECTION('',(-1.,0.,0.));
#1101=DIRECTION('',(0.,0.,1.));
#1102=DIRECTION('',(-1.,0.,0.));
#1103=DIRECTION('',(0.,1.,0.));
#1104=DIRECTION('',(0.,0.,-1.));
#1105=DIRECTION('',(-1.,0.,0.));
#1106=DIRECTION('',(-1.,0.,0.));
#1107=DIRECTION('',(0.,0.,-1.));
#1108=DIRECTION('',(-1.,0.,0.));
#1109=DIRECTION('',(0.,-1.,0.));
#1110=DIRECTION('',(0.,0.,-1.));
#1111=DIRECTION('',(-1.,0.,0.));
#1112=DIRECTION('',(0.707106781186548,-0.707106781186548,0.));
#1113=DIRECTION('',(0.,0.,-1.));
#1114=DIRECTION('',(-1.,0.,0.));
#1115=DIRECTION('',(1.,0.,0.));
#1116=DIRECTION('',(0.,0.,-1.));
#1117=DIRECTION('',(-1.,0.,0.));
#1118=DIRECTION('',(0.707106781186547,0.707106781186548,0.));
#1119=DIRECTION('',(0.,0.,-1.));
#1120=DIRECTION('',(-1.,0.,0.));
#1121=DIRECTION('',(0.,0.,1.));
#1122=DIRECTION('',(1.,0.,0.));
#1123=DIRECTION('',(0.,0.,1.));
#1124=DIRECTION('',(1.,0.,0.));
#1125=DIRECTION('',(0.,0.,1.));
#1126=DIRECTION('',(1.,0.,0.));
#1127=DIRECTION('',(1.,0.,0.));
#1128=DIRECTION('',(0.,0.,-1.));
#1129=DIRECTION('',(1.,7.40148683083437E-16,0.));
#1130=DIRECTION('',(-5.78241158658936E-17,-1.,0.));
#1131=DIRECTION('',(0.,0.,-1.));
#1132=DIRECTION('',(3.70074341541719E-16,-1.,0.));
#1133=DIRECTION('',(-1.,0.,0.));
#1134=DIRECTION('',(0.,0.,-1.));
#1135=DIRECTION('',(-1.,0.,0.));
#1136=DIRECTION('',(-5.78241158658936E-17,1.,0.));
#1137=DIRECTION('',(0.,0.,-1.));
#1138=DIRECTION('',(0.,1.,0.));
#1139=DIRECTION('',(0.,0.,1.));
#1140=DIRECTION('',(-1.,1.85037170770859E-16,0.));
#1141=DIRECTION('',(0.,1.,0.));
#1142=DIRECTION('',(0.,0.,1.));
#1143=DIRECTION('',(1.,1.85037170770859E-16,0.));
#1144=DIRECTION('',(0.,-1.,0.));
#1145=DIRECTION('',(0.,0.,1.));
#1146=DIRECTION('',(-1.,1.85037170770859E-16,0.));
#1147=DIRECTION('',(0.,0.,1.));
#1148=DIRECTION('',(0.,0.,1.));
#1149=DIRECTION('',(1.,0.,0.));
#1150=DIRECTION('',(0.,1.,0.));
#1151=DIRECTION('',(0.,0.,1.));
#1152=DIRECTION('',(0.,0.,1.));
#1153=DIRECTION('',(1.,1.85037170770859E-16,0.));
#1154=DIRECTION('',(0.,0.,1.));
#1155=DIRECTION('',(-1.,0.,0.));
#1156=DIRECTION('',(0.,-1.,0.));
#1157=DIRECTION('',(0.,0.,1.));
#1158=DIRECTION('',(0.,1.,0.));
#1159=DIRECTION('',(0.,0.,1.));
#1160=DIRECTION('',(0.,0.,-1.));
#1161=DIRECTION('',(0.,0.,1.));
#1162=DIRECTION('',(0.,1.,0.));
#1163=DIRECTION('',(0.,0.,-1.));
#1164=DIRECTION('',(0.,0.,1.));
#1165=DIRECTION('',(-1.,-5.78241158658936E-17,0.));
#1166=DIRECTION('',(5.78241158658936E-17,-1.,0.));
#1167=DIRECTION('',(0.,0.,1.));
#1168=DIRECTION('',(0.,0.,-1.));
#1169=DIRECTION('',(5.78241158658936E-17,-1.,0.));
#1170=DIRECTION('',(0.,0.,1.));
#1171=DIRECTION('',(-1.,0.,0.));
#1172=DIRECTION('',(0.,0.,1.));
#1173=DIRECTION('',(0.,0.,-1.));
#1174=DIRECTION('',(0.,0.,1.));
#1175=DIRECTION('',(-1.,0.,0.));
#1176=DIRECTION('',(0.,-1.,0.));
#1177=DIRECTION('',(1.,0.,0.));
#1178=DIRECTION('',(0.,0.,1.));
#1179=DIRECTION('',(0.,0.,-1.));
#1180=DIRECTION('',(1.,0.,0.));
#1181=DIRECTION('',(0.,0.,1.));
#1182=DIRECTION('',(3.70074341541719E-16,-1.,0.));
#1183=DIRECTION('',(0.,0.,1.));
#1184=DIRECTION('',(0.,0.,-1.));
#1185=DIRECTION('',(0.,0.,1.));
#1186=DIRECTION('',(3.70074341541719E-16,-1.,0.));
#1187=DIRECTION('',(1.,-5.78241158658936E-17,0.));
#1188=DIRECTION('',(5.78241158658936E-17,1.,0.));
#1189=DIRECTION('',(0.,0.,1.));
#1190=DIRECTION('',(0.,0.,-1.));
#1191=DIRECTION('',(5.78241158658936E-17,1.,0.));
#1192=DIRECTION('',(0.,0.,1.));
#1193=DIRECTION('',(1.,7.40148683083437E-16,0.));
#1194=DIRECTION('',(0.,0.,1.));
#1195=DIRECTION('',(0.,0.,-1.));
#1196=DIRECTION('',(0.,0.,1.));
#1197=DIRECTION('',(1.,7.40148683083437E-16,0.));
#1198=DIRECTION('',(0.,1.,0.));
#1199=DIRECTION('',(-1.,0.,0.));
#1200=DIRECTION('',(-1.,0.,0.));
#1201=DIRECTION('',(0.,0.,-1.));
#1202=DIRECTION('',(-1.,0.,0.));
#1203=DIRECTION('',(0.,0.,-1.));
#1204=DIRECTION('',(-1.,0.,0.));
#1205=DIRECTION('',(0.,0.,-1.));
#1206=DIRECTION('',(-1.,0.,0.));
#1207=DIRECTION('',(0.,0.,-1.));
#1208=DIRECTION('',(-1.,0.,0.));
#1209=DIRECTION('',(0.,0.,-1.));
#1210=DIRECTION('',(-1.,0.,0.));
#1211=DIRECTION('',(0.,0.,-1.));
#1212=DIRECTION('',(-1.,0.,0.));
#1213=DIRECTION('',(0.,0.,1.));
#1214=DIRECTION('',(1.,0.,0.));
#1215=DIRECTION('',(1.,0.,0.));
#1216=DIRECTION('',(0.,1.,0.));
#1217=DIRECTION('',(0.707106781186548,0.707106781186548,0.));
#1218=DIRECTION('',(1.,0.,0.));
#1219=DIRECTION('',(0.707106781186548,-0.707106781186548,0.));
#1220=DIRECTION('',(0.,1.,0.));
#1221=DIRECTION('',(0.,-1.,0.));
#1222=DIRECTION('',(0.,0.,-1.));
#1223=DIRECTION('',(0.,0.,1.));
#1224=DIRECTION('',(1.,0.,0.));
#1225=DIRECTION('',(0.,0.,1.));
#1226=DIRECTION('',(1.,0.,0.));
#1227=DIRECTION('',(0.,0.,-1.));
#1228=DIRECTION('',(0.,1.,0.));
#1229=DIRECTION('',(0.,0.,1.));
#1230=DIRECTION('',(0.707106781186548,-0.707106781186548,0.));
#1231=DIRECTION('',(0.707106781186548,0.707106781186548,0.));
#1232=DIRECTION('',(0.707106781186548,0.707106781186548,0.));
#1233=DIRECTION('',(0.,0.,1.));
#1234=DIRECTION('',(0.,-1.,0.));
#1235=DIRECTION('',(0.,0.,-1.));
#1236=DIRECTION('',(1.,0.,0.));
#1237=DIRECTION('',(0.,0.,1.));
#1238=DIRECTION('',(-0.707106781186548,-0.707106781186548,0.));
#1239=DIRECTION('',(0.707106781186548,-0.707106781186548,0.));
#1240=DIRECTION('',(0.707106781186548,-0.707106781186548,0.));
#1241=DIRECTION('',(0.,0.,1.));
#1242=DIRECTION('',(1.,0.,0.));
#1243=DIRECTION('',(0.,0.,-1.));
#1244=DIRECTION('',(0.,1.,0.));
#1245=DIRECTION('',(0.,0.,-1.));
#1246=DIRECTION('',(-1.,0.,0.));
#1247=DIRECTION('',(0.,0.,-1.));
#1248=DIRECTION('',(0.,0.,1.));
#1249=DIRECTION('',(1.,0.,0.));
#1250=DIRECTION('',(0.,0.,-1.));
#1251=DIRECTION('',(-1.,0.,0.));
#1252=DIRECTION('',(0.,0.,1.));
#1253=DIRECTION('',(0.,1.,0.));
#1254=DIRECTION('',(0.,0.,-1.));
#1255=DIRECTION('',(-0.707106781186548,0.707106781186547,0.));
#1256=DIRECTION('',(-0.707106781186547,-0.707106781186548,0.));
#1257=DIRECTION('',(0.,0.,-1.));
#1258=DIRECTION('',(0.707106781186547,0.707106781186548,0.));
#1259=DIRECTION('',(0.,0.,-1.));
#1260=DIRECTION('',(-1.,0.,0.));
#1261=DIRECTION('',(0.,0.,-1.));
#1262=DIRECTION('',(0.,0.,1.));
#1263=DIRECTION('',(1.,0.,0.));
#1264=DIRECTION('',(0.,1.,0.));
#1265=DIRECTION('',(0.,0.,1.));
#1266=DIRECTION('',(0.,0.,-1.));
#1267=DIRECTION('',(1.,0.,0.));
#1268=DIRECTION('',(0.,0.,-1.));
#1269=DIRECTION('',(-1.,0.,0.));
#1270=DIRECTION('',(0.,0.,-1.));
#1271=DIRECTION('',(0.,0.,1.));
#1272=DIRECTION('',(1.,0.,0.));
#1273=DIRECTION('',(0.707106781186548,0.707106781186548,0.));
#1274=DIRECTION('',(-0.707106781186548,0.707106781186548,0.));
#1275=DIRECTION('',(0.,0.,-1.));
#1276=DIRECTION('',(0.707106781186548,-0.707106781186548,0.));
#1277=DIRECTION('',(0.,0.,-1.));
#1278=DIRECTION('',(-1.,0.,0.));
#1279=DIRECTION('',(0.,0.,-1.));
#1280=DIRECTION('',(0.,0.,1.));
#1281=DIRECTION('',(1.,0.,0.));
#1282=DIRECTION('',(1.,0.,0.));
#1283=DIRECTION('',(0.,0.,-1.));
#1284=DIRECTION('',(0.,0.,-1.));
#1285=DIRECTION('',(0.,-1.,0.));
#1286=DIRECTION('',(0.,0.,-1.));
#1287=DIRECTION('',(-1.,0.,0.));
#1288=DIRECTION('',(0.,0.,-1.));
#1289=DIRECTION('',(0.,0.,1.));
#1290=DIRECTION('',(1.,0.,0.));
#1291=DIRECTION('',(0.,-1.,0.));
#1292=DIRECTION('',(0.,0.,-1.));
#1293=DIRECTION('',(0.,0.,-1.));
#1294=DIRECTION('',(-1.,0.,0.));
#1295=DIRECTION('',(0.,0.,-1.));
#1296=DIRECTION('',(-1.,0.,0.));
#1297=DIRECTION('',(0.,0.,1.));
#1298=DIRECTION('',(1.,0.,0.));
#1299=DIRECTION('',(-1.,0.,0.));
#1300=DIRECTION('',(0.,0.,1.));
#1301=DIRECTION('',(1.,0.,0.));
#1302=DIRECTION('',(0.,0.,-1.));
#1303=DIRECTION('',(0.,0.,1.));
#1304=DIRECTION('',(1.,0.,0.));
#1305=DIRECTION('',(0.,0.,1.));
#1306=DIRECTION('',(1.,0.,0.));
#1307=DIRECTION('',(0.707106781186547,0.707106781186548,0.));
#1308=DIRECTION('',(0.,0.,1.));
#1309=DIRECTION('',(1.,0.,0.));
#1310=DIRECTION('',(1.,0.,0.));
#1311=DIRECTION('',(0.,0.,1.));
#1312=DIRECTION('',(1.,0.,0.));
#1313=DIRECTION('',(0.707106781186548,-0.707106781186548,0.));
#1314=DIRECTION('',(0.,0.,1.));
#1315=DIRECTION('',(1.,0.,0.));
#1316=DIRECTION('',(0.,-1.,0.));
#1317=DIRECTION('',(0.,0.,1.));
#1318=DIRECTION('',(1.,0.,0.));
#1319=DIRECTION('',(-1.,0.,0.));
#1320=DIRECTION('',(0.,0.,1.));
#1321=DIRECTION('',(1.,0.,0.));
#1322=DIRECTION('',(0.,1.,0.));
#1323=DIRECTION('',(0.,1.,0.));
#1324=DIRECTION('',(0.,0.,1.));
#1325=DIRECTION('',(0.,-1.,0.));
#1326=DIRECTION('',(0.,0.,-1.));
#1327=DIRECTION('',(8.08263206655333E-15,1.,0.));
#1328=DIRECTION('',(-1.,8.08263206655334E-15,0.));
#1329=DIRECTION('',(0.,0.,1.));
#1330=DIRECTION('',(1.,0.,0.));
#1331=DIRECTION('',(1.,0.,0.));
#1332=DIRECTION('',(0.,0.,-1.));
#1333=DIRECTION('',(0.,0.,1.));
#1334=DIRECTION('',(1.,0.,0.));
#1335=DIRECTION('',(0.707106781186547,-0.707106781186549,0.));
#1336=DIRECTION('',(0.707106781186549,0.707106781186547,0.));
#1337=DIRECTION('',(1.,0.,0.));
#1338=DIRECTION('',(0.,0.,-1.));
#1339=DIRECTION('',(1.,0.,0.));
#1340=DIRECTION('',(0.,0.,-1.));
#1341=DIRECTION('',(-0.707106781186548,0.707106781186548,0.));
#1342=DIRECTION('',(-0.707106781186548,-0.707106781186548,0.));
#1343=DIRECTION('',(0.707106781186548,-0.707106781186548,-3.57205246505982E-16));
#1344=DIRECTION('',(0.707106781186548,0.707106781186548,0.));
#1345=DIRECTION('',(0.,0.,1.));
#1346=DIRECTION('',(1.,0.,0.));
#1347=DIRECTION('',(0.,-1.,0.));
#1348=DIRECTION('',(0.,0.,-1.));
#1349=DIRECTION('',(0.,0.,1.));
#1350=DIRECTION('',(1.,0.,0.));
#1351=DIRECTION('',(1.,7.07230305823416E-15,0.));
#1352=DIRECTION('',(-7.07230305823416E-15,1.,0.));
#1353=DIRECTION('',(0.,-1.,0.));
#1354=DIRECTION('',(0.,0.,-1.));
#1355=DIRECTION('',(-4.04131603327667E-15,-1.,0.));
#1356=DIRECTION('',(1.,-4.04131603327667E-15,0.));
#1357=DIRECTION('',(-1.,0.,0.));
#1358=DIRECTION('',(0.,0.,1.));
#1359=DIRECTION('',(1.,0.,0.));
#1360=DIRECTION('',(0.,0.,-1.));
#1361=DIRECTION('',(0.,0.,1.));
#1362=DIRECTION('',(1.,0.,0.));
#1363=DIRECTION('',(-0.707106781186547,-0.707106781186548,0.));
#1364=DIRECTION('',(0.707106781186548,-0.707106781186547,0.));
#1365=DIRECTION('',(0.,0.,1.));
#1366=DIRECTION('',(1.,0.,0.));
#1367=DIRECTION('',(0.707106781186546,0.70710678118655,2.50043672554188E-15));
#1368=DIRECTION('',(-0.70710678118655,0.707106781186546,0.));
#1369=DIRECTION('',(-0.707106781186547,-0.707106781186548,0.));
#1370=DIRECTION('',(0.707106781186548,-0.707106781186547,0.));
#1371=CARTESIAN_POINT('',(0.,0.,0.));
#1372=CARTESIAN_POINT('',(-0.00159,6.47051856539349E-19,0.0091));
#1373=CARTESIAN_POINT('',(-0.0038,7.74843152602974E-19,0.0091));
#1374=CARTESIAN_POINT('',(-0.0038,0.000600000000000001,0.0091));
#1375=CARTESIAN_POINT('',(-0.003027,7.30145111038638E-19,0.0091));
#1376=CARTESIAN_POINT('',(-0.003027,7.30145111038638E-19,0.0085));
#1377=CARTESIAN_POINT('',(-0.00159,6.47051856539349E-19,0.0091));
#1378=CARTESIAN_POINT('',(0.0038,3.35379872022183E-19,0.0091));
#1379=CARTESIAN_POINT('',(0.0038,0.0006,0.0091));
#1380=CARTESIAN_POINT('',(0.003027,3.80077913586518E-19,0.0091));
#1381=CARTESIAN_POINT('',(0.003027,3.80077913586518E-19,0.0097));
#1382=CARTESIAN_POINT('',(0.,0.,0.));
#1383=CARTESIAN_POINT('',(3.66433149649604E-19,-0.006,0.));
#1384=CARTESIAN_POINT('',(-0.006,-0.006,0.));
#1385=CARTESIAN_POINT('',(0.006,-0.006,0.));
#1386=CARTESIAN_POINT('',(-0.006,0.006,0.));
#1387=CARTESIAN_POINT('',(-0.006,0.006,0.));
#1388=CARTESIAN_POINT('',(-3.72167562702515E-19,0.006,0.));
#1389=CARTESIAN_POINT('',(0.006,0.006,0.));
#1390=CARTESIAN_POINT('',(0.006,-0.006,0.));
#1391=CARTESIAN_POINT('',(-1.53993418412574E-18,0.009,0.));
#1392=CARTESIAN_POINT('',(-0.002,0.009,0.));
#1393=CARTESIAN_POINT('',(2.8635365491617E-18,-0.009,0.));
#1394=CARTESIAN_POINT('',(-0.002,-0.009,0.));
#1395=CARTESIAN_POINT('',(-0.0028746,-0.00054142135623731,0.));
#1396=CARTESIAN_POINT('',(-0.0028746,-0.0049,0.));
#1397=CARTESIAN_POINT('',(-0.0028746,0.00381715728752538,0.));
#1398=CARTESIAN_POINT('',(-0.0024,-0.0049,0.));
#1399=CARTESIAN_POINT('',(-0.0024,-0.0053746,0.));
#1400=CARTESIAN_POINT('',(0.,-0.0053746,0.));
#1401=CARTESIAN_POINT('',(0.0024,-0.0053746,0.));
#1402=CARTESIAN_POINT('',(0.0024,-0.0049,0.));
#1403=CARTESIAN_POINT('',(0.0028746,-0.0049,0.));
#1404=CARTESIAN_POINT('',(0.0028746,-0.00054142135623731,0.));
#1405=CARTESIAN_POINT('',(0.0028746,0.00381715728752538,0.));
#1406=CARTESIAN_POINT('',(0.0024,0.00381715728752538,0.));
#1407=CARTESIAN_POINT('',(0.00273559287835113,0.00415275016587652,0.));
#1408=CARTESIAN_POINT('',(0.00219417152211383,0.00469417152211383,0.));
#1409=CARTESIAN_POINT('',(0.00165275016587651,0.00523559287835114,0.));
#1410=CARTESIAN_POINT('',(0.00131715728752538,0.0049,0.));
#1411=CARTESIAN_POINT('',(0.00131715728752538,0.0053746,0.));
#1412=CARTESIAN_POINT('',(0.,0.0053746,0.));
#1413=CARTESIAN_POINT('',(-0.00131715728752538,0.0053746,0.));
#1414=CARTESIAN_POINT('',(-0.00131715728752538,0.0049,0.));
#1415=CARTESIAN_POINT('',(-0.00165275016587651,0.00523559287835114,0.));
#1416=CARTESIAN_POINT('',(-0.00219417152211383,0.00469417152211383,0.));
#1417=CARTESIAN_POINT('',(-0.00273559287835113,0.00415275016587652,0.));
#1418=CARTESIAN_POINT('',(-0.0024,0.00381715728752538,0.));
#1419=CARTESIAN_POINT('',(0.,0.,0.0016));
#1420=CARTESIAN_POINT('',(2.81892564846231E-18,-0.009,0.0016));
#1421=CARTESIAN_POINT('',(0.001143,-0.009,0.0016));
#1422=CARTESIAN_POINT('',(-1.51788304147971E-18,0.009,0.0016));
#1423=CARTESIAN_POINT('',(0.001143,0.009,0.0016));
#1424=CARTESIAN_POINT('',(0.00115,0.0063,0.0016));
#1425=CARTESIAN_POINT('',(-0.0023,0.0063,0.0016));
#1426=CARTESIAN_POINT('',(0.0023,0.0063,0.0016));
#1427=CARTESIAN_POINT('',(0.0023,0.0048,0.0016));
#1428=CARTESIAN_POINT('',(0.0038,0.0048,0.0016));
#1429=CARTESIAN_POINT('',(0.0038,-0.0024,0.0016));
#1430=CARTESIAN_POINT('',(0.0038,-0.0048,0.0016));
#1431=CARTESIAN_POINT('',(0.0023,-0.0048,0.0016));
#1432=CARTESIAN_POINT('',(0.0023,-0.0063,0.0016));
#1433=CARTESIAN_POINT('',(-0.00115,-0.0063,0.0016));
#1434=CARTESIAN_POINT('',(-0.0023,-0.0063,0.0016));
#1435=CARTESIAN_POINT('',(-0.0023,-0.0048,0.0016));
#1436=CARTESIAN_POINT('',(-0.0038,-0.0048,0.0016));
#1437=CARTESIAN_POINT('',(-0.0038,0.0024,0.0016));
#1438=CARTESIAN_POINT('',(-0.0038,0.0048,0.0016));
#1439=CARTESIAN_POINT('',(-0.0023,0.0048,0.0016));
#1440=CARTESIAN_POINT('',(3.66433149649604E-19,-0.006,0.0016));
#1441=CARTESIAN_POINT('',(-0.006,-0.006,0.0016));
#1442=CARTESIAN_POINT('',(0.006,-0.006,0.0016));
#1443=CARTESIAN_POINT('',(0.006,-0.006,0.0016));
#1444=CARTESIAN_POINT('',(0.006,0.006,0.0016));
#1445=CARTESIAN_POINT('',(-3.72167562702515E-19,0.006,0.0016));
#1446=CARTESIAN_POINT('',(-0.006,0.006,0.0016));
#1447=CARTESIAN_POINT('',(-0.006,0.006,0.0016));
#1448=CARTESIAN_POINT('',(3.66433149649604E-19,-0.006,0.));
#1449=CARTESIAN_POINT('',(0.006,-0.006,0.));
#1450=CARTESIAN_POINT('',(-0.006,-0.006,0.));
#1451=CARTESIAN_POINT('',(0.006,-0.006,0.));
#1452=CARTESIAN_POINT('',(0.006,0.006,0.));
#1453=CARTESIAN_POINT('',(-3.72167562702515E-19,0.006,0.));
#1454=CARTESIAN_POINT('',(-0.006,0.006,0.));
#1455=CARTESIAN_POINT('',(-0.006,0.006,0.));
#1456=CARTESIAN_POINT('',(-0.0023,0.0048,0.0016));
#1457=CARTESIAN_POINT('',(-0.0038,0.0048,0.0016));
#1458=CARTESIAN_POINT('',(-0.0038,0.0048,0.0106));
#1459=CARTESIAN_POINT('',(-0.0038,0.0048,0.0129622));
#1460=CARTESIAN_POINT('',(-0.0038,0.0048,0.0129622));
#1461=CARTESIAN_POINT('',(-0.0023,0.0048,0.0129622));
#1462=CARTESIAN_POINT('',(-0.0023,0.0063,0.0129622));
#1463=CARTESIAN_POINT('',(-0.0023,0.0063,0.0129622));
#1464=CARTESIAN_POINT('',(-0.0023,0.0063,0.0106));
#1465=CARTESIAN_POINT('',(-0.0023,0.0063,0.0016));
#1466=CARTESIAN_POINT('',(-0.0038,0.0048,0.0016));
#1467=CARTESIAN_POINT('',(-0.0038,-0.0048,0.0016));
#1468=CARTESIAN_POINT('',(-0.0038,-0.0048,0.0106));
#1469=CARTESIAN_POINT('',(-0.0038,-0.0048,0.0129622));
#1470=CARTESIAN_POINT('',(-0.0038,-0.0048,0.0129622));
#1471=CARTESIAN_POINT('',(-0.0038,-0.0048,0.0129622));
#1472=CARTESIAN_POINT('',(-0.0023,-0.0048,0.0016));
#1473=CARTESIAN_POINT('',(-0.0023,-0.0063,0.0016));
#1474=CARTESIAN_POINT('',(-0.0023,-0.0063,0.0106));
#1475=CARTESIAN_POINT('',(-0.0023,-0.0063,0.0129622));
#1476=CARTESIAN_POINT('',(-0.0023,-0.0063,0.0129622));
#1477=CARTESIAN_POINT('',(-0.0023,-0.0048,0.0129622));
#1478=CARTESIAN_POINT('',(-0.0023,-0.0063,0.0016));
#1479=CARTESIAN_POINT('',(0.0023,-0.0063,0.0016));
#1480=CARTESIAN_POINT('',(0.0023,-0.0063,0.0106));
#1481=CARTESIAN_POINT('',(0.0023,-0.0063,0.0129622));
#1482=CARTESIAN_POINT('',(0.0023,-0.0063,0.0129622));
#1483=CARTESIAN_POINT('',(0.0023,-0.0063,0.0129622));
#1484=CARTESIAN_POINT('',(0.0023,-0.0048,0.0016));
#1485=CARTESIAN_POINT('',(0.0038,-0.0048,0.0016));
#1486=CARTESIAN_POINT('',(0.0038,-0.0048,0.0106));
#1487=CARTESIAN_POINT('',(0.0038,-0.0048,0.0129622));
#1488=CARTESIAN_POINT('',(0.0038,-0.0048,0.0129622));
#1489=CARTESIAN_POINT('',(0.0023,-0.0048,0.0129622));
#1490=CARTESIAN_POINT('',(0.0038,-0.0048,0.0016));
#1491=CARTESIAN_POINT('',(0.0038,0.0048,0.0016));
#1492=CARTESIAN_POINT('',(0.0038,0.0048,0.0106));
#1493=CARTESIAN_POINT('',(0.0038,0.0048,0.0129622));
#1494=CARTESIAN_POINT('',(0.0038,0.0048,0.0129622));
#1495=CARTESIAN_POINT('',(0.0038,0.0048,0.0129622));
#1496=CARTESIAN_POINT('',(0.0023,0.0048,0.0016));
#1497=CARTESIAN_POINT('',(0.0023,0.0063,0.0016));
#1498=CARTESIAN_POINT('',(0.0023,0.0063,0.0106));
#1499=CARTESIAN_POINT('',(0.0023,0.0063,0.0129622));
#1500=CARTESIAN_POINT('',(0.0023,0.0063,0.0129622));
#1501=CARTESIAN_POINT('',(0.0023,0.0048,0.0129622));
#1502=CARTESIAN_POINT('',(0.0023,0.0063,0.0016));
#1503=CARTESIAN_POINT('',(-0.0023,0.0063,0.0129622));
#1504=CARTESIAN_POINT('',(2.8635365491617E-18,-0.009,0.000625));
#1505=CARTESIAN_POINT('',(2.8635365491617E-18,-0.009,0.000857));
#1506=CARTESIAN_POINT('',(-0.001143,-0.009,0.000857));
#1507=CARTESIAN_POINT('',(-1.53993418412574E-18,0.009,0.000625));
#1508=CARTESIAN_POINT('',(-1.53993418412574E-18,0.009,0.000857));
#1509=CARTESIAN_POINT('',(-0.001143,0.009,0.000857));
#1510=CARTESIAN_POINT('',(-1.51788304147971E-18,0.009,0.0254));
#1511=CARTESIAN_POINT('',(2.81892564846231E-18,-0.009,0.0254));
#1512=CARTESIAN_POINT('',(0.,1.11022302462516E-18,0.0129622));
#1513=CARTESIAN_POINT('',(0.,-0.004892,0.0129622));
#1514=CARTESIAN_POINT('',(-0.002392,-0.004892,0.0129622));
#1515=CARTESIAN_POINT('',(0.002392,-0.004892,0.0129622));
#1516=CARTESIAN_POINT('',(-0.002392,-0.000539078210486801,0.0129622));
#1517=CARTESIAN_POINT('',(-0.002392,0.0038138435790264,0.0129622));
#1518=CARTESIAN_POINT('',(-0.0018529217895132,0.0043529217895132,0.0129622));
#1519=CARTESIAN_POINT('',(-0.00131333101589347,0.00489221966991411,0.0129622));
#1520=CARTESIAN_POINT('',(-2.16840434497101E-19,0.004892,0.0129622));
#1521=CARTESIAN_POINT('',(0.0013138435790264,0.004892,0.0129622));
#1522=CARTESIAN_POINT('',(0.0018529217895132,0.0043529217895132,0.0129622));
#1523=CARTESIAN_POINT('',(0.002392,0.0038138435790264,0.0129622));
#1524=CARTESIAN_POINT('',(0.002392,-0.000539078210486801,0.0129622));
#1525=CARTESIAN_POINT('',(0.,-0.004892,0.0122002));
#1526=CARTESIAN_POINT('',(0.002392,-0.004892,0.0122002));
#1527=CARTESIAN_POINT('',(0.002392,-0.004892,0.0124542));
#1528=CARTESIAN_POINT('',(0.,-0.004892,0.0124542));
#1529=CARTESIAN_POINT('',(-0.002392,-0.004892,0.0124542));
#1530=CARTESIAN_POINT('',(-0.002392,-0.004892,0.0122002));
#1531=CARTESIAN_POINT('',(-0.002392,-0.000539078210486801,0.0122002));
#1532=CARTESIAN_POINT('',(-0.002392,-0.000539078210486801,0.0124542));
#1533=CARTESIAN_POINT('',(-0.002392,0.0038138435790264,0.0124542));
#1534=CARTESIAN_POINT('',(-0.002392,0.0038138435790264,0.0122002));
#1535=CARTESIAN_POINT('',(-0.0018529217895132,0.0043529217895132,0.0122002));
#1536=CARTESIAN_POINT('',(-0.0018529217895132,0.0043529217895132,0.0124542));
#1537=CARTESIAN_POINT('',(-0.00131340423919818,0.00489218305826176,0.0124542));
#1538=CARTESIAN_POINT('',(-0.00131333101589347,0.00489221966991411,0.0122002));
#1539=CARTESIAN_POINT('',(-2.16840434497101E-19,0.004892,0.0122002));
#1540=CARTESIAN_POINT('',(-2.16840434497101E-19,0.004892,0.0124542));
#1541=CARTESIAN_POINT('',(0.0013138435790264,0.004892,0.0124542));
#1542=CARTESIAN_POINT('',(0.0013138435790264,0.004892,0.0122002));
#1543=CARTESIAN_POINT('',(0.0018529217895132,0.0043529217895132,0.0122002));
#1544=CARTESIAN_POINT('',(0.0018529217895132,0.0043529217895132,0.0124542));
#1545=CARTESIAN_POINT('',(0.002392,0.0038138435790264,0.0124542));
#1546=CARTESIAN_POINT('',(0.002392,0.0038138435790264,0.0122002));
#1547=CARTESIAN_POINT('',(0.002392,-0.000539078210486801,0.0122002));
#1548=CARTESIAN_POINT('',(0.002392,-0.000539078210486801,0.0124542));
#1549=CARTESIAN_POINT('',(-0.0024,0.00381715728752538,0.0122022));
#1550=CARTESIAN_POINT('',(-0.00273559287835113,0.00415275016587652,0.0122022));
#1551=CARTESIAN_POINT('',(-0.00273559287835113,0.00415275016587652,0.0120249528286101));
#1552=CARTESIAN_POINT('',(-0.0024,0.00381715728752538,0.0120249528286101));
#1553=CARTESIAN_POINT('',(-0.0028746,0.00381715728752538,0.0120249528286101));
#1554=CARTESIAN_POINT('',(-0.0028746,0.00381715728752538,0.0122022));
#1555=CARTESIAN_POINT('',(-0.0028746,-0.00054142135623731,0.0122022));
#1556=CARTESIAN_POINT('',(-0.0028746,-0.0049,0.0120249528286101));
#1557=CARTESIAN_POINT('',(-0.0028746,-0.0049,0.0120249528286101));
#1558=CARTESIAN_POINT('',(-0.0028746,-0.0049,0.0122022));
#1559=CARTESIAN_POINT('',(-0.00219417152211383,0.00469417152211383,0.0122022));
#1560=CARTESIAN_POINT('',(-0.00165275016587651,0.00523559287835114,0.0122022));
#1561=CARTESIAN_POINT('',(-0.00165275016587651,0.00523559287835114,0.0120249528286101));
#1562=CARTESIAN_POINT('',(-0.00273559287835113,0.00415275016587652,0.0120249528286101));
#1563=CARTESIAN_POINT('',(-0.00131715728752538,0.0049,0.0122022));
#1564=CARTESIAN_POINT('',(-0.00131715728752538,0.0053746,0.0122022));
#1565=CARTESIAN_POINT('',(-0.00131715728752538,0.0053746,0.0120249528286101));
#1566=CARTESIAN_POINT('',(-0.00131715728752538,0.0049,0.0120249528286101));
#1567=CARTESIAN_POINT('',(0.,0.0053746,0.0122022));
#1568=CARTESIAN_POINT('',(0.00131715728752538,0.0053746,0.0122022));
#1569=CARTESIAN_POINT('',(0.00131715728752538,0.0053746,0.0120249528286101));
#1570=CARTESIAN_POINT('',(-0.00131715728752538,0.0053746,0.0120249528286101));
#1571=CARTESIAN_POINT('',(0.00131715728752538,0.0049,0.0122022));
#1572=CARTESIAN_POINT('',(0.00165275016587651,0.00523559287835114,0.0122022));
#1573=CARTESIAN_POINT('',(0.00165275016587651,0.00523559287835114,0.0120249528286101));
#1574=CARTESIAN_POINT('',(0.00131715728752538,0.0049,0.0120249528286101));
#1575=CARTESIAN_POINT('',(0.00219417152211383,0.00469417152211383,0.0122022));
#1576=CARTESIAN_POINT('',(0.00273559287835113,0.00415275016587652,0.0122022));
#1577=CARTESIAN_POINT('',(0.00273559287835113,0.00415275016587652,0.0120249528286101));
#1578=CARTESIAN_POINT('',(0.00165275016587651,0.00523559287835114,0.0120249528286101));
#1579=CARTESIAN_POINT('',(0.0024,0.00381715728752538,0.0122022));
#1580=CARTESIAN_POINT('',(0.0028746,0.00381715728752538,0.0122022));
#1581=CARTESIAN_POINT('',(0.0028746,0.00381715728752538,0.0120249528286101));
#1582=CARTESIAN_POINT('',(0.0024,0.00381715728752538,0.0120249528286101));
#1583=CARTESIAN_POINT('',(0.0028746,-0.00054142135623731,0.0122022));
#1584=CARTESIAN_POINT('',(0.0028746,-0.0049,0.0122022));
#1585=CARTESIAN_POINT('',(0.0028746,-0.0049,0.0120249528286101));
#1586=CARTESIAN_POINT('',(0.0028746,0.00381715728752538,0.0120249528286101));
#1587=CARTESIAN_POINT('',(0.0024,-0.0049,0.0122022));
#1588=CARTESIAN_POINT('',(0.0024,-0.0053746,0.0122022));
#1589=CARTESIAN_POINT('',(0.0024,-0.0053746,0.0120249528286101));
#1590=CARTESIAN_POINT('',(0.0024,-0.0049,0.0120249528286101));
#1591=CARTESIAN_POINT('',(0.,-0.0053746,0.0122022));
#1592=CARTESIAN_POINT('',(-0.0024,-0.0053746,0.0122022));
#1593=CARTESIAN_POINT('',(-0.0024,-0.0053746,0.0120249528286101));
#1594=CARTESIAN_POINT('',(0.0024,-0.0053746,0.0120249528286101));
#1595=CARTESIAN_POINT('',(-0.0024,-0.0049,0.0122022));
#1596=CARTESIAN_POINT('',(-0.0024,-0.0049,0.0120249528286101));
#1597=CARTESIAN_POINT('',(0.003027,-0.00054142135623731,0.0122022));
#1598=CARTESIAN_POINT('',(-0.003027,-0.00054142135623731,0.0122022));
#1599=CARTESIAN_POINT('',(0.,0.,0.0124542));
#1600=CARTESIAN_POINT('',(-0.0024,0.00381715728752538,0.0124542));
#1601=CARTESIAN_POINT('',(-0.00244535282861006,0.00381715728752538,0.0124542));
#1602=CARTESIAN_POINT('',(-0.00243206929265617,0.00384922658018155,0.0124542));
#1603=CARTESIAN_POINT('',(-0.00134922658018155,0.00493206929265617,0.0124542));
#1604=CARTESIAN_POINT('',(-0.00134922658018155,0.00493206929265617,0.0124542));
#1605=CARTESIAN_POINT('',(-0.00131715728752538,0.0049,0.0124542));
#1606=CARTESIAN_POINT('',(-0.00131715728752538,0.00494535282861006,0.0124542));
#1607=CARTESIAN_POINT('',(0.00131715728752538,0.00494535282861006,0.0124542));
#1608=CARTESIAN_POINT('',(0.00131715728752538,0.00494535282861006,0.0124542));
#1609=CARTESIAN_POINT('',(0.00131715728752538,0.0049,0.0124542));
#1610=CARTESIAN_POINT('',(0.00134922658018155,0.00493206929265617,0.0124542));
#1611=CARTESIAN_POINT('',(0.00243206929265617,0.00384922658018155,0.0124542));
#1612=CARTESIAN_POINT('',(0.00243206929265617,0.00384922658018155,0.0124542));
#1613=CARTESIAN_POINT('',(0.0024,0.00381715728752538,0.0124542));
#1614=CARTESIAN_POINT('',(0.00244535282861006,0.00381715728752538,0.0124542));
#1615=CARTESIAN_POINT('',(0.00244535282861006,-0.0049,0.0124542));
#1616=CARTESIAN_POINT('',(0.00244535282861006,-0.0049,0.0124542));
#1617=CARTESIAN_POINT('',(0.0024,-0.0049,0.0124542));
#1618=CARTESIAN_POINT('',(0.0024,-0.00494535282861006,0.0124542));
#1619=CARTESIAN_POINT('',(-0.0024,-0.00494535282861006,0.0124542));
#1620=CARTESIAN_POINT('',(-0.0024,-0.00494535282861006,0.0124542));
#1621=CARTESIAN_POINT('',(-0.0024,-0.0049,0.0124542));
#1622=CARTESIAN_POINT('',(-0.00244535282861006,-0.0049,0.0124542));
#1623=CARTESIAN_POINT('',(-0.00244535282861006,0.00381715728752538,0.0124542));
#1624=CARTESIAN_POINT('',(0.00244535282861006,0.,0.0120249528286101));
#1625=CARTESIAN_POINT('',(0.00244535282861006,0.00381715728752538,0.0120249528286101));
#1626=CARTESIAN_POINT('',(0.00244535282861006,-0.0049,0.0120249528286101));
#1627=CARTESIAN_POINT('',(0.0024,-0.0049,0.0120249528286101));
#1628=CARTESIAN_POINT('',(0.0024,-0.00494535282861006,0.0120249528286101));
#1629=CARTESIAN_POINT('',(0.0024,0.00381715728752538,0.0120249528286101));
#1630=CARTESIAN_POINT('',(0.00243206929265616,0.00384922658018155,0.0120249528286101));
#1631=CARTESIAN_POINT('',(0.,-0.00494535282861006,0.0120249528286101));
#1632=CARTESIAN_POINT('',(-0.0024,-0.00494535282861006,0.0120249528286101));
#1633=CARTESIAN_POINT('',(0.00314064793641886,0.00314064793641886,0.0120249528286101));
#1634=CARTESIAN_POINT('',(0.00134922658018155,0.00493206929265617,0.0120249528286101));
#1635=CARTESIAN_POINT('',(-0.0024,-0.0049,0.0120249528286101));
#1636=CARTESIAN_POINT('',(-0.00244535282861006,-0.0049,0.0120249528286101));
#1637=CARTESIAN_POINT('',(0.00131715728752538,0.0049,0.0120249528286101));
#1638=CARTESIAN_POINT('',(0.00131715728752538,0.00494535282861006,0.0120249528286101));
#1639=CARTESIAN_POINT('',(-0.00244535282861006,0.,0.0120249528286101));
#1640=CARTESIAN_POINT('',(-0.00244535282861006,0.00381715728752538,0.0120249528286101));
#1641=CARTESIAN_POINT('',(0.,0.00494535282861006,0.0120249528286101));
#1642=CARTESIAN_POINT('',(-0.00131715728752538,0.00494535282861006,0.0120249528286101));
#1643=CARTESIAN_POINT('',(-0.0024,0.00381715728752538,0.0120249528286101));
#1644=CARTESIAN_POINT('',(-0.00243206929265617,0.00384922658018155,0.0120249528286101));
#1645=CARTESIAN_POINT('',(-0.00131715728752538,0.0049,0.0120249528286101));
#1646=CARTESIAN_POINT('',(-0.00134922658018155,0.00493206929265617,0.0120249528286101));
#1647=CARTESIAN_POINT('',(-0.00314064793641886,0.00314064793641886,0.0120249528286101));
#1648=MECHANICAL_DESIGN_GEOMETRIC_PRESENTATION_REPRESENTATION('',(#959),
#1649);
#1649=(
GEOMETRIC_REPRESENTATION_CONTEXT(3)
GLOBAL_UNCERTAINTY_ASSIGNED_CONTEXT((#1650))
GLOBAL_UNIT_ASSIGNED_CONTEXT((#1653,#1652,#1651))
REPRESENTATION_CONTEXT('XT30_Rahmen_1-Fach','TOP_LEVEL_ASSEMBLY_PART')
);
#1650=UNCERTAINTY_MEASURE_WITH_UNIT(LENGTH_MEASURE(1.38897682555413E-6),
#1653,'DISTANCE_ACCURACY_VALUE','Maximum Tolerance applied to model');
#1651=(
NAMED_UNIT(*)
SI_UNIT($,.STERADIAN.)
SOLID_ANGLE_UNIT()
);
#1652=(
NAMED_UNIT(*)
PLANE_ANGLE_UNIT()
SI_UNIT($,.RADIAN.)
);
#1653=(
LENGTH_UNIT()
NAMED_UNIT(*)
SI_UNIT($,.METRE.)
);
#1654=PRODUCT_DEFINITION_SHAPE('','',#1655);
#1655=PRODUCT_DEFINITION('','',#1657,#1656);
#1656=PRODUCT_DEFINITION_CONTEXT('',#1663,'design');
#1657=PRODUCT_DEFINITION_FORMATION_WITH_SPECIFIED_SOURCE('','',#1659,
 .NOT_KNOWN.);
#1658=PRODUCT_RELATED_PRODUCT_CATEGORY('','',(#1659));
#1659=PRODUCT('XT30_Rahmen_1-Fach','XT30_Rahmen_1-Fach',
'XT30_Rahmen_1-Fach',(#1661));
#1660=PRODUCT_CATEGORY('','');
#1661=PRODUCT_CONTEXT('',#1663,'mechanical');
#1662=APPLICATION_PROTOCOL_DEFINITION('international standard',
'ap242_managed_model_based_3d_engineering',2020,#1663);
#1663=APPLICATION_CONTEXT('managed model based 3d engineering');
ENDSEC;
END-ISO-10303-21;
