ISO-10303-21;
HEADER;
/*Generated by software containing ST-Developer
 * from STEP Tools, Inc. (www.steptools.com) 
 */
/*OPTION: using custom renumber hook */
/*description */
/*implementation_level */
FILE_DESCRIPTION(('STEP AP242 Edition 2','STEP AP242 Edition 2''CAx-IF Rec.Pracs.---Representation and Presentation of Product Manufa
cturing Information (PMI)---4.0---2014-10-13','STEP AP242 Edition 2''CAx-IF Rec.Pracs.---Representation and Presentation of Product Manufa
cturing Information (PMI)---4.0---2014-10-13''CAx-IF Rec.Pracs.---3D Tessellated Geometry---0.4---2014-09-14','STEP AP242 Edition 2''CAx-IF Rec.Pracs.---Representation and Presentation of Product Manufa
cturing Information (PMI)---4.0---2014-10-13''CAx-IF Rec.Pracs.---3D Tessellated Geometry---0.4---2014-09-14''2;1','STEP AP242 Edition 2''CAx-IF Rec.Pracs.---Representation and Presentation of Product Manufa
cturing Information (PMI)---4.0---2014-10-13''CAx-IF Rec.Pracs.---3D Tessellated Geometry---0.4---2014-09-14''2;1''CAx-IF Rec.Pracs.---User Defined Attributes---1.5---2016-08-15'),'2;1');
/*name */
/*time_stamp */
/*author */
/*organization */
/*preprocessor_version */
/*originating_system */
/*authorisation */
FILE_NAME('/vol/tmp/translate-5728917419305018189/3 parts - Part 7.step','2026-03-10T17:33:45',(''),(''),'ST-DEVELOPER v20','ONSHAPE BY PTC INC, 1.211','  ');
FILE_SCHEMA(('AP242_MANAGED_MODEL_BASED_3D_ENGINEERING_MIM_LF { 1 0 10303 442 3 1 4 }'));
ENDSEC;
DATA;
#10=SHAPE_REPRESENTATION_RELATIONSHIP('','',#1024,#11);
#11=ADVANCED_BREP_SHAPE_REPRESENTATION('',(#1022),#1794);
#12=TOROIDAL_SURFACE('',#1103,0.00537916063774591,0.0005212334);
#13=TOROIDAL_SURFACE('',#1106,0.00537916063774591,0.0005212334);
#14=TOROIDAL_SURFACE('',#1110,0.00018396307345283,9.19815367264149E-05);
#15=TOROIDAL_SURFACE('',#1113,0.00018396307345283,9.19815367264149E-05);
#16=TOROIDAL_SURFACE('',#1118,0.00643430967874436,9.19815367264149E-05);
#17=TOROIDAL_SURFACE('',#1123,0.0036476481355404,9.19815367264149E-05);
#18=TOROIDAL_SURFACE('',#1130,0.00018396307345283,9.19815367264149E-05);
#19=TOROIDAL_SURFACE('',#1132,0.00018396307345283,9.19815367264149E-05);
#20=TOROIDAL_SURFACE('',#1134,0.00018396307345283,9.19815367264149E-05);
#21=TOROIDAL_SURFACE('',#1136,0.00018396307345283,9.19815367264149E-05);
#22=TOROIDAL_SURFACE('',#1138,0.00643430967874436,9.19815367264149E-05);
#23=TOROIDAL_SURFACE('',#1144,0.0036476481355404,9.19815367264149E-05);
#24=TOROIDAL_SURFACE('',#1146,0.00018396307345283,9.19815367264149E-05);
#25=TOROIDAL_SURFACE('',#1148,0.00018396307345283,9.19815367264149E-05);
#26=ELLIPSE('',#1070,0.004081489772811,0.0039582598);
#27=ELLIPSE('',#1083,0.00104394261933666,0.0005212334);
#28=ELLIPSE('',#1086,0.00792772700987124,0.0039582598);
#29=ELLIPSE('',#1099,0.00559782469255622,0.0039582598);
#30=B_SPLINE_CURVE_WITH_KNOTS('',3,(#1639,#1640,#1641,#1642),.UNSPECIFIED.,.F.,.F.,(4,4),(0.,0.00183004040356132),.UNSPECIFIED.);
#31=B_SPLINE_CURVE_WITH_KNOTS('',3,(#1713,#1714,#1715,#1716,#1717),.UNSPECIFIED.,.F.,.F.,(4,1,4),(0.,0.00104136652919058,0.00208273305838115),.UNSPECIFIED.);
#32=B_SPLINE_CURVE_WITH_KNOTS('',3,(#1727,#1728,#1729,#1730),.UNSPECIFIED.,.F.,.F.,(4,4),(0.,0.00102468242793103),.UNSPECIFIED.);
#33=B_SPLINE_CURVE_WITH_KNOTS('',3,(#1732,#1733,#1734,#1735,#1736),.UNSPECIFIED.,.F.,.F.,(4,1,4),(0.,0.000543208810304667,0.00108641762060933),.UNSPECIFIED.);
#34=CYLINDRICAL_SURFACE('',#1062,0.00355560627074051);
#35=CYLINDRICAL_SURFACE('',#1065,0.00364831982914648);
#36=CYLINDRICAL_SURFACE('',#1073,0.00373962967226681);
#37=CYLINDRICAL_SURFACE('',#1077,0.00634232814201794);
#38=CYLINDRICAL_SURFACE('',#1087,0.0005212334);
#39=CYLINDRICAL_SURFACE('',#1089,0.0005212334);
#40=CYLINDRICAL_SURFACE('',#1092,0.0005212334);
#41=CYLINDRICAL_SURFACE('',#1094,0.00665387386083941);
#42=CYLINDRICAL_SURFACE('',#1095,0.000685318706218801);
#43=CYLINDRICAL_SURFACE('',#1096,0.00395825184867217);
#44=CYLINDRICAL_SURFACE('',#1097,0.0039582598);
#45=CYLINDRICAL_SURFACE('',#1098,0.0039582598);
#46=CYLINDRICAL_SURFACE('',#1100,0.0039582598);
#47=CYLINDRICAL_SURFACE('',#1101,0.00590039403774591);
#48=CYLINDRICAL_SURFACE('',#1104,0.00590039403774591);
#49=CYLINDRICAL_SURFACE('',#1107,9.19815367264149E-05);
#50=CYLINDRICAL_SURFACE('',#1116,9.19815367264149E-05);
#51=CYLINDRICAL_SURFACE('',#1120,9.19815367264149E-05);
#52=CYLINDRICAL_SURFACE('',#1125,9.19815367264149E-05);
#53=CYLINDRICAL_SURFACE('',#1127,9.19815367264149E-05);
#54=CYLINDRICAL_SURFACE('',#1140,9.19815367264149E-05);
#55=CYLINDRICAL_SURFACE('',#1142,9.19815367264149E-05);
#56=CYLINDRICAL_SURFACE('',#1150,9.19815367264149E-05);
#57=CYLINDRICAL_SURFACE('',#1151,0.00144347551651268);
#58=LINE('',#1485,#133);
#59=LINE('',#1488,#134);
#60=LINE('',#1490,#135);
#61=LINE('',#1492,#136);
#62=LINE('',#1494,#137);
#63=LINE('',#1496,#138);
#64=LINE('',#1498,#139);
#65=LINE('',#1502,#140);
#66=LINE('',#1508,#141);
#67=LINE('',#1516,#142);
#68=LINE('',#1527,#143);
#69=LINE('',#1535,#144);
#70=LINE('',#1543,#145);
#71=LINE('',#1545,#146);
#72=LINE('',#1547,#147);
#73=LINE('',#1549,#148);
#74=LINE('',#1551,#149);
#75=LINE('',#1555,#150);
#76=LINE('',#1557,#151);
#77=LINE('',#1564,#152);
#78=LINE('',#1566,#153);
#79=LINE('',#1570,#154);
#80=LINE('',#1573,#155);
#81=LINE('',#1576,#156);
#82=LINE('',#1578,#157);
#83=LINE('',#1580,#158);
#84=LINE('',#1582,#159);
#85=LINE('',#1584,#160);
#86=LINE('',#1586,#161);
#87=LINE('',#1592,#162);
#88=LINE('',#1596,#163);
#89=LINE('',#1602,#164);
#90=LINE('',#1605,#165);
#91=LINE('',#1608,#166);
#92=LINE('',#1610,#167);
#93=LINE('',#1612,#168);
#94=LINE('',#1614,#169);
#95=LINE('',#1616,#170);
#96=LINE('',#1618,#171);
#97=LINE('',#1620,#172);
#98=LINE('',#1622,#173);
#99=LINE('',#1624,#174);
#100=LINE('',#1625,#175);
#101=LINE('',#1627,#176);
#102=LINE('',#1629,#177);
#103=LINE('',#1631,#178);
#104=LINE('',#1632,#179);
#105=LINE('',#1634,#180);
#106=LINE('',#1636,#181);
#107=LINE('',#1637,#182);
#108=LINE('',#1644,#183);
#109=LINE('',#1646,#184);
#110=LINE('',#1648,#185);
#111=LINE('',#1651,#186);
#112=LINE('',#1652,#187);
#113=LINE('',#1656,#188);
#114=LINE('',#1658,#189);
#115=LINE('',#1660,#190);
#116=LINE('',#1663,#191);
#117=LINE('',#1665,#192);
#118=LINE('',#1667,#193);
#119=LINE('',#1669,#194);
#120=LINE('',#1674,#195);
#121=LINE('',#1678,#196);
#122=LINE('',#1681,#197);
#123=LINE('',#1683,#198);
#124=LINE('',#1685,#199);
#125=LINE('',#1687,#200);
#126=LINE('',#1692,#201);
#127=LINE('',#1699,#202);
#128=LINE('',#1703,#203);
#129=LINE('',#1705,#204);
#130=LINE('',#1709,#205);
#131=LINE('',#1711,#206);
#132=LINE('',#1725,#207);
#133=VECTOR('',#1158,1.);
#134=VECTOR('',#1159,1.);
#135=VECTOR('',#1160,1.);
#136=VECTOR('',#1161,1.);
#137=VECTOR('',#1162,1.);
#138=VECTOR('',#1163,1.);
#139=VECTOR('',#1164,1.);
#140=VECTOR('',#1167,1.);
#141=VECTOR('',#1172,1.);
#142=VECTOR('',#1179,1.);
#143=VECTOR('',#1190,1.);
#144=VECTOR('',#1197,1.);
#145=VECTOR('',#1204,1.);
#146=VECTOR('',#1205,1.);
#147=VECTOR('',#1206,1.);
#148=VECTOR('',#1207,1.);
#149=VECTOR('',#1208,1.);
#150=VECTOR('',#1211,1.);
#151=VECTOR('',#1214,1.);
#152=VECTOR('',#1219,1.);
#153=VECTOR('',#1220,1.);
#154=VECTOR('',#1223,1.);
#155=VECTOR('',#1226,1.);
#156=VECTOR('',#1227,1.);
#157=VECTOR('',#1228,1.);
#158=VECTOR('',#1229,1.);
#159=VECTOR('',#1230,1.);
#160=VECTOR('',#1231,1.);
#161=VECTOR('',#1234,1.);
#162=VECTOR('',#1239,1.);
#163=VECTOR('',#1242,1.);
#164=VECTOR('',#1247,1.);
#165=VECTOR('',#1250,1.);
#166=VECTOR('',#1251,1.);
#167=VECTOR('',#1252,1.);
#168=VECTOR('',#1253,1.);
#169=VECTOR('',#1254,1.);
#170=VECTOR('',#1255,1.);
#171=VECTOR('',#1258,1.);
#172=VECTOR('',#1259,1.);
#173=VECTOR('',#1260,1.);
#174=VECTOR('',#1263,1.);
#175=VECTOR('',#1264,1.);
#176=VECTOR('',#1267,1.);
#177=VECTOR('',#1270,1.);
#178=VECTOR('',#1273,1.);
#179=VECTOR('',#1274,1.);
#180=VECTOR('',#1277,1.);
#181=VECTOR('',#1280,1.);
#182=VECTOR('',#1281,1.);
#183=VECTOR('',#1284,1.);
#184=VECTOR('',#1287,1.);
#185=VECTOR('',#1290,1.);
#186=VECTOR('',#1295,1.);
#187=VECTOR('',#1296,1.);
#188=VECTOR('',#1301,1.);
#189=VECTOR('',#1302,1.);
#190=VECTOR('',#1305,1.);
#191=VECTOR('',#1306,1.);
#192=VECTOR('',#1307,1.);
#193=VECTOR('',#1308,1.);
#194=VECTOR('',#1311,1.);
#195=VECTOR('',#1314,1.);
#196=VECTOR('',#1319,1.);
#197=VECTOR('',#1320,1.);
#198=VECTOR('',#1321,1.);
#199=VECTOR('',#1322,1.);
#200=VECTOR('',#1325,1.);
#201=VECTOR('',#1328,1.);
#202=VECTOR('',#1337,1.);
#203=VECTOR('',#1342,1.);
#204=VECTOR('',#1343,1.);
#205=VECTOR('',#1348,1.);
#206=VECTOR('',#1349,1.);
#207=VECTOR('',#1366,1.);
#208=ORIENTED_EDGE('',*,*,#502,.T.);
#209=ORIENTED_EDGE('',*,*,#503,.F.);
#210=ORIENTED_EDGE('',*,*,#504,.T.);
#211=ORIENTED_EDGE('',*,*,#505,.T.);
#212=ORIENTED_EDGE('',*,*,#506,.F.);
#213=ORIENTED_EDGE('',*,*,#507,.F.);
#214=ORIENTED_EDGE('',*,*,#508,.F.);
#215=ORIENTED_EDGE('',*,*,#509,.F.);
#216=ORIENTED_EDGE('',*,*,#510,.F.);
#217=ORIENTED_EDGE('',*,*,#511,.T.);
#218=ORIENTED_EDGE('',*,*,#512,.F.);
#219=ORIENTED_EDGE('',*,*,#513,.T.);
#220=ORIENTED_EDGE('',*,*,#514,.F.);
#221=ORIENTED_EDGE('',*,*,#515,.T.);
#222=ORIENTED_EDGE('',*,*,#516,.F.);
#223=ORIENTED_EDGE('',*,*,#517,.T.);
#224=ORIENTED_EDGE('',*,*,#518,.F.);
#225=ORIENTED_EDGE('',*,*,#519,.T.);
#226=ORIENTED_EDGE('',*,*,#520,.F.);
#227=ORIENTED_EDGE('',*,*,#521,.F.);
#228=ORIENTED_EDGE('',*,*,#522,.T.);
#229=ORIENTED_EDGE('',*,*,#523,.F.);
#230=ORIENTED_EDGE('',*,*,#524,.T.);
#231=ORIENTED_EDGE('',*,*,#525,.F.);
#232=ORIENTED_EDGE('',*,*,#526,.T.);
#233=ORIENTED_EDGE('',*,*,#527,.F.);
#234=ORIENTED_EDGE('',*,*,#528,.T.);
#235=ORIENTED_EDGE('',*,*,#529,.F.);
#236=ORIENTED_EDGE('',*,*,#530,.T.);
#237=ORIENTED_EDGE('',*,*,#531,.F.);
#238=ORIENTED_EDGE('',*,*,#532,.F.);
#239=ORIENTED_EDGE('',*,*,#533,.F.);
#240=ORIENTED_EDGE('',*,*,#534,.F.);
#241=ORIENTED_EDGE('',*,*,#535,.F.);
#242=ORIENTED_EDGE('',*,*,#536,.T.);
#243=ORIENTED_EDGE('',*,*,#537,.F.);
#244=ORIENTED_EDGE('',*,*,#538,.F.);
#245=ORIENTED_EDGE('',*,*,#539,.F.);
#246=ORIENTED_EDGE('',*,*,#540,.F.);
#247=ORIENTED_EDGE('',*,*,#541,.T.);
#248=ORIENTED_EDGE('',*,*,#542,.F.);
#249=ORIENTED_EDGE('',*,*,#543,.T.);
#250=ORIENTED_EDGE('',*,*,#544,.T.);
#251=ORIENTED_EDGE('',*,*,#545,.F.);
#252=ORIENTED_EDGE('',*,*,#546,.T.);
#253=ORIENTED_EDGE('',*,*,#547,.T.);
#254=ORIENTED_EDGE('',*,*,#548,.T.);
#255=ORIENTED_EDGE('',*,*,#549,.T.);
#256=ORIENTED_EDGE('',*,*,#550,.F.);
#257=ORIENTED_EDGE('',*,*,#551,.F.);
#258=ORIENTED_EDGE('',*,*,#552,.F.);
#259=ORIENTED_EDGE('',*,*,#553,.F.);
#260=ORIENTED_EDGE('',*,*,#554,.F.);
#261=ORIENTED_EDGE('',*,*,#506,.T.);
#262=ORIENTED_EDGE('',*,*,#555,.T.);
#263=ORIENTED_EDGE('',*,*,#556,.F.);
#264=ORIENTED_EDGE('',*,*,#557,.F.);
#265=ORIENTED_EDGE('',*,*,#558,.F.);
#266=ORIENTED_EDGE('',*,*,#559,.T.);
#267=ORIENTED_EDGE('',*,*,#560,.T.);
#268=ORIENTED_EDGE('',*,*,#561,.F.);
#269=ORIENTED_EDGE('',*,*,#562,.T.);
#270=ORIENTED_EDGE('',*,*,#563,.T.);
#271=ORIENTED_EDGE('',*,*,#564,.F.);
#272=ORIENTED_EDGE('',*,*,#565,.F.);
#273=ORIENTED_EDGE('',*,*,#566,.F.);
#274=ORIENTED_EDGE('',*,*,#567,.F.);
#275=ORIENTED_EDGE('',*,*,#511,.F.);
#276=ORIENTED_EDGE('',*,*,#568,.F.);
#277=ORIENTED_EDGE('',*,*,#569,.F.);
#278=ORIENTED_EDGE('',*,*,#570,.F.);
#279=ORIENTED_EDGE('',*,*,#550,.T.);
#280=ORIENTED_EDGE('',*,*,#571,.T.);
#281=ORIENTED_EDGE('',*,*,#563,.F.);
#282=ORIENTED_EDGE('',*,*,#572,.F.);
#283=ORIENTED_EDGE('',*,*,#573,.T.);
#284=ORIENTED_EDGE('',*,*,#564,.T.);
#285=ORIENTED_EDGE('',*,*,#571,.F.);
#286=ORIENTED_EDGE('',*,*,#549,.F.);
#287=ORIENTED_EDGE('',*,*,#574,.T.);
#288=ORIENTED_EDGE('',*,*,#565,.T.);
#289=ORIENTED_EDGE('',*,*,#573,.F.);
#290=ORIENTED_EDGE('',*,*,#548,.F.);
#291=ORIENTED_EDGE('',*,*,#539,.T.);
#292=ORIENTED_EDGE('',*,*,#575,.T.);
#293=ORIENTED_EDGE('',*,*,#559,.F.);
#294=ORIENTED_EDGE('',*,*,#576,.F.);
#295=ORIENTED_EDGE('',*,*,#560,.F.);
#296=ORIENTED_EDGE('',*,*,#575,.F.);
#297=ORIENTED_EDGE('',*,*,#538,.T.);
#298=ORIENTED_EDGE('',*,*,#577,.F.);
#299=ORIENTED_EDGE('',*,*,#544,.F.);
#300=ORIENTED_EDGE('',*,*,#578,.T.);
#301=ORIENTED_EDGE('',*,*,#552,.T.);
#302=ORIENTED_EDGE('',*,*,#579,.F.);
#303=ORIENTED_EDGE('',*,*,#553,.T.);
#304=ORIENTED_EDGE('',*,*,#578,.F.);
#305=ORIENTED_EDGE('',*,*,#543,.F.);
#306=ORIENTED_EDGE('',*,*,#580,.F.);
#307=ORIENTED_EDGE('',*,*,#581,.F.);
#308=ORIENTED_EDGE('',*,*,#582,.T.);
#309=ORIENTED_EDGE('',*,*,#566,.T.);
#310=ORIENTED_EDGE('',*,*,#574,.F.);
#311=ORIENTED_EDGE('',*,*,#547,.F.);
#312=ORIENTED_EDGE('',*,*,#551,.T.);
#313=ORIENTED_EDGE('',*,*,#572,.T.);
#314=ORIENTED_EDGE('',*,*,#562,.F.);
#315=ORIENTED_EDGE('',*,*,#583,.F.);
#316=ORIENTED_EDGE('',*,*,#583,.T.);
#317=ORIENTED_EDGE('',*,*,#567,.T.);
#318=ORIENTED_EDGE('',*,*,#582,.F.);
#319=ORIENTED_EDGE('',*,*,#546,.F.);
#320=ORIENTED_EDGE('',*,*,#541,.F.);
#321=ORIENTED_EDGE('',*,*,#584,.F.);
#322=ORIENTED_EDGE('',*,*,#557,.T.);
#323=ORIENTED_EDGE('',*,*,#585,.F.);
#324=ORIENTED_EDGE('',*,*,#586,.F.);
#325=ORIENTED_EDGE('',*,*,#555,.F.);
#326=ORIENTED_EDGE('',*,*,#505,.F.);
#327=ORIENTED_EDGE('',*,*,#587,.T.);
#328=ORIENTED_EDGE('',*,*,#588,.F.);
#329=ORIENTED_EDGE('',*,*,#589,.F.);
#330=ORIENTED_EDGE('',*,*,#590,.F.);
#331=ORIENTED_EDGE('',*,*,#591,.F.);
#332=ORIENTED_EDGE('',*,*,#592,.F.);
#333=ORIENTED_EDGE('',*,*,#593,.F.);
#334=ORIENTED_EDGE('',*,*,#594,.F.);
#335=ORIENTED_EDGE('',*,*,#595,.F.);
#336=ORIENTED_EDGE('',*,*,#596,.F.);
#337=ORIENTED_EDGE('',*,*,#597,.F.);
#338=ORIENTED_EDGE('',*,*,#598,.F.);
#339=ORIENTED_EDGE('',*,*,#599,.F.);
#340=ORIENTED_EDGE('',*,*,#600,.F.);
#341=ORIENTED_EDGE('',*,*,#601,.F.);
#342=ORIENTED_EDGE('',*,*,#602,.F.);
#343=ORIENTED_EDGE('',*,*,#603,.F.);
#344=ORIENTED_EDGE('',*,*,#604,.F.);
#345=ORIENTED_EDGE('',*,*,#534,.T.);
#346=ORIENTED_EDGE('',*,*,#605,.F.);
#347=ORIENTED_EDGE('',*,*,#606,.F.);
#348=ORIENTED_EDGE('',*,*,#587,.F.);
#349=ORIENTED_EDGE('',*,*,#504,.F.);
#350=ORIENTED_EDGE('',*,*,#607,.T.);
#351=ORIENTED_EDGE('',*,*,#608,.F.);
#352=ORIENTED_EDGE('',*,*,#609,.F.);
#353=ORIENTED_EDGE('',*,*,#607,.F.);
#354=ORIENTED_EDGE('',*,*,#503,.T.);
#355=ORIENTED_EDGE('',*,*,#610,.F.);
#356=ORIENTED_EDGE('',*,*,#509,.T.);
#357=ORIENTED_EDGE('',*,*,#611,.F.);
#358=ORIENTED_EDGE('',*,*,#612,.F.);
#359=ORIENTED_EDGE('',*,*,#613,.F.);
#360=ORIENTED_EDGE('',*,*,#612,.T.);
#361=ORIENTED_EDGE('',*,*,#614,.F.);
#362=ORIENTED_EDGE('',*,*,#531,.T.);
#363=ORIENTED_EDGE('',*,*,#615,.F.);
#364=ORIENTED_EDGE('',*,*,#569,.T.);
#365=ORIENTED_EDGE('',*,*,#616,.F.);
#366=ORIENTED_EDGE('',*,*,#537,.T.);
#367=ORIENTED_EDGE('',*,*,#617,.F.);
#368=ORIENTED_EDGE('',*,*,#535,.T.);
#369=ORIENTED_EDGE('',*,*,#608,.T.);
#370=ORIENTED_EDGE('',*,*,#609,.T.);
#371=ORIENTED_EDGE('',*,*,#618,.F.);
#372=ORIENTED_EDGE('',*,*,#585,.T.);
#373=ORIENTED_EDGE('',*,*,#556,.T.);
#374=ORIENTED_EDGE('',*,*,#588,.T.);
#375=ORIENTED_EDGE('',*,*,#606,.T.);
#376=ORIENTED_EDGE('',*,*,#619,.F.);
#377=ORIENTED_EDGE('',*,*,#620,.F.);
#378=ORIENTED_EDGE('',*,*,#619,.T.);
#379=ORIENTED_EDGE('',*,*,#605,.T.);
#380=ORIENTED_EDGE('',*,*,#533,.T.);
#381=ORIENTED_EDGE('',*,*,#621,.F.);
#382=ORIENTED_EDGE('',*,*,#540,.T.);
#383=ORIENTED_EDGE('',*,*,#576,.T.);
#384=ORIENTED_EDGE('',*,*,#558,.T.);
#385=ORIENTED_EDGE('',*,*,#584,.T.);
#386=ORIENTED_EDGE('',*,*,#545,.T.);
#387=ORIENTED_EDGE('',*,*,#579,.T.);
#388=ORIENTED_EDGE('',*,*,#561,.T.);
#389=ORIENTED_EDGE('',*,*,#577,.T.);
#390=ORIENTED_EDGE('',*,*,#542,.T.);
#391=ORIENTED_EDGE('',*,*,#586,.T.);
#392=ORIENTED_EDGE('',*,*,#620,.T.);
#393=ORIENTED_EDGE('',*,*,#621,.T.);
#394=ORIENTED_EDGE('',*,*,#532,.T.);
#395=ORIENTED_EDGE('',*,*,#614,.T.);
#396=ORIENTED_EDGE('',*,*,#611,.T.);
#397=ORIENTED_EDGE('',*,*,#508,.T.);
#398=ORIENTED_EDGE('',*,*,#622,.T.);
#399=ORIENTED_EDGE('',*,*,#580,.T.);
#400=ORIENTED_EDGE('',*,*,#622,.F.);
#401=ORIENTED_EDGE('',*,*,#507,.T.);
#402=ORIENTED_EDGE('',*,*,#554,.T.);
#403=ORIENTED_EDGE('',*,*,#581,.T.);
#404=ORIENTED_EDGE('',*,*,#510,.T.);
#405=ORIENTED_EDGE('',*,*,#613,.T.);
#406=ORIENTED_EDGE('',*,*,#623,.T.);
#407=ORIENTED_EDGE('',*,*,#568,.T.);
#408=ORIENTED_EDGE('',*,*,#615,.T.);
#409=ORIENTED_EDGE('',*,*,#530,.F.);
#410=ORIENTED_EDGE('',*,*,#616,.T.);
#411=ORIENTED_EDGE('',*,*,#623,.F.);
#412=ORIENTED_EDGE('',*,*,#512,.T.);
#413=ORIENTED_EDGE('',*,*,#570,.T.);
#414=ORIENTED_EDGE('',*,*,#624,.T.);
#415=ORIENTED_EDGE('',*,*,#610,.T.);
#416=ORIENTED_EDGE('',*,*,#617,.T.);
#417=ORIENTED_EDGE('',*,*,#536,.F.);
#418=ORIENTED_EDGE('',*,*,#618,.T.);
#419=ORIENTED_EDGE('',*,*,#624,.F.);
#420=ORIENTED_EDGE('',*,*,#625,.T.);
#421=ORIENTED_EDGE('',*,*,#590,.T.);
#422=ORIENTED_EDGE('',*,*,#626,.T.);
#423=ORIENTED_EDGE('',*,*,#523,.T.);
#424=ORIENTED_EDGE('',*,*,#522,.F.);
#425=ORIENTED_EDGE('',*,*,#627,.T.);
#426=ORIENTED_EDGE('',*,*,#628,.T.);
#427=ORIENTED_EDGE('',*,*,#625,.F.);
#428=ORIENTED_EDGE('',*,*,#626,.F.);
#429=ORIENTED_EDGE('',*,*,#629,.T.);
#430=ORIENTED_EDGE('',*,*,#630,.T.);
#431=ORIENTED_EDGE('',*,*,#524,.F.);
#432=ORIENTED_EDGE('',*,*,#628,.F.);
#433=ORIENTED_EDGE('',*,*,#601,.T.);
#434=ORIENTED_EDGE('',*,*,#631,.T.);
#435=ORIENTED_EDGE('',*,*,#591,.T.);
#436=ORIENTED_EDGE('',*,*,#627,.F.);
#437=ORIENTED_EDGE('',*,*,#529,.T.);
#438=ORIENTED_EDGE('',*,*,#632,.T.);
#439=ORIENTED_EDGE('',*,*,#602,.T.);
#440=ORIENTED_EDGE('',*,*,#633,.T.);
#441=ORIENTED_EDGE('',*,*,#598,.T.);
#442=ORIENTED_EDGE('',*,*,#634,.T.);
#443=ORIENTED_EDGE('',*,*,#527,.T.);
#444=ORIENTED_EDGE('',*,*,#630,.F.);
#445=ORIENTED_EDGE('',*,*,#594,.T.);
#446=ORIENTED_EDGE('',*,*,#635,.T.);
#447=ORIENTED_EDGE('',*,*,#525,.T.);
#448=ORIENTED_EDGE('',*,*,#629,.F.);
#449=ORIENTED_EDGE('',*,*,#589,.T.);
#450=ORIENTED_EDGE('',*,*,#636,.T.);
#451=ORIENTED_EDGE('',*,*,#595,.T.);
#452=ORIENTED_EDGE('',*,*,#637,.T.);
#453=ORIENTED_EDGE('',*,*,#592,.T.);
#454=ORIENTED_EDGE('',*,*,#638,.T.);
#455=ORIENTED_EDGE('',*,*,#514,.T.);
#456=ORIENTED_EDGE('',*,*,#638,.F.);
#457=ORIENTED_EDGE('',*,*,#631,.F.);
#458=ORIENTED_EDGE('',*,*,#639,.T.);
#459=ORIENTED_EDGE('',*,*,#515,.F.);
#460=ORIENTED_EDGE('',*,*,#528,.F.);
#461=ORIENTED_EDGE('',*,*,#634,.F.);
#462=ORIENTED_EDGE('',*,*,#640,.T.);
#463=ORIENTED_EDGE('',*,*,#632,.F.);
#464=ORIENTED_EDGE('',*,*,#526,.F.);
#465=ORIENTED_EDGE('',*,*,#635,.F.);
#466=ORIENTED_EDGE('',*,*,#641,.T.);
#467=ORIENTED_EDGE('',*,*,#633,.F.);
#468=ORIENTED_EDGE('',*,*,#637,.F.);
#469=ORIENTED_EDGE('',*,*,#513,.F.);
#470=ORIENTED_EDGE('',*,*,#642,.T.);
#471=ORIENTED_EDGE('',*,*,#636,.F.);
#472=ORIENTED_EDGE('',*,*,#639,.F.);
#473=ORIENTED_EDGE('',*,*,#604,.T.);
#474=ORIENTED_EDGE('',*,*,#643,.T.);
#475=ORIENTED_EDGE('',*,*,#516,.T.);
#476=ORIENTED_EDGE('',*,*,#640,.F.);
#477=ORIENTED_EDGE('',*,*,#597,.T.);
#478=ORIENTED_EDGE('',*,*,#644,.T.);
#479=ORIENTED_EDGE('',*,*,#603,.T.);
#480=ORIENTED_EDGE('',*,*,#641,.F.);
#481=ORIENTED_EDGE('',*,*,#593,.T.);
#482=ORIENTED_EDGE('',*,*,#645,.T.);
#483=ORIENTED_EDGE('',*,*,#599,.T.);
#484=ORIENTED_EDGE('',*,*,#642,.F.);
#485=ORIENTED_EDGE('',*,*,#520,.T.);
#486=ORIENTED_EDGE('',*,*,#646,.T.);
#487=ORIENTED_EDGE('',*,*,#596,.T.);
#488=ORIENTED_EDGE('',*,*,#643,.F.);
#489=ORIENTED_EDGE('',*,*,#644,.F.);
#490=ORIENTED_EDGE('',*,*,#647,.T.);
#491=ORIENTED_EDGE('',*,*,#517,.F.);
#492=ORIENTED_EDGE('',*,*,#646,.F.);
#493=ORIENTED_EDGE('',*,*,#519,.F.);
#494=ORIENTED_EDGE('',*,*,#648,.T.);
#495=ORIENTED_EDGE('',*,*,#645,.F.);
#496=ORIENTED_EDGE('',*,*,#647,.F.);
#497=ORIENTED_EDGE('',*,*,#600,.T.);
#498=ORIENTED_EDGE('',*,*,#648,.F.);
#499=ORIENTED_EDGE('',*,*,#518,.T.);
#500=ORIENTED_EDGE('',*,*,#521,.T.);
#501=ORIENTED_EDGE('',*,*,#502,.F.);
#502=EDGE_CURVE('',#649,#649,#741,.T.);
#503=EDGE_CURVE('',#650,#651,#58,.T.);
#504=EDGE_CURVE('',#650,#652,#59,.T.);
#505=EDGE_CURVE('',#652,#653,#60,.T.);
#506=EDGE_CURVE('',#654,#653,#61,.T.);
#507=EDGE_CURVE('',#655,#654,#62,.F.);
#508=EDGE_CURVE('',#656,#655,#63,.F.);
#509=EDGE_CURVE('',#657,#656,#64,.T.);
#510=EDGE_CURVE('',#658,#657,#742,.F.);
#511=EDGE_CURVE('',#658,#659,#65,.T.);
#512=EDGE_CURVE('',#651,#659,#743,.F.);
#513=EDGE_CURVE('',#660,#661,#744,.F.);
#514=EDGE_CURVE('',#662,#661,#66,.F.);
#515=EDGE_CURVE('',#662,#663,#745,.F.);
#516=EDGE_CURVE('',#664,#663,#746,.T.);
#517=EDGE_CURVE('',#664,#665,#747,.F.);
#518=EDGE_CURVE('',#666,#665,#67,.F.);
#519=EDGE_CURVE('',#666,#667,#748,.F.);
#520=EDGE_CURVE('',#660,#667,#749,.F.);
#521=EDGE_CURVE('',#668,#668,#750,.T.);
#522=EDGE_CURVE('',#669,#670,#751,.T.);
#523=EDGE_CURVE('',#671,#670,#68,.T.);
#524=EDGE_CURVE('',#671,#672,#752,.T.);
#525=EDGE_CURVE('',#673,#672,#753,.T.);
#526=EDGE_CURVE('',#673,#674,#754,.T.);
#527=EDGE_CURVE('',#675,#674,#69,.T.);
#528=EDGE_CURVE('',#675,#676,#755,.T.);
#529=EDGE_CURVE('',#669,#676,#756,.F.);
#530=EDGE_CURVE('',#677,#678,#757,.F.);
#531=EDGE_CURVE('',#679,#678,#70,.F.);
#532=EDGE_CURVE('',#680,#679,#71,.F.);
#533=EDGE_CURVE('',#681,#680,#72,.T.);
#534=EDGE_CURVE('',#682,#681,#73,.T.);
#535=EDGE_CURVE('',#683,#682,#74,.F.);
#536=EDGE_CURVE('',#683,#684,#758,.F.);
#537=EDGE_CURVE('',#677,#684,#75,.T.);
#538=EDGE_CURVE('',#685,#686,#76,.T.);
#539=EDGE_CURVE('',#687,#685,#759,.T.);
#540=EDGE_CURVE('',#688,#687,#760,.T.);
#541=EDGE_CURVE('',#688,#689,#77,.T.);
#542=EDGE_CURVE('',#690,#689,#78,.T.);
#543=EDGE_CURVE('',#690,#691,#761,.T.);
#544=EDGE_CURVE('',#691,#692,#79,.T.);
#545=EDGE_CURVE('',#686,#692,#762,.T.);
#546=EDGE_CURVE('',#693,#694,#80,.T.);
#547=EDGE_CURVE('',#694,#695,#81,.T.);
#548=EDGE_CURVE('',#695,#696,#82,.T.);
#549=EDGE_CURVE('',#696,#697,#83,.T.);
#550=EDGE_CURVE('',#698,#697,#84,.T.);
#551=EDGE_CURVE('',#693,#698,#85,.T.);
#552=EDGE_CURVE('',#699,#700,#86,.T.);
#553=EDGE_CURVE('',#701,#699,#763,.T.);
#554=EDGE_CURVE('',#654,#701,#764,.F.);
#555=EDGE_CURVE('',#653,#702,#87,.T.);
#556=EDGE_CURVE('',#703,#702,#765,.F.);
#557=EDGE_CURVE('',#704,#703,#88,.T.);
#558=EDGE_CURVE('',#705,#704,#766,.F.);
#559=EDGE_CURVE('',#705,#706,#767,.T.);
#560=EDGE_CURVE('',#706,#707,#89,.T.);
#561=EDGE_CURVE('',#700,#707,#768,.F.);
#562=EDGE_CURVE('',#708,#709,#90,.T.);
#563=EDGE_CURVE('',#709,#710,#91,.T.);
#564=EDGE_CURVE('',#711,#710,#92,.T.);
#565=EDGE_CURVE('',#712,#711,#93,.T.);
#566=EDGE_CURVE('',#713,#712,#94,.T.);
#567=EDGE_CURVE('',#708,#713,#95,.T.);
#568=EDGE_CURVE('',#714,#658,#96,.F.);
#569=EDGE_CURVE('',#715,#714,#97,.F.);
#570=EDGE_CURVE('',#659,#715,#98,.T.);
#571=EDGE_CURVE('',#697,#710,#99,.T.);
#572=EDGE_CURVE('',#698,#709,#100,.T.);
#573=EDGE_CURVE('',#696,#711,#101,.T.);
#574=EDGE_CURVE('',#695,#712,#102,.T.);
#575=EDGE_CURVE('',#685,#706,#103,.T.);
#576=EDGE_CURVE('',#687,#705,#104,.T.);
#577=EDGE_CURVE('',#707,#686,#105,.T.);
#578=EDGE_CURVE('',#691,#699,#106,.T.);
#579=EDGE_CURVE('',#692,#700,#107,.T.);
#580=EDGE_CURVE('',#716,#690,#30,.T.);
#581=EDGE_CURVE('',#701,#716,#108,.F.);
#582=EDGE_CURVE('',#694,#713,#109,.T.);
#583=EDGE_CURVE('',#693,#708,#110,.T.);
#584=EDGE_CURVE('',#704,#688,#111,.F.);
#585=EDGE_CURVE('',#717,#703,#112,.T.);
#586=EDGE_CURVE('',#689,#717,#26,.T.);
#587=EDGE_CURVE('',#652,#718,#113,.T.);
#588=EDGE_CURVE('',#702,#718,#114,.F.);
#589=EDGE_CURVE('',#719,#720,#115,.T.);
#590=EDGE_CURVE('',#721,#719,#116,.F.);
#591=EDGE_CURVE('',#722,#721,#117,.T.);
#592=EDGE_CURVE('',#720,#722,#118,.T.);
#593=EDGE_CURVE('',#723,#724,#119,.F.);
#594=EDGE_CURVE('',#725,#723,#769,.F.);
#595=EDGE_CURVE('',#726,#725,#120,.T.);
#596=EDGE_CURVE('',#724,#726,#770,.T.);
#597=EDGE_CURVE('',#727,#728,#121,.F.);
#598=EDGE_CURVE('',#729,#727,#122,.F.);
#599=EDGE_CURVE('',#730,#729,#123,.F.);
#600=EDGE_CURVE('',#728,#730,#124,.T.);
#601=EDGE_CURVE('',#731,#732,#125,.F.);
#602=EDGE_CURVE('',#733,#731,#771,.T.);
#603=EDGE_CURVE('',#734,#733,#126,.T.);
#604=EDGE_CURVE('',#732,#734,#772,.F.);
#605=EDGE_CURVE('',#735,#681,#773,.F.);
#606=EDGE_CURVE('',#718,#735,#774,.F.);
#607=EDGE_CURVE('',#650,#736,#127,.T.);
#608=EDGE_CURVE('',#682,#736,#27,.T.);
#609=EDGE_CURVE('',#736,#737,#128,.T.);
#610=EDGE_CURVE('',#737,#651,#129,.F.);
#611=EDGE_CURVE('',#738,#656,#28,.F.);
#612=EDGE_CURVE('',#739,#738,#130,.T.);
#613=EDGE_CURVE('',#657,#739,#131,.T.);
#614=EDGE_CURVE('',#679,#738,#31,.T.);
#615=EDGE_CURVE('',#739,#678,#775,.T.);
#616=EDGE_CURVE('',#677,#714,#776,.T.);
#617=EDGE_CURVE('',#715,#684,#777,.T.);
#618=EDGE_CURVE('',#683,#737,#778,.T.);
#619=EDGE_CURVE('',#740,#735,#132,.T.);
#620=EDGE_CURVE('',#717,#740,#32,.T.);
#621=EDGE_CURVE('',#740,#680,#33,.T.);
#622=EDGE_CURVE('',#655,#716,#29,.T.);
#623=EDGE_CURVE('',#739,#714,#779,.T.);
#624=EDGE_CURVE('',#715,#737,#780,.T.);
#625=EDGE_CURVE('',#670,#721,#781,.T.);
#626=EDGE_CURVE('',#719,#671,#782,.T.);
#627=EDGE_CURVE('',#669,#731,#783,.F.);
#628=EDGE_CURVE('',#731,#721,#784,.T.);
#629=EDGE_CURVE('',#719,#725,#785,.T.);
#630=EDGE_CURVE('',#725,#672,#786,.F.);
#631=EDGE_CURVE('',#732,#722,#787,.T.);
#632=EDGE_CURVE('',#676,#733,#788,.T.);
#633=EDGE_CURVE('',#674,#729,#789,.T.);
#634=EDGE_CURVE('',#727,#675,#790,.T.);
#635=EDGE_CURVE('',#723,#673,#791,.T.);
#636=EDGE_CURVE('',#720,#726,#792,.T.);
#637=EDGE_CURVE('',#661,#720,#793,.T.);
#638=EDGE_CURVE('',#722,#662,#794,.T.);
#639=EDGE_CURVE('',#732,#663,#795,.F.);
#640=EDGE_CURVE('',#727,#733,#796,.T.);
#641=EDGE_CURVE('',#723,#729,#797,.T.);
#642=EDGE_CURVE('',#660,#726,#798,.F.);
#643=EDGE_CURVE('',#734,#664,#799,.T.);
#644=EDGE_CURVE('',#728,#734,#800,.T.);
#645=EDGE_CURVE('',#724,#730,#801,.T.);
#646=EDGE_CURVE('',#667,#724,#802,.T.);
#647=EDGE_CURVE('',#728,#665,#803,.F.);
#648=EDGE_CURVE('',#666,#730,#804,.F.);
#649=VERTEX_POINT('',#1484);
#650=VERTEX_POINT('',#1486);
#651=VERTEX_POINT('',#1487);
#652=VERTEX_POINT('',#1489);
#653=VERTEX_POINT('',#1491);
#654=VERTEX_POINT('',#1493);
#655=VERTEX_POINT('',#1495);
#656=VERTEX_POINT('',#1497);
#657=VERTEX_POINT('',#1499);
#658=VERTEX_POINT('',#1501);
#659=VERTEX_POINT('',#1503);
#660=VERTEX_POINT('',#1506);
#661=VERTEX_POINT('',#1507);
#662=VERTEX_POINT('',#1509);
#663=VERTEX_POINT('',#1511);
#664=VERTEX_POINT('',#1513);
#665=VERTEX_POINT('',#1515);
#666=VERTEX_POINT('',#1517);
#667=VERTEX_POINT('',#1519);
#668=VERTEX_POINT('',#1523);
#669=VERTEX_POINT('',#1525);
#670=VERTEX_POINT('',#1526);
#671=VERTEX_POINT('',#1528);
#672=VERTEX_POINT('',#1530);
#673=VERTEX_POINT('',#1532);
#674=VERTEX_POINT('',#1534);
#675=VERTEX_POINT('',#1536);
#676=VERTEX_POINT('',#1538);
#677=VERTEX_POINT('',#1541);
#678=VERTEX_POINT('',#1542);
#679=VERTEX_POINT('',#1544);
#680=VERTEX_POINT('',#1546);
#681=VERTEX_POINT('',#1548);
#682=VERTEX_POINT('',#1550);
#683=VERTEX_POINT('',#1552);
#684=VERTEX_POINT('',#1554);
#685=VERTEX_POINT('',#1558);
#686=VERTEX_POINT('',#1559);
#687=VERTEX_POINT('',#1561);
#688=VERTEX_POINT('',#1563);
#689=VERTEX_POINT('',#1565);
#690=VERTEX_POINT('',#1567);
#691=VERTEX_POINT('',#1569);
#692=VERTEX_POINT('',#1571);
#693=VERTEX_POINT('',#1574);
#694=VERTEX_POINT('',#1575);
#695=VERTEX_POINT('',#1577);
#696=VERTEX_POINT('',#1579);
#697=VERTEX_POINT('',#1581);
#698=VERTEX_POINT('',#1583);
#699=VERTEX_POINT('',#1587);
#700=VERTEX_POINT('',#1588);
#701=VERTEX_POINT('',#1590);
#702=VERTEX_POINT('',#1593);
#703=VERTEX_POINT('',#1595);
#704=VERTEX_POINT('',#1597);
#705=VERTEX_POINT('',#1599);
#706=VERTEX_POINT('',#1601);
#707=VERTEX_POINT('',#1603);
#708=VERTEX_POINT('',#1606);
#709=VERTEX_POINT('',#1607);
#710=VERTEX_POINT('',#1609);
#711=VERTEX_POINT('',#1611);
#712=VERTEX_POINT('',#1613);
#713=VERTEX_POINT('',#1615);
#714=VERTEX_POINT('',#1619);
#715=VERTEX_POINT('',#1621);
#716=VERTEX_POINT('',#1643);
#717=VERTEX_POINT('',#1653);
#718=VERTEX_POINT('',#1657);
#719=VERTEX_POINT('',#1661);
#720=VERTEX_POINT('',#1662);
#721=VERTEX_POINT('',#1664);
#722=VERTEX_POINT('',#1666);
#723=VERTEX_POINT('',#1670);
#724=VERTEX_POINT('',#1671);
#725=VERTEX_POINT('',#1673);
#726=VERTEX_POINT('',#1675);
#727=VERTEX_POINT('',#1679);
#728=VERTEX_POINT('',#1680);
#729=VERTEX_POINT('',#1682);
#730=VERTEX_POINT('',#1684);
#731=VERTEX_POINT('',#1688);
#732=VERTEX_POINT('',#1689);
#733=VERTEX_POINT('',#1691);
#734=VERTEX_POINT('',#1693);
#735=VERTEX_POINT('',#1697);
#736=VERTEX_POINT('',#1700);
#737=VERTEX_POINT('',#1704);
#738=VERTEX_POINT('',#1708);
#739=VERTEX_POINT('',#1710);
#740=VERTEX_POINT('',#1726);
#741=CIRCLE('',#1027,0.00144347551651268);
#742=CIRCLE('',#1028,0.00590039403774591);
#743=CIRCLE('',#1029,0.00590039403774591);
#744=CIRCLE('',#1030,0.00018396307345283);
#745=CIRCLE('',#1031,0.00018396307345283);
#746=CIRCLE('',#1032,0.00643430967874436);
#747=CIRCLE('',#1033,0.00018396307345283);
#748=CIRCLE('',#1034,0.00018396307345283);
#749=CIRCLE('',#1035,0.0036476481355404);
#750=CIRCLE('',#1037,0.00144347551651268);
#751=CIRCLE('',#1038,0.00018396307345283);
#752=CIRCLE('',#1039,0.00018396307345283);
#753=CIRCLE('',#1040,0.0036476481355404);
#754=CIRCLE('',#1041,0.00018396307345283);
#755=CIRCLE('',#1042,0.00018396307345283);
#756=CIRCLE('',#1043,0.00643430967874436);
#757=CIRCLE('',#1044,0.00537916063774591);
#758=CIRCLE('',#1045,0.00537916063774591);
#759=CIRCLE('',#1047,0.00355560627074051);
#760=CIRCLE('',#1048,0.00395825184867217);
#761=CIRCLE('',#1049,0.00364831982914648);
#762=CIRCLE('',#1050,0.0039582598);
#763=CIRCLE('',#1052,0.00364831982914648);
#764=CIRCLE('',#1053,0.0039582598);
#765=CIRCLE('',#1054,0.00665387386083941);
#766=CIRCLE('',#1055,0.00395825184867217);
#767=CIRCLE('',#1056,0.00355560627074051);
#768=CIRCLE('',#1057,0.0039582598);
#769=CIRCLE('',#1074,0.00373962967226681);
#770=CIRCLE('',#1075,0.00373962967226681);
#771=CIRCLE('',#1078,0.00634232814201794);
#772=CIRCLE('',#1079,0.00634232814201794);
#773=CIRCLE('',#1081,0.000685318706218801);
#774=CIRCLE('',#1082,0.00665387386083941);
#775=CIRCLE('',#1088,0.0005212334);
#776=CIRCLE('',#1090,0.0005212334);
#777=CIRCLE('',#1091,0.0005212334);
#778=CIRCLE('',#1093,0.0005212334);
#779=CIRCLE('',#1102,0.00590039403774591);
#780=CIRCLE('',#1105,0.00590039403774591);
#781=CIRCLE('',#1108,9.19815367264149E-05);
#782=CIRCLE('',#1109,9.19815367264149E-05);
#783=CIRCLE('',#1111,9.19815367264149E-05);
#784=CIRCLE('',#1112,9.19815367264149E-05);
#785=CIRCLE('',#1114,9.19815367264149E-05);
#786=CIRCLE('',#1115,9.19815367264149E-05);
#787=CIRCLE('',#1117,9.19815367264149E-05);
#788=CIRCLE('',#1119,9.19815367264149E-05);
#789=CIRCLE('',#1121,9.19815367264149E-05);
#790=CIRCLE('',#1122,9.19815367264149E-05);
#791=CIRCLE('',#1124,9.19815367264149E-05);
#792=CIRCLE('',#1126,9.19815367264149E-05);
#793=CIRCLE('',#1128,9.19815367264149E-05);
#794=CIRCLE('',#1129,9.19815367264149E-05);
#795=CIRCLE('',#1131,9.19815367264149E-05);
#796=CIRCLE('',#1133,9.19815367264149E-05);
#797=CIRCLE('',#1135,9.19815367264149E-05);
#798=CIRCLE('',#1137,9.19815367264149E-05);
#799=CIRCLE('',#1139,9.19815367264149E-05);
#800=CIRCLE('',#1141,9.19815367264149E-05);
#801=CIRCLE('',#1143,9.19815367264149E-05);
#802=CIRCLE('',#1145,9.19815367264149E-05);
#803=CIRCLE('',#1147,9.19815367264149E-05);
#804=CIRCLE('',#1149,9.19815367264149E-05);
#805=EDGE_LOOP('',(#208));
#806=EDGE_LOOP('',(#209,#210,#211,#212,#213,#214,#215,#216,#217,#218));
#807=EDGE_LOOP('',(#219,#220,#221,#222,#223,#224,#225,#226));
#808=EDGE_LOOP('',(#227));
#809=EDGE_LOOP('',(#228,#229,#230,#231,#232,#233,#234,#235));
#810=EDGE_LOOP('',(#236,#237,#238,#239,#240,#241,#242,#243));
#811=EDGE_LOOP('',(#244,#245,#246,#247,#248,#249,#250,#251));
#812=EDGE_LOOP('',(#252,#253,#254,#255,#256,#257));
#813=EDGE_LOOP('',(#258,#259,#260,#261,#262,#263,#264,#265,#266,#267,#268));
#814=EDGE_LOOP('',(#269,#270,#271,#272,#273,#274));
#815=EDGE_LOOP('',(#275,#276,#277,#278));
#816=EDGE_LOOP('',(#279,#280,#281,#282));
#817=EDGE_LOOP('',(#283,#284,#285,#286));
#818=EDGE_LOOP('',(#287,#288,#289,#290));
#819=EDGE_LOOP('',(#291,#292,#293,#294));
#820=EDGE_LOOP('',(#295,#296,#297,#298));
#821=EDGE_LOOP('',(#299,#300,#301,#302));
#822=EDGE_LOOP('',(#303,#304,#305,#306,#307));
#823=EDGE_LOOP('',(#308,#309,#310,#311));
#824=EDGE_LOOP('',(#312,#313,#314,#315));
#825=EDGE_LOOP('',(#316,#317,#318,#319));
#826=EDGE_LOOP('',(#320,#321,#322,#323,#324));
#827=EDGE_LOOP('',(#325,#326,#327,#328));
#828=EDGE_LOOP('',(#329,#330,#331,#332));
#829=EDGE_LOOP('',(#333,#334,#335,#336));
#830=EDGE_LOOP('',(#337,#338,#339,#340));
#831=EDGE_LOOP('',(#341,#342,#343,#344));
#832=EDGE_LOOP('',(#345,#346,#347,#348,#349,#350,#351));
#833=EDGE_LOOP('',(#352,#353,#354,#355));
#834=EDGE_LOOP('',(#356,#357,#358,#359));
#835=EDGE_LOOP('',(#360,#361,#362,#363));
#836=EDGE_LOOP('',(#364,#365,#366,#367));
#837=EDGE_LOOP('',(#368,#369,#370,#371));
#838=EDGE_LOOP('',(#372,#373,#374,#375,#376,#377));
#839=EDGE_LOOP('',(#378,#379,#380,#381));
#840=EDGE_LOOP('',(#382,#383,#384,#385));
#841=EDGE_LOOP('',(#386,#387,#388,#389));
#842=EDGE_LOOP('',(#390,#391,#392,#393,#394,#395,#396,#397,#398,#399));
#843=EDGE_LOOP('',(#400,#401,#402,#403));
#844=EDGE_LOOP('',(#404,#405,#406,#407));
#845=EDGE_LOOP('',(#408,#409,#410,#411));
#846=EDGE_LOOP('',(#412,#413,#414,#415));
#847=EDGE_LOOP('',(#416,#417,#418,#419));
#848=EDGE_LOOP('',(#420,#421,#422,#423));
#849=EDGE_LOOP('',(#424,#425,#426,#427));
#850=EDGE_LOOP('',(#428,#429,#430,#431));
#851=EDGE_LOOP('',(#432,#433,#434,#435));
#852=EDGE_LOOP('',(#436,#437,#438,#439));
#853=EDGE_LOOP('',(#440,#441,#442,#443));
#854=EDGE_LOOP('',(#444,#445,#446,#447));
#855=EDGE_LOOP('',(#448,#449,#450,#451));
#856=EDGE_LOOP('',(#452,#453,#454,#455));
#857=EDGE_LOOP('',(#456,#457,#458,#459));
#858=EDGE_LOOP('',(#460,#461,#462,#463));
#859=EDGE_LOOP('',(#464,#465,#466,#467));
#860=EDGE_LOOP('',(#468,#469,#470,#471));
#861=EDGE_LOOP('',(#472,#473,#474,#475));
#862=EDGE_LOOP('',(#476,#477,#478,#479));
#863=EDGE_LOOP('',(#480,#481,#482,#483));
#864=EDGE_LOOP('',(#484,#485,#486,#487));
#865=EDGE_LOOP('',(#488,#489,#490,#491));
#866=EDGE_LOOP('',(#492,#493,#494,#495));
#867=EDGE_LOOP('',(#496,#497,#498,#499));
#868=EDGE_LOOP('',(#500));
#869=EDGE_LOOP('',(#501));
#870=FACE_BOUND('',#805,.T.);
#871=FACE_BOUND('',#806,.T.);
#872=FACE_BOUND('',#807,.T.);
#873=FACE_BOUND('',#808,.T.);
#874=FACE_BOUND('',#809,.T.);
#875=FACE_BOUND('',#810,.T.);
#876=FACE_BOUND('',#811,.T.);
#877=FACE_BOUND('',#812,.T.);
#878=FACE_BOUND('',#813,.T.);
#879=FACE_BOUND('',#814,.T.);
#880=FACE_BOUND('',#815,.T.);
#881=FACE_BOUND('',#816,.T.);
#882=FACE_BOUND('',#817,.T.);
#883=FACE_BOUND('',#818,.T.);
#884=FACE_BOUND('',#819,.T.);
#885=FACE_BOUND('',#820,.T.);
#886=FACE_BOUND('',#821,.T.);
#887=FACE_BOUND('',#822,.T.);
#888=FACE_BOUND('',#823,.T.);
#889=FACE_BOUND('',#824,.T.);
#890=FACE_BOUND('',#825,.T.);
#891=FACE_BOUND('',#826,.T.);
#892=FACE_BOUND('',#827,.T.);
#893=FACE_BOUND('',#828,.T.);
#894=FACE_BOUND('',#829,.T.);
#895=FACE_BOUND('',#830,.T.);
#896=FACE_BOUND('',#831,.T.);
#897=FACE_BOUND('',#832,.T.);
#898=FACE_BOUND('',#833,.T.);
#899=FACE_BOUND('',#834,.T.);
#900=FACE_BOUND('',#835,.T.);
#901=FACE_BOUND('',#836,.T.);
#902=FACE_BOUND('',#837,.T.);
#903=FACE_BOUND('',#838,.T.);
#904=FACE_BOUND('',#839,.T.);
#905=FACE_BOUND('',#840,.T.);
#906=FACE_BOUND('',#841,.T.);
#907=FACE_BOUND('',#842,.T.);
#908=FACE_BOUND('',#843,.T.);
#909=FACE_BOUND('',#844,.T.);
#910=FACE_BOUND('',#845,.T.);
#911=FACE_BOUND('',#846,.T.);
#912=FACE_BOUND('',#847,.T.);
#913=FACE_BOUND('',#848,.T.);
#914=FACE_BOUND('',#849,.T.);
#915=FACE_BOUND('',#850,.T.);
#916=FACE_BOUND('',#851,.T.);
#917=FACE_BOUND('',#852,.T.);
#918=FACE_BOUND('',#853,.T.);
#919=FACE_BOUND('',#854,.T.);
#920=FACE_BOUND('',#855,.T.);
#921=FACE_BOUND('',#856,.T.);
#922=FACE_BOUND('',#857,.T.);
#923=FACE_BOUND('',#858,.T.);
#924=FACE_BOUND('',#859,.T.);
#925=FACE_BOUND('',#860,.T.);
#926=FACE_BOUND('',#861,.T.);
#927=FACE_BOUND('',#862,.T.);
#928=FACE_BOUND('',#863,.T.);
#929=FACE_BOUND('',#864,.T.);
#930=FACE_BOUND('',#865,.T.);
#931=FACE_BOUND('',#866,.T.);
#932=FACE_BOUND('',#867,.T.);
#933=FACE_BOUND('',#868,.T.);
#934=FACE_BOUND('',#869,.T.);
#935=PLANE('',#1026);
#936=PLANE('',#1036);
#937=PLANE('',#1046);
#938=PLANE('',#1051);
#939=PLANE('',#1058);
#940=PLANE('',#1059);
#941=PLANE('',#1060);
#942=PLANE('',#1061);
#943=PLANE('',#1063);
#944=PLANE('',#1064);
#945=PLANE('',#1066);
#946=PLANE('',#1067);
#947=PLANE('',#1068);
#948=PLANE('',#1069);
#949=PLANE('',#1071);
#950=PLANE('',#1072);
#951=PLANE('',#1076);
#952=PLANE('',#1080);
#953=PLANE('',#1084);
#954=PLANE('',#1085);
#955=ADVANCED_FACE('',(#870,#871,#872),#935,.F.);
#956=ADVANCED_FACE('',(#873,#874,#875),#936,.T.);
#957=ADVANCED_FACE('',(#876,#877),#937,.T.);
#958=ADVANCED_FACE('',(#878,#879),#938,.F.);
#959=ADVANCED_FACE('',(#880),#939,.T.);
#960=ADVANCED_FACE('',(#881),#940,.F.);
#961=ADVANCED_FACE('',(#882),#941,.T.);
#962=ADVANCED_FACE('',(#883),#942,.T.);
#963=ADVANCED_FACE('',(#884),#34,.T.);
#964=ADVANCED_FACE('',(#885),#943,.F.);
#965=ADVANCED_FACE('',(#886),#944,.T.);
#966=ADVANCED_FACE('',(#887),#35,.F.);
#967=ADVANCED_FACE('',(#888),#945,.T.);
#968=ADVANCED_FACE('',(#889),#946,.F.);
#969=ADVANCED_FACE('',(#890),#947,.T.);
#970=ADVANCED_FACE('',(#891),#948,.T.);
#971=ADVANCED_FACE('',(#892),#949,.T.);
#972=ADVANCED_FACE('',(#893),#950,.T.);
#973=ADVANCED_FACE('',(#894),#36,.T.);
#974=ADVANCED_FACE('',(#895),#951,.T.);
#975=ADVANCED_FACE('',(#896),#37,.F.);
#976=ADVANCED_FACE('',(#897),#952,.T.);
#977=ADVANCED_FACE('',(#898),#953,.F.);
#978=ADVANCED_FACE('',(#899),#954,.F.);
#979=ADVANCED_FACE('',(#900),#38,.T.);
#980=ADVANCED_FACE('',(#901),#39,.T.);
#981=ADVANCED_FACE('',(#902),#40,.T.);
#982=ADVANCED_FACE('',(#903),#41,.T.);
#983=ADVANCED_FACE('',(#904),#42,.F.);
#984=ADVANCED_FACE('',(#905),#43,.T.);
#985=ADVANCED_FACE('',(#906),#44,.T.);
#986=ADVANCED_FACE('',(#907),#45,.T.);
#987=ADVANCED_FACE('',(#908),#46,.T.);
#988=ADVANCED_FACE('',(#909),#47,.T.);
#989=ADVANCED_FACE('',(#910),#12,.T.);
#990=ADVANCED_FACE('',(#911),#48,.T.);
#991=ADVANCED_FACE('',(#912),#13,.T.);
#992=ADVANCED_FACE('',(#913),#49,.T.);
#993=ADVANCED_FACE('',(#914),#14,.T.);
#994=ADVANCED_FACE('',(#915),#15,.T.);
#995=ADVANCED_FACE('',(#916),#50,.F.);
#996=ADVANCED_FACE('',(#917),#16,.T.);
#997=ADVANCED_FACE('',(#918),#51,.T.);
#998=ADVANCED_FACE('',(#919),#17,.T.);
#999=ADVANCED_FACE('',(#920),#52,.F.);
#1000=ADVANCED_FACE('',(#921),#53,.T.);
#1001=ADVANCED_FACE('',(#922),#18,.T.);
#1002=ADVANCED_FACE('',(#923),#19,.T.);
#1003=ADVANCED_FACE('',(#924),#20,.T.);
#1004=ADVANCED_FACE('',(#925),#21,.T.);
#1005=ADVANCED_FACE('',(#926),#22,.T.);
#1006=ADVANCED_FACE('',(#927),#54,.F.);
#1007=ADVANCED_FACE('',(#928),#55,.F.);
#1008=ADVANCED_FACE('',(#929),#23,.T.);
#1009=ADVANCED_FACE('',(#930),#24,.T.);
#1010=ADVANCED_FACE('',(#931),#25,.T.);
#1011=ADVANCED_FACE('',(#932),#56,.T.);
#1012=ADVANCED_FACE('',(#933,#934),#57,.F.);
#1013=CLOSED_SHELL('',(#955,#956,#957,#958,#959,#960,#961,#962,#963,#964,#965,#966,#967,#968,#969,#970,#971,#972,#973,#974,#975,#976,#977,#978,#979,#980,#981,#982,#983,#984,#985,#986,#987,#988,#989,#990,#991,#992,#993,#994,#995,#996,#997,#998,#999,#1000,#1001,#1002,#1003,#1004,#1005,#1006,#1007,#1008,#1009,#1010,#1011,#1012));
#1014=STYLED_ITEM('',(#1015),#1022);
#1015=PRESENTATION_STYLE_ASSIGNMENT((#1016));
#1016=SURFACE_STYLE_USAGE(.BOTH.,#1017);
#1017=SURFACE_SIDE_STYLE('',(#1018));
#1018=SURFACE_STYLE_FILL_AREA(#1019);
#1019=FILL_AREA_STYLE('',(#1020));
#1020=FILL_AREA_STYLE_COLOUR('',#1021);
#1021=COLOUR_RGB('',0.0745098039215686,0.588235294117647,0.945098039215686);
#1022=MANIFOLD_SOLID_BREP('Part 7',#1013);
#1023=SHAPE_DEFINITION_REPRESENTATION(#1799,#1024);
#1024=SHAPE_REPRESENTATION('Part 7',(#1025),#1794);
#1025=AXIS2_PLACEMENT_3D('',#1481,#1152,#1153);
#1026=AXIS2_PLACEMENT_3D('',#1482,#1154,#1155);
#1027=AXIS2_PLACEMENT_3D('',#1483,#1156,#1157);
#1028=AXIS2_PLACEMENT_3D('',#1500,#1165,#1166);
#1029=AXIS2_PLACEMENT_3D('',#1504,#1168,#1169);
#1030=AXIS2_PLACEMENT_3D('',#1505,#1170,#1171);
#1031=AXIS2_PLACEMENT_3D('',#1510,#1173,#1174);
#1032=AXIS2_PLACEMENT_3D('',#1512,#1175,#1176);
#1033=AXIS2_PLACEMENT_3D('',#1514,#1177,#1178);
#1034=AXIS2_PLACEMENT_3D('',#1518,#1180,#1181);
#1035=AXIS2_PLACEMENT_3D('',#1520,#1182,#1183);
#1036=AXIS2_PLACEMENT_3D('',#1521,#1184,#1185);
#1037=AXIS2_PLACEMENT_3D('',#1522,#1186,#1187);
#1038=AXIS2_PLACEMENT_3D('',#1524,#1188,#1189);
#1039=AXIS2_PLACEMENT_3D('',#1529,#1191,#1192);
#1040=AXIS2_PLACEMENT_3D('',#1531,#1193,#1194);
#1041=AXIS2_PLACEMENT_3D('',#1533,#1195,#1196);
#1042=AXIS2_PLACEMENT_3D('',#1537,#1198,#1199);
#1043=AXIS2_PLACEMENT_3D('',#1539,#1200,#1201);
#1044=AXIS2_PLACEMENT_3D('',#1540,#1202,#1203);
#1045=AXIS2_PLACEMENT_3D('',#1553,#1209,#1210);
#1046=AXIS2_PLACEMENT_3D('',#1556,#1212,#1213);
#1047=AXIS2_PLACEMENT_3D('',#1560,#1215,#1216);
#1048=AXIS2_PLACEMENT_3D('',#1562,#1217,#1218);
#1049=AXIS2_PLACEMENT_3D('',#1568,#1221,#1222);
#1050=AXIS2_PLACEMENT_3D('',#1572,#1224,#1225);
#1051=AXIS2_PLACEMENT_3D('',#1585,#1232,#1233);
#1052=AXIS2_PLACEMENT_3D('',#1589,#1235,#1236);
#1053=AXIS2_PLACEMENT_3D('',#1591,#1237,#1238);
#1054=AXIS2_PLACEMENT_3D('',#1594,#1240,#1241);
#1055=AXIS2_PLACEMENT_3D('',#1598,#1243,#1244);
#1056=AXIS2_PLACEMENT_3D('',#1600,#1245,#1246);
#1057=AXIS2_PLACEMENT_3D('',#1604,#1248,#1249);
#1058=AXIS2_PLACEMENT_3D('',#1617,#1256,#1257);
#1059=AXIS2_PLACEMENT_3D('',#1623,#1261,#1262);
#1060=AXIS2_PLACEMENT_3D('',#1626,#1265,#1266);
#1061=AXIS2_PLACEMENT_3D('',#1628,#1268,#1269);
#1062=AXIS2_PLACEMENT_3D('',#1630,#1271,#1272);
#1063=AXIS2_PLACEMENT_3D('',#1633,#1275,#1276);
#1064=AXIS2_PLACEMENT_3D('',#1635,#1278,#1279);
#1065=AXIS2_PLACEMENT_3D('',#1638,#1282,#1283);
#1066=AXIS2_PLACEMENT_3D('',#1645,#1285,#1286);
#1067=AXIS2_PLACEMENT_3D('',#1647,#1288,#1289);
#1068=AXIS2_PLACEMENT_3D('',#1649,#1291,#1292);
#1069=AXIS2_PLACEMENT_3D('',#1650,#1293,#1294);
#1070=AXIS2_PLACEMENT_3D('',#1654,#1297,#1298);
#1071=AXIS2_PLACEMENT_3D('',#1655,#1299,#1300);
#1072=AXIS2_PLACEMENT_3D('',#1659,#1303,#1304);
#1073=AXIS2_PLACEMENT_3D('',#1668,#1309,#1310);
#1074=AXIS2_PLACEMENT_3D('',#1672,#1312,#1313);
#1075=AXIS2_PLACEMENT_3D('',#1676,#1315,#1316);
#1076=AXIS2_PLACEMENT_3D('',#1677,#1317,#1318);
#1077=AXIS2_PLACEMENT_3D('',#1686,#1323,#1324);
#1078=AXIS2_PLACEMENT_3D('',#1690,#1326,#1327);
#1079=AXIS2_PLACEMENT_3D('',#1694,#1329,#1330);
#1080=AXIS2_PLACEMENT_3D('',#1695,#1331,#1332);
#1081=AXIS2_PLACEMENT_3D('',#1696,#1333,#1334);
#1082=AXIS2_PLACEMENT_3D('',#1698,#1335,#1336);
#1083=AXIS2_PLACEMENT_3D('',#1701,#1338,#1339);
#1084=AXIS2_PLACEMENT_3D('',#1702,#1340,#1341);
#1085=AXIS2_PLACEMENT_3D('',#1706,#1344,#1345);
#1086=AXIS2_PLACEMENT_3D('',#1707,#1346,#1347);
#1087=AXIS2_PLACEMENT_3D('',#1712,#1350,#1351);
#1088=AXIS2_PLACEMENT_3D('',#1718,#1352,#1353);
#1089=AXIS2_PLACEMENT_3D('',#1719,#1354,#1355);
#1090=AXIS2_PLACEMENT_3D('',#1720,#1356,#1357);
#1091=AXIS2_PLACEMENT_3D('',#1721,#1358,#1359);
#1092=AXIS2_PLACEMENT_3D('',#1722,#1360,#1361);
#1093=AXIS2_PLACEMENT_3D('',#1723,#1362,#1363);
#1094=AXIS2_PLACEMENT_3D('',#1724,#1364,#1365);
#1095=AXIS2_PLACEMENT_3D('',#1731,#1367,#1368);
#1096=AXIS2_PLACEMENT_3D('',#1737,#1369,#1370);
#1097=AXIS2_PLACEMENT_3D('',#1738,#1371,#1372);
#1098=AXIS2_PLACEMENT_3D('',#1739,#1373,#1374);
#1099=AXIS2_PLACEMENT_3D('',#1740,#1375,#1376);
#1100=AXIS2_PLACEMENT_3D('',#1741,#1377,#1378);
#1101=AXIS2_PLACEMENT_3D('',#1742,#1379,#1380);
#1102=AXIS2_PLACEMENT_3D('',#1743,#1381,#1382);
#1103=AXIS2_PLACEMENT_3D('',#1744,#1383,#1384);
#1104=AXIS2_PLACEMENT_3D('',#1745,#1385,#1386);
#1105=AXIS2_PLACEMENT_3D('',#1746,#1387,#1388);
#1106=AXIS2_PLACEMENT_3D('',#1747,#1389,#1390);
#1107=AXIS2_PLACEMENT_3D('',#1748,#1391,#1392);
#1108=AXIS2_PLACEMENT_3D('',#1749,#1393,#1394);
#1109=AXIS2_PLACEMENT_3D('',#1750,#1395,#1396);
#1110=AXIS2_PLACEMENT_3D('',#1751,#1397,#1398);
#1111=AXIS2_PLACEMENT_3D('',#1752,#1399,#1400);
#1112=AXIS2_PLACEMENT_3D('',#1753,#1401,#1402);
#1113=AXIS2_PLACEMENT_3D('',#1754,#1403,#1404);
#1114=AXIS2_PLACEMENT_3D('',#1755,#1405,#1406);
#1115=AXIS2_PLACEMENT_3D('',#1756,#1407,#1408);
#1116=AXIS2_PLACEMENT_3D('',#1757,#1409,#1410);
#1117=AXIS2_PLACEMENT_3D('',#1758,#1411,#1412);
#1118=AXIS2_PLACEMENT_3D('',#1759,#1413,#1414);
#1119=AXIS2_PLACEMENT_3D('',#1760,#1415,#1416);
#1120=AXIS2_PLACEMENT_3D('',#1761,#1417,#1418);
#1121=AXIS2_PLACEMENT_3D('',#1762,#1419,#1420);
#1122=AXIS2_PLACEMENT_3D('',#1763,#1421,#1422);
#1123=AXIS2_PLACEMENT_3D('',#1764,#1423,#1424);
#1124=AXIS2_PLACEMENT_3D('',#1765,#1425,#1426);
#1125=AXIS2_PLACEMENT_3D('',#1766,#1427,#1428);
#1126=AXIS2_PLACEMENT_3D('',#1767,#1429,#1430);
#1127=AXIS2_PLACEMENT_3D('',#1768,#1431,#1432);
#1128=AXIS2_PLACEMENT_3D('',#1769,#1433,#1434);
#1129=AXIS2_PLACEMENT_3D('',#1770,#1435,#1436);
#1130=AXIS2_PLACEMENT_3D('',#1771,#1437,#1438);
#1131=AXIS2_PLACEMENT_3D('',#1772,#1439,#1440);
#1132=AXIS2_PLACEMENT_3D('',#1773,#1441,#1442);
#1133=AXIS2_PLACEMENT_3D('',#1774,#1443,#1444);
#1134=AXIS2_PLACEMENT_3D('',#1775,#1445,#1446);
#1135=AXIS2_PLACEMENT_3D('',#1776,#1447,#1448);
#1136=AXIS2_PLACEMENT_3D('',#1777,#1449,#1450);
#1137=AXIS2_PLACEMENT_3D('',#1778,#1451,#1452);
#1138=AXIS2_PLACEMENT_3D('',#1779,#1453,#1454);
#1139=AXIS2_PLACEMENT_3D('',#1780,#1455,#1456);
#1140=AXIS2_PLACEMENT_3D('',#1781,#1457,#1458);
#1141=AXIS2_PLACEMENT_3D('',#1782,#1459,#1460);
#1142=AXIS2_PLACEMENT_3D('',#1783,#1461,#1462);
#1143=AXIS2_PLACEMENT_3D('',#1784,#1463,#1464);
#1144=AXIS2_PLACEMENT_3D('',#1785,#1465,#1466);
#1145=AXIS2_PLACEMENT_3D('',#1786,#1467,#1468);
#1146=AXIS2_PLACEMENT_3D('',#1787,#1469,#1470);
#1147=AXIS2_PLACEMENT_3D('',#1788,#1471,#1472);
#1148=AXIS2_PLACEMENT_3D('',#1789,#1473,#1474);
#1149=AXIS2_PLACEMENT_3D('',#1790,#1475,#1476);
#1150=AXIS2_PLACEMENT_3D('',#1791,#1477,#1478);
#1151=AXIS2_PLACEMENT_3D('',#1792,#1479,#1480);
#1152=DIRECTION('',(0.,0.,1.));
#1153=DIRECTION('',(1.,0.,0.));
#1154=DIRECTION('',(0.,-1.,0.));
#1155=DIRECTION('',(0.,0.,1.));
#1156=DIRECTION('',(0.,-1.,0.));
#1157=DIRECTION('',(0.,0.,-1.));
#1158=DIRECTION('',(0.866433118735577,0.,0.499293151122807));
#1159=DIRECTION('',(-1.,0.,0.));
#1160=DIRECTION('',(0.,0.,-1.));
#1161=DIRECTION('',(1.,0.,0.));
#1162=DIRECTION('',(0.,0.,1.));
#1163=DIRECTION('',(1.,0.,0.));
#1164=DIRECTION('',(-0.866433118735577,0.,0.499293151122807));
#1165=DIRECTION('',(0.,1.,0.));
#1166=DIRECTION('',(0.,0.,1.));
#1167=DIRECTION('',(0.,0.,-1.));
#1168=DIRECTION('',(0.,1.,0.));
#1169=DIRECTION('',(0.,0.,1.));
#1170=DIRECTION('',(0.,1.,0.));
#1171=DIRECTION('',(0.,0.,1.));
#1172=DIRECTION('',(1.,0.,0.));
#1173=DIRECTION('',(0.,1.,0.));
#1174=DIRECTION('',(0.,0.,1.));
#1175=DIRECTION('',(0.,1.,0.));
#1176=DIRECTION('',(0.,0.,1.));
#1177=DIRECTION('',(0.,1.,0.));
#1178=DIRECTION('',(0.,0.,1.));
#1179=DIRECTION('',(0.516475338431272,0.,-0.856302063989281));
#1180=DIRECTION('',(0.,1.,0.));
#1181=DIRECTION('',(0.,0.,1.));
#1182=DIRECTION('',(0.,1.,0.));
#1183=DIRECTION('',(0.,0.,1.));
#1184=DIRECTION('',(0.,-1.,0.));
#1185=DIRECTION('',(0.,0.,1.));
#1186=DIRECTION('',(0.,-1.,0.));
#1187=DIRECTION('',(0.,0.,-1.));
#1188=DIRECTION('',(0.,1.,0.));
#1189=DIRECTION('',(0.,0.,1.));
#1190=DIRECTION('',(1.,0.,0.));
#1191=DIRECTION('',(0.,1.,0.));
#1192=DIRECTION('',(0.,0.,1.));
#1193=DIRECTION('',(0.,1.,0.));
#1194=DIRECTION('',(0.,0.,1.));
#1195=DIRECTION('',(0.,1.,0.));
#1196=DIRECTION('',(0.,0.,1.));
#1197=DIRECTION('',(0.516475338431272,0.,-0.856302063989281));
#1198=DIRECTION('',(0.,1.,0.));
#1199=DIRECTION('',(0.,0.,1.));
#1200=DIRECTION('',(0.,1.,0.));
#1201=DIRECTION('',(0.,0.,1.));
#1202=DIRECTION('',(0.,1.,0.));
#1203=DIRECTION('',(0.,0.,1.));
#1204=DIRECTION('',(-0.866433118735577,0.,0.499293151122807));
#1205=DIRECTION('',(-1.,0.,0.));
#1206=DIRECTION('',(0.,0.,1.));
#1207=DIRECTION('',(-1.,0.,0.));
#1208=DIRECTION('',(0.866433118735577,0.,0.499293151122807));
#1209=DIRECTION('',(0.,1.,0.));
#1210=DIRECTION('',(0.,0.,1.));
#1211=DIRECTION('',(0.,0.,-1.));
#1212=DIRECTION('',(0.,0.,1.));
#1213=DIRECTION('',(-1.,0.,0.));
#1214=DIRECTION('',(0.,1.,0.));
#1215=DIRECTION('',(0.,0.,-1.));
#1216=DIRECTION('',(1.,0.,0.));
#1217=DIRECTION('',(0.,0.,-1.));
#1218=DIRECTION('',(1.,0.,0.));
#1219=DIRECTION('',(0.243871317408977,0.969807599756369,0.));
#1220=DIRECTION('',(1.,0.,0.));
#1221=DIRECTION('',(0.,0.,-1.));
#1222=DIRECTION('',(1.,0.,0.));
#1223=DIRECTION('',(-0.797864635833349,-0.602836646933908,0.));
#1224=DIRECTION('',(0.,0.,-1.));
#1225=DIRECTION('',(1.,0.,0.));
#1226=DIRECTION('',(-1.,0.,0.));
#1227=DIRECTION('',(-0.500000000000032,0.86602540378442,0.));
#1228=DIRECTION('',(0.499999999999962,0.866025403784461,0.));
#1229=DIRECTION('',(1.,-3.13002914993613E-14,0.));
#1230=DIRECTION('',(-0.499999999999915,0.866025403784488,0.));
#1231=DIRECTION('',(0.499999999999985,0.866025403784447,0.));
#1232=DIRECTION('',(0.,0.,1.));
#1233=DIRECTION('',(1.,0.,0.));
#1234=DIRECTION('',(-0.797864635833349,-0.602836646933908,0.));
#1235=DIRECTION('',(0.,0.,-1.));
#1236=DIRECTION('',(1.,0.,0.));
#1237=DIRECTION('',(0.,0.,-1.));
#1238=DIRECTION('',(1.,0.,0.));
#1239=DIRECTION('',(0.,-1.,0.));
#1240=DIRECTION('',(0.,0.,-1.));
#1241=DIRECTION('',(1.,0.,0.));
#1242=DIRECTION('',(0.243871317408977,0.969807599756369,0.));
#1243=DIRECTION('',(0.,0.,-1.));
#1244=DIRECTION('',(1.,0.,0.));
#1245=DIRECTION('',(0.,0.,-1.));
#1246=DIRECTION('',(1.,0.,0.));
#1247=DIRECTION('',(0.,1.,0.));
#1248=DIRECTION('',(0.,0.,-1.));
#1249=DIRECTION('',(1.,0.,0.));
#1250=DIRECTION('',(0.499999999999985,0.866025403784447,0.));
#1251=DIRECTION('',(-0.499999999999915,0.866025403784488,0.));
#1252=DIRECTION('',(1.,-3.13002914993613E-14,0.));
#1253=DIRECTION('',(0.499999999999962,0.866025403784461,0.));
#1254=DIRECTION('',(-0.500000000000032,0.86602540378442,0.));
#1255=DIRECTION('',(-1.,0.,0.));
#1256=DIRECTION('',(1.,0.,0.));
#1257=DIRECTION('',(0.,0.,-1.));
#1258=DIRECTION('',(0.,-1.,0.));
#1259=DIRECTION('',(0.,0.,-1.));
#1260=DIRECTION('',(0.,-1.,0.));
#1261=DIRECTION('',(0.866025403784488,0.499999999999915,0.));
#1262=DIRECTION('',(0.499999999999915,-0.866025403784488,0.));
#1263=DIRECTION('',(0.,0.,-1.));
#1264=DIRECTION('',(0.,0.,-1.));
#1265=DIRECTION('',(-3.13002914993613E-14,-1.,0.));
#1266=DIRECTION('',(-1.,3.13002914993613E-14,0.));
#1267=DIRECTION('',(0.,0.,-1.));
#1268=DIRECTION('',(0.866025403784461,-0.499999999999962,0.));
#1269=DIRECTION('',(-0.499999999999962,-0.866025403784461,0.));
#1270=DIRECTION('',(0.,0.,-1.));
#1271=DIRECTION('',(0.,0.,-1.));
#1272=DIRECTION('',(-1.,0.,0.));
#1273=DIRECTION('',(0.,0.,-1.));
#1274=DIRECTION('',(0.,0.,-1.));
#1275=DIRECTION('',(1.,0.,0.));
#1276=DIRECTION('',(0.,0.,-1.));
#1277=DIRECTION('',(0.,0.,1.));
#1278=DIRECTION('',(-0.602836646933908,0.797864635833349,0.));
#1279=DIRECTION('',(0.797864635833349,0.602836646933908,0.));
#1280=DIRECTION('',(0.,0.,-1.));
#1281=DIRECTION('',(0.,0.,-1.));
#1282=DIRECTION('',(0.,0.,-1.));
#1283=DIRECTION('',(-1.,0.,0.));
#1284=DIRECTION('',(0.,0.,-1.));
#1285=DIRECTION('',(0.86602540378442,0.500000000000032,0.));
#1286=DIRECTION('',(0.500000000000032,-0.86602540378442,0.));
#1287=DIRECTION('',(0.,0.,-1.));
#1288=DIRECTION('',(0.866025403784447,-0.499999999999985,0.));
#1289=DIRECTION('',(-0.499999999999985,-0.866025403784447,0.));
#1290=DIRECTION('',(0.,0.,-1.));
#1291=DIRECTION('',(0.,1.,0.));
#1292=DIRECTION('',(0.,0.,-1.));
#1293=DIRECTION('',(0.969807599756369,-0.243871317408977,0.));
#1294=DIRECTION('',(-0.243871317408977,-0.969807599756369,0.));
#1295=DIRECTION('',(0.,0.,-1.));
#1296=DIRECTION('',(0.,0.,-1.));
#1297=DIRECTION('',(-0.969807599756369,0.243871317408977,0.));
#1298=DIRECTION('',(-0.243871317408977,-0.969807599756369,0.));
#1299=DIRECTION('',(1.,0.,0.));
#1300=DIRECTION('',(0.,0.,-1.));
#1301=DIRECTION('',(0.,-1.,0.));
#1302=DIRECTION('',(0.,0.,-1.));
#1303=DIRECTION('',(0.,0.,1.));
#1304=DIRECTION('',(1.,0.,0.));
#1305=DIRECTION('',(0.,1.,0.));
#1306=DIRECTION('',(1.,0.,0.));
#1307=DIRECTION('',(0.,-1.,0.));
#1308=DIRECTION('',(1.,0.,0.));
#1309=DIRECTION('',(0.,-1.,0.));
#1310=DIRECTION('',(0.,0.,1.));
#1311=DIRECTION('',(0.,-1.,0.));
#1312=DIRECTION('',(0.,1.,0.));
#1313=DIRECTION('',(0.,0.,1.));
#1314=DIRECTION('',(0.,-1.,0.));
#1315=DIRECTION('',(0.,1.,0.));
#1316=DIRECTION('',(0.,0.,1.));
#1317=DIRECTION('',(0.856302063989281,0.,0.516475338431272));
#1318=DIRECTION('',(0.516475338431272,0.,-0.856302063989281));
#1319=DIRECTION('',(0.,-1.,0.));
#1320=DIRECTION('',(0.516475338431272,0.,-0.856302063989281));
#1321=DIRECTION('',(0.,1.,0.));
#1322=DIRECTION('',(0.516475338431272,0.,-0.856302063989281));
#1323=DIRECTION('',(0.,-1.,0.));
#1324=DIRECTION('',(0.,0.,1.));
#1325=DIRECTION('',(0.,-1.,0.));
#1326=DIRECTION('',(0.,1.,0.));
#1327=DIRECTION('',(0.,0.,1.));
#1328=DIRECTION('',(0.,-1.,0.));
#1329=DIRECTION('',(0.,1.,0.));
#1330=DIRECTION('',(0.,0.,1.));
#1331=DIRECTION('',(0.,0.,-1.));
#1332=DIRECTION('',(-1.,0.,0.));
#1333=DIRECTION('',(0.,0.,1.));
#1334=DIRECTION('',(-1.,0.,0.));
#1335=DIRECTION('',(0.,0.,1.));
#1336=DIRECTION('',(-1.,0.,0.));
#1337=DIRECTION('',(0.,-1.,0.));
#1338=DIRECTION('',(0.,0.,1.));
#1339=DIRECTION('',(-1.,0.,0.));
#1340=DIRECTION('',(-0.499293151122807,0.,0.866433118735577));
#1341=DIRECTION('',(0.866433118735577,0.,0.499293151122807));
#1342=DIRECTION('',(0.866433118735577,0.,0.499293151122807));
#1343=DIRECTION('',(0.,-1.,0.));
#1344=DIRECTION('',(-0.499293151122807,0.,-0.866433118735577));
#1345=DIRECTION('',(-0.866433118735577,0.,0.499293151122807));
#1346=DIRECTION('',(0.499293151122807,0.,0.866433118735577));
#1347=DIRECTION('',(-0.866433118735577,0.,0.499293151122807));
#1348=DIRECTION('',(-0.866433118735577,0.,0.499293151122807));
#1349=DIRECTION('',(0.,-1.,0.));
#1350=DIRECTION('',(0.866433118735577,0.,-0.499293151122807));
#1351=DIRECTION('',(-0.499293151122807,0.,-0.866433118735577));
#1352=DIRECTION('',(0.866433118735577,0.,-0.499293151122806));
#1353=DIRECTION('',(0.499293151122807,0.,0.866433118735577));
#1354=DIRECTION('',(0.,0.,-1.));
#1355=DIRECTION('',(-1.,0.,0.));
#1356=DIRECTION('',(0.,0.,1.));
#1357=DIRECTION('',(-1.,0.,0.));
#1358=DIRECTION('',(0.,0.,-1.));
#1359=DIRECTION('',(1.,0.,0.));
#1360=DIRECTION('',(-0.866433118735577,0.,-0.499293151122807));
#1361=DIRECTION('',(-0.499293151122807,0.,0.866433118735577));
#1362=DIRECTION('',(0.866433118735577,0.,0.499293151122806));
#1363=DIRECTION('',(-0.499293151122807,0.,0.866433118735577));
#1364=DIRECTION('',(0.,0.,-1.));
#1365=DIRECTION('',(-1.,0.,0.));
#1366=DIRECTION('',(0.,0.,-1.));
#1367=DIRECTION('',(0.,0.,-1.));
#1368=DIRECTION('',(-1.,0.,0.));
#1369=DIRECTION('',(0.,0.,-1.));
#1370=DIRECTION('',(-1.,0.,0.));
#1371=DIRECTION('',(0.,0.,-1.));
#1372=DIRECTION('',(-1.,0.,0.));
#1373=DIRECTION('',(-1.,0.,0.));
#1374=DIRECTION('',(0.,0.,1.));
#1375=DIRECTION('',(0.707106781186548,0.,0.707106781186548));
#1376=DIRECTION('',(-0.707106781186548,0.,0.707106781186548));
#1377=DIRECTION('',(0.,0.,-1.));
#1378=DIRECTION('',(-1.,0.,0.));
#1379=DIRECTION('',(0.,1.,0.));
#1380=DIRECTION('',(0.,0.,-1.));
#1381=DIRECTION('',(0.,1.,0.));
#1382=DIRECTION('',(0.,0.,1.));
#1383=DIRECTION('',(0.,-1.,0.));
#1384=DIRECTION('',(0.,0.,1.));
#1385=DIRECTION('',(0.,1.,0.));
#1386=DIRECTION('',(0.,0.,-1.));
#1387=DIRECTION('',(0.,1.,0.));
#1388=DIRECTION('',(0.,0.,1.));
#1389=DIRECTION('',(0.,-1.,0.));
#1390=DIRECTION('',(0.,0.,1.));
#1391=DIRECTION('',(1.,0.,0.));
#1392=DIRECTION('',(0.,0.,-1.));
#1393=DIRECTION('',(-1.,0.,0.));
#1394=DIRECTION('',(0.,0.,-1.));
#1395=DIRECTION('',(1.,0.,0.));
#1396=DIRECTION('',(0.,0.,1.));
#1397=DIRECTION('',(0.,-1.,0.));
#1398=DIRECTION('',(0.,0.,1.));
#1399=DIRECTION('',(-0.0147162297604947,0.,0.999891710427502));
#1400=DIRECTION('',(-0.999891710427503,0.,-0.0147162297604947));
#1401=DIRECTION('',(0.,1.,0.));
#1402=DIRECTION('',(0.,0.,1.));
#1403=DIRECTION('',(0.,-1.,0.));
#1404=DIRECTION('',(0.,0.,1.));
#1405=DIRECTION('',(0.,1.,0.));
#1406=DIRECTION('',(0.,0.,1.));
#1407=DIRECTION('',(-0.0240059681708818,0.,0.999711815220856));
#1408=DIRECTION('',(-0.999711815220856,0.,-0.0240059681708818));
#1409=DIRECTION('',(0.,-1.,0.));
#1410=DIRECTION('',(0.,0.,1.));
#1411=DIRECTION('',(0.,1.,0.));
#1412=DIRECTION('',(0.,0.,1.));
#1413=DIRECTION('',(0.,-1.,0.));
#1414=DIRECTION('',(0.,0.,1.));
#1415=DIRECTION('',(0.677714634581266,0.,0.735325012545053));
#1416=DIRECTION('',(-0.735325012545053,0.,0.677714634581265));
#1417=DIRECTION('',(0.516475338431272,0.,-0.856302063989281));
#1418=DIRECTION('',(-0.856302063989281,0.,-0.516475338431272));
#1419=DIRECTION('',(-0.516475338431244,0.,0.856302063989298));
#1420=DIRECTION('',(-0.856302063989298,0.,-0.516475338431244));
#1421=DIRECTION('',(0.516475338431244,0.,-0.856302063989298));
#1422=DIRECTION('',(0.856302063989298,0.,0.516475338431244));
#1423=DIRECTION('',(0.,-1.,0.));
#1424=DIRECTION('',(0.,0.,1.));
#1425=DIRECTION('',(0.526425141112122,0.,0.850221483382467));
#1426=DIRECTION('',(-0.850221483382467,0.,0.526425141112122));
#1427=DIRECTION('',(0.,-1.,0.));
#1428=DIRECTION('',(0.,0.,1.));
#1429=DIRECTION('',(0.,1.,0.));
#1430=DIRECTION('',(0.,0.,1.));
#1431=DIRECTION('',(-1.,0.,0.));
#1432=DIRECTION('',(0.,0.,1.));
#1433=DIRECTION('',(1.,0.,0.));
#1434=DIRECTION('',(0.,0.,1.));
#1435=DIRECTION('',(-1.,0.,0.));
#1436=DIRECTION('',(0.,0.,-1.));
#1437=DIRECTION('',(0.,-1.,0.));
#1438=DIRECTION('',(0.,0.,1.));
#1439=DIRECTION('',(-0.0147162297604947,0.,0.999891710427502));
#1440=DIRECTION('',(-0.999891710427503,0.,-0.0147162297604947));
#1441=DIRECTION('',(0.,-1.,0.));
#1442=DIRECTION('',(0.,0.,1.));
#1443=DIRECTION('',(0.,1.,0.));
#1444=DIRECTION('',(0.,0.,1.));
#1445=DIRECTION('',(0.,-1.,0.));
#1446=DIRECTION('',(0.,0.,1.));
#1447=DIRECTION('',(0.,1.,0.));
#1448=DIRECTION('',(0.,0.,1.));
#1449=DIRECTION('',(0.,-1.,0.));
#1450=DIRECTION('',(0.,0.,1.));
#1451=DIRECTION('',(-0.0240059681708782,3.62191961836305E-15,0.999711815220856));
#1452=DIRECTION('',(-0.999711815220856,0.,-0.0240059681708782));
#1453=DIRECTION('',(0.,-1.,0.));
#1454=DIRECTION('',(0.,0.,1.));
#1455=DIRECTION('',(0.677714634581306,5.5471374240192E-14,0.735325012545015));
#1456=DIRECTION('',(-0.735325012545015,0.,0.677714634581306));
#1457=DIRECTION('',(0.,-1.,0.));
#1458=DIRECTION('',(0.,0.,1.));
#1459=DIRECTION('',(0.,1.,0.));
#1460=DIRECTION('',(0.,0.,1.));
#1461=DIRECTION('',(0.,-1.,0.));
#1462=DIRECTION('',(0.,0.,1.));
#1463=DIRECTION('',(0.,1.,0.));
#1464=DIRECTION('',(0.,0.,1.));
#1465=DIRECTION('',(0.,-1.,0.));
#1466=DIRECTION('',(0.,0.,1.));
#1467=DIRECTION('',(0.526425141112122,0.,0.850221483382467));
#1468=DIRECTION('',(-0.850221483382467,0.,0.526425141112122));
#1469=DIRECTION('',(0.,-1.,0.));
#1470=DIRECTION('',(0.,0.,1.));
#1471=DIRECTION('',(0.516475338431244,0.,-0.856302063989298));
#1472=DIRECTION('',(0.856302063989298,0.,0.516475338431244));
#1473=DIRECTION('',(0.,-1.,0.));
#1474=DIRECTION('',(0.,0.,1.));
#1475=DIRECTION('',(-0.516475338431244,0.,0.856302063989298));
#1476=DIRECTION('',(-0.856302063989298,0.,-0.516475338431244));
#1477=DIRECTION('',(-0.516475338431272,0.,0.856302063989281));
#1478=DIRECTION('',(0.856302063989281,0.,0.516475338431272));
#1479=DIRECTION('',(0.,-1.,0.));
#1480=DIRECTION('',(0.,0.,-1.));
#1481=CARTESIAN_POINT('',(0.,0.,0.));
#1482=CARTESIAN_POINT('',(0.0679698397106527,0.0713174467849339,0.062902));
#1483=CARTESIAN_POINT('',(0.0715538700909981,0.0713174467849339,0.0505118015099451));
#1484=CARTESIAN_POINT('',(0.0715538700909981,0.0713174467849339,0.0490683259934324));
#1485=CARTESIAN_POINT('',(0.0791529023140746,0.0713174467849339,0.0434958139012949));
#1486=CARTESIAN_POINT('',(0.06983040025689,0.0713174467849339,0.0381236030198903));
#1487=CARTESIAN_POINT('',(0.0779429939852246,0.0713174467849339,0.0427985887733325));
#1488=CARTESIAN_POINT('',(0.0679698397106527,0.0713174467849339,0.0381236030198903));
#1489=CARTESIAN_POINT('',(0.06602040025689,0.0713174467849339,0.0381236030198903));
#1490=CARTESIAN_POINT('',(0.06602040025689,0.0713174467849339,0.062902));
#1491=CARTESIAN_POINT('',(0.06602040025689,0.0713174467849339,0.0380355219615054));
#1492=CARTESIAN_POINT('',(0.0679698397106527,0.0713174467849339,0.0380355219615054));
#1493=CARTESIAN_POINT('',(0.0642366509248685,0.0713174467849339,0.0380355219615054));
#1494=CARTESIAN_POINT('',(0.0642366509248685,0.0713174467849339,0.0380355219615054));
#1495=CARTESIAN_POINT('',(0.0642366509248685,0.0713174467849339,0.0589417402));
#1496=CARTESIAN_POINT('',(0.0606208676007216,0.0713174467849339,0.0589417402));
#1497=CARTESIAN_POINT('',(0.076699245494537,0.0713174467849339,0.0589417402));
#1498=CARTESIAN_POINT('',(0.0684328004334366,0.0713174467849339,0.063705384749003));
#1499=CARTESIAN_POINT('',(0.0779429939852246,0.0713174467849339,0.0582250142465578));
#1500=CARTESIAN_POINT('',(0.0749969676532522,0.0713174467849339,0.0531127174386648));
#1501=CARTESIAN_POINT('',(0.0808973616909981,0.0713174467849339,0.0531127174386648));
#1502=CARTESIAN_POINT('',(0.0808973616909981,0.0713174467849339,0.062902));
#1503=CARTESIAN_POINT('',(0.0808973616909981,0.0713174467849339,0.0479108855812255));
#1504=CARTESIAN_POINT('',(0.0749969676532522,0.0713174467849339,0.0479108855812255));
#1505=CARTESIAN_POINT('',(0.0753843770879613,0.0713174467849339,0.0506037830466715));
#1506=CARTESIAN_POINT('',(0.0752004670298661,0.0713174467849339,0.0505993668349856));
#1507=CARTESIAN_POINT('',(0.0753843770879613,0.0713174467849339,0.0504198199732187));
#1508=CARTESIAN_POINT('',(0.0752934997632649,0.0713174467849339,0.0504198199732187));
#1509=CARTESIAN_POINT('',(0.0778035398489277,0.0713174467849339,0.0504198199732187));
#1510=CARTESIAN_POINT('',(0.0778035398489277,0.0713174467849339,0.0506037830466715));
#1511=CARTESIAN_POINT('',(0.077987483001098,0.0713174467849339,0.0506064902895279));
#1512=CARTESIAN_POINT('',(0.0715538700909981,0.0713174467849339,0.0505118015099451));
#1513=CARTESIAN_POINT('',(0.0668225612457571,0.0713174467849339,0.0548724273426585));
#1514=CARTESIAN_POINT('',(0.0669578338950516,0.0713174467849339,0.054747752875557));
#1515=CARTESIAN_POINT('',(0.0668003059355561,0.0713174467849339,0.0546527404849366));
#1516=CARTESIAN_POINT('',(0.0667648649036142,0.0713174467849339,0.0547115007519688));
#1517=CARTESIAN_POINT('',(0.0681386239656475,0.0713174467849339,0.0524338455907057));
#1518=CARTESIAN_POINT('',(0.068296151925143,0.0713174467849339,0.0525288579813261));
#1519=CARTESIAN_POINT('',(0.0684525612823416,0.0713174467849339,0.0524320151944243));
#1520=CARTESIAN_POINT('',(0.0715538700909981,0.0713174467849339,0.0505118015099451));
#1521=CARTESIAN_POINT('',(0.069648880973944,0.0698399049759276,0.062902));
#1522=CARTESIAN_POINT('',(0.0715538700909981,0.0698399049759276,0.0505118015099451));
#1523=CARTESIAN_POINT('',(0.0715538700909981,0.0698399049759276,0.0490683259934324));
#1524=CARTESIAN_POINT('',(0.0778035398489277,0.0698399049759276,0.0506037830466715));
#1525=CARTESIAN_POINT('',(0.077987483001098,0.0698399049759276,0.0506064902895279));
#1526=CARTESIAN_POINT('',(0.0778035398489277,0.0698399049759276,0.0504198199732187));
#1527=CARTESIAN_POINT('',(0.069648880973944,0.0698399049759276,0.0504198199732187));
#1528=CARTESIAN_POINT('',(0.0753843770879613,0.0698399049759276,0.0504198199732187));
#1529=CARTESIAN_POINT('',(0.0753843770879613,0.0698399049759276,0.0506037830466715));
#1530=CARTESIAN_POINT('',(0.0752004670298661,0.0698399049759276,0.0505993668349856));
#1531=CARTESIAN_POINT('',(0.0715538700909981,0.0698399049759276,0.0505118015099451));
#1532=CARTESIAN_POINT('',(0.0684525612823416,0.0698399049759276,0.0524320151944243));
#1533=CARTESIAN_POINT('',(0.068296151925143,0.0698399049759276,0.0525288579813261));
#1534=CARTESIAN_POINT('',(0.0681386239656475,0.0698399049759276,0.0524338455907057));
#1535=CARTESIAN_POINT('',(0.0639118457160749,0.0698399049759276,0.059441728968308));
#1536=CARTESIAN_POINT('',(0.0668003059355561,0.0698399049759276,0.0546527404849366));
#1537=CARTESIAN_POINT('',(0.0669578338950516,0.0698399049759276,0.054747752875557));
#1538=CARTESIAN_POINT('',(0.0668225612457571,0.0698399049759276,0.0548724273426585));
#1539=CARTESIAN_POINT('',(0.0715538700909981,0.0698399049759276,0.0505118015099451));
#1540=CARTESIAN_POINT('',(0.0749969676532522,0.0698399049759276,0.0531127174386648));
#1541=CARTESIAN_POINT('',(0.0803761282909981,0.0698399049759276,0.0531127174386648));
#1542=CARTESIAN_POINT('',(0.0776827457184681,0.0698399049759276,0.0577734003662066));
#1543=CARTESIAN_POINT('',(0.0806371134242416,0.0698399049759276,0.0560709082413167));
#1544=CARTESIAN_POINT('',(0.0703027891624746,0.0698399049759276,0.0620261945915345));
#1545=CARTESIAN_POINT('',(0.066667594153041,0.0698399049759276,0.0620261945915345));
#1546=CARTESIAN_POINT('',(0.066667594153041,0.0698399049759276,0.0620261945915345));
#1547=CARTESIAN_POINT('',(0.066667594153041,0.0698399049759276,0.0629));
#1548=CARTESIAN_POINT('',(0.066667594153041,0.0698399049759276,0.0381236030198903));
#1549=CARTESIAN_POINT('',(0.06792540025689,0.0698399049759276,0.0381236030198903));
#1550=CARTESIAN_POINT('',(0.0687864576375533,0.0698399049759276,0.0381236030198903));
#1551=CARTESIAN_POINT('',(0.0695701519901335,0.0698399049759276,0.0385752169002415));
#1552=CARTESIAN_POINT('',(0.0776827457184681,0.0698399049759276,0.0432502026536837));
#1553=CARTESIAN_POINT('',(0.0749969676532522,0.0698399049759276,0.0479108855812255));
#1554=CARTESIAN_POINT('',(0.0803761282909981,0.0698399049759276,0.0479108855812255));
#1555=CARTESIAN_POINT('',(0.0803761282909981,0.0698399049759276,0.062902));
#1556=CARTESIAN_POINT('',(0.0646361014168537,0.0593277863411387,0.0629));
#1557=CARTESIAN_POINT('',(0.0579626836924893,0.0641483641755913,0.0629));
#1558=CARTESIAN_POINT('',(0.0579626836924893,0.0620279063411387,0.0629));
#1559=CARTESIAN_POINT('',(0.0579626836924893,0.0643280352403114,0.0629));
#1560=CARTESIAN_POINT('',(0.0615182899632298,0.0620279063411387,0.0629));
#1561=CARTESIAN_POINT('',(0.0650726901617,0.0621205086178088,0.0629));
#1562=CARTESIAN_POINT('',(0.0615465814012801,0.0639189286764177,0.0629));
#1563=CARTESIAN_POINT('',(0.0651403219209483,0.0655780811030536,0.0629));
#1564=CARTESIAN_POINT('',(0.0655810440023203,0.0673307087939034,0.0629));
#1565=CARTESIAN_POINT('',(0.0655882052309658,0.0673591869849339,0.0629));
#1566=CARTESIAN_POINT('',(0.06983040025689,0.0673591869849339,0.0629));
#1567=CARTESIAN_POINT('',(0.0595061631272933,0.0673591869849339,0.0629));
#1568=CARTESIAN_POINT('',(0.0571626097534572,0.0701552547880684,0.0629));
#1569=CARTESIAN_POINT('',(0.0593619506462025,0.0672443894161828,0.0629));
#1570=CARTESIAN_POINT('',(0.0238003014457689,0.0403753387017868,0.0629));
#1571=CARTESIAN_POINT('',(0.0589232469521616,0.0669129213299492,0.0629));
#1572=CARTESIAN_POINT('',(0.0619209434924893,0.0643280352403114,0.0629));
#1573=CARTESIAN_POINT('',(0.0608642357567861,0.0595252883867993,0.0629));
#1574=CARTESIAN_POINT('',(0.0630411854598969,0.0595252883867993,0.0629));
#1575=CARTESIAN_POINT('',(0.0601498153117952,0.0595252883867993,0.0629));
#1576=CARTESIAN_POINT('',(0.0590613404602397,0.061410582132454,0.0629));
#1577=CARTESIAN_POINT('',(0.0587041302377439,0.0620292883867996,0.0629));
#1578=CARTESIAN_POINT('',(0.0597926050892991,0.0639145821324539,0.0629));
#1579=CARTESIAN_POINT('',(0.0601498153117947,0.0645332883867993,0.0629));
#1580=CARTESIAN_POINT('',(0.0623267650149054,0.0645332883867993,0.0629));
#1581=CARTESIAN_POINT('',(0.0630411854598964,0.0645332883867993,0.0629));
#1582=CARTESIAN_POINT('',(0.0641296603114523,0.0626479946411435,0.0629));
#1583=CARTESIAN_POINT('',(0.0644868705339473,0.0620292883867986,0.0629));
#1584=CARTESIAN_POINT('',(0.0641296603114517,0.0614105821324534,0.0629));
#1585=CARTESIAN_POINT('',(-0.0205080529410013,0.0862673793138637,0.0380355219615054));
#1586=CARTESIAN_POINT('',(0.0238003014457689,0.0403753387017868,0.0380355219615054));
#1587=CARTESIAN_POINT('',(0.0593619506462025,0.0672443894161828,0.0380355219615054));
#1588=CARTESIAN_POINT('',(0.0589232469521616,0.0669129213299492,0.0380355219615054));
#1589=CARTESIAN_POINT('',(0.0571626097534572,0.0701552547880684,0.0380355219615054));
#1590=CARTESIAN_POINT('',(0.0605555098394521,0.0688141855944027,0.0380355219615054));
#1591=CARTESIAN_POINT('',(0.0642366509248685,0.0673591869849339,0.0380355219615054));
#1592=CARTESIAN_POINT('',(0.06602040025689,0.0698399049759276,0.0380355219615054));
#1593=CARTESIAN_POINT('',(0.06602040025689,0.0699016854225645,0.0380355219615054));
#1594=CARTESIAN_POINT('',(0.0593665263960506,0.0699016854225645,0.0380355219615054));
#1595=CARTESIAN_POINT('',(0.0658195038341129,0.0682789964382484,0.0380355219615054));
#1596=CARTESIAN_POINT('',(0.0655810440023203,0.0673307087939034,0.0380355219615054));
#1597=CARTESIAN_POINT('',(0.0651403219209483,0.0655780811030536,0.0380355219615054));
#1598=CARTESIAN_POINT('',(0.0615465814012801,0.0639189286764177,0.0380355219615054));
#1599=CARTESIAN_POINT('',(0.0650726901617,0.0621205086178088,0.0380355219615054));
#1600=CARTESIAN_POINT('',(0.0615182899632298,0.0620279063411387,0.0380355219615054));
#1601=CARTESIAN_POINT('',(0.0579626836924893,0.0620279063411387,0.0380355219615054));
#1602=CARTESIAN_POINT('',(0.0579626836924893,0.0641483641755913,0.0380355219615054));
#1603=CARTESIAN_POINT('',(0.0579626836924893,0.0643280352403114,0.0380355219615054));
#1604=CARTESIAN_POINT('',(0.0619209434924893,0.0643280352403114,0.0380355219615054));
#1605=CARTESIAN_POINT('',(0.0641296603114517,0.0614105821324534,0.0380355219615054));
#1606=CARTESIAN_POINT('',(0.0630411854598969,0.0595252883867993,0.0380355219615054));
#1607=CARTESIAN_POINT('',(0.0644868705339473,0.0620292883867986,0.0380355219615054));
#1608=CARTESIAN_POINT('',(0.0641296603114523,0.0626479946411435,0.0380355219615054));
#1609=CARTESIAN_POINT('',(0.0630411854598964,0.0645332883867993,0.0380355219615054));
#1610=CARTESIAN_POINT('',(0.0623267650149054,0.0645332883867993,0.0380355219615054));
#1611=CARTESIAN_POINT('',(0.0601498153117947,0.0645332883867993,0.0380355219615054));
#1612=CARTESIAN_POINT('',(0.0597926050892991,0.0639145821324539,0.0380355219615054));
#1613=CARTESIAN_POINT('',(0.0587041302377439,0.0620292883867996,0.0380355219615054));
#1614=CARTESIAN_POINT('',(0.0590613404602397,0.061410582132454,0.0380355219615054));
#1615=CARTESIAN_POINT('',(0.0601498153117952,0.0595252883867993,0.0380355219615054));
#1616=CARTESIAN_POINT('',(0.0608642357567861,0.0595252883867993,0.0380355219615054));
#1617=CARTESIAN_POINT('',(0.0808973616909981,0.0701976758804307,0.062902));
#1618=CARTESIAN_POINT('',(0.0808973616909981,0.0713174467849339,0.0531127174386648));
#1619=CARTESIAN_POINT('',(0.0808973616909981,0.0703611383759276,0.0531127174386648));
#1620=CARTESIAN_POINT('',(0.0808973616909981,0.0703611383759276,0.062902));
#1621=CARTESIAN_POINT('',(0.0808973616909981,0.0703611383759276,0.0479108855812255));
#1622=CARTESIAN_POINT('',(0.0808973616909981,0.0703611383759276,0.0479108855812255));
#1623=CARTESIAN_POINT('',(0.0641296603114523,0.0626479946411435,0.062902));
#1624=CARTESIAN_POINT('',(0.0630411854598964,0.0645332883867993,0.062902));
#1625=CARTESIAN_POINT('',(0.0644868705339473,0.0620292883867986,0.062902));
#1626=CARTESIAN_POINT('',(0.0623267650149054,0.0645332883867993,0.062902));
#1627=CARTESIAN_POINT('',(0.0601498153117947,0.0645332883867993,0.062902));
#1628=CARTESIAN_POINT('',(0.0597926050892991,0.0639145821324539,0.062902));
#1629=CARTESIAN_POINT('',(0.0587041302377439,0.0620292883867996,0.062902));
#1630=CARTESIAN_POINT('',(0.0615182899632298,0.0620279063411387,0.062902));
#1631=CARTESIAN_POINT('',(0.0579626836924893,0.0620279063411387,0.062902));
#1632=CARTESIAN_POINT('',(0.0650726901617,0.0621205086178088,0.0504677609807527));
#1633=CARTESIAN_POINT('',(0.0579626836924893,0.0641483641755913,0.062902));
#1634=CARTESIAN_POINT('',(0.0579626836924893,0.0643280352403114,0.0629));
#1635=CARTESIAN_POINT('',(0.0238003014457689,0.0403753387017868,0.062902));
#1636=CARTESIAN_POINT('',(0.0593619506462025,0.0672443894161828,0.062902));
#1637=CARTESIAN_POINT('',(0.0589232469521616,0.0669129213299492,0.0504677609807527));
#1638=CARTESIAN_POINT('',(0.0571626097534572,0.0701552547880684,0.062902));
#1639=CARTESIAN_POINT('',(0.0605555098394521,0.0688141855944027,0.0626228812854163));
#1640=CARTESIAN_POINT('',(0.0603416077842581,0.0682730141881172,0.0628367833406103));
#1641=CARTESIAN_POINT('',(0.0599806462017881,0.0677568799195666,0.0629));
#1642=CARTESIAN_POINT('',(0.0595061631272933,0.0673591869849339,0.0629));
#1643=CARTESIAN_POINT('',(0.0605555098394521,0.0688141855944027,0.0626228812854163));
#1644=CARTESIAN_POINT('',(0.0605555098394521,0.0688141855944027,0.062902));
#1645=CARTESIAN_POINT('',(0.0590613404602397,0.061410582132454,0.062902));
#1646=CARTESIAN_POINT('',(0.0601498153117952,0.0595252883867993,0.062902));
#1647=CARTESIAN_POINT('',(0.0641296603114517,0.0614105821324534,0.062902));
#1648=CARTESIAN_POINT('',(0.0630411854598969,0.0595252883867993,0.062902));
#1649=CARTESIAN_POINT('',(0.0608642357567861,0.0595252883867993,0.062902));
#1650=CARTESIAN_POINT('',(0.0655810440023203,0.0673307087939034,0.062902));
#1651=CARTESIAN_POINT('',(0.0651403219209483,0.0655780811030536,0.0504677609807527));
#1652=CARTESIAN_POINT('',(0.0658195038341129,0.0682789964382484,0.062902));
#1653=CARTESIAN_POINT('',(0.0658195038341129,0.0682789964382484,0.0627916455512897));
#1654=CARTESIAN_POINT('',(0.0655882052309658,0.0673591869849339,0.0589417402));
#1655=CARTESIAN_POINT('',(0.06602040025689,0.0698399049759276,0.062902));
#1656=CARTESIAN_POINT('',(0.06602040025689,0.0952399049759276,0.0381236030198903));
#1657=CARTESIAN_POINT('',(0.06602040025689,0.0699016854225645,0.0381236030198903));
#1658=CARTESIAN_POINT('',(0.06602040025689,0.0699016854225645,0.062902));
#1659=CARTESIAN_POINT('',(0.0765948489981404,0.0952399049759276,0.0505118015099451));
#1660=CARTESIAN_POINT('',(0.0753843770879613,0.0713174467849339,0.0505118015099451));
#1661=CARTESIAN_POINT('',(0.0753843770879613,0.069931886512654,0.0505118015099451));
#1662=CARTESIAN_POINT('',(0.0753843770879613,0.0712254652482075,0.0505118015099451));
#1663=CARTESIAN_POINT('',(0.0765948489981404,0.069931886512654,0.0505118015099451));
#1664=CARTESIAN_POINT('',(0.0778035398489277,0.069931886512654,0.0505118015099451));
#1665=CARTESIAN_POINT('',(0.0778035398489277,0.0952399049759276,0.0505118015099451));
#1666=CARTESIAN_POINT('',(0.0778035398489277,0.0712254652482075,0.0505118015099451));
#1667=CARTESIAN_POINT('',(0.077896198233016,0.0712254652482075,0.0505118015099451));
#1668=CARTESIAN_POINT('',(0.0715538700909981,0.0952399049759276,0.0505118015099451));
#1669=CARTESIAN_POINT('',(0.0683743566037423,0.0952399049759276,0.0524804365878752));
#1670=CARTESIAN_POINT('',(0.0683743566037423,0.069931886512654,0.0524804365878752));
#1671=CARTESIAN_POINT('',(0.0683743566037423,0.0712254652482075,0.0524804365878752));
#1672=CARTESIAN_POINT('',(0.0715538700909981,0.069931886512654,0.0505118015099451));
#1673=CARTESIAN_POINT('',(0.0752924220589137,0.069931886512654,0.0506015749408286));
#1674=CARTESIAN_POINT('',(0.0752924220589137,0.0952399049759276,0.0506015749408286));
#1675=CARTESIAN_POINT('',(0.0752924220589137,0.0712254652482075,0.0506015749408286));
#1676=CARTESIAN_POINT('',(0.0715538700909981,0.0712254652482075,0.0505118015099451));
#1677=CARTESIAN_POINT('',(0.0675702741272078,0.0952399049759276,0.053554248896327));
#1678=CARTESIAN_POINT('',(0.0668790699153039,0.0952399049759276,0.0547002466802468));
#1679=CARTESIAN_POINT('',(0.0668790699153039,0.069931886512654,0.0547002466802468));
#1680=CARTESIAN_POINT('',(0.0668790699153039,0.0712254652482075,0.0547002466802468));
#1681=CARTESIAN_POINT('',(0.0675702741272078,0.069931886512654,0.053554248896327));
#1682=CARTESIAN_POINT('',(0.0682173879453952,0.069931886512654,0.0524813517860159));
#1683=CARTESIAN_POINT('',(0.0682173879453952,0.0698399049759276,0.0524813517860159));
#1684=CARTESIAN_POINT('',(0.0682173879453952,0.0712254652482075,0.0524813517860159));
#1685=CARTESIAN_POINT('',(0.0682969193710537,0.0712254652482075,0.052349490845375));
#1686=CARTESIAN_POINT('',(0.0715538700909981,0.0952399049759276,0.0505118015099451));
#1687=CARTESIAN_POINT('',(0.0778955114250129,0.0952399049759276,0.0506051366680997));
#1688=CARTESIAN_POINT('',(0.0778955114250129,0.069931886512654,0.0506051366680997));
#1689=CARTESIAN_POINT('',(0.0778955114250129,0.0712254652482075,0.0506051366680997));
#1690=CARTESIAN_POINT('',(0.0715538700909981,0.069931886512654,0.0505118015099451));
#1691=CARTESIAN_POINT('',(0.0668901975704043,0.069931886512654,0.0548100901091078));
#1692=CARTESIAN_POINT('',(0.0668901975704043,0.0952399049759276,0.0548100901091078));
#1693=CARTESIAN_POINT('',(0.0668901975704043,0.0712254652482075,0.0548100901091078));
#1694=CARTESIAN_POINT('',(0.0715538700909981,0.0712254652482075,0.0505118015099451));
#1695=CARTESIAN_POINT('',(0.06792540025689,0.0952399049759276,0.0381236030198903));
#1696=CARTESIAN_POINT('',(0.066667594153041,0.0691545862697088,0.0381236030198903));
#1697=CARTESIAN_POINT('',(0.0659858354631689,0.0692243488519239,0.0381236030198903));
#1698=CARTESIAN_POINT('',(0.0593665263960506,0.0699016854225645,0.0381236030198903));
#1699=CARTESIAN_POINT('',(0.06983040025689,0.0952399049759276,0.0381236030198903));
#1700=CARTESIAN_POINT('',(0.06983040025689,0.0703611383759276,0.0381236030198903));
#1701=CARTESIAN_POINT('',(0.0687864576375533,0.0703611383759276,0.0381236030198903));
#1702=CARTESIAN_POINT('',(0.075363880973944,0.0952399049759276,0.0413123419590564));
#1703=CARTESIAN_POINT('',(0.0808973616909981,0.0703611383759276,0.0445010808982224));
#1704=CARTESIAN_POINT('',(0.0779429939852246,0.0703611383759276,0.0427985887733325));
#1705=CARTESIAN_POINT('',(0.0779429939852246,0.0713174467849339,0.0427985887733325));
#1706=CARTESIAN_POINT('',(0.075363880973944,0.0952399049759276,0.0597112610608339));
#1707=CARTESIAN_POINT('',(0.076699245494537,0.0673591869849339,0.0589417402));
#1708=CARTESIAN_POINT('',(0.07222221933784,0.0703611383759276,0.0615216837052743));
#1709=CARTESIAN_POINT('',(0.06983040025689,0.0703611383759276,0.0629));
#1710=CARTESIAN_POINT('',(0.0779429939852246,0.0703611383759276,0.0582250142465578));
#1711=CARTESIAN_POINT('',(0.0779429939852246,0.0703611383759276,0.0582250142465578));
#1712=CARTESIAN_POINT('',(0.0751036327071876,0.0703611383759276,0.0592596471804828));
#1713=CARTESIAN_POINT('',(0.0703027891624746,0.0698399049759276,0.0620261945915345));
#1714=CARTESIAN_POINT('',(0.0706550674920977,0.0698399049759276,0.0620261945915345));
#1715=CARTESIAN_POINT('',(0.0713379048549879,0.0699843324259319,0.0619120807799552));
#1716=CARTESIAN_POINT('',(0.0719431241865842,0.070222915668255,0.0616825158509072));
#1717=CARTESIAN_POINT('',(0.07222221933784,0.0703611383759276,0.0615216837052743));
#1718=CARTESIAN_POINT('',(0.0776827457184681,0.0703611383759276,0.0577734003662066));
#1719=CARTESIAN_POINT('',(0.0803761282909981,0.0703611383759276,0.062902));
#1720=CARTESIAN_POINT('',(0.0803761282909981,0.0703611383759276,0.0531127174386648));
#1721=CARTESIAN_POINT('',(0.0803761282909981,0.0703611383759276,0.0479108855812255));
#1722=CARTESIAN_POINT('',(0.0751036327071876,0.0703611383759276,0.0417639558394075));
#1723=CARTESIAN_POINT('',(0.0776827457184681,0.0703611383759276,0.0432502026536837));
#1724=CARTESIAN_POINT('',(0.0593665263960506,0.0699016854225645,0.062902));
#1725=CARTESIAN_POINT('',(0.0659858354631689,0.0692243488519239,0.062902));
#1726=CARTESIAN_POINT('',(0.0659858354631689,0.0692243488519239,0.0624330138722036));
#1727=CARTESIAN_POINT('',(0.0658195038341129,0.0682789964382484,0.0627916455512897));
#1728=CARTESIAN_POINT('',(0.0659015368261054,0.0686052185619091,0.0627137054031967));
#1729=CARTESIAN_POINT('',(0.0659548001582682,0.068921054619729,0.0625950443772516));
#1730=CARTESIAN_POINT('',(0.0659858354631689,0.0692243488519239,0.0624330138722036));
#1731=CARTESIAN_POINT('',(0.066667594153041,0.0691545862697088,0.062902));
#1732=CARTESIAN_POINT('',(0.0659858354631689,0.0692243488519239,0.0624330138722036));
#1733=CARTESIAN_POINT('',(0.066002436479005,0.0693865831965771,0.0623463425477605));
#1734=CARTESIAN_POINT('',(0.0661408626765963,0.0696819217878443,0.0621566435733597));
#1735=CARTESIAN_POINT('',(0.0664820466567777,0.0698399049759276,0.0620261945915345));
#1736=CARTESIAN_POINT('',(0.066667594153041,0.0698399049759276,0.0620261945915345));
#1737=CARTESIAN_POINT('',(0.0615465814012801,0.0639189286764177,0.062902));
#1738=CARTESIAN_POINT('',(0.0619209434924893,0.0643280352403114,0.062902));
#1739=CARTESIAN_POINT('',(0.0646361014168537,0.0673591869849339,0.0589417402));
#1740=CARTESIAN_POINT('',(0.0642366509248685,0.0673591869849339,0.0589417402));
#1741=CARTESIAN_POINT('',(0.0642366509248685,0.0673591869849339,0.062902));
#1742=CARTESIAN_POINT('',(0.0749969676532522,0.0952399049759276,0.0531127174386648));
#1743=CARTESIAN_POINT('',(0.0749969676532522,0.0703611383759276,0.0531127174386648));
#1744=CARTESIAN_POINT('',(0.0749969676532522,0.0703611383759276,0.0531127174386648));
#1745=CARTESIAN_POINT('',(0.0749969676532522,0.0701976758804307,0.0479108855812255));
#1746=CARTESIAN_POINT('',(0.0749969676532522,0.0703611383759276,0.0479108855812255));
#1747=CARTESIAN_POINT('',(0.0749969676532522,0.0703611383759276,0.0479108855812255));
#1748=CARTESIAN_POINT('',(0.069648880973944,0.069931886512654,0.0504198199732187));
#1749=CARTESIAN_POINT('',(0.0778035398489277,0.069931886512654,0.0504198199732187));
#1750=CARTESIAN_POINT('',(0.0753843770879613,0.069931886512654,0.0504198199732187));
#1751=CARTESIAN_POINT('',(0.0778035398489277,0.069931886512654,0.0506037830466715));
#1752=CARTESIAN_POINT('',(0.077987483001098,0.069931886512654,0.0506064902895279));
#1753=CARTESIAN_POINT('',(0.0778035398489277,0.069931886512654,0.0506037830466715));
#1754=CARTESIAN_POINT('',(0.0753843770879613,0.069931886512654,0.0506037830466715));
#1755=CARTESIAN_POINT('',(0.0753843770879613,0.069931886512654,0.0506037830466715));
#1756=CARTESIAN_POINT('',(0.0752004670298661,0.069931886512654,0.0505993668349856));
#1757=CARTESIAN_POINT('',(0.0778035398489277,0.0952399049759276,0.0506037830466715));
#1758=CARTESIAN_POINT('',(0.0778035398489277,0.0712254652482075,0.0506037830466715));
#1759=CARTESIAN_POINT('',(0.0715538700909981,0.069931886512654,0.0505118015099451));
#1760=CARTESIAN_POINT('',(0.0668225612457571,0.069931886512654,0.0548724273426585));
#1761=CARTESIAN_POINT('',(0.0639118457160749,0.069931886512654,0.059441728968308));
#1762=CARTESIAN_POINT('',(0.0681386239656475,0.069931886512654,0.0524338455907057));
#1763=CARTESIAN_POINT('',(0.0668003059355561,0.069931886512654,0.0546527404849366));
#1764=CARTESIAN_POINT('',(0.0715538700909981,0.069931886512654,0.0505118015099451));
#1765=CARTESIAN_POINT('',(0.0684525612823416,0.069931886512654,0.0524320151944243));
#1766=CARTESIAN_POINT('',(0.0753843770879613,0.0952399049759276,0.0506037830466715));
#1767=CARTESIAN_POINT('',(0.0753843770879613,0.0712254652482075,0.0506037830466715));
#1768=CARTESIAN_POINT('',(0.0765948489981404,0.0712254652482075,0.0504198199732187));
#1769=CARTESIAN_POINT('',(0.0753843770879613,0.0712254652482075,0.0504198199732187));
#1770=CARTESIAN_POINT('',(0.0778035398489277,0.0712254652482075,0.0504198199732187));
#1771=CARTESIAN_POINT('',(0.0778035398489277,0.0712254652482075,0.0506037830466715));
#1772=CARTESIAN_POINT('',(0.077987483001098,0.0712254652482075,0.0506064902895279));
#1773=CARTESIAN_POINT('',(0.0669578338950516,0.069931886512654,0.054747752875557));
#1774=CARTESIAN_POINT('',(0.0669578338950516,0.069931886512654,0.054747752875557));
#1775=CARTESIAN_POINT('',(0.068296151925143,0.069931886512654,0.0525288579813261));
#1776=CARTESIAN_POINT('',(0.068296151925143,0.069931886512654,0.0525288579813261));
#1777=CARTESIAN_POINT('',(0.0753843770879613,0.0712254652482075,0.0506037830466715));
#1778=CARTESIAN_POINT('',(0.0752004670298661,0.0712254652482075,0.0505993668349856));
#1779=CARTESIAN_POINT('',(0.0715538700909981,0.0712254652482075,0.0505118015099451));
#1780=CARTESIAN_POINT('',(0.0668225612457571,0.0712254652482075,0.0548724273426586));
#1781=CARTESIAN_POINT('',(0.0669578338950516,0.0952399049759276,0.054747752875557));
#1782=CARTESIAN_POINT('',(0.0669578338950516,0.0712254652482075,0.054747752875557));
#1783=CARTESIAN_POINT('',(0.068296151925143,0.0952399049759276,0.0525288579813261));
#1784=CARTESIAN_POINT('',(0.068296151925143,0.0712254652482075,0.0525288579813261));
#1785=CARTESIAN_POINT('',(0.0715538700909981,0.0712254652482075,0.0505118015099451));
#1786=CARTESIAN_POINT('',(0.0684525612823416,0.0712254652482075,0.0524320151944243));
#1787=CARTESIAN_POINT('',(0.0669578338950516,0.0712254652482075,0.054747752875557));
#1788=CARTESIAN_POINT('',(0.0668003059355561,0.0712254652482075,0.0546527404849366));
#1789=CARTESIAN_POINT('',(0.068296151925143,0.0712254652482075,0.0525288579813261));
#1790=CARTESIAN_POINT('',(0.0681386239656475,0.0712254652482075,0.0524338455907057));
#1791=CARTESIAN_POINT('',(0.0674915101474601,0.0712254652482075,0.0535067427010168));
#1792=CARTESIAN_POINT('',(0.0715538700909981,0.373710988800084,0.0505118015099451));
#1793=MECHANICAL_DESIGN_GEOMETRIC_PRESENTATION_REPRESENTATION('',(#1014),#1794);
#1794=(
GEOMETRIC_REPRESENTATION_CONTEXT(3)
GLOBAL_UNCERTAINTY_ASSIGNED_CONTEXT((#1795))
GLOBAL_UNIT_ASSIGNED_CONTEXT((#1798,#1797,#1796))
REPRESENTATION_CONTEXT('Part 7','TOP_LEVEL_ASSEMBLY_PART')
);
#1795=UNCERTAINTY_MEASURE_WITH_UNIT(LENGTH_MEASURE(2.E-05),#1798,'DISTANCE_ACCURACY_VALUE','Maximum Tolerance applied to model');
#1796=(
NAMED_UNIT(*)
SI_UNIT($,.STERADIAN.)
SOLID_ANGLE_UNIT()
);
#1797=(
NAMED_UNIT(*)
PLANE_ANGLE_UNIT()
SI_UNIT($,.RADIAN.)
);
#1798=(
LENGTH_UNIT()
NAMED_UNIT(*)
SI_UNIT($,.METRE.)
);
#1799=PRODUCT_DEFINITION_SHAPE('','',#1800);
#1800=PRODUCT_DEFINITION('','',#1802,#1801);
#1801=PRODUCT_DEFINITION_CONTEXT('',#1808,'design');
#1802=PRODUCT_DEFINITION_FORMATION_WITH_SPECIFIED_SOURCE('','',#1804,.NOT_KNOWN.);
#1803=PRODUCT_RELATED_PRODUCT_CATEGORY('','',(#1804));
#1804=PRODUCT('Part 7','Part 7','Part 7',(#1806));
#1805=PRODUCT_CATEGORY('','');
#1806=PRODUCT_CONTEXT('',#1808,'mechanical');
#1807=APPLICATION_PROTOCOL_DEFINITION('international standard','ap242_managed_model_based_3d_engineering',2020,#1808);
#1808=APPLICATION_CONTEXT('managed model based 3d engineering');
ENDSEC;
END-ISO-10303-21;
