ISO-10303-21;
HEADER;
/* Generated by software containing ST-Developer
 * from STEP Tools, Inc. (www.steptools.com) 
 */
/* OPTION: using custom renumber hook */

FILE_DESCRIPTION(
/* description */ ('STEP AP242 Edition 2',
'CAx-IF Rec.Pracs.---Representation and Presentation of Product Manufa
cturing Information (PMI)---4.0---2014-10-13',
'CAx-IF Rec.Pracs.---3D Tessellated Geometry---0.4---2014-09-14','2;1',
'CAx-IF Rec.Pracs.---User Defined Attributes---1.5---2016-08-15'),
/* implementation_level */ '2;1');

FILE_NAME(
/* name */ 'x500v2-frame parts - Part 52',
/* time_stamp */ '2026-09-15T20:40:48Z',
/* author */ (''),
/* organization */ (''),
/* preprocessor_version */ 'ST-DEVELOPER v20',
/* originating_system */ 'ONSHAPE BY PTC INC, 1.220',
/* authorisation */ '  ');

FILE_SCHEMA (('AP242_MANAGED_MODEL_BASED_3D_ENGINEERING_MIM_LF { 1 0 10303 442 3 1 4 }'));
ENDSEC;

DATA;
#10=SHAPE_REPRESENTATION_RELATIONSHIP('','',#1055,#11);
#11=ADVANCED_BREP_SHAPE_REPRESENTATION('',(#1053),#1741);
#12=DEGENERATE_TOROIDAL_SURFACE('',#1147,0.000491998,0.00127,.T.);
#13=DEGENERATE_TOROIDAL_SURFACE('',#1149,0.000491998,0.00127,.T.);
#14=DEGENERATE_TOROIDAL_SURFACE('',#1151,0.000491998,0.00127,.T.);
#15=DEGENERATE_TOROIDAL_SURFACE('',#1153,0.000491998,0.00127,.T.);
#16=TOROIDAL_SURFACE('',#1143,0.00427616000385535,0.00251416200385534);
#17=TOROIDAL_SURFACE('',#1144,0.00427616000385535,0.00251416200385534);
#18=TOROIDAL_SURFACE('',#1145,0.00427616000385535,0.00251416200385534);
#19=TOROIDAL_SURFACE('',#1146,0.00427616000385535,0.00251416200385534);
#20=TOROIDAL_SURFACE('',#1155,0.00143893928491411,0.000184941284914114);
#21=TOROIDAL_SURFACE('',#1156,0.00143893928491411,0.000184941284914114);
#22=TOROIDAL_SURFACE('',#1157,0.00143893928491411,0.000184941284914114);
#23=TOROIDAL_SURFACE('',#1158,0.00143893928491411,0.000184941284914114);
#24=PLANE('',#1072);
#25=PLANE('',#1076);
#26=PLANE('',#1080);
#27=PLANE('',#1093);
#28=PLANE('',#1097);
#29=PLANE('',#1098);
#30=PLANE('',#1103);
#31=PLANE('',#1104);
#32=PLANE('',#1105);
#33=PLANE('',#1106);
#34=PLANE('',#1107);
#35=PLANE('',#1108);
#36=PLANE('',#1109);
#37=PLANE('',#1110);
#38=PLANE('',#1111);
#39=PLANE('',#1112);
#40=PLANE('',#1113);
#41=PLANE('',#1114);
#42=PLANE('',#1115);
#43=PLANE('',#1116);
#44=PLANE('',#1117);
#45=PLANE('',#1118);
#46=PLANE('',#1119);
#47=PLANE('',#1120);
#48=PLANE('',#1121);
#49=PLANE('',#1122);
#50=PLANE('',#1123);
#51=PLANE('',#1124);
#52=PLANE('',#1125);
#53=PLANE('',#1126);
#54=PLANE('',#1127);
#55=PLANE('',#1128);
#56=PLANE('',#1129);
#57=PLANE('',#1130);
#58=LINE('',#1478,#146);
#59=LINE('',#1482,#147);
#60=LINE('',#1484,#148);
#61=LINE('',#1486,#149);
#62=LINE('',#1488,#150);
#63=LINE('',#1492,#151);
#64=LINE('',#1496,#152);
#65=LINE('',#1498,#153);
#66=LINE('',#1500,#154);
#67=LINE('',#1504,#155);
#68=LINE('',#1508,#156);
#69=LINE('',#1510,#157);
#70=LINE('',#1512,#158);
#71=LINE('',#1516,#159);
#72=LINE('',#1535,#160);
#73=LINE('',#1536,#161);
#74=LINE('',#1543,#162);
#75=LINE('',#1546,#163);
#76=LINE('',#1548,#164);
#77=LINE('',#1550,#165);
#78=LINE('',#1552,#166);
#79=LINE('',#1554,#167);
#80=LINE('',#1555,#168);
#81=LINE('',#1558,#169);
#82=LINE('',#1560,#170);
#83=LINE('',#1562,#171);
#84=LINE('',#1564,#172);
#85=LINE('',#1566,#173);
#86=LINE('',#1567,#174);
#87=LINE('',#1570,#175);
#88=LINE('',#1572,#176);
#89=LINE('',#1574,#177);
#90=LINE('',#1576,#178);
#91=LINE('',#1578,#179);
#92=LINE('',#1579,#180);
#93=LINE('',#1582,#181);
#94=LINE('',#1584,#182);
#95=LINE('',#1586,#183);
#96=LINE('',#1588,#184);
#97=LINE('',#1590,#185);
#98=LINE('',#1601,#186);
#99=LINE('',#1603,#187);
#100=LINE('',#1605,#188);
#101=LINE('',#1607,#189);
#102=LINE('',#1609,#190);
#103=LINE('',#1611,#191);
#104=LINE('',#1613,#192);
#105=LINE('',#1615,#193);
#106=LINE('',#1617,#194);
#107=LINE('',#1619,#195);
#108=LINE('',#1621,#196);
#109=LINE('',#1623,#197);
#110=LINE('',#1626,#198);
#111=LINE('',#1628,#199);
#112=LINE('',#1630,#200);
#113=LINE('',#1632,#201);
#114=LINE('',#1634,#202);
#115=LINE('',#1636,#203);
#116=LINE('',#1638,#204);
#117=LINE('',#1640,#205);
#118=LINE('',#1642,#206);
#119=LINE('',#1644,#207);
#120=LINE('',#1646,#208);
#121=LINE('',#1648,#209);
#122=LINE('',#1651,#210);
#123=LINE('',#1653,#211);
#124=LINE('',#1655,#212);
#125=LINE('',#1657,#213);
#126=LINE('',#1659,#214);
#127=LINE('',#1661,#215);
#128=LINE('',#1663,#216);
#129=LINE('',#1665,#217);
#130=LINE('',#1667,#218);
#131=LINE('',#1669,#219);
#132=LINE('',#1671,#220);
#133=LINE('',#1673,#221);
#134=LINE('',#1676,#222);
#135=LINE('',#1678,#223);
#136=LINE('',#1680,#224);
#137=LINE('',#1682,#225);
#138=LINE('',#1684,#226);
#139=LINE('',#1686,#227);
#140=LINE('',#1688,#228);
#141=LINE('',#1690,#229);
#142=LINE('',#1692,#230);
#143=LINE('',#1694,#231);
#144=LINE('',#1696,#232);
#145=LINE('',#1698,#233);
#146=VECTOR('',#1189,1.);
#147=VECTOR('',#1192,1.);
#148=VECTOR('',#1195,1.);
#149=VECTOR('',#1196,1.);
#150=VECTOR('',#1197,1.);
#151=VECTOR('',#1202,1.);
#152=VECTOR('',#1207,1.);
#153=VECTOR('',#1208,1.);
#154=VECTOR('',#1209,1.);
#155=VECTOR('',#1214,1.);
#156=VECTOR('',#1219,1.);
#157=VECTOR('',#1220,1.);
#158=VECTOR('',#1221,1.);
#159=VECTOR('',#1226,1.);
#160=VECTOR('',#1249,1.);
#161=VECTOR('',#1250,1.);
#162=VECTOR('',#1259,1.);
#163=VECTOR('',#1260,1.);
#164=VECTOR('',#1261,1.);
#165=VECTOR('',#1262,1.);
#166=VECTOR('',#1263,1.);
#167=VECTOR('',#1264,1.);
#168=VECTOR('',#1265,1.);
#169=VECTOR('',#1266,1.);
#170=VECTOR('',#1267,1.);
#171=VECTOR('',#1268,1.);
#172=VECTOR('',#1269,1.);
#173=VECTOR('',#1270,1.);
#174=VECTOR('',#1271,1.);
#175=VECTOR('',#1272,1.);
#176=VECTOR('',#1273,1.);
#177=VECTOR('',#1274,1.);
#178=VECTOR('',#1275,1.);
#179=VECTOR('',#1276,1.);
#180=VECTOR('',#1277,1.);
#181=VECTOR('',#1278,1.);
#182=VECTOR('',#1279,1.);
#183=VECTOR('',#1280,1.);
#184=VECTOR('',#1281,1.);
#185=VECTOR('',#1282,1.);
#186=VECTOR('',#1295,1.);
#187=VECTOR('',#1296,1.);
#188=VECTOR('',#1297,1.);
#189=VECTOR('',#1300,1.);
#190=VECTOR('',#1301,1.);
#191=VECTOR('',#1304,1.);
#192=VECTOR('',#1305,1.);
#193=VECTOR('',#1308,1.);
#194=VECTOR('',#1309,1.);
#195=VECTOR('',#1312,1.);
#196=VECTOR('',#1313,1.);
#197=VECTOR('',#1316,1.);
#198=VECTOR('',#1321,1.);
#199=VECTOR('',#1322,1.);
#200=VECTOR('',#1323,1.);
#201=VECTOR('',#1326,1.);
#202=VECTOR('',#1327,1.);
#203=VECTOR('',#1330,1.);
#204=VECTOR('',#1331,1.);
#205=VECTOR('',#1334,1.);
#206=VECTOR('',#1335,1.);
#207=VECTOR('',#1338,1.);
#208=VECTOR('',#1339,1.);
#209=VECTOR('',#1342,1.);
#210=VECTOR('',#1347,1.);
#211=VECTOR('',#1348,1.);
#212=VECTOR('',#1349,1.);
#213=VECTOR('',#1352,1.);
#214=VECTOR('',#1353,1.);
#215=VECTOR('',#1356,1.);
#216=VECTOR('',#1357,1.);
#217=VECTOR('',#1360,1.);
#218=VECTOR('',#1361,1.);
#219=VECTOR('',#1364,1.);
#220=VECTOR('',#1365,1.);
#221=VECTOR('',#1368,1.);
#222=VECTOR('',#1373,1.);
#223=VECTOR('',#1374,1.);
#224=VECTOR('',#1375,1.);
#225=VECTOR('',#1378,1.);
#226=VECTOR('',#1379,1.);
#227=VECTOR('',#1382,1.);
#228=VECTOR('',#1383,1.);
#229=VECTOR('',#1386,1.);
#230=VECTOR('',#1387,1.);
#231=VECTOR('',#1390,1.);
#232=VECTOR('',#1391,1.);
#233=VECTOR('',#1394,1.);
#234=ORIENTED_EDGE('',*,*,#490,.T.);
#235=ORIENTED_EDGE('',*,*,#491,.F.);
#236=ORIENTED_EDGE('',*,*,#492,.T.);
#237=ORIENTED_EDGE('',*,*,#493,.F.);
#238=ORIENTED_EDGE('',*,*,#494,.T.);
#239=ORIENTED_EDGE('',*,*,#495,.F.);
#240=ORIENTED_EDGE('',*,*,#496,.T.);
#241=ORIENTED_EDGE('',*,*,#497,.F.);
#242=ORIENTED_EDGE('',*,*,#498,.T.);
#243=ORIENTED_EDGE('',*,*,#499,.F.);
#244=ORIENTED_EDGE('',*,*,#500,.F.);
#245=ORIENTED_EDGE('',*,*,#501,.T.);
#246=ORIENTED_EDGE('',*,*,#502,.T.);
#247=ORIENTED_EDGE('',*,*,#503,.F.);
#248=ORIENTED_EDGE('',*,*,#504,.F.);
#249=ORIENTED_EDGE('',*,*,#499,.T.);
#250=ORIENTED_EDGE('',*,*,#505,.T.);
#251=ORIENTED_EDGE('',*,*,#506,.F.);
#252=ORIENTED_EDGE('',*,*,#507,.F.);
#253=ORIENTED_EDGE('',*,*,#503,.T.);
#254=ORIENTED_EDGE('',*,*,#508,.T.);
#255=ORIENTED_EDGE('',*,*,#509,.F.);
#256=ORIENTED_EDGE('',*,*,#510,.F.);
#257=ORIENTED_EDGE('',*,*,#506,.T.);
#258=ORIENTED_EDGE('',*,*,#511,.T.);
#259=ORIENTED_EDGE('',*,*,#512,.F.);
#260=ORIENTED_EDGE('',*,*,#513,.F.);
#261=ORIENTED_EDGE('',*,*,#509,.T.);
#262=ORIENTED_EDGE('',*,*,#514,.F.);
#263=ORIENTED_EDGE('',*,*,#515,.F.);
#264=ORIENTED_EDGE('',*,*,#516,.T.);
#265=ORIENTED_EDGE('',*,*,#512,.T.);
#266=ORIENTED_EDGE('',*,*,#517,.T.);
#267=ORIENTED_EDGE('',*,*,#518,.F.);
#268=ORIENTED_EDGE('',*,*,#519,.F.);
#269=ORIENTED_EDGE('',*,*,#515,.T.);
#270=ORIENTED_EDGE('',*,*,#520,.F.);
#271=ORIENTED_EDGE('',*,*,#521,.T.);
#272=ORIENTED_EDGE('',*,*,#522,.F.);
#273=ORIENTED_EDGE('',*,*,#523,.T.);
#274=ORIENTED_EDGE('',*,*,#524,.F.);
#275=ORIENTED_EDGE('',*,*,#525,.T.);
#276=ORIENTED_EDGE('',*,*,#526,.F.);
#277=ORIENTED_EDGE('',*,*,#501,.F.);
#278=ORIENTED_EDGE('',*,*,#527,.T.);
#279=ORIENTED_EDGE('',*,*,#518,.T.);
#280=ORIENTED_EDGE('',*,*,#528,.F.);
#281=ORIENTED_EDGE('',*,*,#529,.T.);
#282=ORIENTED_EDGE('',*,*,#530,.F.);
#283=ORIENTED_EDGE('',*,*,#531,.F.);
#284=ORIENTED_EDGE('',*,*,#532,.F.);
#285=ORIENTED_EDGE('',*,*,#533,.F.);
#286=ORIENTED_EDGE('',*,*,#534,.F.);
#287=ORIENTED_EDGE('',*,*,#535,.F.);
#288=ORIENTED_EDGE('',*,*,#536,.F.);
#289=ORIENTED_EDGE('',*,*,#537,.F.);
#290=ORIENTED_EDGE('',*,*,#538,.F.);
#291=ORIENTED_EDGE('',*,*,#539,.F.);
#292=ORIENTED_EDGE('',*,*,#540,.F.);
#293=ORIENTED_EDGE('',*,*,#541,.F.);
#294=ORIENTED_EDGE('',*,*,#542,.F.);
#295=ORIENTED_EDGE('',*,*,#543,.F.);
#296=ORIENTED_EDGE('',*,*,#544,.F.);
#297=ORIENTED_EDGE('',*,*,#545,.F.);
#298=ORIENTED_EDGE('',*,*,#546,.F.);
#299=ORIENTED_EDGE('',*,*,#547,.F.);
#300=ORIENTED_EDGE('',*,*,#548,.F.);
#301=ORIENTED_EDGE('',*,*,#549,.F.);
#302=ORIENTED_EDGE('',*,*,#550,.F.);
#303=ORIENTED_EDGE('',*,*,#551,.F.);
#304=ORIENTED_EDGE('',*,*,#552,.F.);
#305=ORIENTED_EDGE('',*,*,#553,.F.);
#306=ORIENTED_EDGE('',*,*,#498,.F.);
#307=ORIENTED_EDGE('',*,*,#526,.T.);
#308=ORIENTED_EDGE('',*,*,#517,.F.);
#309=ORIENTED_EDGE('',*,*,#514,.T.);
#310=ORIENTED_EDGE('',*,*,#511,.F.);
#311=ORIENTED_EDGE('',*,*,#508,.F.);
#312=ORIENTED_EDGE('',*,*,#505,.F.);
#313=ORIENTED_EDGE('',*,*,#502,.F.);
#314=ORIENTED_EDGE('',*,*,#524,.T.);
#315=ORIENTED_EDGE('',*,*,#522,.T.);
#316=ORIENTED_EDGE('',*,*,#520,.T.);
#317=ORIENTED_EDGE('',*,*,#528,.T.);
#318=ORIENTED_EDGE('',*,*,#554,.T.);
#319=ORIENTED_EDGE('',*,*,#555,.T.);
#320=ORIENTED_EDGE('',*,*,#556,.T.);
#321=ORIENTED_EDGE('',*,*,#557,.T.);
#322=ORIENTED_EDGE('',*,*,#500,.T.);
#323=ORIENTED_EDGE('',*,*,#504,.T.);
#324=ORIENTED_EDGE('',*,*,#507,.T.);
#325=ORIENTED_EDGE('',*,*,#510,.T.);
#326=ORIENTED_EDGE('',*,*,#513,.T.);
#327=ORIENTED_EDGE('',*,*,#516,.F.);
#328=ORIENTED_EDGE('',*,*,#519,.T.);
#329=ORIENTED_EDGE('',*,*,#527,.F.);
#330=ORIENTED_EDGE('',*,*,#525,.F.);
#331=ORIENTED_EDGE('',*,*,#523,.F.);
#332=ORIENTED_EDGE('',*,*,#521,.F.);
#333=ORIENTED_EDGE('',*,*,#529,.F.);
#334=ORIENTED_EDGE('',*,*,#549,.T.);
#335=ORIENTED_EDGE('',*,*,#558,.F.);
#336=ORIENTED_EDGE('',*,*,#559,.F.);
#337=ORIENTED_EDGE('',*,*,#560,.T.);
#338=ORIENTED_EDGE('',*,*,#548,.T.);
#339=ORIENTED_EDGE('',*,*,#561,.F.);
#340=ORIENTED_EDGE('',*,*,#562,.F.);
#341=ORIENTED_EDGE('',*,*,#558,.T.);
#342=ORIENTED_EDGE('',*,*,#553,.T.);
#343=ORIENTED_EDGE('',*,*,#563,.F.);
#344=ORIENTED_EDGE('',*,*,#564,.F.);
#345=ORIENTED_EDGE('',*,*,#561,.T.);
#346=ORIENTED_EDGE('',*,*,#552,.T.);
#347=ORIENTED_EDGE('',*,*,#565,.F.);
#348=ORIENTED_EDGE('',*,*,#566,.F.);
#349=ORIENTED_EDGE('',*,*,#563,.T.);
#350=ORIENTED_EDGE('',*,*,#551,.T.);
#351=ORIENTED_EDGE('',*,*,#567,.F.);
#352=ORIENTED_EDGE('',*,*,#568,.F.);
#353=ORIENTED_EDGE('',*,*,#565,.T.);
#354=ORIENTED_EDGE('',*,*,#550,.T.);
#355=ORIENTED_EDGE('',*,*,#560,.F.);
#356=ORIENTED_EDGE('',*,*,#569,.F.);
#357=ORIENTED_EDGE('',*,*,#567,.T.);
#358=ORIENTED_EDGE('',*,*,#497,.T.);
#359=ORIENTED_EDGE('',*,*,#559,.T.);
#360=ORIENTED_EDGE('',*,*,#562,.T.);
#361=ORIENTED_EDGE('',*,*,#564,.T.);
#362=ORIENTED_EDGE('',*,*,#566,.T.);
#363=ORIENTED_EDGE('',*,*,#568,.T.);
#364=ORIENTED_EDGE('',*,*,#569,.T.);
#365=ORIENTED_EDGE('',*,*,#531,.T.);
#366=ORIENTED_EDGE('',*,*,#570,.F.);
#367=ORIENTED_EDGE('',*,*,#571,.F.);
#368=ORIENTED_EDGE('',*,*,#572,.T.);
#369=ORIENTED_EDGE('',*,*,#530,.T.);
#370=ORIENTED_EDGE('',*,*,#573,.F.);
#371=ORIENTED_EDGE('',*,*,#574,.F.);
#372=ORIENTED_EDGE('',*,*,#570,.T.);
#373=ORIENTED_EDGE('',*,*,#535,.T.);
#374=ORIENTED_EDGE('',*,*,#575,.F.);
#375=ORIENTED_EDGE('',*,*,#576,.F.);
#376=ORIENTED_EDGE('',*,*,#573,.T.);
#377=ORIENTED_EDGE('',*,*,#534,.T.);
#378=ORIENTED_EDGE('',*,*,#577,.F.);
#379=ORIENTED_EDGE('',*,*,#578,.F.);
#380=ORIENTED_EDGE('',*,*,#575,.T.);
#381=ORIENTED_EDGE('',*,*,#533,.T.);
#382=ORIENTED_EDGE('',*,*,#579,.F.);
#383=ORIENTED_EDGE('',*,*,#580,.F.);
#384=ORIENTED_EDGE('',*,*,#577,.T.);
#385=ORIENTED_EDGE('',*,*,#532,.T.);
#386=ORIENTED_EDGE('',*,*,#572,.F.);
#387=ORIENTED_EDGE('',*,*,#581,.F.);
#388=ORIENTED_EDGE('',*,*,#579,.T.);
#389=ORIENTED_EDGE('',*,*,#495,.T.);
#390=ORIENTED_EDGE('',*,*,#571,.T.);
#391=ORIENTED_EDGE('',*,*,#574,.T.);
#392=ORIENTED_EDGE('',*,*,#576,.T.);
#393=ORIENTED_EDGE('',*,*,#578,.T.);
#394=ORIENTED_EDGE('',*,*,#580,.T.);
#395=ORIENTED_EDGE('',*,*,#581,.T.);
#396=ORIENTED_EDGE('',*,*,#537,.T.);
#397=ORIENTED_EDGE('',*,*,#582,.F.);
#398=ORIENTED_EDGE('',*,*,#583,.F.);
#399=ORIENTED_EDGE('',*,*,#584,.T.);
#400=ORIENTED_EDGE('',*,*,#536,.T.);
#401=ORIENTED_EDGE('',*,*,#585,.F.);
#402=ORIENTED_EDGE('',*,*,#586,.F.);
#403=ORIENTED_EDGE('',*,*,#582,.T.);
#404=ORIENTED_EDGE('',*,*,#541,.T.);
#405=ORIENTED_EDGE('',*,*,#587,.F.);
#406=ORIENTED_EDGE('',*,*,#588,.F.);
#407=ORIENTED_EDGE('',*,*,#585,.T.);
#408=ORIENTED_EDGE('',*,*,#540,.T.);
#409=ORIENTED_EDGE('',*,*,#589,.F.);
#410=ORIENTED_EDGE('',*,*,#590,.F.);
#411=ORIENTED_EDGE('',*,*,#587,.T.);
#412=ORIENTED_EDGE('',*,*,#539,.T.);
#413=ORIENTED_EDGE('',*,*,#591,.F.);
#414=ORIENTED_EDGE('',*,*,#592,.F.);
#415=ORIENTED_EDGE('',*,*,#589,.T.);
#416=ORIENTED_EDGE('',*,*,#538,.T.);
#417=ORIENTED_EDGE('',*,*,#584,.F.);
#418=ORIENTED_EDGE('',*,*,#593,.F.);
#419=ORIENTED_EDGE('',*,*,#591,.T.);
#420=ORIENTED_EDGE('',*,*,#493,.T.);
#421=ORIENTED_EDGE('',*,*,#583,.T.);
#422=ORIENTED_EDGE('',*,*,#586,.T.);
#423=ORIENTED_EDGE('',*,*,#588,.T.);
#424=ORIENTED_EDGE('',*,*,#590,.T.);
#425=ORIENTED_EDGE('',*,*,#592,.T.);
#426=ORIENTED_EDGE('',*,*,#593,.T.);
#427=ORIENTED_EDGE('',*,*,#543,.T.);
#428=ORIENTED_EDGE('',*,*,#594,.F.);
#429=ORIENTED_EDGE('',*,*,#595,.F.);
#430=ORIENTED_EDGE('',*,*,#596,.T.);
#431=ORIENTED_EDGE('',*,*,#542,.T.);
#432=ORIENTED_EDGE('',*,*,#597,.F.);
#433=ORIENTED_EDGE('',*,*,#598,.F.);
#434=ORIENTED_EDGE('',*,*,#594,.T.);
#435=ORIENTED_EDGE('',*,*,#547,.T.);
#436=ORIENTED_EDGE('',*,*,#599,.F.);
#437=ORIENTED_EDGE('',*,*,#600,.F.);
#438=ORIENTED_EDGE('',*,*,#597,.T.);
#439=ORIENTED_EDGE('',*,*,#546,.T.);
#440=ORIENTED_EDGE('',*,*,#601,.F.);
#441=ORIENTED_EDGE('',*,*,#602,.F.);
#442=ORIENTED_EDGE('',*,*,#599,.T.);
#443=ORIENTED_EDGE('',*,*,#545,.T.);
#444=ORIENTED_EDGE('',*,*,#603,.F.);
#445=ORIENTED_EDGE('',*,*,#604,.F.);
#446=ORIENTED_EDGE('',*,*,#601,.T.);
#447=ORIENTED_EDGE('',*,*,#544,.T.);
#448=ORIENTED_EDGE('',*,*,#596,.F.);
#449=ORIENTED_EDGE('',*,*,#605,.F.);
#450=ORIENTED_EDGE('',*,*,#603,.T.);
#451=ORIENTED_EDGE('',*,*,#491,.T.);
#452=ORIENTED_EDGE('',*,*,#595,.T.);
#453=ORIENTED_EDGE('',*,*,#598,.T.);
#454=ORIENTED_EDGE('',*,*,#600,.T.);
#455=ORIENTED_EDGE('',*,*,#602,.T.);
#456=ORIENTED_EDGE('',*,*,#604,.T.);
#457=ORIENTED_EDGE('',*,*,#605,.T.);
#458=ORIENTED_EDGE('',*,*,#606,.T.);
#459=ORIENTED_EDGE('',*,*,#607,.T.);
#460=ORIENTED_EDGE('',*,*,#608,.T.);
#461=ORIENTED_EDGE('',*,*,#609,.T.);
#462=ORIENTED_EDGE('',*,*,#610,.T.);
#463=ORIENTED_EDGE('',*,*,#611,.T.);
#464=ORIENTED_EDGE('',*,*,#612,.T.);
#465=ORIENTED_EDGE('',*,*,#613,.T.);
#466=ORIENTED_EDGE('',*,*,#554,.F.);
#467=ORIENTED_EDGE('',*,*,#611,.F.);
#468=ORIENTED_EDGE('',*,*,#555,.F.);
#469=ORIENTED_EDGE('',*,*,#613,.F.);
#470=ORIENTED_EDGE('',*,*,#556,.F.);
#471=ORIENTED_EDGE('',*,*,#607,.F.);
#472=ORIENTED_EDGE('',*,*,#557,.F.);
#473=ORIENTED_EDGE('',*,*,#609,.F.);
#474=ORIENTED_EDGE('',*,*,#614,.T.);
#475=ORIENTED_EDGE('',*,*,#610,.F.);
#476=ORIENTED_EDGE('',*,*,#615,.T.);
#477=ORIENTED_EDGE('',*,*,#612,.F.);
#478=ORIENTED_EDGE('',*,*,#616,.T.);
#479=ORIENTED_EDGE('',*,*,#606,.F.);
#480=ORIENTED_EDGE('',*,*,#617,.T.);
#481=ORIENTED_EDGE('',*,*,#608,.F.);
#482=ORIENTED_EDGE('',*,*,#615,.F.);
#483=ORIENTED_EDGE('',*,*,#496,.F.);
#484=ORIENTED_EDGE('',*,*,#614,.F.);
#485=ORIENTED_EDGE('',*,*,#494,.F.);
#486=ORIENTED_EDGE('',*,*,#616,.F.);
#487=ORIENTED_EDGE('',*,*,#490,.F.);
#488=ORIENTED_EDGE('',*,*,#617,.F.);
#489=ORIENTED_EDGE('',*,*,#492,.F.);
#490=EDGE_CURVE('',#618,#618,#714,.F.);
#491=EDGE_CURVE('',#619,#619,#715,.T.);
#492=EDGE_CURVE('',#620,#620,#716,.F.);
#493=EDGE_CURVE('',#621,#621,#717,.T.);
#494=EDGE_CURVE('',#622,#622,#718,.F.);
#495=EDGE_CURVE('',#623,#623,#719,.T.);
#496=EDGE_CURVE('',#624,#624,#720,.F.);
#497=EDGE_CURVE('',#625,#625,#721,.T.);
#498=EDGE_CURVE('',#626,#627,#722,.T.);
#499=EDGE_CURVE('',#628,#627,#58,.T.);
#500=EDGE_CURVE('',#629,#628,#723,.T.);
#501=EDGE_CURVE('',#629,#626,#59,.T.);
#502=EDGE_CURVE('',#627,#630,#60,.T.);
#503=EDGE_CURVE('',#631,#630,#61,.T.);
#504=EDGE_CURVE('',#628,#631,#62,.T.);
#505=EDGE_CURVE('',#630,#632,#724,.T.);
#506=EDGE_CURVE('',#633,#632,#63,.T.);
#507=EDGE_CURVE('',#631,#633,#725,.T.);
#508=EDGE_CURVE('',#632,#634,#64,.T.);
#509=EDGE_CURVE('',#635,#634,#65,.T.);
#510=EDGE_CURVE('',#633,#635,#66,.T.);
#511=EDGE_CURVE('',#634,#636,#726,.T.);
#512=EDGE_CURVE('',#637,#636,#67,.T.);
#513=EDGE_CURVE('',#635,#637,#727,.T.);
#514=EDGE_CURVE('',#638,#636,#68,.T.);
#515=EDGE_CURVE('',#639,#638,#69,.T.);
#516=EDGE_CURVE('',#639,#637,#70,.T.);
#517=EDGE_CURVE('',#638,#640,#728,.T.);
#518=EDGE_CURVE('',#641,#640,#71,.T.);
#519=EDGE_CURVE('',#639,#641,#729,.T.);
#520=EDGE_CURVE('',#642,#642,#730,.T.);
#521=EDGE_CURVE('',#643,#643,#731,.T.);
#522=EDGE_CURVE('',#644,#644,#732,.T.);
#523=EDGE_CURVE('',#645,#645,#733,.T.);
#524=EDGE_CURVE('',#646,#646,#734,.T.);
#525=EDGE_CURVE('',#647,#647,#735,.T.);
#526=EDGE_CURVE('',#626,#640,#72,.T.);
#527=EDGE_CURVE('',#629,#641,#73,.T.);
#528=EDGE_CURVE('',#648,#648,#736,.T.);
#529=EDGE_CURVE('',#649,#649,#737,.T.);
#530=EDGE_CURVE('',#650,#651,#74,.T.);
#531=EDGE_CURVE('',#652,#650,#75,.T.);
#532=EDGE_CURVE('',#653,#652,#76,.T.);
#533=EDGE_CURVE('',#654,#653,#77,.T.);
#534=EDGE_CURVE('',#655,#654,#78,.T.);
#535=EDGE_CURVE('',#651,#655,#79,.T.);
#536=EDGE_CURVE('',#656,#657,#80,.T.);
#537=EDGE_CURVE('',#658,#656,#81,.T.);
#538=EDGE_CURVE('',#659,#658,#82,.T.);
#539=EDGE_CURVE('',#660,#659,#83,.T.);
#540=EDGE_CURVE('',#661,#660,#84,.T.);
#541=EDGE_CURVE('',#657,#661,#85,.T.);
#542=EDGE_CURVE('',#662,#663,#86,.T.);
#543=EDGE_CURVE('',#664,#662,#87,.T.);
#544=EDGE_CURVE('',#665,#664,#88,.T.);
#545=EDGE_CURVE('',#666,#665,#89,.T.);
#546=EDGE_CURVE('',#667,#666,#90,.T.);
#547=EDGE_CURVE('',#663,#667,#91,.T.);
#548=EDGE_CURVE('',#668,#669,#92,.T.);
#549=EDGE_CURVE('',#670,#668,#93,.T.);
#550=EDGE_CURVE('',#671,#670,#94,.T.);
#551=EDGE_CURVE('',#672,#671,#95,.T.);
#552=EDGE_CURVE('',#673,#672,#96,.T.);
#553=EDGE_CURVE('',#669,#673,#97,.T.);
#554=EDGE_CURVE('',#674,#674,#738,.F.);
#555=EDGE_CURVE('',#675,#675,#739,.F.);
#556=EDGE_CURVE('',#676,#676,#740,.F.);
#557=EDGE_CURVE('',#677,#677,#741,.F.);
#558=EDGE_CURVE('',#678,#668,#98,.T.);
#559=EDGE_CURVE('',#679,#678,#99,.T.);
#560=EDGE_CURVE('',#679,#670,#100,.T.);
#561=EDGE_CURVE('',#680,#669,#101,.T.);
#562=EDGE_CURVE('',#678,#680,#102,.T.);
#563=EDGE_CURVE('',#681,#673,#103,.T.);
#564=EDGE_CURVE('',#680,#681,#104,.T.);
#565=EDGE_CURVE('',#682,#672,#105,.T.);
#566=EDGE_CURVE('',#681,#682,#106,.T.);
#567=EDGE_CURVE('',#683,#671,#107,.T.);
#568=EDGE_CURVE('',#682,#683,#108,.T.);
#569=EDGE_CURVE('',#683,#679,#109,.T.);
#570=EDGE_CURVE('',#684,#650,#110,.T.);
#571=EDGE_CURVE('',#685,#684,#111,.T.);
#572=EDGE_CURVE('',#685,#652,#112,.T.);
#573=EDGE_CURVE('',#686,#651,#113,.T.);
#574=EDGE_CURVE('',#684,#686,#114,.T.);
#575=EDGE_CURVE('',#687,#655,#115,.T.);
#576=EDGE_CURVE('',#686,#687,#116,.T.);
#577=EDGE_CURVE('',#688,#654,#117,.T.);
#578=EDGE_CURVE('',#687,#688,#118,.T.);
#579=EDGE_CURVE('',#689,#653,#119,.T.);
#580=EDGE_CURVE('',#688,#689,#120,.T.);
#581=EDGE_CURVE('',#689,#685,#121,.T.);
#582=EDGE_CURVE('',#690,#656,#122,.T.);
#583=EDGE_CURVE('',#691,#690,#123,.T.);
#584=EDGE_CURVE('',#691,#658,#124,.T.);
#585=EDGE_CURVE('',#692,#657,#125,.T.);
#586=EDGE_CURVE('',#690,#692,#126,.T.);
#587=EDGE_CURVE('',#693,#661,#127,.T.);
#588=EDGE_CURVE('',#692,#693,#128,.T.);
#589=EDGE_CURVE('',#694,#660,#129,.T.);
#590=EDGE_CURVE('',#693,#694,#130,.T.);
#591=EDGE_CURVE('',#695,#659,#131,.T.);
#592=EDGE_CURVE('',#694,#695,#132,.T.);
#593=EDGE_CURVE('',#695,#691,#133,.T.);
#594=EDGE_CURVE('',#696,#662,#134,.T.);
#595=EDGE_CURVE('',#697,#696,#135,.T.);
#596=EDGE_CURVE('',#697,#664,#136,.T.);
#597=EDGE_CURVE('',#698,#663,#137,.T.);
#598=EDGE_CURVE('',#696,#698,#138,.T.);
#599=EDGE_CURVE('',#699,#667,#139,.T.);
#600=EDGE_CURVE('',#698,#699,#140,.T.);
#601=EDGE_CURVE('',#700,#666,#141,.T.);
#602=EDGE_CURVE('',#699,#700,#142,.T.);
#603=EDGE_CURVE('',#701,#665,#143,.T.);
#604=EDGE_CURVE('',#700,#701,#144,.T.);
#605=EDGE_CURVE('',#701,#697,#145,.T.);
#606=EDGE_CURVE('',#702,#702,#742,.F.);
#607=EDGE_CURVE('',#703,#703,#743,.T.);
#608=EDGE_CURVE('',#704,#704,#744,.F.);
#609=EDGE_CURVE('',#705,#705,#745,.T.);
#610=EDGE_CURVE('',#706,#706,#746,.F.);
#611=EDGE_CURVE('',#707,#707,#747,.T.);
#612=EDGE_CURVE('',#708,#708,#748,.F.);
#613=EDGE_CURVE('',#709,#709,#749,.T.);
#614=EDGE_CURVE('',#710,#710,#750,.T.);
#615=EDGE_CURVE('',#711,#711,#751,.T.);
#616=EDGE_CURVE('',#712,#712,#752,.T.);
#617=EDGE_CURVE('',#713,#713,#753,.T.);
#618=VERTEX_POINT('',#1456);
#619=VERTEX_POINT('',#1458);
#620=VERTEX_POINT('',#1461);
#621=VERTEX_POINT('',#1463);
#622=VERTEX_POINT('',#1466);
#623=VERTEX_POINT('',#1468);
#624=VERTEX_POINT('',#1471);
#625=VERTEX_POINT('',#1473);
#626=VERTEX_POINT('',#1476);
#627=VERTEX_POINT('',#1477);
#628=VERTEX_POINT('',#1479);
#629=VERTEX_POINT('',#1481);
#630=VERTEX_POINT('',#1485);
#631=VERTEX_POINT('',#1487);
#632=VERTEX_POINT('',#1491);
#633=VERTEX_POINT('',#1493);
#634=VERTEX_POINT('',#1497);
#635=VERTEX_POINT('',#1499);
#636=VERTEX_POINT('',#1503);
#637=VERTEX_POINT('',#1505);
#638=VERTEX_POINT('',#1509);
#639=VERTEX_POINT('',#1511);
#640=VERTEX_POINT('',#1515);
#641=VERTEX_POINT('',#1517);
#642=VERTEX_POINT('',#1521);
#643=VERTEX_POINT('',#1523);
#644=VERTEX_POINT('',#1526);
#645=VERTEX_POINT('',#1528);
#646=VERTEX_POINT('',#1531);
#647=VERTEX_POINT('',#1533);
#648=VERTEX_POINT('',#1539);
#649=VERTEX_POINT('',#1541);
#650=VERTEX_POINT('',#1544);
#651=VERTEX_POINT('',#1545);
#652=VERTEX_POINT('',#1547);
#653=VERTEX_POINT('',#1549);
#654=VERTEX_POINT('',#1551);
#655=VERTEX_POINT('',#1553);
#656=VERTEX_POINT('',#1556);
#657=VERTEX_POINT('',#1557);
#658=VERTEX_POINT('',#1559);
#659=VERTEX_POINT('',#1561);
#660=VERTEX_POINT('',#1563);
#661=VERTEX_POINT('',#1565);
#662=VERTEX_POINT('',#1568);
#663=VERTEX_POINT('',#1569);
#664=VERTEX_POINT('',#1571);
#665=VERTEX_POINT('',#1573);
#666=VERTEX_POINT('',#1575);
#667=VERTEX_POINT('',#1577);
#668=VERTEX_POINT('',#1580);
#669=VERTEX_POINT('',#1581);
#670=VERTEX_POINT('',#1583);
#671=VERTEX_POINT('',#1585);
#672=VERTEX_POINT('',#1587);
#673=VERTEX_POINT('',#1589);
#674=VERTEX_POINT('',#1593);
#675=VERTEX_POINT('',#1595);
#676=VERTEX_POINT('',#1597);
#677=VERTEX_POINT('',#1599);
#678=VERTEX_POINT('',#1602);
#679=VERTEX_POINT('',#1604);
#680=VERTEX_POINT('',#1608);
#681=VERTEX_POINT('',#1612);
#682=VERTEX_POINT('',#1616);
#683=VERTEX_POINT('',#1620);
#684=VERTEX_POINT('',#1627);
#685=VERTEX_POINT('',#1629);
#686=VERTEX_POINT('',#1633);
#687=VERTEX_POINT('',#1637);
#688=VERTEX_POINT('',#1641);
#689=VERTEX_POINT('',#1645);
#690=VERTEX_POINT('',#1652);
#691=VERTEX_POINT('',#1654);
#692=VERTEX_POINT('',#1658);
#693=VERTEX_POINT('',#1662);
#694=VERTEX_POINT('',#1666);
#695=VERTEX_POINT('',#1670);
#696=VERTEX_POINT('',#1677);
#697=VERTEX_POINT('',#1679);
#698=VERTEX_POINT('',#1683);
#699=VERTEX_POINT('',#1687);
#700=VERTEX_POINT('',#1691);
#701=VERTEX_POINT('',#1695);
#702=VERTEX_POINT('',#1702);
#703=VERTEX_POINT('',#1704);
#704=VERTEX_POINT('',#1707);
#705=VERTEX_POINT('',#1709);
#706=VERTEX_POINT('',#1712);
#707=VERTEX_POINT('',#1714);
#708=VERTEX_POINT('',#1717);
#709=VERTEX_POINT('',#1719);
#710=VERTEX_POINT('',#1726);
#711=VERTEX_POINT('',#1729);
#712=VERTEX_POINT('',#1732);
#713=VERTEX_POINT('',#1735);
#714=CIRCLE('',#1058,0.001253998);
#715=CIRCLE('',#1059,0.001253998);
#716=CIRCLE('',#1061,0.001253998);
#717=CIRCLE('',#1062,0.001253998);
#718=CIRCLE('',#1064,0.001253998);
#719=CIRCLE('',#1065,0.001253998);
#720=CIRCLE('',#1067,0.001253998);
#721=CIRCLE('',#1068,0.001253998);
#722=CIRCLE('',#1070,0.0127);
#723=CIRCLE('',#1071,0.0127);
#724=CIRCLE('',#1074,0.0127);
#725=CIRCLE('',#1075,0.0127);
#726=CIRCLE('',#1078,0.0127);
#727=CIRCLE('',#1079,0.0127);
#728=CIRCLE('',#1082,0.0127);
#729=CIRCLE('',#1083,0.0127);
#730=CIRCLE('',#1085,0.00150000000000025);
#731=CIRCLE('',#1086,0.00150000000000025);
#732=CIRCLE('',#1088,0.00150000000000026);
#733=CIRCLE('',#1089,0.00150000000000026);
#734=CIRCLE('',#1091,0.00150000000000025);
#735=CIRCLE('',#1092,0.00150000000000025);
#736=CIRCLE('',#1095,0.00150000000000026);
#737=CIRCLE('',#1096,0.00150000000000026);
#738=CIRCLE('',#1099,0.00427616000385535);
#739=CIRCLE('',#1100,0.00427616000385535);
#740=CIRCLE('',#1101,0.00427616000385535);
#741=CIRCLE('',#1102,0.00427616000385535);
#742=CIRCLE('',#1132,0.001761998);
#743=CIRCLE('',#1133,0.001761998);
#744=CIRCLE('',#1135,0.001761998);
#745=CIRCLE('',#1136,0.001761998);
#746=CIRCLE('',#1138,0.001761998);
#747=CIRCLE('',#1139,0.001761998);
#748=CIRCLE('',#1141,0.001761998);
#749=CIRCLE('',#1142,0.001761998);
#750=CIRCLE('',#1148,0.00160033934145978);
#751=CIRCLE('',#1150,0.00160033934145978);
#752=CIRCLE('',#1152,0.00160033934145978);
#753=CIRCLE('',#1154,0.00160033934145978);
#754=EDGE_LOOP('',(#234));
#755=EDGE_LOOP('',(#235));
#756=EDGE_LOOP('',(#236));
#757=EDGE_LOOP('',(#237));
#758=EDGE_LOOP('',(#238));
#759=EDGE_LOOP('',(#239));
#760=EDGE_LOOP('',(#240));
#761=EDGE_LOOP('',(#241));
#762=EDGE_LOOP('',(#242,#243,#244,#245));
#763=EDGE_LOOP('',(#246,#247,#248,#249));
#764=EDGE_LOOP('',(#250,#251,#252,#253));
#765=EDGE_LOOP('',(#254,#255,#256,#257));
#766=EDGE_LOOP('',(#258,#259,#260,#261));
#767=EDGE_LOOP('',(#262,#263,#264,#265));
#768=EDGE_LOOP('',(#266,#267,#268,#269));
#769=EDGE_LOOP('',(#270));
#770=EDGE_LOOP('',(#271));
#771=EDGE_LOOP('',(#272));
#772=EDGE_LOOP('',(#273));
#773=EDGE_LOOP('',(#274));
#774=EDGE_LOOP('',(#275));
#775=EDGE_LOOP('',(#276,#277,#278,#279));
#776=EDGE_LOOP('',(#280));
#777=EDGE_LOOP('',(#281));
#778=EDGE_LOOP('',(#282,#283,#284,#285,#286,#287));
#779=EDGE_LOOP('',(#288,#289,#290,#291,#292,#293));
#780=EDGE_LOOP('',(#294,#295,#296,#297,#298,#299));
#781=EDGE_LOOP('',(#300,#301,#302,#303,#304,#305));
#782=EDGE_LOOP('',(#306,#307,#308,#309,#310,#311,#312,#313));
#783=EDGE_LOOP('',(#314));
#784=EDGE_LOOP('',(#315));
#785=EDGE_LOOP('',(#316));
#786=EDGE_LOOP('',(#317));
#787=EDGE_LOOP('',(#318));
#788=EDGE_LOOP('',(#319));
#789=EDGE_LOOP('',(#320));
#790=EDGE_LOOP('',(#321));
#791=EDGE_LOOP('',(#322,#323,#324,#325,#326,#327,#328,#329));
#792=EDGE_LOOP('',(#330));
#793=EDGE_LOOP('',(#331));
#794=EDGE_LOOP('',(#332));
#795=EDGE_LOOP('',(#333));
#796=EDGE_LOOP('',(#334,#335,#336,#337));
#797=EDGE_LOOP('',(#338,#339,#340,#341));
#798=EDGE_LOOP('',(#342,#343,#344,#345));
#799=EDGE_LOOP('',(#346,#347,#348,#349));
#800=EDGE_LOOP('',(#350,#351,#352,#353));
#801=EDGE_LOOP('',(#354,#355,#356,#357));
#802=EDGE_LOOP('',(#358));
#803=EDGE_LOOP('',(#359,#360,#361,#362,#363,#364));
#804=EDGE_LOOP('',(#365,#366,#367,#368));
#805=EDGE_LOOP('',(#369,#370,#371,#372));
#806=EDGE_LOOP('',(#373,#374,#375,#376));
#807=EDGE_LOOP('',(#377,#378,#379,#380));
#808=EDGE_LOOP('',(#381,#382,#383,#384));
#809=EDGE_LOOP('',(#385,#386,#387,#388));
#810=EDGE_LOOP('',(#389));
#811=EDGE_LOOP('',(#390,#391,#392,#393,#394,#395));
#812=EDGE_LOOP('',(#396,#397,#398,#399));
#813=EDGE_LOOP('',(#400,#401,#402,#403));
#814=EDGE_LOOP('',(#404,#405,#406,#407));
#815=EDGE_LOOP('',(#408,#409,#410,#411));
#816=EDGE_LOOP('',(#412,#413,#414,#415));
#817=EDGE_LOOP('',(#416,#417,#418,#419));
#818=EDGE_LOOP('',(#420));
#819=EDGE_LOOP('',(#421,#422,#423,#424,#425,#426));
#820=EDGE_LOOP('',(#427,#428,#429,#430));
#821=EDGE_LOOP('',(#431,#432,#433,#434));
#822=EDGE_LOOP('',(#435,#436,#437,#438));
#823=EDGE_LOOP('',(#439,#440,#441,#442));
#824=EDGE_LOOP('',(#443,#444,#445,#446));
#825=EDGE_LOOP('',(#447,#448,#449,#450));
#826=EDGE_LOOP('',(#451));
#827=EDGE_LOOP('',(#452,#453,#454,#455,#456,#457));
#828=EDGE_LOOP('',(#458));
#829=EDGE_LOOP('',(#459));
#830=EDGE_LOOP('',(#460));
#831=EDGE_LOOP('',(#461));
#832=EDGE_LOOP('',(#462));
#833=EDGE_LOOP('',(#463));
#834=EDGE_LOOP('',(#464));
#835=EDGE_LOOP('',(#465));
#836=EDGE_LOOP('',(#466));
#837=EDGE_LOOP('',(#467));
#838=EDGE_LOOP('',(#468));
#839=EDGE_LOOP('',(#469));
#840=EDGE_LOOP('',(#470));
#841=EDGE_LOOP('',(#471));
#842=EDGE_LOOP('',(#472));
#843=EDGE_LOOP('',(#473));
#844=EDGE_LOOP('',(#474));
#845=EDGE_LOOP('',(#475));
#846=EDGE_LOOP('',(#476));
#847=EDGE_LOOP('',(#477));
#848=EDGE_LOOP('',(#478));
#849=EDGE_LOOP('',(#479));
#850=EDGE_LOOP('',(#480));
#851=EDGE_LOOP('',(#481));
#852=EDGE_LOOP('',(#482));
#853=EDGE_LOOP('',(#483));
#854=EDGE_LOOP('',(#484));
#855=EDGE_LOOP('',(#485));
#856=EDGE_LOOP('',(#486));
#857=EDGE_LOOP('',(#487));
#858=EDGE_LOOP('',(#488));
#859=EDGE_LOOP('',(#489));
#860=FACE_BOUND('',#754,.T.);
#861=FACE_BOUND('',#755,.T.);
#862=FACE_BOUND('',#756,.T.);
#863=FACE_BOUND('',#757,.T.);
#864=FACE_BOUND('',#758,.T.);
#865=FACE_BOUND('',#759,.T.);
#866=FACE_BOUND('',#760,.T.);
#867=FACE_BOUND('',#761,.T.);
#868=FACE_BOUND('',#762,.T.);
#869=FACE_BOUND('',#763,.T.);
#870=FACE_BOUND('',#764,.T.);
#871=FACE_BOUND('',#765,.T.);
#872=FACE_BOUND('',#766,.T.);
#873=FACE_BOUND('',#767,.T.);
#874=FACE_BOUND('',#768,.T.);
#875=FACE_BOUND('',#769,.T.);
#876=FACE_BOUND('',#770,.T.);
#877=FACE_BOUND('',#771,.T.);
#878=FACE_BOUND('',#772,.T.);
#879=FACE_BOUND('',#773,.T.);
#880=FACE_BOUND('',#774,.T.);
#881=FACE_BOUND('',#775,.T.);
#882=FACE_BOUND('',#776,.T.);
#883=FACE_BOUND('',#777,.T.);
#884=FACE_BOUND('',#778,.T.);
#885=FACE_BOUND('',#779,.T.);
#886=FACE_BOUND('',#780,.T.);
#887=FACE_BOUND('',#781,.T.);
#888=FACE_BOUND('',#782,.T.);
#889=FACE_BOUND('',#783,.T.);
#890=FACE_BOUND('',#784,.T.);
#891=FACE_BOUND('',#785,.T.);
#892=FACE_BOUND('',#786,.T.);
#893=FACE_BOUND('',#787,.T.);
#894=FACE_BOUND('',#788,.T.);
#895=FACE_BOUND('',#789,.T.);
#896=FACE_BOUND('',#790,.T.);
#897=FACE_BOUND('',#791,.T.);
#898=FACE_BOUND('',#792,.T.);
#899=FACE_BOUND('',#793,.T.);
#900=FACE_BOUND('',#794,.T.);
#901=FACE_BOUND('',#795,.T.);
#902=FACE_BOUND('',#796,.T.);
#903=FACE_BOUND('',#797,.T.);
#904=FACE_BOUND('',#798,.T.);
#905=FACE_BOUND('',#799,.T.);
#906=FACE_BOUND('',#800,.T.);
#907=FACE_BOUND('',#801,.T.);
#908=FACE_BOUND('',#802,.T.);
#909=FACE_BOUND('',#803,.T.);
#910=FACE_BOUND('',#804,.T.);
#911=FACE_BOUND('',#805,.T.);
#912=FACE_BOUND('',#806,.T.);
#913=FACE_BOUND('',#807,.T.);
#914=FACE_BOUND('',#808,.T.);
#915=FACE_BOUND('',#809,.T.);
#916=FACE_BOUND('',#810,.T.);
#917=FACE_BOUND('',#811,.T.);
#918=FACE_BOUND('',#812,.T.);
#919=FACE_BOUND('',#813,.T.);
#920=FACE_BOUND('',#814,.T.);
#921=FACE_BOUND('',#815,.T.);
#922=FACE_BOUND('',#816,.T.);
#923=FACE_BOUND('',#817,.T.);
#924=FACE_BOUND('',#818,.T.);
#925=FACE_BOUND('',#819,.T.);
#926=FACE_BOUND('',#820,.T.);
#927=FACE_BOUND('',#821,.T.);
#928=FACE_BOUND('',#822,.T.);
#929=FACE_BOUND('',#823,.T.);
#930=FACE_BOUND('',#824,.T.);
#931=FACE_BOUND('',#825,.T.);
#932=FACE_BOUND('',#826,.T.);
#933=FACE_BOUND('',#827,.T.);
#934=FACE_BOUND('',#828,.T.);
#935=FACE_BOUND('',#829,.T.);
#936=FACE_BOUND('',#830,.T.);
#937=FACE_BOUND('',#831,.T.);
#938=FACE_BOUND('',#832,.T.);
#939=FACE_BOUND('',#833,.T.);
#940=FACE_BOUND('',#834,.T.);
#941=FACE_BOUND('',#835,.T.);
#942=FACE_BOUND('',#836,.T.);
#943=FACE_BOUND('',#837,.T.);
#944=FACE_BOUND('',#838,.T.);
#945=FACE_BOUND('',#839,.T.);
#946=FACE_BOUND('',#840,.T.);
#947=FACE_BOUND('',#841,.T.);
#948=FACE_BOUND('',#842,.T.);
#949=FACE_BOUND('',#843,.T.);
#950=FACE_BOUND('',#844,.T.);
#951=FACE_BOUND('',#845,.T.);
#952=FACE_BOUND('',#846,.T.);
#953=FACE_BOUND('',#847,.T.);
#954=FACE_BOUND('',#848,.T.);
#955=FACE_BOUND('',#849,.T.);
#956=FACE_BOUND('',#850,.T.);
#957=FACE_BOUND('',#851,.T.);
#958=FACE_BOUND('',#852,.T.);
#959=FACE_BOUND('',#853,.T.);
#960=FACE_BOUND('',#854,.T.);
#961=FACE_BOUND('',#855,.T.);
#962=FACE_BOUND('',#856,.T.);
#963=FACE_BOUND('',#857,.T.);
#964=FACE_BOUND('',#858,.T.);
#965=FACE_BOUND('',#859,.T.);
#966=CYLINDRICAL_SURFACE('',#1057,0.001253998);
#967=CYLINDRICAL_SURFACE('',#1060,0.001253998);
#968=CYLINDRICAL_SURFACE('',#1063,0.001253998);
#969=CYLINDRICAL_SURFACE('',#1066,0.001253998);
#970=CYLINDRICAL_SURFACE('',#1069,0.0127);
#971=CYLINDRICAL_SURFACE('',#1073,0.0127);
#972=CYLINDRICAL_SURFACE('',#1077,0.0127);
#973=CYLINDRICAL_SURFACE('',#1081,0.0127);
#974=CYLINDRICAL_SURFACE('',#1084,0.00150000000000025);
#975=CYLINDRICAL_SURFACE('',#1087,0.00150000000000026);
#976=CYLINDRICAL_SURFACE('',#1090,0.00150000000000025);
#977=CYLINDRICAL_SURFACE('',#1094,0.00150000000000026);
#978=CYLINDRICAL_SURFACE('',#1131,0.001761998);
#979=CYLINDRICAL_SURFACE('',#1134,0.001761998);
#980=CYLINDRICAL_SURFACE('',#1137,0.001761998);
#981=CYLINDRICAL_SURFACE('',#1140,0.001761998);
#982=ADVANCED_FACE('',(#860,#861),#966,.F.);
#983=ADVANCED_FACE('',(#862,#863),#967,.F.);
#984=ADVANCED_FACE('',(#864,#865),#968,.F.);
#985=ADVANCED_FACE('',(#866,#867),#969,.F.);
#986=ADVANCED_FACE('',(#868),#970,.T.);
#987=ADVANCED_FACE('',(#869),#24,.F.);
#988=ADVANCED_FACE('',(#870),#971,.T.);
#989=ADVANCED_FACE('',(#871),#25,.F.);
#990=ADVANCED_FACE('',(#872),#972,.T.);
#991=ADVANCED_FACE('',(#873),#26,.T.);
#992=ADVANCED_FACE('',(#874),#973,.T.);
#993=ADVANCED_FACE('',(#875,#876),#974,.F.);
#994=ADVANCED_FACE('',(#877,#878),#975,.F.);
#995=ADVANCED_FACE('',(#879,#880),#976,.F.);
#996=ADVANCED_FACE('',(#881),#27,.T.);
#997=ADVANCED_FACE('',(#882,#883),#977,.F.);
#998=ADVANCED_FACE('',(#884,#885,#886,#887,#888,#889,#890,#891,#892),#28,
 .F.);
#999=ADVANCED_FACE('',(#893,#894,#895,#896,#897,#898,#899,#900,#901),#29,
 .T.);
#1000=ADVANCED_FACE('',(#902),#30,.F.);
#1001=ADVANCED_FACE('',(#903),#31,.F.);
#1002=ADVANCED_FACE('',(#904),#32,.F.);
#1003=ADVANCED_FACE('',(#905),#33,.F.);
#1004=ADVANCED_FACE('',(#906),#34,.F.);
#1005=ADVANCED_FACE('',(#907),#35,.F.);
#1006=ADVANCED_FACE('',(#908,#909),#36,.T.);
#1007=ADVANCED_FACE('',(#910),#37,.F.);
#1008=ADVANCED_FACE('',(#911),#38,.F.);
#1009=ADVANCED_FACE('',(#912),#39,.F.);
#1010=ADVANCED_FACE('',(#913),#40,.F.);
#1011=ADVANCED_FACE('',(#914),#41,.F.);
#1012=ADVANCED_FACE('',(#915),#42,.F.);
#1013=ADVANCED_FACE('',(#916,#917),#43,.T.);
#1014=ADVANCED_FACE('',(#918),#44,.F.);
#1015=ADVANCED_FACE('',(#919),#45,.F.);
#1016=ADVANCED_FACE('',(#920),#46,.F.);
#1017=ADVANCED_FACE('',(#921),#47,.F.);
#1018=ADVANCED_FACE('',(#922),#48,.F.);
#1019=ADVANCED_FACE('',(#923),#49,.F.);
#1020=ADVANCED_FACE('',(#924,#925),#50,.T.);
#1021=ADVANCED_FACE('',(#926),#51,.F.);
#1022=ADVANCED_FACE('',(#927),#52,.F.);
#1023=ADVANCED_FACE('',(#928),#53,.F.);
#1024=ADVANCED_FACE('',(#929),#54,.F.);
#1025=ADVANCED_FACE('',(#930),#55,.F.);
#1026=ADVANCED_FACE('',(#931),#56,.F.);
#1027=ADVANCED_FACE('',(#932,#933),#57,.T.);
#1028=ADVANCED_FACE('',(#934,#935),#978,.T.);
#1029=ADVANCED_FACE('',(#936,#937),#979,.T.);
#1030=ADVANCED_FACE('',(#938,#939),#980,.T.);
#1031=ADVANCED_FACE('',(#940,#941),#981,.T.);
#1032=ADVANCED_FACE('',(#942,#943),#16,.F.);
#1033=ADVANCED_FACE('',(#944,#945),#17,.F.);
#1034=ADVANCED_FACE('',(#946,#947),#18,.F.);
#1035=ADVANCED_FACE('',(#948,#949),#19,.F.);
#1036=ADVANCED_FACE('',(#950,#951),#12,.T.);
#1037=ADVANCED_FACE('',(#952,#953),#13,.T.);
#1038=ADVANCED_FACE('',(#954,#955),#14,.T.);
#1039=ADVANCED_FACE('',(#956,#957),#15,.T.);
#1040=ADVANCED_FACE('',(#958,#959),#20,.T.);
#1041=ADVANCED_FACE('',(#960,#961),#21,.T.);
#1042=ADVANCED_FACE('',(#962,#963),#22,.T.);
#1043=ADVANCED_FACE('',(#964,#965),#23,.T.);
#1044=CLOSED_SHELL('',(#982,#983,#984,#985,#986,#987,#988,#989,#990,#991,
#992,#993,#994,#995,#996,#997,#998,#999,#1000,#1001,#1002,#1003,#1004,#1005,
#1006,#1007,#1008,#1009,#1010,#1011,#1012,#1013,#1014,#1015,#1016,#1017,
#1018,#1019,#1020,#1021,#1022,#1023,#1024,#1025,#1026,#1027,#1028,#1029,
#1030,#1031,#1032,#1033,#1034,#1035,#1036,#1037,#1038,#1039,#1040,#1041,
#1042,#1043));
#1045=STYLED_ITEM('',(#1046),#1053);
#1046=PRESENTATION_STYLE_ASSIGNMENT((#1047));
#1047=SURFACE_STYLE_USAGE(.BOTH.,#1048);
#1048=SURFACE_SIDE_STYLE('',(#1049));
#1049=SURFACE_STYLE_FILL_AREA(#1050);
#1050=FILL_AREA_STYLE('',(#1051));
#1051=FILL_AREA_STYLE_COLOUR('',#1052);
#1052=COLOUR_RGB('',0.917647058823529,0.917647058823529,0.917647058823529);
#1053=MANIFOLD_SOLID_BREP('Part 52',#1044);
#1054=SHAPE_DEFINITION_REPRESENTATION(#1746,#1055);
#1055=SHAPE_REPRESENTATION('Part 52',(#1056),#1741);
#1056=AXIS2_PLACEMENT_3D('',#1453,#1159,#1160);
#1057=AXIS2_PLACEMENT_3D('',#1454,#1161,#1162);
#1058=AXIS2_PLACEMENT_3D('',#1455,#1163,#1164);
#1059=AXIS2_PLACEMENT_3D('',#1457,#1165,#1166);
#1060=AXIS2_PLACEMENT_3D('',#1459,#1167,#1168);
#1061=AXIS2_PLACEMENT_3D('',#1460,#1169,#1170);
#1062=AXIS2_PLACEMENT_3D('',#1462,#1171,#1172);
#1063=AXIS2_PLACEMENT_3D('',#1464,#1173,#1174);
#1064=AXIS2_PLACEMENT_3D('',#1465,#1175,#1176);
#1065=AXIS2_PLACEMENT_3D('',#1467,#1177,#1178);
#1066=AXIS2_PLACEMENT_3D('',#1469,#1179,#1180);
#1067=AXIS2_PLACEMENT_3D('',#1470,#1181,#1182);
#1068=AXIS2_PLACEMENT_3D('',#1472,#1183,#1184);
#1069=AXIS2_PLACEMENT_3D('',#1474,#1185,#1186);
#1070=AXIS2_PLACEMENT_3D('',#1475,#1187,#1188);
#1071=AXIS2_PLACEMENT_3D('',#1480,#1190,#1191);
#1072=AXIS2_PLACEMENT_3D('',#1483,#1193,#1194);
#1073=AXIS2_PLACEMENT_3D('',#1489,#1198,#1199);
#1074=AXIS2_PLACEMENT_3D('',#1490,#1200,#1201);
#1075=AXIS2_PLACEMENT_3D('',#1494,#1203,#1204);
#1076=AXIS2_PLACEMENT_3D('',#1495,#1205,#1206);
#1077=AXIS2_PLACEMENT_3D('',#1501,#1210,#1211);
#1078=AXIS2_PLACEMENT_3D('',#1502,#1212,#1213);
#1079=AXIS2_PLACEMENT_3D('',#1506,#1215,#1216);
#1080=AXIS2_PLACEMENT_3D('',#1507,#1217,#1218);
#1081=AXIS2_PLACEMENT_3D('',#1513,#1222,#1223);
#1082=AXIS2_PLACEMENT_3D('',#1514,#1224,#1225);
#1083=AXIS2_PLACEMENT_3D('',#1518,#1227,#1228);
#1084=AXIS2_PLACEMENT_3D('',#1519,#1229,#1230);
#1085=AXIS2_PLACEMENT_3D('',#1520,#1231,#1232);
#1086=AXIS2_PLACEMENT_3D('',#1522,#1233,#1234);
#1087=AXIS2_PLACEMENT_3D('',#1524,#1235,#1236);
#1088=AXIS2_PLACEMENT_3D('',#1525,#1237,#1238);
#1089=AXIS2_PLACEMENT_3D('',#1527,#1239,#1240);
#1090=AXIS2_PLACEMENT_3D('',#1529,#1241,#1242);
#1091=AXIS2_PLACEMENT_3D('',#1530,#1243,#1244);
#1092=AXIS2_PLACEMENT_3D('',#1532,#1245,#1246);
#1093=AXIS2_PLACEMENT_3D('',#1534,#1247,#1248);
#1094=AXIS2_PLACEMENT_3D('',#1537,#1251,#1252);
#1095=AXIS2_PLACEMENT_3D('',#1538,#1253,#1254);
#1096=AXIS2_PLACEMENT_3D('',#1540,#1255,#1256);
#1097=AXIS2_PLACEMENT_3D('',#1542,#1257,#1258);
#1098=AXIS2_PLACEMENT_3D('',#1591,#1283,#1284);
#1099=AXIS2_PLACEMENT_3D('',#1592,#1285,#1286);
#1100=AXIS2_PLACEMENT_3D('',#1594,#1287,#1288);
#1101=AXIS2_PLACEMENT_3D('',#1596,#1289,#1290);
#1102=AXIS2_PLACEMENT_3D('',#1598,#1291,#1292);
#1103=AXIS2_PLACEMENT_3D('',#1600,#1293,#1294);
#1104=AXIS2_PLACEMENT_3D('',#1606,#1298,#1299);
#1105=AXIS2_PLACEMENT_3D('',#1610,#1302,#1303);
#1106=AXIS2_PLACEMENT_3D('',#1614,#1306,#1307);
#1107=AXIS2_PLACEMENT_3D('',#1618,#1310,#1311);
#1108=AXIS2_PLACEMENT_3D('',#1622,#1314,#1315);
#1109=AXIS2_PLACEMENT_3D('',#1624,#1317,#1318);
#1110=AXIS2_PLACEMENT_3D('',#1625,#1319,#1320);
#1111=AXIS2_PLACEMENT_3D('',#1631,#1324,#1325);
#1112=AXIS2_PLACEMENT_3D('',#1635,#1328,#1329);
#1113=AXIS2_PLACEMENT_3D('',#1639,#1332,#1333);
#1114=AXIS2_PLACEMENT_3D('',#1643,#1336,#1337);
#1115=AXIS2_PLACEMENT_3D('',#1647,#1340,#1341);
#1116=AXIS2_PLACEMENT_3D('',#1649,#1343,#1344);
#1117=AXIS2_PLACEMENT_3D('',#1650,#1345,#1346);
#1118=AXIS2_PLACEMENT_3D('',#1656,#1350,#1351);
#1119=AXIS2_PLACEMENT_3D('',#1660,#1354,#1355);
#1120=AXIS2_PLACEMENT_3D('',#1664,#1358,#1359);
#1121=AXIS2_PLACEMENT_3D('',#1668,#1362,#1363);
#1122=AXIS2_PLACEMENT_3D('',#1672,#1366,#1367);
#1123=AXIS2_PLACEMENT_3D('',#1674,#1369,#1370);
#1124=AXIS2_PLACEMENT_3D('',#1675,#1371,#1372);
#1125=AXIS2_PLACEMENT_3D('',#1681,#1376,#1377);
#1126=AXIS2_PLACEMENT_3D('',#1685,#1380,#1381);
#1127=AXIS2_PLACEMENT_3D('',#1689,#1384,#1385);
#1128=AXIS2_PLACEMENT_3D('',#1693,#1388,#1389);
#1129=AXIS2_PLACEMENT_3D('',#1697,#1392,#1393);
#1130=AXIS2_PLACEMENT_3D('',#1699,#1395,#1396);
#1131=AXIS2_PLACEMENT_3D('',#1700,#1397,#1398);
#1132=AXIS2_PLACEMENT_3D('',#1701,#1399,#1400);
#1133=AXIS2_PLACEMENT_3D('',#1703,#1401,#1402);
#1134=AXIS2_PLACEMENT_3D('',#1705,#1403,#1404);
#1135=AXIS2_PLACEMENT_3D('',#1706,#1405,#1406);
#1136=AXIS2_PLACEMENT_3D('',#1708,#1407,#1408);
#1137=AXIS2_PLACEMENT_3D('',#1710,#1409,#1410);
#1138=AXIS2_PLACEMENT_3D('',#1711,#1411,#1412);
#1139=AXIS2_PLACEMENT_3D('',#1713,#1413,#1414);
#1140=AXIS2_PLACEMENT_3D('',#1715,#1415,#1416);
#1141=AXIS2_PLACEMENT_3D('',#1716,#1417,#1418);
#1142=AXIS2_PLACEMENT_3D('',#1718,#1419,#1420);
#1143=AXIS2_PLACEMENT_3D('',#1720,#1421,#1422);
#1144=AXIS2_PLACEMENT_3D('',#1721,#1423,#1424);
#1145=AXIS2_PLACEMENT_3D('',#1722,#1425,#1426);
#1146=AXIS2_PLACEMENT_3D('',#1723,#1427,#1428);
#1147=AXIS2_PLACEMENT_3D('',#1724,#1429,#1430);
#1148=AXIS2_PLACEMENT_3D('',#1725,#1431,#1432);
#1149=AXIS2_PLACEMENT_3D('',#1727,#1433,#1434);
#1150=AXIS2_PLACEMENT_3D('',#1728,#1435,#1436);
#1151=AXIS2_PLACEMENT_3D('',#1730,#1437,#1438);
#1152=AXIS2_PLACEMENT_3D('',#1731,#1439,#1440);
#1153=AXIS2_PLACEMENT_3D('',#1733,#1441,#1442);
#1154=AXIS2_PLACEMENT_3D('',#1734,#1443,#1444);
#1155=AXIS2_PLACEMENT_3D('',#1736,#1445,#1446);
#1156=AXIS2_PLACEMENT_3D('',#1737,#1447,#1448);
#1157=AXIS2_PLACEMENT_3D('',#1738,#1449,#1450);
#1158=AXIS2_PLACEMENT_3D('',#1739,#1451,#1452);
#1159=DIRECTION('',(0.,0.,1.));
#1160=DIRECTION('',(1.,0.,0.));
#1161=DIRECTION('',(0.,1.,0.));
#1162=DIRECTION('',(0.,0.,1.));
#1163=DIRECTION('',(0.,-1.,0.));
#1164=DIRECTION('',(0.,0.,-1.));
#1165=DIRECTION('',(0.,1.,0.));
#1166=DIRECTION('',(0.,0.,1.));
#1167=DIRECTION('',(0.,1.,0.));
#1168=DIRECTION('',(0.,0.,1.));
#1169=DIRECTION('',(0.,-1.,0.));
#1170=DIRECTION('',(0.,0.,-1.));
#1171=DIRECTION('',(0.,1.,0.));
#1172=DIRECTION('',(0.,0.,1.));
#1173=DIRECTION('',(0.,1.,0.));
#1174=DIRECTION('',(0.,0.,1.));
#1175=DIRECTION('',(0.,-1.,0.));
#1176=DIRECTION('',(0.,0.,-1.));
#1177=DIRECTION('',(0.,1.,0.));
#1178=DIRECTION('',(0.,0.,1.));
#1179=DIRECTION('',(0.,1.,0.));
#1180=DIRECTION('',(0.,0.,1.));
#1181=DIRECTION('',(0.,-1.,0.));
#1182=DIRECTION('',(0.,0.,-1.));
#1183=DIRECTION('',(0.,1.,0.));
#1184=DIRECTION('',(0.,0.,1.));
#1185=DIRECTION('',(0.,-1.,0.));
#1186=DIRECTION('',(0.,0.,-1.));
#1187=DIRECTION('',(0.,1.,0.));
#1188=DIRECTION('',(0.,0.,1.));
#1189=DIRECTION('',(0.,-1.,0.));
#1190=DIRECTION('',(0.,1.,0.));
#1191=DIRECTION('',(0.,0.,1.));
#1192=DIRECTION('',(0.,-1.,0.));
#1193=DIRECTION('',(0.,0.,1.));
#1194=DIRECTION('',(1.,0.,0.));
#1195=DIRECTION('',(-1.,0.,0.));
#1196=DIRECTION('',(0.,-1.,0.));
#1197=DIRECTION('',(-1.,0.,0.));
#1198=DIRECTION('',(0.,-1.,0.));
#1199=DIRECTION('',(0.,0.,-1.));
#1200=DIRECTION('',(0.,1.,0.));
#1201=DIRECTION('',(0.,0.,1.));
#1202=DIRECTION('',(0.,-1.,0.));
#1203=DIRECTION('',(0.,1.,0.));
#1204=DIRECTION('',(0.,0.,1.));
#1205=DIRECTION('',(1.,0.,0.));
#1206=DIRECTION('',(0.,0.,-1.));
#1207=DIRECTION('',(0.,0.,1.));
#1208=DIRECTION('',(0.,-1.,0.));
#1209=DIRECTION('',(0.,0.,1.));
#1210=DIRECTION('',(0.,-1.,0.));
#1211=DIRECTION('',(0.,0.,-1.));
#1212=DIRECTION('',(0.,1.,0.));
#1213=DIRECTION('',(0.,0.,1.));
#1214=DIRECTION('',(0.,-1.,0.));
#1215=DIRECTION('',(0.,1.,0.));
#1216=DIRECTION('',(0.,0.,1.));
#1217=DIRECTION('',(0.,0.,1.));
#1218=DIRECTION('',(1.,0.,0.));
#1219=DIRECTION('',(-1.,0.,0.));
#1220=DIRECTION('',(0.,-1.,0.));
#1221=DIRECTION('',(-1.,0.,0.));
#1222=DIRECTION('',(0.,-1.,0.));
#1223=DIRECTION('',(0.,0.,-1.));
#1224=DIRECTION('',(0.,1.,0.));
#1225=DIRECTION('',(0.,0.,1.));
#1226=DIRECTION('',(0.,-1.,0.));
#1227=DIRECTION('',(0.,1.,0.));
#1228=DIRECTION('',(0.,0.,1.));
#1229=DIRECTION('',(0.,-1.,0.));
#1230=DIRECTION('',(0.,0.,-1.));
#1231=DIRECTION('',(0.,1.,0.));
#1232=DIRECTION('',(0.,0.,1.));
#1233=DIRECTION('',(0.,1.,0.));
#1234=DIRECTION('',(0.,0.,1.));
#1235=DIRECTION('',(0.,-1.,0.));
#1236=DIRECTION('',(0.,0.,-1.));
#1237=DIRECTION('',(0.,1.,0.));
#1238=DIRECTION('',(0.,0.,1.));
#1239=DIRECTION('',(0.,1.,0.));
#1240=DIRECTION('',(0.,0.,1.));
#1241=DIRECTION('',(0.,-1.,0.));
#1242=DIRECTION('',(0.,0.,-1.));
#1243=DIRECTION('',(0.,1.,0.));
#1244=DIRECTION('',(0.,0.,1.));
#1245=DIRECTION('',(0.,1.,0.));
#1246=DIRECTION('',(0.,0.,1.));
#1247=DIRECTION('',(1.,0.,0.));
#1248=DIRECTION('',(0.,0.,-1.));
#1249=DIRECTION('',(0.,0.,1.));
#1250=DIRECTION('',(0.,0.,1.));
#1251=DIRECTION('',(0.,-1.,0.));
#1252=DIRECTION('',(0.,0.,-1.));
#1253=DIRECTION('',(0.,1.,0.));
#1254=DIRECTION('',(0.,0.,1.));
#1255=DIRECTION('',(0.,1.,0.));
#1256=DIRECTION('',(0.,0.,1.));
#1257=DIRECTION('',(0.,1.,0.));
#1258=DIRECTION('',(-1.,0.,0.));
#1259=DIRECTION('',(0.500000000000031,0.,-0.866025403784421));
#1260=DIRECTION('',(-0.499999999999987,0.,-0.866025403784446));
#1261=DIRECTION('',(-1.,0.,0.));
#1262=DIRECTION('',(-0.499999999999988,0.,0.866025403784446));
#1263=DIRECTION('',(0.500000000000008,0.,0.866025403784434));
#1264=DIRECTION('',(1.,0.,0.));
#1265=DIRECTION('',(0.500000000000031,0.,-0.866025403784421));
#1266=DIRECTION('',(-0.499999999999987,0.,-0.866025403784446));
#1267=DIRECTION('',(-1.,0.,0.));
#1268=DIRECTION('',(-0.499999999999988,0.,0.866025403784445));
#1269=DIRECTION('',(0.500000000000008,0.,0.866025403784434));
#1270=DIRECTION('',(1.,0.,0.));
#1271=DIRECTION('',(0.500000000000031,0.,-0.866025403784421));
#1272=DIRECTION('',(-0.499999999999987,0.,-0.866025403784446));
#1273=DIRECTION('',(-1.,0.,0.));
#1274=DIRECTION('',(-0.499999999999988,0.,0.866025403784446));
#1275=DIRECTION('',(0.500000000000008,0.,0.866025403784434));
#1276=DIRECTION('',(1.,0.,0.));
#1277=DIRECTION('',(0.500000000000031,0.,-0.866025403784421));
#1278=DIRECTION('',(-0.499999999999987,0.,-0.866025403784446));
#1279=DIRECTION('',(-1.,0.,0.));
#1280=DIRECTION('',(-0.499999999999988,0.,0.866025403784446));
#1281=DIRECTION('',(0.500000000000008,0.,0.866025403784434));
#1282=DIRECTION('',(1.,0.,0.));
#1283=DIRECTION('',(0.,1.,0.));
#1284=DIRECTION('',(-1.,0.,0.));
#1285=DIRECTION('',(0.,1.,0.));
#1286=DIRECTION('',(0.,0.,1.));
#1287=DIRECTION('',(0.,1.,0.));
#1288=DIRECTION('',(0.,0.,1.));
#1289=DIRECTION('',(0.,1.,0.));
#1290=DIRECTION('',(0.,0.,1.));
#1291=DIRECTION('',(0.,1.,0.));
#1292=DIRECTION('',(0.,0.,1.));
#1293=DIRECTION('',(-0.866025403784446,0.,0.499999999999987));
#1294=DIRECTION('',(0.499999999999987,0.,0.866025403784446));
#1295=DIRECTION('',(0.,-1.,0.));
#1296=DIRECTION('',(-0.499999999999987,0.,-0.866025403784446));
#1297=DIRECTION('',(0.,-1.,0.));
#1298=DIRECTION('',(-0.866025403784421,0.,-0.500000000000031));
#1299=DIRECTION('',(-0.500000000000031,0.,0.866025403784421));
#1300=DIRECTION('',(0.,-1.,0.));
#1301=DIRECTION('',(0.500000000000031,0.,-0.866025403784421));
#1302=DIRECTION('',(0.,0.,-1.));
#1303=DIRECTION('',(-1.,0.,0.));
#1304=DIRECTION('',(0.,-1.,0.));
#1305=DIRECTION('',(1.,0.,0.));
#1306=DIRECTION('',(0.866025403784434,0.,-0.500000000000008));
#1307=DIRECTION('',(-0.500000000000008,0.,-0.866025403784434));
#1308=DIRECTION('',(0.,-1.,0.));
#1309=DIRECTION('',(0.500000000000008,0.,0.866025403784434));
#1310=DIRECTION('',(0.866025403784446,0.,0.499999999999988));
#1311=DIRECTION('',(0.499999999999988,0.,-0.866025403784446));
#1312=DIRECTION('',(0.,-1.,0.));
#1313=DIRECTION('',(-0.499999999999988,0.,0.866025403784446));
#1314=DIRECTION('',(0.,0.,1.));
#1315=DIRECTION('',(1.,0.,0.));
#1316=DIRECTION('',(-1.,0.,0.));
#1317=DIRECTION('',(0.,-1.,0.));
#1318=DIRECTION('',(1.,0.,0.));
#1319=DIRECTION('',(-0.866025403784446,0.,0.499999999999987));
#1320=DIRECTION('',(0.499999999999987,0.,0.866025403784446));
#1321=DIRECTION('',(0.,-1.,0.));
#1322=DIRECTION('',(-0.499999999999987,0.,-0.866025403784446));
#1323=DIRECTION('',(0.,-1.,0.));
#1324=DIRECTION('',(-0.866025403784421,0.,-0.500000000000031));
#1325=DIRECTION('',(-0.500000000000031,0.,0.866025403784421));
#1326=DIRECTION('',(0.,-1.,0.));
#1327=DIRECTION('',(0.500000000000031,0.,-0.866025403784421));
#1328=DIRECTION('',(0.,0.,-1.));
#1329=DIRECTION('',(-1.,0.,0.));
#1330=DIRECTION('',(0.,-1.,0.));
#1331=DIRECTION('',(1.,0.,0.));
#1332=DIRECTION('',(0.866025403784434,0.,-0.500000000000008));
#1333=DIRECTION('',(-0.500000000000008,0.,-0.866025403784434));
#1334=DIRECTION('',(0.,-1.,0.));
#1335=DIRECTION('',(0.500000000000008,0.,0.866025403784434));
#1336=DIRECTION('',(0.866025403784446,0.,0.499999999999988));
#1337=DIRECTION('',(0.499999999999988,0.,-0.866025403784446));
#1338=DIRECTION('',(0.,-1.,0.));
#1339=DIRECTION('',(-0.499999999999988,0.,0.866025403784446));
#1340=DIRECTION('',(0.,0.,1.));
#1341=DIRECTION('',(1.,0.,0.));
#1342=DIRECTION('',(-1.,0.,0.));
#1343=DIRECTION('',(0.,-1.,0.));
#1344=DIRECTION('',(1.,0.,0.));
#1345=DIRECTION('',(-0.866025403784446,0.,0.499999999999987));
#1346=DIRECTION('',(0.499999999999987,0.,0.866025403784446));
#1347=DIRECTION('',(0.,-1.,0.));
#1348=DIRECTION('',(-0.499999999999987,0.,-0.866025403784446));
#1349=DIRECTION('',(0.,-1.,0.));
#1350=DIRECTION('',(-0.866025403784421,0.,-0.500000000000031));
#1351=DIRECTION('',(-0.500000000000031,0.,0.866025403784421));
#1352=DIRECTION('',(0.,-1.,0.));
#1353=DIRECTION('',(0.500000000000031,0.,-0.866025403784421));
#1354=DIRECTION('',(0.,0.,-1.));
#1355=DIRECTION('',(-1.,0.,0.));
#1356=DIRECTION('',(0.,-1.,0.));
#1357=DIRECTION('',(1.,0.,0.));
#1358=DIRECTION('',(0.866025403784434,0.,-0.500000000000008));
#1359=DIRECTION('',(-0.500000000000008,0.,-0.866025403784434));
#1360=DIRECTION('',(0.,-1.,0.));
#1361=DIRECTION('',(0.500000000000008,0.,0.866025403784434));
#1362=DIRECTION('',(0.866025403784445,0.,0.499999999999988));
#1363=DIRECTION('',(0.499999999999988,0.,-0.866025403784445));
#1364=DIRECTION('',(0.,-1.,0.));
#1365=DIRECTION('',(-0.499999999999988,0.,0.866025403784445));
#1366=DIRECTION('',(0.,0.,1.));
#1367=DIRECTION('',(1.,0.,0.));
#1368=DIRECTION('',(-1.,0.,0.));
#1369=DIRECTION('',(0.,-1.,0.));
#1370=DIRECTION('',(1.,0.,0.));
#1371=DIRECTION('',(-0.866025403784446,0.,0.499999999999987));
#1372=DIRECTION('',(0.499999999999987,0.,0.866025403784446));
#1373=DIRECTION('',(0.,-1.,0.));
#1374=DIRECTION('',(-0.499999999999987,0.,-0.866025403784446));
#1375=DIRECTION('',(0.,-1.,0.));
#1376=DIRECTION('',(-0.866025403784421,0.,-0.500000000000031));
#1377=DIRECTION('',(-0.500000000000031,0.,0.866025403784421));
#1378=DIRECTION('',(0.,-1.,0.));
#1379=DIRECTION('',(0.500000000000031,0.,-0.866025403784421));
#1380=DIRECTION('',(0.,0.,-1.));
#1381=DIRECTION('',(-1.,0.,0.));
#1382=DIRECTION('',(0.,-1.,0.));
#1383=DIRECTION('',(1.,0.,0.));
#1384=DIRECTION('',(0.866025403784434,0.,-0.500000000000008));
#1385=DIRECTION('',(-0.500000000000008,0.,-0.866025403784434));
#1386=DIRECTION('',(0.,-1.,0.));
#1387=DIRECTION('',(0.500000000000008,0.,0.866025403784434));
#1388=DIRECTION('',(0.866025403784446,0.,0.499999999999988));
#1389=DIRECTION('',(0.499999999999988,0.,-0.866025403784446));
#1390=DIRECTION('',(0.,-1.,0.));
#1391=DIRECTION('',(-0.499999999999988,0.,0.866025403784446));
#1392=DIRECTION('',(0.,0.,1.));
#1393=DIRECTION('',(1.,0.,0.));
#1394=DIRECTION('',(-1.,0.,0.));
#1395=DIRECTION('',(0.,-1.,0.));
#1396=DIRECTION('',(1.,0.,0.));
#1397=DIRECTION('',(0.,-1.,0.));
#1398=DIRECTION('',(0.,0.,-1.));
#1399=DIRECTION('',(0.,1.,0.));
#1400=DIRECTION('',(0.,0.,1.));
#1401=DIRECTION('',(0.,1.,0.));
#1402=DIRECTION('',(0.,0.,1.));
#1403=DIRECTION('',(0.,-1.,0.));
#1404=DIRECTION('',(0.,0.,-1.));
#1405=DIRECTION('',(0.,1.,0.));
#1406=DIRECTION('',(0.,0.,1.));
#1407=DIRECTION('',(0.,1.,0.));
#1408=DIRECTION('',(0.,0.,1.));
#1409=DIRECTION('',(0.,-1.,0.));
#1410=DIRECTION('',(0.,0.,-1.));
#1411=DIRECTION('',(0.,1.,0.));
#1412=DIRECTION('',(0.,0.,1.));
#1413=DIRECTION('',(0.,1.,0.));
#1414=DIRECTION('',(0.,0.,1.));
#1415=DIRECTION('',(0.,-1.,0.));
#1416=DIRECTION('',(0.,0.,-1.));
#1417=DIRECTION('',(0.,1.,0.));
#1418=DIRECTION('',(0.,0.,1.));
#1419=DIRECTION('',(0.,1.,0.));
#1420=DIRECTION('',(0.,0.,1.));
#1421=DIRECTION('',(0.,1.,0.));
#1422=DIRECTION('',(0.,0.,1.));
#1423=DIRECTION('',(0.,1.,0.));
#1424=DIRECTION('',(0.,0.,1.));
#1425=DIRECTION('',(0.,1.,0.));
#1426=DIRECTION('',(0.,0.,1.));
#1427=DIRECTION('',(0.,1.,0.));
#1428=DIRECTION('',(0.,0.,1.));
#1429=DIRECTION('',(0.,1.,0.));
#1430=DIRECTION('',(0.,0.,1.));
#1431=DIRECTION('',(0.,-1.,0.));
#1432=DIRECTION('',(0.,0.,-1.));
#1433=DIRECTION('',(0.,1.,0.));
#1434=DIRECTION('',(0.,0.,1.));
#1435=DIRECTION('',(0.,-1.,0.));
#1436=DIRECTION('',(0.,0.,-1.));
#1437=DIRECTION('',(0.,1.,0.));
#1438=DIRECTION('',(0.,0.,1.));
#1439=DIRECTION('',(0.,-1.,0.));
#1440=DIRECTION('',(0.,0.,-1.));
#1441=DIRECTION('',(0.,1.,0.));
#1442=DIRECTION('',(0.,0.,1.));
#1443=DIRECTION('',(0.,-1.,0.));
#1444=DIRECTION('',(0.,0.,-1.));
#1445=DIRECTION('',(0.,-1.,0.));
#1446=DIRECTION('',(0.,0.,-1.));
#1447=DIRECTION('',(0.,-1.,0.));
#1448=DIRECTION('',(0.,0.,-1.));
#1449=DIRECTION('',(0.,-1.,0.));
#1450=DIRECTION('',(0.,0.,-1.));
#1451=DIRECTION('',(0.,-1.,0.));
#1452=DIRECTION('',(0.,0.,-1.));
#1453=CARTESIAN_POINT('',(0.,0.,0.));
#1454=CARTESIAN_POINT('',(0.0105,-0.021495,0.0025));
#1455=CARTESIAN_POINT('',(0.0105,0.00913376845707259,0.0025));
#1456=CARTESIAN_POINT('',(0.0105,0.00913376845707259,0.001246002));
#1457=CARTESIAN_POINT('',(0.0105,0.00454,0.0025));
#1458=CARTESIAN_POINT('',(0.0105,0.00454,0.003753998));
#1459=CARTESIAN_POINT('',(0.0105,-0.021495,-0.01));
#1460=CARTESIAN_POINT('',(0.0105,0.00913376845707258,-0.01));
#1461=CARTESIAN_POINT('',(0.0105,0.00913376845707258,-0.011253998));
#1462=CARTESIAN_POINT('',(0.0105,0.00454,-0.01));
#1463=CARTESIAN_POINT('',(0.0105,0.00454,-0.008746002));
#1464=CARTESIAN_POINT('',(-0.0105,-0.021495,-0.01));
#1465=CARTESIAN_POINT('',(-0.0105,0.00913376845707258,-0.01));
#1466=CARTESIAN_POINT('',(-0.0105,0.00913376845707258,-0.011253998));
#1467=CARTESIAN_POINT('',(-0.0105,0.00454,-0.01));
#1468=CARTESIAN_POINT('',(-0.0105,0.00454,-0.008746002));
#1469=CARTESIAN_POINT('',(-0.0105,-0.021495,0.0025));
#1470=CARTESIAN_POINT('',(-0.0105,0.00913376845707259,0.0025));
#1471=CARTESIAN_POINT('',(-0.0105,0.00913376845707259,0.001246002));
#1472=CARTESIAN_POINT('',(-0.0105,0.00454,0.0025));
#1473=CARTESIAN_POINT('',(-0.0105,0.00454,0.003753998));
#1474=CARTESIAN_POINT('',(0.0073,0.003905,-0.0078));
#1475=CARTESIAN_POINT('',(0.0073,0.002,-0.0078));
#1476=CARTESIAN_POINT('',(0.02,0.002,-0.0078));
#1477=CARTESIAN_POINT('',(0.0073,0.002,-0.0205));
#1478=CARTESIAN_POINT('',(0.0073,0.003905,-0.0205));
#1479=CARTESIAN_POINT('',(0.0073,0.00581,-0.0205));
#1480=CARTESIAN_POINT('',(0.0073,0.00581,-0.0078));
#1481=CARTESIAN_POINT('',(0.02,0.00581,-0.0078));
#1482=CARTESIAN_POINT('',(0.02,0.003905,-0.0078));
#1483=CARTESIAN_POINT('',(0.,0.003905,-0.0205));
#1484=CARTESIAN_POINT('',(0.,0.002,-0.0205));
#1485=CARTESIAN_POINT('',(-0.0073,0.002,-0.0205));
#1486=CARTESIAN_POINT('',(-0.0073,0.003905,-0.0205));
#1487=CARTESIAN_POINT('',(-0.0073,0.00581,-0.0205));
#1488=CARTESIAN_POINT('',(0.,0.00581,-0.0205));
#1489=CARTESIAN_POINT('',(-0.0073,0.003905,-0.0078));
#1490=CARTESIAN_POINT('',(-0.0073,0.002,-0.0078));
#1491=CARTESIAN_POINT('',(-0.02,0.002,-0.0078));
#1492=CARTESIAN_POINT('',(-0.02,0.003905,-0.0078));
#1493=CARTESIAN_POINT('',(-0.02,0.00581,-0.0078));
#1494=CARTESIAN_POINT('',(-0.0073,0.00581,-0.0078));
#1495=CARTESIAN_POINT('',(-0.02,0.003905,2.60208521396521E-18));
#1496=CARTESIAN_POINT('',(-0.02,0.002,2.60208521396521E-18));
#1497=CARTESIAN_POINT('',(-0.02,0.002,0.0078));
#1498=CARTESIAN_POINT('',(-0.02,0.003905,0.0078));
#1499=CARTESIAN_POINT('',(-0.02,0.00581,0.0078));
#1500=CARTESIAN_POINT('',(-0.02,0.00581,2.60208521396521E-18));
#1501=CARTESIAN_POINT('',(-0.0073,0.003905,0.0078));
#1502=CARTESIAN_POINT('',(-0.0073,0.002,0.0078));
#1503=CARTESIAN_POINT('',(-0.0073,0.002,0.0205));
#1504=CARTESIAN_POINT('',(-0.0073,0.003905,0.0205));
#1505=CARTESIAN_POINT('',(-0.0073,0.00581,0.0205));
#1506=CARTESIAN_POINT('',(-0.0073,0.00581,0.0078));
#1507=CARTESIAN_POINT('',(0.,0.003905,0.0205));
#1508=CARTESIAN_POINT('',(0.,0.002,0.0205));
#1509=CARTESIAN_POINT('',(0.0073,0.002,0.0205));
#1510=CARTESIAN_POINT('',(0.0073,0.003905,0.0205));
#1511=CARTESIAN_POINT('',(0.0073,0.00581,0.0205));
#1512=CARTESIAN_POINT('',(0.,0.00581,0.0205));
#1513=CARTESIAN_POINT('',(0.0073,0.003905,0.0078));
#1514=CARTESIAN_POINT('',(0.0073,0.002,0.0078));
#1515=CARTESIAN_POINT('',(0.02,0.002,0.0078));
#1516=CARTESIAN_POINT('',(0.02,0.003905,0.0078));
#1517=CARTESIAN_POINT('',(0.02,0.00581,0.0078));
#1518=CARTESIAN_POINT('',(0.0073,0.00581,0.0078));
#1519=CARTESIAN_POINT('',(0.01483883476483,0.003905,0.01483883476483));
#1520=CARTESIAN_POINT('',(0.01483883476483,0.002,0.01483883476483));
#1521=CARTESIAN_POINT('',(0.01483883476483,0.002,0.0163388347648303));
#1522=CARTESIAN_POINT('',(0.01483883476483,0.00581,0.01483883476483));
#1523=CARTESIAN_POINT('',(0.01483883476483,0.00581,0.0163388347648303));
#1524=CARTESIAN_POINT('',(0.01483883476483,0.003905,-0.01483883476483));
#1525=CARTESIAN_POINT('',(0.01483883476483,0.002,-0.01483883476483));
#1526=CARTESIAN_POINT('',(0.01483883476483,0.002,-0.0133388347648297));
#1527=CARTESIAN_POINT('',(0.01483883476483,0.00581,-0.01483883476483));
#1528=CARTESIAN_POINT('',(0.01483883476483,0.00581,-0.0133388347648297));
#1529=CARTESIAN_POINT('',(-0.01483883476483,0.003905,-0.01483883476483));
#1530=CARTESIAN_POINT('',(-0.01483883476483,0.002,-0.01483883476483));
#1531=CARTESIAN_POINT('',(-0.01483883476483,0.002,-0.0133388347648298));
#1532=CARTESIAN_POINT('',(-0.01483883476483,0.00581,-0.01483883476483));
#1533=CARTESIAN_POINT('',(-0.01483883476483,0.00581,-0.0133388347648298));
#1534=CARTESIAN_POINT('',(0.02,0.003905,2.60208521396521E-18));
#1535=CARTESIAN_POINT('',(0.02,0.002,2.60208521396521E-18));
#1536=CARTESIAN_POINT('',(0.02,0.00581,2.60208521396521E-18));
#1537=CARTESIAN_POINT('',(-0.01483883476483,0.003905,0.01483883476483));
#1538=CARTESIAN_POINT('',(-0.01483883476483,0.002,0.01483883476483));
#1539=CARTESIAN_POINT('',(-0.01483883476483,0.002,0.0163388347648303));
#1540=CARTESIAN_POINT('',(-0.01483883476483,0.00581,0.01483883476483));
#1541=CARTESIAN_POINT('',(-0.01483883476483,0.00581,0.0163388347648303));
#1542=CARTESIAN_POINT('',(0.,0.002,0.));
#1543=CARTESIAN_POINT('',(-0.0121770581944285,0.002,-0.01096825));
#1544=CARTESIAN_POINT('',(-0.0127360775925714,0.002,-0.01));
#1545=CARTESIAN_POINT('',(-0.0116180387962856,0.002,-0.0119365));
#1546=CARTESIAN_POINT('',(-0.0121770581944286,0.002,-0.00903175));
#1547=CARTESIAN_POINT('',(-0.0116180387962857,0.002,-0.0080635));
#1548=CARTESIAN_POINT('',(-0.0105,0.002,-0.0080635));
#1549=CARTESIAN_POINT('',(-0.0093819612037143,0.002,-0.0080635));
#1550=CARTESIAN_POINT('',(-0.00882294180557143,0.002,-0.00903175));
#1551=CARTESIAN_POINT('',(-0.00826392240742856,0.002,-0.01));
#1552=CARTESIAN_POINT('',(-0.00882294180557144,0.002,-0.01096825));
#1553=CARTESIAN_POINT('',(-0.00938196120371431,0.002,-0.0119365));
#1554=CARTESIAN_POINT('',(-0.0105,0.002,-0.0119365));
#1555=CARTESIAN_POINT('',(0.00882294180557142,0.002,-0.01096825));
#1556=CARTESIAN_POINT('',(0.00826392240742851,0.002,-0.01));
#1557=CARTESIAN_POINT('',(0.00938196120371432,0.002,-0.0119365));
#1558=CARTESIAN_POINT('',(0.00882294180557138,0.002,-0.00903175));
#1559=CARTESIAN_POINT('',(0.00938196120371424,0.002,-0.0080635));
#1560=CARTESIAN_POINT('',(0.0105,0.002,-0.0080635));
#1561=CARTESIAN_POINT('',(0.0116180387962857,0.002,-0.0080635));
#1562=CARTESIAN_POINT('',(0.0121770581944285,0.002,-0.00903175));
#1563=CARTESIAN_POINT('',(0.0127360775925714,0.002,-0.01));
#1564=CARTESIAN_POINT('',(0.0121770581944285,0.002,-0.01096825));
#1565=CARTESIAN_POINT('',(0.0116180387962856,0.002,-0.0119365));
#1566=CARTESIAN_POINT('',(0.0105,0.002,-0.0119365));
#1567=CARTESIAN_POINT('',(0.00882294180557147,0.002,0.00153174999999995));
#1568=CARTESIAN_POINT('',(0.00826392240742857,0.002,0.00249999999999995));
#1569=CARTESIAN_POINT('',(0.00938196120371437,0.002,0.000563499999999952));
#1570=CARTESIAN_POINT('',(0.00882294180557143,0.002,0.00346825));
#1571=CARTESIAN_POINT('',(0.0093819612037143,0.002,0.00443650000000005));
#1572=CARTESIAN_POINT('',(0.0105,0.002,0.00443650000000005));
#1573=CARTESIAN_POINT('',(0.0116180387962857,0.002,0.00443650000000005));
#1574=CARTESIAN_POINT('',(0.0121770581944286,0.002,0.00346825));
#1575=CARTESIAN_POINT('',(0.0127360775925714,0.002,0.00249999999999995));
#1576=CARTESIAN_POINT('',(0.0121770581944286,0.002,0.00153174999999995));
#1577=CARTESIAN_POINT('',(0.0116180387962857,0.002,0.000563499999999952));
#1578=CARTESIAN_POINT('',(0.0105,0.002,0.000563499999999952));
#1579=CARTESIAN_POINT('',(-0.0121770581944286,0.002,0.00153174999999997));
#1580=CARTESIAN_POINT('',(-0.0127360775925715,0.002,0.00249999999999997));
#1581=CARTESIAN_POINT('',(-0.0116180387962857,0.002,0.000563499999999965));
#1582=CARTESIAN_POINT('',(-0.0121770581944286,0.002,0.00346825));
#1583=CARTESIAN_POINT('',(-0.0116180387962858,0.002,0.00443650000000007));
#1584=CARTESIAN_POINT('',(-0.0105,0.002,0.00443650000000007));
#1585=CARTESIAN_POINT('',(-0.00938196120371435,0.002,0.00443650000000007));
#1586=CARTESIAN_POINT('',(-0.00882294180557149,0.002,0.00346825));
#1587=CARTESIAN_POINT('',(-0.00826392240742862,0.002,0.00249999999999996));
#1588=CARTESIAN_POINT('',(-0.0088229418055715,0.002,0.00153174999999996));
#1589=CARTESIAN_POINT('',(-0.00938196120371436,0.002,0.000563499999999965));
#1590=CARTESIAN_POINT('',(-0.0105,0.002,0.000563499999999965));
#1591=CARTESIAN_POINT('',(0.,0.00581,0.));
#1592=CARTESIAN_POINT('',(-0.0105,0.00581,-0.01));
#1593=CARTESIAN_POINT('',(-0.0105,0.00581,-0.00572383999614466));
#1594=CARTESIAN_POINT('',(-0.0105,0.00581,0.0025));
#1595=CARTESIAN_POINT('',(-0.0105,0.00581,0.00677616000385534));
#1596=CARTESIAN_POINT('',(0.0105,0.00581,0.0025));
#1597=CARTESIAN_POINT('',(0.0105,0.00581,0.00677616000385534));
#1598=CARTESIAN_POINT('',(0.0105,0.00581,-0.01));
#1599=CARTESIAN_POINT('',(0.0105,0.00581,-0.00572383999614466));
#1600=CARTESIAN_POINT('',(-0.0121770581944286,0.00454,0.00346825));
#1601=CARTESIAN_POINT('',(-0.0127360775925715,0.00454,0.00249999999999997));
#1602=CARTESIAN_POINT('',(-0.0127360775925715,0.00454,0.00249999999999997));
#1603=CARTESIAN_POINT('',(-0.0121770581944286,0.00454,0.00346825));
#1604=CARTESIAN_POINT('',(-0.0116180387962858,0.00454,0.00443650000000007));
#1605=CARTESIAN_POINT('',(-0.0116180387962858,0.00454,0.00443650000000007));
#1606=CARTESIAN_POINT('',(-0.0121770581944286,0.00454,0.00153174999999997));
#1607=CARTESIAN_POINT('',(-0.0116180387962857,0.00454,0.000563499999999965));
#1608=CARTESIAN_POINT('',(-0.0116180387962857,0.00454,0.000563499999999965));
#1609=CARTESIAN_POINT('',(-0.0121770581944286,0.00454,0.00153174999999997));
#1610=CARTESIAN_POINT('',(-0.0105,0.00454,0.000563499999999965));
#1611=CARTESIAN_POINT('',(-0.00938196120371436,0.00454,0.000563499999999965));
#1612=CARTESIAN_POINT('',(-0.00938196120371436,0.00454,0.000563499999999965));
#1613=CARTESIAN_POINT('',(-0.0105,0.00454,0.000563499999999965));
#1614=CARTESIAN_POINT('',(-0.0088229418055715,0.00454,0.00153174999999996));
#1615=CARTESIAN_POINT('',(-0.00826392240742862,0.00454,0.00249999999999996));
#1616=CARTESIAN_POINT('',(-0.00826392240742862,0.00454,0.00249999999999996));
#1617=CARTESIAN_POINT('',(-0.0088229418055715,0.00454,0.00153174999999996));
#1618=CARTESIAN_POINT('',(-0.00882294180557149,0.00454,0.00346825));
#1619=CARTESIAN_POINT('',(-0.00938196120371435,0.00454,0.00443650000000007));
#1620=CARTESIAN_POINT('',(-0.00938196120371435,0.00454,0.00443650000000007));
#1621=CARTESIAN_POINT('',(-0.00882294180557149,0.00454,0.00346825));
#1622=CARTESIAN_POINT('',(-0.0105,0.00454,0.00443650000000007));
#1623=CARTESIAN_POINT('',(-0.0105,0.00454,0.00443650000000007));
#1624=CARTESIAN_POINT('',(0.,0.00454,-3.46944695195361E-18));
#1625=CARTESIAN_POINT('',(-0.0121770581944286,0.00454,-0.00903175));
#1626=CARTESIAN_POINT('',(-0.0127360775925714,0.00454,-0.01));
#1627=CARTESIAN_POINT('',(-0.0127360775925714,0.00454,-0.01));
#1628=CARTESIAN_POINT('',(-0.0121770581944286,0.00454,-0.00903175));
#1629=CARTESIAN_POINT('',(-0.0116180387962857,0.00454,-0.0080635));
#1630=CARTESIAN_POINT('',(-0.0116180387962857,0.00454,-0.0080635));
#1631=CARTESIAN_POINT('',(-0.0121770581944285,0.00454,-0.01096825));
#1632=CARTESIAN_POINT('',(-0.0116180387962856,0.00454,-0.0119365));
#1633=CARTESIAN_POINT('',(-0.0116180387962856,0.00454,-0.0119365));
#1634=CARTESIAN_POINT('',(-0.0121770581944285,0.00454,-0.01096825));
#1635=CARTESIAN_POINT('',(-0.0105,0.00454,-0.0119365));
#1636=CARTESIAN_POINT('',(-0.00938196120371431,0.00454,-0.0119365));
#1637=CARTESIAN_POINT('',(-0.00938196120371431,0.00454,-0.0119365));
#1638=CARTESIAN_POINT('',(-0.0105,0.00454,-0.0119365));
#1639=CARTESIAN_POINT('',(-0.00882294180557144,0.00454,-0.01096825));
#1640=CARTESIAN_POINT('',(-0.00826392240742856,0.00454,-0.01));
#1641=CARTESIAN_POINT('',(-0.00826392240742856,0.00454,-0.01));
#1642=CARTESIAN_POINT('',(-0.00882294180557144,0.00454,-0.01096825));
#1643=CARTESIAN_POINT('',(-0.00882294180557143,0.00454,-0.00903175));
#1644=CARTESIAN_POINT('',(-0.0093819612037143,0.00454,-0.0080635));
#1645=CARTESIAN_POINT('',(-0.0093819612037143,0.00454,-0.0080635));
#1646=CARTESIAN_POINT('',(-0.00882294180557143,0.00454,-0.00903175));
#1647=CARTESIAN_POINT('',(-0.0105,0.00454,-0.0080635));
#1648=CARTESIAN_POINT('',(-0.0105,0.00454,-0.0080635));
#1649=CARTESIAN_POINT('',(0.,0.00454,-3.46944695195361E-18));
#1650=CARTESIAN_POINT('',(0.00882294180557138,0.00454,-0.00903175));
#1651=CARTESIAN_POINT('',(0.00826392240742851,0.00454,-0.01));
#1652=CARTESIAN_POINT('',(0.00826392240742851,0.00454,-0.01));
#1653=CARTESIAN_POINT('',(0.00882294180557138,0.00454,-0.00903175));
#1654=CARTESIAN_POINT('',(0.00938196120371424,0.00454,-0.0080635));
#1655=CARTESIAN_POINT('',(0.00938196120371424,0.00454,-0.0080635));
#1656=CARTESIAN_POINT('',(0.00882294180557142,0.00454,-0.01096825));
#1657=CARTESIAN_POINT('',(0.00938196120371432,0.00454,-0.0119365));
#1658=CARTESIAN_POINT('',(0.00938196120371432,0.00454,-0.0119365));
#1659=CARTESIAN_POINT('',(0.00882294180557142,0.00454,-0.01096825));
#1660=CARTESIAN_POINT('',(0.0105,0.00454,-0.0119365));
#1661=CARTESIAN_POINT('',(0.0116180387962856,0.00454,-0.0119365));
#1662=CARTESIAN_POINT('',(0.0116180387962856,0.00454,-0.0119365));
#1663=CARTESIAN_POINT('',(0.0105,0.00454,-0.0119365));
#1664=CARTESIAN_POINT('',(0.0121770581944285,0.00454,-0.01096825));
#1665=CARTESIAN_POINT('',(0.0127360775925714,0.00454,-0.01));
#1666=CARTESIAN_POINT('',(0.0127360775925714,0.00454,-0.01));
#1667=CARTESIAN_POINT('',(0.0121770581944285,0.00454,-0.01096825));
#1668=CARTESIAN_POINT('',(0.0121770581944285,0.00454,-0.00903175));
#1669=CARTESIAN_POINT('',(0.0116180387962857,0.00454,-0.0080635));
#1670=CARTESIAN_POINT('',(0.0116180387962857,0.00454,-0.0080635));
#1671=CARTESIAN_POINT('',(0.0121770581944285,0.00454,-0.00903175));
#1672=CARTESIAN_POINT('',(0.0105,0.00454,-0.0080635));
#1673=CARTESIAN_POINT('',(0.0105,0.00454,-0.0080635));
#1674=CARTESIAN_POINT('',(0.,0.00454,-3.46944695195361E-18));
#1675=CARTESIAN_POINT('',(0.00882294180557143,0.00454,0.00346825));
#1676=CARTESIAN_POINT('',(0.00826392240742857,0.00454,0.00249999999999995));
#1677=CARTESIAN_POINT('',(0.00826392240742857,0.00454,0.00249999999999995));
#1678=CARTESIAN_POINT('',(0.00882294180557143,0.00454,0.00346825));
#1679=CARTESIAN_POINT('',(0.0093819612037143,0.00454,0.00443650000000005));
#1680=CARTESIAN_POINT('',(0.0093819612037143,0.00454,0.00443650000000005));
#1681=CARTESIAN_POINT('',(0.00882294180557147,0.00454,0.00153174999999995));
#1682=CARTESIAN_POINT('',(0.00938196120371437,0.00454,0.000563499999999952));
#1683=CARTESIAN_POINT('',(0.00938196120371437,0.00454,0.000563499999999952));
#1684=CARTESIAN_POINT('',(0.00882294180557147,0.00454,0.00153174999999995));
#1685=CARTESIAN_POINT('',(0.0105,0.00454,0.000563499999999952));
#1686=CARTESIAN_POINT('',(0.0116180387962857,0.00454,0.000563499999999952));
#1687=CARTESIAN_POINT('',(0.0116180387962857,0.00454,0.000563499999999952));
#1688=CARTESIAN_POINT('',(0.0105,0.00454,0.000563499999999952));
#1689=CARTESIAN_POINT('',(0.0121770581944286,0.00454,0.00153174999999995));
#1690=CARTESIAN_POINT('',(0.0127360775925714,0.00454,0.00249999999999995));
#1691=CARTESIAN_POINT('',(0.0127360775925714,0.00454,0.00249999999999995));
#1692=CARTESIAN_POINT('',(0.0121770581944286,0.00454,0.00153174999999995));
#1693=CARTESIAN_POINT('',(0.0121770581944286,0.00454,0.00346825));
#1694=CARTESIAN_POINT('',(0.0116180387962857,0.00454,0.00443650000000005));
#1695=CARTESIAN_POINT('',(0.0116180387962857,0.00454,0.00443650000000005));
#1696=CARTESIAN_POINT('',(0.0121770581944286,0.00454,0.00346825));
#1697=CARTESIAN_POINT('',(0.0105,0.00454,0.00443650000000005));
#1698=CARTESIAN_POINT('',(0.0105,0.00454,0.00443650000000005));
#1699=CARTESIAN_POINT('',(0.,0.00454,-3.46944695195361E-18));
#1700=CARTESIAN_POINT('',(0.0105,0.009874,0.0025));
#1701=CARTESIAN_POINT('',(0.0105,0.008604,0.0025));
#1702=CARTESIAN_POINT('',(0.0105,0.008604,0.004261998));
#1703=CARTESIAN_POINT('',(0.0105,0.00832416200385534,0.0025));
#1704=CARTESIAN_POINT('',(0.0105,0.00832416200385534,0.004261998));
#1705=CARTESIAN_POINT('',(0.0105,0.009874,-0.01));
#1706=CARTESIAN_POINT('',(0.0105,0.008604,-0.01));
#1707=CARTESIAN_POINT('',(0.0105,0.008604,-0.008238002));
#1708=CARTESIAN_POINT('',(0.0105,0.00832416200385534,-0.01));
#1709=CARTESIAN_POINT('',(0.0105,0.00832416200385534,-0.008238002));
#1710=CARTESIAN_POINT('',(-0.0105,0.009874,-0.01));
#1711=CARTESIAN_POINT('',(-0.0105,0.008604,-0.01));
#1712=CARTESIAN_POINT('',(-0.0105,0.008604,-0.008238002));
#1713=CARTESIAN_POINT('',(-0.0105,0.00832416200385534,-0.01));
#1714=CARTESIAN_POINT('',(-0.0105,0.00832416200385534,-0.008238002));
#1715=CARTESIAN_POINT('',(-0.0105,0.009874,0.0025));
#1716=CARTESIAN_POINT('',(-0.0105,0.008604,0.0025));
#1717=CARTESIAN_POINT('',(-0.0105,0.008604,0.004261998));
#1718=CARTESIAN_POINT('',(-0.0105,0.00832416200385534,0.0025));
#1719=CARTESIAN_POINT('',(-0.0105,0.00832416200385534,0.004261998));
#1720=CARTESIAN_POINT('',(-0.0105,0.00832416200385534,-0.01));
#1721=CARTESIAN_POINT('',(-0.0105,0.00832416200385534,0.0025));
#1722=CARTESIAN_POINT('',(0.0105,0.00832416200385534,0.0025));
#1723=CARTESIAN_POINT('',(0.0105,0.00832416200385534,-0.01));
#1724=CARTESIAN_POINT('',(-0.0105,0.008604,-0.01));
#1725=CARTESIAN_POINT('',(-0.0105,0.00922406408605171,-0.01));
#1726=CARTESIAN_POINT('',(-0.0105,0.00922406408605171,-0.0116003393414598));
#1727=CARTESIAN_POINT('',(-0.0105,0.008604,0.0025));
#1728=CARTESIAN_POINT('',(-0.0105,0.00922406408605171,0.0025));
#1729=CARTESIAN_POINT('',(-0.0105,0.00922406408605171,0.000899660658540225));
#1730=CARTESIAN_POINT('',(0.0105,0.008604,0.0025));
#1731=CARTESIAN_POINT('',(0.0105,0.00922406408605171,0.0025));
#1732=CARTESIAN_POINT('',(0.0105,0.00922406408605171,0.000899660658540225));
#1733=CARTESIAN_POINT('',(0.0105,0.008604,-0.01));
#1734=CARTESIAN_POINT('',(0.0105,0.00922406408605171,-0.01));
#1735=CARTESIAN_POINT('',(0.0105,0.00922406408605171,-0.0116003393414598));
#1736=CARTESIAN_POINT('',(-0.0105,0.00913376845707258,0.0025));
#1737=CARTESIAN_POINT('',(-0.0105,0.00913376845707258,-0.01));
#1738=CARTESIAN_POINT('',(0.0105,0.00913376845707258,0.0025));
#1739=CARTESIAN_POINT('',(0.0105,0.00913376845707258,-0.01));
#1740=MECHANICAL_DESIGN_GEOMETRIC_PRESENTATION_REPRESENTATION('',(#1045),
#1741);
#1741=(
GEOMETRIC_REPRESENTATION_CONTEXT(3)
GLOBAL_UNCERTAINTY_ASSIGNED_CONTEXT((#1742))
GLOBAL_UNIT_ASSIGNED_CONTEXT((#1745,#1744,#1743))
REPRESENTATION_CONTEXT('Part 52','TOP_LEVEL_ASSEMBLY_PART')
);
#1742=UNCERTAINTY_MEASURE_WITH_UNIT(LENGTH_MEASURE(1.E-8),#1745,
'DISTANCE_ACCURACY_VALUE','Maximum Tolerance applied to model');
#1743=(
NAMED_UNIT(*)
SI_UNIT($,.STERADIAN.)
SOLID_ANGLE_UNIT()
);
#1744=(
NAMED_UNIT(*)
PLANE_ANGLE_UNIT()
SI_UNIT($,.RADIAN.)
);
#1745=(
LENGTH_UNIT()
NAMED_UNIT(*)
SI_UNIT($,.METRE.)
);
#1746=PRODUCT_DEFINITION_SHAPE('','',#1747);
#1747=PRODUCT_DEFINITION('','',#1749,#1748);
#1748=PRODUCT_DEFINITION_CONTEXT('',#1755,'design');
#1749=PRODUCT_DEFINITION_FORMATION_WITH_SPECIFIED_SOURCE('','',#1751,
 .NOT_KNOWN.);
#1750=PRODUCT_RELATED_PRODUCT_CATEGORY('','',(#1751));
#1751=PRODUCT('Part 52','Part 52','Part 52',(#1753));
#1752=PRODUCT_CATEGORY('','');
#1753=PRODUCT_CONTEXT('',#1755,'mechanical');
#1754=APPLICATION_PROTOCOL_DEFINITION('international standard',
'ap242_managed_model_based_3d_engineering',2020,#1755);
#1755=APPLICATION_CONTEXT('managed model based 3d engineering');
ENDSEC;
END-ISO-10303-21;
