ISO-10303-21;
HEADER;
/* Generated by software containing ST-Developer
 * from STEP Tools, Inc. (www.steptools.com) 
 */
/* OPTION: using custom renumber hook */

FILE_DESCRIPTION(
/* description */ ('STEP AP242 Edition 2',
'CAx-IF Rec.Pracs.---Representation and Presentation of Product Manufa
cturing Information (PMI)---4.0---2014-10-13',
'CAx-IF Rec.Pracs.---3D Tessellated Geometry---0.4---2014-09-14','2;1',
'CAx-IF Rec.Pracs.---User Defined Attributes---1.5---2016-08-15'),
/* implementation_level */ '2;1');

FILE_NAME(
/* name */ 'x500_gimbal_base_for_avr v4 parts - Gimbal Pan',
/* time_stamp */ '2026-09-04T01:29:55Z',
/* author */ (''),
/* organization */ (''),
/* preprocessor_version */ 'ST-DEVELOPER v20',
/* originating_system */ 'ONSHAPE BY PTC INC, 1.220',
/* authorisation */ '  ');

FILE_SCHEMA (('AP242_MANAGED_MODEL_BASED_3D_ENGINEERING_MIM_LF { 1 0 10303 442 3 1 4 }'));
ENDSEC;

DATA;
#10=SHAPE_REPRESENTATION_RELATIONSHIP('','',#659,#11);
#11=ADVANCED_BREP_SHAPE_REPRESENTATION('',(#657),#1093);
#12=CYLINDRICAL_SURFACE('',#709,0.00150000002121272);
#13=CYLINDRICAL_SURFACE('',#711,0.00199999878644985);
#14=CYLINDRICAL_SURFACE('',#712,0.00289999938247024);
#15=CYLINDRICAL_SURFACE('',#713,0.00110000113879512);
#16=CYLINDRICAL_SURFACE('',#714,0.00397499991509553);
#17=CYLINDRICAL_SURFACE('',#715,0.0027500010555388);
#18=CYLINDRICAL_SURFACE('',#716,0.00250000453516207);
#19=CYLINDRICAL_SURFACE('',#717,0.000900001694757994);
#20=CYLINDRICAL_SURFACE('',#718,0.00110000113879512);
#21=CYLINDRICAL_SURFACE('',#719,0.000900001694757994);
#22=CYLINDRICAL_SURFACE('',#720,0.00250000453516207);
#23=CYLINDRICAL_SURFACE('',#721,0.00353027183519087);
#24=CYLINDRICAL_SURFACE('',#722,0.00353027183519088);
#25=CYLINDRICAL_SURFACE('',#725,0.0025);
#26=ELLIPSE('',#689,0.00353027183623026,0.00353027183519087);
#27=LINE('',#919,#81);
#28=LINE('',#922,#82);
#29=LINE('',#926,#83);
#30=LINE('',#928,#84);
#31=LINE('',#930,#85);
#32=LINE('',#938,#86);
#33=LINE('',#940,#87);
#34=LINE('',#942,#88);
#35=LINE('',#944,#89);
#36=LINE('',#946,#90);
#37=LINE('',#948,#91);
#38=LINE('',#950,#92);
#39=LINE('',#952,#93);
#40=LINE('',#954,#94);
#41=LINE('',#956,#95);
#42=LINE('',#958,#96);
#43=LINE('',#960,#97);
#44=LINE('',#962,#98);
#45=LINE('',#964,#99);
#46=LINE('',#966,#100);
#47=LINE('',#968,#101);
#48=LINE('',#970,#102);
#49=LINE('',#978,#103);
#50=LINE('',#980,#104);
#51=LINE('',#982,#105);
#52=LINE('',#984,#106);
#53=LINE('',#986,#107);
#54=LINE('',#987,#108);
#55=LINE('',#1003,#109);
#56=LINE('',#1007,#110);
#57=LINE('',#1011,#111);
#58=LINE('',#1013,#112);
#59=LINE('',#1015,#113);
#60=LINE('',#1017,#114);
#61=LINE('',#1019,#115);
#62=LINE('',#1021,#116);
#63=LINE('',#1023,#117);
#64=LINE('',#1025,#118);
#65=LINE('',#1027,#119);
#66=LINE('',#1029,#120);
#67=LINE('',#1031,#121);
#68=LINE('',#1033,#122);
#69=LINE('',#1035,#123);
#70=LINE('',#1037,#124);
#71=LINE('',#1041,#125);
#72=LINE('',#1045,#126);
#73=LINE('',#1049,#127);
#74=LINE('',#1051,#128);
#75=LINE('',#1053,#129);
#76=LINE('',#1055,#130);
#77=LINE('',#1057,#131);
#78=LINE('',#1059,#132);
#79=LINE('',#1061,#133);
#80=LINE('',#1063,#134);
#81=VECTOR('',#736,1.);
#82=VECTOR('',#737,1.);
#83=VECTOR('',#740,1.);
#84=VECTOR('',#741,1.);
#85=VECTOR('',#742,1.);
#86=VECTOR('',#751,1.);
#87=VECTOR('',#752,1.);
#88=VECTOR('',#753,1.);
#89=VECTOR('',#754,1.);
#90=VECTOR('',#755,1.);
#91=VECTOR('',#756,1.);
#92=VECTOR('',#757,1.);
#93=VECTOR('',#760,1.);
#94=VECTOR('',#761,1.);
#95=VECTOR('',#762,1.);
#96=VECTOR('',#765,1.);
#97=VECTOR('',#766,1.);
#98=VECTOR('',#769,1.);
#99=VECTOR('',#770,1.);
#100=VECTOR('',#771,1.);
#101=VECTOR('',#774,1.);
#102=VECTOR('',#775,1.);
#103=VECTOR('',#784,1.);
#104=VECTOR('',#785,1.);
#105=VECTOR('',#786,1.);
#106=VECTOR('',#787,1.);
#107=VECTOR('',#788,1.);
#108=VECTOR('',#789,1.);
#109=VECTOR('',#810,1.);
#110=VECTOR('',#813,1.);
#111=VECTOR('',#816,1.);
#112=VECTOR('',#817,1.);
#113=VECTOR('',#820,1.);
#114=VECTOR('',#821,1.);
#115=VECTOR('',#824,1.);
#116=VECTOR('',#825,1.);
#117=VECTOR('',#826,1.);
#118=VECTOR('',#829,1.);
#119=VECTOR('',#830,1.);
#120=VECTOR('',#831,1.);
#121=VECTOR('',#834,1.);
#122=VECTOR('',#837,1.);
#123=VECTOR('',#838,1.);
#124=VECTOR('',#839,1.);
#125=VECTOR('',#844,1.);
#126=VECTOR('',#847,1.);
#127=VECTOR('',#850,1.);
#128=VECTOR('',#853,1.);
#129=VECTOR('',#854,1.);
#130=VECTOR('',#857,1.);
#131=VECTOR('',#858,1.);
#132=VECTOR('',#859,1.);
#133=VECTOR('',#862,1.);
#134=VECTOR('',#863,1.);
#135=ORIENTED_EDGE('',*,*,#299,.T.);
#136=ORIENTED_EDGE('',*,*,#300,.T.);
#137=ORIENTED_EDGE('',*,*,#301,.T.);
#138=ORIENTED_EDGE('',*,*,#302,.T.);
#139=ORIENTED_EDGE('',*,*,#303,.T.);
#140=ORIENTED_EDGE('',*,*,#304,.T.);
#141=ORIENTED_EDGE('',*,*,#305,.T.);
#142=ORIENTED_EDGE('',*,*,#306,.T.);
#143=ORIENTED_EDGE('',*,*,#307,.F.);
#144=ORIENTED_EDGE('',*,*,#308,.T.);
#145=ORIENTED_EDGE('',*,*,#309,.F.);
#146=ORIENTED_EDGE('',*,*,#306,.F.);
#147=ORIENTED_EDGE('',*,*,#310,.T.);
#148=ORIENTED_EDGE('',*,*,#311,.T.);
#149=ORIENTED_EDGE('',*,*,#312,.T.);
#150=ORIENTED_EDGE('',*,*,#313,.T.);
#151=ORIENTED_EDGE('',*,*,#314,.F.);
#152=ORIENTED_EDGE('',*,*,#315,.T.);
#153=ORIENTED_EDGE('',*,*,#316,.T.);
#154=ORIENTED_EDGE('',*,*,#316,.F.);
#155=ORIENTED_EDGE('',*,*,#317,.T.);
#156=ORIENTED_EDGE('',*,*,#318,.T.);
#157=ORIENTED_EDGE('',*,*,#319,.T.);
#158=ORIENTED_EDGE('',*,*,#301,.F.);
#159=ORIENTED_EDGE('',*,*,#319,.F.);
#160=ORIENTED_EDGE('',*,*,#320,.T.);
#161=ORIENTED_EDGE('',*,*,#321,.T.);
#162=ORIENTED_EDGE('',*,*,#302,.F.);
#163=ORIENTED_EDGE('',*,*,#322,.T.);
#164=ORIENTED_EDGE('',*,*,#323,.T.);
#165=ORIENTED_EDGE('',*,*,#324,.T.);
#166=ORIENTED_EDGE('',*,*,#304,.F.);
#167=ORIENTED_EDGE('',*,*,#305,.F.);
#168=ORIENTED_EDGE('',*,*,#324,.F.);
#169=ORIENTED_EDGE('',*,*,#325,.T.);
#170=ORIENTED_EDGE('',*,*,#326,.T.);
#171=ORIENTED_EDGE('',*,*,#310,.F.);
#172=ORIENTED_EDGE('',*,*,#327,.T.);
#173=ORIENTED_EDGE('',*,*,#328,.T.);
#174=ORIENTED_EDGE('',*,*,#329,.T.);
#175=ORIENTED_EDGE('',*,*,#318,.F.);
#176=ORIENTED_EDGE('',*,*,#330,.T.);
#177=ORIENTED_EDGE('',*,*,#331,.T.);
#178=ORIENTED_EDGE('',*,*,#332,.T.);
#179=ORIENTED_EDGE('',*,*,#333,.T.);
#180=ORIENTED_EDGE('',*,*,#334,.T.);
#181=ORIENTED_EDGE('',*,*,#325,.F.);
#182=ORIENTED_EDGE('',*,*,#335,.T.);
#183=ORIENTED_EDGE('',*,*,#335,.F.);
#184=ORIENTED_EDGE('',*,*,#323,.F.);
#185=ORIENTED_EDGE('',*,*,#336,.T.);
#186=ORIENTED_EDGE('',*,*,#320,.F.);
#187=ORIENTED_EDGE('',*,*,#337,.F.);
#188=ORIENTED_EDGE('',*,*,#338,.T.);
#189=ORIENTED_EDGE('',*,*,#339,.T.);
#190=ORIENTED_EDGE('',*,*,#340,.F.);
#191=ORIENTED_EDGE('',*,*,#341,.T.);
#192=ORIENTED_EDGE('',*,*,#342,.F.);
#193=ORIENTED_EDGE('',*,*,#343,.T.);
#194=ORIENTED_EDGE('',*,*,#344,.T.);
#195=ORIENTED_EDGE('',*,*,#345,.F.);
#196=ORIENTED_EDGE('',*,*,#346,.T.);
#197=ORIENTED_EDGE('',*,*,#347,.T.);
#198=ORIENTED_EDGE('',*,*,#330,.F.);
#199=ORIENTED_EDGE('',*,*,#317,.F.);
#200=ORIENTED_EDGE('',*,*,#315,.F.);
#201=ORIENTED_EDGE('',*,*,#314,.T.);
#202=ORIENTED_EDGE('',*,*,#348,.F.);
#203=ORIENTED_EDGE('',*,*,#349,.T.);
#204=ORIENTED_EDGE('',*,*,#342,.T.);
#205=ORIENTED_EDGE('',*,*,#350,.T.);
#206=ORIENTED_EDGE('',*,*,#351,.T.);
#207=ORIENTED_EDGE('',*,*,#352,.F.);
#208=ORIENTED_EDGE('',*,*,#344,.F.);
#209=ORIENTED_EDGE('',*,*,#353,.F.);
#210=ORIENTED_EDGE('',*,*,#354,.T.);
#211=ORIENTED_EDGE('',*,*,#355,.T.);
#212=ORIENTED_EDGE('',*,*,#346,.F.);
#213=ORIENTED_EDGE('',*,*,#347,.F.);
#214=ORIENTED_EDGE('',*,*,#355,.F.);
#215=ORIENTED_EDGE('',*,*,#356,.T.);
#216=ORIENTED_EDGE('',*,*,#331,.F.);
#217=ORIENTED_EDGE('',*,*,#333,.F.);
#218=ORIENTED_EDGE('',*,*,#357,.T.);
#219=ORIENTED_EDGE('',*,*,#358,.T.);
#220=ORIENTED_EDGE('',*,*,#359,.T.);
#221=ORIENTED_EDGE('',*,*,#360,.T.);
#222=ORIENTED_EDGE('',*,*,#359,.F.);
#223=ORIENTED_EDGE('',*,*,#361,.T.);
#224=ORIENTED_EDGE('',*,*,#362,.F.);
#225=ORIENTED_EDGE('',*,*,#363,.T.);
#226=ORIENTED_EDGE('',*,*,#364,.T.);
#227=ORIENTED_EDGE('',*,*,#365,.T.);
#228=ORIENTED_EDGE('',*,*,#311,.F.);
#229=ORIENTED_EDGE('',*,*,#326,.F.);
#230=ORIENTED_EDGE('',*,*,#334,.F.);
#231=ORIENTED_EDGE('',*,*,#358,.F.);
#232=ORIENTED_EDGE('',*,*,#366,.T.);
#233=ORIENTED_EDGE('',*,*,#367,.F.);
#234=ORIENTED_EDGE('',*,*,#361,.F.);
#235=ORIENTED_EDGE('',*,*,#368,.F.);
#236=ORIENTED_EDGE('',*,*,#369,.T.);
#237=ORIENTED_EDGE('',*,*,#370,.T.);
#238=ORIENTED_EDGE('',*,*,#363,.F.);
#239=ORIENTED_EDGE('',*,*,#365,.F.);
#240=ORIENTED_EDGE('',*,*,#371,.T.);
#241=ORIENTED_EDGE('',*,*,#372,.T.);
#242=ORIENTED_EDGE('',*,*,#312,.F.);
#243=ORIENTED_EDGE('',*,*,#373,.T.);
#244=ORIENTED_EDGE('',*,*,#374,.T.);
#245=ORIENTED_EDGE('',*,*,#313,.F.);
#246=ORIENTED_EDGE('',*,*,#372,.F.);
#247=ORIENTED_EDGE('',*,*,#375,.F.);
#248=ORIENTED_EDGE('',*,*,#369,.F.);
#249=ORIENTED_EDGE('',*,*,#376,.T.);
#250=ORIENTED_EDGE('',*,*,#366,.F.);
#251=ORIENTED_EDGE('',*,*,#357,.F.);
#252=ORIENTED_EDGE('',*,*,#332,.F.);
#253=ORIENTED_EDGE('',*,*,#356,.F.);
#254=ORIENTED_EDGE('',*,*,#354,.F.);
#255=ORIENTED_EDGE('',*,*,#377,.T.);
#256=ORIENTED_EDGE('',*,*,#351,.F.);
#257=ORIENTED_EDGE('',*,*,#378,.F.);
#258=ORIENTED_EDGE('',*,*,#348,.T.);
#259=ORIENTED_EDGE('',*,*,#299,.F.);
#260=ORIENTED_EDGE('',*,*,#379,.T.);
#261=ORIENTED_EDGE('',*,*,#321,.F.);
#262=ORIENTED_EDGE('',*,*,#336,.F.);
#263=ORIENTED_EDGE('',*,*,#322,.F.);
#264=ORIENTED_EDGE('',*,*,#303,.F.);
#265=ORIENTED_EDGE('',*,*,#329,.F.);
#266=ORIENTED_EDGE('',*,*,#338,.F.);
#267=ORIENTED_EDGE('',*,*,#337,.T.);
#268=ORIENTED_EDGE('',*,*,#309,.T.);
#269=ORIENTED_EDGE('',*,*,#328,.F.);
#270=ORIENTED_EDGE('',*,*,#308,.F.);
#271=ORIENTED_EDGE('',*,*,#327,.F.);
#272=ORIENTED_EDGE('',*,*,#340,.T.);
#273=ORIENTED_EDGE('',*,*,#349,.F.);
#274=ORIENTED_EDGE('',*,*,#378,.T.);
#275=ORIENTED_EDGE('',*,*,#350,.F.);
#276=ORIENTED_EDGE('',*,*,#343,.F.);
#277=ORIENTED_EDGE('',*,*,#374,.F.);
#278=ORIENTED_EDGE('',*,*,#341,.F.);
#279=ORIENTED_EDGE('',*,*,#339,.F.);
#280=ORIENTED_EDGE('',*,*,#307,.T.);
#281=ORIENTED_EDGE('',*,*,#373,.F.);
#282=ORIENTED_EDGE('',*,*,#360,.F.);
#283=ORIENTED_EDGE('',*,*,#370,.F.);
#284=ORIENTED_EDGE('',*,*,#375,.T.);
#285=ORIENTED_EDGE('',*,*,#371,.F.);
#286=ORIENTED_EDGE('',*,*,#364,.F.);
#287=ORIENTED_EDGE('',*,*,#352,.T.);
#288=ORIENTED_EDGE('',*,*,#377,.F.);
#289=ORIENTED_EDGE('',*,*,#353,.T.);
#290=ORIENTED_EDGE('',*,*,#345,.T.);
#291=ORIENTED_EDGE('',*,*,#367,.T.);
#292=ORIENTED_EDGE('',*,*,#376,.F.);
#293=ORIENTED_EDGE('',*,*,#368,.T.);
#294=ORIENTED_EDGE('',*,*,#362,.T.);
#295=ORIENTED_EDGE('',*,*,#379,.F.);
#296=ORIENTED_EDGE('',*,*,#380,.T.);
#297=ORIENTED_EDGE('',*,*,#300,.F.);
#298=ORIENTED_EDGE('',*,*,#380,.F.);
#299=EDGE_CURVE('',#381,#381,#441,.T.);
#300=EDGE_CURVE('',#382,#382,#442,.T.);
#301=EDGE_CURVE('',#383,#384,#27,.T.);
#302=EDGE_CURVE('',#384,#385,#28,.T.);
#303=EDGE_CURVE('',#385,#386,#443,.T.);
#304=EDGE_CURVE('',#386,#387,#29,.T.);
#305=EDGE_CURVE('',#387,#388,#30,.T.);
#306=EDGE_CURVE('',#388,#383,#31,.T.);
#307=EDGE_CURVE('',#389,#389,#444,.T.);
#308=EDGE_CURVE('',#390,#390,#445,.T.);
#309=EDGE_CURVE('',#391,#391,#446,.T.);
#310=EDGE_CURVE('',#388,#392,#32,.T.);
#311=EDGE_CURVE('',#392,#393,#33,.T.);
#312=EDGE_CURVE('',#393,#394,#34,.T.);
#313=EDGE_CURVE('',#394,#395,#35,.T.);
#314=EDGE_CURVE('',#396,#395,#36,.T.);
#315=EDGE_CURVE('',#396,#397,#37,.T.);
#316=EDGE_CURVE('',#397,#383,#38,.T.);
#317=EDGE_CURVE('',#397,#398,#39,.T.);
#318=EDGE_CURVE('',#398,#399,#40,.T.);
#319=EDGE_CURVE('',#399,#384,#41,.T.);
#320=EDGE_CURVE('',#399,#400,#42,.T.);
#321=EDGE_CURVE('',#400,#385,#43,.T.);
#322=EDGE_CURVE('',#386,#401,#44,.T.);
#323=EDGE_CURVE('',#401,#402,#45,.T.);
#324=EDGE_CURVE('',#402,#387,#46,.T.);
#325=EDGE_CURVE('',#402,#403,#47,.T.);
#326=EDGE_CURVE('',#403,#392,#48,.T.);
#327=EDGE_CURVE('',#404,#404,#447,.T.);
#328=EDGE_CURVE('',#405,#405,#448,.T.);
#329=EDGE_CURVE('',#406,#406,#449,.T.);
#330=EDGE_CURVE('',#398,#407,#49,.T.);
#331=EDGE_CURVE('',#407,#408,#50,.T.);
#332=EDGE_CURVE('',#408,#409,#51,.T.);
#333=EDGE_CURVE('',#409,#410,#52,.T.);
#334=EDGE_CURVE('',#410,#403,#53,.T.);
#335=EDGE_CURVE('',#402,#399,#54,.T.);
#336=EDGE_CURVE('',#401,#400,#450,.T.);
#337=EDGE_CURVE('',#411,#411,#451,.T.);
#338=EDGE_CURVE('',#412,#412,#452,.T.);
#339=EDGE_CURVE('',#413,#413,#453,.T.);
#340=EDGE_CURVE('',#414,#414,#454,.T.);
#341=EDGE_CURVE('',#415,#415,#455,.T.);
#342=EDGE_CURVE('',#416,#396,#55,.T.);
#343=EDGE_CURVE('',#416,#417,#456,.T.);
#344=EDGE_CURVE('',#417,#418,#56,.T.);
#345=EDGE_CURVE('',#419,#418,#26,.T.);
#346=EDGE_CURVE('',#419,#420,#57,.T.);
#347=EDGE_CURVE('',#420,#407,#58,.T.);
#348=EDGE_CURVE('',#421,#395,#59,.T.);
#349=EDGE_CURVE('',#421,#416,#60,.T.);
#350=EDGE_CURVE('',#417,#422,#61,.T.);
#351=EDGE_CURVE('',#422,#423,#62,.T.);
#352=EDGE_CURVE('',#418,#423,#63,.T.);
#353=EDGE_CURVE('',#424,#419,#64,.T.);
#354=EDGE_CURVE('',#424,#425,#65,.T.);
#355=EDGE_CURVE('',#425,#420,#66,.T.);
#356=EDGE_CURVE('',#425,#408,#67,.T.);
#357=EDGE_CURVE('',#409,#426,#68,.T.);
#358=EDGE_CURVE('',#426,#427,#69,.T.);
#359=EDGE_CURVE('',#427,#410,#70,.T.);
#360=EDGE_CURVE('',#428,#428,#457,.T.);
#361=EDGE_CURVE('',#427,#429,#71,.T.);
#362=EDGE_CURVE('',#430,#429,#458,.T.);
#363=EDGE_CURVE('',#430,#431,#72,.T.);
#364=EDGE_CURVE('',#431,#432,#459,.T.);
#365=EDGE_CURVE('',#432,#393,#73,.T.);
#366=EDGE_CURVE('',#426,#433,#74,.T.);
#367=EDGE_CURVE('',#429,#433,#75,.T.);
#368=EDGE_CURVE('',#434,#430,#76,.T.);
#369=EDGE_CURVE('',#434,#435,#77,.T.);
#370=EDGE_CURVE('',#435,#431,#78,.T.);
#371=EDGE_CURVE('',#432,#436,#79,.T.);
#372=EDGE_CURVE('',#436,#394,#80,.T.);
#373=EDGE_CURVE('',#437,#437,#460,.T.);
#374=EDGE_CURVE('',#438,#438,#461,.T.);
#375=EDGE_CURVE('',#435,#436,#462,.T.);
#376=EDGE_CURVE('',#434,#433,#463,.T.);
#377=EDGE_CURVE('',#424,#423,#464,.T.);
#378=EDGE_CURVE('',#421,#422,#465,.T.);
#379=EDGE_CURVE('',#439,#439,#466,.T.);
#380=EDGE_CURVE('',#440,#440,#467,.T.);
#381=VERTEX_POINT('',#915);
#382=VERTEX_POINT('',#918);
#383=VERTEX_POINT('',#920);
#384=VERTEX_POINT('',#921);
#385=VERTEX_POINT('',#923);
#386=VERTEX_POINT('',#925);
#387=VERTEX_POINT('',#927);
#388=VERTEX_POINT('',#929);
#389=VERTEX_POINT('',#933);
#390=VERTEX_POINT('',#935);
#391=VERTEX_POINT('',#937);
#392=VERTEX_POINT('',#939);
#393=VERTEX_POINT('',#941);
#394=VERTEX_POINT('',#943);
#395=VERTEX_POINT('',#945);
#396=VERTEX_POINT('',#947);
#397=VERTEX_POINT('',#949);
#398=VERTEX_POINT('',#953);
#399=VERTEX_POINT('',#955);
#400=VERTEX_POINT('',#959);
#401=VERTEX_POINT('',#963);
#402=VERTEX_POINT('',#965);
#403=VERTEX_POINT('',#969);
#404=VERTEX_POINT('',#973);
#405=VERTEX_POINT('',#975);
#406=VERTEX_POINT('',#977);
#407=VERTEX_POINT('',#979);
#408=VERTEX_POINT('',#981);
#409=VERTEX_POINT('',#983);
#410=VERTEX_POINT('',#985);
#411=VERTEX_POINT('',#992);
#412=VERTEX_POINT('',#994);
#413=VERTEX_POINT('',#997);
#414=VERTEX_POINT('',#999);
#415=VERTEX_POINT('',#1002);
#416=VERTEX_POINT('',#1004);
#417=VERTEX_POINT('',#1006);
#418=VERTEX_POINT('',#1008);
#419=VERTEX_POINT('',#1010);
#420=VERTEX_POINT('',#1012);
#421=VERTEX_POINT('',#1016);
#422=VERTEX_POINT('',#1020);
#423=VERTEX_POINT('',#1022);
#424=VERTEX_POINT('',#1026);
#425=VERTEX_POINT('',#1028);
#426=VERTEX_POINT('',#1034);
#427=VERTEX_POINT('',#1036);
#428=VERTEX_POINT('',#1040);
#429=VERTEX_POINT('',#1042);
#430=VERTEX_POINT('',#1044);
#431=VERTEX_POINT('',#1046);
#432=VERTEX_POINT('',#1048);
#433=VERTEX_POINT('',#1052);
#434=VERTEX_POINT('',#1056);
#435=VERTEX_POINT('',#1058);
#436=VERTEX_POINT('',#1062);
#437=VERTEX_POINT('',#1066);
#438=VERTEX_POINT('',#1068);
#439=VERTEX_POINT('',#1075);
#440=VERTEX_POINT('',#1090);
#441=CIRCLE('',#662,0.00150000002121272);
#442=CIRCLE('',#664,0.0025);
#443=CIRCLE('',#665,0.00199999878644985);
#444=CIRCLE('',#667,0.00110000113879512);
#445=CIRCLE('',#668,0.00397499991509553);
#446=CIRCLE('',#669,0.00110000113879512);
#447=CIRCLE('',#675,0.0027500010555388);
#448=CIRCLE('',#676,0.00397499991509553);
#449=CIRCLE('',#677,0.00289999938247024);
#450=CIRCLE('',#679,0.00199999878644985);
#451=CIRCLE('',#681,0.00110000113879512);
#452=CIRCLE('',#682,0.00289999938247024);
#453=CIRCLE('',#684,0.00110000113879512);
#454=CIRCLE('',#685,0.0027500010555388);
#455=CIRCLE('',#687,0.000900001694757994);
#456=CIRCLE('',#688,0.00250000453516207);
#457=CIRCLE('',#696,0.000900001694757994);
#458=CIRCLE('',#697,0.00353027183623027);
#459=CIRCLE('',#698,0.00250000453516207);
#460=CIRCLE('',#703,0.000900001694757994);
#461=CIRCLE('',#704,0.000900001694757994);
#462=CIRCLE('',#705,0.00250000453516207);
#463=CIRCLE('',#706,0.00353027183623027);
#464=CIRCLE('',#707,0.00353027183623027);
#465=CIRCLE('',#708,0.00250000453516207);
#466=CIRCLE('',#710,0.00150000002121272);
#467=CIRCLE('',#724,0.0025);
#468=EDGE_LOOP('',(#135));
#469=EDGE_LOOP('',(#136));
#470=EDGE_LOOP('',(#137,#138,#139,#140,#141,#142));
#471=EDGE_LOOP('',(#143));
#472=EDGE_LOOP('',(#144));
#473=EDGE_LOOP('',(#145));
#474=EDGE_LOOP('',(#146,#147,#148,#149,#150,#151,#152,#153));
#475=EDGE_LOOP('',(#154,#155,#156,#157,#158));
#476=EDGE_LOOP('',(#159,#160,#161,#162));
#477=EDGE_LOOP('',(#163,#164,#165,#166));
#478=EDGE_LOOP('',(#167,#168,#169,#170,#171));
#479=EDGE_LOOP('',(#172));
#480=EDGE_LOOP('',(#173));
#481=EDGE_LOOP('',(#174));
#482=EDGE_LOOP('',(#175,#176,#177,#178,#179,#180,#181,#182));
#483=EDGE_LOOP('',(#183,#184,#185,#186));
#484=EDGE_LOOP('',(#187));
#485=EDGE_LOOP('',(#188));
#486=EDGE_LOOP('',(#189));
#487=EDGE_LOOP('',(#190));
#488=EDGE_LOOP('',(#191));
#489=EDGE_LOOP('',(#192,#193,#194,#195,#196,#197,#198,#199,#200));
#490=EDGE_LOOP('',(#201,#202,#203,#204));
#491=EDGE_LOOP('',(#205,#206,#207,#208));
#492=EDGE_LOOP('',(#209,#210,#211,#212));
#493=EDGE_LOOP('',(#213,#214,#215,#216));
#494=EDGE_LOOP('',(#217,#218,#219,#220));
#495=EDGE_LOOP('',(#221));
#496=EDGE_LOOP('',(#222,#223,#224,#225,#226,#227,#228,#229,#230));
#497=EDGE_LOOP('',(#231,#232,#233,#234));
#498=EDGE_LOOP('',(#235,#236,#237,#238));
#499=EDGE_LOOP('',(#239,#240,#241,#242));
#500=EDGE_LOOP('',(#243));
#501=EDGE_LOOP('',(#244));
#502=EDGE_LOOP('',(#245,#246,#247,#248,#249,#250,#251,#252,#253,#254,#255,
#256,#257,#258));
#503=EDGE_LOOP('',(#259));
#504=EDGE_LOOP('',(#260));
#505=EDGE_LOOP('',(#261,#262,#263,#264));
#506=EDGE_LOOP('',(#265));
#507=EDGE_LOOP('',(#266));
#508=EDGE_LOOP('',(#267));
#509=EDGE_LOOP('',(#268));
#510=EDGE_LOOP('',(#269));
#511=EDGE_LOOP('',(#270));
#512=EDGE_LOOP('',(#271));
#513=EDGE_LOOP('',(#272));
#514=EDGE_LOOP('',(#273,#274,#275,#276));
#515=EDGE_LOOP('',(#277));
#516=EDGE_LOOP('',(#278));
#517=EDGE_LOOP('',(#279));
#518=EDGE_LOOP('',(#280));
#519=EDGE_LOOP('',(#281));
#520=EDGE_LOOP('',(#282));
#521=EDGE_LOOP('',(#283,#284,#285,#286));
#522=EDGE_LOOP('',(#287,#288,#289,#290));
#523=EDGE_LOOP('',(#291,#292,#293,#294));
#524=EDGE_LOOP('',(#295));
#525=EDGE_LOOP('',(#296));
#526=EDGE_LOOP('',(#297));
#527=EDGE_LOOP('',(#298));
#528=FACE_BOUND('',#468,.T.);
#529=FACE_BOUND('',#469,.T.);
#530=FACE_BOUND('',#470,.T.);
#531=FACE_BOUND('',#471,.T.);
#532=FACE_BOUND('',#472,.T.);
#533=FACE_BOUND('',#473,.T.);
#534=FACE_BOUND('',#474,.T.);
#535=FACE_BOUND('',#475,.T.);
#536=FACE_BOUND('',#476,.T.);
#537=FACE_BOUND('',#477,.T.);
#538=FACE_BOUND('',#478,.T.);
#539=FACE_BOUND('',#479,.T.);
#540=FACE_BOUND('',#480,.T.);
#541=FACE_BOUND('',#481,.T.);
#542=FACE_BOUND('',#482,.T.);
#543=FACE_BOUND('',#483,.T.);
#544=FACE_BOUND('',#484,.T.);
#545=FACE_BOUND('',#485,.T.);
#546=FACE_BOUND('',#486,.T.);
#547=FACE_BOUND('',#487,.T.);
#548=FACE_BOUND('',#488,.T.);
#549=FACE_BOUND('',#489,.T.);
#550=FACE_BOUND('',#490,.T.);
#551=FACE_BOUND('',#491,.T.);
#552=FACE_BOUND('',#492,.T.);
#553=FACE_BOUND('',#493,.T.);
#554=FACE_BOUND('',#494,.T.);
#555=FACE_BOUND('',#495,.T.);
#556=FACE_BOUND('',#496,.T.);
#557=FACE_BOUND('',#497,.T.);
#558=FACE_BOUND('',#498,.T.);
#559=FACE_BOUND('',#499,.T.);
#560=FACE_BOUND('',#500,.T.);
#561=FACE_BOUND('',#501,.T.);
#562=FACE_BOUND('',#502,.T.);
#563=FACE_BOUND('',#503,.T.);
#564=FACE_BOUND('',#504,.T.);
#565=FACE_BOUND('',#505,.T.);
#566=FACE_BOUND('',#506,.T.);
#567=FACE_BOUND('',#507,.T.);
#568=FACE_BOUND('',#508,.T.);
#569=FACE_BOUND('',#509,.T.);
#570=FACE_BOUND('',#510,.T.);
#571=FACE_BOUND('',#511,.T.);
#572=FACE_BOUND('',#512,.T.);
#573=FACE_BOUND('',#513,.T.);
#574=FACE_BOUND('',#514,.T.);
#575=FACE_BOUND('',#515,.T.);
#576=FACE_BOUND('',#516,.T.);
#577=FACE_BOUND('',#517,.T.);
#578=FACE_BOUND('',#518,.T.);
#579=FACE_BOUND('',#519,.T.);
#580=FACE_BOUND('',#520,.T.);
#581=FACE_BOUND('',#521,.T.);
#582=FACE_BOUND('',#522,.T.);
#583=FACE_BOUND('',#523,.T.);
#584=FACE_BOUND('',#524,.T.);
#585=FACE_BOUND('',#525,.T.);
#586=FACE_BOUND('',#526,.T.);
#587=FACE_BOUND('',#527,.T.);
#588=PLANE('',#661);
#589=PLANE('',#663);
#590=PLANE('',#666);
#591=PLANE('',#670);
#592=PLANE('',#671);
#593=PLANE('',#672);
#594=PLANE('',#673);
#595=PLANE('',#674);
#596=PLANE('',#678);
#597=PLANE('',#680);
#598=PLANE('',#683);
#599=PLANE('',#686);
#600=PLANE('',#690);
#601=PLANE('',#691);
#602=PLANE('',#692);
#603=PLANE('',#693);
#604=PLANE('',#694);
#605=PLANE('',#695);
#606=PLANE('',#699);
#607=PLANE('',#700);
#608=PLANE('',#701);
#609=PLANE('',#702);
#610=PLANE('',#723);
#611=ADVANCED_FACE('',(#528),#588,.F.);
#612=ADVANCED_FACE('',(#529,#530),#589,.F.);
#613=ADVANCED_FACE('',(#531,#532,#533,#534),#590,.F.);
#614=ADVANCED_FACE('',(#535),#591,.F.);
#615=ADVANCED_FACE('',(#536),#592,.T.);
#616=ADVANCED_FACE('',(#537),#593,.T.);
#617=ADVANCED_FACE('',(#538),#594,.T.);
#618=ADVANCED_FACE('',(#539,#540,#541,#542),#595,.T.);
#619=ADVANCED_FACE('',(#543),#596,.T.);
#620=ADVANCED_FACE('',(#544,#545),#597,.F.);
#621=ADVANCED_FACE('',(#546,#547),#598,.F.);
#622=ADVANCED_FACE('',(#548,#549),#599,.F.);
#623=ADVANCED_FACE('',(#550),#600,.F.);
#624=ADVANCED_FACE('',(#551),#601,.T.);
#625=ADVANCED_FACE('',(#552),#602,.F.);
#626=ADVANCED_FACE('',(#553),#603,.T.);
#627=ADVANCED_FACE('',(#554),#604,.F.);
#628=ADVANCED_FACE('',(#555,#556),#605,.F.);
#629=ADVANCED_FACE('',(#557),#606,.F.);
#630=ADVANCED_FACE('',(#558),#607,.T.);
#631=ADVANCED_FACE('',(#559),#608,.T.);
#632=ADVANCED_FACE('',(#560,#561,#562),#609,.T.);
#633=ADVANCED_FACE('',(#563,#564),#12,.T.);
#634=ADVANCED_FACE('',(#565),#13,.T.);
#635=ADVANCED_FACE('',(#566,#567),#14,.F.);
#636=ADVANCED_FACE('',(#568,#569),#15,.F.);
#637=ADVANCED_FACE('',(#570,#571),#16,.F.);
#638=ADVANCED_FACE('',(#572,#573),#17,.F.);
#639=ADVANCED_FACE('',(#574),#18,.T.);
#640=ADVANCED_FACE('',(#575,#576),#19,.F.);
#641=ADVANCED_FACE('',(#577,#578),#20,.F.);
#642=ADVANCED_FACE('',(#579,#580),#21,.F.);
#643=ADVANCED_FACE('',(#581),#22,.T.);
#644=ADVANCED_FACE('',(#582),#23,.F.);
#645=ADVANCED_FACE('',(#583),#24,.F.);
#646=ADVANCED_FACE('',(#584,#585),#610,.T.);
#647=ADVANCED_FACE('',(#586,#587),#25,.T.);
#648=CLOSED_SHELL('',(#611,#612,#613,#614,#615,#616,#617,#618,#619,#620,
#621,#622,#623,#624,#625,#626,#627,#628,#629,#630,#631,#632,#633,#634,#635,
#636,#637,#638,#639,#640,#641,#642,#643,#644,#645,#646,#647));
#649=STYLED_ITEM('',(#650),#657);
#650=PRESENTATION_STYLE_ASSIGNMENT((#651));
#651=SURFACE_STYLE_USAGE(.BOTH.,#652);
#652=SURFACE_SIDE_STYLE('',(#653));
#653=SURFACE_STYLE_FILL_AREA(#654);
#654=FILL_AREA_STYLE('',(#655));
#655=FILL_AREA_STYLE_COLOUR('',#656);
#656=COLOUR_RGB('',0.627450980392157,0.627450980392157,0.627450980392157);
#657=MANIFOLD_SOLID_BREP('Gimbal Pan',#648);
#658=SHAPE_DEFINITION_REPRESENTATION(#1098,#659);
#659=SHAPE_REPRESENTATION('Gimbal Pan',(#660),#1093);
#660=AXIS2_PLACEMENT_3D('',#912,#726,#727);
#661=AXIS2_PLACEMENT_3D('',#913,#728,#729);
#662=AXIS2_PLACEMENT_3D('',#914,#730,#731);
#663=AXIS2_PLACEMENT_3D('',#916,#732,#733);
#664=AXIS2_PLACEMENT_3D('',#917,#734,#735);
#665=AXIS2_PLACEMENT_3D('',#924,#738,#739);
#666=AXIS2_PLACEMENT_3D('',#931,#743,#744);
#667=AXIS2_PLACEMENT_3D('',#932,#745,#746);
#668=AXIS2_PLACEMENT_3D('',#934,#747,#748);
#669=AXIS2_PLACEMENT_3D('',#936,#749,#750);
#670=AXIS2_PLACEMENT_3D('',#951,#758,#759);
#671=AXIS2_PLACEMENT_3D('',#957,#763,#764);
#672=AXIS2_PLACEMENT_3D('',#961,#767,#768);
#673=AXIS2_PLACEMENT_3D('',#967,#772,#773);
#674=AXIS2_PLACEMENT_3D('',#971,#776,#777);
#675=AXIS2_PLACEMENT_3D('',#972,#778,#779);
#676=AXIS2_PLACEMENT_3D('',#974,#780,#781);
#677=AXIS2_PLACEMENT_3D('',#976,#782,#783);
#678=AXIS2_PLACEMENT_3D('',#988,#790,#791);
#679=AXIS2_PLACEMENT_3D('',#989,#792,#793);
#680=AXIS2_PLACEMENT_3D('',#990,#794,#795);
#681=AXIS2_PLACEMENT_3D('',#991,#796,#797);
#682=AXIS2_PLACEMENT_3D('',#993,#798,#799);
#683=AXIS2_PLACEMENT_3D('',#995,#800,#801);
#684=AXIS2_PLACEMENT_3D('',#996,#802,#803);
#685=AXIS2_PLACEMENT_3D('',#998,#804,#805);
#686=AXIS2_PLACEMENT_3D('',#1000,#806,#807);
#687=AXIS2_PLACEMENT_3D('',#1001,#808,#809);
#688=AXIS2_PLACEMENT_3D('',#1005,#811,#812);
#689=AXIS2_PLACEMENT_3D('',#1009,#814,#815);
#690=AXIS2_PLACEMENT_3D('',#1014,#818,#819);
#691=AXIS2_PLACEMENT_3D('',#1018,#822,#823);
#692=AXIS2_PLACEMENT_3D('',#1024,#827,#828);
#693=AXIS2_PLACEMENT_3D('',#1030,#832,#833);
#694=AXIS2_PLACEMENT_3D('',#1032,#835,#836);
#695=AXIS2_PLACEMENT_3D('',#1038,#840,#841);
#696=AXIS2_PLACEMENT_3D('',#1039,#842,#843);
#697=AXIS2_PLACEMENT_3D('',#1043,#845,#846);
#698=AXIS2_PLACEMENT_3D('',#1047,#848,#849);
#699=AXIS2_PLACEMENT_3D('',#1050,#851,#852);
#700=AXIS2_PLACEMENT_3D('',#1054,#855,#856);
#701=AXIS2_PLACEMENT_3D('',#1060,#860,#861);
#702=AXIS2_PLACEMENT_3D('',#1064,#864,#865);
#703=AXIS2_PLACEMENT_3D('',#1065,#866,#867);
#704=AXIS2_PLACEMENT_3D('',#1067,#868,#869);
#705=AXIS2_PLACEMENT_3D('',#1069,#870,#871);
#706=AXIS2_PLACEMENT_3D('',#1070,#872,#873);
#707=AXIS2_PLACEMENT_3D('',#1071,#874,#875);
#708=AXIS2_PLACEMENT_3D('',#1072,#876,#877);
#709=AXIS2_PLACEMENT_3D('',#1073,#878,#879);
#710=AXIS2_PLACEMENT_3D('',#1074,#880,#881);
#711=AXIS2_PLACEMENT_3D('',#1076,#882,#883);
#712=AXIS2_PLACEMENT_3D('',#1077,#884,#885);
#713=AXIS2_PLACEMENT_3D('',#1078,#886,#887);
#714=AXIS2_PLACEMENT_3D('',#1079,#888,#889);
#715=AXIS2_PLACEMENT_3D('',#1080,#890,#891);
#716=AXIS2_PLACEMENT_3D('',#1081,#892,#893);
#717=AXIS2_PLACEMENT_3D('',#1082,#894,#895);
#718=AXIS2_PLACEMENT_3D('',#1083,#896,#897);
#719=AXIS2_PLACEMENT_3D('',#1084,#898,#899);
#720=AXIS2_PLACEMENT_3D('',#1085,#900,#901);
#721=AXIS2_PLACEMENT_3D('',#1086,#902,#903);
#722=AXIS2_PLACEMENT_3D('',#1087,#904,#905);
#723=AXIS2_PLACEMENT_3D('',#1088,#906,#907);
#724=AXIS2_PLACEMENT_3D('',#1089,#908,#909);
#725=AXIS2_PLACEMENT_3D('',#1091,#910,#911);
#726=DIRECTION('',(0.,0.,1.));
#727=DIRECTION('',(1.,0.,0.));
#728=DIRECTION('',(1.,0.,0.));
#729=DIRECTION('',(0.,0.,-1.));
#730=DIRECTION('',(-1.,0.,0.));
#731=DIRECTION('',(1.25645381887614E-17,-1.,0.));
#732=DIRECTION('',(1.,0.,0.));
#733=DIRECTION('',(0.,0.,-1.));
#734=DIRECTION('',(1.,0.,0.));
#735=DIRECTION('',(0.,0.,1.));
#736=DIRECTION('',(0.,-1.,0.));
#737=DIRECTION('',(0.,-0.43783883999461,0.899053474601024));
#738=DIRECTION('',(-1.,0.,0.));
#739=DIRECTION('',(0.,-0.899053474601024,-0.43783883999461));
#740=DIRECTION('',(0.,0.852661339087017,0.522464009120567));
#741=DIRECTION('',(0.,1.,0.));
#742=DIRECTION('',(0.,0.,-1.));
#743=DIRECTION('',(0.,-1.,0.));
#744=DIRECTION('',(0.,0.,-1.));
#745=DIRECTION('',(0.,1.,0.));
#746=DIRECTION('',(0.,2.0129795856064E-17,1.));
#747=DIRECTION('',(0.,-1.,0.));
#748=DIRECTION('',(0.,9.87010217313653E-18,1.));
#749=DIRECTION('',(0.,1.,0.));
#750=DIRECTION('',(0.,2.01298128875753E-17,1.));
#751=DIRECTION('',(1.,0.,0.));
#752=DIRECTION('',(0.,0.,1.));
#753=DIRECTION('',(1.,0.,0.));
#754=DIRECTION('',(0.,0.,-1.));
#755=DIRECTION('',(1.,0.,0.));
#756=DIRECTION('',(0.,0.,1.));
#757=DIRECTION('',(-1.,0.,0.));
#758=DIRECTION('',(0.,0.,1.));
#759=DIRECTION('',(1.,0.,0.));
#760=DIRECTION('',(0.,-1.,0.));
#761=DIRECTION('',(-1.,0.,0.));
#762=DIRECTION('',(-1.,0.,0.));
#763=DIRECTION('',(0.,-0.899053474601024,-0.43783883999461));
#764=DIRECTION('',(0.,0.43783883999461,-0.899053474601024));
#765=DIRECTION('',(0.,-0.43783883999461,0.899053474601024));
#766=DIRECTION('',(-1.,0.,0.));
#767=DIRECTION('',(0.,-0.522464009120567,0.852661339087017));
#768=DIRECTION('',(1.,0.,0.));
#769=DIRECTION('',(1.,0.,0.));
#770=DIRECTION('',(0.,0.852661339087017,0.522464009120567));
#771=DIRECTION('',(-1.,0.,0.));
#772=DIRECTION('',(0.,0.,1.));
#773=DIRECTION('',(1.,0.,0.));
#774=DIRECTION('',(1.,0.,0.));
#775=DIRECTION('',(0.,1.,0.));
#776=DIRECTION('',(0.,-1.,0.));
#777=DIRECTION('',(0.,0.,-1.));
#778=DIRECTION('',(0.,1.,0.));
#779=DIRECTION('',(0.,-3.80481553442897E-18,1.));
#780=DIRECTION('',(0.,1.,0.));
#781=DIRECTION('',(0.,9.87010217313653E-18,1.));
#782=DIRECTION('',(0.,1.,0.));
#783=DIRECTION('',(0.,3.29680189195024E-18,1.));
#784=DIRECTION('',(0.,0.,1.));
#785=DIRECTION('',(1.,0.,0.));
#786=DIRECTION('',(0.,0.,1.));
#787=DIRECTION('',(-1.,0.,0.));
#788=DIRECTION('',(0.,0.,1.));
#789=DIRECTION('',(0.,0.,-1.));
#790=DIRECTION('',(1.,0.,0.));
#791=DIRECTION('',(0.,0.,-1.));
#792=DIRECTION('',(1.,0.,0.));
#793=DIRECTION('',(0.,-0.899053474601024,-0.43783883999461));
#794=DIRECTION('',(0.,1.,0.));
#795=DIRECTION('',(0.,0.,1.));
#796=DIRECTION('',(0.,-1.,0.));
#797=DIRECTION('',(0.,2.01298128875753E-17,1.));
#798=DIRECTION('',(0.,-1.,0.));
#799=DIRECTION('',(0.,3.29680189195024E-18,1.));
#800=DIRECTION('',(0.,1.,0.));
#801=DIRECTION('',(0.,0.,1.));
#802=DIRECTION('',(0.,1.,0.));
#803=DIRECTION('',(0.,0.,1.));
#804=DIRECTION('',(0.,1.,0.));
#805=DIRECTION('',(0.,0.,1.));
#806=DIRECTION('',(1.,0.,0.));
#807=DIRECTION('',(0.,0.,-1.));
#808=DIRECTION('',(1.,0.,0.));
#809=DIRECTION('',(0.,0.,-1.));
#810=DIRECTION('',(0.,1.,0.));
#811=DIRECTION('',(-1.,0.,0.));
#812=DIRECTION('',(0.,0.,-1.));
#813=DIRECTION('',(0.,-0.394354721139173,0.918958298246033));
#814=DIRECTION('',(-1.,0.,0.));
#815=DIRECTION('',(0.,-0.120202117249632,-0.992749440195615));
#816=DIRECTION('',(0.,0.,1.));
#817=DIRECTION('',(0.,1.,0.));
#818=DIRECTION('',(0.,0.,1.));
#819=DIRECTION('',(1.,0.,0.));
#820=DIRECTION('',(0.,1.,0.));
#821=DIRECTION('',(-1.,0.,0.));
#822=DIRECTION('',(0.,-0.918958298246033,-0.394354721139173));
#823=DIRECTION('',(0.,0.394354721139173,-0.918958298246033));
#824=DIRECTION('',(1.,0.,0.));
#825=DIRECTION('',(0.,-0.394354721139173,0.918958298246033));
#826=DIRECTION('',(0.999999999198934,1.57846987276604E-5,-3.67828229346525E-5));
#827=DIRECTION('',(0.,1.,0.));
#828=DIRECTION('',(0.,0.,1.));
#829=DIRECTION('',(-0.999999999738122,0.,2.28857114471662E-5));
#830=DIRECTION('',(0.,0.,1.));
#831=DIRECTION('',(-1.,0.,0.));
#832=DIRECTION('',(0.,0.,1.));
#833=DIRECTION('',(1.,0.,0.));
#834=DIRECTION('',(0.,1.,0.));
#835=DIRECTION('',(0.,0.,1.));
#836=DIRECTION('',(1.,0.,0.));
#837=DIRECTION('',(0.,-1.,0.));
#838=DIRECTION('',(-1.,0.,0.));
#839=DIRECTION('',(0.,1.,0.));
#840=DIRECTION('',(1.,0.,0.));
#841=DIRECTION('',(0.,0.,-1.));
#842=DIRECTION('',(1.,0.,0.));
#843=DIRECTION('',(-3.14924717273426E-17,-1.,0.));
#844=DIRECTION('',(0.,0.,1.));
#845=DIRECTION('',(-1.,0.,0.));
#846=DIRECTION('',(0.,-0.120202117222518,0.992749440198897));
#847=DIRECTION('',(0.,0.394354721139173,0.918958298246033));
#848=DIRECTION('',(-1.,0.,0.));
#849=DIRECTION('',(0.,0.,1.));
#850=DIRECTION('',(0.,1.,0.));
#851=DIRECTION('',(0.,1.,0.));
#852=DIRECTION('',(0.,0.,1.));
#853=DIRECTION('',(0.,0.,1.));
#854=DIRECTION('',(0.999999999738122,0.,2.28857114470026E-5));
#855=DIRECTION('',(0.,-0.918958298246033,0.394354721139173));
#856=DIRECTION('',(0.,-0.394354721139173,-0.918958298246033));
#857=DIRECTION('',(-0.999999999198934,-1.57846987282325E-5,-3.67828229359154E-5));
#858=DIRECTION('',(0.,0.394354721139173,0.918958298246033));
#859=DIRECTION('',(-1.,0.,0.));
#860=DIRECTION('',(0.,0.,1.));
#861=DIRECTION('',(1.,0.,0.));
#862=DIRECTION('',(1.,0.,0.));
#863=DIRECTION('',(0.,1.,0.));
#864=DIRECTION('',(1.,0.,0.));
#865=DIRECTION('',(0.,0.,-1.));
#866=DIRECTION('',(-1.,0.,0.));
#867=DIRECTION('',(-3.14924717273426E-17,-1.,0.));
#868=DIRECTION('',(-1.,0.,0.));
#869=DIRECTION('',(-3.14924823113198E-17,-1.,0.));
#870=DIRECTION('',(-1.,0.,0.));
#871=DIRECTION('',(0.,0.,1.));
#872=DIRECTION('',(-1.,0.,0.));
#873=DIRECTION('',(0.,-0.120202117222518,0.992749440198897));
#874=DIRECTION('',(-1.,0.,0.));
#875=DIRECTION('',(0.,-0.120202117222618,-0.992749440198885));
#876=DIRECTION('',(-1.,0.,0.));
#877=DIRECTION('',(0.,0.,-1.));
#878=DIRECTION('',(1.,1.25645381887614E-17,-1.16445648829833E-18));
#879=DIRECTION('',(1.25645381887614E-17,-1.,0.));
#880=DIRECTION('',(-1.,0.,0.));
#881=DIRECTION('',(1.25645381887614E-17,-1.,0.));
#882=DIRECTION('',(1.,0.,0.));
#883=DIRECTION('',(0.,-0.899053474601024,-0.43783883999461));
#884=DIRECTION('',(-2.06435590039155E-18,-1.,3.29680189195024E-18));
#885=DIRECTION('',(0.,3.29680189195024E-18,1.));
#886=DIRECTION('',(-1.42482417005338E-15,-1.,2.01298128875753E-17));
#887=DIRECTION('',(0.,2.01298128875753E-17,1.));
#888=DIRECTION('',(-4.76186153436266E-26,-1.,9.87010217313653E-18));
#889=DIRECTION('',(0.,9.87010217313653E-18,1.));
#890=DIRECTION('',(-1.11873220124883E-17,-1.,-3.80481553442897E-18));
#891=DIRECTION('',(0.,-3.80481553442897E-18,1.));
#892=DIRECTION('',(1.,0.,0.));
#893=DIRECTION('',(0.,0.,-1.));
#894=DIRECTION('',(1.,-3.14924823113197E-17,5.79565161452507E-17));
#895=DIRECTION('',(-3.14924823113198E-17,-1.,0.));
#896=DIRECTION('',(1.42482413578163E-15,-1.,2.0129795856064E-17));
#897=DIRECTION('',(0.,2.0129795856064E-17,1.));
#898=DIRECTION('',(1.,-3.14924717273426E-17,-5.79565267285548E-17));
#899=DIRECTION('',(-3.14924717273426E-17,-1.,0.));
#900=DIRECTION('',(1.,0.,0.));
#901=DIRECTION('',(0.,0.,1.));
#902=DIRECTION('',(0.999999999705576,-2.91684619220512E-6,-2.40902364343104E-5));
#903=DIRECTION('',(-2.9168461930515E-6,-0.999999999995746,0.));
#904=DIRECTION('',(0.999999999705576,-2.91684619222303E-6,2.40902364341415E-5));
#905=DIRECTION('',(-2.91684619306941E-6,-0.999999999995746,0.));
#906=DIRECTION('',(-1.,0.,0.));
#907=DIRECTION('',(0.,0.,1.));
#908=DIRECTION('',(-1.,0.,0.));
#909=DIRECTION('',(0.,0.,1.));
#910=DIRECTION('',(-1.,0.,0.));
#911=DIRECTION('',(0.,0.,1.));
#912=CARTESIAN_POINT('',(0.,0.,0.));
#913=CARTESIAN_POINT('',(-0.0270000004768372,-0.0135000002384186,0.00550000004470348));
#914=CARTESIAN_POINT('',(-0.0270000004768372,-0.0135000004371008,0.00549999999503294));
#915=CARTESIAN_POINT('',(-0.0270000004768372,-0.0150000004583135,0.00549999999503294));
#916=CARTESIAN_POINT('',(-0.0210000014305115,-0.0127224019027892,0.00452079445123672));
#917=CARTESIAN_POINT('',(-0.0210000014305115,-0.0135000004371008,0.00549999999503294));
#918=CARTESIAN_POINT('',(-0.0210000014305115,-0.0135000004371008,0.00799999999503294));
#919=CARTESIAN_POINT('',(-0.0210000014305115,-0.00951120092755272,-0.0133749997615814));
#920=CARTESIAN_POINT('',(-0.0210000014305115,-0.00449999988079071,-0.0133749997615814));
#921=CARTESIAN_POINT('',(-0.0210000014305115,-0.0075,-0.0133749997615814));
#922=CARTESIAN_POINT('',(-0.0210000014305115,-0.0137386322963712,-0.000564660590027555));
#923=CARTESIAN_POINT('',(-0.0210000014305115,-0.0163632106781006,0.00482461988925934));
#924=CARTESIAN_POINT('',(-0.0210000014305115,-0.014565104819945,0.00570029703790917));
#925=CARTESIAN_POINT('',(-0.0210000014305115,-0.0156100322041499,0.0074056186813359));
#926=CARTESIAN_POINT('',(-0.0210000014305115,-0.0131753973965377,0.00889742909189295));
#927=CARTESIAN_POINT('',(-0.0210000014305115,-0.0075,0.0123750007152557));
#928=CARTESIAN_POINT('',(-0.0210000014305115,-0.00951120092755272,0.0123750007152557));
#929=CARTESIAN_POINT('',(-0.0210000014305115,-0.00449999988079071,0.0123750007152557));
#930=CARTESIAN_POINT('',(-0.0210000014305115,-0.00449999988079071,0.00201039724905665));
#931=CARTESIAN_POINT('',(0.000916666686534882,-0.00449999988079071,-0.00049999995312343));
#932=CARTESIAN_POINT('',(0.0120000001647433,-0.00449999988079069,-0.000499999993972347));
#933=CARTESIAN_POINT('',(0.0120000001647433,-0.00449999988079069,0.000600001144822773));
#934=CARTESIAN_POINT('',(-5.89039352221722E-28,-0.00449999988079071,-0.000500000106066971));
#935=CARTESIAN_POINT('',(-5.89039352221722E-28,-0.00449999988079071,0.00347499980902856));
#936=CARTESIAN_POINT('',(-0.0120000001647433,-0.00449999988079069,-0.000499999993972347));
#937=CARTESIAN_POINT('',(-0.0120000001647433,-0.00449999988079069,0.000600001144822773));
#938=CARTESIAN_POINT('',(-0.00344166687130928,-0.00449999988079071,0.0123750007152557));
#939=CARTESIAN_POINT('',(0.0110000002384186,-0.00449999988079071,0.0123750007152557));
#940=CARTESIAN_POINT('',(0.0110000002384186,-0.00449999988079071,0.00634157589478148));
#941=CARTESIAN_POINT('',(0.0110000002384186,-0.00449999988079071,0.0157750015258789));
#942=CARTESIAN_POINT('',(0.00845833376049995,-0.00449999988079071,0.0157750015258789));
#943=CARTESIAN_POINT('',(0.0210000014305115,-0.00449999988079071,0.0157750015258789));
#944=CARTESIAN_POINT('',(0.0210000014305115,-0.00449999988079071,-0.000499999738143136));
#945=CARTESIAN_POINT('',(0.0210000014305115,-0.00449999988079071,-0.0167750005722046));
#946=CARTESIAN_POINT('',(0.00845833376049995,-0.00449999988079071,-0.0167750005722046));
#947=CARTESIAN_POINT('',(0.0110000002384186,-0.00449999988079071,-0.0167750005722046));
#948=CARTESIAN_POINT('',(0.0110000002384186,-0.00449999988079071,-0.00049999995312343));
#949=CARTESIAN_POINT('',(0.0110000002384186,-0.00449999988079071,-0.0133749997615814));
#950=CARTESIAN_POINT('',(-0.00344166687130928,-0.00449999988079071,-0.0133749997615814));
#951=CARTESIAN_POINT('',(-0.00780000042915344,-0.00629999995231628,-0.0133749997615814));
#952=CARTESIAN_POINT('',(0.0110000002384186,-0.00629999995231628,-0.0133749997615814));
#953=CARTESIAN_POINT('',(0.0110000002384186,-0.0075,-0.0133749997615814));
#954=CARTESIAN_POINT('',(-0.00350000018378099,-0.0075,-0.0133749997615814));
#955=CARTESIAN_POINT('',(-0.0189999997615814,-0.0075,-0.0133749997615814));
#956=CARTESIAN_POINT('',(-0.0139000005125999,-0.0075,-0.0133749997615814));
#957=CARTESIAN_POINT('',(-0.0200000005960464,-0.0119316053390503,-0.00427518993616104));
#958=CARTESIAN_POINT('',(-0.0189999997615814,-0.0137879907172584,-0.00046330854962834));
#959=CARTESIAN_POINT('',(-0.0189999997615814,-0.0163632106781006,0.00482461988925934));
#960=CARTESIAN_POINT('',(-0.0210000014305115,-0.0163632106781006,0.00482461988925934));
#961=CARTESIAN_POINT('',(-0.0200000005960464,-0.0115550148487091,0.00989031046628952));
#962=CARTESIAN_POINT('',(-0.0210000014305115,-0.0156100322041499,0.0074056186813359));
#963=CARTESIAN_POINT('',(-0.0189999997615814,-0.0156100322041499,0.0074056186813359));
#964=CARTESIAN_POINT('',(-0.0189999997615814,-0.0135991907921937,0.0086377517893307));
#965=CARTESIAN_POINT('',(-0.0189999997615814,-0.0075,0.0123750007152557));
#966=CARTESIAN_POINT('',(-0.0139000005125999,-0.0075,0.0123750007152557));
#967=CARTESIAN_POINT('',(-0.00780000042915344,-0.00629999995231628,0.0123750007152557));
#968=CARTESIAN_POINT('',(-0.00350000018378099,-0.0075,0.0123750007152557));
#969=CARTESIAN_POINT('',(0.0110000002384186,-0.0075,0.0123750007152557));
#970=CARTESIAN_POINT('',(0.0110000002384186,-0.00979002610496853,0.0123750007152557));
#971=CARTESIAN_POINT('',(0.000800000061591466,-0.0075,-0.000499999968955914));
#972=CARTESIAN_POINT('',(0.0120000004858762,-0.0075,-0.000500000021985377));
#973=CARTESIAN_POINT('',(0.0120000004858762,-0.0075,0.00225000103355342));
#974=CARTESIAN_POINT('',(-7.31895203929183E-28,-0.0075,-0.000500000106066971));
#975=CARTESIAN_POINT('',(-7.31895203929183E-28,-0.0075,0.00347499980902856));
#976=CARTESIAN_POINT('',(-0.0120000003496477,-0.0075,-0.000500000024713131));
#977=CARTESIAN_POINT('',(-0.0120000003496477,-0.0075,0.00239999935775711));
#978=CARTESIAN_POINT('',(0.0110000002384186,-0.0075,-0.000499999968955914));
#979=CARTESIAN_POINT('',(0.0110000002384186,-0.0075,-0.011875));
#980=CARTESIAN_POINT('',(0.00840000044802825,-0.0075,-0.011875));
#981=CARTESIAN_POINT('',(0.0210000014305115,-0.0075,-0.011875));
#982=CARTESIAN_POINT('',(0.0210000014305115,-0.0075,-0.000499999746059378));
#983=CARTESIAN_POINT('',(0.0210000014305115,-0.0075,0.0108750009536743));
#984=CARTESIAN_POINT('',(0.00840000044802825,-0.0075,0.0108750009536743));
#985=CARTESIAN_POINT('',(0.0110000002384186,-0.0075,0.0108750009536743));
#986=CARTESIAN_POINT('',(0.0110000002384186,-0.0075,0.00634157588686524));
#987=CARTESIAN_POINT('',(-0.0189999997615814,-0.0075,0.00188833444308312));
#988=CARTESIAN_POINT('',(-0.0189999997615814,-0.0137386339051383,0.00427666885512216));
#989=CARTESIAN_POINT('',(-0.0189999997615814,-0.014565104819945,0.00570029703790917));
#990=CARTESIAN_POINT('',(-0.012000000339288,-0.00600000023841858,-0.000500000010316188));
#991=CARTESIAN_POINT('',(-0.0120000001647433,-0.00600000023841858,-0.000499999993972347));
#992=CARTESIAN_POINT('',(-0.0120000001647433,-0.00600000023841858,0.000600001144822773));
#993=CARTESIAN_POINT('',(-0.0120000003496477,-0.00600000023841858,-0.000500000024713131));
#994=CARTESIAN_POINT('',(-0.0120000003496477,-0.00600000023841858,0.00239999935775711));
#995=CARTESIAN_POINT('',(-0.012000000339288,-0.00600000023841858,-0.000500000010316188));
#996=CARTESIAN_POINT('',(0.0120000001647433,-0.00600000023841858,-0.000499999993972347));
#997=CARTESIAN_POINT('',(0.0120000001647433,-0.00600000023841858,0.000600001144822773));
#998=CARTESIAN_POINT('',(0.0120000004858762,-0.00600000023841858,-0.000500000021985377));
#999=CARTESIAN_POINT('',(0.0120000004858762,-0.00600000023841858,0.00225000103355342));
#1000=CARTESIAN_POINT('',(0.0110000002384186,-0.0132800522576208,0.0131831517426864));
#1001=CARTESIAN_POINT('',(0.0110000002384186,-0.0135000000736755,-0.014274999685571));
#1002=CARTESIAN_POINT('',(0.0110000002384186,-0.0135000000736755,-0.015175001380329));
#1003=CARTESIAN_POINT('',(0.0110000002384186,-0.00900000005960464,-0.0167750005722046));
#1004=CARTESIAN_POINT('',(0.0110000002384186,-0.0135000002384186,-0.0167750005722046));
#1005=CARTESIAN_POINT('',(0.0110000002384186,-0.0135000002384186,-0.0142749960370425));
#1006=CARTESIAN_POINT('',(0.0110000002384186,-0.015543733021616,-0.0157148498444532));
#1007=CARTESIAN_POINT('',(0.0110000002384186,-0.0256642022346717,0.00786871253465385));
#1008=CARTESIAN_POINT('',(0.0110000002384186,-0.0161698170028707,-0.0142558966758164));
#1009=CARTESIAN_POINT('',(0.0110000002384186,-0.0181525720051255,-0.0171767699199155));
#1010=CARTESIAN_POINT('',(0.0110000002384185,-0.019500000476869,-0.0139137566296027));
#1011=CARTESIAN_POINT('',(0.0110000002384186,-0.0195000004768372,0.0131831517426864));
#1012=CARTESIAN_POINT('',(0.0110000002384186,-0.0195000004768372,-0.011875));
#1013=CARTESIAN_POINT('',(0.0110000002384186,-0.0132800522576208,-0.011875));
#1014=CARTESIAN_POINT('',(0.016000000834465,-0.00900000005960464,-0.0167750005722046));
#1015=CARTESIAN_POINT('',(0.0210000014305115,-0.0114866953165758,-0.0167750005722046));
#1016=CARTESIAN_POINT('',(0.0210000014305115,-0.0135000002384186,-0.0167750005722046));
#1017=CARTESIAN_POINT('',(0.0110000002384186,-0.0135000002384186,-0.0167750005722046));
#1018=CARTESIAN_POINT('',(0.016000000834465,-0.0158995092470844,-0.0148857903779697));
#1019=CARTESIAN_POINT('',(0.0110000002384186,-0.0155437330216159,-0.0157148498444533));
#1020=CARTESIAN_POINT('',(0.0210000014305115,-0.0155437330215746,-0.0157148498445339));
#1021=CARTESIAN_POINT('',(0.0210000014305115,-0.0183564116994539,-0.00916051114189547));
#1022=CARTESIAN_POINT('',(0.0210000014305115,-0.0161696592735352,-0.0142562642298851));
#1023=CARTESIAN_POINT('',(-0.00300034907949728,-0.0161700378562418,-0.0142553820248506));
#1024=CARTESIAN_POINT('',(0.016000000834465,-0.0195000004768372,0.011625000834465));
#1025=CARTESIAN_POINT('',(-0.00300035055493096,-0.0195000004768372,-0.0139134362269878));
#1026=CARTESIAN_POINT('',(0.0210000014305115,-0.019500000476869,-0.0139139854871311));
#1027=CARTESIAN_POINT('',(0.0210000014305115,-0.0195000004768372,0.011625000834465));
#1028=CARTESIAN_POINT('',(0.0210000014305115,-0.0195000004768372,-0.011875));
#1029=CARTESIAN_POINT('',(0.016000000834465,-0.0195000004768372,-0.011875));
#1030=CARTESIAN_POINT('',(0.016000000834465,-0.0135000002384186,-0.011875));
#1031=CARTESIAN_POINT('',(0.0210000014305115,-0.0137366954059828,-0.011875));
#1032=CARTESIAN_POINT('',(0.016000000834465,-0.0135000002384186,0.0108750009536743));
#1033=CARTESIAN_POINT('',(0.0210000014305115,-0.0137366954059828,0.0108750009536743));
#1034=CARTESIAN_POINT('',(0.0210000014305115,-0.0195000004768372,0.0108750009536743));
#1035=CARTESIAN_POINT('',(0.016000000834465,-0.0195000004768372,0.0108750009536743));
#1036=CARTESIAN_POINT('',(0.0110000002384186,-0.0195000004768372,0.0108750009536743));
#1037=CARTESIAN_POINT('',(0.0110000002384186,-0.0133900262480197,0.0108750009536743));
#1038=CARTESIAN_POINT('',(0.0110000002384186,-0.0132800522576208,0.0131831517426864));
#1039=CARTESIAN_POINT('',(0.0110000002384186,-0.0135000000736755,0.0132750006392454));
#1040=CARTESIAN_POINT('',(0.0110000002384186,-0.0144000017684335,0.0132750006392454));
#1041=CARTESIAN_POINT('',(0.0110000002384186,-0.0195000004768372,0.0124040762885757));
#1042=CARTESIAN_POINT('',(0.0110000002384186,-0.0195000004768372,0.0129137575807055));
#1043=CARTESIAN_POINT('',(0.0110000002384186,-0.0181525720051255,0.0161767708735898));
#1044=CARTESIAN_POINT('',(0.0110000002384186,-0.0161698171406379,0.0132558973084553));
#1045=CARTESIAN_POINT('',(0.0110000002384186,-0.0158231427018732,0.0140637470315975));
#1046=CARTESIAN_POINT('',(0.0110000002384186,-0.0155437330215746,0.0147148507982082));
#1047=CARTESIAN_POINT('',(0.0110000002384186,-0.0135000002384186,0.0132749969907168));
#1048=CARTESIAN_POINT('',(0.0110000002384186,-0.0135000002384186,0.0157750015258789));
#1049=CARTESIAN_POINT('',(0.0110000002384186,-0.0111400261586127,0.0157750015258789));
#1050=CARTESIAN_POINT('',(0.016000000834465,-0.0195000004768372,0.011625000834465));
#1051=CARTESIAN_POINT('',(0.0210000014305115,-0.0195000004768372,0.00556250065565109));
#1052=CARTESIAN_POINT('',(0.0210000014305115,-0.0195000004768372,0.0129139864384272));
#1053=CARTESIAN_POINT('',(-0.00300034453237184,-0.0195000004768372,0.0129134371808));
#1054=CARTESIAN_POINT('',(0.016000000834465,-0.0158995092470844,0.013885791331644));
#1055=CARTESIAN_POINT('',(-0.00300034305693817,-0.0161700378561469,0.0132553829787461));
#1056=CARTESIAN_POINT('',(0.0210000014305115,-0.0161696592735352,0.0132562651835594));
#1057=CARTESIAN_POINT('',(0.0210000014305115,-0.0183564116994539,0.00816051209556979));
#1058=CARTESIAN_POINT('',(0.0210000014305115,-0.0155437330215746,0.0147148507982082));
#1059=CARTESIAN_POINT('',(0.0110000002384186,-0.0155437330216159,0.0147148507981276));
#1060=CARTESIAN_POINT('',(0.016000000834465,-0.00900000005960464,0.0157750015258789));
#1061=CARTESIAN_POINT('',(0.0110000002384186,-0.0135000002384186,0.0157750015258789));
#1062=CARTESIAN_POINT('',(0.0210000014305115,-0.0135000002384186,0.0157750015258789));
#1063=CARTESIAN_POINT('',(0.0210000014305115,-0.0114866953165758,0.0157750015258789));
#1064=CARTESIAN_POINT('',(0.0210000014305115,-0.013973390573547,-0.000499999523162842));
#1065=CARTESIAN_POINT('',(0.0210000014305115,-0.0135000000736755,0.0132750006392454));
#1066=CARTESIAN_POINT('',(0.0210000014305115,-0.0144000017684335,0.0132750006392454));
#1067=CARTESIAN_POINT('',(0.0210000014305115,-0.0135000000736755,-0.014274999685571));
#1068=CARTESIAN_POINT('',(0.0210000014305115,-0.0144000017684335,-0.014274999685571));
#1069=CARTESIAN_POINT('',(0.0210000014305115,-0.0135000002384186,0.0132749969907168));
#1070=CARTESIAN_POINT('',(0.0210000014305115,-0.0181526011735909,0.0161770117759829));
#1071=CARTESIAN_POINT('',(0.0210000014305115,-0.0181526011735909,-0.0171770108223086));
#1072=CARTESIAN_POINT('',(0.0210000014305115,-0.0135000002384186,-0.0142749960370425));
#1073=CARTESIAN_POINT('',(-0.0270000004768372,-0.0135000004371008,0.00549999999503294));
#1074=CARTESIAN_POINT('',(-0.0220000014305115,-0.0135000004371008,0.00549999999503294));
#1075=CARTESIAN_POINT('',(-0.0220000014305115,-0.0150000004583135,0.00549999999503294));
#1076=CARTESIAN_POINT('',(-0.0210000014305115,-0.014565104819945,0.00570029703790917));
#1077=CARTESIAN_POINT('',(-0.0120000003496477,-0.00600000023841858,-0.000500000024713131));
#1078=CARTESIAN_POINT('',(-0.0120000001647433,-0.00449999988079071,-0.000499999993972347));
#1079=CARTESIAN_POINT('',(-5.89039352221722E-28,-0.00449999988079071,-0.000500000106066971));
#1080=CARTESIAN_POINT('',(0.0120000004858762,-0.00600000023841858,-0.000500000021985377));
#1081=CARTESIAN_POINT('',(0.0110000002384186,-0.0135000002384186,-0.0142749960370425));
#1082=CARTESIAN_POINT('',(0.0110000002384186,-0.0135000000736755,-0.014274999685571));
#1083=CARTESIAN_POINT('',(0.0120000001647433,-0.00449999988079071,-0.000499999993972347));
#1084=CARTESIAN_POINT('',(0.0110000002384186,-0.0135000000736755,0.0132750006392454));
#1085=CARTESIAN_POINT('',(0.0110000002384186,-0.0135000002384186,0.0132749969907168));
#1086=CARTESIAN_POINT('',(0.010999999433665,-0.0181525720051232,-0.0171767699198961));
#1087=CARTESIAN_POINT('',(0.010999999433665,-0.0181525720051232,0.0161767708735704));
#1088=CARTESIAN_POINT('',(-0.0220000014305115,-0.0135000004371008,0.00549999999503294));
#1089=CARTESIAN_POINT('',(-0.0220000014305115,-0.0135000004371008,0.00549999999503294));
#1090=CARTESIAN_POINT('',(-0.0220000014305115,-0.0135000004371008,0.00799999999503294));
#1091=CARTESIAN_POINT('',(-0.0210000014305115,-0.0135000004371008,0.00549999999503294));
#1092=MECHANICAL_DESIGN_GEOMETRIC_PRESENTATION_REPRESENTATION('',(#649),
#1093);
#1093=(
GEOMETRIC_REPRESENTATION_CONTEXT(3)
GLOBAL_UNCERTAINTY_ASSIGNED_CONTEXT((#1094))
GLOBAL_UNIT_ASSIGNED_CONTEXT((#1097,#1096,#1095))
REPRESENTATION_CONTEXT('Gimbal Pan','TOP_LEVEL_ASSEMBLY_PART')
);
#1094=UNCERTAINTY_MEASURE_WITH_UNIT(LENGTH_MEASURE(1.E-6),#1097,
'DISTANCE_ACCURACY_VALUE','Maximum Tolerance applied to model');
#1095=(
NAMED_UNIT(*)
SI_UNIT($,.STERADIAN.)
SOLID_ANGLE_UNIT()
);
#1096=(
NAMED_UNIT(*)
PLANE_ANGLE_UNIT()
SI_UNIT($,.RADIAN.)
);
#1097=(
LENGTH_UNIT()
NAMED_UNIT(*)
SI_UNIT($,.METRE.)
);
#1098=PRODUCT_DEFINITION_SHAPE('','',#1099);
#1099=PRODUCT_DEFINITION('','',#1101,#1100);
#1100=PRODUCT_DEFINITION_CONTEXT('',#1107,'design');
#1101=PRODUCT_DEFINITION_FORMATION_WITH_SPECIFIED_SOURCE('','',#1103,
 .NOT_KNOWN.);
#1102=PRODUCT_RELATED_PRODUCT_CATEGORY('','',(#1103));
#1103=PRODUCT('Gimbal Pan','Gimbal Pan','Gimbal Pan',(#1105));
#1104=PRODUCT_CATEGORY('','');
#1105=PRODUCT_CONTEXT('',#1107,'mechanical');
#1106=APPLICATION_PROTOCOL_DEFINITION('international standard',
'ap242_managed_model_based_3d_engineering',2020,#1107);
#1107=APPLICATION_CONTEXT('managed model based 3d engineering');
ENDSEC;
END-ISO-10303-21;
