ISO-10303-21;
HEADER;
/* Generated by software containing ST-Developer
 * from STEP Tools, Inc. (www.steptools.com) 
 */
/* OPTION: using custom renumber hook */

FILE_DESCRIPTION(
/* description */ ('STEP AP242 Edition 2',
'CAx-IF Rec.Pracs.---Representation and Presentation of Product Manufa
cturing Information (PMI)---4.0---2014-10-13',
'CAx-IF Rec.Pracs.---3D Tessellated Geometry---0.4---2014-09-14','2;1',
'CAx-IF Rec.Pracs.---User Defined Attributes---1.5---2016-08-15'),
/* implementation_level */ '2;1');

FILE_NAME(
/* name */ 'DEXI 3 Flow Mount Top v2 - DEXI 3 Flow Mount Top v2',
/* time_stamp */ '2026-08-25T18:24:04Z',
/* author */ (''),
/* organization */ (''),
/* preprocessor_version */ 'ST-DEVELOPER v20',
/* originating_system */ 'ONSHAPE BY PTC INC, 1.219',
/* authorisation */ '  ');

FILE_SCHEMA (('AP242_MANAGED_MODEL_BASED_3D_ENGINEERING_MIM_LF { 1 0 10303 442 3 1 4 }'));
ENDSEC;

DATA;
#10=SHAPE_REPRESENTATION_RELATIONSHIP('','',#677,#11);
#11=ADVANCED_BREP_SHAPE_REPRESENTATION('',(#675),#1113);
#12=PLANE('',#685);
#13=PLANE('',#686);
#14=PLANE('',#690);
#15=PLANE('',#691);
#16=PLANE('',#692);
#17=PLANE('',#703);
#18=PLANE('',#712);
#19=PLANE('',#715);
#20=PLANE('',#716);
#21=PLANE('',#719);
#22=PLANE('',#720);
#23=PLANE('',#721);
#24=PLANE('',#722);
#25=PLANE('',#723);
#26=PLANE('',#724);
#27=PLANE('',#725);
#28=PLANE('',#726);
#29=PLANE('',#727);
#30=PLANE('',#729);
#31=PLANE('',#733);
#32=PLANE('',#734);
#33=PLANE('',#738);
#34=LINE('',#931,#96);
#35=LINE('',#935,#97);
#36=LINE('',#940,#98);
#37=LINE('',#944,#99);
#38=LINE('',#946,#100);
#39=LINE('',#947,#101);
#40=LINE('',#949,#102);
#41=LINE('',#950,#103);
#42=LINE('',#957,#104);
#43=LINE('',#960,#105);
#44=LINE('',#962,#106);
#45=LINE('',#964,#107);
#46=LINE('',#966,#108);
#47=LINE('',#969,#109);
#48=LINE('',#971,#110);
#49=LINE('',#973,#111);
#50=LINE('',#983,#112);
#51=LINE('',#986,#113);
#52=LINE('',#990,#114);
#53=LINE('',#992,#115);
#54=LINE('',#993,#116);
#55=LINE('',#996,#117);
#56=LINE('',#1000,#118);
#57=LINE('',#1002,#119);
#58=LINE('',#1003,#120);
#59=LINE('',#1005,#121);
#60=LINE('',#1009,#122);
#61=LINE('',#1013,#123);
#62=LINE('',#1014,#124);
#63=LINE('',#1018,#125);
#64=LINE('',#1022,#126);
#65=LINE('',#1024,#127);
#66=LINE('',#1028,#128);
#67=LINE('',#1032,#129);
#68=LINE('',#1033,#130);
#69=LINE('',#1037,#131);
#70=LINE('',#1049,#132);
#71=LINE('',#1051,#133);
#72=LINE('',#1053,#134);
#73=LINE('',#1057,#135);
#74=LINE('',#1059,#136);
#75=LINE('',#1061,#137);
#76=LINE('',#1063,#138);
#77=LINE('',#1065,#139);
#78=LINE('',#1067,#140);
#79=LINE('',#1071,#141);
#80=LINE('',#1073,#142);
#81=LINE('',#1075,#143);
#82=LINE('',#1077,#144);
#83=LINE('',#1079,#145);
#84=LINE('',#1081,#146);
#85=LINE('',#1084,#147);
#86=LINE('',#1086,#148);
#87=LINE('',#1088,#149);
#88=LINE('',#1091,#150);
#89=LINE('',#1092,#151);
#90=LINE('',#1094,#152);
#91=LINE('',#1095,#153);
#92=LINE('',#1098,#154);
#93=LINE('',#1102,#155);
#94=LINE('',#1105,#156);
#95=LINE('',#1110,#157);
#96=VECTOR('',#746,1.);
#97=VECTOR('',#749,1.);
#98=VECTOR('',#754,1.);
#99=VECTOR('',#757,1.);
#100=VECTOR('',#760,1.);
#101=VECTOR('',#761,1.);
#102=VECTOR('',#764,1.);
#103=VECTOR('',#765,1.);
#104=VECTOR('',#774,1.);
#105=VECTOR('',#775,1.);
#106=VECTOR('',#776,1.);
#107=VECTOR('',#777,1.);
#108=VECTOR('',#780,1.);
#109=VECTOR('',#781,1.);
#110=VECTOR('',#782,1.);
#111=VECTOR('',#783,1.);
#112=VECTOR('',#794,1.);
#113=VECTOR('',#795,1.);
#114=VECTOR('',#798,1.);
#115=VECTOR('',#799,1.);
#116=VECTOR('',#800,1.);
#117=VECTOR('',#801,1.);
#118=VECTOR('',#804,1.);
#119=VECTOR('',#805,1.);
#120=VECTOR('',#806,1.);
#121=VECTOR('',#807,1.);
#122=VECTOR('',#810,1.);
#123=VECTOR('',#813,1.);
#124=VECTOR('',#814,1.);
#125=VECTOR('',#817,1.);
#126=VECTOR('',#822,1.);
#127=VECTOR('',#823,1.);
#128=VECTOR('',#826,1.);
#129=VECTOR('',#829,1.);
#130=VECTOR('',#830,1.);
#131=VECTOR('',#833,1.);
#132=VECTOR('',#846,1.);
#133=VECTOR('',#847,1.);
#134=VECTOR('',#848,1.);
#135=VECTOR('',#853,1.);
#136=VECTOR('',#856,1.);
#137=VECTOR('',#857,1.);
#138=VECTOR('',#860,1.);
#139=VECTOR('',#861,1.);
#140=VECTOR('',#862,1.);
#141=VECTOR('',#867,1.);
#142=VECTOR('',#870,1.);
#143=VECTOR('',#871,1.);
#144=VECTOR('',#874,1.);
#145=VECTOR('',#875,1.);
#146=VECTOR('',#878,1.);
#147=VECTOR('',#883,1.);
#148=VECTOR('',#884,1.);
#149=VECTOR('',#887,1.);
#150=VECTOR('',#892,1.);
#151=VECTOR('',#893,1.);
#152=VECTOR('',#896,1.);
#153=VECTOR('',#897,1.);
#154=VECTOR('',#902,1.);
#155=VECTOR('',#909,1.);
#156=VECTOR('',#914,1.);
#157=VECTOR('',#923,1.);
#158=ORIENTED_EDGE('',*,*,#334,.F.);
#159=ORIENTED_EDGE('',*,*,#335,.T.);
#160=ORIENTED_EDGE('',*,*,#336,.F.);
#161=ORIENTED_EDGE('',*,*,#337,.T.);
#162=ORIENTED_EDGE('',*,*,#338,.F.);
#163=ORIENTED_EDGE('',*,*,#339,.T.);
#164=ORIENTED_EDGE('',*,*,#340,.F.);
#165=ORIENTED_EDGE('',*,*,#341,.T.);
#166=ORIENTED_EDGE('',*,*,#342,.T.);
#167=ORIENTED_EDGE('',*,*,#337,.F.);
#168=ORIENTED_EDGE('',*,*,#343,.F.);
#169=ORIENTED_EDGE('',*,*,#339,.F.);
#170=ORIENTED_EDGE('',*,*,#335,.F.);
#171=ORIENTED_EDGE('',*,*,#344,.F.);
#172=ORIENTED_EDGE('',*,*,#341,.F.);
#173=ORIENTED_EDGE('',*,*,#345,.T.);
#174=ORIENTED_EDGE('',*,*,#346,.T.);
#175=ORIENTED_EDGE('',*,*,#347,.F.);
#176=ORIENTED_EDGE('',*,*,#348,.F.);
#177=ORIENTED_EDGE('',*,*,#349,.F.);
#178=ORIENTED_EDGE('',*,*,#350,.T.);
#179=ORIENTED_EDGE('',*,*,#351,.F.);
#180=ORIENTED_EDGE('',*,*,#352,.F.);
#181=ORIENTED_EDGE('',*,*,#353,.T.);
#182=ORIENTED_EDGE('',*,*,#354,.F.);
#183=ORIENTED_EDGE('',*,*,#355,.F.);
#184=ORIENTED_EDGE('',*,*,#346,.F.);
#185=ORIENTED_EDGE('',*,*,#356,.F.);
#186=ORIENTED_EDGE('',*,*,#357,.F.);
#187=ORIENTED_EDGE('',*,*,#358,.F.);
#188=ORIENTED_EDGE('',*,*,#359,.F.);
#189=ORIENTED_EDGE('',*,*,#360,.F.);
#190=ORIENTED_EDGE('',*,*,#361,.T.);
#191=ORIENTED_EDGE('',*,*,#362,.T.);
#192=ORIENTED_EDGE('',*,*,#363,.T.);
#193=ORIENTED_EDGE('',*,*,#364,.F.);
#194=ORIENTED_EDGE('',*,*,#365,.T.);
#195=ORIENTED_EDGE('',*,*,#366,.T.);
#196=ORIENTED_EDGE('',*,*,#367,.T.);
#197=ORIENTED_EDGE('',*,*,#368,.T.);
#198=ORIENTED_EDGE('',*,*,#369,.T.);
#199=ORIENTED_EDGE('',*,*,#370,.T.);
#200=ORIENTED_EDGE('',*,*,#352,.T.);
#201=ORIENTED_EDGE('',*,*,#371,.T.);
#202=ORIENTED_EDGE('',*,*,#372,.T.);
#203=ORIENTED_EDGE('',*,*,#373,.T.);
#204=ORIENTED_EDGE('',*,*,#374,.T.);
#205=ORIENTED_EDGE('',*,*,#375,.T.);
#206=ORIENTED_EDGE('',*,*,#349,.T.);
#207=ORIENTED_EDGE('',*,*,#376,.T.);
#208=ORIENTED_EDGE('',*,*,#377,.T.);
#209=ORIENTED_EDGE('',*,*,#378,.T.);
#210=ORIENTED_EDGE('',*,*,#379,.T.);
#211=ORIENTED_EDGE('',*,*,#345,.F.);
#212=ORIENTED_EDGE('',*,*,#340,.T.);
#213=ORIENTED_EDGE('',*,*,#343,.T.);
#214=ORIENTED_EDGE('',*,*,#336,.T.);
#215=ORIENTED_EDGE('',*,*,#380,.T.);
#216=ORIENTED_EDGE('',*,*,#354,.T.);
#217=ORIENTED_EDGE('',*,*,#381,.T.);
#218=ORIENTED_EDGE('',*,*,#382,.T.);
#219=ORIENTED_EDGE('',*,*,#383,.T.);
#220=ORIENTED_EDGE('',*,*,#384,.T.);
#221=ORIENTED_EDGE('',*,*,#385,.T.);
#222=ORIENTED_EDGE('',*,*,#351,.T.);
#223=ORIENTED_EDGE('',*,*,#386,.T.);
#224=ORIENTED_EDGE('',*,*,#387,.T.);
#225=ORIENTED_EDGE('',*,*,#388,.T.);
#226=ORIENTED_EDGE('',*,*,#389,.T.);
#227=ORIENTED_EDGE('',*,*,#390,.F.);
#228=ORIENTED_EDGE('',*,*,#391,.F.);
#229=ORIENTED_EDGE('',*,*,#392,.F.);
#230=ORIENTED_EDGE('',*,*,#393,.F.);
#231=ORIENTED_EDGE('',*,*,#347,.T.);
#232=ORIENTED_EDGE('',*,*,#342,.F.);
#233=ORIENTED_EDGE('',*,*,#338,.T.);
#234=ORIENTED_EDGE('',*,*,#344,.T.);
#235=ORIENTED_EDGE('',*,*,#334,.T.);
#236=ORIENTED_EDGE('',*,*,#361,.F.);
#237=ORIENTED_EDGE('',*,*,#394,.F.);
#238=ORIENTED_EDGE('',*,*,#395,.T.);
#239=ORIENTED_EDGE('',*,*,#396,.T.);
#240=ORIENTED_EDGE('',*,*,#362,.F.);
#241=ORIENTED_EDGE('',*,*,#396,.F.);
#242=ORIENTED_EDGE('',*,*,#397,.T.);
#243=ORIENTED_EDGE('',*,*,#398,.T.);
#244=ORIENTED_EDGE('',*,*,#363,.F.);
#245=ORIENTED_EDGE('',*,*,#398,.F.);
#246=ORIENTED_EDGE('',*,*,#399,.T.);
#247=ORIENTED_EDGE('',*,*,#400,.T.);
#248=ORIENTED_EDGE('',*,*,#366,.F.);
#249=ORIENTED_EDGE('',*,*,#401,.F.);
#250=ORIENTED_EDGE('',*,*,#402,.T.);
#251=ORIENTED_EDGE('',*,*,#403,.T.);
#252=ORIENTED_EDGE('',*,*,#367,.F.);
#253=ORIENTED_EDGE('',*,*,#403,.F.);
#254=ORIENTED_EDGE('',*,*,#404,.T.);
#255=ORIENTED_EDGE('',*,*,#405,.T.);
#256=ORIENTED_EDGE('',*,*,#368,.F.);
#257=ORIENTED_EDGE('',*,*,#405,.F.);
#258=ORIENTED_EDGE('',*,*,#406,.T.);
#259=ORIENTED_EDGE('',*,*,#407,.T.);
#260=ORIENTED_EDGE('',*,*,#365,.F.);
#261=ORIENTED_EDGE('',*,*,#408,.F.);
#262=ORIENTED_EDGE('',*,*,#409,.F.);
#263=ORIENTED_EDGE('',*,*,#401,.T.);
#264=ORIENTED_EDGE('',*,*,#369,.F.);
#265=ORIENTED_EDGE('',*,*,#407,.F.);
#266=ORIENTED_EDGE('',*,*,#410,.F.);
#267=ORIENTED_EDGE('',*,*,#408,.T.);
#268=ORIENTED_EDGE('',*,*,#409,.T.);
#269=ORIENTED_EDGE('',*,*,#410,.T.);
#270=ORIENTED_EDGE('',*,*,#406,.F.);
#271=ORIENTED_EDGE('',*,*,#404,.F.);
#272=ORIENTED_EDGE('',*,*,#402,.F.);
#273=ORIENTED_EDGE('',*,*,#394,.T.);
#274=ORIENTED_EDGE('',*,*,#360,.T.);
#275=ORIENTED_EDGE('',*,*,#411,.F.);
#276=ORIENTED_EDGE('',*,*,#412,.T.);
#277=ORIENTED_EDGE('',*,*,#411,.T.);
#278=ORIENTED_EDGE('',*,*,#364,.T.);
#279=ORIENTED_EDGE('',*,*,#400,.F.);
#280=ORIENTED_EDGE('',*,*,#413,.T.);
#281=ORIENTED_EDGE('',*,*,#412,.F.);
#282=ORIENTED_EDGE('',*,*,#413,.F.);
#283=ORIENTED_EDGE('',*,*,#399,.F.);
#284=ORIENTED_EDGE('',*,*,#397,.F.);
#285=ORIENTED_EDGE('',*,*,#395,.F.);
#286=ORIENTED_EDGE('',*,*,#378,.F.);
#287=ORIENTED_EDGE('',*,*,#414,.T.);
#288=ORIENTED_EDGE('',*,*,#383,.F.);
#289=ORIENTED_EDGE('',*,*,#415,.F.);
#290=ORIENTED_EDGE('',*,*,#373,.F.);
#291=ORIENTED_EDGE('',*,*,#416,.T.);
#292=ORIENTED_EDGE('',*,*,#388,.F.);
#293=ORIENTED_EDGE('',*,*,#417,.F.);
#294=ORIENTED_EDGE('',*,*,#358,.T.);
#295=ORIENTED_EDGE('',*,*,#391,.T.);
#296=ORIENTED_EDGE('',*,*,#371,.F.);
#297=ORIENTED_EDGE('',*,*,#355,.T.);
#298=ORIENTED_EDGE('',*,*,#380,.F.);
#299=ORIENTED_EDGE('',*,*,#418,.F.);
#300=ORIENTED_EDGE('',*,*,#372,.F.);
#301=ORIENTED_EDGE('',*,*,#418,.T.);
#302=ORIENTED_EDGE('',*,*,#389,.F.);
#303=ORIENTED_EDGE('',*,*,#416,.F.);
#304=ORIENTED_EDGE('',*,*,#357,.T.);
#305=ORIENTED_EDGE('',*,*,#392,.T.);
#306=ORIENTED_EDGE('',*,*,#379,.F.);
#307=ORIENTED_EDGE('',*,*,#415,.T.);
#308=ORIENTED_EDGE('',*,*,#382,.F.);
#309=ORIENTED_EDGE('',*,*,#419,.F.);
#310=ORIENTED_EDGE('',*,*,#370,.F.);
#311=ORIENTED_EDGE('',*,*,#419,.T.);
#312=ORIENTED_EDGE('',*,*,#381,.F.);
#313=ORIENTED_EDGE('',*,*,#353,.F.);
#314=ORIENTED_EDGE('',*,*,#375,.F.);
#315=ORIENTED_EDGE('',*,*,#420,.T.);
#316=ORIENTED_EDGE('',*,*,#386,.F.);
#317=ORIENTED_EDGE('',*,*,#350,.F.);
#318=ORIENTED_EDGE('',*,*,#359,.T.);
#319=ORIENTED_EDGE('',*,*,#390,.T.);
#320=ORIENTED_EDGE('',*,*,#374,.F.);
#321=ORIENTED_EDGE('',*,*,#417,.T.);
#322=ORIENTED_EDGE('',*,*,#387,.F.);
#323=ORIENTED_EDGE('',*,*,#420,.F.);
#324=ORIENTED_EDGE('',*,*,#356,.T.);
#325=ORIENTED_EDGE('',*,*,#393,.T.);
#326=ORIENTED_EDGE('',*,*,#376,.F.);
#327=ORIENTED_EDGE('',*,*,#348,.T.);
#328=ORIENTED_EDGE('',*,*,#385,.F.);
#329=ORIENTED_EDGE('',*,*,#421,.F.);
#330=ORIENTED_EDGE('',*,*,#377,.F.);
#331=ORIENTED_EDGE('',*,*,#421,.T.);
#332=ORIENTED_EDGE('',*,*,#384,.F.);
#333=ORIENTED_EDGE('',*,*,#414,.F.);
#334=EDGE_CURVE('',#422,#423,#484,.F.);
#335=EDGE_CURVE('',#422,#424,#34,.T.);
#336=EDGE_CURVE('',#425,#424,#485,.F.);
#337=EDGE_CURVE('',#425,#423,#35,.F.);
#338=EDGE_CURVE('',#426,#427,#486,.F.);
#339=EDGE_CURVE('',#426,#428,#36,.T.);
#340=EDGE_CURVE('',#429,#428,#487,.F.);
#341=EDGE_CURVE('',#429,#427,#37,.F.);
#342=EDGE_CURVE('',#426,#423,#38,.T.);
#343=EDGE_CURVE('',#428,#425,#39,.T.);
#344=EDGE_CURVE('',#427,#422,#40,.T.);
#345=EDGE_CURVE('',#429,#424,#41,.F.);
#346=EDGE_CURVE('',#430,#430,#488,.F.);
#347=EDGE_CURVE('',#431,#431,#489,.F.);
#348=EDGE_CURVE('',#432,#433,#42,.T.);
#349=EDGE_CURVE('',#434,#432,#43,.F.);
#350=EDGE_CURVE('',#434,#435,#44,.T.);
#351=EDGE_CURVE('',#433,#435,#45,.F.);
#352=EDGE_CURVE('',#436,#437,#46,.T.);
#353=EDGE_CURVE('',#436,#438,#47,.T.);
#354=EDGE_CURVE('',#439,#438,#48,.T.);
#355=EDGE_CURVE('',#437,#439,#49,.T.);
#356=EDGE_CURVE('',#440,#440,#490,.F.);
#357=EDGE_CURVE('',#441,#441,#491,.F.);
#358=EDGE_CURVE('',#442,#442,#492,.F.);
#359=EDGE_CURVE('',#443,#443,#493,.F.);
#360=EDGE_CURVE('',#444,#445,#50,.T.);
#361=EDGE_CURVE('',#444,#446,#51,.T.);
#362=EDGE_CURVE('',#446,#447,#494,.T.);
#363=EDGE_CURVE('',#447,#448,#52,.F.);
#364=EDGE_CURVE('',#445,#448,#53,.T.);
#365=EDGE_CURVE('',#449,#450,#54,.T.);
#366=EDGE_CURVE('',#450,#451,#55,.F.);
#367=EDGE_CURVE('',#451,#452,#495,.T.);
#368=EDGE_CURVE('',#452,#453,#56,.F.);
#369=EDGE_CURVE('',#453,#449,#57,.T.);
#370=EDGE_CURVE('',#454,#436,#58,.F.);
#371=EDGE_CURVE('',#437,#455,#59,.T.);
#372=EDGE_CURVE('',#455,#456,#496,.F.);
#373=EDGE_CURVE('',#456,#457,#60,.F.);
#374=EDGE_CURVE('',#457,#458,#497,.F.);
#375=EDGE_CURVE('',#458,#434,#61,.T.);
#376=EDGE_CURVE('',#432,#459,#62,.F.);
#377=EDGE_CURVE('',#459,#460,#498,.F.);
#378=EDGE_CURVE('',#460,#461,#63,.T.);
#379=EDGE_CURVE('',#461,#454,#499,.F.);
#380=EDGE_CURVE('',#462,#439,#64,.T.);
#381=EDGE_CURVE('',#438,#463,#65,.F.);
#382=EDGE_CURVE('',#463,#464,#500,.T.);
#383=EDGE_CURVE('',#464,#465,#66,.T.);
#384=EDGE_CURVE('',#465,#466,#501,.T.);
#385=EDGE_CURVE('',#466,#433,#67,.F.);
#386=EDGE_CURVE('',#435,#467,#68,.T.);
#387=EDGE_CURVE('',#467,#468,#502,.T.);
#388=EDGE_CURVE('',#468,#469,#69,.F.);
#389=EDGE_CURVE('',#469,#462,#503,.T.);
#390=EDGE_CURVE('',#470,#470,#504,.T.);
#391=EDGE_CURVE('',#471,#471,#505,.T.);
#392=EDGE_CURVE('',#472,#472,#506,.T.);
#393=EDGE_CURVE('',#473,#473,#507,.T.);
#394=EDGE_CURVE('',#474,#444,#70,.T.);
#395=EDGE_CURVE('',#474,#475,#71,.F.);
#396=EDGE_CURVE('',#475,#446,#72,.T.);
#397=EDGE_CURVE('',#475,#476,#508,.T.);
#398=EDGE_CURVE('',#476,#447,#73,.T.);
#399=EDGE_CURVE('',#476,#477,#74,.F.);
#400=EDGE_CURVE('',#477,#448,#75,.T.);
#401=EDGE_CURVE('',#478,#450,#76,.T.);
#402=EDGE_CURVE('',#478,#479,#77,.F.);
#403=EDGE_CURVE('',#479,#451,#78,.T.);
#404=EDGE_CURVE('',#479,#480,#509,.T.);
#405=EDGE_CURVE('',#480,#452,#79,.T.);
#406=EDGE_CURVE('',#480,#481,#80,.F.);
#407=EDGE_CURVE('',#481,#453,#81,.T.);
#408=EDGE_CURVE('',#482,#449,#82,.T.);
#409=EDGE_CURVE('',#478,#482,#83,.F.);
#410=EDGE_CURVE('',#482,#481,#84,.F.);
#411=EDGE_CURVE('',#483,#445,#85,.T.);
#412=EDGE_CURVE('',#483,#474,#86,.F.);
#413=EDGE_CURVE('',#477,#483,#87,.F.);
#414=EDGE_CURVE('',#460,#465,#88,.T.);
#415=EDGE_CURVE('',#461,#464,#89,.T.);
#416=EDGE_CURVE('',#456,#469,#90,.T.);
#417=EDGE_CURVE('',#457,#468,#91,.T.);
#418=EDGE_CURVE('',#455,#462,#92,.T.);
#419=EDGE_CURVE('',#454,#463,#93,.T.);
#420=EDGE_CURVE('',#458,#467,#94,.T.);
#421=EDGE_CURVE('',#459,#466,#95,.T.);
#422=VERTEX_POINT('',#929);
#423=VERTEX_POINT('',#930);
#424=VERTEX_POINT('',#932);
#425=VERTEX_POINT('',#934);
#426=VERTEX_POINT('',#938);
#427=VERTEX_POINT('',#939);
#428=VERTEX_POINT('',#941);
#429=VERTEX_POINT('',#943);
#430=VERTEX_POINT('',#953);
#431=VERTEX_POINT('',#955);
#432=VERTEX_POINT('',#958);
#433=VERTEX_POINT('',#959);
#434=VERTEX_POINT('',#961);
#435=VERTEX_POINT('',#963);
#436=VERTEX_POINT('',#967);
#437=VERTEX_POINT('',#968);
#438=VERTEX_POINT('',#970);
#439=VERTEX_POINT('',#972);
#440=VERTEX_POINT('',#976);
#441=VERTEX_POINT('',#978);
#442=VERTEX_POINT('',#980);
#443=VERTEX_POINT('',#982);
#444=VERTEX_POINT('',#984);
#445=VERTEX_POINT('',#985);
#446=VERTEX_POINT('',#987);
#447=VERTEX_POINT('',#989);
#448=VERTEX_POINT('',#991);
#449=VERTEX_POINT('',#994);
#450=VERTEX_POINT('',#995);
#451=VERTEX_POINT('',#997);
#452=VERTEX_POINT('',#999);
#453=VERTEX_POINT('',#1001);
#454=VERTEX_POINT('',#1004);
#455=VERTEX_POINT('',#1006);
#456=VERTEX_POINT('',#1008);
#457=VERTEX_POINT('',#1010);
#458=VERTEX_POINT('',#1012);
#459=VERTEX_POINT('',#1015);
#460=VERTEX_POINT('',#1017);
#461=VERTEX_POINT('',#1019);
#462=VERTEX_POINT('',#1023);
#463=VERTEX_POINT('',#1025);
#464=VERTEX_POINT('',#1027);
#465=VERTEX_POINT('',#1029);
#466=VERTEX_POINT('',#1031);
#467=VERTEX_POINT('',#1034);
#468=VERTEX_POINT('',#1036);
#469=VERTEX_POINT('',#1038);
#470=VERTEX_POINT('',#1041);
#471=VERTEX_POINT('',#1043);
#472=VERTEX_POINT('',#1045);
#473=VERTEX_POINT('',#1047);
#474=VERTEX_POINT('',#1050);
#475=VERTEX_POINT('',#1052);
#476=VERTEX_POINT('',#1056);
#477=VERTEX_POINT('',#1060);
#478=VERTEX_POINT('',#1064);
#479=VERTEX_POINT('',#1066);
#480=VERTEX_POINT('',#1070);
#481=VERTEX_POINT('',#1074);
#482=VERTEX_POINT('',#1078);
#483=VERTEX_POINT('',#1085);
#484=CIRCLE('',#680,0.0045);
#485=CIRCLE('',#681,0.0045);
#486=CIRCLE('',#683,0.0045);
#487=CIRCLE('',#684,0.0045);
#488=CIRCLE('',#688,0.0039);
#489=CIRCLE('',#689,0.0039);
#490=CIRCLE('',#693,0.001143);
#491=CIRCLE('',#694,0.001143);
#492=CIRCLE('',#695,0.001143);
#493=CIRCLE('',#696,0.001143);
#494=CIRCLE('',#697,0.001754);
#495=CIRCLE('',#698,0.001754);
#496=CIRCLE('',#699,0.0032045);
#497=CIRCLE('',#700,0.0032045);
#498=CIRCLE('',#701,0.0032045);
#499=CIRCLE('',#702,0.0032045);
#500=CIRCLE('',#704,0.0032045);
#501=CIRCLE('',#705,0.0032045);
#502=CIRCLE('',#706,0.0032045);
#503=CIRCLE('',#707,0.0032045);
#504=CIRCLE('',#708,0.001143);
#505=CIRCLE('',#709,0.001143);
#506=CIRCLE('',#710,0.001143);
#507=CIRCLE('',#711,0.001143);
#508=CIRCLE('',#714,0.001754);
#509=CIRCLE('',#718,0.001754);
#510=EDGE_LOOP('',(#158,#159,#160,#161));
#511=EDGE_LOOP('',(#162,#163,#164,#165));
#512=EDGE_LOOP('',(#166,#167,#168,#169));
#513=EDGE_LOOP('',(#170,#171,#172,#173));
#514=EDGE_LOOP('',(#174));
#515=EDGE_LOOP('',(#175));
#516=EDGE_LOOP('',(#176,#177,#178,#179));
#517=EDGE_LOOP('',(#180,#181,#182,#183));
#518=EDGE_LOOP('',(#184));
#519=EDGE_LOOP('',(#185));
#520=EDGE_LOOP('',(#186));
#521=EDGE_LOOP('',(#187));
#522=EDGE_LOOP('',(#188));
#523=EDGE_LOOP('',(#189,#190,#191,#192,#193));
#524=EDGE_LOOP('',(#194,#195,#196,#197,#198));
#525=EDGE_LOOP('',(#199,#200,#201,#202,#203,#204,#205,#206,#207,#208,#209,
#210));
#526=EDGE_LOOP('',(#211,#212,#213,#214));
#527=EDGE_LOOP('',(#215,#216,#217,#218,#219,#220,#221,#222,#223,#224,#225,
#226));
#528=EDGE_LOOP('',(#227));
#529=EDGE_LOOP('',(#228));
#530=EDGE_LOOP('',(#229));
#531=EDGE_LOOP('',(#230));
#532=EDGE_LOOP('',(#231));
#533=EDGE_LOOP('',(#232,#233,#234,#235));
#534=EDGE_LOOP('',(#236,#237,#238,#239));
#535=EDGE_LOOP('',(#240,#241,#242,#243));
#536=EDGE_LOOP('',(#244,#245,#246,#247));
#537=EDGE_LOOP('',(#248,#249,#250,#251));
#538=EDGE_LOOP('',(#252,#253,#254,#255));
#539=EDGE_LOOP('',(#256,#257,#258,#259));
#540=EDGE_LOOP('',(#260,#261,#262,#263));
#541=EDGE_LOOP('',(#264,#265,#266,#267));
#542=EDGE_LOOP('',(#268,#269,#270,#271,#272));
#543=EDGE_LOOP('',(#273,#274,#275,#276));
#544=EDGE_LOOP('',(#277,#278,#279,#280));
#545=EDGE_LOOP('',(#281,#282,#283,#284,#285));
#546=EDGE_LOOP('',(#286,#287,#288,#289));
#547=EDGE_LOOP('',(#290,#291,#292,#293));
#548=EDGE_LOOP('',(#294));
#549=EDGE_LOOP('',(#295));
#550=EDGE_LOOP('',(#296,#297,#298,#299));
#551=EDGE_LOOP('',(#300,#301,#302,#303));
#552=EDGE_LOOP('',(#304));
#553=EDGE_LOOP('',(#305));
#554=EDGE_LOOP('',(#306,#307,#308,#309));
#555=EDGE_LOOP('',(#310,#311,#312,#313));
#556=EDGE_LOOP('',(#314,#315,#316,#317));
#557=EDGE_LOOP('',(#318));
#558=EDGE_LOOP('',(#319));
#559=EDGE_LOOP('',(#320,#321,#322,#323));
#560=EDGE_LOOP('',(#324));
#561=EDGE_LOOP('',(#325));
#562=EDGE_LOOP('',(#326,#327,#328,#329));
#563=EDGE_LOOP('',(#330,#331,#332,#333));
#564=FACE_BOUND('',#510,.T.);
#565=FACE_BOUND('',#511,.T.);
#566=FACE_BOUND('',#512,.T.);
#567=FACE_BOUND('',#513,.T.);
#568=FACE_BOUND('',#514,.T.);
#569=FACE_BOUND('',#515,.T.);
#570=FACE_BOUND('',#516,.T.);
#571=FACE_BOUND('',#517,.T.);
#572=FACE_BOUND('',#518,.T.);
#573=FACE_BOUND('',#519,.T.);
#574=FACE_BOUND('',#520,.T.);
#575=FACE_BOUND('',#521,.T.);
#576=FACE_BOUND('',#522,.T.);
#577=FACE_BOUND('',#523,.T.);
#578=FACE_BOUND('',#524,.T.);
#579=FACE_BOUND('',#525,.T.);
#580=FACE_BOUND('',#526,.T.);
#581=FACE_BOUND('',#527,.T.);
#582=FACE_BOUND('',#528,.T.);
#583=FACE_BOUND('',#529,.T.);
#584=FACE_BOUND('',#530,.T.);
#585=FACE_BOUND('',#531,.T.);
#586=FACE_BOUND('',#532,.T.);
#587=FACE_BOUND('',#533,.T.);
#588=FACE_BOUND('',#534,.T.);
#589=FACE_BOUND('',#535,.T.);
#590=FACE_BOUND('',#536,.T.);
#591=FACE_BOUND('',#537,.T.);
#592=FACE_BOUND('',#538,.T.);
#593=FACE_BOUND('',#539,.T.);
#594=FACE_BOUND('',#540,.T.);
#595=FACE_BOUND('',#541,.T.);
#596=FACE_BOUND('',#542,.T.);
#597=FACE_BOUND('',#543,.T.);
#598=FACE_BOUND('',#544,.T.);
#599=FACE_BOUND('',#545,.T.);
#600=FACE_BOUND('',#546,.T.);
#601=FACE_BOUND('',#547,.T.);
#602=FACE_BOUND('',#548,.T.);
#603=FACE_BOUND('',#549,.T.);
#604=FACE_BOUND('',#550,.T.);
#605=FACE_BOUND('',#551,.T.);
#606=FACE_BOUND('',#552,.T.);
#607=FACE_BOUND('',#553,.T.);
#608=FACE_BOUND('',#554,.T.);
#609=FACE_BOUND('',#555,.T.);
#610=FACE_BOUND('',#556,.T.);
#611=FACE_BOUND('',#557,.T.);
#612=FACE_BOUND('',#558,.T.);
#613=FACE_BOUND('',#559,.T.);
#614=FACE_BOUND('',#560,.T.);
#615=FACE_BOUND('',#561,.T.);
#616=FACE_BOUND('',#562,.T.);
#617=FACE_BOUND('',#563,.T.);
#618=CYLINDRICAL_SURFACE('',#679,0.0045);
#619=CYLINDRICAL_SURFACE('',#682,0.0045);
#620=CYLINDRICAL_SURFACE('',#687,0.0039);
#621=CYLINDRICAL_SURFACE('',#713,0.001754);
#622=CYLINDRICAL_SURFACE('',#717,0.001754);
#623=CYLINDRICAL_SURFACE('',#728,0.001143);
#624=CYLINDRICAL_SURFACE('',#730,0.0032045);
#625=CYLINDRICAL_SURFACE('',#731,0.001143);
#626=CYLINDRICAL_SURFACE('',#732,0.0032045);
#627=CYLINDRICAL_SURFACE('',#735,0.001143);
#628=CYLINDRICAL_SURFACE('',#736,0.0032045);
#629=CYLINDRICAL_SURFACE('',#737,0.001143);
#630=CYLINDRICAL_SURFACE('',#739,0.0032045);
#631=ADVANCED_FACE('',(#564),#618,.F.);
#632=ADVANCED_FACE('',(#565),#619,.F.);
#633=ADVANCED_FACE('',(#566),#12,.F.);
#634=ADVANCED_FACE('',(#567),#13,.T.);
#635=ADVANCED_FACE('',(#568,#569),#620,.F.);
#636=ADVANCED_FACE('',(#570),#14,.T.);
#637=ADVANCED_FACE('',(#571),#15,.T.);
#638=ADVANCED_FACE('',(#572,#573,#574,#575,#576,#577,#578,#579,#580),#16,
 .F.);
#639=ADVANCED_FACE('',(#581,#582,#583,#584,#585,#586,#587),#17,.T.);
#640=ADVANCED_FACE('',(#588),#18,.F.);
#641=ADVANCED_FACE('',(#589),#621,.T.);
#642=ADVANCED_FACE('',(#590),#19,.F.);
#643=ADVANCED_FACE('',(#591),#20,.F.);
#644=ADVANCED_FACE('',(#592),#622,.T.);
#645=ADVANCED_FACE('',(#593),#21,.F.);
#646=ADVANCED_FACE('',(#594),#22,.T.);
#647=ADVANCED_FACE('',(#595),#23,.T.);
#648=ADVANCED_FACE('',(#596),#24,.F.);
#649=ADVANCED_FACE('',(#597),#25,.F.);
#650=ADVANCED_FACE('',(#598),#26,.F.);
#651=ADVANCED_FACE('',(#599),#27,.F.);
#652=ADVANCED_FACE('',(#600),#28,.T.);
#653=ADVANCED_FACE('',(#601),#29,.T.);
#654=ADVANCED_FACE('',(#602,#603),#623,.F.);
#655=ADVANCED_FACE('',(#604),#30,.T.);
#656=ADVANCED_FACE('',(#605),#624,.T.);
#657=ADVANCED_FACE('',(#606,#607),#625,.F.);
#658=ADVANCED_FACE('',(#608),#626,.T.);
#659=ADVANCED_FACE('',(#609),#31,.T.);
#660=ADVANCED_FACE('',(#610),#32,.T.);
#661=ADVANCED_FACE('',(#611,#612),#627,.F.);
#662=ADVANCED_FACE('',(#613),#628,.T.);
#663=ADVANCED_FACE('',(#614,#615),#629,.F.);
#664=ADVANCED_FACE('',(#616),#33,.T.);
#665=ADVANCED_FACE('',(#617),#630,.T.);
#666=CLOSED_SHELL('',(#631,#632,#633,#634,#635,#636,#637,#638,#639,#640,
#641,#642,#643,#644,#645,#646,#647,#648,#649,#650,#651,#652,#653,#654,#655,
#656,#657,#658,#659,#660,#661,#662,#663,#664,#665));
#667=STYLED_ITEM('',(#668),#675);
#668=PRESENTATION_STYLE_ASSIGNMENT((#669));
#669=SURFACE_STYLE_USAGE(.BOTH.,#670);
#670=SURFACE_SIDE_STYLE('',(#671));
#671=SURFACE_STYLE_FILL_AREA(#672);
#672=FILL_AREA_STYLE('',(#673));
#673=FILL_AREA_STYLE_COLOUR('',#674);
#674=DRAUGHTING_PRE_DEFINED_COLOUR('black');
#675=MANIFOLD_SOLID_BREP('DEXI 3 Flow Mount Top v2',#666);
#676=SHAPE_DEFINITION_REPRESENTATION(#1118,#677);
#677=SHAPE_REPRESENTATION('DEXI 3 Flow Mount Top v2',(#678),#1113);
#678=AXIS2_PLACEMENT_3D('',#926,#740,#741);
#679=AXIS2_PLACEMENT_3D('',#927,#742,#743);
#680=AXIS2_PLACEMENT_3D('',#928,#744,#745);
#681=AXIS2_PLACEMENT_3D('',#933,#747,#748);
#682=AXIS2_PLACEMENT_3D('',#936,#750,#751);
#683=AXIS2_PLACEMENT_3D('',#937,#752,#753);
#684=AXIS2_PLACEMENT_3D('',#942,#755,#756);
#685=AXIS2_PLACEMENT_3D('',#945,#758,#759);
#686=AXIS2_PLACEMENT_3D('',#948,#762,#763);
#687=AXIS2_PLACEMENT_3D('',#951,#766,#767);
#688=AXIS2_PLACEMENT_3D('',#952,#768,#769);
#689=AXIS2_PLACEMENT_3D('',#954,#770,#771);
#690=AXIS2_PLACEMENT_3D('',#956,#772,#773);
#691=AXIS2_PLACEMENT_3D('',#965,#778,#779);
#692=AXIS2_PLACEMENT_3D('',#974,#784,#785);
#693=AXIS2_PLACEMENT_3D('',#975,#786,#787);
#694=AXIS2_PLACEMENT_3D('',#977,#788,#789);
#695=AXIS2_PLACEMENT_3D('',#979,#790,#791);
#696=AXIS2_PLACEMENT_3D('',#981,#792,#793);
#697=AXIS2_PLACEMENT_3D('',#988,#796,#797);
#698=AXIS2_PLACEMENT_3D('',#998,#802,#803);
#699=AXIS2_PLACEMENT_3D('',#1007,#808,#809);
#700=AXIS2_PLACEMENT_3D('',#1011,#811,#812);
#701=AXIS2_PLACEMENT_3D('',#1016,#815,#816);
#702=AXIS2_PLACEMENT_3D('',#1020,#818,#819);
#703=AXIS2_PLACEMENT_3D('',#1021,#820,#821);
#704=AXIS2_PLACEMENT_3D('',#1026,#824,#825);
#705=AXIS2_PLACEMENT_3D('',#1030,#827,#828);
#706=AXIS2_PLACEMENT_3D('',#1035,#831,#832);
#707=AXIS2_PLACEMENT_3D('',#1039,#834,#835);
#708=AXIS2_PLACEMENT_3D('',#1040,#836,#837);
#709=AXIS2_PLACEMENT_3D('',#1042,#838,#839);
#710=AXIS2_PLACEMENT_3D('',#1044,#840,#841);
#711=AXIS2_PLACEMENT_3D('',#1046,#842,#843);
#712=AXIS2_PLACEMENT_3D('',#1048,#844,#845);
#713=AXIS2_PLACEMENT_3D('',#1054,#849,#850);
#714=AXIS2_PLACEMENT_3D('',#1055,#851,#852);
#715=AXIS2_PLACEMENT_3D('',#1058,#854,#855);
#716=AXIS2_PLACEMENT_3D('',#1062,#858,#859);
#717=AXIS2_PLACEMENT_3D('',#1068,#863,#864);
#718=AXIS2_PLACEMENT_3D('',#1069,#865,#866);
#719=AXIS2_PLACEMENT_3D('',#1072,#868,#869);
#720=AXIS2_PLACEMENT_3D('',#1076,#872,#873);
#721=AXIS2_PLACEMENT_3D('',#1080,#876,#877);
#722=AXIS2_PLACEMENT_3D('',#1082,#879,#880);
#723=AXIS2_PLACEMENT_3D('',#1083,#881,#882);
#724=AXIS2_PLACEMENT_3D('',#1087,#885,#886);
#725=AXIS2_PLACEMENT_3D('',#1089,#888,#889);
#726=AXIS2_PLACEMENT_3D('',#1090,#890,#891);
#727=AXIS2_PLACEMENT_3D('',#1093,#894,#895);
#728=AXIS2_PLACEMENT_3D('',#1096,#898,#899);
#729=AXIS2_PLACEMENT_3D('',#1097,#900,#901);
#730=AXIS2_PLACEMENT_3D('',#1099,#903,#904);
#731=AXIS2_PLACEMENT_3D('',#1100,#905,#906);
#732=AXIS2_PLACEMENT_3D('',#1101,#907,#908);
#733=AXIS2_PLACEMENT_3D('',#1103,#910,#911);
#734=AXIS2_PLACEMENT_3D('',#1104,#912,#913);
#735=AXIS2_PLACEMENT_3D('',#1106,#915,#916);
#736=AXIS2_PLACEMENT_3D('',#1107,#917,#918);
#737=AXIS2_PLACEMENT_3D('',#1108,#919,#920);
#738=AXIS2_PLACEMENT_3D('',#1109,#921,#922);
#739=AXIS2_PLACEMENT_3D('',#1111,#924,#925);
#740=DIRECTION('',(0.,0.,1.));
#741=DIRECTION('',(1.,0.,0.));
#742=DIRECTION('',(6.89701587910271E-46,-1.5530699071548E-30,1.));
#743=DIRECTION('',(-1.94289029309402E-16,1.,1.5530699071548E-30));
#744=DIRECTION('',(-4.44089209850059E-16,8.62816615085602E-32,-1.));
#745=DIRECTION('',(-1.,0.,4.44089209850059E-16));
#746=DIRECTION('',(6.89701587910271E-46,-1.5530699071548E-30,1.));
#747=DIRECTION('',(6.89701587910271E-46,-1.5530699071548E-30,1.));
#748=DIRECTION('',(0.,-1.,-1.5530699071548E-30));
#749=DIRECTION('',(6.89701587910271E-46,-1.5530699071548E-30,1.));
#750=DIRECTION('',(6.89701587910271E-46,-1.5530699071548E-30,1.));
#751=DIRECTION('',(-1.,-1.94289029309402E-16,3.87957143199522E-46));
#752=DIRECTION('',(-4.44089209850059E-16,8.62816615085602E-32,-1.));
#753=DIRECTION('',(-1.,0.,4.44089209850059E-16));
#754=DIRECTION('',(6.89701587910271E-46,-1.5530699071548E-30,1.));
#755=DIRECTION('',(6.89701587910271E-46,-1.5530699071548E-30,1.));
#756=DIRECTION('',(0.,-1.,-1.5530699071548E-30));
#757=DIRECTION('',(6.89701587910271E-46,-1.5530699071548E-30,1.));
#758=DIRECTION('',(-1.,-1.94289029309402E-16,3.87957143199522E-46));
#759=DIRECTION('',(-1.94289029309402E-16,1.,1.5530699071548E-30));
#760=DIRECTION('',(2.2420775429175E-44,1.,8.62816615085602E-32));
#761=DIRECTION('',(2.77555756156493E-17,1.,7.39557098644729E-32));
#762=DIRECTION('',(-1.,-1.94289029309402E-16,3.87957143199522E-46));
#763=DIRECTION('',(1.94289029309402E-16,-1.,-1.5530699071548E-30));
#764=DIRECTION('',(-1.94289029309402E-16,1.,1.72563323017107E-31));
#765=DIRECTION('',(1.94289029309402E-16,-1.,-1.5530699071548E-30));
#766=DIRECTION('',(-6.89701587910271E-46,1.5530699071548E-30,-1.));
#767=DIRECTION('',(-1.94289029309402E-16,1.,1.5530699071548E-30));
#768=DIRECTION('',(-6.89701587910271E-46,1.5530699071548E-30,-1.));
#769=DIRECTION('',(0.,1.,1.5530699071548E-30));
#770=DIRECTION('',(-4.44089209850059E-16,8.62816615085602E-32,-1.));
#771=DIRECTION('',(-1.,0.,4.44089209850059E-16));
#772=DIRECTION('',(-1.,2.77555756156493E-17,4.44089209850059E-16));
#773=DIRECTION('',(2.77555756156493E-17,1.,7.39557098644729E-32));
#774=DIRECTION('',(-4.44089209850059E-16,8.62816615085602E-32,-1.));
#775=DIRECTION('',(2.77555756156493E-17,1.,7.39557098644729E-32));
#776=DIRECTION('',(-4.44089209850059E-16,8.62816615085602E-32,-1.));
#777=DIRECTION('',(-2.77555756156493E-17,-1.,-7.39557098644729E-32));
#778=DIRECTION('',(1.,-2.77555756156493E-17,-4.44089209850059E-16));
#779=DIRECTION('',(-2.77555756156493E-17,-1.,-7.39557098644729E-32));
#780=DIRECTION('',(2.77555756156493E-17,1.,7.39557098644729E-32));
#781=DIRECTION('',(-4.44089209850059E-16,8.62816615085602E-32,-1.));
#782=DIRECTION('',(-2.77555756156493E-17,-1.,-7.39557098644729E-32));
#783=DIRECTION('',(-4.44089209850059E-16,8.62816615085602E-32,-1.));
#784=DIRECTION('',(-4.44089209850059E-16,8.62816615085602E-32,-1.));
#785=DIRECTION('',(2.77555756156493E-17,1.,7.39557098644729E-32));
#786=DIRECTION('',(-4.44089209850059E-16,8.62816615085602E-32,-1.));
#787=DIRECTION('',(-1.,0.,4.44089209850059E-16));
#788=DIRECTION('',(-4.44089209850059E-16,8.62816615085602E-32,-1.));
#789=DIRECTION('',(-1.,0.,4.44089209850059E-16));
#790=DIRECTION('',(-4.44089209850059E-16,8.62816615085602E-32,-1.));
#791=DIRECTION('',(-1.,0.,4.44089209850059E-16));
#792=DIRECTION('',(-4.44089209850059E-16,8.62816615085602E-32,-1.));
#793=DIRECTION('',(-1.,0.,4.44089209850059E-16));
#794=DIRECTION('',(-2.77555756156493E-17,-1.,-7.39557098644729E-32));
#795=DIRECTION('',(1.,-2.77555756156493E-17,-4.44089209850059E-16));
#796=DIRECTION('',(-4.44089209850059E-16,8.62816615085602E-32,-1.));
#797=DIRECTION('',(-1.,0.,4.44089209850059E-16));
#798=DIRECTION('',(2.77555756156493E-17,1.,7.39557098644729E-32));
#799=DIRECTION('',(1.,-2.77555756156493E-17,-4.44089209850059E-16));
#800=DIRECTION('',(1.,-2.77555756156493E-17,-4.44089209850059E-16));
#801=DIRECTION('',(2.77555756156493E-17,1.,7.39557098644729E-32));
#802=DIRECTION('',(-4.44089209850059E-16,8.62816615085602E-32,-1.));
#803=DIRECTION('',(-1.,0.,4.44089209850059E-16));
#804=DIRECTION('',(1.,-2.77555756156493E-17,-4.44089209850059E-16));
#805=DIRECTION('',(2.77555756156493E-17,1.,7.39557098644729E-32));
#806=DIRECTION('',(1.,-2.77555756156493E-17,-4.44089209850059E-16));
#807=DIRECTION('',(1.,-2.77555756156493E-17,-4.44089209850059E-16));
#808=DIRECTION('',(-4.44089209850059E-16,8.62816615085602E-32,-1.));
#809=DIRECTION('',(-1.,0.,4.44089209850059E-16));
#810=DIRECTION('',(1.,-2.77555756156493E-17,-4.44089209850059E-16));
#811=DIRECTION('',(-4.44089209850059E-16,8.62816615085602E-32,-1.));
#812=DIRECTION('',(-1.,0.,4.44089209850059E-16));
#813=DIRECTION('',(1.,-2.77555756156493E-17,-4.44089209850059E-16));
#814=DIRECTION('',(1.,-2.77555756156493E-17,-4.44089209850059E-16));
#815=DIRECTION('',(-4.44089209850059E-16,8.62816615085602E-32,-1.));
#816=DIRECTION('',(-1.,0.,4.44089209850059E-16));
#817=DIRECTION('',(1.,-2.77555756156493E-17,-4.44089209850059E-16));
#818=DIRECTION('',(-4.44089209850059E-16,8.62816615085602E-32,-1.));
#819=DIRECTION('',(-1.,0.,4.44089209850059E-16));
#820=DIRECTION('',(-4.44089209850059E-16,8.62816615085602E-32,-1.));
#821=DIRECTION('',(-2.77555756156493E-17,-1.,-7.39557098644729E-32));
#822=DIRECTION('',(-1.,2.77555756156493E-17,4.44089209850059E-16));
#823=DIRECTION('',(-1.,2.77555756156493E-17,4.44089209850059E-16));
#824=DIRECTION('',(-4.44089209850059E-16,8.62816615085602E-32,-1.));
#825=DIRECTION('',(-1.,0.,4.44089209850059E-16));
#826=DIRECTION('',(-1.,2.77555756156493E-17,4.44089209850059E-16));
#827=DIRECTION('',(-4.44089209850059E-16,8.62816615085602E-32,-1.));
#828=DIRECTION('',(-1.,0.,4.44089209850059E-16));
#829=DIRECTION('',(-1.,2.77555756156493E-17,4.44089209850059E-16));
#830=DIRECTION('',(-1.,2.77555756156493E-17,4.44089209850059E-16));
#831=DIRECTION('',(-4.44089209850059E-16,8.62816615085602E-32,-1.));
#832=DIRECTION('',(-1.,0.,4.44089209850059E-16));
#833=DIRECTION('',(-1.,2.77555756156493E-17,4.44089209850059E-16));
#834=DIRECTION('',(-4.44089209850059E-16,8.62816615085602E-32,-1.));
#835=DIRECTION('',(-1.,0.,4.44089209850059E-16));
#836=DIRECTION('',(-4.44089209850059E-16,8.62816615085602E-32,-1.));
#837=DIRECTION('',(-1.,0.,4.44089209850059E-16));
#838=DIRECTION('',(-4.44089209850059E-16,8.62816615085602E-32,-1.));
#839=DIRECTION('',(-1.,0.,4.44089209850059E-16));
#840=DIRECTION('',(-4.44089209850059E-16,8.62816615085602E-32,-1.));
#841=DIRECTION('',(-1.,0.,4.44089209850059E-16));
#842=DIRECTION('',(-4.44089209850059E-16,8.62816615085602E-32,-1.));
#843=DIRECTION('',(-1.,0.,4.44089209850059E-16));
#844=DIRECTION('',(-2.77555756156493E-17,-1.,-7.39557098644729E-32));
#845=DIRECTION('',(-1.,2.77555756156493E-17,4.44089209850059E-16));
#846=DIRECTION('',(-4.44089209850059E-16,8.62816615085602E-32,-1.));
#847=DIRECTION('',(-1.,2.77555756156493E-17,4.44089209850059E-16));
#848=DIRECTION('',(-4.44089209850059E-16,8.62816615085602E-32,-1.));
#849=DIRECTION('',(-4.44089209850059E-16,8.62816615085602E-32,-1.));
#850=DIRECTION('',(-1.,2.77555756156493E-17,4.44089209850059E-16));
#851=DIRECTION('',(-4.44089209850059E-16,8.62816615085602E-32,-1.));
#852=DIRECTION('',(-1.,0.,4.44089209850059E-16));
#853=DIRECTION('',(-4.44089209850059E-16,8.62816615085602E-32,-1.));
#854=DIRECTION('',(-1.,2.77555756156493E-17,4.44089209850059E-16));
#855=DIRECTION('',(2.77555756156493E-17,1.,7.39557098644729E-32));
#856=DIRECTION('',(2.77555756156493E-17,1.,7.39557098644729E-32));
#857=DIRECTION('',(-4.44089209850059E-16,8.62816615085602E-32,-1.));
#858=DIRECTION('',(-1.,2.77555756156493E-17,4.44089209850059E-16));
#859=DIRECTION('',(2.77555756156493E-17,1.,7.39557098644729E-32));
#860=DIRECTION('',(-4.44089209850059E-16,8.62816615085602E-32,-1.));
#861=DIRECTION('',(2.77555756156493E-17,1.,7.39557098644729E-32));
#862=DIRECTION('',(-4.44089209850059E-16,8.62816615085602E-32,-1.));
#863=DIRECTION('',(-4.44089209850059E-16,8.62816615085602E-32,-1.));
#864=DIRECTION('',(-1.,2.77555756156493E-17,4.44089209850059E-16));
#865=DIRECTION('',(-4.44089209850059E-16,8.62816615085602E-32,-1.));
#866=DIRECTION('',(-1.,0.,4.44089209850059E-16));
#867=DIRECTION('',(-4.44089209850059E-16,8.62816615085602E-32,-1.));
#868=DIRECTION('',(2.77555756156493E-17,1.,7.39557098644729E-32));
#869=DIRECTION('',(1.,-2.77555756156493E-17,-4.44089209850059E-16));
#870=DIRECTION('',(1.,-2.77555756156493E-17,-4.44089209850059E-16));
#871=DIRECTION('',(-4.44089209850059E-16,8.62816615085602E-32,-1.));
#872=DIRECTION('',(2.77555756156493E-17,1.,7.39557098644729E-32));
#873=DIRECTION('',(1.,-2.77555756156493E-17,-4.44089209850059E-16));
#874=DIRECTION('',(-4.44089209850059E-16,8.62816615085602E-32,-1.));
#875=DIRECTION('',(1.,-2.77555756156493E-17,-4.44089209850059E-16));
#876=DIRECTION('',(-1.,2.77555756156493E-17,4.44089209850059E-16));
#877=DIRECTION('',(2.77555756156493E-17,1.,7.39557098644729E-32));
#878=DIRECTION('',(2.77555756156493E-17,1.,7.39557098644729E-32));
#879=DIRECTION('',(-4.44089209850059E-16,8.62816615085602E-32,-1.));
#880=DIRECTION('',(2.77555756156493E-17,1.,7.39557098644729E-32));
#881=DIRECTION('',(1.,-2.77555756156493E-17,-4.44089209850059E-16));
#882=DIRECTION('',(-2.77555756156493E-17,-1.,-7.39557098644729E-32));
#883=DIRECTION('',(-4.44089209850059E-16,8.62816615085602E-32,-1.));
#884=DIRECTION('',(-2.77555756156493E-17,-1.,-7.39557098644729E-32));
#885=DIRECTION('',(2.77555756156493E-17,1.,7.39557098644729E-32));
#886=DIRECTION('',(1.,-2.77555756156493E-17,-4.44089209850059E-16));
#887=DIRECTION('',(1.,-2.77555756156493E-17,-4.44089209850059E-16));
#888=DIRECTION('',(-4.44089209850059E-16,8.62816615085602E-32,-1.));
#889=DIRECTION('',(2.77555756156493E-17,1.,7.39557098644729E-32));
#890=DIRECTION('',(-2.77555756156493E-17,-1.,-7.39557098644729E-32));
#891=DIRECTION('',(-1.,2.77555756156493E-17,4.44089209850059E-16));
#892=DIRECTION('',(-4.44089209850059E-16,8.62816615085602E-32,-1.));
#893=DIRECTION('',(-4.44089209850059E-16,8.62816615085602E-32,-1.));
#894=DIRECTION('',(2.77555756156493E-17,1.,7.39557098644729E-32));
#895=DIRECTION('',(1.,-2.77555756156493E-17,-4.44089209850059E-16));
#896=DIRECTION('',(-4.44089209850059E-16,8.62816615085602E-32,-1.));
#897=DIRECTION('',(-4.44089209850059E-16,8.62816615085602E-32,-1.));
#898=DIRECTION('',(-4.44089209850059E-16,8.62816615085602E-32,-1.));
#899=DIRECTION('',(-1.,2.77555756156493E-17,4.44089209850059E-16));
#900=DIRECTION('',(-2.77555756156493E-17,-1.,-7.39557098644729E-32));
#901=DIRECTION('',(-1.,2.77555756156493E-17,4.44089209850059E-16));
#902=DIRECTION('',(-4.44089209850059E-16,8.62816615085602E-32,-1.));
#903=DIRECTION('',(-4.44089209850059E-16,8.62816615085602E-32,-1.));
#904=DIRECTION('',(-1.,2.77555756156493E-17,4.44089209850059E-16));
#905=DIRECTION('',(-4.44089209850059E-16,8.62816615085602E-32,-1.));
#906=DIRECTION('',(-1.,2.77555756156493E-17,4.44089209850059E-16));
#907=DIRECTION('',(-4.44089209850059E-16,8.62816615085602E-32,-1.));
#908=DIRECTION('',(-1.,2.77555756156493E-17,4.44089209850059E-16));
#909=DIRECTION('',(-4.44089209850059E-16,8.62816615085602E-32,-1.));
#910=DIRECTION('',(2.77555756156493E-17,1.,7.39557098644729E-32));
#911=DIRECTION('',(1.,-2.77555756156493E-17,-4.44089209850059E-16));
#912=DIRECTION('',(-2.77555756156493E-17,-1.,-7.39557098644729E-32));
#913=DIRECTION('',(-1.,2.77555756156493E-17,4.44089209850059E-16));
#914=DIRECTION('',(-4.44089209850059E-16,8.62816615085602E-32,-1.));
#915=DIRECTION('',(-4.44089209850059E-16,8.62816615085602E-32,-1.));
#916=DIRECTION('',(-1.,2.77555756156493E-17,4.44089209850059E-16));
#917=DIRECTION('',(-4.44089209850059E-16,8.62816615085602E-32,-1.));
#918=DIRECTION('',(-1.,2.77555756156493E-17,4.44089209850059E-16));
#919=DIRECTION('',(-4.44089209850059E-16,8.62816615085602E-32,-1.));
#920=DIRECTION('',(-1.,2.77555756156493E-17,4.44089209850059E-16));
#921=DIRECTION('',(2.77555756156493E-17,1.,7.39557098644729E-32));
#922=DIRECTION('',(1.,-2.77555756156493E-17,-4.44089209850059E-16));
#923=DIRECTION('',(-4.44089209850059E-16,8.62816615085602E-32,-1.));
#924=DIRECTION('',(-4.44089209850059E-16,8.62816615085602E-32,-1.));
#925=DIRECTION('',(-1.,2.77555756156493E-17,4.44089209850059E-16));
#926=CARTESIAN_POINT('',(0.,0.,0.));
#927=CARTESIAN_POINT('',(0.155311379192123,0.00651763225947611,0.118879966766876));
#928=CARTESIAN_POINT('',(0.155311379192123,0.00651763225947611,0.119075966766876));
#929=CARTESIAN_POINT('',(0.159811379192123,0.00651763225947611,0.119075966766876));
#930=CARTESIAN_POINT('',(0.150811379192123,0.00651763225947611,0.119075966766876));
#931=CARTESIAN_POINT('',(0.159811379192123,0.00651763225947611,0.118879966766876));
#932=CARTESIAN_POINT('',(0.159811379192123,0.00651763225947611,0.121375966766876));
#933=CARTESIAN_POINT('',(0.155311379192123,0.00651763225947611,0.121375966766876));
#934=CARTESIAN_POINT('',(0.150811379192123,0.00651763225947611,0.121375966766876));
#935=CARTESIAN_POINT('',(0.150811379192123,0.00651763225947611,0.118879966766876));
#936=CARTESIAN_POINT('',(0.155311379192123,-0.00248236774052389,0.118879966766876));
#937=CARTESIAN_POINT('',(0.155311379192123,-0.00248236774052389,0.119075966766876));
#938=CARTESIAN_POINT('',(0.150811379192123,-0.00248236774052389,0.119075966766876));
#939=CARTESIAN_POINT('',(0.159811379192123,-0.00248236774052289,0.119075966766876));
#940=CARTESIAN_POINT('',(0.150811379192123,-0.00248236774052389,0.118879966766876));
#941=CARTESIAN_POINT('',(0.150811379192123,-0.00248236774052389,0.121375966766876));
#942=CARTESIAN_POINT('',(0.155311379192123,-0.00248236774052389,0.121375966766876));
#943=CARTESIAN_POINT('',(0.159811379192123,-0.00248236774052339,0.121375966766876));
#944=CARTESIAN_POINT('',(0.159811379192123,-0.00248236774052289,0.118879966766876));
#945=CARTESIAN_POINT('',(0.150811379192123,0.00201763225947611,0.123975966766876));
#946=CARTESIAN_POINT('',(0.150811379192123,0.0569216389686769,0.119075966766876));
#947=CARTESIAN_POINT('',(0.150811379192123,0.0020176322594761,0.121375966766876));
#948=CARTESIAN_POINT('',(0.159811379192123,0.00201763225947611,0.123975966766876));
#949=CARTESIAN_POINT('',(0.159811379192123,0.00201763225947611,0.119075966766876));
#950=CARTESIAN_POINT('',(0.159811379192123,0.00201763225947611,0.121375966766876));
#951=CARTESIAN_POINT('',(0.143561379192123,0.00201763225947611,0.121413966766876));
#952=CARTESIAN_POINT('',(0.143561379192123,0.00201763225947611,0.121375966766876));
#953=CARTESIAN_POINT('',(0.143561379192123,0.00591763225947611,0.121375966766876));
#954=CARTESIAN_POINT('',(0.143561379192123,0.00201763225947611,0.119075966766876));
#955=CARTESIAN_POINT('',(0.139661379192123,0.00201763225947611,0.119075966766876));
#956=CARTESIAN_POINT('',(0.134152379192123,0.0092321322594761,0.121377966766876));
#957=CARTESIAN_POINT('',(0.134152379192123,-0.0062323677405239,0.121377966766876));
#958=CARTESIAN_POINT('',(0.134152379192123,-0.0062323677405239,0.121375966766876));
#959=CARTESIAN_POINT('',(0.134152379192123,-0.0062323677405239,0.119075966766876));
#960=CARTESIAN_POINT('',(0.134152379192123,0.0020176322594761,0.121375966766876));
#961=CARTESIAN_POINT('',(0.134152379192123,0.0102676322594761,0.121375966766876));
#962=CARTESIAN_POINT('',(0.134152379192123,0.0102676322594761,0.121377966766876));
#963=CARTESIAN_POINT('',(0.134152379192123,0.0102676322594761,0.119075966766876));
#964=CARTESIAN_POINT('',(0.134152379192123,0.0020176322594761,0.119075966766876));
#965=CARTESIAN_POINT('',(0.163470379192123,0.0092321322594761,0.121377966766876));
#966=CARTESIAN_POINT('',(0.163470379192123,0.0020176322594761,0.121375966766876));
#967=CARTESIAN_POINT('',(0.163470379192123,-0.0062323677405239,0.121375966766876));
#968=CARTESIAN_POINT('',(0.163470379192123,0.0102676322594761,0.121375966766876));
#969=CARTESIAN_POINT('',(0.163470379192123,-0.0062323677405239,0.121377966766876));
#970=CARTESIAN_POINT('',(0.163470379192123,-0.0062323677405239,0.119075966766876));
#971=CARTESIAN_POINT('',(0.163470379192123,0.0020176322594761,0.119075966766876));
#972=CARTESIAN_POINT('',(0.163470379192123,0.0102676322594761,0.119075966766876));
#973=CARTESIAN_POINT('',(0.163470379192123,0.0102676322594761,0.121377966766876));
#974=CARTESIAN_POINT('',(0.143561379192123,0.0020176322594761,0.121375966766876));
#975=CARTESIAN_POINT('',(0.129072379192123,-0.0094368677405239,0.121375966766876));
#976=CARTESIAN_POINT('',(0.127929379192123,-0.0094368677405239,0.121375966766876));
#977=CARTESIAN_POINT('',(0.168550379192123,-0.0094368677405239,0.121375966766876));
#978=CARTESIAN_POINT('',(0.167407379192123,-0.0094368677405239,0.121375966766876));
#979=CARTESIAN_POINT('',(0.168550379192123,0.0134721322594761,0.121375966766876));
#980=CARTESIAN_POINT('',(0.167407379192123,0.0134721322594761,0.121375966766876));
#981=CARTESIAN_POINT('',(0.129072379192123,0.0134721322594761,0.121375966766876));
#982=CARTESIAN_POINT('',(0.127929379192123,0.0134721322594761,0.121375966766876));
#983=CARTESIAN_POINT('',(0.158011379192123,0.0137446322594761,0.121375966766876));
#984=CARTESIAN_POINT('',(0.158011379192123,0.0147716322594761,0.121375966766876));
#985=CARTESIAN_POINT('',(0.158011379192123,0.0112176322594761,0.121375966766876));
#986=CARTESIAN_POINT('',(0.143561379192123,0.0147716322594761,0.121375966766876));
#987=CARTESIAN_POINT('',(0.159811379192123,0.0147716322594761,0.121375966766876));
#988=CARTESIAN_POINT('',(0.159811379192123,0.0130176322594761,0.121375966766876));
#989=CARTESIAN_POINT('',(0.161565379192123,0.0130176322594761,0.121375966766876));
#990=CARTESIAN_POINT('',(0.161565379192123,0.0020176322594761,0.121375966766876));
#991=CARTESIAN_POINT('',(0.161565379192123,0.0112176322594761,0.121375966766876));
#992=CARTESIAN_POINT('',(0.160538379192123,0.0112176322594761,0.121375966766876));
#993=CARTESIAN_POINT('',(0.143561379192123,-0.0071823677405239,0.121375966766876));
#994=CARTESIAN_POINT('',(0.158011379192123,-0.0071823677405239,0.121375966766876));
#995=CARTESIAN_POINT('',(0.161565379192123,-0.0071823677405239,0.121375966766876));
#996=CARTESIAN_POINT('',(0.161565379192123,0.0020176322594761,0.121375966766876));
#997=CARTESIAN_POINT('',(0.161565379192123,-0.0089823677405239,0.121375966766876));
#998=CARTESIAN_POINT('',(0.159811379192123,-0.0089823677405239,0.121375966766876));
#999=CARTESIAN_POINT('',(0.159811379192123,-0.0107363677405239,0.121375966766876));
#1000=CARTESIAN_POINT('',(0.143561379192123,-0.0107363677405239,0.121375966766876));
#1001=CARTESIAN_POINT('',(0.158011379192123,-0.0107363677405239,0.121375966766876));
#1002=CARTESIAN_POINT('',(0.158011379192123,0.0020176322594761,0.121375966766876));
#1003=CARTESIAN_POINT('',(0.143561379192123,-0.0062323677405239,0.121375966766876));
#1004=CARTESIAN_POINT('',(0.168550379192123,-0.0062323677405239,0.121375966766876));
#1005=CARTESIAN_POINT('',(0.143561379192123,0.0102676322594761,0.121375966766876));
#1006=CARTESIAN_POINT('',(0.168550379192123,0.0102676322594761,0.121375966766876));
#1007=CARTESIAN_POINT('',(0.168550379192123,0.0134721322594761,0.121375966766876));
#1008=CARTESIAN_POINT('',(0.168550379192123,0.0166766322594761,0.121375966766876));
#1009=CARTESIAN_POINT('',(0.143561379192123,0.0166766322594761,0.121375966766876));
#1010=CARTESIAN_POINT('',(0.129072379192123,0.0166766322594761,0.121375966766876));
#1011=CARTESIAN_POINT('',(0.129072379192123,0.0134721322594761,0.121375966766876));
#1012=CARTESIAN_POINT('',(0.129072379192123,0.0102676322594761,0.121375966766876));
#1013=CARTESIAN_POINT('',(0.143561379192123,0.0102676322594761,0.121375966766876));
#1014=CARTESIAN_POINT('',(0.143561379192123,-0.0062323677405239,0.121375966766876));
#1015=CARTESIAN_POINT('',(0.129072379192123,-0.0062323677405239,0.121375966766876));
#1016=CARTESIAN_POINT('',(0.129072379192123,-0.0094368677405239,0.121375966766876));
#1017=CARTESIAN_POINT('',(0.129072379192123,-0.0126413677405239,0.121375966766876));
#1018=CARTESIAN_POINT('',(0.143561379192123,-0.0126413677405239,0.121375966766876));
#1019=CARTESIAN_POINT('',(0.168550379192123,-0.0126413677405239,0.121375966766876));
#1020=CARTESIAN_POINT('',(0.168550379192123,-0.0094368677405239,0.121375966766876));
#1021=CARTESIAN_POINT('',(0.148811379192123,0.0020176322594761,0.119075966766876));
#1022=CARTESIAN_POINT('',(0.148811379192123,0.0102676322594761,0.119075966766876));
#1023=CARTESIAN_POINT('',(0.168550379192123,0.0102676322594761,0.119075966766876));
#1024=CARTESIAN_POINT('',(0.148811379192123,-0.0062323677405239,0.119075966766876));
#1025=CARTESIAN_POINT('',(0.168550379192123,-0.0062323677405239,0.119075966766876));
#1026=CARTESIAN_POINT('',(0.168550379192123,-0.0094368677405239,0.119075966766876));
#1027=CARTESIAN_POINT('',(0.168550379192123,-0.0126413677405239,0.119075966766876));
#1028=CARTESIAN_POINT('',(0.148811379192123,-0.0126413677405239,0.119075966766876));
#1029=CARTESIAN_POINT('',(0.129072379192123,-0.0126413677405239,0.119075966766876));
#1030=CARTESIAN_POINT('',(0.129072379192123,-0.0094368677405239,0.119075966766876));
#1031=CARTESIAN_POINT('',(0.129072379192123,-0.0062323677405239,0.119075966766876));
#1032=CARTESIAN_POINT('',(0.148811379192123,-0.0062323677405239,0.119075966766876));
#1033=CARTESIAN_POINT('',(0.148811379192123,0.0102676322594761,0.119075966766876));
#1034=CARTESIAN_POINT('',(0.129072379192123,0.0102676322594761,0.119075966766876));
#1035=CARTESIAN_POINT('',(0.129072379192123,0.0134721322594761,0.119075966766876));
#1036=CARTESIAN_POINT('',(0.129072379192123,0.0166766322594761,0.119075966766876));
#1037=CARTESIAN_POINT('',(0.148811379192123,0.0166766322594761,0.119075966766876));
#1038=CARTESIAN_POINT('',(0.168550379192123,0.0166766322594761,0.119075966766876));
#1039=CARTESIAN_POINT('',(0.168550379192123,0.0134721322594761,0.119075966766876));
#1040=CARTESIAN_POINT('',(0.129072379192123,0.0134721322594761,0.119075966766876));
#1041=CARTESIAN_POINT('',(0.127929379192123,0.0134721322594761,0.119075966766876));
#1042=CARTESIAN_POINT('',(0.168550379192123,0.0134721322594761,0.119075966766876));
#1043=CARTESIAN_POINT('',(0.167407379192123,0.0134721322594761,0.119075966766876));
#1044=CARTESIAN_POINT('',(0.168550379192123,-0.0094368677405239,0.119075966766876));
#1045=CARTESIAN_POINT('',(0.167407379192123,-0.0094368677405239,0.119075966766876));
#1046=CARTESIAN_POINT('',(0.129072379192123,-0.0094368677405239,0.119075966766876));
#1047=CARTESIAN_POINT('',(0.127929379192123,-0.0094368677405239,0.119075966766876));
#1048=CARTESIAN_POINT('',(0.148811379192123,0.0147716322594761,0.121377966766876));
#1049=CARTESIAN_POINT('',(0.158011379192123,0.0147716322594761,0.128877966766876));
#1050=CARTESIAN_POINT('',(0.158011379192123,0.0147716322594761,0.128875966766876));
#1051=CARTESIAN_POINT('',(0.148811379192123,0.0147716322594761,0.128875966766876));
#1052=CARTESIAN_POINT('',(0.159811379192123,0.0147716322594761,0.128875966766876));
#1053=CARTESIAN_POINT('',(0.159811379192123,0.0147716322594761,0.121377966766876));
#1054=CARTESIAN_POINT('',(0.159811379192123,0.0130176322594761,0.121377966766876));
#1055=CARTESIAN_POINT('',(0.159811379192123,0.0130176322594761,0.128875966766876));
#1056=CARTESIAN_POINT('',(0.161565379192123,0.0130176322594761,0.128875966766876));
#1057=CARTESIAN_POINT('',(0.161565379192123,0.0130176322594761,0.121377966766876));
#1058=CARTESIAN_POINT('',(0.161565379192123,0.0020176322594761,0.121377966766876));
#1059=CARTESIAN_POINT('',(0.161565379192123,0.0020176322594761,0.128875966766876));
#1060=CARTESIAN_POINT('',(0.161565379192123,0.0112176322594761,0.128875966766876));
#1061=CARTESIAN_POINT('',(0.161565379192123,0.0112176322594761,0.121377966766876));
#1062=CARTESIAN_POINT('',(0.161565379192123,0.0020176322594761,0.121377966766876));
#1063=CARTESIAN_POINT('',(0.161565379192123,-0.0071823677405239,0.128877966766876));
#1064=CARTESIAN_POINT('',(0.161565379192123,-0.0071823677405239,0.128875966766876));
#1065=CARTESIAN_POINT('',(0.161565379192123,0.0020176322594761,0.128875966766876));
#1066=CARTESIAN_POINT('',(0.161565379192123,-0.0089823677405239,0.128875966766876));
#1067=CARTESIAN_POINT('',(0.161565379192123,-0.0089823677405239,0.121377966766876));
#1068=CARTESIAN_POINT('',(0.159811379192123,-0.0089823677405239,0.121377966766876));
#1069=CARTESIAN_POINT('',(0.159811379192123,-0.0089823677405239,0.128875966766876));
#1070=CARTESIAN_POINT('',(0.159811379192123,-0.0107363677405239,0.128875966766876));
#1071=CARTESIAN_POINT('',(0.159811379192123,-0.0107363677405239,0.121377966766876));
#1072=CARTESIAN_POINT('',(0.148811379192123,-0.0107363677405239,0.121377966766876));
#1073=CARTESIAN_POINT('',(0.148811379192123,-0.0107363677405239,0.128875966766876));
#1074=CARTESIAN_POINT('',(0.158011379192123,-0.0107363677405239,0.128875966766876));
#1075=CARTESIAN_POINT('',(0.158011379192123,-0.0107363677405239,0.121377966766876));
#1076=CARTESIAN_POINT('',(0.160538379192123,-0.0071823677405239,0.128877966766876));
#1077=CARTESIAN_POINT('',(0.158011379192123,-0.0071823677405239,0.128877966766876));
#1078=CARTESIAN_POINT('',(0.158011379192123,-0.0071823677405239,0.128875966766876));
#1079=CARTESIAN_POINT('',(0.148811379192123,-0.0071823677405239,0.128875966766876));
#1080=CARTESIAN_POINT('',(0.158011379192123,-0.0097093677405239,0.128877966766876));
#1081=CARTESIAN_POINT('',(0.158011379192123,0.0020176322594761,0.128875966766876));
#1082=CARTESIAN_POINT('',(0.148811379192123,0.0020176322594761,0.128875966766876));
#1083=CARTESIAN_POINT('',(0.158011379192123,0.0137446322594761,0.128877966766876));
#1084=CARTESIAN_POINT('',(0.158011379192123,0.0112176322594761,0.128877966766876));
#1085=CARTESIAN_POINT('',(0.158011379192123,0.0112176322594761,0.128875966766876));
#1086=CARTESIAN_POINT('',(0.158011379192123,0.0137446322594761,0.128875966766876));
#1087=CARTESIAN_POINT('',(0.160538379192123,0.0112176322594761,0.128877966766876));
#1088=CARTESIAN_POINT('',(0.160538379192123,0.0112176322594761,0.128875966766876));
#1089=CARTESIAN_POINT('',(0.148811379192123,0.0020176322594761,0.128875966766876));
#1090=CARTESIAN_POINT('',(0.148811379192123,-0.0126413677405239,0.121377966766876));
#1091=CARTESIAN_POINT('',(0.129072379192123,-0.0126413677405239,0.121377966766876));
#1092=CARTESIAN_POINT('',(0.168550379192123,-0.0126413677405239,0.121377966766876));
#1093=CARTESIAN_POINT('',(0.148811379192123,0.0166766322594761,0.121377966766876));
#1094=CARTESIAN_POINT('',(0.168550379192123,0.0166766322594761,0.121377966766876));
#1095=CARTESIAN_POINT('',(0.129072379192123,0.0166766322594761,0.121377966766876));
#1096=CARTESIAN_POINT('',(0.168550379192123,0.0134721322594761,0.121377966766876));
#1097=CARTESIAN_POINT('',(0.166010379192123,0.0102676322594761,0.121377966766876));
#1098=CARTESIAN_POINT('',(0.168550379192123,0.0102676322594761,0.121377966766876));
#1099=CARTESIAN_POINT('',(0.168550379192123,0.0134721322594761,0.121377966766876));
#1100=CARTESIAN_POINT('',(0.168550379192123,-0.0094368677405239,0.121377966766876));
#1101=CARTESIAN_POINT('',(0.168550379192123,-0.0094368677405239,0.121377966766876));
#1102=CARTESIAN_POINT('',(0.168550379192123,-0.0062323677405239,0.121377966766876));
#1103=CARTESIAN_POINT('',(0.166010379192123,-0.0062323677405239,0.121377966766876));
#1104=CARTESIAN_POINT('',(0.131612379192123,0.0102676322594761,0.121377966766876));
#1105=CARTESIAN_POINT('',(0.129072379192123,0.0102676322594761,0.121377966766876));
#1106=CARTESIAN_POINT('',(0.129072379192123,0.0134721322594761,0.121377966766876));
#1107=CARTESIAN_POINT('',(0.129072379192123,0.0134721322594761,0.121377966766876));
#1108=CARTESIAN_POINT('',(0.129072379192123,-0.0094368677405239,0.121377966766876));
#1109=CARTESIAN_POINT('',(0.131612379192123,-0.0062323677405239,0.121377966766876));
#1110=CARTESIAN_POINT('',(0.129072379192123,-0.0062323677405239,0.121377966766876));
#1111=CARTESIAN_POINT('',(0.129072379192123,-0.0094368677405239,0.121377966766876));
#1112=MECHANICAL_DESIGN_GEOMETRIC_PRESENTATION_REPRESENTATION('',(#667),
#1113);
#1113=(
GEOMETRIC_REPRESENTATION_CONTEXT(3)
GLOBAL_UNCERTAINTY_ASSIGNED_CONTEXT((#1114))
GLOBAL_UNIT_ASSIGNED_CONTEXT((#1117,#1116,#1115))
REPRESENTATION_CONTEXT('DEXI 3 Flow Mount Top v2',
'TOP_LEVEL_ASSEMBLY_PART')
);
#1114=UNCERTAINTY_MEASURE_WITH_UNIT(LENGTH_MEASURE(1.E-8),#1117,
'DISTANCE_ACCURACY_VALUE','Maximum Tolerance applied to model');
#1115=(
NAMED_UNIT(*)
SI_UNIT($,.STERADIAN.)
SOLID_ANGLE_UNIT()
);
#1116=(
NAMED_UNIT(*)
PLANE_ANGLE_UNIT()
SI_UNIT($,.RADIAN.)
);
#1117=(
LENGTH_UNIT()
NAMED_UNIT(*)
SI_UNIT($,.METRE.)
);
#1118=PRODUCT_DEFINITION_SHAPE('','',#1119);
#1119=PRODUCT_DEFINITION('','',#1121,#1120);
#1120=PRODUCT_DEFINITION_CONTEXT('',#1127,'design');
#1121=PRODUCT_DEFINITION_FORMATION_WITH_SPECIFIED_SOURCE('','',#1123,
 .NOT_KNOWN.);
#1122=PRODUCT_RELATED_PRODUCT_CATEGORY('','',(#1123));
#1123=PRODUCT('DEXI 3 Flow Mount Top v2','DEXI 3 Flow Mount Top v2',
'DEXI 3 Flow Mount Top v2',(#1125));
#1124=PRODUCT_CATEGORY('','');
#1125=PRODUCT_CONTEXT('',#1127,'mechanical');
#1126=APPLICATION_PROTOCOL_DEFINITION('international standard',
'ap242_managed_model_based_3d_engineering',2020,#1127);
#1127=APPLICATION_CONTEXT('managed model based 3d engineering');
ENDSEC;
END-ISO-10303-21;
