ISO-10303-21;
HEADER;
/* Generated by software containing ST-Developer
 * from STEP Tools, Inc. (www.steptools.com) 
 */
/* OPTION: using custom renumber hook */

FILE_DESCRIPTION(
/* description */ ('STEP AP242 Edition 2',
'CAx-IF Rec.Pracs.---Representation and Presentation of Product Manufa
cturing Information (PMI)---4.0---2014-10-13',
'CAx-IF Rec.Pracs.---3D Tessellated Geometry---0.4---2014-09-14','2;1',
'CAx-IF Rec.Pracs.---User Defined Attributes---1.5---2016-08-15'),
/* implementation_level */ '2;1');

FILE_NAME(
/* name */ 'dexi parts - Part 6',
/* time_stamp */ '2026-06-11T21:33:02Z',
/* author */ (''),
/* organization */ (''),
/* preprocessor_version */ 'ST-DEVELOPER v20',
/* originating_system */ 'ONSHAPE BY PTC INC, 1.216',
/* authorisation */ '  ');

FILE_SCHEMA (('AP242_MANAGED_MODEL_BASED_3D_ENGINEERING_MIM_LF { 1 0 10303 442 3 1 4 }'));
ENDSEC;

DATA;
#10=SHAPE_REPRESENTATION_RELATIONSHIP('','',#761,#11);
#11=ADVANCED_BREP_SHAPE_REPRESENTATION('',(#759),#1377);
#12=TOROIDAL_SURFACE('',#807,0.00139522584858302,0.000128774151416981);
#13=TOROIDAL_SURFACE('',#809,0.00282076712627671,0.00055188922035849);
#14=TOROIDAL_SURFACE('',#814,0.00282076712627671,0.00055188922035849);
#15=TOROIDAL_SURFACE('',#817,0.0006546088,0.0005518912);
#16=TOROIDAL_SURFACE('',#836,0.00139522584858302,0.000128774151416981);
#17=TOROIDAL_SURFACE('',#838,0.00282076712627671,0.00055188922035849);
#18=TOROIDAL_SURFACE('',#843,0.00282076712627671,0.00055188922035849);
#19=TOROIDAL_SURFACE('',#846,0.0006546088,0.0005518912);
#20=TOROIDAL_SURFACE('',#863,0.00381,0.002032);
#21=TOROIDAL_SURFACE('',#864,0.00381,0.002032);
#22=TOROIDAL_SURFACE('',#865,0.00381,0.002032);
#23=TOROIDAL_SURFACE('',#866,0.00381,0.002032);
#24=B_SPLINE_CURVE_WITH_KNOTS('',3,(#1194,#1195,#1196,#1197,#1198,#1199,
#1200,#1201),.UNSPECIFIED.,.F.,.F.,(4,1,1,1,1,4),(0.,0.000484820491839965,
0.00096964098367993,0.00193928196735986,0.00290892295103979,0.00387856393471972),
 .UNSPECIFIED.);
#25=B_SPLINE_CURVE_WITH_KNOTS('',3,(#1202,#1203,#1204,#1205,#1206,#1207,
#1208,#1209),.UNSPECIFIED.,.F.,.F.,(4,1,1,1,1,4),(0.,0.000964258259117283,
0.00192851651823457,0.00289277477735185,0.00337490390691049,0.00385703303646913),
 .UNSPECIFIED.);
#26=B_SPLINE_CURVE_WITH_KNOTS('',3,(#1222,#1223,#1224,#1225),
 .UNSPECIFIED.,.F.,.F.,(4,4),(0.,0.000985527398900704),.UNSPECIFIED.);
#27=B_SPLINE_CURVE_WITH_KNOTS('',3,(#1229,#1230,#1231,#1232,#1233),
 .UNSPECIFIED.,.F.,.F.,(4,1,4),(0.,0.000764068175471691,0.00152813635094338),
 .UNSPECIFIED.);
#28=B_SPLINE_CURVE_WITH_KNOTS('',3,(#1236,#1237,#1238,#1239,#1240,#1241),
 .UNSPECIFIED.,.F.,.F.,(4,1,1,4),(0.,0.001209914948198,0.00241982989639601,
0.00483965979279202),.UNSPECIFIED.);
#29=B_SPLINE_CURVE_WITH_KNOTS('',3,(#1252,#1253,#1254,#1255,#1256),
 .UNSPECIFIED.,.F.,.F.,(4,1,4),(0.,0.000733184568451459,0.00146636913690292),
 .UNSPECIFIED.);
#30=B_SPLINE_CURVE_WITH_KNOTS('',3,(#1257,#1258,#1259,#1260,#1261),
 .UNSPECIFIED.,.F.,.F.,(4,1,4),(0.,0.00073318456845151,0.00146636913690302),
 .UNSPECIFIED.);
#31=B_SPLINE_CURVE_WITH_KNOTS('',3,(#1286,#1287,#1288,#1289),
 .UNSPECIFIED.,.F.,.F.,(4,4),(0.,0.000985527398900704),.UNSPECIFIED.);
#32=B_SPLINE_CURVE_WITH_KNOTS('',3,(#1300,#1301,#1302,#1303,#1304),
 .UNSPECIFIED.,.F.,.F.,(4,1,4),(0.,0.000764068175471691,0.00152813635094338),
 .UNSPECIFIED.);
#33=B_SPLINE_CURVE_WITH_KNOTS('',3,(#1306,#1307,#1308,#1309,#1310,#1311),
 .UNSPECIFIED.,.F.,.F.,(4,1,1,4),(0.,0.00242336834627312,0.00363505251940969,
0.00484673669254625),.UNSPECIFIED.);
#34=B_SPLINE_CURVE_WITH_KNOTS('',3,(#1323,#1324,#1325,#1326,#1327),
 .UNSPECIFIED.,.F.,.F.,(4,1,4),(0.,0.000733184568451515,0.00146636913690303),
 .UNSPECIFIED.);
#35=B_SPLINE_CURVE_WITH_KNOTS('',3,(#1328,#1329,#1330,#1331,#1332),
 .UNSPECIFIED.,.F.,.F.,(4,1,4),(0.,0.000733184568451464,0.00146636913690293),
 .UNSPECIFIED.);
#36=CYLINDRICAL_SURFACE('',#782,0.00055188922035849);
#37=CYLINDRICAL_SURFACE('',#785,0.00055188922035849);
#38=CYLINDRICAL_SURFACE('',#794,0.0012065);
#39=CYLINDRICAL_SURFACE('',#796,0.0033726563466352);
#40=CYLINDRICAL_SURFACE('',#798,0.0033726563466352);
#41=CYLINDRICAL_SURFACE('',#800,0.001143);
#42=CYLINDRICAL_SURFACE('',#803,0.001524);
#43=CYLINDRICAL_SURFACE('',#811,0.00055188922035849);
#44=CYLINDRICAL_SURFACE('',#812,0.00055188922035849);
#45=CYLINDRICAL_SURFACE('',#823,0.0012065);
#46=CYLINDRICAL_SURFACE('',#825,0.0033726563466352);
#47=CYLINDRICAL_SURFACE('',#827,0.0033726563466352);
#48=CYLINDRICAL_SURFACE('',#829,0.001143);
#49=CYLINDRICAL_SURFACE('',#832,0.001524);
#50=CYLINDRICAL_SURFACE('',#840,0.00055188922035849);
#51=CYLINDRICAL_SURFACE('',#841,0.00055188922035849);
#52=CYLINDRICAL_SURFACE('',#847,0.00127);
#53=CYLINDRICAL_SURFACE('',#849,0.00127);
#54=CYLINDRICAL_SURFACE('',#851,0.00127);
#55=CYLINDRICAL_SURFACE('',#853,0.00127);
#56=CIRCLE('',#765,0.00127);
#57=CIRCLE('',#766,0.00127);
#58=CIRCLE('',#767,0.00127);
#59=CIRCLE('',#768,0.00127);
#60=CIRCLE('',#769,0.00282076712627671);
#61=CIRCLE('',#770,0.00282076712627671);
#62=CIRCLE('',#771,0.00282076712627671);
#63=CIRCLE('',#772,0.00282076712627671);
#64=CIRCLE('',#774,0.0033726563466352);
#65=CIRCLE('',#775,0.00381);
#66=CIRCLE('',#776,0.00381);
#67=CIRCLE('',#777,0.0033726563466352);
#68=CIRCLE('',#778,0.00381);
#69=CIRCLE('',#779,0.0033726563466352);
#70=CIRCLE('',#780,0.0033726563466352);
#71=CIRCLE('',#781,0.00381);
#72=CIRCLE('',#783,0.00055188922035849);
#73=CIRCLE('',#784,0.00055188922035849);
#74=CIRCLE('',#786,0.00055188922035849);
#75=CIRCLE('',#787,0.00055188922035849);
#76=CIRCLE('',#789,0.001524);
#77=CIRCLE('',#792,0.0012065);
#78=CIRCLE('',#793,0.001524);
#79=CIRCLE('',#795,0.0012065);
#80=CIRCLE('',#797,0.0033726563466352);
#81=CIRCLE('',#799,0.0033726563466352);
#82=CIRCLE('',#801,0.001143);
#83=CIRCLE('',#802,0.001143);
#84=CIRCLE('',#804,0.001524);
#85=CIRCLE('',#806,0.00139522584858302);
#86=CIRCLE('',#810,0.00055188922035849);
#87=CIRCLE('',#813,0.00055188922035849);
#88=CIRCLE('',#816,0.0006546088);
#89=CIRCLE('',#819,0.001524);
#90=CIRCLE('',#821,0.001524);
#91=CIRCLE('',#822,0.0012065);
#92=CIRCLE('',#824,0.0012065);
#93=CIRCLE('',#826,0.0033726563466352);
#94=CIRCLE('',#828,0.0033726563466352);
#95=CIRCLE('',#830,0.001143);
#96=CIRCLE('',#831,0.001143);
#97=CIRCLE('',#833,0.001524);
#98=CIRCLE('',#835,0.00139522584858302);
#99=CIRCLE('',#839,0.00055188922035849);
#100=CIRCLE('',#842,0.00055188922035849);
#101=CIRCLE('',#845,0.0006546088);
#102=CIRCLE('',#848,0.00127);
#103=CIRCLE('',#850,0.00127);
#104=CIRCLE('',#852,0.00127);
#105=CIRCLE('',#854,0.00127);
#106=CIRCLE('',#856,0.001778);
#107=CIRCLE('',#858,0.001778);
#108=CIRCLE('',#860,0.001778);
#109=CIRCLE('',#862,0.001778);
#110=ORIENTED_EDGE('',*,*,#302,.T.);
#111=ORIENTED_EDGE('',*,*,#303,.F.);
#112=ORIENTED_EDGE('',*,*,#304,.T.);
#113=ORIENTED_EDGE('',*,*,#305,.T.);
#114=ORIENTED_EDGE('',*,*,#306,.T.);
#115=ORIENTED_EDGE('',*,*,#307,.T.);
#116=ORIENTED_EDGE('',*,*,#308,.T.);
#117=ORIENTED_EDGE('',*,*,#309,.T.);
#118=ORIENTED_EDGE('',*,*,#310,.T.);
#119=ORIENTED_EDGE('',*,*,#311,.F.);
#120=ORIENTED_EDGE('',*,*,#312,.F.);
#121=ORIENTED_EDGE('',*,*,#313,.F.);
#122=ORIENTED_EDGE('',*,*,#314,.F.);
#123=ORIENTED_EDGE('',*,*,#315,.T.);
#124=ORIENTED_EDGE('',*,*,#316,.T.);
#125=ORIENTED_EDGE('',*,*,#317,.T.);
#126=ORIENTED_EDGE('',*,*,#318,.T.);
#127=ORIENTED_EDGE('',*,*,#319,.T.);
#128=ORIENTED_EDGE('',*,*,#320,.T.);
#129=ORIENTED_EDGE('',*,*,#321,.T.);
#130=ORIENTED_EDGE('',*,*,#322,.F.);
#131=ORIENTED_EDGE('',*,*,#323,.T.);
#132=ORIENTED_EDGE('',*,*,#324,.F.);
#133=ORIENTED_EDGE('',*,*,#325,.T.);
#134=ORIENTED_EDGE('',*,*,#326,.T.);
#135=ORIENTED_EDGE('',*,*,#327,.T.);
#136=ORIENTED_EDGE('',*,*,#328,.T.);
#137=ORIENTED_EDGE('',*,*,#329,.F.);
#138=ORIENTED_EDGE('',*,*,#302,.F.);
#139=ORIENTED_EDGE('',*,*,#330,.T.);
#140=ORIENTED_EDGE('',*,*,#331,.F.);
#141=ORIENTED_EDGE('',*,*,#332,.T.);
#142=ORIENTED_EDGE('',*,*,#333,.F.);
#143=ORIENTED_EDGE('',*,*,#334,.F.);
#144=ORIENTED_EDGE('',*,*,#304,.F.);
#145=ORIENTED_EDGE('',*,*,#335,.F.);
#146=ORIENTED_EDGE('',*,*,#310,.F.);
#147=ORIENTED_EDGE('',*,*,#336,.T.);
#148=ORIENTED_EDGE('',*,*,#315,.F.);
#149=ORIENTED_EDGE('',*,*,#337,.F.);
#150=ORIENTED_EDGE('',*,*,#338,.F.);
#151=ORIENTED_EDGE('',*,*,#339,.T.);
#152=ORIENTED_EDGE('',*,*,#340,.F.);
#153=ORIENTED_EDGE('',*,*,#341,.T.);
#154=ORIENTED_EDGE('',*,*,#342,.T.);
#155=ORIENTED_EDGE('',*,*,#334,.T.);
#156=ORIENTED_EDGE('',*,*,#338,.T.);
#157=ORIENTED_EDGE('',*,*,#343,.F.);
#158=ORIENTED_EDGE('',*,*,#344,.T.);
#159=ORIENTED_EDGE('',*,*,#322,.T.);
#160=ORIENTED_EDGE('',*,*,#345,.T.);
#161=ORIENTED_EDGE('',*,*,#346,.T.);
#162=ORIENTED_EDGE('',*,*,#347,.T.);
#163=ORIENTED_EDGE('',*,*,#348,.T.);
#164=ORIENTED_EDGE('',*,*,#349,.F.);
#165=ORIENTED_EDGE('',*,*,#350,.T.);
#166=ORIENTED_EDGE('',*,*,#351,.F.);
#167=ORIENTED_EDGE('',*,*,#333,.T.);
#168=ORIENTED_EDGE('',*,*,#352,.T.);
#169=ORIENTED_EDGE('',*,*,#331,.T.);
#170=ORIENTED_EDGE('',*,*,#353,.T.);
#171=ORIENTED_EDGE('',*,*,#349,.T.);
#172=ORIENTED_EDGE('',*,*,#354,.T.);
#173=ORIENTED_EDGE('',*,*,#342,.F.);
#174=ORIENTED_EDGE('',*,*,#355,.T.);
#175=ORIENTED_EDGE('',*,*,#346,.F.);
#176=ORIENTED_EDGE('',*,*,#356,.T.);
#177=ORIENTED_EDGE('',*,*,#320,.F.);
#178=ORIENTED_EDGE('',*,*,#305,.F.);
#179=ORIENTED_EDGE('',*,*,#357,.T.);
#180=ORIENTED_EDGE('',*,*,#347,.F.);
#181=ORIENTED_EDGE('',*,*,#330,.F.);
#182=ORIENTED_EDGE('',*,*,#358,.T.);
#183=ORIENTED_EDGE('',*,*,#359,.F.);
#184=ORIENTED_EDGE('',*,*,#360,.T.);
#185=ORIENTED_EDGE('',*,*,#351,.T.);
#186=ORIENTED_EDGE('',*,*,#361,.T.);
#187=ORIENTED_EDGE('',*,*,#362,.T.);
#188=ORIENTED_EDGE('',*,*,#340,.T.);
#189=ORIENTED_EDGE('',*,*,#363,.T.);
#190=ORIENTED_EDGE('',*,*,#358,.F.);
#191=ORIENTED_EDGE('',*,*,#360,.F.);
#192=ORIENTED_EDGE('',*,*,#363,.F.);
#193=ORIENTED_EDGE('',*,*,#359,.T.);
#194=ORIENTED_EDGE('',*,*,#336,.F.);
#195=ORIENTED_EDGE('',*,*,#319,.F.);
#196=ORIENTED_EDGE('',*,*,#364,.F.);
#197=ORIENTED_EDGE('',*,*,#357,.F.);
#198=ORIENTED_EDGE('',*,*,#364,.T.);
#199=ORIENTED_EDGE('',*,*,#318,.F.);
#200=ORIENTED_EDGE('',*,*,#361,.F.);
#201=ORIENTED_EDGE('',*,*,#350,.F.);
#202=ORIENTED_EDGE('',*,*,#354,.F.);
#203=ORIENTED_EDGE('',*,*,#348,.F.);
#204=ORIENTED_EDGE('',*,*,#362,.F.);
#205=ORIENTED_EDGE('',*,*,#317,.F.);
#206=ORIENTED_EDGE('',*,*,#365,.F.);
#207=ORIENTED_EDGE('',*,*,#341,.F.);
#208=ORIENTED_EDGE('',*,*,#365,.T.);
#209=ORIENTED_EDGE('',*,*,#316,.F.);
#210=ORIENTED_EDGE('',*,*,#339,.F.);
#211=ORIENTED_EDGE('',*,*,#355,.F.);
#212=ORIENTED_EDGE('',*,*,#366,.T.);
#213=ORIENTED_EDGE('',*,*,#353,.F.);
#214=ORIENTED_EDGE('',*,*,#366,.F.);
#215=ORIENTED_EDGE('',*,*,#367,.T.);
#216=ORIENTED_EDGE('',*,*,#325,.F.);
#217=ORIENTED_EDGE('',*,*,#368,.F.);
#218=ORIENTED_EDGE('',*,*,#369,.F.);
#219=ORIENTED_EDGE('',*,*,#370,.F.);
#220=ORIENTED_EDGE('',*,*,#328,.F.);
#221=ORIENTED_EDGE('',*,*,#371,.T.);
#222=ORIENTED_EDGE('',*,*,#326,.F.);
#223=ORIENTED_EDGE('',*,*,#372,.T.);
#224=ORIENTED_EDGE('',*,*,#373,.F.);
#225=ORIENTED_EDGE('',*,*,#374,.T.);
#226=ORIENTED_EDGE('',*,*,#375,.F.);
#227=ORIENTED_EDGE('',*,*,#376,.F.);
#228=ORIENTED_EDGE('',*,*,#374,.F.);
#229=ORIENTED_EDGE('',*,*,#377,.F.);
#230=ORIENTED_EDGE('',*,*,#368,.T.);
#231=ORIENTED_EDGE('',*,*,#324,.T.);
#232=ORIENTED_EDGE('',*,*,#378,.T.);
#233=ORIENTED_EDGE('',*,*,#343,.T.);
#234=ORIENTED_EDGE('',*,*,#379,.F.);
#235=ORIENTED_EDGE('',*,*,#303,.T.);
#236=ORIENTED_EDGE('',*,*,#329,.T.);
#237=ORIENTED_EDGE('',*,*,#370,.T.);
#238=ORIENTED_EDGE('',*,*,#380,.F.);
#239=ORIENTED_EDGE('',*,*,#381,.F.);
#240=ORIENTED_EDGE('',*,*,#382,.T.);
#241=ORIENTED_EDGE('',*,*,#383,.F.);
#242=ORIENTED_EDGE('',*,*,#372,.F.);
#243=ORIENTED_EDGE('',*,*,#367,.F.);
#244=ORIENTED_EDGE('',*,*,#384,.F.);
#245=ORIENTED_EDGE('',*,*,#385,.F.);
#246=ORIENTED_EDGE('',*,*,#386,.F.);
#247=ORIENTED_EDGE('',*,*,#381,.T.);
#248=ORIENTED_EDGE('',*,*,#383,.T.);
#249=ORIENTED_EDGE('',*,*,#386,.T.);
#250=ORIENTED_EDGE('',*,*,#382,.F.);
#251=ORIENTED_EDGE('',*,*,#335,.T.);
#252=ORIENTED_EDGE('',*,*,#380,.T.);
#253=ORIENTED_EDGE('',*,*,#387,.T.);
#254=ORIENTED_EDGE('',*,*,#311,.T.);
#255=ORIENTED_EDGE('',*,*,#387,.F.);
#256=ORIENTED_EDGE('',*,*,#375,.T.);
#257=ORIENTED_EDGE('',*,*,#377,.T.);
#258=ORIENTED_EDGE('',*,*,#373,.T.);
#259=ORIENTED_EDGE('',*,*,#385,.T.);
#260=ORIENTED_EDGE('',*,*,#312,.T.);
#261=ORIENTED_EDGE('',*,*,#384,.T.);
#262=ORIENTED_EDGE('',*,*,#369,.T.);
#263=ORIENTED_EDGE('',*,*,#388,.T.);
#264=ORIENTED_EDGE('',*,*,#313,.T.);
#265=ORIENTED_EDGE('',*,*,#388,.F.);
#266=ORIENTED_EDGE('',*,*,#379,.T.);
#267=ORIENTED_EDGE('',*,*,#337,.T.);
#268=ORIENTED_EDGE('',*,*,#314,.T.);
#269=ORIENTED_EDGE('',*,*,#389,.F.);
#270=ORIENTED_EDGE('',*,*,#376,.T.);
#271=ORIENTED_EDGE('',*,*,#389,.T.);
#272=ORIENTED_EDGE('',*,*,#309,.F.);
#273=ORIENTED_EDGE('',*,*,#390,.T.);
#274=ORIENTED_EDGE('',*,*,#308,.F.);
#275=ORIENTED_EDGE('',*,*,#391,.T.);
#276=ORIENTED_EDGE('',*,*,#307,.F.);
#277=ORIENTED_EDGE('',*,*,#392,.T.);
#278=ORIENTED_EDGE('',*,*,#306,.F.);
#279=ORIENTED_EDGE('',*,*,#393,.T.);
#280=ORIENTED_EDGE('',*,*,#393,.F.);
#281=ORIENTED_EDGE('',*,*,#394,.T.);
#282=ORIENTED_EDGE('',*,*,#392,.F.);
#283=ORIENTED_EDGE('',*,*,#395,.T.);
#284=ORIENTED_EDGE('',*,*,#391,.F.);
#285=ORIENTED_EDGE('',*,*,#396,.T.);
#286=ORIENTED_EDGE('',*,*,#390,.F.);
#287=ORIENTED_EDGE('',*,*,#397,.T.);
#288=ORIENTED_EDGE('',*,*,#345,.F.);
#289=ORIENTED_EDGE('',*,*,#321,.F.);
#290=ORIENTED_EDGE('',*,*,#356,.F.);
#291=ORIENTED_EDGE('',*,*,#396,.F.);
#292=ORIENTED_EDGE('',*,*,#352,.F.);
#293=ORIENTED_EDGE('',*,*,#332,.F.);
#294=ORIENTED_EDGE('',*,*,#395,.F.);
#295=ORIENTED_EDGE('',*,*,#371,.F.);
#296=ORIENTED_EDGE('',*,*,#327,.F.);
#297=ORIENTED_EDGE('',*,*,#394,.F.);
#298=ORIENTED_EDGE('',*,*,#378,.F.);
#299=ORIENTED_EDGE('',*,*,#323,.F.);
#300=ORIENTED_EDGE('',*,*,#344,.F.);
#301=ORIENTED_EDGE('',*,*,#397,.F.);
#302=EDGE_CURVE('',#398,#399,#466,.T.);
#303=EDGE_CURVE('',#400,#399,#467,.F.);
#304=EDGE_CURVE('',#400,#401,#468,.F.);
#305=EDGE_CURVE('',#401,#398,#469,.F.);
#306=EDGE_CURVE('',#402,#402,#56,.T.);
#307=EDGE_CURVE('',#403,#403,#57,.T.);
#308=EDGE_CURVE('',#404,#404,#58,.T.);
#309=EDGE_CURVE('',#405,#405,#59,.T.);
#310=EDGE_CURVE('',#406,#407,#470,.T.);
#311=EDGE_CURVE('',#408,#407,#60,.F.);
#312=EDGE_CURVE('',#409,#408,#471,.T.);
#313=EDGE_CURVE('',#410,#409,#472,.T.);
#314=EDGE_CURVE('',#411,#410,#61,.F.);
#315=EDGE_CURVE('',#411,#412,#473,.T.);
#316=EDGE_CURVE('',#412,#413,#62,.F.);
#317=EDGE_CURVE('',#413,#414,#474,.T.);
#318=EDGE_CURVE('',#414,#415,#475,.T.);
#319=EDGE_CURVE('',#415,#406,#63,.F.);
#320=EDGE_CURVE('',#416,#417,#64,.T.);
#321=EDGE_CURVE('',#417,#418,#65,.F.);
#322=EDGE_CURVE('',#419,#418,#476,.T.);
#323=EDGE_CURVE('',#419,#420,#66,.F.);
#324=EDGE_CURVE('',#421,#420,#67,.T.);
#325=EDGE_CURVE('',#421,#422,#477,.T.);
#326=EDGE_CURVE('',#422,#423,#478,.T.);
#327=EDGE_CURVE('',#423,#424,#68,.F.);
#328=EDGE_CURVE('',#424,#425,#479,.T.);
#329=EDGE_CURVE('',#399,#425,#69,.T.);
#330=EDGE_CURVE('',#398,#426,#70,.T.);
#331=EDGE_CURVE('',#427,#426,#480,.T.);
#332=EDGE_CURVE('',#427,#428,#71,.F.);
#333=EDGE_CURVE('',#429,#428,#481,.T.);
#334=EDGE_CURVE('',#416,#429,#482,.T.);
#335=EDGE_CURVE('',#407,#400,#72,.T.);
#336=EDGE_CURVE('',#406,#401,#73,.T.);
#337=EDGE_CURVE('',#430,#411,#74,.T.);
#338=EDGE_CURVE('',#431,#430,#483,.F.);
#339=EDGE_CURVE('',#431,#412,#75,.T.);
#340=EDGE_CURVE('',#432,#429,#76,.F.);
#341=EDGE_CURVE('',#432,#433,#484,.F.);
#342=EDGE_CURVE('',#433,#416,#485,.F.);
#343=EDGE_CURVE('',#434,#430,#486,.T.);
#344=EDGE_CURVE('',#434,#419,#24,.T.);
#345=EDGE_CURVE('',#418,#435,#25,.T.);
#346=EDGE_CURVE('',#435,#431,#487,.T.);
#347=EDGE_CURVE('',#426,#436,#488,.T.);
#348=EDGE_CURVE('',#436,#437,#489,.F.);
#349=EDGE_CURVE('',#438,#437,#77,.F.);
#350=EDGE_CURVE('',#438,#439,#490,.F.);
#351=EDGE_CURVE('',#429,#439,#78,.F.);
#352=EDGE_CURVE('',#428,#427,#26,.T.);
#353=EDGE_CURVE('',#440,#440,#79,.F.);
#354=EDGE_CURVE('',#437,#438,#27,.T.);
#355=EDGE_CURVE('',#433,#431,#80,.T.);
#356=EDGE_CURVE('',#435,#417,#28,.T.);
#357=EDGE_CURVE('',#401,#436,#81,.T.);
#358=EDGE_CURVE('',#441,#441,#82,.T.);
#359=EDGE_CURVE('',#442,#442,#83,.F.);
#360=EDGE_CURVE('',#443,#443,#84,.F.);
#361=EDGE_CURVE('',#439,#414,#29,.T.);
#362=EDGE_CURVE('',#414,#432,#30,.F.);
#363=EDGE_CURVE('',#444,#444,#85,.T.);
#364=EDGE_CURVE('',#436,#415,#86,.T.);
#365=EDGE_CURVE('',#433,#413,#87,.T.);
#366=EDGE_CURVE('',#445,#445,#88,.T.);
#367=EDGE_CURVE('',#446,#422,#89,.F.);
#368=EDGE_CURVE('',#447,#421,#491,.F.);
#369=EDGE_CURVE('',#446,#447,#492,.F.);
#370=EDGE_CURVE('',#425,#448,#493,.T.);
#371=EDGE_CURVE('',#424,#423,#31,.T.);
#372=EDGE_CURVE('',#422,#449,#90,.F.);
#373=EDGE_CURVE('',#450,#449,#494,.F.);
#374=EDGE_CURVE('',#450,#451,#91,.F.);
#375=EDGE_CURVE('',#448,#451,#495,.F.);
#376=EDGE_CURVE('',#452,#452,#92,.F.);
#377=EDGE_CURVE('',#451,#450,#32,.T.);
#378=EDGE_CURVE('',#420,#434,#33,.T.);
#379=EDGE_CURVE('',#447,#430,#93,.T.);
#380=EDGE_CURVE('',#400,#448,#94,.T.);
#381=EDGE_CURVE('',#453,#453,#95,.T.);
#382=EDGE_CURVE('',#454,#454,#96,.F.);
#383=EDGE_CURVE('',#455,#455,#97,.F.);
#384=EDGE_CURVE('',#409,#446,#34,.F.);
#385=EDGE_CURVE('',#449,#409,#35,.T.);
#386=EDGE_CURVE('',#456,#456,#98,.T.);
#387=EDGE_CURVE('',#448,#408,#99,.T.);
#388=EDGE_CURVE('',#447,#410,#100,.T.);
#389=EDGE_CURVE('',#457,#457,#101,.T.);
#390=EDGE_CURVE('',#458,#458,#102,.T.);
#391=EDGE_CURVE('',#459,#459,#103,.T.);
#392=EDGE_CURVE('',#460,#460,#104,.T.);
#393=EDGE_CURVE('',#461,#461,#105,.T.);
#394=EDGE_CURVE('',#462,#462,#106,.T.);
#395=EDGE_CURVE('',#463,#463,#107,.T.);
#396=EDGE_CURVE('',#464,#464,#108,.T.);
#397=EDGE_CURVE('',#465,#465,#109,.T.);
#398=VERTEX_POINT('',#1110);
#399=VERTEX_POINT('',#1111);
#400=VERTEX_POINT('',#1113);
#401=VERTEX_POINT('',#1115);
#402=VERTEX_POINT('',#1119);
#403=VERTEX_POINT('',#1121);
#404=VERTEX_POINT('',#1123);
#405=VERTEX_POINT('',#1125);
#406=VERTEX_POINT('',#1127);
#407=VERTEX_POINT('',#1128);
#408=VERTEX_POINT('',#1130);
#409=VERTEX_POINT('',#1132);
#410=VERTEX_POINT('',#1134);
#411=VERTEX_POINT('',#1136);
#412=VERTEX_POINT('',#1138);
#413=VERTEX_POINT('',#1140);
#414=VERTEX_POINT('',#1142);
#415=VERTEX_POINT('',#1144);
#416=VERTEX_POINT('',#1148);
#417=VERTEX_POINT('',#1149);
#418=VERTEX_POINT('',#1151);
#419=VERTEX_POINT('',#1153);
#420=VERTEX_POINT('',#1155);
#421=VERTEX_POINT('',#1157);
#422=VERTEX_POINT('',#1159);
#423=VERTEX_POINT('',#1161);
#424=VERTEX_POINT('',#1163);
#425=VERTEX_POINT('',#1165);
#426=VERTEX_POINT('',#1168);
#427=VERTEX_POINT('',#1170);
#428=VERTEX_POINT('',#1172);
#429=VERTEX_POINT('',#1174);
#430=VERTEX_POINT('',#1181);
#431=VERTEX_POINT('',#1183);
#432=VERTEX_POINT('',#1187);
#433=VERTEX_POINT('',#1189);
#434=VERTEX_POINT('',#1193);
#435=VERTEX_POINT('',#1210);
#436=VERTEX_POINT('',#1214);
#437=VERTEX_POINT('',#1216);
#438=VERTEX_POINT('',#1218);
#439=VERTEX_POINT('',#1220);
#440=VERTEX_POINT('',#1228);
#441=VERTEX_POINT('',#1246);
#442=VERTEX_POINT('',#1248);
#443=VERTEX_POINT('',#1251);
#444=VERTEX_POINT('',#1264);
#445=VERTEX_POINT('',#1275);
#446=VERTEX_POINT('',#1279);
#447=VERTEX_POINT('',#1281);
#448=VERTEX_POINT('',#1285);
#449=VERTEX_POINT('',#1291);
#450=VERTEX_POINT('',#1293);
#451=VERTEX_POINT('',#1295);
#452=VERTEX_POINT('',#1299);
#453=VERTEX_POINT('',#1317);
#454=VERTEX_POINT('',#1319);
#455=VERTEX_POINT('',#1322);
#456=VERTEX_POINT('',#1335);
#457=VERTEX_POINT('',#1346);
#458=VERTEX_POINT('',#1350);
#459=VERTEX_POINT('',#1353);
#460=VERTEX_POINT('',#1356);
#461=VERTEX_POINT('',#1359);
#462=VERTEX_POINT('',#1362);
#463=VERTEX_POINT('',#1365);
#464=VERTEX_POINT('',#1368);
#465=VERTEX_POINT('',#1371);
#466=LINE('',#1109,#496);
#467=LINE('',#1112,#497);
#468=LINE('',#1114,#498);
#469=LINE('',#1116,#499);
#470=LINE('',#1126,#500);
#471=LINE('',#1131,#501);
#472=LINE('',#1133,#502);
#473=LINE('',#1137,#503);
#474=LINE('',#1141,#504);
#475=LINE('',#1143,#505);
#476=LINE('',#1152,#506);
#477=LINE('',#1158,#507);
#478=LINE('',#1160,#508);
#479=LINE('',#1164,#509);
#480=LINE('',#1169,#510);
#481=LINE('',#1173,#511);
#482=LINE('',#1175,#512);
#483=LINE('',#1182,#513);
#484=LINE('',#1188,#514);
#485=LINE('',#1190,#515);
#486=LINE('',#1192,#516);
#487=LINE('',#1211,#517);
#488=LINE('',#1213,#518);
#489=LINE('',#1215,#519);
#490=LINE('',#1219,#520);
#491=LINE('',#1280,#521);
#492=LINE('',#1282,#522);
#493=LINE('',#1284,#523);
#494=LINE('',#1292,#524);
#495=LINE('',#1296,#525);
#496=VECTOR('',#871,1.);
#497=VECTOR('',#872,1.);
#498=VECTOR('',#873,1.);
#499=VECTOR('',#874,1.);
#500=VECTOR('',#885,1.);
#501=VECTOR('',#888,1.);
#502=VECTOR('',#889,1.);
#503=VECTOR('',#892,1.);
#504=VECTOR('',#895,1.);
#505=VECTOR('',#896,1.);
#506=VECTOR('',#905,1.);
#507=VECTOR('',#910,1.);
#508=VECTOR('',#911,1.);
#509=VECTOR('',#914,1.);
#510=VECTOR('',#919,1.);
#511=VECTOR('',#922,1.);
#512=VECTOR('',#923,1.);
#513=VECTOR('',#934,1.);
#514=VECTOR('',#941,1.);
#515=VECTOR('',#942,1.);
#516=VECTOR('',#945,1.);
#517=VECTOR('',#946,1.);
#518=VECTOR('',#949,1.);
#519=VECTOR('',#950,1.);
#520=VECTOR('',#953,1.);
#521=VECTOR('',#1008,1.);
#522=VECTOR('',#1009,1.);
#523=VECTOR('',#1012,1.);
#524=VECTOR('',#1015,1.);
#525=VECTOR('',#1018,1.);
#526=EDGE_LOOP('',(#110,#111,#112,#113));
#527=EDGE_LOOP('',(#114));
#528=EDGE_LOOP('',(#115));
#529=EDGE_LOOP('',(#116));
#530=EDGE_LOOP('',(#117));
#531=EDGE_LOOP('',(#118,#119,#120,#121,#122,#123,#124,#125,#126,#127));
#532=EDGE_LOOP('',(#128,#129,#130,#131,#132,#133,#134,#135,#136,#137,#138,
#139,#140,#141,#142,#143));
#533=EDGE_LOOP('',(#144,#145,#146,#147));
#534=EDGE_LOOP('',(#148,#149,#150,#151));
#535=EDGE_LOOP('',(#152,#153,#154,#155));
#536=EDGE_LOOP('',(#156,#157,#158,#159,#160,#161));
#537=EDGE_LOOP('',(#162,#163,#164,#165,#166,#167,#168,#169));
#538=EDGE_LOOP('',(#170));
#539=EDGE_LOOP('',(#171,#172));
#540=EDGE_LOOP('',(#173,#174,#175,#176,#177));
#541=EDGE_LOOP('',(#178,#179,#180,#181));
#542=EDGE_LOOP('',(#182));
#543=EDGE_LOOP('',(#183));
#544=EDGE_LOOP('',(#184));
#545=EDGE_LOOP('',(#185,#186,#187,#188));
#546=EDGE_LOOP('',(#189));
#547=EDGE_LOOP('',(#190));
#548=EDGE_LOOP('',(#191));
#549=EDGE_LOOP('',(#192));
#550=EDGE_LOOP('',(#193));
#551=EDGE_LOOP('',(#194,#195,#196,#197));
#552=EDGE_LOOP('',(#198,#199,#200,#201,#202,#203));
#553=EDGE_LOOP('',(#204,#205,#206,#207));
#554=EDGE_LOOP('',(#208,#209,#210,#211));
#555=EDGE_LOOP('',(#212));
#556=EDGE_LOOP('',(#213));
#557=EDGE_LOOP('',(#214));
#558=EDGE_LOOP('',(#215,#216,#217,#218));
#559=EDGE_LOOP('',(#219,#220,#221,#222,#223,#224,#225,#226));
#560=EDGE_LOOP('',(#227));
#561=EDGE_LOOP('',(#228,#229));
#562=EDGE_LOOP('',(#230,#231,#232,#233,#234));
#563=EDGE_LOOP('',(#235,#236,#237,#238));
#564=EDGE_LOOP('',(#239));
#565=EDGE_LOOP('',(#240));
#566=EDGE_LOOP('',(#241));
#567=EDGE_LOOP('',(#242,#243,#244,#245));
#568=EDGE_LOOP('',(#246));
#569=EDGE_LOOP('',(#247));
#570=EDGE_LOOP('',(#248));
#571=EDGE_LOOP('',(#249));
#572=EDGE_LOOP('',(#250));
#573=EDGE_LOOP('',(#251,#252,#253,#254));
#574=EDGE_LOOP('',(#255,#256,#257,#258,#259,#260));
#575=EDGE_LOOP('',(#261,#262,#263,#264));
#576=EDGE_LOOP('',(#265,#266,#267,#268));
#577=EDGE_LOOP('',(#269));
#578=EDGE_LOOP('',(#270));
#579=EDGE_LOOP('',(#271));
#580=EDGE_LOOP('',(#272));
#581=EDGE_LOOP('',(#273));
#582=EDGE_LOOP('',(#274));
#583=EDGE_LOOP('',(#275));
#584=EDGE_LOOP('',(#276));
#585=EDGE_LOOP('',(#277));
#586=EDGE_LOOP('',(#278));
#587=EDGE_LOOP('',(#279));
#588=EDGE_LOOP('',(#280));
#589=EDGE_LOOP('',(#281));
#590=EDGE_LOOP('',(#282));
#591=EDGE_LOOP('',(#283));
#592=EDGE_LOOP('',(#284));
#593=EDGE_LOOP('',(#285));
#594=EDGE_LOOP('',(#286));
#595=EDGE_LOOP('',(#287));
#596=EDGE_LOOP('',(#288,#289,#290));
#597=EDGE_LOOP('',(#291));
#598=EDGE_LOOP('',(#292,#293));
#599=EDGE_LOOP('',(#294));
#600=EDGE_LOOP('',(#295,#296));
#601=EDGE_LOOP('',(#297));
#602=EDGE_LOOP('',(#298,#299,#300));
#603=EDGE_LOOP('',(#301));
#604=FACE_BOUND('',#526,.T.);
#605=FACE_BOUND('',#527,.T.);
#606=FACE_BOUND('',#528,.T.);
#607=FACE_BOUND('',#529,.T.);
#608=FACE_BOUND('',#530,.T.);
#609=FACE_BOUND('',#531,.T.);
#610=FACE_BOUND('',#532,.T.);
#611=FACE_BOUND('',#533,.T.);
#612=FACE_BOUND('',#534,.T.);
#613=FACE_BOUND('',#535,.T.);
#614=FACE_BOUND('',#536,.T.);
#615=FACE_BOUND('',#537,.T.);
#616=FACE_BOUND('',#538,.T.);
#617=FACE_BOUND('',#539,.T.);
#618=FACE_BOUND('',#540,.T.);
#619=FACE_BOUND('',#541,.T.);
#620=FACE_BOUND('',#542,.T.);
#621=FACE_BOUND('',#543,.T.);
#622=FACE_BOUND('',#544,.T.);
#623=FACE_BOUND('',#545,.T.);
#624=FACE_BOUND('',#546,.T.);
#625=FACE_BOUND('',#547,.T.);
#626=FACE_BOUND('',#548,.T.);
#627=FACE_BOUND('',#549,.T.);
#628=FACE_BOUND('',#550,.T.);
#629=FACE_BOUND('',#551,.T.);
#630=FACE_BOUND('',#552,.T.);
#631=FACE_BOUND('',#553,.T.);
#632=FACE_BOUND('',#554,.T.);
#633=FACE_BOUND('',#555,.T.);
#634=FACE_BOUND('',#556,.T.);
#635=FACE_BOUND('',#557,.T.);
#636=FACE_BOUND('',#558,.T.);
#637=FACE_BOUND('',#559,.T.);
#638=FACE_BOUND('',#560,.T.);
#639=FACE_BOUND('',#561,.T.);
#640=FACE_BOUND('',#562,.T.);
#641=FACE_BOUND('',#563,.T.);
#642=FACE_BOUND('',#564,.T.);
#643=FACE_BOUND('',#565,.T.);
#644=FACE_BOUND('',#566,.T.);
#645=FACE_BOUND('',#567,.T.);
#646=FACE_BOUND('',#568,.T.);
#647=FACE_BOUND('',#569,.T.);
#648=FACE_BOUND('',#570,.T.);
#649=FACE_BOUND('',#571,.T.);
#650=FACE_BOUND('',#572,.T.);
#651=FACE_BOUND('',#573,.T.);
#652=FACE_BOUND('',#574,.T.);
#653=FACE_BOUND('',#575,.T.);
#654=FACE_BOUND('',#576,.T.);
#655=FACE_BOUND('',#577,.T.);
#656=FACE_BOUND('',#578,.T.);
#657=FACE_BOUND('',#579,.T.);
#658=FACE_BOUND('',#580,.T.);
#659=FACE_BOUND('',#581,.T.);
#660=FACE_BOUND('',#582,.T.);
#661=FACE_BOUND('',#583,.T.);
#662=FACE_BOUND('',#584,.T.);
#663=FACE_BOUND('',#585,.T.);
#664=FACE_BOUND('',#586,.T.);
#665=FACE_BOUND('',#587,.T.);
#666=FACE_BOUND('',#588,.T.);
#667=FACE_BOUND('',#589,.T.);
#668=FACE_BOUND('',#590,.T.);
#669=FACE_BOUND('',#591,.T.);
#670=FACE_BOUND('',#592,.T.);
#671=FACE_BOUND('',#593,.T.);
#672=FACE_BOUND('',#594,.T.);
#673=FACE_BOUND('',#595,.T.);
#674=FACE_BOUND('',#596,.T.);
#675=FACE_BOUND('',#597,.T.);
#676=FACE_BOUND('',#598,.T.);
#677=FACE_BOUND('',#599,.T.);
#678=FACE_BOUND('',#600,.T.);
#679=FACE_BOUND('',#601,.T.);
#680=FACE_BOUND('',#602,.T.);
#681=FACE_BOUND('',#603,.T.);
#682=PLANE('',#763);
#683=PLANE('',#764);
#684=PLANE('',#773);
#685=PLANE('',#788);
#686=PLANE('',#790);
#687=PLANE('',#791);
#688=PLANE('',#805);
#689=PLANE('',#808);
#690=PLANE('',#815);
#691=PLANE('',#818);
#692=PLANE('',#820);
#693=PLANE('',#834);
#694=PLANE('',#837);
#695=PLANE('',#844);
#696=PLANE('',#855);
#697=PLANE('',#857);
#698=PLANE('',#859);
#699=PLANE('',#861);
#700=ADVANCED_FACE('',(#604),#682,.F.);
#701=ADVANCED_FACE('',(#605,#606,#607,#608,#609),#683,.F.);
#702=ADVANCED_FACE('',(#610),#684,.T.);
#703=ADVANCED_FACE('',(#611),#36,.T.);
#704=ADVANCED_FACE('',(#612),#37,.T.);
#705=ADVANCED_FACE('',(#613),#685,.F.);
#706=ADVANCED_FACE('',(#614),#686,.F.);
#707=ADVANCED_FACE('',(#615),#687,.F.);
#708=ADVANCED_FACE('',(#616,#617),#38,.T.);
#709=ADVANCED_FACE('',(#618),#39,.T.);
#710=ADVANCED_FACE('',(#619),#40,.T.);
#711=ADVANCED_FACE('',(#620,#621),#41,.F.);
#712=ADVANCED_FACE('',(#622,#623),#42,.T.);
#713=ADVANCED_FACE('',(#624,#625),#688,.T.);
#714=ADVANCED_FACE('',(#626,#627),#12,.T.);
#715=ADVANCED_FACE('',(#628),#689,.F.);
#716=ADVANCED_FACE('',(#629),#13,.T.);
#717=ADVANCED_FACE('',(#630),#43,.T.);
#718=ADVANCED_FACE('',(#631),#44,.T.);
#719=ADVANCED_FACE('',(#632),#14,.T.);
#720=ADVANCED_FACE('',(#633),#690,.T.);
#721=ADVANCED_FACE('',(#634,#635),#15,.T.);
#722=ADVANCED_FACE('',(#636),#691,.F.);
#723=ADVANCED_FACE('',(#637),#692,.F.);
#724=ADVANCED_FACE('',(#638,#639),#45,.T.);
#725=ADVANCED_FACE('',(#640),#46,.T.);
#726=ADVANCED_FACE('',(#641),#47,.T.);
#727=ADVANCED_FACE('',(#642,#643),#48,.F.);
#728=ADVANCED_FACE('',(#644,#645),#49,.T.);
#729=ADVANCED_FACE('',(#646,#647),#693,.T.);
#730=ADVANCED_FACE('',(#648,#649),#16,.T.);
#731=ADVANCED_FACE('',(#650),#694,.F.);
#732=ADVANCED_FACE('',(#651),#17,.T.);
#733=ADVANCED_FACE('',(#652),#50,.T.);
#734=ADVANCED_FACE('',(#653),#51,.T.);
#735=ADVANCED_FACE('',(#654),#18,.T.);
#736=ADVANCED_FACE('',(#655),#695,.T.);
#737=ADVANCED_FACE('',(#656,#657),#19,.T.);
#738=ADVANCED_FACE('',(#658,#659),#52,.F.);
#739=ADVANCED_FACE('',(#660,#661),#53,.F.);
#740=ADVANCED_FACE('',(#662,#663),#54,.F.);
#741=ADVANCED_FACE('',(#664,#665),#55,.F.);
#742=ADVANCED_FACE('',(#666,#667),#696,.T.);
#743=ADVANCED_FACE('',(#668,#669),#697,.T.);
#744=ADVANCED_FACE('',(#670,#671),#698,.T.);
#745=ADVANCED_FACE('',(#672,#673),#699,.T.);
#746=ADVANCED_FACE('',(#674,#675),#20,.F.);
#747=ADVANCED_FACE('',(#676,#677),#21,.F.);
#748=ADVANCED_FACE('',(#678,#679),#22,.F.);
#749=ADVANCED_FACE('',(#680,#681),#23,.F.);
#750=CLOSED_SHELL('',(#700,#701,#702,#703,#704,#705,#706,#707,#708,#709,
#710,#711,#712,#713,#714,#715,#716,#717,#718,#719,#720,#721,#722,#723,#724,
#725,#726,#727,#728,#729,#730,#731,#732,#733,#734,#735,#736,#737,#738,#739,
#740,#741,#742,#743,#744,#745,#746,#747,#748,#749));
#751=STYLED_ITEM('',(#752),#759);
#752=PRESENTATION_STYLE_ASSIGNMENT((#753));
#753=SURFACE_STYLE_USAGE(.BOTH.,#754);
#754=SURFACE_SIDE_STYLE('',(#755));
#755=SURFACE_STYLE_FILL_AREA(#756);
#756=FILL_AREA_STYLE('',(#757));
#757=FILL_AREA_STYLE_COLOUR('',#758);
#758=COLOUR_RGB('',0.0745098039215686,0.588235294117647,0.945098039215686);
#759=MANIFOLD_SOLID_BREP('Part 6',#750);
#760=SHAPE_DEFINITION_REPRESENTATION(#1382,#761);
#761=SHAPE_REPRESENTATION('Part 6',(#762),#1377);
#762=AXIS2_PLACEMENT_3D('',#1107,#867,#868);
#763=AXIS2_PLACEMENT_3D('',#1108,#869,#870);
#764=AXIS2_PLACEMENT_3D('',#1117,#875,#876);
#765=AXIS2_PLACEMENT_3D('',#1118,#877,#878);
#766=AXIS2_PLACEMENT_3D('',#1120,#879,#880);
#767=AXIS2_PLACEMENT_3D('',#1122,#881,#882);
#768=AXIS2_PLACEMENT_3D('',#1124,#883,#884);
#769=AXIS2_PLACEMENT_3D('',#1129,#886,#887);
#770=AXIS2_PLACEMENT_3D('',#1135,#890,#891);
#771=AXIS2_PLACEMENT_3D('',#1139,#893,#894);
#772=AXIS2_PLACEMENT_3D('',#1145,#897,#898);
#773=AXIS2_PLACEMENT_3D('',#1146,#899,#900);
#774=AXIS2_PLACEMENT_3D('',#1147,#901,#902);
#775=AXIS2_PLACEMENT_3D('',#1150,#903,#904);
#776=AXIS2_PLACEMENT_3D('',#1154,#906,#907);
#777=AXIS2_PLACEMENT_3D('',#1156,#908,#909);
#778=AXIS2_PLACEMENT_3D('',#1162,#912,#913);
#779=AXIS2_PLACEMENT_3D('',#1166,#915,#916);
#780=AXIS2_PLACEMENT_3D('',#1167,#917,#918);
#781=AXIS2_PLACEMENT_3D('',#1171,#920,#921);
#782=AXIS2_PLACEMENT_3D('',#1176,#924,#925);
#783=AXIS2_PLACEMENT_3D('',#1177,#926,#927);
#784=AXIS2_PLACEMENT_3D('',#1178,#928,#929);
#785=AXIS2_PLACEMENT_3D('',#1179,#930,#931);
#786=AXIS2_PLACEMENT_3D('',#1180,#932,#933);
#787=AXIS2_PLACEMENT_3D('',#1184,#935,#936);
#788=AXIS2_PLACEMENT_3D('',#1185,#937,#938);
#789=AXIS2_PLACEMENT_3D('',#1186,#939,#940);
#790=AXIS2_PLACEMENT_3D('',#1191,#943,#944);
#791=AXIS2_PLACEMENT_3D('',#1212,#947,#948);
#792=AXIS2_PLACEMENT_3D('',#1217,#951,#952);
#793=AXIS2_PLACEMENT_3D('',#1221,#954,#955);
#794=AXIS2_PLACEMENT_3D('',#1226,#956,#957);
#795=AXIS2_PLACEMENT_3D('',#1227,#958,#959);
#796=AXIS2_PLACEMENT_3D('',#1234,#960,#961);
#797=AXIS2_PLACEMENT_3D('',#1235,#962,#963);
#798=AXIS2_PLACEMENT_3D('',#1242,#964,#965);
#799=AXIS2_PLACEMENT_3D('',#1243,#966,#967);
#800=AXIS2_PLACEMENT_3D('',#1244,#968,#969);
#801=AXIS2_PLACEMENT_3D('',#1245,#970,#971);
#802=AXIS2_PLACEMENT_3D('',#1247,#972,#973);
#803=AXIS2_PLACEMENT_3D('',#1249,#974,#975);
#804=AXIS2_PLACEMENT_3D('',#1250,#976,#977);
#805=AXIS2_PLACEMENT_3D('',#1262,#978,#979);
#806=AXIS2_PLACEMENT_3D('',#1263,#980,#981);
#807=AXIS2_PLACEMENT_3D('',#1265,#982,#983);
#808=AXIS2_PLACEMENT_3D('',#1266,#984,#985);
#809=AXIS2_PLACEMENT_3D('',#1267,#986,#987);
#810=AXIS2_PLACEMENT_3D('',#1268,#988,#989);
#811=AXIS2_PLACEMENT_3D('',#1269,#990,#991);
#812=AXIS2_PLACEMENT_3D('',#1270,#992,#993);
#813=AXIS2_PLACEMENT_3D('',#1271,#994,#995);
#814=AXIS2_PLACEMENT_3D('',#1272,#996,#997);
#815=AXIS2_PLACEMENT_3D('',#1273,#998,#999);
#816=AXIS2_PLACEMENT_3D('',#1274,#1000,#1001);
#817=AXIS2_PLACEMENT_3D('',#1276,#1002,#1003);
#818=AXIS2_PLACEMENT_3D('',#1277,#1004,#1005);
#819=AXIS2_PLACEMENT_3D('',#1278,#1006,#1007);
#820=AXIS2_PLACEMENT_3D('',#1283,#1010,#1011);
#821=AXIS2_PLACEMENT_3D('',#1290,#1013,#1014);
#822=AXIS2_PLACEMENT_3D('',#1294,#1016,#1017);
#823=AXIS2_PLACEMENT_3D('',#1297,#1019,#1020);
#824=AXIS2_PLACEMENT_3D('',#1298,#1021,#1022);
#825=AXIS2_PLACEMENT_3D('',#1305,#1023,#1024);
#826=AXIS2_PLACEMENT_3D('',#1312,#1025,#1026);
#827=AXIS2_PLACEMENT_3D('',#1313,#1027,#1028);
#828=AXIS2_PLACEMENT_3D('',#1314,#1029,#1030);
#829=AXIS2_PLACEMENT_3D('',#1315,#1031,#1032);
#830=AXIS2_PLACEMENT_3D('',#1316,#1033,#1034);
#831=AXIS2_PLACEMENT_3D('',#1318,#1035,#1036);
#832=AXIS2_PLACEMENT_3D('',#1320,#1037,#1038);
#833=AXIS2_PLACEMENT_3D('',#1321,#1039,#1040);
#834=AXIS2_PLACEMENT_3D('',#1333,#1041,#1042);
#835=AXIS2_PLACEMENT_3D('',#1334,#1043,#1044);
#836=AXIS2_PLACEMENT_3D('',#1336,#1045,#1046);
#837=AXIS2_PLACEMENT_3D('',#1337,#1047,#1048);
#838=AXIS2_PLACEMENT_3D('',#1338,#1049,#1050);
#839=AXIS2_PLACEMENT_3D('',#1339,#1051,#1052);
#840=AXIS2_PLACEMENT_3D('',#1340,#1053,#1054);
#841=AXIS2_PLACEMENT_3D('',#1341,#1055,#1056);
#842=AXIS2_PLACEMENT_3D('',#1342,#1057,#1058);
#843=AXIS2_PLACEMENT_3D('',#1343,#1059,#1060);
#844=AXIS2_PLACEMENT_3D('',#1344,#1061,#1062);
#845=AXIS2_PLACEMENT_3D('',#1345,#1063,#1064);
#846=AXIS2_PLACEMENT_3D('',#1347,#1065,#1066);
#847=AXIS2_PLACEMENT_3D('',#1348,#1067,#1068);
#848=AXIS2_PLACEMENT_3D('',#1349,#1069,#1070);
#849=AXIS2_PLACEMENT_3D('',#1351,#1071,#1072);
#850=AXIS2_PLACEMENT_3D('',#1352,#1073,#1074);
#851=AXIS2_PLACEMENT_3D('',#1354,#1075,#1076);
#852=AXIS2_PLACEMENT_3D('',#1355,#1077,#1078);
#853=AXIS2_PLACEMENT_3D('',#1357,#1079,#1080);
#854=AXIS2_PLACEMENT_3D('',#1358,#1081,#1082);
#855=AXIS2_PLACEMENT_3D('',#1360,#1083,#1084);
#856=AXIS2_PLACEMENT_3D('',#1361,#1085,#1086);
#857=AXIS2_PLACEMENT_3D('',#1363,#1087,#1088);
#858=AXIS2_PLACEMENT_3D('',#1364,#1089,#1090);
#859=AXIS2_PLACEMENT_3D('',#1366,#1091,#1092);
#860=AXIS2_PLACEMENT_3D('',#1367,#1093,#1094);
#861=AXIS2_PLACEMENT_3D('',#1369,#1095,#1096);
#862=AXIS2_PLACEMENT_3D('',#1370,#1097,#1098);
#863=AXIS2_PLACEMENT_3D('',#1372,#1099,#1100);
#864=AXIS2_PLACEMENT_3D('',#1373,#1101,#1102);
#865=AXIS2_PLACEMENT_3D('',#1374,#1103,#1104);
#866=AXIS2_PLACEMENT_3D('',#1375,#1105,#1106);
#867=DIRECTION('',(0.,0.,1.));
#868=DIRECTION('',(1.,0.,0.));
#869=DIRECTION('',(0.,0.,1.));
#870=DIRECTION('',(1.,0.,0.));
#871=DIRECTION('',(0.,-1.,0.));
#872=DIRECTION('',(-1.,0.,0.));
#873=DIRECTION('',(0.,-1.,0.));
#874=DIRECTION('',(-1.,0.,0.));
#875=DIRECTION('',(1.,0.,0.));
#876=DIRECTION('',(0.,1.,0.));
#877=DIRECTION('',(1.,0.,0.));
#878=DIRECTION('',(0.,0.,-1.));
#879=DIRECTION('',(1.,0.,0.));
#880=DIRECTION('',(0.,0.,-1.));
#881=DIRECTION('',(1.,0.,0.));
#882=DIRECTION('',(0.,0.,-1.));
#883=DIRECTION('',(1.,0.,0.));
#884=DIRECTION('',(0.,0.,-1.));
#885=DIRECTION('',(0.,-1.,0.));
#886=DIRECTION('',(-1.,0.,0.));
#887=DIRECTION('',(0.,0.,-1.));
#888=DIRECTION('',(0.,0.,-1.));
#889=DIRECTION('',(0.,0.,-1.));
#890=DIRECTION('',(-1.,0.,0.));
#891=DIRECTION('',(0.,0.,-1.));
#892=DIRECTION('',(0.,1.,0.));
#893=DIRECTION('',(1.,0.,0.));
#894=DIRECTION('',(0.,0.,-1.));
#895=DIRECTION('',(0.,0.,-1.));
#896=DIRECTION('',(0.,0.,-1.));
#897=DIRECTION('',(1.,0.,0.));
#898=DIRECTION('',(0.,0.,-1.));
#899=DIRECTION('',(1.,0.,0.));
#900=DIRECTION('',(0.,1.,0.));
#901=DIRECTION('',(1.,0.,0.));
#902=DIRECTION('',(0.,0.,-1.));
#903=DIRECTION('',(1.,0.,0.));
#904=DIRECTION('',(0.,0.,-1.));
#905=DIRECTION('',(0.,1.,0.));
#906=DIRECTION('',(1.,0.,0.));
#907=DIRECTION('',(0.,0.,-1.));
#908=DIRECTION('',(-1.,0.,0.));
#909=DIRECTION('',(0.,0.,-1.));
#910=DIRECTION('',(0.,0.,-1.));
#911=DIRECTION('',(0.,0.,-1.));
#912=DIRECTION('',(1.,0.,0.));
#913=DIRECTION('',(0.,0.,-1.));
#914=DIRECTION('',(0.,0.,-1.));
#915=DIRECTION('',(-1.,0.,0.));
#916=DIRECTION('',(0.,0.,-1.));
#917=DIRECTION('',(1.,0.,0.));
#918=DIRECTION('',(0.,0.,-1.));
#919=DIRECTION('',(0.,0.,-1.));
#920=DIRECTION('',(1.,0.,0.));
#921=DIRECTION('',(0.,0.,-1.));
#922=DIRECTION('',(0.,0.,-1.));
#923=DIRECTION('',(0.,0.,-1.));
#924=DIRECTION('',(0.,-1.,0.));
#925=DIRECTION('',(0.,0.,-1.));
#926=DIRECTION('',(0.,-1.,0.));
#927=DIRECTION('',(0.,0.,-1.));
#928=DIRECTION('',(0.,-1.,0.));
#929=DIRECTION('',(0.,0.,-1.));
#930=DIRECTION('',(0.,1.,0.));
#931=DIRECTION('',(0.,0.,1.));
#932=DIRECTION('',(0.,-1.,0.));
#933=DIRECTION('',(0.,0.,-1.));
#934=DIRECTION('',(0.,1.,0.));
#935=DIRECTION('',(0.,-1.,0.));
#936=DIRECTION('',(0.,0.,-1.));
#937=DIRECTION('',(0.,-1.,0.));
#938=DIRECTION('',(0.,0.,-1.));
#939=DIRECTION('',(0.,-1.,0.));
#940=DIRECTION('',(0.,0.,-1.));
#941=DIRECTION('',(0.,0.,-1.));
#942=DIRECTION('',(-1.,0.,0.));
#943=DIRECTION('',(0.,0.,-1.));
#944=DIRECTION('',(-1.,0.,0.));
#945=DIRECTION('',(-1.,0.,0.));
#946=DIRECTION('',(-1.,0.,0.));
#947=DIRECTION('',(0.,-1.,0.));
#948=DIRECTION('',(0.,0.,-1.));
#949=DIRECTION('',(-1.,0.,0.));
#950=DIRECTION('',(0.,0.,-1.));
#951=DIRECTION('',(0.,-1.,0.));
#952=DIRECTION('',(0.,0.,-1.));
#953=DIRECTION('',(0.,0.,-1.));
#954=DIRECTION('',(0.,-1.,0.));
#955=DIRECTION('',(0.,0.,-1.));
#956=DIRECTION('',(0.,1.,0.));
#957=DIRECTION('',(0.,0.,1.));
#958=DIRECTION('',(0.,1.,0.));
#959=DIRECTION('',(0.,0.,1.));
#960=DIRECTION('',(-1.,0.,0.));
#961=DIRECTION('',(0.,0.,1.));
#962=DIRECTION('',(1.,0.,0.));
#963=DIRECTION('',(0.,0.,-1.));
#964=DIRECTION('',(-1.,0.,0.));
#965=DIRECTION('',(0.,0.,1.));
#966=DIRECTION('',(1.,0.,0.));
#967=DIRECTION('',(0.,0.,-1.));
#968=DIRECTION('',(0.,-1.,0.));
#969=DIRECTION('',(0.,0.,-1.));
#970=DIRECTION('',(0.,1.,0.));
#971=DIRECTION('',(0.,0.,1.));
#972=DIRECTION('',(0.,-1.,0.));
#973=DIRECTION('',(0.,0.,-1.));
#974=DIRECTION('',(0.,-1.,0.));
#975=DIRECTION('',(0.,0.,-1.));
#976=DIRECTION('',(0.,1.,0.));
#977=DIRECTION('',(0.,0.,1.));
#978=DIRECTION('',(0.,1.,0.));
#979=DIRECTION('',(0.,0.,1.));
#980=DIRECTION('',(0.,1.,0.));
#981=DIRECTION('',(0.,0.,1.));
#982=DIRECTION('',(0.,1.,0.));
#983=DIRECTION('',(0.,0.,1.));
#984=DIRECTION('',(0.,-1.,0.));
#985=DIRECTION('',(0.,0.,-1.));
#986=DIRECTION('',(1.,0.,0.));
#987=DIRECTION('',(0.,0.,-1.));
#988=DIRECTION('',(0.,0.,1.));
#989=DIRECTION('',(1.,0.,0.));
#990=DIRECTION('',(0.,0.,-1.));
#991=DIRECTION('',(-1.,0.,0.));
#992=DIRECTION('',(0.,0.,-1.));
#993=DIRECTION('',(-1.,0.,0.));
#994=DIRECTION('',(0.,0.,1.));
#995=DIRECTION('',(1.,0.,0.));
#996=DIRECTION('',(1.,0.,0.));
#997=DIRECTION('',(0.,0.,-1.));
#998=DIRECTION('',(0.,1.,0.));
#999=DIRECTION('',(0.,0.,1.));
#1000=DIRECTION('',(0.,1.,0.));
#1001=DIRECTION('',(0.,0.,1.));
#1002=DIRECTION('',(0.,1.,0.));
#1003=DIRECTION('',(0.,0.,1.));
#1004=DIRECTION('',(0.,1.,0.));
#1005=DIRECTION('',(0.,0.,-1.));
#1006=DIRECTION('',(0.,-1.,0.));
#1007=DIRECTION('',(0.,0.,-1.));
#1008=DIRECTION('',(-1.,0.,0.));
#1009=DIRECTION('',(0.,0.,-1.));
#1010=DIRECTION('',(0.,1.,0.));
#1011=DIRECTION('',(0.,0.,-1.));
#1012=DIRECTION('',(-1.,0.,0.));
#1013=DIRECTION('',(0.,-1.,0.));
#1014=DIRECTION('',(0.,0.,-1.));
#1015=DIRECTION('',(0.,0.,-1.));
#1016=DIRECTION('',(0.,-1.,0.));
#1017=DIRECTION('',(0.,0.,-1.));
#1018=DIRECTION('',(0.,0.,-1.));
#1019=DIRECTION('',(0.,-1.,0.));
#1020=DIRECTION('',(0.,0.,1.));
#1021=DIRECTION('',(0.,1.,0.));
#1022=DIRECTION('',(0.,0.,1.));
#1023=DIRECTION('',(-1.,0.,0.));
#1024=DIRECTION('',(0.,0.,1.));
#1025=DIRECTION('',(-1.,0.,0.));
#1026=DIRECTION('',(0.,0.,-1.));
#1027=DIRECTION('',(-1.,0.,0.));
#1028=DIRECTION('',(0.,0.,1.));
#1029=DIRECTION('',(-1.,0.,0.));
#1030=DIRECTION('',(0.,0.,-1.));
#1031=DIRECTION('',(0.,1.,0.));
#1032=DIRECTION('',(0.,0.,-1.));
#1033=DIRECTION('',(0.,1.,0.));
#1034=DIRECTION('',(0.,0.,1.));
#1035=DIRECTION('',(0.,-1.,0.));
#1036=DIRECTION('',(0.,0.,-1.));
#1037=DIRECTION('',(0.,1.,0.));
#1038=DIRECTION('',(0.,0.,-1.));
#1039=DIRECTION('',(0.,1.,0.));
#1040=DIRECTION('',(0.,0.,1.));
#1041=DIRECTION('',(0.,-1.,0.));
#1042=DIRECTION('',(0.,0.,1.));
#1043=DIRECTION('',(0.,1.,0.));
#1044=DIRECTION('',(0.,0.,1.));
#1045=DIRECTION('',(0.,-1.,0.));
#1046=DIRECTION('',(0.,0.,1.));
#1047=DIRECTION('',(0.,1.,0.));
#1048=DIRECTION('',(0.,0.,-1.));
#1049=DIRECTION('',(1.,0.,0.));
#1050=DIRECTION('',(0.,0.,-1.));
#1051=DIRECTION('',(0.,0.,-1.));
#1052=DIRECTION('',(1.,0.,0.));
#1053=DIRECTION('',(0.,0.,-1.));
#1054=DIRECTION('',(-1.,0.,0.));
#1055=DIRECTION('',(0.,0.,-1.));
#1056=DIRECTION('',(-1.,0.,0.));
#1057=DIRECTION('',(0.,0.,-1.));
#1058=DIRECTION('',(1.,0.,0.));
#1059=DIRECTION('',(1.,0.,0.));
#1060=DIRECTION('',(0.,0.,-1.));
#1061=DIRECTION('',(0.,-1.,0.));
#1062=DIRECTION('',(0.,0.,1.));
#1063=DIRECTION('',(0.,1.,0.));
#1064=DIRECTION('',(0.,0.,1.));
#1065=DIRECTION('',(0.,-1.,0.));
#1066=DIRECTION('',(0.,0.,1.));
#1067=DIRECTION('',(1.,0.,0.));
#1068=DIRECTION('',(0.,0.,-1.));
#1069=DIRECTION('',(1.,0.,0.));
#1070=DIRECTION('',(0.,0.,-1.));
#1071=DIRECTION('',(1.,0.,0.));
#1072=DIRECTION('',(0.,0.,-1.));
#1073=DIRECTION('',(1.,0.,0.));
#1074=DIRECTION('',(0.,0.,-1.));
#1075=DIRECTION('',(1.,0.,0.));
#1076=DIRECTION('',(0.,0.,-1.));
#1077=DIRECTION('',(1.,0.,0.));
#1078=DIRECTION('',(0.,0.,-1.));
#1079=DIRECTION('',(1.,0.,0.));
#1080=DIRECTION('',(0.,0.,-1.));
#1081=DIRECTION('',(1.,0.,0.));
#1082=DIRECTION('',(0.,0.,-1.));
#1083=DIRECTION('',(1.,0.,0.));
#1084=DIRECTION('',(0.,1.,0.));
#1085=DIRECTION('',(1.,0.,0.));
#1086=DIRECTION('',(0.,0.,-1.));
#1087=DIRECTION('',(1.,0.,0.));
#1088=DIRECTION('',(0.,1.,0.));
#1089=DIRECTION('',(1.,0.,0.));
#1090=DIRECTION('',(0.,0.,-1.));
#1091=DIRECTION('',(1.,0.,0.));
#1092=DIRECTION('',(0.,1.,0.));
#1093=DIRECTION('',(1.,0.,0.));
#1094=DIRECTION('',(0.,0.,-1.));
#1095=DIRECTION('',(1.,0.,0.));
#1096=DIRECTION('',(0.,1.,0.));
#1097=DIRECTION('',(1.,0.,0.));
#1098=DIRECTION('',(0.,0.,-1.));
#1099=DIRECTION('',(1.,0.,0.));
#1100=DIRECTION('',(0.,0.,-1.));
#1101=DIRECTION('',(1.,0.,0.));
#1102=DIRECTION('',(0.,0.,-1.));
#1103=DIRECTION('',(1.,0.,0.));
#1104=DIRECTION('',(0.,0.,-1.));
#1105=DIRECTION('',(1.,0.,0.));
#1106=DIRECTION('',(0.,0.,-1.));
#1107=CARTESIAN_POINT('',(0.,0.,0.));
#1108=CARTESIAN_POINT('',(0.0709188700909981,0.0860139531705697,0.0385118015099451));
#1109=CARTESIAN_POINT('',(0.0730778700909981,0.0860139531705697,0.0385118015099451));
#1110=CARTESIAN_POINT('',(0.0730778700909981,0.0969192968239345,0.0385118015099451));
#1111=CARTESIAN_POINT('',(0.0730778700909981,0.0751086095172048,0.0385118015099451));
#1112=CARTESIAN_POINT('',(0.0709188700909981,0.0751086095172048,0.0385118015099451));
#1113=CARTESIAN_POINT('',(0.0705817593113566,0.0751086095172048,0.0385118015099451));
#1114=CARTESIAN_POINT('',(0.0705817593113566,0.0860139531705697,0.0385118015099451));
#1115=CARTESIAN_POINT('',(0.0705817593113566,0.0969192968239345,0.0385118015099451));
#1116=CARTESIAN_POINT('',(0.0709188700909981,0.0969192968239345,0.0385118015099451));
#1117=CARTESIAN_POINT('',(0.0700298700909981,0.0882319772678907,0.0504677609807527));
#1118=CARTESIAN_POINT('',(0.0700298700909981,0.0755139531705696,0.0480118051099451));
#1119=CARTESIAN_POINT('',(0.0700298700909981,0.0755139531705696,0.0467418051099451));
#1120=CARTESIAN_POINT('',(0.0700298700909981,0.0965139531705697,0.0480118051099451));
#1121=CARTESIAN_POINT('',(0.0700298700909981,0.0965139531705697,0.0467418051099451));
#1122=CARTESIAN_POINT('',(0.0700298700909981,0.0965139531705696,0.0605118055099451));
#1123=CARTESIAN_POINT('',(0.0700298700909981,0.0965139531705696,0.0592418055099451));
#1124=CARTESIAN_POINT('',(0.0700298700909981,0.0755139531705696,0.0605118055099451));
#1125=CARTESIAN_POINT('',(0.0700298700909981,0.0755139531705696,0.0592418055099451));
#1126=CARTESIAN_POINT('',(0.0700298700909981,0.0882319772678907,0.0390636907303036));
#1127=CARTESIAN_POINT('',(0.0700298700909981,0.0969192968239345,0.0390636907303036));
#1128=CARTESIAN_POINT('',(0.0700298700909981,0.0751086095172048,0.0390636907303036));
#1129=CARTESIAN_POINT('',(0.0700298700909981,0.0751086095172048,0.0418844578565803));
#1130=CARTESIAN_POINT('',(0.0700298700909981,0.0722878423909281,0.0418844578565803));
#1131=CARTESIAN_POINT('',(0.0700298700909981,0.0722878423909281,0.0504677609807527));
#1132=CARTESIAN_POINT('',(0.0700298700909981,0.0722878423909281,0.0555918015099451));
#1133=CARTESIAN_POINT('',(0.0700298700909981,0.0722878423909281,0.0504677609807527));
#1134=CARTESIAN_POINT('',(0.0700298700909981,0.0722878423909281,0.05913914516331));
#1135=CARTESIAN_POINT('',(0.0700298700909981,0.0751086095172048,0.05913914516331));
#1136=CARTESIAN_POINT('',(0.0700298700909981,0.0751086095172048,0.0619599122895867));
#1137=CARTESIAN_POINT('',(0.0700298700909981,0.0882319772678907,0.0619599122895867));
#1138=CARTESIAN_POINT('',(0.0700298700909981,0.0969192968239345,0.0619599122895867));
#1139=CARTESIAN_POINT('',(0.0700298700909981,0.0969192968239345,0.05913914516331));
#1140=CARTESIAN_POINT('',(0.0700298700909981,0.0997400639502112,0.05913914516331));
#1141=CARTESIAN_POINT('',(0.0700298700909981,0.0997400639502112,0.0504677609807527));
#1142=CARTESIAN_POINT('',(0.0700298700909981,0.0997400639502112,0.0555918015099451));
#1143=CARTESIAN_POINT('',(0.0700298700909981,0.0997400639502112,0.0504677609807527));
#1144=CARTESIAN_POINT('',(0.0700298700909981,0.0997400639502112,0.0418844578565803));
#1145=CARTESIAN_POINT('',(0.0700298700909981,0.0969192968239345,0.0418844578565803));
#1146=CARTESIAN_POINT('',(0.0730778700909981,0.0882319772678907,0.0504677609807527));
#1147=CARTESIAN_POINT('',(0.0730778700909981,0.0969192968239345,0.05913914516331));
#1148=CARTESIAN_POINT('',(0.0730778700909981,0.10029195317057,0.05913914516331));
#1149=CARTESIAN_POINT('',(0.0730778700909981,0.100241200399031,0.0597220409260819));
#1150=CARTESIAN_POINT('',(0.0730778700909981,0.0965139531705696,0.0605118055099451));
#1151=CARTESIAN_POINT('',(0.0730778700909981,0.0932710970220512,0.0625118015099452));
#1152=CARTESIAN_POINT('',(0.0730778700909981,0.0860139531705696,0.0625118015099452));
#1153=CARTESIAN_POINT('',(0.0730778700909981,0.0787568093190881,0.0625118015099452));
#1154=CARTESIAN_POINT('',(0.0730778700909981,0.0755139531705696,0.0605118055099451));
#1155=CARTESIAN_POINT('',(0.0730778700909981,0.071786705942108,0.0597220409260818));
#1156=CARTESIAN_POINT('',(0.0730778700909981,0.0751086095172048,0.05913914516331));
#1157=CARTESIAN_POINT('',(0.0730778700909981,0.0717359531705696,0.05913914516331));
#1158=CARTESIAN_POINT('',(0.0730778700909981,0.0717359531705696,0.0505118015099451));
#1159=CARTESIAN_POINT('',(0.0730778700909981,0.0717359531705696,0.0555918015099451));
#1160=CARTESIAN_POINT('',(0.0730778700909981,0.0717359531705696,0.0505118015099451));
#1161=CARTESIAN_POINT('',(0.0730778700909981,0.0717359531705696,0.048504568744967));
#1162=CARTESIAN_POINT('',(0.0730778700909981,0.0755139531705696,0.0480118051099451));
#1163=CARTESIAN_POINT('',(0.0730778700909981,0.0717359531705696,0.0475190414749232));
#1164=CARTESIAN_POINT('',(0.0730778700909981,0.0717359531705696,0.0505118015099451));
#1165=CARTESIAN_POINT('',(0.0730778700909981,0.0717359531705696,0.0418844578565803));
#1166=CARTESIAN_POINT('',(0.0730778700909981,0.0751086095172048,0.0418844578565803));
#1167=CARTESIAN_POINT('',(0.0730778700909981,0.0969192968239345,0.0418844578565803));
#1168=CARTESIAN_POINT('',(0.0730778700909981,0.10029195317057,0.0418844578565803));
#1169=CARTESIAN_POINT('',(0.0730778700909981,0.10029195317057,0.0505118015099451));
#1170=CARTESIAN_POINT('',(0.0730778700909981,0.10029195317057,0.0475190414749232));
#1171=CARTESIAN_POINT('',(0.0730778700909981,0.0965139531705697,0.0480118051099451));
#1172=CARTESIAN_POINT('',(0.0730778700909981,0.10029195317057,0.048504568744967));
#1173=CARTESIAN_POINT('',(0.0730778700909981,0.10029195317057,0.0505118015099451));
#1174=CARTESIAN_POINT('',(0.0730778700909981,0.10029195317057,0.0555918015099451));
#1175=CARTESIAN_POINT('',(0.0730778700909981,0.10029195317057,0.0505118015099451));
#1176=CARTESIAN_POINT('',(0.0705817593113566,0.0882319772678907,0.0390636907303036));
#1177=CARTESIAN_POINT('',(0.0705817593113566,0.0751086095172048,0.0390636907303036));
#1178=CARTESIAN_POINT('',(0.0705817593113566,0.0969192968239345,0.0390636907303036));
#1179=CARTESIAN_POINT('',(0.0705817593113566,0.0882319772678907,0.0619599122895867));
#1180=CARTESIAN_POINT('',(0.0705817593113566,0.0751086095172048,0.0619599122895867));
#1181=CARTESIAN_POINT('',(0.0705817593113566,0.0751086095172048,0.0625118015099452));
#1182=CARTESIAN_POINT('',(0.0705817593113566,0.0860139531705696,0.0625118015099452));
#1183=CARTESIAN_POINT('',(0.0705817593113566,0.0969192968239345,0.0625118015099452));
#1184=CARTESIAN_POINT('',(0.0705817593113566,0.0969192968239345,0.0619599122895867));
#1185=CARTESIAN_POINT('',(0.0709188700909981,0.10029195317057,0.0505118015099451));
#1186=CARTESIAN_POINT('',(0.0715538700909981,0.10029195317057,0.0555918015099451));
#1187=CARTESIAN_POINT('',(0.0705817593113566,0.10029195317057,0.0567655036152959));
#1188=CARTESIAN_POINT('',(0.0705817593113566,0.10029195317057,0.0505118015099451));
#1189=CARTESIAN_POINT('',(0.0705817593113566,0.10029195317057,0.05913914516331));
#1190=CARTESIAN_POINT('',(0.0709188700909981,0.10029195317057,0.05913914516331));
#1191=CARTESIAN_POINT('',(0.0709188700909981,0.0860139531705696,0.0625118015099452));
#1192=CARTESIAN_POINT('',(0.0709188700909981,0.0751086095172048,0.0625118015099452));
#1193=CARTESIAN_POINT('',(0.0741106429037497,0.0751086095172048,0.0625118015099452));
#1194=CARTESIAN_POINT('',(0.0741106429037497,0.0751086095172048,0.0625118015099452));
#1195=CARTESIAN_POINT('',(0.0741648493391762,0.0752627264733996,0.0625118015099452));
#1196=CARTESIAN_POINT('',(0.0742246731224914,0.0755904058908763,0.0625118015099452));
#1197=CARTESIAN_POINT('',(0.0740168261880961,0.0762178320977751,0.0625118015099452));
#1198=CARTESIAN_POINT('',(0.0735876691115737,0.0769042130917559,0.0625118015099452));
#1199=CARTESIAN_POINT('',(0.0731920674316714,0.0777909318401236,0.0625118015099452));
#1200=CARTESIAN_POINT('',(0.0730778700909981,0.0784314735422434,0.0625118015099452));
#1201=CARTESIAN_POINT('',(0.0730778700909981,0.0787568093190881,0.0625118015099452));
#1202=CARTESIAN_POINT('',(0.0730778700909981,0.0932710970220512,0.0625118015099452));
#1203=CARTESIAN_POINT('',(0.0730778700909981,0.0935965442970393,0.0625118015099452));
#1204=CARTESIAN_POINT('',(0.0731910699415468,0.0942340927522945,0.0625118015099452));
#1205=CARTESIAN_POINT('',(0.0735889404410798,0.095126410351328,0.0625118015099452));
#1206=CARTESIAN_POINT('',(0.0740186837144867,0.0958135383434054,0.0625118015099452));
#1207=CARTESIAN_POINT('',(0.0742245007109573,0.0964386829454003,0.0625118015099452));
#1208=CARTESIAN_POINT('',(0.0741647103952671,0.0967655749059335,0.0625118015099452));
#1209=CARTESIAN_POINT('',(0.0741106429037496,0.0969192968239345,0.0625118015099452));
#1210=CARTESIAN_POINT('',(0.0741106429037496,0.0969192968239345,0.0625118015099452));
#1211=CARTESIAN_POINT('',(0.0709188700909981,0.0969192968239345,0.0625118015099452));
#1212=CARTESIAN_POINT('',(0.0709188700909981,0.10029195317057,0.0505118015099451));
#1213=CARTESIAN_POINT('',(0.0709188700909981,0.10029195317057,0.0418844578565803));
#1214=CARTESIAN_POINT('',(0.0705817593113566,0.10029195317057,0.0418844578565803));
#1215=CARTESIAN_POINT('',(0.0705817593113566,0.10029195317057,0.0505118015099451));
#1216=CARTESIAN_POINT('',(0.0705817593113566,0.10029195317057,0.0497972087013438));
#1217=CARTESIAN_POINT('',(0.0715538700909981,0.10029195317057,0.0505118015099451));
#1218=CARTESIAN_POINT('',(0.0705817593113566,0.10029195317057,0.0512263943185465));
#1219=CARTESIAN_POINT('',(0.0705817593113566,0.10029195317057,0.0505118015099451));
#1220=CARTESIAN_POINT('',(0.0705817593113566,0.10029195317057,0.0544180994045944));
#1221=CARTESIAN_POINT('',(0.0715538700909981,0.10029195317057,0.0555918015099451));
#1222=CARTESIAN_POINT('',(0.0730778700909981,0.10029195317057,0.048504568744967));
#1223=CARTESIAN_POINT('',(0.0730778700909981,0.10029195317057,0.0481760595690478));
#1224=CARTESIAN_POINT('',(0.0730778700909981,0.10029195317057,0.0478475506508424));
#1225=CARTESIAN_POINT('',(0.0730778700909981,0.10029195317057,0.0475190414749232));
#1226=CARTESIAN_POINT('',(0.0715538700909981,0.10028995317057,0.0505118015099451));
#1227=CARTESIAN_POINT('',(0.0715538700909981,0.104176110165212,0.0505118015099451));
#1228=CARTESIAN_POINT('',(0.0715538700909981,0.104176110165212,0.0517183015099451));
#1229=CARTESIAN_POINT('',(0.0705817593113566,0.10029195317057,0.0497972087013438));
#1230=CARTESIAN_POINT('',(0.0704286938336451,0.10029195317057,0.0500054344196596));
#1231=CARTESIAN_POINT('',(0.0702660557404036,0.100187461316234,0.05051237914405));
#1232=CARTESIAN_POINT('',(0.0704286751818092,0.10029195317057,0.0510181432268285));
#1233=CARTESIAN_POINT('',(0.0705817593113566,0.10029195317057,0.0512263943185465));
#1234=CARTESIAN_POINT('',(0.0709188700909981,0.0969192968239345,0.05913914516331));
#1235=CARTESIAN_POINT('',(0.0705817593113566,0.0969192968239345,0.05913914516331));
#1236=CARTESIAN_POINT('',(0.0741106429037496,0.0969192968239345,0.0625118015099452));
#1237=CARTESIAN_POINT('',(0.0739749245131164,0.0973051643892789,0.0625118015099452));
#1238=CARTESIAN_POINT('',(0.0736633059040833,0.0980474108013504,0.0623847454035966));
#1239=CARTESIAN_POINT('',(0.0731896600085156,0.0994305872790946,0.0616286931877908));
#1240=CARTESIAN_POINT('',(0.0730778700909981,0.100099641725538,0.0605287791005499));
#1241=CARTESIAN_POINT('',(0.0730778700909981,0.100241200399031,0.0597220409260819));
#1242=CARTESIAN_POINT('',(0.0709188700909981,0.0969192968239345,0.0418844578565803));
#1243=CARTESIAN_POINT('',(0.0705817593113566,0.0969192968239345,0.0418844578565803));
#1244=CARTESIAN_POINT('',(0.0715538700909981,0.100712459556205,0.0555918015099451));
#1245=CARTESIAN_POINT('',(0.0715538700909981,0.100710459556205,0.0555918015099451));
#1246=CARTESIAN_POINT('',(0.0715538700909981,0.100710459556205,0.0567348015099451));
#1247=CARTESIAN_POINT('',(0.0715538700909981,0.0952119531705697,0.0555918015099451));
#1248=CARTESIAN_POINT('',(0.0715538700909981,0.0952119531705697,0.0544488015099451));
#1249=CARTESIAN_POINT('',(0.0715538700909981,0.100712459556205,0.0555918015099451));
#1250=CARTESIAN_POINT('',(0.0715538700909981,0.100581685404788,0.0555918015099451));
#1251=CARTESIAN_POINT('',(0.0715538700909981,0.100581685404788,0.0571158015099451));
#1252=CARTESIAN_POINT('',(0.0705817593113566,0.10029195317057,0.0544180994045944));
#1253=CARTESIAN_POINT('',(0.0703911555724506,0.10029195317057,0.0545759656539483));
#1254=CARTESIAN_POINT('',(0.0701122701313703,0.100116298390555,0.0549657455046801));
#1255=CARTESIAN_POINT('',(0.0700298700909981,0.0998660769853942,0.0553823981386443));
#1256=CARTESIAN_POINT('',(0.0700298700909981,0.0997400639502112,0.0555918015099451));
#1257=CARTESIAN_POINT('',(0.0705817593113566,0.10029195317057,0.0567655036152959));
#1258=CARTESIAN_POINT('',(0.0703911555724506,0.10029195317057,0.056607637365942));
#1259=CARTESIAN_POINT('',(0.0701122701313703,0.100116298390556,0.0562178575152097));
#1260=CARTESIAN_POINT('',(0.0700298700909981,0.0998660769853929,0.0558012048812467));
#1261=CARTESIAN_POINT('',(0.0700298700909981,0.0997400639502112,0.0555918015099451));
#1262=CARTESIAN_POINT('',(0.0679698397106527,0.100710459556205,0.062902));
#1263=CARTESIAN_POINT('',(0.0715538700909981,0.100710459556205,0.0555918015099451));
#1264=CARTESIAN_POINT('',(0.0715538700909981,0.100710459556205,0.0569870273585281));
#1265=CARTESIAN_POINT('',(0.0715538700909981,0.100581685404788,0.0555918015099451));
#1266=CARTESIAN_POINT('',(0.0709188700909981,0.0952119531705697,0.0505118015099451));
#1267=CARTESIAN_POINT('',(0.0705817593113566,0.0969192968239345,0.0418844578565803));
#1268=CARTESIAN_POINT('',(0.0705817593113566,0.0997400639502112,0.0418844578565803));
#1269=CARTESIAN_POINT('',(0.0705817593113566,0.0997400639502112,0.0504677609807527));
#1270=CARTESIAN_POINT('',(0.0705817593113566,0.0997400639502112,0.0504677609807527));
#1271=CARTESIAN_POINT('',(0.0705817593113566,0.0997400639502112,0.05913914516331));
#1272=CARTESIAN_POINT('',(0.0705817593113566,0.0969192968239345,0.05913914516331));
#1273=CARTESIAN_POINT('',(0.069648880973944,0.104728001365212,0.062902));
#1274=CARTESIAN_POINT('',(0.0715538700909981,0.104728001365212,0.0505118015099451));
#1275=CARTESIAN_POINT('',(0.0715538700909981,0.104728001365212,0.0511664103099451));
#1276=CARTESIAN_POINT('',(0.0715538700909981,0.104176110165212,0.0505118015099451));
#1277=CARTESIAN_POINT('',(0.0709188700909981,0.0717359531705696,0.0505118015099451));
#1278=CARTESIAN_POINT('',(0.0715538700909981,0.0717359531705696,0.0555918015099451));
#1279=CARTESIAN_POINT('',(0.0705817593113566,0.0717359531705696,0.0567655036152959));
#1280=CARTESIAN_POINT('',(0.0709188700909981,0.0717359531705696,0.05913914516331));
#1281=CARTESIAN_POINT('',(0.0705817593113566,0.0717359531705696,0.05913914516331));
#1282=CARTESIAN_POINT('',(0.0705817593113566,0.0717359531705696,0.0505118015099451));
#1283=CARTESIAN_POINT('',(0.0709188700909981,0.0717359531705696,0.0505118015099451));
#1284=CARTESIAN_POINT('',(0.0709188700909981,0.0717359531705696,0.0418844578565803));
#1285=CARTESIAN_POINT('',(0.0705817593113566,0.0717359531705696,0.0418844578565803));
#1286=CARTESIAN_POINT('',(0.0730778700909981,0.0717359531705696,0.0475190414749232));
#1287=CARTESIAN_POINT('',(0.0730778700909981,0.0717359531705696,0.0478475506508424));
#1288=CARTESIAN_POINT('',(0.0730778700909981,0.0717359531705696,0.0481760595690478));
#1289=CARTESIAN_POINT('',(0.0730778700909981,0.0717359531705696,0.048504568744967));
#1290=CARTESIAN_POINT('',(0.0715538700909981,0.0717359531705696,0.0555918015099451));
#1291=CARTESIAN_POINT('',(0.0705817593113566,0.0717359531705696,0.0544180994045944));
#1292=CARTESIAN_POINT('',(0.0705817593113566,0.0717359531705696,0.0505118015099451));
#1293=CARTESIAN_POINT('',(0.0705817593113566,0.0717359531705696,0.0512263943185465));
#1294=CARTESIAN_POINT('',(0.0715538700909981,0.0717359531705696,0.0505118015099451));
#1295=CARTESIAN_POINT('',(0.0705817593113566,0.0717359531705696,0.0497972087013438));
#1296=CARTESIAN_POINT('',(0.0705817593113566,0.0717359531705696,0.0505118015099451));
#1297=CARTESIAN_POINT('',(0.0715538700909981,0.0717379531705696,0.0505118015099451));
#1298=CARTESIAN_POINT('',(0.0715538700909981,0.0678517961759276,0.0505118015099451));
#1299=CARTESIAN_POINT('',(0.0715538700909981,0.0678517961759276,0.0517183015099451));
#1300=CARTESIAN_POINT('',(0.0705817593113566,0.0717359531705696,0.0497972087013438));
#1301=CARTESIAN_POINT('',(0.0704286938336451,0.0717359531705696,0.0500054344196596));
#1302=CARTESIAN_POINT('',(0.0702660557404036,0.0718404450249053,0.05051237914405));
#1303=CARTESIAN_POINT('',(0.0704286751818092,0.0717359531705696,0.0510181432268285));
#1304=CARTESIAN_POINT('',(0.0705817593113566,0.0717359531705696,0.0512263943185465));
#1305=CARTESIAN_POINT('',(0.0709188700909981,0.0751086095172048,0.05913914516331));
#1306=CARTESIAN_POINT('',(0.0730778700909981,0.071786705942108,0.0597220409260818));
#1307=CARTESIAN_POINT('',(0.0730778700909981,0.0719278571670024,0.0605264570645288));
#1308=CARTESIAN_POINT('',(0.0731892178102947,0.0725953598879388,0.0616263899995867));
#1309=CARTESIAN_POINT('',(0.0736621299104837,0.0739775230676882,0.0623841841309704));
#1310=CARTESIAN_POINT('',(0.073975321104252,0.0747238695194301,0.0625118015099452));
#1311=CARTESIAN_POINT('',(0.0741106429037497,0.0751086095172048,0.0625118015099452));
#1312=CARTESIAN_POINT('',(0.0705817593113566,0.0751086095172048,0.05913914516331));
#1313=CARTESIAN_POINT('',(0.0709188700909981,0.0751086095172048,0.0418844578565803));
#1314=CARTESIAN_POINT('',(0.0705817593113566,0.0751086095172048,0.0418844578565803));
#1315=CARTESIAN_POINT('',(0.0715538700909981,0.0713154467849339,0.0555918015099451));
#1316=CARTESIAN_POINT('',(0.0715538700909981,0.0713174467849339,0.0555918015099451));
#1317=CARTESIAN_POINT('',(0.0715538700909981,0.0713174467849339,0.0567348015099451));
#1318=CARTESIAN_POINT('',(0.0715538700909981,0.0768159531705696,0.0555918015099451));
#1319=CARTESIAN_POINT('',(0.0715538700909981,0.0768159531705696,0.0544488015099451));
#1320=CARTESIAN_POINT('',(0.0715538700909981,0.0713154467849339,0.0555918015099451));
#1321=CARTESIAN_POINT('',(0.0715538700909981,0.0714462209363509,0.0555918015099451));
#1322=CARTESIAN_POINT('',(0.0715538700909981,0.0714462209363509,0.0571158015099451));
#1323=CARTESIAN_POINT('',(0.0705817593113566,0.0717359531705696,0.0567655036152959));
#1324=CARTESIAN_POINT('',(0.0703911555724506,0.0717359531705696,0.056607637365942));
#1325=CARTESIAN_POINT('',(0.0701122701313703,0.0719116079505834,0.0562178575152097));
#1326=CARTESIAN_POINT('',(0.0700298700909981,0.0721618293557467,0.0558012048812468));
#1327=CARTESIAN_POINT('',(0.0700298700909981,0.0722878423909281,0.0555918015099451));
#1328=CARTESIAN_POINT('',(0.0705817593113566,0.0717359531705696,0.0544180994045944));
#1329=CARTESIAN_POINT('',(0.0703911555724506,0.0717359531705696,0.0545759656539483));
#1330=CARTESIAN_POINT('',(0.0701122701313703,0.0719116079505841,0.0549657455046802));
#1331=CARTESIAN_POINT('',(0.0700298700909981,0.0721618293557454,0.0553823981386441));
#1332=CARTESIAN_POINT('',(0.0700298700909981,0.0722878423909281,0.0555918015099451));
#1333=CARTESIAN_POINT('',(0.0679698397106527,0.0713174467849339,0.062902));
#1334=CARTESIAN_POINT('',(0.0715538700909981,0.0713174467849339,0.0555918015099451));
#1335=CARTESIAN_POINT('',(0.0715538700909981,0.0713174467849339,0.0569870273585281));
#1336=CARTESIAN_POINT('',(0.0715538700909981,0.0714462209363509,0.0555918015099451));
#1337=CARTESIAN_POINT('',(0.0709188700909981,0.0768159531705696,0.0505118015099451));
#1338=CARTESIAN_POINT('',(0.0705817593113566,0.0751086095172048,0.0418844578565803));
#1339=CARTESIAN_POINT('',(0.0705817593113566,0.0722878423909281,0.0418844578565803));
#1340=CARTESIAN_POINT('',(0.0705817593113566,0.0722878423909281,0.0504677609807527));
#1341=CARTESIAN_POINT('',(0.0705817593113566,0.0722878423909281,0.0504677609807527));
#1342=CARTESIAN_POINT('',(0.0705817593113566,0.0722878423909281,0.05913914516331));
#1343=CARTESIAN_POINT('',(0.0705817593113566,0.0751086095172048,0.05913914516331));
#1344=CARTESIAN_POINT('',(0.069648880973944,0.0672999049759276,0.062902));
#1345=CARTESIAN_POINT('',(0.0715538700909981,0.0672999049759276,0.0505118015099451));
#1346=CARTESIAN_POINT('',(0.0715538700909981,0.0672999049759276,0.0511664103099451));
#1347=CARTESIAN_POINT('',(0.0715538700909981,0.0678517961759276,0.0505118015099451));
#1348=CARTESIAN_POINT('',(0.0476778700909981,0.0755139531705696,0.0605118055099451));
#1349=CARTESIAN_POINT('',(0.0751098700909981,0.0755139531705696,0.0605118055099451));
#1350=CARTESIAN_POINT('',(0.0751098700909981,0.0755139531705696,0.0592418055099451));
#1351=CARTESIAN_POINT('',(0.0476778700909981,0.0965139531705696,0.0605118055099451));
#1352=CARTESIAN_POINT('',(0.0751098700909981,0.0965139531705696,0.0605118055099451));
#1353=CARTESIAN_POINT('',(0.0751098700909981,0.0965139531705696,0.0592418055099451));
#1354=CARTESIAN_POINT('',(0.0476778700909981,0.0965139531705697,0.0480118051099451));
#1355=CARTESIAN_POINT('',(0.0751098700909981,0.0965139531705697,0.0480118051099451));
#1356=CARTESIAN_POINT('',(0.0751098700909981,0.0965139531705697,0.0467418051099451));
#1357=CARTESIAN_POINT('',(0.0476778700909981,0.0755139531705696,0.0480118051099451));
#1358=CARTESIAN_POINT('',(0.0751098700909981,0.0755139531705696,0.0480118051099451));
#1359=CARTESIAN_POINT('',(0.0751098700909981,0.0755139531705696,0.0467418051099451));
#1360=CARTESIAN_POINT('',(0.0751098700909981,0.0860139531705697,0.0505118015099452));
#1361=CARTESIAN_POINT('',(0.0751098700909981,0.0755139531705696,0.0480118051099451));
#1362=CARTESIAN_POINT('',(0.0751098700909981,0.0755139531705696,0.0462338051099451));
#1363=CARTESIAN_POINT('',(0.0751098700909981,0.0860139531705697,0.0505118015099452));
#1364=CARTESIAN_POINT('',(0.0751098700909981,0.0965139531705697,0.0480118051099451));
#1365=CARTESIAN_POINT('',(0.0751098700909981,0.0965139531705697,0.0462338051099451));
#1366=CARTESIAN_POINT('',(0.0751098700909981,0.0860139531705697,0.0505118015099452));
#1367=CARTESIAN_POINT('',(0.0751098700909981,0.0965139531705696,0.0605118055099451));
#1368=CARTESIAN_POINT('',(0.0751098700909981,0.0965139531705696,0.0587338055099451));
#1369=CARTESIAN_POINT('',(0.0751098700909981,0.0860139531705697,0.0505118015099452));
#1370=CARTESIAN_POINT('',(0.0751098700909981,0.0755139531705696,0.0605118055099451));
#1371=CARTESIAN_POINT('',(0.0751098700909981,0.0755139531705696,0.0587338055099451));
#1372=CARTESIAN_POINT('',(0.0751098700909981,0.0965139531705696,0.0605118055099451));
#1373=CARTESIAN_POINT('',(0.0751098700909981,0.0965139531705697,0.0480118051099451));
#1374=CARTESIAN_POINT('',(0.0751098700909981,0.0755139531705696,0.0480118051099451));
#1375=CARTESIAN_POINT('',(0.0751098700909981,0.0755139531705696,0.0605118055099451));
#1376=MECHANICAL_DESIGN_GEOMETRIC_PRESENTATION_REPRESENTATION('',(#751),
#1377);
#1377=(
GEOMETRIC_REPRESENTATION_CONTEXT(3)
GLOBAL_UNCERTAINTY_ASSIGNED_CONTEXT((#1378))
GLOBAL_UNIT_ASSIGNED_CONTEXT((#1381,#1380,#1379))
REPRESENTATION_CONTEXT('Part 6','TOP_LEVEL_ASSEMBLY_PART')
);
#1378=UNCERTAINTY_MEASURE_WITH_UNIT(LENGTH_MEASURE(2.E-5),#1381,
'DISTANCE_ACCURACY_VALUE','Maximum Tolerance applied to model');
#1379=(
NAMED_UNIT(*)
SI_UNIT($,.STERADIAN.)
SOLID_ANGLE_UNIT()
);
#1380=(
NAMED_UNIT(*)
PLANE_ANGLE_UNIT()
SI_UNIT($,.RADIAN.)
);
#1381=(
LENGTH_UNIT()
NAMED_UNIT(*)
SI_UNIT($,.METRE.)
);
#1382=PRODUCT_DEFINITION_SHAPE('','',#1383);
#1383=PRODUCT_DEFINITION('','',#1385,#1384);
#1384=PRODUCT_DEFINITION_CONTEXT('',#1391,'design');
#1385=PRODUCT_DEFINITION_FORMATION_WITH_SPECIFIED_SOURCE('','',#1387,
 .NOT_KNOWN.);
#1386=PRODUCT_RELATED_PRODUCT_CATEGORY('','',(#1387));
#1387=PRODUCT('Part 6','Part 6','Part 6',(#1389));
#1388=PRODUCT_CATEGORY('','');
#1389=PRODUCT_CONTEXT('',#1391,'mechanical');
#1390=APPLICATION_PROTOCOL_DEFINITION('international standard',
'ap242_managed_model_based_3d_engineering',2020,#1391);
#1391=APPLICATION_CONTEXT('managed model based 3d engineering');
ENDSEC;
END-ISO-10303-21;
