ISO-10303-21;
HEADER;
/* Generated by software containing ST-Developer
 * from STEP Tools, Inc. (www.steptools.com) 
 */
/* OPTION: using custom renumber hook */

FILE_DESCRIPTION(
/* description */ ('STEP AP242 Edition 2',
'CAx-IF Rec.Pracs.---Representation and Presentation of Product Manufa
cturing Information (PMI)---4.0---2014-10-13',
'CAx-IF Rec.Pracs.---3D Tessellated Geometry---0.4---2014-09-14','2;1',
'CAx-IF Rec.Pracs.---User Defined Attributes---1.5---2016-08-15'),
/* implementation_level */ '2;1');

FILE_NAME(
/* name */ 'dexi parts - Part 20',
/* time_stamp */ '2026-07-21T17:59:28Z',
/* author */ (''),
/* organization */ (''),
/* preprocessor_version */ 'ST-DEVELOPER v20',
/* originating_system */ 'ONSHAPE BY PTC INC, 1.218',
/* authorisation */ '  ');

FILE_SCHEMA (('AP242_MANAGED_MODEL_BASED_3D_ENGINEERING_MIM_LF { 1 0 10303 442 3 1 4 }'));
ENDSEC;

DATA;
#10=SHAPE_REPRESENTATION_RELATIONSHIP('','',#399,#11);
#11=ADVANCED_BREP_SHAPE_REPRESENTATION('',(#397),#657);
#12=PLANE('',#404);
#13=PLANE('',#405);
#14=PLANE('',#406);
#15=PLANE('',#407);
#16=PLANE('',#408);
#17=PLANE('',#412);
#18=PLANE('',#416);
#19=PLANE('',#420);
#20=PLANE('',#424);
#21=PLANE('',#434);
#22=PLANE('',#435);
#23=PLANE('',#436);
#24=LINE('',#552,#60);
#25=LINE('',#556,#61);
#26=LINE('',#558,#62);
#27=LINE('',#560,#63);
#28=LINE('',#562,#64);
#29=LINE('',#564,#65);
#30=LINE('',#566,#66);
#31=LINE('',#568,#67);
#32=LINE('',#570,#68);
#33=LINE('',#572,#69);
#34=LINE('',#574,#70);
#35=LINE('',#576,#71);
#36=LINE('',#578,#72);
#37=LINE('',#580,#73);
#38=LINE('',#582,#74);
#39=LINE('',#584,#75);
#40=LINE('',#586,#76);
#41=LINE('',#590,#77);
#42=LINE('',#594,#78);
#43=LINE('',#597,#79);
#44=LINE('',#599,#80);
#45=LINE('',#601,#81);
#46=LINE('',#605,#82);
#47=LINE('',#609,#83);
#48=LINE('',#611,#84);
#49=LINE('',#613,#85);
#50=LINE('',#617,#86);
#51=LINE('',#621,#87);
#52=LINE('',#623,#88);
#53=LINE('',#625,#89);
#54=LINE('',#629,#90);
#55=LINE('',#633,#91);
#56=LINE('',#635,#92);
#57=LINE('',#637,#93);
#58=LINE('',#652,#94);
#59=LINE('',#653,#95);
#60=VECTOR('',#443,1.);
#61=VECTOR('',#446,1.);
#62=VECTOR('',#449,1.);
#63=VECTOR('',#450,1.);
#64=VECTOR('',#451,1.);
#65=VECTOR('',#454,1.);
#66=VECTOR('',#455,1.);
#67=VECTOR('',#456,1.);
#68=VECTOR('',#459,1.);
#69=VECTOR('',#460,1.);
#70=VECTOR('',#461,1.);
#71=VECTOR('',#464,1.);
#72=VECTOR('',#465,1.);
#73=VECTOR('',#466,1.);
#74=VECTOR('',#469,1.);
#75=VECTOR('',#470,1.);
#76=VECTOR('',#471,1.);
#77=VECTOR('',#476,1.);
#78=VECTOR('',#481,1.);
#79=VECTOR('',#482,1.);
#80=VECTOR('',#483,1.);
#81=VECTOR('',#484,1.);
#82=VECTOR('',#489,1.);
#83=VECTOR('',#494,1.);
#84=VECTOR('',#495,1.);
#85=VECTOR('',#496,1.);
#86=VECTOR('',#501,1.);
#87=VECTOR('',#506,1.);
#88=VECTOR('',#507,1.);
#89=VECTOR('',#508,1.);
#90=VECTOR('',#513,1.);
#91=VECTOR('',#518,1.);
#92=VECTOR('',#519,1.);
#93=VECTOR('',#520,1.);
#94=VECTOR('',#541,1.);
#95=VECTOR('',#542,1.);
#96=ORIENTED_EDGE('',*,*,#200,.F.);
#97=ORIENTED_EDGE('',*,*,#201,.F.);
#98=ORIENTED_EDGE('',*,*,#202,.T.);
#99=ORIENTED_EDGE('',*,*,#203,.T.);
#100=ORIENTED_EDGE('',*,*,#204,.F.);
#101=ORIENTED_EDGE('',*,*,#205,.F.);
#102=ORIENTED_EDGE('',*,*,#206,.T.);
#103=ORIENTED_EDGE('',*,*,#201,.T.);
#104=ORIENTED_EDGE('',*,*,#207,.F.);
#105=ORIENTED_EDGE('',*,*,#208,.F.);
#106=ORIENTED_EDGE('',*,*,#209,.T.);
#107=ORIENTED_EDGE('',*,*,#205,.T.);
#108=ORIENTED_EDGE('',*,*,#210,.F.);
#109=ORIENTED_EDGE('',*,*,#211,.F.);
#110=ORIENTED_EDGE('',*,*,#212,.T.);
#111=ORIENTED_EDGE('',*,*,#208,.T.);
#112=ORIENTED_EDGE('',*,*,#213,.F.);
#113=ORIENTED_EDGE('',*,*,#214,.F.);
#114=ORIENTED_EDGE('',*,*,#215,.T.);
#115=ORIENTED_EDGE('',*,*,#211,.T.);
#116=ORIENTED_EDGE('',*,*,#216,.F.);
#117=ORIENTED_EDGE('',*,*,#217,.F.);
#118=ORIENTED_EDGE('',*,*,#218,.T.);
#119=ORIENTED_EDGE('',*,*,#214,.T.);
#120=ORIENTED_EDGE('',*,*,#219,.F.);
#121=ORIENTED_EDGE('',*,*,#220,.F.);
#122=ORIENTED_EDGE('',*,*,#221,.T.);
#123=ORIENTED_EDGE('',*,*,#217,.T.);
#124=ORIENTED_EDGE('',*,*,#222,.T.);
#125=ORIENTED_EDGE('',*,*,#223,.F.);
#126=ORIENTED_EDGE('',*,*,#224,.F.);
#127=ORIENTED_EDGE('',*,*,#225,.T.);
#128=ORIENTED_EDGE('',*,*,#226,.T.);
#129=ORIENTED_EDGE('',*,*,#227,.F.);
#130=ORIENTED_EDGE('',*,*,#228,.F.);
#131=ORIENTED_EDGE('',*,*,#223,.T.);
#132=ORIENTED_EDGE('',*,*,#229,.T.);
#133=ORIENTED_EDGE('',*,*,#230,.F.);
#134=ORIENTED_EDGE('',*,*,#231,.F.);
#135=ORIENTED_EDGE('',*,*,#227,.T.);
#136=ORIENTED_EDGE('',*,*,#232,.T.);
#137=ORIENTED_EDGE('',*,*,#233,.F.);
#138=ORIENTED_EDGE('',*,*,#234,.F.);
#139=ORIENTED_EDGE('',*,*,#230,.T.);
#140=ORIENTED_EDGE('',*,*,#235,.T.);
#141=ORIENTED_EDGE('',*,*,#236,.F.);
#142=ORIENTED_EDGE('',*,*,#237,.F.);
#143=ORIENTED_EDGE('',*,*,#233,.T.);
#144=ORIENTED_EDGE('',*,*,#238,.T.);
#145=ORIENTED_EDGE('',*,*,#239,.F.);
#146=ORIENTED_EDGE('',*,*,#240,.F.);
#147=ORIENTED_EDGE('',*,*,#236,.T.);
#148=ORIENTED_EDGE('',*,*,#241,.T.);
#149=ORIENTED_EDGE('',*,*,#242,.F.);
#150=ORIENTED_EDGE('',*,*,#243,.F.);
#151=ORIENTED_EDGE('',*,*,#239,.T.);
#152=ORIENTED_EDGE('',*,*,#244,.T.);
#153=ORIENTED_EDGE('',*,*,#225,.F.);
#154=ORIENTED_EDGE('',*,*,#245,.F.);
#155=ORIENTED_EDGE('',*,*,#242,.T.);
#156=ORIENTED_EDGE('',*,*,#246,.F.);
#157=ORIENTED_EDGE('',*,*,#247,.T.);
#158=ORIENTED_EDGE('',*,*,#248,.F.);
#159=ORIENTED_EDGE('',*,*,#249,.T.);
#160=ORIENTED_EDGE('',*,*,#250,.F.);
#161=ORIENTED_EDGE('',*,*,#203,.F.);
#162=ORIENTED_EDGE('',*,*,#251,.T.);
#163=ORIENTED_EDGE('',*,*,#220,.T.);
#164=ORIENTED_EDGE('',*,*,#248,.T.);
#165=ORIENTED_EDGE('',*,*,#246,.T.);
#166=ORIENTED_EDGE('',*,*,#224,.T.);
#167=ORIENTED_EDGE('',*,*,#228,.T.);
#168=ORIENTED_EDGE('',*,*,#231,.T.);
#169=ORIENTED_EDGE('',*,*,#234,.T.);
#170=ORIENTED_EDGE('',*,*,#237,.T.);
#171=ORIENTED_EDGE('',*,*,#240,.T.);
#172=ORIENTED_EDGE('',*,*,#243,.T.);
#173=ORIENTED_EDGE('',*,*,#245,.T.);
#174=ORIENTED_EDGE('',*,*,#202,.F.);
#175=ORIENTED_EDGE('',*,*,#206,.F.);
#176=ORIENTED_EDGE('',*,*,#209,.F.);
#177=ORIENTED_EDGE('',*,*,#212,.F.);
#178=ORIENTED_EDGE('',*,*,#215,.F.);
#179=ORIENTED_EDGE('',*,*,#218,.F.);
#180=ORIENTED_EDGE('',*,*,#221,.F.);
#181=ORIENTED_EDGE('',*,*,#251,.F.);
#182=ORIENTED_EDGE('',*,*,#249,.F.);
#183=ORIENTED_EDGE('',*,*,#247,.F.);
#184=ORIENTED_EDGE('',*,*,#222,.F.);
#185=ORIENTED_EDGE('',*,*,#244,.F.);
#186=ORIENTED_EDGE('',*,*,#241,.F.);
#187=ORIENTED_EDGE('',*,*,#238,.F.);
#188=ORIENTED_EDGE('',*,*,#235,.F.);
#189=ORIENTED_EDGE('',*,*,#232,.F.);
#190=ORIENTED_EDGE('',*,*,#229,.F.);
#191=ORIENTED_EDGE('',*,*,#226,.F.);
#192=ORIENTED_EDGE('',*,*,#200,.T.);
#193=ORIENTED_EDGE('',*,*,#250,.T.);
#194=ORIENTED_EDGE('',*,*,#219,.T.);
#195=ORIENTED_EDGE('',*,*,#216,.T.);
#196=ORIENTED_EDGE('',*,*,#213,.T.);
#197=ORIENTED_EDGE('',*,*,#210,.T.);
#198=ORIENTED_EDGE('',*,*,#207,.T.);
#199=ORIENTED_EDGE('',*,*,#204,.T.);
#200=EDGE_CURVE('',#252,#253,#288,.T.);
#201=EDGE_CURVE('',#254,#252,#24,.T.);
#202=EDGE_CURVE('',#254,#255,#289,.T.);
#203=EDGE_CURVE('',#255,#253,#25,.T.);
#204=EDGE_CURVE('',#256,#252,#26,.T.);
#205=EDGE_CURVE('',#257,#256,#27,.T.);
#206=EDGE_CURVE('',#257,#254,#28,.T.);
#207=EDGE_CURVE('',#258,#256,#29,.T.);
#208=EDGE_CURVE('',#259,#258,#30,.T.);
#209=EDGE_CURVE('',#259,#257,#31,.T.);
#210=EDGE_CURVE('',#260,#258,#32,.T.);
#211=EDGE_CURVE('',#261,#260,#33,.T.);
#212=EDGE_CURVE('',#261,#259,#34,.T.);
#213=EDGE_CURVE('',#262,#260,#35,.T.);
#214=EDGE_CURVE('',#263,#262,#36,.T.);
#215=EDGE_CURVE('',#263,#261,#37,.T.);
#216=EDGE_CURVE('',#264,#262,#38,.T.);
#217=EDGE_CURVE('',#265,#264,#39,.T.);
#218=EDGE_CURVE('',#265,#263,#40,.T.);
#219=EDGE_CURVE('',#266,#264,#290,.T.);
#220=EDGE_CURVE('',#267,#266,#41,.T.);
#221=EDGE_CURVE('',#267,#265,#291,.T.);
#222=EDGE_CURVE('',#268,#269,#42,.T.);
#223=EDGE_CURVE('',#270,#269,#43,.T.);
#224=EDGE_CURVE('',#271,#270,#44,.T.);
#225=EDGE_CURVE('',#271,#268,#45,.T.);
#226=EDGE_CURVE('',#269,#272,#292,.T.);
#227=EDGE_CURVE('',#273,#272,#46,.T.);
#228=EDGE_CURVE('',#270,#273,#293,.T.);
#229=EDGE_CURVE('',#272,#274,#47,.T.);
#230=EDGE_CURVE('',#275,#274,#48,.T.);
#231=EDGE_CURVE('',#273,#275,#49,.T.);
#232=EDGE_CURVE('',#274,#276,#294,.T.);
#233=EDGE_CURVE('',#277,#276,#50,.T.);
#234=EDGE_CURVE('',#275,#277,#295,.T.);
#235=EDGE_CURVE('',#276,#278,#51,.T.);
#236=EDGE_CURVE('',#279,#278,#52,.T.);
#237=EDGE_CURVE('',#277,#279,#53,.T.);
#238=EDGE_CURVE('',#278,#280,#296,.T.);
#239=EDGE_CURVE('',#281,#280,#54,.T.);
#240=EDGE_CURVE('',#279,#281,#297,.T.);
#241=EDGE_CURVE('',#280,#282,#55,.T.);
#242=EDGE_CURVE('',#283,#282,#56,.T.);
#243=EDGE_CURVE('',#281,#283,#57,.T.);
#244=EDGE_CURVE('',#282,#268,#298,.T.);
#245=EDGE_CURVE('',#283,#271,#299,.T.);
#246=EDGE_CURVE('',#284,#284,#300,.T.);
#247=EDGE_CURVE('',#285,#285,#301,.T.);
#248=EDGE_CURVE('',#286,#286,#302,.T.);
#249=EDGE_CURVE('',#287,#287,#303,.T.);
#250=EDGE_CURVE('',#253,#266,#58,.T.);
#251=EDGE_CURVE('',#255,#267,#59,.T.);
#252=VERTEX_POINT('',#550);
#253=VERTEX_POINT('',#551);
#254=VERTEX_POINT('',#553);
#255=VERTEX_POINT('',#555);
#256=VERTEX_POINT('',#559);
#257=VERTEX_POINT('',#561);
#258=VERTEX_POINT('',#565);
#259=VERTEX_POINT('',#567);
#260=VERTEX_POINT('',#571);
#261=VERTEX_POINT('',#573);
#262=VERTEX_POINT('',#577);
#263=VERTEX_POINT('',#579);
#264=VERTEX_POINT('',#583);
#265=VERTEX_POINT('',#585);
#266=VERTEX_POINT('',#589);
#267=VERTEX_POINT('',#591);
#268=VERTEX_POINT('',#595);
#269=VERTEX_POINT('',#596);
#270=VERTEX_POINT('',#598);
#271=VERTEX_POINT('',#600);
#272=VERTEX_POINT('',#604);
#273=VERTEX_POINT('',#606);
#274=VERTEX_POINT('',#610);
#275=VERTEX_POINT('',#612);
#276=VERTEX_POINT('',#616);
#277=VERTEX_POINT('',#618);
#278=VERTEX_POINT('',#622);
#279=VERTEX_POINT('',#624);
#280=VERTEX_POINT('',#628);
#281=VERTEX_POINT('',#630);
#282=VERTEX_POINT('',#634);
#283=VERTEX_POINT('',#636);
#284=VERTEX_POINT('',#643);
#285=VERTEX_POINT('',#645);
#286=VERTEX_POINT('',#648);
#287=VERTEX_POINT('',#650);
#288=CIRCLE('',#402,0.000353000000000013);
#289=CIRCLE('',#403,0.000353000000000013);
#290=CIRCLE('',#410,0.000352999999999986);
#291=CIRCLE('',#411,0.000352999999999986);
#292=CIRCLE('',#414,0.006);
#293=CIRCLE('',#415,0.006);
#294=CIRCLE('',#418,0.006);
#295=CIRCLE('',#419,0.006);
#296=CIRCLE('',#422,0.006);
#297=CIRCLE('',#423,0.006);
#298=CIRCLE('',#426,0.006);
#299=CIRCLE('',#427,0.006);
#300=CIRCLE('',#429,0.001143);
#301=CIRCLE('',#430,0.001143);
#302=CIRCLE('',#432,0.001143);
#303=CIRCLE('',#433,0.001143);
#304=EDGE_LOOP('',(#96,#97,#98,#99));
#305=EDGE_LOOP('',(#100,#101,#102,#103));
#306=EDGE_LOOP('',(#104,#105,#106,#107));
#307=EDGE_LOOP('',(#108,#109,#110,#111));
#308=EDGE_LOOP('',(#112,#113,#114,#115));
#309=EDGE_LOOP('',(#116,#117,#118,#119));
#310=EDGE_LOOP('',(#120,#121,#122,#123));
#311=EDGE_LOOP('',(#124,#125,#126,#127));
#312=EDGE_LOOP('',(#128,#129,#130,#131));
#313=EDGE_LOOP('',(#132,#133,#134,#135));
#314=EDGE_LOOP('',(#136,#137,#138,#139));
#315=EDGE_LOOP('',(#140,#141,#142,#143));
#316=EDGE_LOOP('',(#144,#145,#146,#147));
#317=EDGE_LOOP('',(#148,#149,#150,#151));
#318=EDGE_LOOP('',(#152,#153,#154,#155));
#319=EDGE_LOOP('',(#156));
#320=EDGE_LOOP('',(#157));
#321=EDGE_LOOP('',(#158));
#322=EDGE_LOOP('',(#159));
#323=EDGE_LOOP('',(#160,#161,#162,#163));
#324=EDGE_LOOP('',(#164));
#325=EDGE_LOOP('',(#165));
#326=EDGE_LOOP('',(#166,#167,#168,#169,#170,#171,#172,#173));
#327=EDGE_LOOP('',(#174,#175,#176,#177,#178,#179,#180,#181));
#328=EDGE_LOOP('',(#182));
#329=EDGE_LOOP('',(#183));
#330=EDGE_LOOP('',(#184,#185,#186,#187,#188,#189,#190,#191));
#331=EDGE_LOOP('',(#192,#193,#194,#195,#196,#197,#198,#199));
#332=FACE_BOUND('',#304,.T.);
#333=FACE_BOUND('',#305,.T.);
#334=FACE_BOUND('',#306,.T.);
#335=FACE_BOUND('',#307,.T.);
#336=FACE_BOUND('',#308,.T.);
#337=FACE_BOUND('',#309,.T.);
#338=FACE_BOUND('',#310,.T.);
#339=FACE_BOUND('',#311,.T.);
#340=FACE_BOUND('',#312,.T.);
#341=FACE_BOUND('',#313,.T.);
#342=FACE_BOUND('',#314,.T.);
#343=FACE_BOUND('',#315,.T.);
#344=FACE_BOUND('',#316,.T.);
#345=FACE_BOUND('',#317,.T.);
#346=FACE_BOUND('',#318,.T.);
#347=FACE_BOUND('',#319,.T.);
#348=FACE_BOUND('',#320,.T.);
#349=FACE_BOUND('',#321,.T.);
#350=FACE_BOUND('',#322,.T.);
#351=FACE_BOUND('',#323,.T.);
#352=FACE_BOUND('',#324,.T.);
#353=FACE_BOUND('',#325,.T.);
#354=FACE_BOUND('',#326,.T.);
#355=FACE_BOUND('',#327,.T.);
#356=FACE_BOUND('',#328,.T.);
#357=FACE_BOUND('',#329,.T.);
#358=FACE_BOUND('',#330,.T.);
#359=FACE_BOUND('',#331,.T.);
#360=CYLINDRICAL_SURFACE('',#401,0.000353000000000013);
#361=CYLINDRICAL_SURFACE('',#409,0.000352999999999986);
#362=CYLINDRICAL_SURFACE('',#413,0.006);
#363=CYLINDRICAL_SURFACE('',#417,0.006);
#364=CYLINDRICAL_SURFACE('',#421,0.006);
#365=CYLINDRICAL_SURFACE('',#425,0.006);
#366=CYLINDRICAL_SURFACE('',#428,0.001143);
#367=CYLINDRICAL_SURFACE('',#431,0.001143);
#368=ADVANCED_FACE('',(#332),#360,.F.);
#369=ADVANCED_FACE('',(#333),#12,.T.);
#370=ADVANCED_FACE('',(#334),#13,.T.);
#371=ADVANCED_FACE('',(#335),#14,.T.);
#372=ADVANCED_FACE('',(#336),#15,.T.);
#373=ADVANCED_FACE('',(#337),#16,.T.);
#374=ADVANCED_FACE('',(#338),#361,.F.);
#375=ADVANCED_FACE('',(#339),#17,.F.);
#376=ADVANCED_FACE('',(#340),#362,.T.);
#377=ADVANCED_FACE('',(#341),#18,.F.);
#378=ADVANCED_FACE('',(#342),#363,.T.);
#379=ADVANCED_FACE('',(#343),#19,.F.);
#380=ADVANCED_FACE('',(#344),#364,.T.);
#381=ADVANCED_FACE('',(#345),#20,.F.);
#382=ADVANCED_FACE('',(#346),#365,.T.);
#383=ADVANCED_FACE('',(#347,#348),#366,.F.);
#384=ADVANCED_FACE('',(#349,#350),#367,.F.);
#385=ADVANCED_FACE('',(#351),#21,.T.);
#386=ADVANCED_FACE('',(#352,#353,#354,#355),#22,.T.);
#387=ADVANCED_FACE('',(#356,#357,#358,#359),#23,.F.);
#388=CLOSED_SHELL('',(#368,#369,#370,#371,#372,#373,#374,#375,#376,#377,
#378,#379,#380,#381,#382,#383,#384,#385,#386,#387));
#389=STYLED_ITEM('',(#390),#397);
#390=PRESENTATION_STYLE_ASSIGNMENT((#391));
#391=SURFACE_STYLE_USAGE(.BOTH.,#392);
#392=SURFACE_SIDE_STYLE('',(#393));
#393=SURFACE_STYLE_FILL_AREA(#394);
#394=FILL_AREA_STYLE('',(#395));
#395=FILL_AREA_STYLE_COLOUR('',#396);
#396=COLOUR_RGB('',0.647058823529412,0.647058823529412,0.647058823529412);
#397=MANIFOLD_SOLID_BREP('Part 20',#388);
#398=SHAPE_DEFINITION_REPRESENTATION(#662,#399);
#399=SHAPE_REPRESENTATION('Part 20',(#400),#657);
#400=AXIS2_PLACEMENT_3D('',#547,#437,#438);
#401=AXIS2_PLACEMENT_3D('',#548,#439,#440);
#402=AXIS2_PLACEMENT_3D('',#549,#441,#442);
#403=AXIS2_PLACEMENT_3D('',#554,#444,#445);
#404=AXIS2_PLACEMENT_3D('',#557,#447,#448);
#405=AXIS2_PLACEMENT_3D('',#563,#452,#453);
#406=AXIS2_PLACEMENT_3D('',#569,#457,#458);
#407=AXIS2_PLACEMENT_3D('',#575,#462,#463);
#408=AXIS2_PLACEMENT_3D('',#581,#467,#468);
#409=AXIS2_PLACEMENT_3D('',#587,#472,#473);
#410=AXIS2_PLACEMENT_3D('',#588,#474,#475);
#411=AXIS2_PLACEMENT_3D('',#592,#477,#478);
#412=AXIS2_PLACEMENT_3D('',#593,#479,#480);
#413=AXIS2_PLACEMENT_3D('',#602,#485,#486);
#414=AXIS2_PLACEMENT_3D('',#603,#487,#488);
#415=AXIS2_PLACEMENT_3D('',#607,#490,#491);
#416=AXIS2_PLACEMENT_3D('',#608,#492,#493);
#417=AXIS2_PLACEMENT_3D('',#614,#497,#498);
#418=AXIS2_PLACEMENT_3D('',#615,#499,#500);
#419=AXIS2_PLACEMENT_3D('',#619,#502,#503);
#420=AXIS2_PLACEMENT_3D('',#620,#504,#505);
#421=AXIS2_PLACEMENT_3D('',#626,#509,#510);
#422=AXIS2_PLACEMENT_3D('',#627,#511,#512);
#423=AXIS2_PLACEMENT_3D('',#631,#514,#515);
#424=AXIS2_PLACEMENT_3D('',#632,#516,#517);
#425=AXIS2_PLACEMENT_3D('',#638,#521,#522);
#426=AXIS2_PLACEMENT_3D('',#639,#523,#524);
#427=AXIS2_PLACEMENT_3D('',#640,#525,#526);
#428=AXIS2_PLACEMENT_3D('',#641,#527,#528);
#429=AXIS2_PLACEMENT_3D('',#642,#529,#530);
#430=AXIS2_PLACEMENT_3D('',#644,#531,#532);
#431=AXIS2_PLACEMENT_3D('',#646,#533,#534);
#432=AXIS2_PLACEMENT_3D('',#647,#535,#536);
#433=AXIS2_PLACEMENT_3D('',#649,#537,#538);
#434=AXIS2_PLACEMENT_3D('',#651,#539,#540);
#435=AXIS2_PLACEMENT_3D('',#654,#543,#544);
#436=AXIS2_PLACEMENT_3D('',#655,#545,#546);
#437=DIRECTION('',(0.,0.,1.));
#438=DIRECTION('',(1.,0.,0.));
#439=DIRECTION('',(0.,0.,1.));
#440=DIRECTION('',(1.,0.,0.));
#441=DIRECTION('',(0.,0.,-1.));
#442=DIRECTION('',(-1.,0.,0.));
#443=DIRECTION('',(0.,0.,1.));
#444=DIRECTION('',(0.,0.,-1.));
#445=DIRECTION('',(-1.,0.,0.));
#446=DIRECTION('',(0.,0.,1.));
#447=DIRECTION('',(1.,-9.26324611757229E-15,0.));
#448=DIRECTION('',(9.26324611757229E-15,1.,0.));
#449=DIRECTION('',(9.26324611757229E-15,1.,0.));
#450=DIRECTION('',(0.,0.,1.));
#451=DIRECTION('',(9.26324611757229E-15,1.,0.));
#452=DIRECTION('',(0.713228571151915,0.700931526821698,0.));
#453=DIRECTION('',(-0.700931526821699,0.713228571151915,0.));
#454=DIRECTION('',(-0.700931526821699,0.713228571151915,0.));
#455=DIRECTION('',(0.,0.,1.));
#456=DIRECTION('',(-0.700931526821699,0.713228571151915,0.));
#457=DIRECTION('',(1.21910308999663E-14,1.,0.));
#458=DIRECTION('',(-1.,1.21910308999663E-14,0.));
#459=DIRECTION('',(-1.,1.21910308999663E-14,0.));
#460=DIRECTION('',(0.,0.,1.));
#461=DIRECTION('',(-1.,1.21910308999663E-14,0.));
#462=DIRECTION('',(-0.713228571151903,0.700931526821711,0.));
#463=DIRECTION('',(-0.700931526821711,-0.713228571151903,0.));
#464=DIRECTION('',(-0.700931526821711,-0.713228571151903,0.));
#465=DIRECTION('',(0.,0.,1.));
#466=DIRECTION('',(-0.700931526821711,-0.713228571151903,0.));
#467=DIRECTION('',(-1.,9.26324611757231E-15,0.));
#468=DIRECTION('',(-9.26324611757231E-15,-1.,0.));
#469=DIRECTION('',(-9.26324611757231E-15,-1.,0.));
#470=DIRECTION('',(0.,0.,1.));
#471=DIRECTION('',(-9.26324611757231E-15,-1.,0.));
#472=DIRECTION('',(0.,0.,1.));
#473=DIRECTION('',(1.,0.,0.));
#474=DIRECTION('',(0.,0.,-1.));
#475=DIRECTION('',(-1.,0.,0.));
#476=DIRECTION('',(0.,0.,1.));
#477=DIRECTION('',(0.,0.,-1.));
#478=DIRECTION('',(-1.,0.,0.));
#479=DIRECTION('',(1.,2.89120579329467E-16,0.));
#480=DIRECTION('',(-2.89120579329467E-16,1.,0.));
#481=DIRECTION('',(-2.89120579329467E-16,1.,0.));
#482=DIRECTION('',(0.,0.,1.));
#483=DIRECTION('',(-2.89120579329467E-16,1.,0.));
#484=DIRECTION('',(0.,0.,1.));
#485=DIRECTION('',(0.,0.,1.));
#486=DIRECTION('',(1.,0.,0.));
#487=DIRECTION('',(0.,0.,-1.));
#488=DIRECTION('',(-1.,0.,0.));
#489=DIRECTION('',(0.,0.,1.));
#490=DIRECTION('',(0.,0.,-1.));
#491=DIRECTION('',(-1.,0.,0.));
#492=DIRECTION('',(0.,-1.,0.));
#493=DIRECTION('',(0.,0.,-1.));
#494=DIRECTION('',(1.,0.,0.));
#495=DIRECTION('',(0.,0.,1.));
#496=DIRECTION('',(1.,0.,0.));
#497=DIRECTION('',(0.,0.,1.));
#498=DIRECTION('',(1.,0.,0.));
#499=DIRECTION('',(0.,0.,-1.));
#500=DIRECTION('',(-1.,0.,0.));
#501=DIRECTION('',(0.,0.,1.));
#502=DIRECTION('',(0.,0.,-1.));
#503=DIRECTION('',(-1.,0.,0.));
#504=DIRECTION('',(-1.,-5.78241158658933E-16,0.));
#505=DIRECTION('',(5.78241158658933E-16,-1.,0.));
#506=DIRECTION('',(5.78241158658933E-16,-1.,0.));
#507=DIRECTION('',(0.,0.,1.));
#508=DIRECTION('',(5.78241158658933E-16,-1.,0.));
#509=DIRECTION('',(0.,0.,1.));
#510=DIRECTION('',(1.,0.,0.));
#511=DIRECTION('',(0.,0.,-1.));
#512=DIRECTION('',(-1.,0.,0.));
#513=DIRECTION('',(0.,0.,1.));
#514=DIRECTION('',(0.,0.,-1.));
#515=DIRECTION('',(-1.,0.,0.));
#516=DIRECTION('',(0.,1.,0.));
#517=DIRECTION('',(0.,0.,1.));
#518=DIRECTION('',(-1.,0.,0.));
#519=DIRECTION('',(0.,0.,1.));
#520=DIRECTION('',(-1.,0.,0.));
#521=DIRECTION('',(0.,0.,1.));
#522=DIRECTION('',(1.,0.,0.));
#523=DIRECTION('',(0.,0.,-1.));
#524=DIRECTION('',(-1.,0.,0.));
#525=DIRECTION('',(0.,0.,-1.));
#526=DIRECTION('',(-1.,0.,0.));
#527=DIRECTION('',(0.,0.,1.));
#528=DIRECTION('',(1.,0.,0.));
#529=DIRECTION('',(0.,0.,1.));
#530=DIRECTION('',(1.,0.,0.));
#531=DIRECTION('',(0.,0.,1.));
#532=DIRECTION('',(1.,0.,0.));
#533=DIRECTION('',(0.,0.,1.));
#534=DIRECTION('',(1.,0.,0.));
#535=DIRECTION('',(0.,0.,1.));
#536=DIRECTION('',(1.,0.,0.));
#537=DIRECTION('',(0.,0.,1.));
#538=DIRECTION('',(1.,0.,0.));
#539=DIRECTION('',(-9.79608551139846E-15,-1.,0.));
#540=DIRECTION('',(1.,-9.79608551139846E-15,0.));
#541=DIRECTION('',(1.,-9.79608551139846E-15,0.));
#542=DIRECTION('',(1.,-9.79608551139846E-15,0.));
#543=DIRECTION('',(0.,0.,-1.));
#544=DIRECTION('',(1.,0.,0.));
#545=DIRECTION('',(0.,0.,-1.));
#546=DIRECTION('',(1.,0.,0.));
#547=CARTESIAN_POINT('',(0.,0.,0.));
#548=CARTESIAN_POINT('',(0.0320236033269736,0.0898327923816153,0.03496));
#549=CARTESIAN_POINT('',(0.0320236033269736,0.0898327923816153,0.03623));
#550=CARTESIAN_POINT('',(0.0316706033269736,0.0898327923816153,0.03623));
#551=CARTESIAN_POINT('',(0.0320236033269736,0.0901857923816153,0.03623));
#552=CARTESIAN_POINT('',(0.0316706033269736,0.0898327923816153,0.03496));
#553=CARTESIAN_POINT('',(0.0316706033269736,0.0898327923816153,0.03496));
#554=CARTESIAN_POINT('',(0.0320236033269736,0.0898327923816153,0.03496));
#555=CARTESIAN_POINT('',(0.0320236033269736,0.0901857923816153,0.03496));
#556=CARTESIAN_POINT('',(0.0320236033269736,0.0901857923816153,0.03496));
#557=CARTESIAN_POINT('',(0.0316706033269736,0.0857128633646054,0.03496));
#558=CARTESIAN_POINT('',(0.0316706033269736,0.0857128633646054,0.03623));
#559=CARTESIAN_POINT('',(0.0316706033269736,0.0815929343475956,0.03623));
#560=CARTESIAN_POINT('',(0.0316706033269736,0.0815929343475956,0.03496));
#561=CARTESIAN_POINT('',(0.0316706033269736,0.0815929343475956,0.03496));
#562=CARTESIAN_POINT('',(0.0316706033269736,0.0857128633646054,0.03496));
#563=CARTESIAN_POINT('',(0.032340423086119,0.0809113633646054,0.03496));
#564=CARTESIAN_POINT('',(0.032340423086119,0.0809113633646054,0.03623));
#565=CARTESIAN_POINT('',(0.0330102428452645,0.0802297923816153,0.03623));
#566=CARTESIAN_POINT('',(0.0330102428452645,0.0802297923816153,0.03496));
#567=CARTESIAN_POINT('',(0.0330102428452645,0.0802297923816153,0.03496));
#568=CARTESIAN_POINT('',(0.032340423086119,0.0809113633646054,0.03496));
#569=CARTESIAN_POINT('',(0.0341486033269735,0.0802297923816152,0.03496));
#570=CARTESIAN_POINT('',(0.0341486033269735,0.0802297923816152,0.03623));
#571=CARTESIAN_POINT('',(0.0352869638086825,0.0802297923816152,0.03623));
#572=CARTESIAN_POINT('',(0.0352869638086825,0.0802297923816152,0.03496));
#573=CARTESIAN_POINT('',(0.0352869638086825,0.0802297923816152,0.03496));
#574=CARTESIAN_POINT('',(0.0341486033269735,0.0802297923816152,0.03496));
#575=CARTESIAN_POINT('',(0.035956783567828,0.0809113633646054,0.03496));
#576=CARTESIAN_POINT('',(0.035956783567828,0.0809113633646054,0.03623));
#577=CARTESIAN_POINT('',(0.0366266033269735,0.0815929343475956,0.03623));
#578=CARTESIAN_POINT('',(0.0366266033269735,0.0815929343475956,0.03496));
#579=CARTESIAN_POINT('',(0.0366266033269735,0.0815929343475956,0.03496));
#580=CARTESIAN_POINT('',(0.035956783567828,0.0809113633646054,0.03496));
#581=CARTESIAN_POINT('',(0.0366266033269735,0.0857128633646054,0.03496));
#582=CARTESIAN_POINT('',(0.0366266033269735,0.0857128633646054,0.03623));
#583=CARTESIAN_POINT('',(0.0366266033269736,0.0898327923816152,0.03623));
#584=CARTESIAN_POINT('',(0.0366266033269736,0.0898327923816152,0.03496));
#585=CARTESIAN_POINT('',(0.0366266033269736,0.0898327923816152,0.03496));
#586=CARTESIAN_POINT('',(0.0366266033269735,0.0857128633646054,0.03496));
#587=CARTESIAN_POINT('',(0.0362736033269736,0.0898327923816152,0.03496));
#588=CARTESIAN_POINT('',(0.0362736033269736,0.0898327923816152,0.03623));
#589=CARTESIAN_POINT('',(0.0362736033269736,0.0901857923816152,0.03623));
#590=CARTESIAN_POINT('',(0.0362736033269736,0.0901857923816152,0.03496));
#591=CARTESIAN_POINT('',(0.0362736033269736,0.0901857923816152,0.03496));
#592=CARTESIAN_POINT('',(0.0362736033269736,0.0898327923816152,0.03496));
#593=CARTESIAN_POINT('',(0.0281486033269735,0.0857591375816153,0.03496));
#594=CARTESIAN_POINT('',(0.0281486033269735,0.0857591375816153,0.03623));
#595=CARTESIAN_POINT('',(0.0281486033269735,0.0797591375816153,0.03623));
#596=CARTESIAN_POINT('',(0.0281486033269735,0.0917591375816154,0.03623));
#597=CARTESIAN_POINT('',(0.0281486033269735,0.0917591375816154,0.03496));
#598=CARTESIAN_POINT('',(0.0281486033269735,0.0917591375816154,0.03496));
#599=CARTESIAN_POINT('',(0.0281486033269735,0.0857591375816153,0.03496));
#600=CARTESIAN_POINT('',(0.0281486033269735,0.0797591375816153,0.03496));
#601=CARTESIAN_POINT('',(0.0281486033269735,0.0797591375816153,0.03496));
#602=CARTESIAN_POINT('',(0.0341486033269735,0.0917591375816154,0.03496));
#603=CARTESIAN_POINT('',(0.0341486033269735,0.0917591375816154,0.03623));
#604=CARTESIAN_POINT('',(0.0318162317474388,0.097287251438527,0.03623));
#605=CARTESIAN_POINT('',(0.0318162317474388,0.097287251438527,0.03496));
#606=CARTESIAN_POINT('',(0.0318162317474388,0.097287251438527,0.03496));
#607=CARTESIAN_POINT('',(0.0341486033269735,0.0917591375816154,0.03496));
#608=CARTESIAN_POINT('',(0.0341486033269735,0.097287251438527,0.03496));
#609=CARTESIAN_POINT('',(0.0341486033269735,0.097287251438527,0.03623));
#610=CARTESIAN_POINT('',(0.0364809749065082,0.097287251438527,0.03623));
#611=CARTESIAN_POINT('',(0.0364809749065082,0.097287251438527,0.03496));
#612=CARTESIAN_POINT('',(0.0364809749065082,0.097287251438527,0.03496));
#613=CARTESIAN_POINT('',(0.0341486033269735,0.097287251438527,0.03496));
#614=CARTESIAN_POINT('',(0.0341486033269735,0.0917591375816154,0.03496));
#615=CARTESIAN_POINT('',(0.0341486033269735,0.0917591375816154,0.03623));
#616=CARTESIAN_POINT('',(0.0401486033269736,0.0917591375816154,0.03623));
#617=CARTESIAN_POINT('',(0.0401486033269736,0.0917591375816154,0.03496));
#618=CARTESIAN_POINT('',(0.0401486033269736,0.0917591375816154,0.03496));
#619=CARTESIAN_POINT('',(0.0341486033269735,0.0917591375816154,0.03496));
#620=CARTESIAN_POINT('',(0.0401486033269736,0.0857591375816154,0.03496));
#621=CARTESIAN_POINT('',(0.0401486033269736,0.0857591375816154,0.03623));
#622=CARTESIAN_POINT('',(0.0401486033269736,0.0797591375816153,0.03623));
#623=CARTESIAN_POINT('',(0.0401486033269736,0.0797591375816153,0.03496));
#624=CARTESIAN_POINT('',(0.0401486033269736,0.0797591375816153,0.03496));
#625=CARTESIAN_POINT('',(0.0401486033269736,0.0857591375816154,0.03496));
#626=CARTESIAN_POINT('',(0.0341486033269736,0.0797591375816153,0.03496));
#627=CARTESIAN_POINT('',(0.0341486033269736,0.0797591375816153,0.03623));
#628=CARTESIAN_POINT('',(0.0364809749065082,0.0742310237247037,0.03623));
#629=CARTESIAN_POINT('',(0.0364809749065082,0.0742310237247037,0.03496));
#630=CARTESIAN_POINT('',(0.0364809749065082,0.0742310237247037,0.03496));
#631=CARTESIAN_POINT('',(0.0341486033269736,0.0797591375816153,0.03496));
#632=CARTESIAN_POINT('',(0.0341486033269735,0.0742310237247037,0.03496));
#633=CARTESIAN_POINT('',(0.0341486033269735,0.0742310237247037,0.03623));
#634=CARTESIAN_POINT('',(0.0318162317474388,0.0742310237247037,0.03623));
#635=CARTESIAN_POINT('',(0.0318162317474388,0.0742310237247037,0.03496));
#636=CARTESIAN_POINT('',(0.0318162317474388,0.0742310237247037,0.03496));
#637=CARTESIAN_POINT('',(0.0341486033269735,0.0742310237247037,0.03496));
#638=CARTESIAN_POINT('',(0.0341486033269736,0.0797591375816153,0.03496));
#639=CARTESIAN_POINT('',(0.0341486033269736,0.0797591375816153,0.03623));
#640=CARTESIAN_POINT('',(0.0341486033269736,0.0797591375816153,0.03496));
#641=CARTESIAN_POINT('',(0.0341486033269736,0.0767591375816151,0.03496));
#642=CARTESIAN_POINT('',(0.0341486033269736,0.0767591375816151,0.03496));
#643=CARTESIAN_POINT('',(0.0352916033269736,0.0767591375816151,0.03496));
#644=CARTESIAN_POINT('',(0.0341486033269736,0.0767591375816151,0.03623));
#645=CARTESIAN_POINT('',(0.0352916033269736,0.0767591375816151,0.03623));
#646=CARTESIAN_POINT('',(0.0341486033269736,0.0947591523816151,0.03496));
#647=CARTESIAN_POINT('',(0.0341486033269736,0.0947591523816151,0.03496));
#648=CARTESIAN_POINT('',(0.0352916033269736,0.0947591523816151,0.03496));
#649=CARTESIAN_POINT('',(0.0341486033269736,0.0947591523816151,0.03623));
#650=CARTESIAN_POINT('',(0.0352916033269736,0.0947591523816151,0.03623));
#651=CARTESIAN_POINT('',(0.0341486033269736,0.0901857923816152,0.03496));
#652=CARTESIAN_POINT('',(0.0341486033269736,0.0901857923816152,0.03623));
#653=CARTESIAN_POINT('',(0.0341486033269736,0.0901857923816152,0.03496));
#654=CARTESIAN_POINT('',(-0.0185258425183865,0.0857591449816136,0.03496));
#655=CARTESIAN_POINT('',(-0.0185258425183865,0.0857591449816136,0.03623));
#656=MECHANICAL_DESIGN_GEOMETRIC_PRESENTATION_REPRESENTATION('',(#389),
#657);
#657=(
GEOMETRIC_REPRESENTATION_CONTEXT(3)
GLOBAL_UNCERTAINTY_ASSIGNED_CONTEXT((#658))
GLOBAL_UNIT_ASSIGNED_CONTEXT((#661,#660,#659))
REPRESENTATION_CONTEXT('Part 20','TOP_LEVEL_ASSEMBLY_PART')
);
#658=UNCERTAINTY_MEASURE_WITH_UNIT(LENGTH_MEASURE(1.E-8),#661,
'DISTANCE_ACCURACY_VALUE','Maximum Tolerance applied to model');
#659=(
NAMED_UNIT(*)
SI_UNIT($,.STERADIAN.)
SOLID_ANGLE_UNIT()
);
#660=(
NAMED_UNIT(*)
PLANE_ANGLE_UNIT()
SI_UNIT($,.RADIAN.)
);
#661=(
LENGTH_UNIT()
NAMED_UNIT(*)
SI_UNIT($,.METRE.)
);
#662=PRODUCT_DEFINITION_SHAPE('','',#663);
#663=PRODUCT_DEFINITION('','',#665,#664);
#664=PRODUCT_DEFINITION_CONTEXT('',#671,'design');
#665=PRODUCT_DEFINITION_FORMATION_WITH_SPECIFIED_SOURCE('','',#667,
 .NOT_KNOWN.);
#666=PRODUCT_RELATED_PRODUCT_CATEGORY('','',(#667));
#667=PRODUCT('Part 20','Part 20','Part 20',(#669));
#668=PRODUCT_CATEGORY('','');
#669=PRODUCT_CONTEXT('',#671,'mechanical');
#670=APPLICATION_PROTOCOL_DEFINITION('international standard',
'ap242_managed_model_based_3d_engineering',2020,#671);
#671=APPLICATION_CONTEXT('managed model based 3d engineering');
ENDSEC;
END-ISO-10303-21;
