ISO-10303-21;
HEADER;
/* Generated by software containing ST-Developer
 * from STEP Tools, Inc. (www.steptools.com) 
 */
/* OPTION: using custom renumber hook */

FILE_DESCRIPTION(
/* description */ ('STEP AP242 Edition 2',
'CAx-IF Rec.Pracs.---Representation and Presentation of Product Manufa
cturing Information (PMI)---4.0---2014-10-13',
'CAx-IF Rec.Pracs.---3D Tessellated Geometry---0.4---2014-09-14','2;1',
'CAx-IF Rec.Pracs.---User Defined Attributes---1.5---2016-08-15'),
/* implementation_level */ '2;1');

FILE_NAME(
/* name */ 'MTF-02P-V1.2 case - Part 4',
/* time_stamp */ '2026-10-06T21:04:17Z',
/* author */ (''),
/* organization */ (''),
/* preprocessor_version */ 'ST-DEVELOPER v20',
/* originating_system */ 'ONSHAPE BY PTC INC, 1.221',
/* authorisation */ '  ');

FILE_SCHEMA (('AP242_MANAGED_MODEL_BASED_3D_ENGINEERING_MIM_LF { 1 0 10303 442 3 1 4 }'));
ENDSEC;

DATA;
#10=SHAPE_REPRESENTATION_RELATIONSHIP('','',#355,#11);
#11=ADVANCED_BREP_SHAPE_REPRESENTATION('',(#353),#585);
#12=PLANE('',#360);
#13=PLANE('',#361);
#14=PLANE('',#362);
#15=PLANE('',#366);
#16=PLANE('',#370);
#17=PLANE('',#371);
#18=PLANE('',#372);
#19=PLANE('',#376);
#20=PLANE('',#389);
#21=PLANE('',#390);
#22=CIRCLE('',#358,0.0032045);
#23=CIRCLE('',#359,0.0032045);
#24=CIRCLE('',#364,0.0032045);
#25=CIRCLE('',#365,0.0032045);
#26=CIRCLE('',#368,0.0032045);
#27=CIRCLE('',#369,0.0032045);
#28=CIRCLE('',#374,0.001143);
#29=CIRCLE('',#375,0.001143);
#30=CIRCLE('',#378,0.0032045);
#31=CIRCLE('',#379,0.0032045);
#32=CIRCLE('',#381,0.001143);
#33=CIRCLE('',#382,0.001143);
#34=CIRCLE('',#384,0.001143);
#35=CIRCLE('',#385,0.001143);
#36=CIRCLE('',#387,0.001143);
#37=CIRCLE('',#388,0.001143);
#38=ORIENTED_EDGE('',*,*,#126,.F.);
#39=ORIENTED_EDGE('',*,*,#127,.T.);
#40=ORIENTED_EDGE('',*,*,#128,.T.);
#41=ORIENTED_EDGE('',*,*,#129,.F.);
#42=ORIENTED_EDGE('',*,*,#128,.F.);
#43=ORIENTED_EDGE('',*,*,#130,.T.);
#44=ORIENTED_EDGE('',*,*,#131,.T.);
#45=ORIENTED_EDGE('',*,*,#132,.F.);
#46=ORIENTED_EDGE('',*,*,#131,.F.);
#47=ORIENTED_EDGE('',*,*,#133,.T.);
#48=ORIENTED_EDGE('',*,*,#134,.T.);
#49=ORIENTED_EDGE('',*,*,#135,.F.);
#50=ORIENTED_EDGE('',*,*,#134,.F.);
#51=ORIENTED_EDGE('',*,*,#136,.T.);
#52=ORIENTED_EDGE('',*,*,#137,.T.);
#53=ORIENTED_EDGE('',*,*,#138,.F.);
#54=ORIENTED_EDGE('',*,*,#137,.F.);
#55=ORIENTED_EDGE('',*,*,#139,.T.);
#56=ORIENTED_EDGE('',*,*,#140,.T.);
#57=ORIENTED_EDGE('',*,*,#141,.F.);
#58=ORIENTED_EDGE('',*,*,#140,.F.);
#59=ORIENTED_EDGE('',*,*,#142,.T.);
#60=ORIENTED_EDGE('',*,*,#143,.T.);
#61=ORIENTED_EDGE('',*,*,#144,.F.);
#62=ORIENTED_EDGE('',*,*,#143,.F.);
#63=ORIENTED_EDGE('',*,*,#145,.T.);
#64=ORIENTED_EDGE('',*,*,#146,.T.);
#65=ORIENTED_EDGE('',*,*,#147,.F.);
#66=ORIENTED_EDGE('',*,*,#146,.F.);
#67=ORIENTED_EDGE('',*,*,#148,.T.);
#68=ORIENTED_EDGE('',*,*,#149,.T.);
#69=ORIENTED_EDGE('',*,*,#150,.F.);
#70=ORIENTED_EDGE('',*,*,#149,.F.);
#71=ORIENTED_EDGE('',*,*,#151,.T.);
#72=ORIENTED_EDGE('',*,*,#152,.T.);
#73=ORIENTED_EDGE('',*,*,#153,.F.);
#74=ORIENTED_EDGE('',*,*,#152,.F.);
#75=ORIENTED_EDGE('',*,*,#154,.T.);
#76=ORIENTED_EDGE('',*,*,#155,.T.);
#77=ORIENTED_EDGE('',*,*,#156,.F.);
#78=ORIENTED_EDGE('',*,*,#157,.T.);
#79=ORIENTED_EDGE('',*,*,#158,.F.);
#80=ORIENTED_EDGE('',*,*,#159,.F.);
#81=ORIENTED_EDGE('',*,*,#160,.T.);
#82=ORIENTED_EDGE('',*,*,#126,.T.);
#83=ORIENTED_EDGE('',*,*,#161,.F.);
#84=ORIENTED_EDGE('',*,*,#155,.F.);
#85=ORIENTED_EDGE('',*,*,#162,.T.);
#86=ORIENTED_EDGE('',*,*,#159,.T.);
#87=ORIENTED_EDGE('',*,*,#163,.F.);
#88=ORIENTED_EDGE('',*,*,#164,.T.);
#89=ORIENTED_EDGE('',*,*,#165,.F.);
#90=ORIENTED_EDGE('',*,*,#166,.T.);
#91=ORIENTED_EDGE('',*,*,#167,.F.);
#92=ORIENTED_EDGE('',*,*,#168,.T.);
#93=ORIENTED_EDGE('',*,*,#169,.F.);
#94=ORIENTED_EDGE('',*,*,#161,.T.);
#95=ORIENTED_EDGE('',*,*,#129,.T.);
#96=ORIENTED_EDGE('',*,*,#132,.T.);
#97=ORIENTED_EDGE('',*,*,#135,.T.);
#98=ORIENTED_EDGE('',*,*,#138,.T.);
#99=ORIENTED_EDGE('',*,*,#141,.T.);
#100=ORIENTED_EDGE('',*,*,#144,.T.);
#101=ORIENTED_EDGE('',*,*,#147,.T.);
#102=ORIENTED_EDGE('',*,*,#150,.T.);
#103=ORIENTED_EDGE('',*,*,#153,.T.);
#104=ORIENTED_EDGE('',*,*,#156,.T.);
#105=ORIENTED_EDGE('',*,*,#163,.T.);
#106=ORIENTED_EDGE('',*,*,#164,.F.);
#107=ORIENTED_EDGE('',*,*,#166,.F.);
#108=ORIENTED_EDGE('',*,*,#168,.F.);
#109=ORIENTED_EDGE('',*,*,#157,.F.);
#110=ORIENTED_EDGE('',*,*,#160,.F.);
#111=ORIENTED_EDGE('',*,*,#162,.F.);
#112=ORIENTED_EDGE('',*,*,#154,.F.);
#113=ORIENTED_EDGE('',*,*,#151,.F.);
#114=ORIENTED_EDGE('',*,*,#148,.F.);
#115=ORIENTED_EDGE('',*,*,#145,.F.);
#116=ORIENTED_EDGE('',*,*,#142,.F.);
#117=ORIENTED_EDGE('',*,*,#139,.F.);
#118=ORIENTED_EDGE('',*,*,#136,.F.);
#119=ORIENTED_EDGE('',*,*,#133,.F.);
#120=ORIENTED_EDGE('',*,*,#130,.F.);
#121=ORIENTED_EDGE('',*,*,#127,.F.);
#122=ORIENTED_EDGE('',*,*,#169,.T.);
#123=ORIENTED_EDGE('',*,*,#167,.T.);
#124=ORIENTED_EDGE('',*,*,#165,.T.);
#125=ORIENTED_EDGE('',*,*,#158,.T.);
#126=EDGE_CURVE('',#170,#171,#202,.T.);
#127=EDGE_CURVE('',#170,#172,#22,.F.);
#128=EDGE_CURVE('',#172,#173,#203,.T.);
#129=EDGE_CURVE('',#171,#173,#23,.T.);
#130=EDGE_CURVE('',#172,#174,#204,.T.);
#131=EDGE_CURVE('',#174,#175,#205,.T.);
#132=EDGE_CURVE('',#173,#175,#206,.T.);
#133=EDGE_CURVE('',#174,#176,#207,.T.);
#134=EDGE_CURVE('',#176,#177,#208,.T.);
#135=EDGE_CURVE('',#175,#177,#209,.T.);
#136=EDGE_CURVE('',#176,#178,#210,.T.);
#137=EDGE_CURVE('',#178,#179,#211,.T.);
#138=EDGE_CURVE('',#177,#179,#212,.T.);
#139=EDGE_CURVE('',#178,#180,#24,.F.);
#140=EDGE_CURVE('',#180,#181,#213,.T.);
#141=EDGE_CURVE('',#179,#181,#25,.T.);
#142=EDGE_CURVE('',#180,#182,#214,.T.);
#143=EDGE_CURVE('',#182,#183,#215,.T.);
#144=EDGE_CURVE('',#181,#183,#216,.T.);
#145=EDGE_CURVE('',#182,#184,#26,.F.);
#146=EDGE_CURVE('',#184,#185,#217,.T.);
#147=EDGE_CURVE('',#183,#185,#27,.T.);
#148=EDGE_CURVE('',#184,#186,#218,.T.);
#149=EDGE_CURVE('',#186,#187,#219,.T.);
#150=EDGE_CURVE('',#185,#187,#220,.T.);
#151=EDGE_CURVE('',#186,#188,#221,.T.);
#152=EDGE_CURVE('',#188,#189,#222,.T.);
#153=EDGE_CURVE('',#187,#189,#223,.T.);
#154=EDGE_CURVE('',#188,#190,#224,.T.);
#155=EDGE_CURVE('',#190,#191,#225,.T.);
#156=EDGE_CURVE('',#189,#191,#226,.T.);
#157=EDGE_CURVE('',#192,#192,#28,.T.);
#158=EDGE_CURVE('',#193,#193,#29,.F.);
#159=EDGE_CURVE('',#194,#195,#227,.T.);
#160=EDGE_CURVE('',#194,#170,#228,.T.);
#161=EDGE_CURVE('',#195,#171,#229,.T.);
#162=EDGE_CURVE('',#190,#194,#30,.F.);
#163=EDGE_CURVE('',#191,#195,#31,.T.);
#164=EDGE_CURVE('',#196,#196,#32,.T.);
#165=EDGE_CURVE('',#197,#197,#33,.F.);
#166=EDGE_CURVE('',#198,#198,#34,.T.);
#167=EDGE_CURVE('',#199,#199,#35,.F.);
#168=EDGE_CURVE('',#200,#200,#36,.T.);
#169=EDGE_CURVE('',#201,#201,#37,.F.);
#170=VERTEX_POINT('',#492);
#171=VERTEX_POINT('',#493);
#172=VERTEX_POINT('',#495);
#173=VERTEX_POINT('',#497);
#174=VERTEX_POINT('',#501);
#175=VERTEX_POINT('',#503);
#176=VERTEX_POINT('',#507);
#177=VERTEX_POINT('',#509);
#178=VERTEX_POINT('',#513);
#179=VERTEX_POINT('',#515);
#180=VERTEX_POINT('',#519);
#181=VERTEX_POINT('',#521);
#182=VERTEX_POINT('',#525);
#183=VERTEX_POINT('',#527);
#184=VERTEX_POINT('',#531);
#185=VERTEX_POINT('',#533);
#186=VERTEX_POINT('',#537);
#187=VERTEX_POINT('',#539);
#188=VERTEX_POINT('',#543);
#189=VERTEX_POINT('',#545);
#190=VERTEX_POINT('',#549);
#191=VERTEX_POINT('',#551);
#192=VERTEX_POINT('',#555);
#193=VERTEX_POINT('',#557);
#194=VERTEX_POINT('',#560);
#195=VERTEX_POINT('',#561);
#196=VERTEX_POINT('',#569);
#197=VERTEX_POINT('',#571);
#198=VERTEX_POINT('',#574);
#199=VERTEX_POINT('',#576);
#200=VERTEX_POINT('',#579);
#201=VERTEX_POINT('',#581);
#202=LINE('',#491,#230);
#203=LINE('',#496,#231);
#204=LINE('',#500,#232);
#205=LINE('',#502,#233);
#206=LINE('',#504,#234);
#207=LINE('',#506,#235);
#208=LINE('',#508,#236);
#209=LINE('',#510,#237);
#210=LINE('',#512,#238);
#211=LINE('',#514,#239);
#212=LINE('',#516,#240);
#213=LINE('',#520,#241);
#214=LINE('',#524,#242);
#215=LINE('',#526,#243);
#216=LINE('',#528,#244);
#217=LINE('',#532,#245);
#218=LINE('',#536,#246);
#219=LINE('',#538,#247);
#220=LINE('',#540,#248);
#221=LINE('',#542,#249);
#222=LINE('',#544,#250);
#223=LINE('',#546,#251);
#224=LINE('',#548,#252);
#225=LINE('',#550,#253);
#226=LINE('',#552,#254);
#227=LINE('',#559,#255);
#228=LINE('',#562,#256);
#229=LINE('',#563,#257);
#230=VECTOR('',#395,1.);
#231=VECTOR('',#398,1.);
#232=VECTOR('',#403,1.);
#233=VECTOR('',#404,1.);
#234=VECTOR('',#405,1.);
#235=VECTOR('',#408,1.);
#236=VECTOR('',#409,1.);
#237=VECTOR('',#410,1.);
#238=VECTOR('',#413,1.);
#239=VECTOR('',#414,1.);
#240=VECTOR('',#415,1.);
#241=VECTOR('',#420,1.);
#242=VECTOR('',#425,1.);
#243=VECTOR('',#426,1.);
#244=VECTOR('',#427,1.);
#245=VECTOR('',#432,1.);
#246=VECTOR('',#437,1.);
#247=VECTOR('',#438,1.);
#248=VECTOR('',#439,1.);
#249=VECTOR('',#442,1.);
#250=VECTOR('',#443,1.);
#251=VECTOR('',#444,1.);
#252=VECTOR('',#447,1.);
#253=VECTOR('',#448,1.);
#254=VECTOR('',#449,1.);
#255=VECTOR('',#458,1.);
#256=VECTOR('',#459,1.);
#257=VECTOR('',#460,1.);
#258=EDGE_LOOP('',(#38,#39,#40,#41));
#259=EDGE_LOOP('',(#42,#43,#44,#45));
#260=EDGE_LOOP('',(#46,#47,#48,#49));
#261=EDGE_LOOP('',(#50,#51,#52,#53));
#262=EDGE_LOOP('',(#54,#55,#56,#57));
#263=EDGE_LOOP('',(#58,#59,#60,#61));
#264=EDGE_LOOP('',(#62,#63,#64,#65));
#265=EDGE_LOOP('',(#66,#67,#68,#69));
#266=EDGE_LOOP('',(#70,#71,#72,#73));
#267=EDGE_LOOP('',(#74,#75,#76,#77));
#268=EDGE_LOOP('',(#78));
#269=EDGE_LOOP('',(#79));
#270=EDGE_LOOP('',(#80,#81,#82,#83));
#271=EDGE_LOOP('',(#84,#85,#86,#87));
#272=EDGE_LOOP('',(#88));
#273=EDGE_LOOP('',(#89));
#274=EDGE_LOOP('',(#90));
#275=EDGE_LOOP('',(#91));
#276=EDGE_LOOP('',(#92));
#277=EDGE_LOOP('',(#93));
#278=EDGE_LOOP('',(#94,#95,#96,#97,#98,#99,#100,#101,#102,#103,#104,#105));
#279=EDGE_LOOP('',(#106));
#280=EDGE_LOOP('',(#107));
#281=EDGE_LOOP('',(#108));
#282=EDGE_LOOP('',(#109));
#283=EDGE_LOOP('',(#110,#111,#112,#113,#114,#115,#116,#117,#118,#119,#120,
#121));
#284=EDGE_LOOP('',(#122));
#285=EDGE_LOOP('',(#123));
#286=EDGE_LOOP('',(#124));
#287=EDGE_LOOP('',(#125));
#288=FACE_BOUND('',#258,.T.);
#289=FACE_BOUND('',#259,.T.);
#290=FACE_BOUND('',#260,.T.);
#291=FACE_BOUND('',#261,.T.);
#292=FACE_BOUND('',#262,.T.);
#293=FACE_BOUND('',#263,.T.);
#294=FACE_BOUND('',#264,.T.);
#295=FACE_BOUND('',#265,.T.);
#296=FACE_BOUND('',#266,.T.);
#297=FACE_BOUND('',#267,.T.);
#298=FACE_BOUND('',#268,.T.);
#299=FACE_BOUND('',#269,.T.);
#300=FACE_BOUND('',#270,.T.);
#301=FACE_BOUND('',#271,.T.);
#302=FACE_BOUND('',#272,.T.);
#303=FACE_BOUND('',#273,.T.);
#304=FACE_BOUND('',#274,.T.);
#305=FACE_BOUND('',#275,.T.);
#306=FACE_BOUND('',#276,.T.);
#307=FACE_BOUND('',#277,.T.);
#308=FACE_BOUND('',#278,.T.);
#309=FACE_BOUND('',#279,.T.);
#310=FACE_BOUND('',#280,.T.);
#311=FACE_BOUND('',#281,.T.);
#312=FACE_BOUND('',#282,.T.);
#313=FACE_BOUND('',#283,.T.);
#314=FACE_BOUND('',#284,.T.);
#315=FACE_BOUND('',#285,.T.);
#316=FACE_BOUND('',#286,.T.);
#317=FACE_BOUND('',#287,.T.);
#318=CYLINDRICAL_SURFACE('',#357,0.0032045);
#319=CYLINDRICAL_SURFACE('',#363,0.0032045);
#320=CYLINDRICAL_SURFACE('',#367,0.0032045);
#321=CYLINDRICAL_SURFACE('',#373,0.001143);
#322=CYLINDRICAL_SURFACE('',#377,0.0032045);
#323=CYLINDRICAL_SURFACE('',#380,0.001143);
#324=CYLINDRICAL_SURFACE('',#383,0.001143);
#325=CYLINDRICAL_SURFACE('',#386,0.001143);
#326=ADVANCED_FACE('',(#288),#318,.T.);
#327=ADVANCED_FACE('',(#289),#12,.T.);
#328=ADVANCED_FACE('',(#290),#13,.T.);
#329=ADVANCED_FACE('',(#291),#14,.T.);
#330=ADVANCED_FACE('',(#292),#319,.T.);
#331=ADVANCED_FACE('',(#293),#15,.T.);
#332=ADVANCED_FACE('',(#294),#320,.T.);
#333=ADVANCED_FACE('',(#295),#16,.T.);
#334=ADVANCED_FACE('',(#296),#17,.T.);
#335=ADVANCED_FACE('',(#297),#18,.T.);
#336=ADVANCED_FACE('',(#298,#299),#321,.F.);
#337=ADVANCED_FACE('',(#300),#19,.T.);
#338=ADVANCED_FACE('',(#301),#322,.T.);
#339=ADVANCED_FACE('',(#302,#303),#323,.F.);
#340=ADVANCED_FACE('',(#304,#305),#324,.F.);
#341=ADVANCED_FACE('',(#306,#307),#325,.F.);
#342=ADVANCED_FACE('',(#308,#309,#310,#311,#312),#20,.T.);
#343=ADVANCED_FACE('',(#313,#314,#315,#316,#317),#21,.T.);
#344=CLOSED_SHELL('',(#326,#327,#328,#329,#330,#331,#332,#333,#334,#335,
#336,#337,#338,#339,#340,#341,#342,#343));
#345=STYLED_ITEM('',(#346),#353);
#346=PRESENTATION_STYLE_ASSIGNMENT((#347));
#347=SURFACE_STYLE_USAGE(.BOTH.,#348);
#348=SURFACE_SIDE_STYLE('',(#349));
#349=SURFACE_STYLE_FILL_AREA(#350);
#350=FILL_AREA_STYLE('',(#351));
#351=FILL_AREA_STYLE_COLOUR('',#352);
#352=COLOUR_RGB('',0.972549019607843,0.529411764705882,0.00392156862745098);
#353=MANIFOLD_SOLID_BREP('Part 4',#344);
#354=SHAPE_DEFINITION_REPRESENTATION(#590,#355);
#355=SHAPE_REPRESENTATION('Part 4',(#356),#585);
#356=AXIS2_PLACEMENT_3D('',#489,#391,#392);
#357=AXIS2_PLACEMENT_3D('',#490,#393,#394);
#358=AXIS2_PLACEMENT_3D('',#494,#396,#397);
#359=AXIS2_PLACEMENT_3D('',#498,#399,#400);
#360=AXIS2_PLACEMENT_3D('',#499,#401,#402);
#361=AXIS2_PLACEMENT_3D('',#505,#406,#407);
#362=AXIS2_PLACEMENT_3D('',#511,#411,#412);
#363=AXIS2_PLACEMENT_3D('',#517,#416,#417);
#364=AXIS2_PLACEMENT_3D('',#518,#418,#419);
#365=AXIS2_PLACEMENT_3D('',#522,#421,#422);
#366=AXIS2_PLACEMENT_3D('',#523,#423,#424);
#367=AXIS2_PLACEMENT_3D('',#529,#428,#429);
#368=AXIS2_PLACEMENT_3D('',#530,#430,#431);
#369=AXIS2_PLACEMENT_3D('',#534,#433,#434);
#370=AXIS2_PLACEMENT_3D('',#535,#435,#436);
#371=AXIS2_PLACEMENT_3D('',#541,#440,#441);
#372=AXIS2_PLACEMENT_3D('',#547,#445,#446);
#373=AXIS2_PLACEMENT_3D('',#553,#450,#451);
#374=AXIS2_PLACEMENT_3D('',#554,#452,#453);
#375=AXIS2_PLACEMENT_3D('',#556,#454,#455);
#376=AXIS2_PLACEMENT_3D('',#558,#456,#457);
#377=AXIS2_PLACEMENT_3D('',#564,#461,#462);
#378=AXIS2_PLACEMENT_3D('',#565,#463,#464);
#379=AXIS2_PLACEMENT_3D('',#566,#465,#466);
#380=AXIS2_PLACEMENT_3D('',#567,#467,#468);
#381=AXIS2_PLACEMENT_3D('',#568,#469,#470);
#382=AXIS2_PLACEMENT_3D('',#570,#471,#472);
#383=AXIS2_PLACEMENT_3D('',#572,#473,#474);
#384=AXIS2_PLACEMENT_3D('',#573,#475,#476);
#385=AXIS2_PLACEMENT_3D('',#575,#477,#478);
#386=AXIS2_PLACEMENT_3D('',#577,#479,#480);
#387=AXIS2_PLACEMENT_3D('',#578,#481,#482);
#388=AXIS2_PLACEMENT_3D('',#580,#483,#484);
#389=AXIS2_PLACEMENT_3D('',#582,#485,#486);
#390=AXIS2_PLACEMENT_3D('',#583,#487,#488);
#391=DIRECTION('',(0.,0.,1.));
#392=DIRECTION('',(1.,0.,0.));
#393=DIRECTION('',(0.,-1.,0.));
#394=DIRECTION('',(0.,0.,-1.));
#395=DIRECTION('',(0.,-1.,0.));
#396=DIRECTION('',(0.,1.,0.));
#397=DIRECTION('',(0.,0.,1.));
#398=DIRECTION('',(0.,-1.,0.));
#399=DIRECTION('',(0.,-1.,0.));
#400=DIRECTION('',(0.,0.,-1.));
#401=DIRECTION('',(0.,0.,-1.));
#402=DIRECTION('',(-1.,0.,0.));
#403=DIRECTION('',(1.,0.,0.));
#404=DIRECTION('',(0.,-1.,0.));
#405=DIRECTION('',(1.,0.,0.));
#406=DIRECTION('',(-1.,0.,2.10269512239613E-16));
#407=DIRECTION('',(2.10269512239613E-16,0.,1.));
#408=DIRECTION('',(-2.10269512239613E-16,0.,-1.));
#409=DIRECTION('',(0.,-1.,0.));
#410=DIRECTION('',(-2.10269512239613E-16,0.,-1.));
#411=DIRECTION('',(0.,0.,1.));
#412=DIRECTION('',(1.,0.,0.));
#413=DIRECTION('',(-1.,0.,0.));
#414=DIRECTION('',(0.,-1.,0.));
#415=DIRECTION('',(-1.,0.,0.));
#416=DIRECTION('',(0.,-1.,0.));
#417=DIRECTION('',(0.,0.,-1.));
#418=DIRECTION('',(0.,1.,0.));
#419=DIRECTION('',(0.,0.,1.));
#420=DIRECTION('',(0.,-1.,0.));
#421=DIRECTION('',(0.,-1.,0.));
#422=DIRECTION('',(0.,0.,-1.));
#423=DIRECTION('',(-2.63649142708872E-16,0.,-1.));
#424=DIRECTION('',(-1.,0.,2.63649142708872E-16));
#425=DIRECTION('',(1.,0.,-2.63649142708872E-16));
#426=DIRECTION('',(0.,-1.,0.));
#427=DIRECTION('',(1.,0.,-2.63649142708872E-16));
#428=DIRECTION('',(0.,-1.,0.));
#429=DIRECTION('',(0.,0.,-1.));
#430=DIRECTION('',(0.,1.,0.));
#431=DIRECTION('',(0.,0.,1.));
#432=DIRECTION('',(0.,-1.,0.));
#433=DIRECTION('',(0.,-1.,0.));
#434=DIRECTION('',(0.,0.,-1.));
#435=DIRECTION('',(0.,0.,1.));
#436=DIRECTION('',(1.,0.,0.));
#437=DIRECTION('',(-1.,0.,0.));
#438=DIRECTION('',(0.,-1.,0.));
#439=DIRECTION('',(-1.,0.,0.));
#440=DIRECTION('',(1.,0.,-2.10269512239613E-16));
#441=DIRECTION('',(-2.10269512239613E-16,0.,-1.));
#442=DIRECTION('',(2.10269512239613E-16,0.,1.));
#443=DIRECTION('',(0.,-1.,0.));
#444=DIRECTION('',(2.10269512239613E-16,0.,1.));
#445=DIRECTION('',(-3.41480999208033E-15,0.,-1.));
#446=DIRECTION('',(-1.,0.,3.41480999208033E-15));
#447=DIRECTION('',(1.,0.,-3.41480999208033E-15));
#448=DIRECTION('',(0.,-1.,0.));
#449=DIRECTION('',(1.,0.,-3.41480999208033E-15));
#450=DIRECTION('',(0.,-1.,0.));
#451=DIRECTION('',(0.,0.,-1.));
#452=DIRECTION('',(0.,-1.,0.));
#453=DIRECTION('',(0.,0.,-1.));
#454=DIRECTION('',(0.,1.,0.));
#455=DIRECTION('',(0.,0.,1.));
#456=DIRECTION('',(2.63649142708872E-16,0.,1.));
#457=DIRECTION('',(1.,0.,-2.63649142708872E-16));
#458=DIRECTION('',(0.,-1.,0.));
#459=DIRECTION('',(-1.,0.,2.63649142708872E-16));
#460=DIRECTION('',(-1.,0.,2.63649142708872E-16));
#461=DIRECTION('',(0.,-1.,0.));
#462=DIRECTION('',(0.,0.,-1.));
#463=DIRECTION('',(0.,1.,0.));
#464=DIRECTION('',(0.,0.,1.));
#465=DIRECTION('',(0.,-1.,0.));
#466=DIRECTION('',(0.,0.,-1.));
#467=DIRECTION('',(0.,-1.,0.));
#468=DIRECTION('',(0.,0.,-1.));
#469=DIRECTION('',(0.,-1.,0.));
#470=DIRECTION('',(0.,0.,-1.));
#471=DIRECTION('',(0.,1.,0.));
#472=DIRECTION('',(0.,0.,1.));
#473=DIRECTION('',(0.,-1.,0.));
#474=DIRECTION('',(0.,0.,-1.));
#475=DIRECTION('',(0.,-1.,0.));
#476=DIRECTION('',(0.,0.,-1.));
#477=DIRECTION('',(0.,1.,0.));
#478=DIRECTION('',(0.,0.,1.));
#479=DIRECTION('',(0.,-1.,0.));
#480=DIRECTION('',(0.,0.,-1.));
#481=DIRECTION('',(0.,-1.,0.));
#482=DIRECTION('',(0.,0.,-1.));
#483=DIRECTION('',(0.,1.,0.));
#484=DIRECTION('',(0.,0.,1.));
#485=DIRECTION('',(0.,-1.,0.));
#486=DIRECTION('',(1.,0.,0.));
#487=DIRECTION('',(0.,1.,0.));
#488=DIRECTION('',(-1.,0.,0.));
#489=CARTESIAN_POINT('',(0.,0.,0.));
#490=CARTESIAN_POINT('',(-0.0197631469326469,0.000764,0.0114680897533486));
#491=CARTESIAN_POINT('',(-0.0197631469326469,0.000764,0.0146725897533486));
#492=CARTESIAN_POINT('',(-0.0197631469326469,0.002427986,0.0146725897533485));
#493=CARTESIAN_POINT('',(-0.0197631469326469,-0.000762,0.0146725897533486));
#494=CARTESIAN_POINT('',(-0.0197631469326469,0.002427986,0.0114680897533486));
#495=CARTESIAN_POINT('',(-0.0197631469326469,0.002427986,0.00826358975334857));
#496=CARTESIAN_POINT('',(-0.0197631469326469,0.000764,0.00826358975334857));
#497=CARTESIAN_POINT('',(-0.0197631469326469,-0.000762,0.00826358975334857));
#498=CARTESIAN_POINT('',(-0.0197631469326469,-0.000762,0.0114680897533486));
#499=CARTESIAN_POINT('',(-0.0172231469326469,0.000764,0.00826358975334857));
#500=CARTESIAN_POINT('',(-0.0172231469326469,0.002427986,0.00826358975334857));
#501=CARTESIAN_POINT('',(-0.0146831469326469,0.002427986,0.00826358975334857));
#502=CARTESIAN_POINT('',(-0.0146831469326469,0.000764,0.00826358975334857));
#503=CARTESIAN_POINT('',(-0.0146831469326469,-0.000762,0.00826358975334857));
#504=CARTESIAN_POINT('',(-0.0172231469326469,-0.000762,0.00826358975334857));
#505=CARTESIAN_POINT('',(-0.0146831469326469,0.000764,1.35897533485602E-5));
#506=CARTESIAN_POINT('',(-0.0146831469326469,0.002427986,1.35897533485602E-5));
#507=CARTESIAN_POINT('',(-0.0146831469326469,0.002427986,-0.00823641024665145));
#508=CARTESIAN_POINT('',(-0.0146831469326469,0.000764,-0.00823641024665145));
#509=CARTESIAN_POINT('',(-0.0146831469326469,-0.000762,-0.00823641024665145));
#510=CARTESIAN_POINT('',(-0.0146831469326469,-0.000762,1.35897533485602E-5));
#511=CARTESIAN_POINT('',(-0.0172231469326469,0.000764,-0.00823641024665145));
#512=CARTESIAN_POINT('',(-0.0172231469326469,0.002427986,-0.00823641024665145));
#513=CARTESIAN_POINT('',(-0.0197631469326469,0.002427986,-0.00823641024665145));
#514=CARTESIAN_POINT('',(-0.0197631469326469,0.000764,-0.00823641024665145));
#515=CARTESIAN_POINT('',(-0.0197631469326469,-0.000762,-0.00823641024665145));
#516=CARTESIAN_POINT('',(-0.0172231469326469,-0.000762,-0.00823641024665145));
#517=CARTESIAN_POINT('',(-0.0197631469326469,0.000764,-0.0114409102466514));
#518=CARTESIAN_POINT('',(-0.0197631469326469,0.002427986,-0.0114409102466514));
#519=CARTESIAN_POINT('',(-0.0197631469326469,0.002427986,-0.0146454102466514));
#520=CARTESIAN_POINT('',(-0.0197631469326469,0.000764,-0.0146454102466514));
#521=CARTESIAN_POINT('',(-0.0197631469326469,-0.000762,-0.0146454102466514));
#522=CARTESIAN_POINT('',(-0.0197631469326469,-0.000762,-0.0114409102466514));
#523=CARTESIAN_POINT('',(-2.41469326468305E-5,0.000764,-0.0146454102466514));
#524=CARTESIAN_POINT('',(-2.41469326468305E-5,0.002427986,-0.0146454102466514));
#525=CARTESIAN_POINT('',(0.0197148530673531,0.002427986,-0.0146454102466515));
#526=CARTESIAN_POINT('',(0.0197148530673531,0.000764,-0.0146454102466515));
#527=CARTESIAN_POINT('',(0.0197148530673531,-0.000762,-0.0146454102466515));
#528=CARTESIAN_POINT('',(-2.41469326468305E-5,-0.000762,-0.0146454102466514));
#529=CARTESIAN_POINT('',(0.0197148530673531,0.000764,-0.0114409102466515));
#530=CARTESIAN_POINT('',(0.0197148530673531,0.002427986,-0.0114409102466515));
#531=CARTESIAN_POINT('',(0.0197148530673531,0.002427986,-0.00823641024665146));
#532=CARTESIAN_POINT('',(0.0197148530673531,0.000764,-0.00823641024665146));
#533=CARTESIAN_POINT('',(0.0197148530673531,-0.000762,-0.00823641024665146));
#534=CARTESIAN_POINT('',(0.0197148530673531,-0.000762,-0.0114409102466515));
#535=CARTESIAN_POINT('',(0.0171748530673531,0.000764,-0.00823641024665146));
#536=CARTESIAN_POINT('',(0.0171748530673531,0.002427986,-0.00823641024665146));
#537=CARTESIAN_POINT('',(0.0146348530673532,0.002427986,-0.00823641024665146));
#538=CARTESIAN_POINT('',(0.0146348530673532,0.000764,-0.00823641024665146));
#539=CARTESIAN_POINT('',(0.0146348530673532,-0.000762,-0.00823641024665146));
#540=CARTESIAN_POINT('',(0.0171748530673531,-0.000762,-0.00823641024665146));
#541=CARTESIAN_POINT('',(0.0146348530673532,0.000764,1.35897533485429E-5));
#542=CARTESIAN_POINT('',(0.0146348530673532,0.002427986,1.35897533485429E-5));
#543=CARTESIAN_POINT('',(0.0146348530673532,0.002427986,0.00826358975334855));
#544=CARTESIAN_POINT('',(0.0146348530673532,0.000764,0.00826358975334855));
#545=CARTESIAN_POINT('',(0.0146348530673532,-0.000762,0.00826358975334855));
#546=CARTESIAN_POINT('',(0.0146348530673532,-0.000762,1.35897533485429E-5));
#547=CARTESIAN_POINT('',(0.0171748530673531,0.000764,0.00826358975334854));
#548=CARTESIAN_POINT('',(0.0171748530673531,0.002427986,0.00826358975334854));
#549=CARTESIAN_POINT('',(0.0197148530673531,0.002427986,0.00826358975334854));
#550=CARTESIAN_POINT('',(0.0197148530673531,0.000764,0.00826358975334854));
#551=CARTESIAN_POINT('',(0.0197148530673531,-0.000762,0.00826358975334854));
#552=CARTESIAN_POINT('',(0.0171748530673531,-0.000762,0.00826358975334854));
#553=CARTESIAN_POINT('',(-0.0197631469326469,0.000764,0.0114680897533486));
#554=CARTESIAN_POINT('',(-0.0197631469326469,-0.000762,0.0114680897533486));
#555=CARTESIAN_POINT('',(-0.0197631469326469,-0.000762,0.0103250897533486));
#556=CARTESIAN_POINT('',(-0.0197631469326469,0.002427986,0.0114680897533486));
#557=CARTESIAN_POINT('',(-0.0197631469326469,0.002427986,0.0126110897533486));
#558=CARTESIAN_POINT('',(-2.41469326468305E-5,0.000764,0.0146725897533485));
#559=CARTESIAN_POINT('',(0.0197148530673531,0.000764,0.0146725897533485));
#560=CARTESIAN_POINT('',(0.0197148530673531,0.002427986,0.0146725897533485));
#561=CARTESIAN_POINT('',(0.0197148530673531,-0.000762,0.0146725897533485));
#562=CARTESIAN_POINT('',(-2.41469326468305E-5,0.002427986,0.0146725897533485));
#563=CARTESIAN_POINT('',(-2.41469326468305E-5,-0.000762,0.0146725897533485));
#564=CARTESIAN_POINT('',(0.0197148530673531,0.000764,0.0114680897533485));
#565=CARTESIAN_POINT('',(0.0197148530673531,0.002427986,0.0114680897533485));
#566=CARTESIAN_POINT('',(0.0197148530673531,-0.000762,0.0114680897533485));
#567=CARTESIAN_POINT('',(0.0197148530673531,0.000764,0.0114680897533485));
#568=CARTESIAN_POINT('',(0.0197148530673531,-0.000762,0.0114680897533485));
#569=CARTESIAN_POINT('',(0.0197148530673531,-0.000762,0.0103250897533485));
#570=CARTESIAN_POINT('',(0.0197148530673531,0.002427986,0.0114680897533485));
#571=CARTESIAN_POINT('',(0.0197148530673531,0.002427986,0.0126110897533485));
#572=CARTESIAN_POINT('',(0.0197148530673531,0.000764,-0.0114409102466515));
#573=CARTESIAN_POINT('',(0.0197148530673531,-0.000762,-0.0114409102466515));
#574=CARTESIAN_POINT('',(0.0197148530673531,-0.000762,-0.0125839102466515));
#575=CARTESIAN_POINT('',(0.0197148530673531,0.002427986,-0.0114409102466515));
#576=CARTESIAN_POINT('',(0.0197148530673531,0.002427986,-0.0102979102466515));
#577=CARTESIAN_POINT('',(-0.0197631469326469,0.000764,-0.0114409102466514));
#578=CARTESIAN_POINT('',(-0.0197631469326469,-0.000762,-0.0114409102466514));
#579=CARTESIAN_POINT('',(-0.0197631469326469,-0.000762,-0.0125839102466514));
#580=CARTESIAN_POINT('',(-0.0197631469326469,0.002427986,-0.0114409102466514));
#581=CARTESIAN_POINT('',(-0.0197631469326469,0.002427986,-0.0102979102466514));
#582=CARTESIAN_POINT('',(-2.41469326468305E-5,-0.000762,1.3589753348555E-5));
#583=CARTESIAN_POINT('',(0.,0.002427986,0.));
#584=MECHANICAL_DESIGN_GEOMETRIC_PRESENTATION_REPRESENTATION('',(#345),
#585);
#585=(
GEOMETRIC_REPRESENTATION_CONTEXT(3)
GLOBAL_UNCERTAINTY_ASSIGNED_CONTEXT((#586))
GLOBAL_UNIT_ASSIGNED_CONTEXT((#589,#588,#587))
REPRESENTATION_CONTEXT('Part 4','TOP_LEVEL_ASSEMBLY_PART')
);
#586=UNCERTAINTY_MEASURE_WITH_UNIT(LENGTH_MEASURE(1.E-8),#589,
'DISTANCE_ACCURACY_VALUE','Maximum Tolerance applied to model');
#587=(
NAMED_UNIT(*)
SI_UNIT($,.STERADIAN.)
SOLID_ANGLE_UNIT()
);
#588=(
NAMED_UNIT(*)
PLANE_ANGLE_UNIT()
SI_UNIT($,.RADIAN.)
);
#589=(
LENGTH_UNIT()
NAMED_UNIT(*)
SI_UNIT($,.METRE.)
);
#590=PRODUCT_DEFINITION_SHAPE('','',#591);
#591=PRODUCT_DEFINITION('','',#593,#592);
#592=PRODUCT_DEFINITION_CONTEXT('',#599,'design');
#593=PRODUCT_DEFINITION_FORMATION_WITH_SPECIFIED_SOURCE('','',#595,
 .NOT_KNOWN.);
#594=PRODUCT_RELATED_PRODUCT_CATEGORY('','',(#595));
#595=PRODUCT('Part 4','Part 4','Part 4',(#597));
#596=PRODUCT_CATEGORY('','');
#597=PRODUCT_CONTEXT('',#599,'mechanical');
#598=APPLICATION_PROTOCOL_DEFINITION('international standard',
'ap242_managed_model_based_3d_engineering',2020,#599);
#599=APPLICATION_CONTEXT('managed model based 3d engineering');
ENDSEC;
END-ISO-10303-21;
