ISO-10303-21;
HEADER;
/* Generated by software containing ST-Developer
 * from STEP Tools, Inc. (www.steptools.com) 
 */
/* OPTION: using custom renumber hook */

FILE_DESCRIPTION(
/* description */ ('STEP AP242 Edition 2',
'CAx-IF Rec.Pracs.---Representation and Presentation of Product Manufa
cturing Information (PMI)---4.0---2014-10-13',
'CAx-IF Rec.Pracs.---3D Tessellated Geometry---0.4---2014-09-14','2;1',
'CAx-IF Rec.Pracs.---User Defined Attributes---1.5---2016-08-15'),
/* implementation_level */ '2;1');

FILE_NAME(
/* name */ 'T2-001-V1.2(3D) - Part 2',
/* time_stamp */ '2026-06-05T01:21:57Z',
/* author */ (''),
/* organization */ (''),
/* preprocessor_version */ 'ST-DEVELOPER v20',
/* originating_system */ 'ONSHAPE BY PTC INC, 1.215',
/* authorisation */ '  ');

FILE_SCHEMA (('AP242_MANAGED_MODEL_BASED_3D_ENGINEERING_MIM_LF { 1 0 10303 442 3 1 4 }'));
ENDSEC;

DATA;
#10=SHAPE_REPRESENTATION_RELATIONSHIP('','',#821,#11);
#11=ADVANCED_BREP_SHAPE_REPRESENTATION('',(#819),#1355);
#12=CYLINDRICAL_SURFACE('',#858,0.001754);
#13=CYLINDRICAL_SURFACE('',#862,0.001754);
#14=CYLINDRICAL_SURFACE('',#866,0.004754);
#15=CYLINDRICAL_SURFACE('',#867,0.004754);
#16=CYLINDRICAL_SURFACE('',#873,0.0009198102);
#17=CYLINDRICAL_SURFACE('',#874,0.0009198102);
#18=CYLINDRICAL_SURFACE('',#875,0.0009198102);
#19=CYLINDRICAL_SURFACE('',#876,0.0009198102);
#20=CYLINDRICAL_SURFACE('',#885,0.001143);
#21=CYLINDRICAL_SURFACE('',#887,0.0032045);
#22=CYLINDRICAL_SURFACE('',#888,0.001143);
#23=CYLINDRICAL_SURFACE('',#889,0.0032045);
#24=CYLINDRICAL_SURFACE('',#892,0.001143);
#25=CYLINDRICAL_SURFACE('',#893,0.0032045);
#26=CYLINDRICAL_SURFACE('',#894,0.001143);
#27=CYLINDRICAL_SURFACE('',#896,0.0032045);
#28=CIRCLE('',#826,0.0009198102);
#29=CIRCLE('',#827,0.0009198102);
#30=CIRCLE('',#828,0.0009198102);
#31=CIRCLE('',#829,0.0009198102);
#32=CIRCLE('',#830,0.0032045);
#33=CIRCLE('',#831,0.0032045);
#34=CIRCLE('',#832,0.0032045);
#35=CIRCLE('',#833,0.0032045);
#36=CIRCLE('',#834,0.004754);
#37=CIRCLE('',#835,0.004754);
#38=CIRCLE('',#836,0.001754);
#39=CIRCLE('',#837,0.001754);
#40=CIRCLE('',#838,0.001143);
#41=CIRCLE('',#839,0.001143);
#42=CIRCLE('',#840,0.001143);
#43=CIRCLE('',#841,0.001143);
#44=CIRCLE('',#843,0.0032045);
#45=CIRCLE('',#844,0.0032045);
#46=CIRCLE('',#845,0.0032045);
#47=CIRCLE('',#846,0.0032045);
#48=CIRCLE('',#847,0.004754);
#49=CIRCLE('',#848,0.004754);
#50=CIRCLE('',#849,0.0009198102);
#51=CIRCLE('',#850,0.0009198102);
#52=CIRCLE('',#851,0.0009198102);
#53=CIRCLE('',#852,0.0009198102);
#54=CIRCLE('',#853,0.001143);
#55=CIRCLE('',#854,0.001143);
#56=CIRCLE('',#855,0.001143);
#57=CIRCLE('',#856,0.001143);
#58=CIRCLE('',#859,0.001754);
#59=CIRCLE('',#863,0.001754);
#60=ORIENTED_EDGE('',*,*,#280,.F.);
#61=ORIENTED_EDGE('',*,*,#281,.F.);
#62=ORIENTED_EDGE('',*,*,#282,.T.);
#63=ORIENTED_EDGE('',*,*,#283,.F.);
#64=ORIENTED_EDGE('',*,*,#284,.F.);
#65=ORIENTED_EDGE('',*,*,#285,.T.);
#66=ORIENTED_EDGE('',*,*,#286,.F.);
#67=ORIENTED_EDGE('',*,*,#287,.F.);
#68=ORIENTED_EDGE('',*,*,#288,.T.);
#69=ORIENTED_EDGE('',*,*,#289,.F.);
#70=ORIENTED_EDGE('',*,*,#290,.T.);
#71=ORIENTED_EDGE('',*,*,#291,.F.);
#72=ORIENTED_EDGE('',*,*,#292,.T.);
#73=ORIENTED_EDGE('',*,*,#293,.F.);
#74=ORIENTED_EDGE('',*,*,#294,.T.);
#75=ORIENTED_EDGE('',*,*,#295,.F.);
#76=ORIENTED_EDGE('',*,*,#296,.T.);
#77=ORIENTED_EDGE('',*,*,#284,.T.);
#78=ORIENTED_EDGE('',*,*,#297,.T.);
#79=ORIENTED_EDGE('',*,*,#298,.T.);
#80=ORIENTED_EDGE('',*,*,#299,.T.);
#81=ORIENTED_EDGE('',*,*,#300,.T.);
#82=ORIENTED_EDGE('',*,*,#301,.T.);
#83=ORIENTED_EDGE('',*,*,#281,.T.);
#84=ORIENTED_EDGE('',*,*,#302,.T.);
#85=ORIENTED_EDGE('',*,*,#303,.T.);
#86=ORIENTED_EDGE('',*,*,#304,.T.);
#87=ORIENTED_EDGE('',*,*,#305,.T.);
#88=ORIENTED_EDGE('',*,*,#306,.F.);
#89=ORIENTED_EDGE('',*,*,#307,.F.);
#90=ORIENTED_EDGE('',*,*,#308,.F.);
#91=ORIENTED_EDGE('',*,*,#309,.F.);
#92=ORIENTED_EDGE('',*,*,#310,.T.);
#93=ORIENTED_EDGE('',*,*,#311,.T.);
#94=ORIENTED_EDGE('',*,*,#312,.T.);
#95=ORIENTED_EDGE('',*,*,#313,.T.);
#96=ORIENTED_EDGE('',*,*,#314,.T.);
#97=ORIENTED_EDGE('',*,*,#315,.F.);
#98=ORIENTED_EDGE('',*,*,#316,.T.);
#99=ORIENTED_EDGE('',*,*,#317,.T.);
#100=ORIENTED_EDGE('',*,*,#318,.T.);
#101=ORIENTED_EDGE('',*,*,#319,.F.);
#102=ORIENTED_EDGE('',*,*,#320,.F.);
#103=ORIENTED_EDGE('',*,*,#321,.F.);
#104=ORIENTED_EDGE('',*,*,#322,.F.);
#105=ORIENTED_EDGE('',*,*,#323,.F.);
#106=ORIENTED_EDGE('',*,*,#324,.T.);
#107=ORIENTED_EDGE('',*,*,#286,.T.);
#108=ORIENTED_EDGE('',*,*,#325,.T.);
#109=ORIENTED_EDGE('',*,*,#326,.T.);
#110=ORIENTED_EDGE('',*,*,#327,.T.);
#111=ORIENTED_EDGE('',*,*,#328,.T.);
#112=ORIENTED_EDGE('',*,*,#329,.T.);
#113=ORIENTED_EDGE('',*,*,#283,.T.);
#114=ORIENTED_EDGE('',*,*,#330,.T.);
#115=ORIENTED_EDGE('',*,*,#331,.T.);
#116=ORIENTED_EDGE('',*,*,#332,.T.);
#117=ORIENTED_EDGE('',*,*,#333,.T.);
#118=ORIENTED_EDGE('',*,*,#334,.F.);
#119=ORIENTED_EDGE('',*,*,#335,.F.);
#120=ORIENTED_EDGE('',*,*,#336,.F.);
#121=ORIENTED_EDGE('',*,*,#337,.F.);
#122=ORIENTED_EDGE('',*,*,#338,.F.);
#123=ORIENTED_EDGE('',*,*,#339,.T.);
#124=ORIENTED_EDGE('',*,*,#340,.F.);
#125=ORIENTED_EDGE('',*,*,#341,.T.);
#126=ORIENTED_EDGE('',*,*,#342,.F.);
#127=ORIENTED_EDGE('',*,*,#343,.T.);
#128=ORIENTED_EDGE('',*,*,#344,.F.);
#129=ORIENTED_EDGE('',*,*,#345,.T.);
#130=ORIENTED_EDGE('',*,*,#346,.F.);
#131=ORIENTED_EDGE('',*,*,#347,.F.);
#132=ORIENTED_EDGE('',*,*,#348,.F.);
#133=ORIENTED_EDGE('',*,*,#349,.F.);
#134=ORIENTED_EDGE('',*,*,#316,.F.);
#135=ORIENTED_EDGE('',*,*,#350,.F.);
#136=ORIENTED_EDGE('',*,*,#351,.T.);
#137=ORIENTED_EDGE('',*,*,#352,.T.);
#138=ORIENTED_EDGE('',*,*,#317,.F.);
#139=ORIENTED_EDGE('',*,*,#352,.F.);
#140=ORIENTED_EDGE('',*,*,#353,.T.);
#141=ORIENTED_EDGE('',*,*,#354,.T.);
#142=ORIENTED_EDGE('',*,*,#318,.F.);
#143=ORIENTED_EDGE('',*,*,#354,.F.);
#144=ORIENTED_EDGE('',*,*,#355,.T.);
#145=ORIENTED_EDGE('',*,*,#356,.T.);
#146=ORIENTED_EDGE('',*,*,#311,.F.);
#147=ORIENTED_EDGE('',*,*,#357,.F.);
#148=ORIENTED_EDGE('',*,*,#358,.T.);
#149=ORIENTED_EDGE('',*,*,#359,.T.);
#150=ORIENTED_EDGE('',*,*,#312,.F.);
#151=ORIENTED_EDGE('',*,*,#359,.F.);
#152=ORIENTED_EDGE('',*,*,#360,.T.);
#153=ORIENTED_EDGE('',*,*,#361,.T.);
#154=ORIENTED_EDGE('',*,*,#313,.F.);
#155=ORIENTED_EDGE('',*,*,#361,.F.);
#156=ORIENTED_EDGE('',*,*,#362,.T.);
#157=ORIENTED_EDGE('',*,*,#363,.T.);
#158=ORIENTED_EDGE('',*,*,#364,.F.);
#159=ORIENTED_EDGE('',*,*,#306,.T.);
#160=ORIENTED_EDGE('',*,*,#365,.T.);
#161=ORIENTED_EDGE('',*,*,#337,.T.);
#162=ORIENTED_EDGE('',*,*,#366,.F.);
#163=ORIENTED_EDGE('',*,*,#307,.T.);
#164=ORIENTED_EDGE('',*,*,#364,.T.);
#165=ORIENTED_EDGE('',*,*,#336,.T.);
#166=ORIENTED_EDGE('',*,*,#365,.F.);
#167=ORIENTED_EDGE('',*,*,#309,.T.);
#168=ORIENTED_EDGE('',*,*,#367,.T.);
#169=ORIENTED_EDGE('',*,*,#334,.T.);
#170=ORIENTED_EDGE('',*,*,#344,.T.);
#171=ORIENTED_EDGE('',*,*,#368,.T.);
#172=ORIENTED_EDGE('',*,*,#295,.T.);
#173=ORIENTED_EDGE('',*,*,#369,.T.);
#174=ORIENTED_EDGE('',*,*,#342,.T.);
#175=ORIENTED_EDGE('',*,*,#370,.T.);
#176=ORIENTED_EDGE('',*,*,#289,.T.);
#177=ORIENTED_EDGE('',*,*,#371,.T.);
#178=ORIENTED_EDGE('',*,*,#293,.T.);
#179=ORIENTED_EDGE('',*,*,#372,.T.);
#180=ORIENTED_EDGE('',*,*,#338,.T.);
#181=ORIENTED_EDGE('',*,*,#373,.T.);
#182=ORIENTED_EDGE('',*,*,#367,.F.);
#183=ORIENTED_EDGE('',*,*,#308,.T.);
#184=ORIENTED_EDGE('',*,*,#366,.T.);
#185=ORIENTED_EDGE('',*,*,#335,.T.);
#186=ORIENTED_EDGE('',*,*,#340,.T.);
#187=ORIENTED_EDGE('',*,*,#374,.T.);
#188=ORIENTED_EDGE('',*,*,#291,.T.);
#189=ORIENTED_EDGE('',*,*,#375,.T.);
#190=ORIENTED_EDGE('',*,*,#292,.F.);
#191=ORIENTED_EDGE('',*,*,#374,.F.);
#192=ORIENTED_EDGE('',*,*,#339,.F.);
#193=ORIENTED_EDGE('',*,*,#372,.F.);
#194=ORIENTED_EDGE('',*,*,#290,.F.);
#195=ORIENTED_EDGE('',*,*,#370,.F.);
#196=ORIENTED_EDGE('',*,*,#341,.F.);
#197=ORIENTED_EDGE('',*,*,#375,.F.);
#198=ORIENTED_EDGE('',*,*,#288,.F.);
#199=ORIENTED_EDGE('',*,*,#368,.F.);
#200=ORIENTED_EDGE('',*,*,#343,.F.);
#201=ORIENTED_EDGE('',*,*,#371,.F.);
#202=ORIENTED_EDGE('',*,*,#294,.F.);
#203=ORIENTED_EDGE('',*,*,#373,.F.);
#204=ORIENTED_EDGE('',*,*,#345,.F.);
#205=ORIENTED_EDGE('',*,*,#369,.F.);
#206=ORIENTED_EDGE('',*,*,#310,.F.);
#207=ORIENTED_EDGE('',*,*,#376,.F.);
#208=ORIENTED_EDGE('',*,*,#377,.F.);
#209=ORIENTED_EDGE('',*,*,#357,.T.);
#210=ORIENTED_EDGE('',*,*,#314,.F.);
#211=ORIENTED_EDGE('',*,*,#363,.F.);
#212=ORIENTED_EDGE('',*,*,#378,.F.);
#213=ORIENTED_EDGE('',*,*,#376,.T.);
#214=ORIENTED_EDGE('',*,*,#377,.T.);
#215=ORIENTED_EDGE('',*,*,#378,.T.);
#216=ORIENTED_EDGE('',*,*,#362,.F.);
#217=ORIENTED_EDGE('',*,*,#360,.F.);
#218=ORIENTED_EDGE('',*,*,#358,.F.);
#219=ORIENTED_EDGE('',*,*,#350,.T.);
#220=ORIENTED_EDGE('',*,*,#315,.T.);
#221=ORIENTED_EDGE('',*,*,#379,.F.);
#222=ORIENTED_EDGE('',*,*,#380,.T.);
#223=ORIENTED_EDGE('',*,*,#379,.T.);
#224=ORIENTED_EDGE('',*,*,#319,.T.);
#225=ORIENTED_EDGE('',*,*,#356,.F.);
#226=ORIENTED_EDGE('',*,*,#381,.T.);
#227=ORIENTED_EDGE('',*,*,#351,.F.);
#228=ORIENTED_EDGE('',*,*,#380,.F.);
#229=ORIENTED_EDGE('',*,*,#381,.F.);
#230=ORIENTED_EDGE('',*,*,#355,.F.);
#231=ORIENTED_EDGE('',*,*,#353,.F.);
#232=ORIENTED_EDGE('',*,*,#304,.F.);
#233=ORIENTED_EDGE('',*,*,#382,.T.);
#234=ORIENTED_EDGE('',*,*,#327,.F.);
#235=ORIENTED_EDGE('',*,*,#383,.F.);
#236=ORIENTED_EDGE('',*,*,#299,.F.);
#237=ORIENTED_EDGE('',*,*,#384,.T.);
#238=ORIENTED_EDGE('',*,*,#332,.F.);
#239=ORIENTED_EDGE('',*,*,#385,.F.);
#240=ORIENTED_EDGE('',*,*,#321,.T.);
#241=ORIENTED_EDGE('',*,*,#347,.T.);
#242=ORIENTED_EDGE('',*,*,#297,.F.);
#243=ORIENTED_EDGE('',*,*,#287,.T.);
#244=ORIENTED_EDGE('',*,*,#324,.F.);
#245=ORIENTED_EDGE('',*,*,#386,.F.);
#246=ORIENTED_EDGE('',*,*,#298,.F.);
#247=ORIENTED_EDGE('',*,*,#386,.T.);
#248=ORIENTED_EDGE('',*,*,#333,.F.);
#249=ORIENTED_EDGE('',*,*,#384,.F.);
#250=ORIENTED_EDGE('',*,*,#322,.T.);
#251=ORIENTED_EDGE('',*,*,#348,.T.);
#252=ORIENTED_EDGE('',*,*,#305,.F.);
#253=ORIENTED_EDGE('',*,*,#383,.T.);
#254=ORIENTED_EDGE('',*,*,#326,.F.);
#255=ORIENTED_EDGE('',*,*,#387,.F.);
#256=ORIENTED_EDGE('',*,*,#296,.F.);
#257=ORIENTED_EDGE('',*,*,#387,.T.);
#258=ORIENTED_EDGE('',*,*,#325,.F.);
#259=ORIENTED_EDGE('',*,*,#285,.F.);
#260=ORIENTED_EDGE('',*,*,#301,.F.);
#261=ORIENTED_EDGE('',*,*,#388,.T.);
#262=ORIENTED_EDGE('',*,*,#330,.F.);
#263=ORIENTED_EDGE('',*,*,#282,.F.);
#264=ORIENTED_EDGE('',*,*,#320,.T.);
#265=ORIENTED_EDGE('',*,*,#346,.T.);
#266=ORIENTED_EDGE('',*,*,#300,.F.);
#267=ORIENTED_EDGE('',*,*,#385,.T.);
#268=ORIENTED_EDGE('',*,*,#331,.F.);
#269=ORIENTED_EDGE('',*,*,#388,.F.);
#270=ORIENTED_EDGE('',*,*,#323,.T.);
#271=ORIENTED_EDGE('',*,*,#349,.T.);
#272=ORIENTED_EDGE('',*,*,#302,.F.);
#273=ORIENTED_EDGE('',*,*,#280,.T.);
#274=ORIENTED_EDGE('',*,*,#329,.F.);
#275=ORIENTED_EDGE('',*,*,#389,.F.);
#276=ORIENTED_EDGE('',*,*,#303,.F.);
#277=ORIENTED_EDGE('',*,*,#389,.T.);
#278=ORIENTED_EDGE('',*,*,#328,.F.);
#279=ORIENTED_EDGE('',*,*,#382,.F.);
#280=EDGE_CURVE('',#390,#391,#466,.T.);
#281=EDGE_CURVE('',#392,#390,#467,.T.);
#282=EDGE_CURVE('',#392,#393,#468,.T.);
#283=EDGE_CURVE('',#391,#393,#469,.T.);
#284=EDGE_CURVE('',#394,#395,#470,.T.);
#285=EDGE_CURVE('',#394,#396,#471,.T.);
#286=EDGE_CURVE('',#397,#396,#472,.T.);
#287=EDGE_CURVE('',#395,#397,#473,.T.);
#288=EDGE_CURVE('',#398,#399,#28,.T.);
#289=EDGE_CURVE('',#400,#399,#474,.T.);
#290=EDGE_CURVE('',#400,#401,#29,.T.);
#291=EDGE_CURVE('',#402,#401,#475,.T.);
#292=EDGE_CURVE('',#402,#403,#30,.T.);
#293=EDGE_CURVE('',#404,#403,#476,.T.);
#294=EDGE_CURVE('',#404,#405,#31,.T.);
#295=EDGE_CURVE('',#398,#405,#477,.T.);
#296=EDGE_CURVE('',#406,#394,#478,.T.);
#297=EDGE_CURVE('',#395,#407,#479,.T.);
#298=EDGE_CURVE('',#407,#408,#32,.F.);
#299=EDGE_CURVE('',#408,#409,#480,.T.);
#300=EDGE_CURVE('',#409,#410,#33,.F.);
#301=EDGE_CURVE('',#410,#392,#481,.T.);
#302=EDGE_CURVE('',#390,#411,#482,.T.);
#303=EDGE_CURVE('',#411,#412,#34,.F.);
#304=EDGE_CURVE('',#412,#413,#483,.T.);
#305=EDGE_CURVE('',#413,#406,#35,.F.);
#306=EDGE_CURVE('',#414,#415,#484,.T.);
#307=EDGE_CURVE('',#416,#414,#36,.F.);
#308=EDGE_CURVE('',#417,#416,#485,.T.);
#309=EDGE_CURVE('',#415,#417,#37,.F.);
#310=EDGE_CURVE('',#418,#419,#486,.T.);
#311=EDGE_CURVE('',#419,#420,#487,.T.);
#312=EDGE_CURVE('',#420,#421,#38,.T.);
#313=EDGE_CURVE('',#421,#422,#488,.T.);
#314=EDGE_CURVE('',#422,#418,#489,.T.);
#315=EDGE_CURVE('',#423,#424,#490,.T.);
#316=EDGE_CURVE('',#423,#425,#491,.T.);
#317=EDGE_CURVE('',#425,#426,#39,.T.);
#318=EDGE_CURVE('',#426,#427,#492,.T.);
#319=EDGE_CURVE('',#424,#427,#493,.T.);
#320=EDGE_CURVE('',#428,#428,#40,.F.);
#321=EDGE_CURVE('',#429,#429,#41,.F.);
#322=EDGE_CURVE('',#430,#430,#42,.F.);
#323=EDGE_CURVE('',#431,#431,#43,.F.);
#324=EDGE_CURVE('',#432,#397,#494,.T.);
#325=EDGE_CURVE('',#396,#433,#495,.T.);
#326=EDGE_CURVE('',#433,#434,#44,.T.);
#327=EDGE_CURVE('',#434,#435,#496,.T.);
#328=EDGE_CURVE('',#435,#436,#45,.T.);
#329=EDGE_CURVE('',#436,#391,#497,.T.);
#330=EDGE_CURVE('',#393,#437,#498,.T.);
#331=EDGE_CURVE('',#437,#438,#46,.T.);
#332=EDGE_CURVE('',#438,#439,#499,.T.);
#333=EDGE_CURVE('',#439,#432,#47,.T.);
#334=EDGE_CURVE('',#440,#441,#48,.T.);
#335=EDGE_CURVE('',#442,#440,#500,.T.);
#336=EDGE_CURVE('',#443,#442,#49,.T.);
#337=EDGE_CURVE('',#441,#443,#501,.T.);
#338=EDGE_CURVE('',#444,#445,#502,.T.);
#339=EDGE_CURVE('',#444,#446,#50,.F.);
#340=EDGE_CURVE('',#447,#446,#503,.T.);
#341=EDGE_CURVE('',#447,#448,#51,.F.);
#342=EDGE_CURVE('',#449,#448,#504,.T.);
#343=EDGE_CURVE('',#449,#450,#52,.F.);
#344=EDGE_CURVE('',#451,#450,#505,.T.);
#345=EDGE_CURVE('',#451,#445,#53,.F.);
#346=EDGE_CURVE('',#452,#452,#54,.T.);
#347=EDGE_CURVE('',#453,#453,#55,.T.);
#348=EDGE_CURVE('',#454,#454,#56,.T.);
#349=EDGE_CURVE('',#455,#455,#57,.T.);
#350=EDGE_CURVE('',#456,#423,#506,.T.);
#351=EDGE_CURVE('',#456,#457,#507,.T.);
#352=EDGE_CURVE('',#457,#425,#508,.T.);
#353=EDGE_CURVE('',#457,#458,#58,.T.);
#354=EDGE_CURVE('',#458,#426,#509,.T.);
#355=EDGE_CURVE('',#458,#459,#510,.T.);
#356=EDGE_CURVE('',#459,#427,#511,.T.);
#357=EDGE_CURVE('',#460,#419,#512,.T.);
#358=EDGE_CURVE('',#460,#461,#513,.T.);
#359=EDGE_CURVE('',#461,#420,#514,.T.);
#360=EDGE_CURVE('',#461,#462,#59,.T.);
#361=EDGE_CURVE('',#462,#421,#515,.T.);
#362=EDGE_CURVE('',#462,#463,#516,.T.);
#363=EDGE_CURVE('',#463,#422,#517,.T.);
#364=EDGE_CURVE('',#414,#443,#518,.T.);
#365=EDGE_CURVE('',#415,#441,#519,.T.);
#366=EDGE_CURVE('',#416,#442,#520,.T.);
#367=EDGE_CURVE('',#417,#440,#521,.T.);
#368=EDGE_CURVE('',#450,#398,#522,.F.);
#369=EDGE_CURVE('',#405,#451,#523,.T.);
#370=EDGE_CURVE('',#448,#400,#524,.F.);
#371=EDGE_CURVE('',#399,#449,#525,.T.);
#372=EDGE_CURVE('',#403,#444,#526,.T.);
#373=EDGE_CURVE('',#445,#404,#527,.F.);
#374=EDGE_CURVE('',#446,#402,#528,.F.);
#375=EDGE_CURVE('',#401,#447,#529,.T.);
#376=EDGE_CURVE('',#464,#418,#530,.T.);
#377=EDGE_CURVE('',#460,#464,#531,.T.);
#378=EDGE_CURVE('',#464,#463,#532,.T.);
#379=EDGE_CURVE('',#465,#424,#533,.T.);
#380=EDGE_CURVE('',#465,#456,#534,.T.);
#381=EDGE_CURVE('',#459,#465,#535,.T.);
#382=EDGE_CURVE('',#412,#435,#536,.T.);
#383=EDGE_CURVE('',#413,#434,#537,.T.);
#384=EDGE_CURVE('',#408,#439,#538,.T.);
#385=EDGE_CURVE('',#409,#438,#539,.T.);
#386=EDGE_CURVE('',#407,#432,#540,.T.);
#387=EDGE_CURVE('',#406,#433,#541,.T.);
#388=EDGE_CURVE('',#410,#437,#542,.T.);
#389=EDGE_CURVE('',#411,#436,#543,.T.);
#390=VERTEX_POINT('',#1128);
#391=VERTEX_POINT('',#1129);
#392=VERTEX_POINT('',#1131);
#393=VERTEX_POINT('',#1133);
#394=VERTEX_POINT('',#1137);
#395=VERTEX_POINT('',#1138);
#396=VERTEX_POINT('',#1140);
#397=VERTEX_POINT('',#1142);
#398=VERTEX_POINT('',#1146);
#399=VERTEX_POINT('',#1147);
#400=VERTEX_POINT('',#1149);
#401=VERTEX_POINT('',#1151);
#402=VERTEX_POINT('',#1153);
#403=VERTEX_POINT('',#1155);
#404=VERTEX_POINT('',#1157);
#405=VERTEX_POINT('',#1159);
#406=VERTEX_POINT('',#1162);
#407=VERTEX_POINT('',#1164);
#408=VERTEX_POINT('',#1166);
#409=VERTEX_POINT('',#1168);
#410=VERTEX_POINT('',#1170);
#411=VERTEX_POINT('',#1173);
#412=VERTEX_POINT('',#1175);
#413=VERTEX_POINT('',#1177);
#414=VERTEX_POINT('',#1180);
#415=VERTEX_POINT('',#1181);
#416=VERTEX_POINT('',#1183);
#417=VERTEX_POINT('',#1185);
#418=VERTEX_POINT('',#1188);
#419=VERTEX_POINT('',#1189);
#420=VERTEX_POINT('',#1191);
#421=VERTEX_POINT('',#1193);
#422=VERTEX_POINT('',#1195);
#423=VERTEX_POINT('',#1198);
#424=VERTEX_POINT('',#1199);
#425=VERTEX_POINT('',#1201);
#426=VERTEX_POINT('',#1203);
#427=VERTEX_POINT('',#1205);
#428=VERTEX_POINT('',#1208);
#429=VERTEX_POINT('',#1210);
#430=VERTEX_POINT('',#1212);
#431=VERTEX_POINT('',#1214);
#432=VERTEX_POINT('',#1217);
#433=VERTEX_POINT('',#1219);
#434=VERTEX_POINT('',#1221);
#435=VERTEX_POINT('',#1223);
#436=VERTEX_POINT('',#1225);
#437=VERTEX_POINT('',#1228);
#438=VERTEX_POINT('',#1230);
#439=VERTEX_POINT('',#1232);
#440=VERTEX_POINT('',#1235);
#441=VERTEX_POINT('',#1236);
#442=VERTEX_POINT('',#1238);
#443=VERTEX_POINT('',#1240);
#444=VERTEX_POINT('',#1243);
#445=VERTEX_POINT('',#1244);
#446=VERTEX_POINT('',#1246);
#447=VERTEX_POINT('',#1248);
#448=VERTEX_POINT('',#1250);
#449=VERTEX_POINT('',#1252);
#450=VERTEX_POINT('',#1254);
#451=VERTEX_POINT('',#1256);
#452=VERTEX_POINT('',#1259);
#453=VERTEX_POINT('',#1261);
#454=VERTEX_POINT('',#1263);
#455=VERTEX_POINT('',#1265);
#456=VERTEX_POINT('',#1268);
#457=VERTEX_POINT('',#1270);
#458=VERTEX_POINT('',#1274);
#459=VERTEX_POINT('',#1278);
#460=VERTEX_POINT('',#1282);
#461=VERTEX_POINT('',#1284);
#462=VERTEX_POINT('',#1288);
#463=VERTEX_POINT('',#1292);
#464=VERTEX_POINT('',#1320);
#465=VERTEX_POINT('',#1327);
#466=LINE('',#1127,#544);
#467=LINE('',#1130,#545);
#468=LINE('',#1132,#546);
#469=LINE('',#1134,#547);
#470=LINE('',#1136,#548);
#471=LINE('',#1139,#549);
#472=LINE('',#1141,#550);
#473=LINE('',#1143,#551);
#474=LINE('',#1148,#552);
#475=LINE('',#1152,#553);
#476=LINE('',#1156,#554);
#477=LINE('',#1160,#555);
#478=LINE('',#1161,#556);
#479=LINE('',#1163,#557);
#480=LINE('',#1167,#558);
#481=LINE('',#1171,#559);
#482=LINE('',#1172,#560);
#483=LINE('',#1176,#561);
#484=LINE('',#1179,#562);
#485=LINE('',#1184,#563);
#486=LINE('',#1187,#564);
#487=LINE('',#1190,#565);
#488=LINE('',#1194,#566);
#489=LINE('',#1196,#567);
#490=LINE('',#1197,#568);
#491=LINE('',#1200,#569);
#492=LINE('',#1204,#570);
#493=LINE('',#1206,#571);
#494=LINE('',#1216,#572);
#495=LINE('',#1218,#573);
#496=LINE('',#1222,#574);
#497=LINE('',#1226,#575);
#498=LINE('',#1227,#576);
#499=LINE('',#1231,#577);
#500=LINE('',#1237,#578);
#501=LINE('',#1241,#579);
#502=LINE('',#1242,#580);
#503=LINE('',#1247,#581);
#504=LINE('',#1251,#582);
#505=LINE('',#1255,#583);
#506=LINE('',#1267,#584);
#507=LINE('',#1269,#585);
#508=LINE('',#1271,#586);
#509=LINE('',#1275,#587);
#510=LINE('',#1277,#588);
#511=LINE('',#1279,#589);
#512=LINE('',#1281,#590);
#513=LINE('',#1283,#591);
#514=LINE('',#1285,#592);
#515=LINE('',#1289,#593);
#516=LINE('',#1291,#594);
#517=LINE('',#1293,#595);
#518=LINE('',#1295,#596);
#519=LINE('',#1296,#597);
#520=LINE('',#1298,#598);
#521=LINE('',#1300,#599);
#522=LINE('',#1302,#600);
#523=LINE('',#1303,#601);
#524=LINE('',#1305,#602);
#525=LINE('',#1306,#603);
#526=LINE('',#1308,#604);
#527=LINE('',#1309,#605);
#528=LINE('',#1312,#606);
#529=LINE('',#1313,#607);
#530=LINE('',#1319,#608);
#531=LINE('',#1321,#609);
#532=LINE('',#1323,#610);
#533=LINE('',#1326,#611);
#534=LINE('',#1328,#612);
#535=LINE('',#1330,#613);
#536=LINE('',#1333,#614);
#537=LINE('',#1334,#615);
#538=LINE('',#1336,#616);
#539=LINE('',#1337,#617);
#540=LINE('',#1340,#618);
#541=LINE('',#1344,#619);
#542=LINE('',#1347,#620);
#543=LINE('',#1352,#621);
#544=VECTOR('',#901,1.);
#545=VECTOR('',#902,1.);
#546=VECTOR('',#903,1.);
#547=VECTOR('',#904,1.);
#548=VECTOR('',#907,1.);
#549=VECTOR('',#908,1.);
#550=VECTOR('',#909,1.);
#551=VECTOR('',#910,1.);
#552=VECTOR('',#915,1.);
#553=VECTOR('',#918,1.);
#554=VECTOR('',#921,1.);
#555=VECTOR('',#924,1.);
#556=VECTOR('',#925,1.);
#557=VECTOR('',#926,1.);
#558=VECTOR('',#929,1.);
#559=VECTOR('',#932,1.);
#560=VECTOR('',#933,1.);
#561=VECTOR('',#936,1.);
#562=VECTOR('',#939,1.);
#563=VECTOR('',#942,1.);
#564=VECTOR('',#945,1.);
#565=VECTOR('',#946,1.);
#566=VECTOR('',#949,1.);
#567=VECTOR('',#950,1.);
#568=VECTOR('',#951,1.);
#569=VECTOR('',#952,1.);
#570=VECTOR('',#955,1.);
#571=VECTOR('',#956,1.);
#572=VECTOR('',#967,1.);
#573=VECTOR('',#968,1.);
#574=VECTOR('',#971,1.);
#575=VECTOR('',#974,1.);
#576=VECTOR('',#975,1.);
#577=VECTOR('',#978,1.);
#578=VECTOR('',#983,1.);
#579=VECTOR('',#986,1.);
#580=VECTOR('',#987,1.);
#581=VECTOR('',#990,1.);
#582=VECTOR('',#993,1.);
#583=VECTOR('',#996,1.);
#584=VECTOR('',#1009,1.);
#585=VECTOR('',#1010,1.);
#586=VECTOR('',#1011,1.);
#587=VECTOR('',#1016,1.);
#588=VECTOR('',#1019,1.);
#589=VECTOR('',#1020,1.);
#590=VECTOR('',#1023,1.);
#591=VECTOR('',#1024,1.);
#592=VECTOR('',#1025,1.);
#593=VECTOR('',#1030,1.);
#594=VECTOR('',#1033,1.);
#595=VECTOR('',#1034,1.);
#596=VECTOR('',#1037,1.);
#597=VECTOR('',#1038,1.);
#598=VECTOR('',#1041,1.);
#599=VECTOR('',#1044,1.);
#600=VECTOR('',#1047,1.);
#601=VECTOR('',#1048,1.);
#602=VECTOR('',#1051,1.);
#603=VECTOR('',#1052,1.);
#604=VECTOR('',#1055,1.);
#605=VECTOR('',#1056,1.);
#606=VECTOR('',#1061,1.);
#607=VECTOR('',#1062,1.);
#608=VECTOR('',#1073,1.);
#609=VECTOR('',#1074,1.);
#610=VECTOR('',#1077,1.);
#611=VECTOR('',#1082,1.);
#612=VECTOR('',#1083,1.);
#613=VECTOR('',#1086,1.);
#614=VECTOR('',#1091,1.);
#615=VECTOR('',#1092,1.);
#616=VECTOR('',#1095,1.);
#617=VECTOR('',#1096,1.);
#618=VECTOR('',#1101,1.);
#619=VECTOR('',#1108,1.);
#620=VECTOR('',#1113,1.);
#621=VECTOR('',#1122,1.);
#622=EDGE_LOOP('',(#60,#61,#62,#63));
#623=EDGE_LOOP('',(#64,#65,#66,#67));
#624=EDGE_LOOP('',(#68,#69,#70,#71,#72,#73,#74,#75));
#625=EDGE_LOOP('',(#76,#77,#78,#79,#80,#81,#82,#83,#84,#85,#86,#87));
#626=EDGE_LOOP('',(#88,#89,#90,#91));
#627=EDGE_LOOP('',(#92,#93,#94,#95,#96));
#628=EDGE_LOOP('',(#97,#98,#99,#100,#101));
#629=EDGE_LOOP('',(#102));
#630=EDGE_LOOP('',(#103));
#631=EDGE_LOOP('',(#104));
#632=EDGE_LOOP('',(#105));
#633=EDGE_LOOP('',(#106,#107,#108,#109,#110,#111,#112,#113,#114,#115,#116,
#117));
#634=EDGE_LOOP('',(#118,#119,#120,#121));
#635=EDGE_LOOP('',(#122,#123,#124,#125,#126,#127,#128,#129));
#636=EDGE_LOOP('',(#130));
#637=EDGE_LOOP('',(#131));
#638=EDGE_LOOP('',(#132));
#639=EDGE_LOOP('',(#133));
#640=EDGE_LOOP('',(#134,#135,#136,#137));
#641=EDGE_LOOP('',(#138,#139,#140,#141));
#642=EDGE_LOOP('',(#142,#143,#144,#145));
#643=EDGE_LOOP('',(#146,#147,#148,#149));
#644=EDGE_LOOP('',(#150,#151,#152,#153));
#645=EDGE_LOOP('',(#154,#155,#156,#157));
#646=EDGE_LOOP('',(#158,#159,#160,#161));
#647=EDGE_LOOP('',(#162,#163,#164,#165));
#648=EDGE_LOOP('',(#166,#167,#168,#169));
#649=EDGE_LOOP('',(#170,#171,#172,#173));
#650=EDGE_LOOP('',(#174,#175,#176,#177));
#651=EDGE_LOOP('',(#178,#179,#180,#181));
#652=EDGE_LOOP('',(#182,#183,#184,#185));
#653=EDGE_LOOP('',(#186,#187,#188,#189));
#654=EDGE_LOOP('',(#190,#191,#192,#193));
#655=EDGE_LOOP('',(#194,#195,#196,#197));
#656=EDGE_LOOP('',(#198,#199,#200,#201));
#657=EDGE_LOOP('',(#202,#203,#204,#205));
#658=EDGE_LOOP('',(#206,#207,#208,#209));
#659=EDGE_LOOP('',(#210,#211,#212,#213));
#660=EDGE_LOOP('',(#214,#215,#216,#217,#218));
#661=EDGE_LOOP('',(#219,#220,#221,#222));
#662=EDGE_LOOP('',(#223,#224,#225,#226));
#663=EDGE_LOOP('',(#227,#228,#229,#230,#231));
#664=EDGE_LOOP('',(#232,#233,#234,#235));
#665=EDGE_LOOP('',(#236,#237,#238,#239));
#666=EDGE_LOOP('',(#240));
#667=EDGE_LOOP('',(#241));
#668=EDGE_LOOP('',(#242,#243,#244,#245));
#669=EDGE_LOOP('',(#246,#247,#248,#249));
#670=EDGE_LOOP('',(#250));
#671=EDGE_LOOP('',(#251));
#672=EDGE_LOOP('',(#252,#253,#254,#255));
#673=EDGE_LOOP('',(#256,#257,#258,#259));
#674=EDGE_LOOP('',(#260,#261,#262,#263));
#675=EDGE_LOOP('',(#264));
#676=EDGE_LOOP('',(#265));
#677=EDGE_LOOP('',(#266,#267,#268,#269));
#678=EDGE_LOOP('',(#270));
#679=EDGE_LOOP('',(#271));
#680=EDGE_LOOP('',(#272,#273,#274,#275));
#681=EDGE_LOOP('',(#276,#277,#278,#279));
#682=FACE_BOUND('',#622,.T.);
#683=FACE_BOUND('',#623,.T.);
#684=FACE_BOUND('',#624,.T.);
#685=FACE_BOUND('',#625,.T.);
#686=FACE_BOUND('',#626,.T.);
#687=FACE_BOUND('',#627,.T.);
#688=FACE_BOUND('',#628,.T.);
#689=FACE_BOUND('',#629,.T.);
#690=FACE_BOUND('',#630,.T.);
#691=FACE_BOUND('',#631,.T.);
#692=FACE_BOUND('',#632,.T.);
#693=FACE_BOUND('',#633,.T.);
#694=FACE_BOUND('',#634,.T.);
#695=FACE_BOUND('',#635,.T.);
#696=FACE_BOUND('',#636,.T.);
#697=FACE_BOUND('',#637,.T.);
#698=FACE_BOUND('',#638,.T.);
#699=FACE_BOUND('',#639,.T.);
#700=FACE_BOUND('',#640,.T.);
#701=FACE_BOUND('',#641,.T.);
#702=FACE_BOUND('',#642,.T.);
#703=FACE_BOUND('',#643,.T.);
#704=FACE_BOUND('',#644,.T.);
#705=FACE_BOUND('',#645,.T.);
#706=FACE_BOUND('',#646,.T.);
#707=FACE_BOUND('',#647,.T.);
#708=FACE_BOUND('',#648,.T.);
#709=FACE_BOUND('',#649,.T.);
#710=FACE_BOUND('',#650,.T.);
#711=FACE_BOUND('',#651,.T.);
#712=FACE_BOUND('',#652,.T.);
#713=FACE_BOUND('',#653,.T.);
#714=FACE_BOUND('',#654,.T.);
#715=FACE_BOUND('',#655,.T.);
#716=FACE_BOUND('',#656,.T.);
#717=FACE_BOUND('',#657,.T.);
#718=FACE_BOUND('',#658,.T.);
#719=FACE_BOUND('',#659,.T.);
#720=FACE_BOUND('',#660,.T.);
#721=FACE_BOUND('',#661,.T.);
#722=FACE_BOUND('',#662,.T.);
#723=FACE_BOUND('',#663,.T.);
#724=FACE_BOUND('',#664,.T.);
#725=FACE_BOUND('',#665,.T.);
#726=FACE_BOUND('',#666,.T.);
#727=FACE_BOUND('',#667,.T.);
#728=FACE_BOUND('',#668,.T.);
#729=FACE_BOUND('',#669,.T.);
#730=FACE_BOUND('',#670,.T.);
#731=FACE_BOUND('',#671,.T.);
#732=FACE_BOUND('',#672,.T.);
#733=FACE_BOUND('',#673,.T.);
#734=FACE_BOUND('',#674,.T.);
#735=FACE_BOUND('',#675,.T.);
#736=FACE_BOUND('',#676,.T.);
#737=FACE_BOUND('',#677,.T.);
#738=FACE_BOUND('',#678,.T.);
#739=FACE_BOUND('',#679,.T.);
#740=FACE_BOUND('',#680,.T.);
#741=FACE_BOUND('',#681,.T.);
#742=PLANE('',#823);
#743=PLANE('',#824);
#744=PLANE('',#825);
#745=PLANE('',#842);
#746=PLANE('',#857);
#747=PLANE('',#860);
#748=PLANE('',#861);
#749=PLANE('',#864);
#750=PLANE('',#865);
#751=PLANE('',#868);
#752=PLANE('',#869);
#753=PLANE('',#870);
#754=PLANE('',#871);
#755=PLANE('',#872);
#756=PLANE('',#877);
#757=PLANE('',#878);
#758=PLANE('',#879);
#759=PLANE('',#880);
#760=PLANE('',#881);
#761=PLANE('',#882);
#762=PLANE('',#883);
#763=PLANE('',#884);
#764=PLANE('',#886);
#765=PLANE('',#890);
#766=PLANE('',#891);
#767=PLANE('',#895);
#768=ADVANCED_FACE('',(#682),#742,.T.);
#769=ADVANCED_FACE('',(#683),#743,.T.);
#770=ADVANCED_FACE('',(#684,#685,#686,#687,#688,#689,#690,#691,#692),#744,
 .F.);
#771=ADVANCED_FACE('',(#693,#694,#695,#696,#697,#698,#699),#745,.T.);
#772=ADVANCED_FACE('',(#700),#746,.F.);
#773=ADVANCED_FACE('',(#701),#12,.T.);
#774=ADVANCED_FACE('',(#702),#747,.F.);
#775=ADVANCED_FACE('',(#703),#748,.F.);
#776=ADVANCED_FACE('',(#704),#13,.T.);
#777=ADVANCED_FACE('',(#705),#749,.F.);
#778=ADVANCED_FACE('',(#706),#750,.F.);
#779=ADVANCED_FACE('',(#707),#14,.F.);
#780=ADVANCED_FACE('',(#708),#15,.F.);
#781=ADVANCED_FACE('',(#709),#751,.F.);
#782=ADVANCED_FACE('',(#710),#752,.F.);
#783=ADVANCED_FACE('',(#711),#753,.F.);
#784=ADVANCED_FACE('',(#712),#754,.F.);
#785=ADVANCED_FACE('',(#713),#755,.F.);
#786=ADVANCED_FACE('',(#714),#16,.F.);
#787=ADVANCED_FACE('',(#715),#17,.F.);
#788=ADVANCED_FACE('',(#716),#18,.F.);
#789=ADVANCED_FACE('',(#717),#19,.F.);
#790=ADVANCED_FACE('',(#718),#756,.T.);
#791=ADVANCED_FACE('',(#719),#757,.T.);
#792=ADVANCED_FACE('',(#720),#758,.F.);
#793=ADVANCED_FACE('',(#721),#759,.F.);
#794=ADVANCED_FACE('',(#722),#760,.F.);
#795=ADVANCED_FACE('',(#723),#761,.F.);
#796=ADVANCED_FACE('',(#724),#762,.T.);
#797=ADVANCED_FACE('',(#725),#763,.T.);
#798=ADVANCED_FACE('',(#726,#727),#20,.F.);
#799=ADVANCED_FACE('',(#728),#764,.T.);
#800=ADVANCED_FACE('',(#729),#21,.T.);
#801=ADVANCED_FACE('',(#730,#731),#22,.F.);
#802=ADVANCED_FACE('',(#732),#23,.T.);
#803=ADVANCED_FACE('',(#733),#765,.T.);
#804=ADVANCED_FACE('',(#734),#766,.T.);
#805=ADVANCED_FACE('',(#735,#736),#24,.F.);
#806=ADVANCED_FACE('',(#737),#25,.T.);
#807=ADVANCED_FACE('',(#738,#739),#26,.F.);
#808=ADVANCED_FACE('',(#740),#767,.T.);
#809=ADVANCED_FACE('',(#741),#27,.T.);
#810=CLOSED_SHELL('',(#768,#769,#770,#771,#772,#773,#774,#775,#776,#777,
#778,#779,#780,#781,#782,#783,#784,#785,#786,#787,#788,#789,#790,#791,#792,
#793,#794,#795,#796,#797,#798,#799,#800,#801,#802,#803,#804,#805,#806,#807,
#808,#809));
#811=STYLED_ITEM('',(#812),#819);
#812=PRESENTATION_STYLE_ASSIGNMENT((#813));
#813=SURFACE_STYLE_USAGE(.BOTH.,#814);
#814=SURFACE_SIDE_STYLE('',(#815));
#815=SURFACE_STYLE_FILL_AREA(#816);
#816=FILL_AREA_STYLE('',(#817));
#817=FILL_AREA_STYLE_COLOUR('',#818);
#818=COLOUR_RGB('',0.498039215686275,0.498039215686275,0.498039215686275);
#819=MANIFOLD_SOLID_BREP('Part 2',#810);
#820=SHAPE_DEFINITION_REPRESENTATION(#1360,#821);
#821=SHAPE_REPRESENTATION('Part 2',(#822),#1355);
#822=AXIS2_PLACEMENT_3D('',#1125,#897,#898);
#823=AXIS2_PLACEMENT_3D('',#1126,#899,#900);
#824=AXIS2_PLACEMENT_3D('',#1135,#905,#906);
#825=AXIS2_PLACEMENT_3D('',#1144,#911,#912);
#826=AXIS2_PLACEMENT_3D('',#1145,#913,#914);
#827=AXIS2_PLACEMENT_3D('',#1150,#916,#917);
#828=AXIS2_PLACEMENT_3D('',#1154,#919,#920);
#829=AXIS2_PLACEMENT_3D('',#1158,#922,#923);
#830=AXIS2_PLACEMENT_3D('',#1165,#927,#928);
#831=AXIS2_PLACEMENT_3D('',#1169,#930,#931);
#832=AXIS2_PLACEMENT_3D('',#1174,#934,#935);
#833=AXIS2_PLACEMENT_3D('',#1178,#937,#938);
#834=AXIS2_PLACEMENT_3D('',#1182,#940,#941);
#835=AXIS2_PLACEMENT_3D('',#1186,#943,#944);
#836=AXIS2_PLACEMENT_3D('',#1192,#947,#948);
#837=AXIS2_PLACEMENT_3D('',#1202,#953,#954);
#838=AXIS2_PLACEMENT_3D('',#1207,#957,#958);
#839=AXIS2_PLACEMENT_3D('',#1209,#959,#960);
#840=AXIS2_PLACEMENT_3D('',#1211,#961,#962);
#841=AXIS2_PLACEMENT_3D('',#1213,#963,#964);
#842=AXIS2_PLACEMENT_3D('',#1215,#965,#966);
#843=AXIS2_PLACEMENT_3D('',#1220,#969,#970);
#844=AXIS2_PLACEMENT_3D('',#1224,#972,#973);
#845=AXIS2_PLACEMENT_3D('',#1229,#976,#977);
#846=AXIS2_PLACEMENT_3D('',#1233,#979,#980);
#847=AXIS2_PLACEMENT_3D('',#1234,#981,#982);
#848=AXIS2_PLACEMENT_3D('',#1239,#984,#985);
#849=AXIS2_PLACEMENT_3D('',#1245,#988,#989);
#850=AXIS2_PLACEMENT_3D('',#1249,#991,#992);
#851=AXIS2_PLACEMENT_3D('',#1253,#994,#995);
#852=AXIS2_PLACEMENT_3D('',#1257,#997,#998);
#853=AXIS2_PLACEMENT_3D('',#1258,#999,#1000);
#854=AXIS2_PLACEMENT_3D('',#1260,#1001,#1002);
#855=AXIS2_PLACEMENT_3D('',#1262,#1003,#1004);
#856=AXIS2_PLACEMENT_3D('',#1264,#1005,#1006);
#857=AXIS2_PLACEMENT_3D('',#1266,#1007,#1008);
#858=AXIS2_PLACEMENT_3D('',#1272,#1012,#1013);
#859=AXIS2_PLACEMENT_3D('',#1273,#1014,#1015);
#860=AXIS2_PLACEMENT_3D('',#1276,#1017,#1018);
#861=AXIS2_PLACEMENT_3D('',#1280,#1021,#1022);
#862=AXIS2_PLACEMENT_3D('',#1286,#1026,#1027);
#863=AXIS2_PLACEMENT_3D('',#1287,#1028,#1029);
#864=AXIS2_PLACEMENT_3D('',#1290,#1031,#1032);
#865=AXIS2_PLACEMENT_3D('',#1294,#1035,#1036);
#866=AXIS2_PLACEMENT_3D('',#1297,#1039,#1040);
#867=AXIS2_PLACEMENT_3D('',#1299,#1042,#1043);
#868=AXIS2_PLACEMENT_3D('',#1301,#1045,#1046);
#869=AXIS2_PLACEMENT_3D('',#1304,#1049,#1050);
#870=AXIS2_PLACEMENT_3D('',#1307,#1053,#1054);
#871=AXIS2_PLACEMENT_3D('',#1310,#1057,#1058);
#872=AXIS2_PLACEMENT_3D('',#1311,#1059,#1060);
#873=AXIS2_PLACEMENT_3D('',#1314,#1063,#1064);
#874=AXIS2_PLACEMENT_3D('',#1315,#1065,#1066);
#875=AXIS2_PLACEMENT_3D('',#1316,#1067,#1068);
#876=AXIS2_PLACEMENT_3D('',#1317,#1069,#1070);
#877=AXIS2_PLACEMENT_3D('',#1318,#1071,#1072);
#878=AXIS2_PLACEMENT_3D('',#1322,#1075,#1076);
#879=AXIS2_PLACEMENT_3D('',#1324,#1078,#1079);
#880=AXIS2_PLACEMENT_3D('',#1325,#1080,#1081);
#881=AXIS2_PLACEMENT_3D('',#1329,#1084,#1085);
#882=AXIS2_PLACEMENT_3D('',#1331,#1087,#1088);
#883=AXIS2_PLACEMENT_3D('',#1332,#1089,#1090);
#884=AXIS2_PLACEMENT_3D('',#1335,#1093,#1094);
#885=AXIS2_PLACEMENT_3D('',#1338,#1097,#1098);
#886=AXIS2_PLACEMENT_3D('',#1339,#1099,#1100);
#887=AXIS2_PLACEMENT_3D('',#1341,#1102,#1103);
#888=AXIS2_PLACEMENT_3D('',#1342,#1104,#1105);
#889=AXIS2_PLACEMENT_3D('',#1343,#1106,#1107);
#890=AXIS2_PLACEMENT_3D('',#1345,#1109,#1110);
#891=AXIS2_PLACEMENT_3D('',#1346,#1111,#1112);
#892=AXIS2_PLACEMENT_3D('',#1348,#1114,#1115);
#893=AXIS2_PLACEMENT_3D('',#1349,#1116,#1117);
#894=AXIS2_PLACEMENT_3D('',#1350,#1118,#1119);
#895=AXIS2_PLACEMENT_3D('',#1351,#1120,#1121);
#896=AXIS2_PLACEMENT_3D('',#1353,#1123,#1124);
#897=DIRECTION('',(0.,0.,1.));
#898=DIRECTION('',(1.,0.,0.));
#899=DIRECTION('',(0.,0.,1.));
#900=DIRECTION('',(1.,0.,0.));
#901=DIRECTION('',(0.,1.,0.));
#902=DIRECTION('',(-1.,0.,0.));
#903=DIRECTION('',(0.,1.,0.));
#904=DIRECTION('',(1.,0.,0.));
#905=DIRECTION('',(0.,0.,-1.));
#906=DIRECTION('',(-1.,0.,0.));
#907=DIRECTION('',(1.,0.,0.));
#908=DIRECTION('',(0.,1.,0.));
#909=DIRECTION('',(-1.,0.,0.));
#910=DIRECTION('',(0.,1.,0.));
#911=DIRECTION('',(0.,1.,0.));
#912=DIRECTION('',(1.,0.,0.));
#913=DIRECTION('',(0.,1.,0.));
#914=DIRECTION('',(0.,0.,1.));
#915=DIRECTION('',(0.,0.,-1.));
#916=DIRECTION('',(0.,1.,0.));
#917=DIRECTION('',(0.,0.,1.));
#918=DIRECTION('',(-1.,0.,0.));
#919=DIRECTION('',(0.,1.,0.));
#920=DIRECTION('',(0.,0.,1.));
#921=DIRECTION('',(0.,0.,1.));
#922=DIRECTION('',(0.,1.,0.));
#923=DIRECTION('',(0.,0.,1.));
#924=DIRECTION('',(1.,0.,0.));
#925=DIRECTION('',(0.,2.2204460492503E-16,1.));
#926=DIRECTION('',(0.,-2.2204460492503E-16,-1.));
#927=DIRECTION('',(-3.62999275918106E-30,1.,-2.22044604925031E-16));
#928=DIRECTION('',(0.,2.2204460492503E-16,1.));
#929=DIRECTION('',(0.,0.,1.));
#930=DIRECTION('',(-3.62999275918106E-30,1.,-2.22044604925031E-16));
#931=DIRECTION('',(0.,2.2204460492503E-16,1.));
#932=DIRECTION('',(0.,-2.2204460492503E-16,-1.));
#933=DIRECTION('',(0.,2.2204460492503E-16,1.));
#934=DIRECTION('',(-3.62999275918106E-30,1.,-2.22044604925031E-16));
#935=DIRECTION('',(0.,2.2204460492503E-16,1.));
#936=DIRECTION('',(0.,0.,-1.));
#937=DIRECTION('',(-3.62999275918106E-30,1.,-2.22044604925031E-16));
#938=DIRECTION('',(0.,2.2204460492503E-16,1.));
#939=DIRECTION('',(1.,0.,0.));
#940=DIRECTION('',(0.,1.,0.));
#941=DIRECTION('',(0.,0.,1.));
#942=DIRECTION('',(-1.,0.,0.));
#943=DIRECTION('',(0.,1.,0.));
#944=DIRECTION('',(0.,0.,1.));
#945=DIRECTION('',(0.,0.,-1.));
#946=DIRECTION('',(-1.,0.,0.));
#947=DIRECTION('',(0.,1.,0.));
#948=DIRECTION('',(0.,0.,1.));
#949=DIRECTION('',(0.,0.,1.));
#950=DIRECTION('',(1.,0.,0.));
#951=DIRECTION('',(-1.,0.,0.));
#952=DIRECTION('',(0.,0.,-1.));
#953=DIRECTION('',(0.,1.,0.));
#954=DIRECTION('',(0.,0.,1.));
#955=DIRECTION('',(-1.,0.,0.));
#956=DIRECTION('',(0.,0.,-1.));
#957=DIRECTION('',(-3.62999275918106E-30,1.,-2.22044604925031E-16));
#958=DIRECTION('',(0.,2.2204460492503E-16,1.));
#959=DIRECTION('',(-3.62999275918106E-30,1.,-2.22044604925031E-16));
#960=DIRECTION('',(0.,2.2204460492503E-16,1.));
#961=DIRECTION('',(-3.62999275918106E-30,1.,-2.22044604925031E-16));
#962=DIRECTION('',(0.,2.2204460492503E-16,1.));
#963=DIRECTION('',(-3.62999275918106E-30,1.,-2.22044604925031E-16));
#964=DIRECTION('',(0.,2.2204460492503E-16,1.));
#965=DIRECTION('',(0.,1.,0.));
#966=DIRECTION('',(-1.,0.,0.));
#967=DIRECTION('',(0.,0.,1.));
#968=DIRECTION('',(0.,0.,-1.));
#969=DIRECTION('',(0.,1.,0.));
#970=DIRECTION('',(0.,0.,1.));
#971=DIRECTION('',(0.,0.,1.));
#972=DIRECTION('',(0.,1.,0.));
#973=DIRECTION('',(0.,0.,1.));
#974=DIRECTION('',(0.,0.,-1.));
#975=DIRECTION('',(0.,0.,1.));
#976=DIRECTION('',(0.,1.,0.));
#977=DIRECTION('',(0.,0.,1.));
#978=DIRECTION('',(0.,0.,-1.));
#979=DIRECTION('',(0.,1.,0.));
#980=DIRECTION('',(0.,0.,1.));
#981=DIRECTION('',(0.,1.,0.));
#982=DIRECTION('',(0.,0.,1.));
#983=DIRECTION('',(1.,0.,0.));
#984=DIRECTION('',(0.,1.,0.));
#985=DIRECTION('',(0.,0.,1.));
#986=DIRECTION('',(-1.,0.,0.));
#987=DIRECTION('',(0.,0.,-1.));
#988=DIRECTION('',(0.,1.,0.));
#989=DIRECTION('',(0.,0.,1.));
#990=DIRECTION('',(1.,0.,0.));
#991=DIRECTION('',(0.,1.,0.));
#992=DIRECTION('',(0.,0.,1.));
#993=DIRECTION('',(0.,0.,1.));
#994=DIRECTION('',(0.,1.,0.));
#995=DIRECTION('',(0.,0.,1.));
#996=DIRECTION('',(-1.,0.,0.));
#997=DIRECTION('',(0.,1.,0.));
#998=DIRECTION('',(0.,0.,1.));
#999=DIRECTION('',(0.,1.,0.));
#1000=DIRECTION('',(0.,0.,1.));
#1001=DIRECTION('',(0.,1.,0.));
#1002=DIRECTION('',(0.,0.,1.));
#1003=DIRECTION('',(0.,1.,0.));
#1004=DIRECTION('',(0.,0.,1.));
#1005=DIRECTION('',(0.,1.,0.));
#1006=DIRECTION('',(0.,0.,1.));
#1007=DIRECTION('',(-1.,0.,0.));
#1008=DIRECTION('',(0.,0.,1.));
#1009=DIRECTION('',(0.,1.,0.));
#1010=DIRECTION('',(0.,0.,-1.));
#1011=DIRECTION('',(0.,1.,0.));
#1012=DIRECTION('',(0.,1.,0.));
#1013=DIRECTION('',(0.,0.,1.));
#1014=DIRECTION('',(0.,1.,0.));
#1015=DIRECTION('',(0.,0.,1.));
#1016=DIRECTION('',(0.,1.,0.));
#1017=DIRECTION('',(0.,0.,1.));
#1018=DIRECTION('',(1.,0.,0.));
#1019=DIRECTION('',(-1.,0.,0.));
#1020=DIRECTION('',(0.,1.,0.));
#1021=DIRECTION('',(0.,0.,1.));
#1022=DIRECTION('',(1.,0.,0.));
#1023=DIRECTION('',(0.,1.,0.));
#1024=DIRECTION('',(-1.,0.,0.));
#1025=DIRECTION('',(0.,1.,0.));
#1026=DIRECTION('',(0.,1.,0.));
#1027=DIRECTION('',(0.,0.,1.));
#1028=DIRECTION('',(0.,1.,0.));
#1029=DIRECTION('',(0.,0.,1.));
#1030=DIRECTION('',(0.,1.,0.));
#1031=DIRECTION('',(1.,0.,0.));
#1032=DIRECTION('',(0.,0.,-1.));
#1033=DIRECTION('',(0.,0.,1.));
#1034=DIRECTION('',(0.,1.,0.));
#1035=DIRECTION('',(0.,0.,-1.));
#1036=DIRECTION('',(-1.,0.,0.));
#1037=DIRECTION('',(0.,1.,0.));
#1038=DIRECTION('',(0.,1.,0.));
#1039=DIRECTION('',(0.,1.,0.));
#1040=DIRECTION('',(0.,0.,1.));
#1041=DIRECTION('',(0.,1.,0.));
#1042=DIRECTION('',(0.,1.,0.));
#1043=DIRECTION('',(0.,0.,1.));
#1044=DIRECTION('',(0.,1.,0.));
#1045=DIRECTION('',(0.,0.,-1.));
#1046=DIRECTION('',(-1.,0.,0.));
#1047=DIRECTION('',(0.,1.,0.));
#1048=DIRECTION('',(0.,1.,0.));
#1049=DIRECTION('',(-1.,0.,0.));
#1050=DIRECTION('',(0.,0.,1.));
#1051=DIRECTION('',(0.,1.,0.));
#1052=DIRECTION('',(0.,1.,0.));
#1053=DIRECTION('',(1.,0.,0.));
#1054=DIRECTION('',(0.,0.,-1.));
#1055=DIRECTION('',(0.,1.,0.));
#1056=DIRECTION('',(0.,1.,0.));
#1057=DIRECTION('',(0.,0.,1.));
#1058=DIRECTION('',(1.,0.,0.));
#1059=DIRECTION('',(0.,0.,1.));
#1060=DIRECTION('',(1.,0.,0.));
#1061=DIRECTION('',(0.,1.,0.));
#1062=DIRECTION('',(0.,1.,0.));
#1063=DIRECTION('',(0.,-1.,0.));
#1064=DIRECTION('',(0.,0.,-1.));
#1065=DIRECTION('',(0.,-1.,0.));
#1066=DIRECTION('',(0.,0.,-1.));
#1067=DIRECTION('',(0.,-1.,0.));
#1068=DIRECTION('',(0.,0.,-1.));
#1069=DIRECTION('',(0.,-1.,0.));
#1070=DIRECTION('',(0.,0.,-1.));
#1071=DIRECTION('',(1.,0.,0.));
#1072=DIRECTION('',(0.,0.,-1.));
#1073=DIRECTION('',(0.,1.,0.));
#1074=DIRECTION('',(0.,0.,1.));
#1075=DIRECTION('',(0.,0.,1.));
#1076=DIRECTION('',(1.,0.,0.));
#1077=DIRECTION('',(-1.,0.,0.));
#1078=DIRECTION('',(0.,1.,0.));
#1079=DIRECTION('',(1.,0.,0.));
#1080=DIRECTION('',(0.,0.,-1.));
#1081=DIRECTION('',(-1.,0.,0.));
#1082=DIRECTION('',(0.,1.,0.));
#1083=DIRECTION('',(1.,0.,0.));
#1084=DIRECTION('',(1.,0.,0.));
#1085=DIRECTION('',(0.,0.,-1.));
#1086=DIRECTION('',(0.,0.,1.));
#1087=DIRECTION('',(0.,1.,0.));
#1088=DIRECTION('',(1.,0.,0.));
#1089=DIRECTION('',(-1.,0.,0.));
#1090=DIRECTION('',(0.,0.,1.));
#1091=DIRECTION('',(0.,1.,0.));
#1092=DIRECTION('',(0.,1.,0.));
#1093=DIRECTION('',(1.,0.,0.));
#1094=DIRECTION('',(0.,0.,-1.));
#1095=DIRECTION('',(0.,1.,0.));
#1096=DIRECTION('',(0.,1.,0.));
#1097=DIRECTION('',(0.,1.,0.));
#1098=DIRECTION('',(0.,0.,1.));
#1099=DIRECTION('',(-1.,0.,0.));
#1100=DIRECTION('',(0.,0.,1.));
#1101=DIRECTION('',(0.,1.,0.));
#1102=DIRECTION('',(0.,1.,0.));
#1103=DIRECTION('',(0.,0.,1.));
#1104=DIRECTION('',(0.,1.,0.));
#1105=DIRECTION('',(0.,0.,1.));
#1106=DIRECTION('',(0.,1.,0.));
#1107=DIRECTION('',(0.,0.,1.));
#1108=DIRECTION('',(0.,1.,0.));
#1109=DIRECTION('',(1.,0.,0.));
#1110=DIRECTION('',(0.,0.,-1.));
#1111=DIRECTION('',(-1.,0.,0.));
#1112=DIRECTION('',(0.,0.,1.));
#1113=DIRECTION('',(0.,1.,0.));
#1114=DIRECTION('',(0.,1.,0.));
#1115=DIRECTION('',(0.,0.,1.));
#1116=DIRECTION('',(0.,1.,0.));
#1117=DIRECTION('',(0.,0.,1.));
#1118=DIRECTION('',(0.,1.,0.));
#1119=DIRECTION('',(0.,0.,1.));
#1120=DIRECTION('',(1.,0.,0.));
#1121=DIRECTION('',(0.,0.,-1.));
#1122=DIRECTION('',(0.,1.,0.));
#1123=DIRECTION('',(0.,1.,0.));
#1124=DIRECTION('',(0.,0.,1.));
#1125=CARTESIAN_POINT('',(0.,0.,0.));
#1126=CARTESIAN_POINT('',(0.0072145,0.008498,0.014659));
#1127=CARTESIAN_POINT('',(-0.00825,0.008498,0.014659));
#1128=CARTESIAN_POINT('',(-0.00825,0.0085,0.014659));
#1129=CARTESIAN_POINT('',(-0.00825,0.0108,0.014659));
#1130=CARTESIAN_POINT('',(-0.0072145,0.0085,0.014659));
#1131=CARTESIAN_POINT('',(0.00825,0.0085,0.014659));
#1132=CARTESIAN_POINT('',(0.00825,0.008498,0.014659));
#1133=CARTESIAN_POINT('',(0.00825,0.0108,0.014659));
#1134=CARTESIAN_POINT('',(0.0072145,0.0108,0.014659));
#1135=CARTESIAN_POINT('',(0.0072145,0.008498,-0.014659));
#1136=CARTESIAN_POINT('',(-0.0072145,0.0085,-0.014659));
#1137=CARTESIAN_POINT('',(-0.00825,0.0085,-0.014659));
#1138=CARTESIAN_POINT('',(0.00824999999999991,0.0085,-0.014659));
#1139=CARTESIAN_POINT('',(-0.00825,0.008498,-0.014659));
#1140=CARTESIAN_POINT('',(-0.00825,0.0108,-0.014659));
#1141=CARTESIAN_POINT('',(0.0072145,0.0108,-0.014659));
#1142=CARTESIAN_POINT('',(0.0082499999999999,0.0108,-0.014659));
#1143=CARTESIAN_POINT('',(0.0082499999999999,0.008498,-0.014659));
#1144=CARTESIAN_POINT('',(0.,0.0085,0.00525));
#1145=CARTESIAN_POINT('',(-0.0030801898,0.0085,0.0021698102));
#1146=CARTESIAN_POINT('',(-0.0030801898,0.0085,0.00125));
#1147=CARTESIAN_POINT('',(-0.004,0.0085,0.0021698102));
#1148=CARTESIAN_POINT('',(-0.004,0.0085,0.00525));
#1149=CARTESIAN_POINT('',(-0.004,0.0085,0.0083301898));
#1150=CARTESIAN_POINT('',(-0.0030801898,0.0085,0.0083301898));
#1151=CARTESIAN_POINT('',(-0.0030801898,0.0085,0.00925));
#1152=CARTESIAN_POINT('',(0.,0.0085,0.00925));
#1153=CARTESIAN_POINT('',(0.0030801898,0.0085,0.00925));
#1154=CARTESIAN_POINT('',(0.0030801898,0.0085,0.0083301898));
#1155=CARTESIAN_POINT('',(0.004,0.0085,0.0083301898));
#1156=CARTESIAN_POINT('',(0.004,0.0085,0.00525));
#1157=CARTESIAN_POINT('',(0.004,0.0085,0.0021698102));
#1158=CARTESIAN_POINT('',(0.0030801898,0.0085,0.0021698102));
#1159=CARTESIAN_POINT('',(0.0030801898,0.0085,0.00125));
#1160=CARTESIAN_POINT('',(0.,0.0085,0.00125));
#1161=CARTESIAN_POINT('',(-0.00825,0.0085,-0.017199));
#1162=CARTESIAN_POINT('',(-0.00825,0.0085,-0.019739));
#1163=CARTESIAN_POINT('',(0.00825,0.0085,-0.017199));
#1164=CARTESIAN_POINT('',(0.00825,0.0085,-0.019739));
#1165=CARTESIAN_POINT('',(0.0114545,0.0085,-0.019739));
#1166=CARTESIAN_POINT('',(0.014659,0.0085,-0.019739));
#1167=CARTESIAN_POINT('',(0.014659,0.0085,0.));
#1168=CARTESIAN_POINT('',(0.014659,0.0085,0.019739));
#1169=CARTESIAN_POINT('',(0.0114545,0.0085,0.019739));
#1170=CARTESIAN_POINT('',(0.00825,0.0085,0.019739));
#1171=CARTESIAN_POINT('',(0.00825,0.0085,0.017199));
#1172=CARTESIAN_POINT('',(-0.00825,0.0085,0.017199));
#1173=CARTESIAN_POINT('',(-0.00825,0.0085,0.019739));
#1174=CARTESIAN_POINT('',(-0.0114545,0.0085,0.019739));
#1175=CARTESIAN_POINT('',(-0.014659,0.0085,0.019739));
#1176=CARTESIAN_POINT('',(-0.014659,0.0085,0.));
#1177=CARTESIAN_POINT('',(-0.014659,0.0085,-0.019739));
#1178=CARTESIAN_POINT('',(-0.0114545,0.0085,-0.019739));
#1179=CARTESIAN_POINT('',(-5.63785129692462E-18,0.0085,-0.011254));
#1180=CARTESIAN_POINT('',(-0.0045,0.0085,-0.011254));
#1181=CARTESIAN_POINT('',(0.0045,0.0085,-0.011254));
#1182=CARTESIAN_POINT('',(-0.0045,0.0085,-0.00650000000000162));
#1183=CARTESIAN_POINT('',(-0.00469497692171128,0.0085,-0.00175));
#1184=CARTESIAN_POINT('',(-1.25767452008318E-17,0.0085,-0.00175));
#1185=CARTESIAN_POINT('',(0.00469497692171125,0.0085,-0.00175));
#1186=CARTESIAN_POINT('',(0.0045,0.0085,-0.00650000000000091));
#1187=CARTESIAN_POINT('',(-0.0092,0.0085,0.00525));
#1188=CARTESIAN_POINT('',(-0.0092,0.0085,-0.0092));
#1189=CARTESIAN_POINT('',(-0.0092,0.0085,-0.012754));
#1190=CARTESIAN_POINT('',(0.,0.0085,-0.012754));
#1191=CARTESIAN_POINT('',(-0.011,0.0085,-0.012754));
#1192=CARTESIAN_POINT('',(-0.011,0.0085,-0.011));
#1193=CARTESIAN_POINT('',(-0.012754,0.0085,-0.011));
#1194=CARTESIAN_POINT('',(-0.012754,0.0085,0.));
#1195=CARTESIAN_POINT('',(-0.012754,0.0085,-0.0092));
#1196=CARTESIAN_POINT('',(0.,0.0085,-0.0092));
#1197=CARTESIAN_POINT('',(0.,0.0085,-0.0092));
#1198=CARTESIAN_POINT('',(0.012754,0.0085,-0.0092));
#1199=CARTESIAN_POINT('',(0.0092,0.0085,-0.0092));
#1200=CARTESIAN_POINT('',(0.012754,0.0085,0.));
#1201=CARTESIAN_POINT('',(0.012754,0.0085,-0.011));
#1202=CARTESIAN_POINT('',(0.011,0.0085,-0.011));
#1203=CARTESIAN_POINT('',(0.011,0.0085,-0.012754));
#1204=CARTESIAN_POINT('',(0.,0.0085,-0.012754));
#1205=CARTESIAN_POINT('',(0.0092,0.0085,-0.012754));
#1206=CARTESIAN_POINT('',(0.0092,0.0085,0.00525));
#1207=CARTESIAN_POINT('',(0.0114545,0.0085,0.019739));
#1208=CARTESIAN_POINT('',(0.0114545,0.0085,0.020882));
#1209=CARTESIAN_POINT('',(0.0114545,0.0085,-0.019739));
#1210=CARTESIAN_POINT('',(0.0114545,0.0085,-0.018596));
#1211=CARTESIAN_POINT('',(-0.0114545,0.0085,-0.019739));
#1212=CARTESIAN_POINT('',(-0.0114545,0.0085,-0.018596));
#1213=CARTESIAN_POINT('',(-0.0114545,0.0085,0.019739));
#1214=CARTESIAN_POINT('',(-0.0114545,0.0085,0.020882));
#1215=CARTESIAN_POINT('',(0.,0.0108,0.));
#1216=CARTESIAN_POINT('',(0.00825,0.0108,-0.017199));
#1217=CARTESIAN_POINT('',(0.00825,0.0108,-0.019739));
#1218=CARTESIAN_POINT('',(-0.00825,0.0108,-0.017199));
#1219=CARTESIAN_POINT('',(-0.00825,0.0108,-0.019739));
#1220=CARTESIAN_POINT('',(-0.0114545,0.0108,-0.019739));
#1221=CARTESIAN_POINT('',(-0.014659,0.0108,-0.019739));
#1222=CARTESIAN_POINT('',(-0.014659,0.0108,0.));
#1223=CARTESIAN_POINT('',(-0.014659,0.0108,0.019739));
#1224=CARTESIAN_POINT('',(-0.0114545,0.0108,0.019739));
#1225=CARTESIAN_POINT('',(-0.00825,0.0108,0.019739));
#1226=CARTESIAN_POINT('',(-0.00825,0.0108,0.017199));
#1227=CARTESIAN_POINT('',(0.00825,0.0108,0.017199));
#1228=CARTESIAN_POINT('',(0.00825,0.0108,0.019739));
#1229=CARTESIAN_POINT('',(0.0114545,0.0108,0.019739));
#1230=CARTESIAN_POINT('',(0.014659,0.0108,0.019739));
#1231=CARTESIAN_POINT('',(0.014659,0.0108,0.));
#1232=CARTESIAN_POINT('',(0.014659,0.0108,-0.019739));
#1233=CARTESIAN_POINT('',(0.0114545,0.0108,-0.019739));
#1234=CARTESIAN_POINT('',(0.0045,0.0108,-0.00650000000000091));
#1235=CARTESIAN_POINT('',(0.00469497692171125,0.0108,-0.00175));
#1236=CARTESIAN_POINT('',(0.0045,0.0108,-0.011254));
#1237=CARTESIAN_POINT('',(-1.25767452008318E-17,0.0108,-0.00175));
#1238=CARTESIAN_POINT('',(-0.00469497692171128,0.0108,-0.00175));
#1239=CARTESIAN_POINT('',(-0.0045,0.0108,-0.00650000000000162));
#1240=CARTESIAN_POINT('',(-0.0045,0.0108,-0.011254));
#1241=CARTESIAN_POINT('',(-5.63785129692462E-18,0.0108,-0.011254));
#1242=CARTESIAN_POINT('',(0.004,0.0108,0.00525));
#1243=CARTESIAN_POINT('',(0.004,0.0108,0.0083301898));
#1244=CARTESIAN_POINT('',(0.004,0.0108,0.0021698102));
#1245=CARTESIAN_POINT('',(0.0030801898,0.0108,0.0083301898));
#1246=CARTESIAN_POINT('',(0.0030801898,0.0108,0.00925));
#1247=CARTESIAN_POINT('',(0.,0.0108,0.00925));
#1248=CARTESIAN_POINT('',(-0.0030801898,0.0108,0.00925));
#1249=CARTESIAN_POINT('',(-0.0030801898,0.0108,0.0083301898));
#1250=CARTESIAN_POINT('',(-0.004,0.0108,0.0083301898));
#1251=CARTESIAN_POINT('',(-0.004,0.0108,0.00525));
#1252=CARTESIAN_POINT('',(-0.004,0.0108,0.0021698102));
#1253=CARTESIAN_POINT('',(-0.0030801898,0.0108,0.0021698102));
#1254=CARTESIAN_POINT('',(-0.0030801898,0.0108,0.00125));
#1255=CARTESIAN_POINT('',(0.,0.0108,0.00125));
#1256=CARTESIAN_POINT('',(0.0030801898,0.0108,0.00125));
#1257=CARTESIAN_POINT('',(0.0030801898,0.0108,0.0021698102));
#1258=CARTESIAN_POINT('',(0.0114545,0.0108,0.019739));
#1259=CARTESIAN_POINT('',(0.0114545,0.0108,0.020882));
#1260=CARTESIAN_POINT('',(0.0114545,0.0108,-0.019739));
#1261=CARTESIAN_POINT('',(0.0114545,0.0108,-0.018596));
#1262=CARTESIAN_POINT('',(-0.0114545,0.0108,-0.019739));
#1263=CARTESIAN_POINT('',(-0.0114545,0.0108,-0.018596));
#1264=CARTESIAN_POINT('',(-0.0114545,0.0108,0.019739));
#1265=CARTESIAN_POINT('',(-0.0114545,0.0108,0.020882));
#1266=CARTESIAN_POINT('',(0.012754,0.008498,0.));
#1267=CARTESIAN_POINT('',(0.012754,0.000998,-0.0092));
#1268=CARTESIAN_POINT('',(0.012754,0.001,-0.0092));
#1269=CARTESIAN_POINT('',(0.012754,0.001,0.));
#1270=CARTESIAN_POINT('',(0.012754,0.001,-0.011));
#1271=CARTESIAN_POINT('',(0.012754,0.008498,-0.011));
#1272=CARTESIAN_POINT('',(0.011,0.008498,-0.011));
#1273=CARTESIAN_POINT('',(0.011,0.001,-0.011));
#1274=CARTESIAN_POINT('',(0.011,0.001,-0.012754));
#1275=CARTESIAN_POINT('',(0.011,0.008498,-0.012754));
#1276=CARTESIAN_POINT('',(0.,0.008498,-0.012754));
#1277=CARTESIAN_POINT('',(0.,0.001,-0.012754));
#1278=CARTESIAN_POINT('',(0.0092,0.001,-0.012754));
#1279=CARTESIAN_POINT('',(0.0092,0.000998,-0.012754));
#1280=CARTESIAN_POINT('',(0.,0.008498,-0.012754));
#1281=CARTESIAN_POINT('',(-0.0092,0.000998,-0.012754));
#1282=CARTESIAN_POINT('',(-0.0092,0.001,-0.012754));
#1283=CARTESIAN_POINT('',(0.,0.001,-0.012754));
#1284=CARTESIAN_POINT('',(-0.011,0.001,-0.012754));
#1285=CARTESIAN_POINT('',(-0.011,0.008498,-0.012754));
#1286=CARTESIAN_POINT('',(-0.011,0.008498,-0.011));
#1287=CARTESIAN_POINT('',(-0.011,0.001,-0.011));
#1288=CARTESIAN_POINT('',(-0.012754,0.001,-0.011));
#1289=CARTESIAN_POINT('',(-0.012754,0.008498,-0.011));
#1290=CARTESIAN_POINT('',(-0.012754,0.008498,0.));
#1291=CARTESIAN_POINT('',(-0.012754,0.001,0.));
#1292=CARTESIAN_POINT('',(-0.012754,0.001,-0.0092));
#1293=CARTESIAN_POINT('',(-0.012754,0.000998,-0.0092));
#1294=CARTESIAN_POINT('',(-5.63785129692462E-18,0.008498,-0.011254));
#1295=CARTESIAN_POINT('',(-0.0045,0.008498,-0.011254));
#1296=CARTESIAN_POINT('',(0.0045,0.008498,-0.011254));
#1297=CARTESIAN_POINT('',(-0.0045,0.008498,-0.00650000000000162));
#1298=CARTESIAN_POINT('',(-0.00469497692171128,0.008498,-0.00175));
#1299=CARTESIAN_POINT('',(0.0045,0.008498,-0.00650000000000091));
#1300=CARTESIAN_POINT('',(0.00469497692171125,0.008498,-0.00175));
#1301=CARTESIAN_POINT('',(0.,0.008498,0.00125));
#1302=CARTESIAN_POINT('',(-0.0030801898,0.0085,0.00125));
#1303=CARTESIAN_POINT('',(0.0030801898,0.0108,0.00125));
#1304=CARTESIAN_POINT('',(-0.004,0.008498,0.00525));
#1305=CARTESIAN_POINT('',(-0.004,0.0085,0.0083301898));
#1306=CARTESIAN_POINT('',(-0.004,0.0108,0.0021698102));
#1307=CARTESIAN_POINT('',(0.004,0.008498,0.00525));
#1308=CARTESIAN_POINT('',(0.004,0.0108,0.0083301898));
#1309=CARTESIAN_POINT('',(0.004,0.0085,0.0021698102));
#1310=CARTESIAN_POINT('',(-1.25767452008318E-17,0.008498,-0.00175));
#1311=CARTESIAN_POINT('',(0.,0.008498,0.00925));
#1312=CARTESIAN_POINT('',(0.0030801898,0.0085,0.00925));
#1313=CARTESIAN_POINT('',(-0.0030801898,0.0108,0.00925));
#1314=CARTESIAN_POINT('',(0.0030801898,0.008498,0.0083301898));
#1315=CARTESIAN_POINT('',(-0.0030801898,0.008498,0.0083301898));
#1316=CARTESIAN_POINT('',(-0.0030801898,0.008498,0.0021698102));
#1317=CARTESIAN_POINT('',(0.0030801898,0.008498,0.0021698102));
#1318=CARTESIAN_POINT('',(-0.0092,0.000998,-0.011727));
#1319=CARTESIAN_POINT('',(-0.0092,0.000998,-0.0092));
#1320=CARTESIAN_POINT('',(-0.0092,0.001,-0.0092));
#1321=CARTESIAN_POINT('',(-0.0092,0.001,-0.011727));
#1322=CARTESIAN_POINT('',(-0.011727,0.000998,-0.0092));
#1323=CARTESIAN_POINT('',(-0.011727,0.001,-0.0092));
#1324=CARTESIAN_POINT('',(0.,0.001,0.));
#1325=CARTESIAN_POINT('',(0.011727,0.000998,-0.0092));
#1326=CARTESIAN_POINT('',(0.0092,0.000998,-0.0092));
#1327=CARTESIAN_POINT('',(0.0092,0.001,-0.0092));
#1328=CARTESIAN_POINT('',(0.011727,0.001,-0.0092));
#1329=CARTESIAN_POINT('',(0.0092,0.000998,-0.011727));
#1330=CARTESIAN_POINT('',(0.0092,0.001,-0.011727));
#1331=CARTESIAN_POINT('',(0.,0.001,0.));
#1332=CARTESIAN_POINT('',(-0.014659,0.008498,0.));
#1333=CARTESIAN_POINT('',(-0.014659,0.008498,0.019739));
#1334=CARTESIAN_POINT('',(-0.014659,0.008498,-0.019739));
#1335=CARTESIAN_POINT('',(0.014659,0.008498,0.));
#1336=CARTESIAN_POINT('',(0.014659,0.008498,-0.019739));
#1337=CARTESIAN_POINT('',(0.014659,0.008498,0.019739));
#1338=CARTESIAN_POINT('',(0.0114545,0.008498,-0.019739));
#1339=CARTESIAN_POINT('',(0.00825,0.008498,-0.017199));
#1340=CARTESIAN_POINT('',(0.00825,0.008498,-0.019739));
#1341=CARTESIAN_POINT('',(0.0114545,0.008498,-0.019739));
#1342=CARTESIAN_POINT('',(-0.0114545,0.008498,-0.019739));
#1343=CARTESIAN_POINT('',(-0.0114545,0.008498,-0.019739));
#1344=CARTESIAN_POINT('',(-0.00825,0.008498,-0.019739));
#1345=CARTESIAN_POINT('',(-0.00825,0.008498,-0.017199));
#1346=CARTESIAN_POINT('',(0.00825,0.008498,0.017199));
#1347=CARTESIAN_POINT('',(0.00825,0.008498,0.019739));
#1348=CARTESIAN_POINT('',(0.0114545,0.008498,0.019739));
#1349=CARTESIAN_POINT('',(0.0114545,0.008498,0.019739));
#1350=CARTESIAN_POINT('',(-0.0114545,0.008498,0.019739));
#1351=CARTESIAN_POINT('',(-0.00825,0.008498,0.017199));
#1352=CARTESIAN_POINT('',(-0.00825,0.008498,0.019739));
#1353=CARTESIAN_POINT('',(-0.0114545,0.008498,0.019739));
#1354=MECHANICAL_DESIGN_GEOMETRIC_PRESENTATION_REPRESENTATION('',(#811),
#1355);
#1355=(
GEOMETRIC_REPRESENTATION_CONTEXT(3)
GLOBAL_UNCERTAINTY_ASSIGNED_CONTEXT((#1356))
GLOBAL_UNIT_ASSIGNED_CONTEXT((#1359,#1358,#1357))
REPRESENTATION_CONTEXT('Part 2','TOP_LEVEL_ASSEMBLY_PART')
);
#1356=UNCERTAINTY_MEASURE_WITH_UNIT(LENGTH_MEASURE(1.E-8),#1359,
'DISTANCE_ACCURACY_VALUE','Maximum Tolerance applied to model');
#1357=(
NAMED_UNIT(*)
SI_UNIT($,.STERADIAN.)
SOLID_ANGLE_UNIT()
);
#1358=(
NAMED_UNIT(*)
PLANE_ANGLE_UNIT()
SI_UNIT($,.RADIAN.)
);
#1359=(
LENGTH_UNIT()
NAMED_UNIT(*)
SI_UNIT($,.METRE.)
);
#1360=PRODUCT_DEFINITION_SHAPE('','',#1361);
#1361=PRODUCT_DEFINITION('','',#1363,#1362);
#1362=PRODUCT_DEFINITION_CONTEXT('',#1369,'design');
#1363=PRODUCT_DEFINITION_FORMATION_WITH_SPECIFIED_SOURCE('','',#1365,
 .NOT_KNOWN.);
#1364=PRODUCT_RELATED_PRODUCT_CATEGORY('','',(#1365));
#1365=PRODUCT('Part 2','Part 2','Part 2',(#1367));
#1366=PRODUCT_CATEGORY('','');
#1367=PRODUCT_CONTEXT('',#1369,'mechanical');
#1368=APPLICATION_PROTOCOL_DEFINITION('international standard',
'ap242_managed_model_based_3d_engineering',2020,#1369);
#1369=APPLICATION_CONTEXT('managed model based 3d engineering');
ENDSEC;
END-ISO-10303-21;
