ISO-10303-21;
HEADER;
/* Generated by software containing ST-Developer
 * from STEP Tools, Inc. (www.steptools.com) 
 */
/* OPTION: using custom renumber hook */

FILE_DESCRIPTION(
/* description */ ('STEP AP242 Edition 2',
'CAx-IF Rec.Pracs.---Representation and Presentation of Product Manufa
cturing Information (PMI)---4.0---2014-10-13',
'CAx-IF Rec.Pracs.---3D Tessellated Geometry---0.4---2014-09-14','2;1',
'CAx-IF Rec.Pracs.---User Defined Attributes---1.5---2016-08-15'),
/* implementation_level */ '2;1');

FILE_NAME(
/* name */ 'xt30_male_vertikal_mount - XT30_Rahmen_1-Fach',
/* time_stamp */ '2026-06-05T01:20:58Z',
/* author */ (''),
/* organization */ (''),
/* preprocessor_version */ 'ST-DEVELOPER v20',
/* originating_system */ 'ONSHAPE BY PTC INC, 1.215',
/* authorisation */ '  ');

FILE_SCHEMA (('AP242_MANAGED_MODEL_BASED_3D_ENGINEERING_MIM_LF { 1 0 10303 442 3 1 4 }'));
ENDSEC;

DATA;
#10=SHAPE_REPRESENTATION_RELATIONSHIP('','',#881,#11);
#11=ADVANCED_BREP_SHAPE_REPRESENTATION('',(#879),#1457);
#12=TOROIDAL_SURFACE('',#933,0.00227974151416981,0.00128774151416981);
#13=TOROIDAL_SURFACE('',#942,0.00227974151416981,0.00128774151416981);
#14=TOROIDAL_SURFACE('',#943,0.00227974151416981,0.00128774151416981);
#15=TOROIDAL_SURFACE('',#947,0.00227974151416981,0.00128774151416981);
#16=ELLIPSE('',#891,0.0014869558197052,0.00128774151416981);
#17=ELLIPSE('',#894,0.00148695581970516,0.00128774151416981);
#18=ELLIPSE('',#939,0.00148695581970516,0.00128774151416981);
#19=ELLIPSE('',#941,0.0014869558197052,0.00128774151416981);
#20=CYLINDRICAL_SURFACE('',#890,0.00128774151416981);
#21=CYLINDRICAL_SURFACE('',#914,0.006);
#22=CYLINDRICAL_SURFACE('',#916,0.006);
#23=CYLINDRICAL_SURFACE('',#919,0.001143);
#24=CYLINDRICAL_SURFACE('',#920,0.001143);
#25=CYLINDRICAL_SURFACE('',#924,0.000992);
#26=CYLINDRICAL_SURFACE('',#927,0.000992);
#27=CYLINDRICAL_SURFACE('',#929,0.000992);
#28=CYLINDRICAL_SURFACE('',#931,0.000992);
#29=CYLINDRICAL_SURFACE('',#936,0.00128774151416981);
#30=CYLINDRICAL_SURFACE('',#938,0.00128774151416981);
#31=CYLINDRICAL_SURFACE('',#945,0.00128774151416981);
#32=CIRCLE('',#884,0.00227974151416981);
#33=CIRCLE('',#885,0.00227974151416981);
#34=CIRCLE('',#886,0.00227974151416981);
#35=CIRCLE('',#887,0.00227974151416981);
#36=CIRCLE('',#888,0.006);
#37=CIRCLE('',#889,0.006);
#38=CIRCLE('',#892,0.00128774151416981);
#39=CIRCLE('',#893,0.00128774151416981);
#40=CIRCLE('',#896,0.000992);
#41=CIRCLE('',#897,0.000992);
#42=CIRCLE('',#898,0.000992);
#43=CIRCLE('',#899,0.000992);
#44=CIRCLE('',#905,0.001143);
#45=CIRCLE('',#908,0.006);
#46=CIRCLE('',#909,0.006);
#47=CIRCLE('',#910,0.001143);
#48=CIRCLE('',#911,0.001143);
#49=CIRCLE('',#913,0.001143);
#50=CIRCLE('',#925,0.000992);
#51=CIRCLE('',#928,0.000992);
#52=CIRCLE('',#930,0.000992);
#53=CIRCLE('',#932,0.000992);
#54=CIRCLE('',#934,0.00128774151416981);
#55=CIRCLE('',#935,0.00128774151416981);
#56=CIRCLE('',#937,0.00128774151416981);
#57=CIRCLE('',#940,0.00128774151416981);
#58=CIRCLE('',#944,0.00128774151416981);
#59=CIRCLE('',#946,0.00128774151416981);
#60=ORIENTED_EDGE('',*,*,#304,.F.);
#61=ORIENTED_EDGE('',*,*,#305,.F.);
#62=ORIENTED_EDGE('',*,*,#306,.F.);
#63=ORIENTED_EDGE('',*,*,#307,.F.);
#64=ORIENTED_EDGE('',*,*,#308,.F.);
#65=ORIENTED_EDGE('',*,*,#309,.T.);
#66=ORIENTED_EDGE('',*,*,#310,.T.);
#67=ORIENTED_EDGE('',*,*,#311,.T.);
#68=ORIENTED_EDGE('',*,*,#312,.T.);
#69=ORIENTED_EDGE('',*,*,#313,.T.);
#70=ORIENTED_EDGE('',*,*,#314,.T.);
#71=ORIENTED_EDGE('',*,*,#315,.T.);
#72=ORIENTED_EDGE('',*,*,#316,.T.);
#73=ORIENTED_EDGE('',*,*,#317,.T.);
#74=ORIENTED_EDGE('',*,*,#318,.T.);
#75=ORIENTED_EDGE('',*,*,#319,.T.);
#76=ORIENTED_EDGE('',*,*,#320,.T.);
#77=ORIENTED_EDGE('',*,*,#321,.T.);
#78=ORIENTED_EDGE('',*,*,#322,.T.);
#79=ORIENTED_EDGE('',*,*,#323,.T.);
#80=ORIENTED_EDGE('',*,*,#324,.T.);
#81=ORIENTED_EDGE('',*,*,#325,.T.);
#82=ORIENTED_EDGE('',*,*,#326,.T.);
#83=ORIENTED_EDGE('',*,*,#327,.T.);
#84=ORIENTED_EDGE('',*,*,#328,.F.);
#85=ORIENTED_EDGE('',*,*,#313,.F.);
#86=ORIENTED_EDGE('',*,*,#329,.T.);
#87=ORIENTED_EDGE('',*,*,#330,.F.);
#88=ORIENTED_EDGE('',*,*,#331,.F.);
#89=ORIENTED_EDGE('',*,*,#319,.F.);
#90=ORIENTED_EDGE('',*,*,#332,.F.);
#91=ORIENTED_EDGE('',*,*,#333,.F.);
#92=ORIENTED_EDGE('',*,*,#334,.T.);
#93=ORIENTED_EDGE('',*,*,#335,.T.);
#94=ORIENTED_EDGE('',*,*,#336,.T.);
#95=ORIENTED_EDGE('',*,*,#337,.T.);
#96=ORIENTED_EDGE('',*,*,#338,.T.);
#97=ORIENTED_EDGE('',*,*,#339,.T.);
#98=ORIENTED_EDGE('',*,*,#340,.F.);
#99=ORIENTED_EDGE('',*,*,#341,.T.);
#100=ORIENTED_EDGE('',*,*,#342,.T.);
#101=ORIENTED_EDGE('',*,*,#343,.T.);
#102=ORIENTED_EDGE('',*,*,#344,.F.);
#103=ORIENTED_EDGE('',*,*,#345,.T.);
#104=ORIENTED_EDGE('',*,*,#346,.T.);
#105=ORIENTED_EDGE('',*,*,#347,.T.);
#106=ORIENTED_EDGE('',*,*,#336,.F.);
#107=ORIENTED_EDGE('',*,*,#348,.T.);
#108=ORIENTED_EDGE('',*,*,#349,.F.);
#109=ORIENTED_EDGE('',*,*,#350,.F.);
#110=ORIENTED_EDGE('',*,*,#334,.F.);
#111=ORIENTED_EDGE('',*,*,#351,.T.);
#112=ORIENTED_EDGE('',*,*,#352,.F.);
#113=ORIENTED_EDGE('',*,*,#353,.F.);
#114=ORIENTED_EDGE('',*,*,#337,.F.);
#115=ORIENTED_EDGE('',*,*,#350,.T.);
#116=ORIENTED_EDGE('',*,*,#354,.F.);
#117=ORIENTED_EDGE('',*,*,#355,.T.);
#118=ORIENTED_EDGE('',*,*,#356,.T.);
#119=ORIENTED_EDGE('',*,*,#339,.F.);
#120=ORIENTED_EDGE('',*,*,#357,.T.);
#121=ORIENTED_EDGE('',*,*,#358,.F.);
#122=ORIENTED_EDGE('',*,*,#359,.F.);
#123=ORIENTED_EDGE('',*,*,#351,.F.);
#124=ORIENTED_EDGE('',*,*,#360,.F.);
#125=ORIENTED_EDGE('',*,*,#361,.T.);
#126=ORIENTED_EDGE('',*,*,#362,.T.);
#127=ORIENTED_EDGE('',*,*,#363,.T.);
#128=ORIENTED_EDGE('',*,*,#364,.T.);
#129=ORIENTED_EDGE('',*,*,#365,.T.);
#130=ORIENTED_EDGE('',*,*,#366,.T.);
#131=ORIENTED_EDGE('',*,*,#335,.F.);
#132=ORIENTED_EDGE('',*,*,#353,.T.);
#133=ORIENTED_EDGE('',*,*,#367,.F.);
#134=ORIENTED_EDGE('',*,*,#348,.F.);
#135=ORIENTED_EDGE('',*,*,#368,.F.);
#136=ORIENTED_EDGE('',*,*,#369,.F.);
#137=ORIENTED_EDGE('',*,*,#370,.F.);
#138=ORIENTED_EDGE('',*,*,#371,.F.);
#139=ORIENTED_EDGE('',*,*,#372,.T.);
#140=ORIENTED_EDGE('',*,*,#354,.T.);
#141=ORIENTED_EDGE('',*,*,#349,.T.);
#142=ORIENTED_EDGE('',*,*,#367,.T.);
#143=ORIENTED_EDGE('',*,*,#352,.T.);
#144=ORIENTED_EDGE('',*,*,#359,.T.);
#145=ORIENTED_EDGE('',*,*,#373,.F.);
#146=ORIENTED_EDGE('',*,*,#374,.F.);
#147=ORIENTED_EDGE('',*,*,#375,.F.);
#148=ORIENTED_EDGE('',*,*,#376,.F.);
#149=ORIENTED_EDGE('',*,*,#377,.F.);
#150=ORIENTED_EDGE('',*,*,#378,.F.);
#151=ORIENTED_EDGE('',*,*,#379,.F.);
#152=ORIENTED_EDGE('',*,*,#380,.F.);
#153=ORIENTED_EDGE('',*,*,#381,.F.);
#154=ORIENTED_EDGE('',*,*,#368,.T.);
#155=ORIENTED_EDGE('',*,*,#382,.T.);
#156=ORIENTED_EDGE('',*,*,#383,.F.);
#157=ORIENTED_EDGE('',*,*,#325,.F.);
#158=ORIENTED_EDGE('',*,*,#384,.T.);
#159=ORIENTED_EDGE('',*,*,#385,.F.);
#160=ORIENTED_EDGE('',*,*,#371,.T.);
#161=ORIENTED_EDGE('',*,*,#386,.T.);
#162=ORIENTED_EDGE('',*,*,#387,.F.);
#163=ORIENTED_EDGE('',*,*,#326,.F.);
#164=ORIENTED_EDGE('',*,*,#383,.T.);
#165=ORIENTED_EDGE('',*,*,#382,.F.);
#166=ORIENTED_EDGE('',*,*,#370,.T.);
#167=ORIENTED_EDGE('',*,*,#388,.T.);
#168=ORIENTED_EDGE('',*,*,#389,.F.);
#169=ORIENTED_EDGE('',*,*,#327,.F.);
#170=ORIENTED_EDGE('',*,*,#387,.T.);
#171=ORIENTED_EDGE('',*,*,#386,.F.);
#172=ORIENTED_EDGE('',*,*,#369,.T.);
#173=ORIENTED_EDGE('',*,*,#385,.T.);
#174=ORIENTED_EDGE('',*,*,#384,.F.);
#175=ORIENTED_EDGE('',*,*,#324,.F.);
#176=ORIENTED_EDGE('',*,*,#389,.T.);
#177=ORIENTED_EDGE('',*,*,#388,.F.);
#178=ORIENTED_EDGE('',*,*,#338,.F.);
#179=ORIENTED_EDGE('',*,*,#356,.F.);
#180=ORIENTED_EDGE('',*,*,#355,.F.);
#181=ORIENTED_EDGE('',*,*,#372,.F.);
#182=ORIENTED_EDGE('',*,*,#358,.T.);
#183=ORIENTED_EDGE('',*,*,#357,.F.);
#184=ORIENTED_EDGE('',*,*,#375,.T.);
#185=ORIENTED_EDGE('',*,*,#373,.T.);
#186=ORIENTED_EDGE('',*,*,#360,.T.);
#187=ORIENTED_EDGE('',*,*,#374,.T.);
#188=ORIENTED_EDGE('',*,*,#346,.F.);
#189=ORIENTED_EDGE('',*,*,#390,.F.);
#190=ORIENTED_EDGE('',*,*,#391,.T.);
#191=ORIENTED_EDGE('',*,*,#392,.T.);
#192=ORIENTED_EDGE('',*,*,#342,.F.);
#193=ORIENTED_EDGE('',*,*,#393,.F.);
#194=ORIENTED_EDGE('',*,*,#394,.T.);
#195=ORIENTED_EDGE('',*,*,#395,.T.);
#196=ORIENTED_EDGE('',*,*,#344,.T.);
#197=ORIENTED_EDGE('',*,*,#396,.F.);
#198=ORIENTED_EDGE('',*,*,#397,.T.);
#199=ORIENTED_EDGE('',*,*,#398,.T.);
#200=ORIENTED_EDGE('',*,*,#347,.F.);
#201=ORIENTED_EDGE('',*,*,#392,.F.);
#202=ORIENTED_EDGE('',*,*,#399,.T.);
#203=ORIENTED_EDGE('',*,*,#400,.T.);
#204=ORIENTED_EDGE('',*,*,#340,.T.);
#205=ORIENTED_EDGE('',*,*,#400,.F.);
#206=ORIENTED_EDGE('',*,*,#330,.T.);
#207=ORIENTED_EDGE('',*,*,#401,.T.);
#208=ORIENTED_EDGE('',*,*,#341,.F.);
#209=ORIENTED_EDGE('',*,*,#401,.F.);
#210=ORIENTED_EDGE('',*,*,#402,.T.);
#211=ORIENTED_EDGE('',*,*,#393,.T.);
#212=ORIENTED_EDGE('',*,*,#343,.F.);
#213=ORIENTED_EDGE('',*,*,#395,.F.);
#214=ORIENTED_EDGE('',*,*,#403,.T.);
#215=ORIENTED_EDGE('',*,*,#396,.T.);
#216=ORIENTED_EDGE('',*,*,#345,.F.);
#217=ORIENTED_EDGE('',*,*,#398,.F.);
#218=ORIENTED_EDGE('',*,*,#404,.T.);
#219=ORIENTED_EDGE('',*,*,#390,.T.);
#220=ORIENTED_EDGE('',*,*,#405,.F.);
#221=ORIENTED_EDGE('',*,*,#403,.F.);
#222=ORIENTED_EDGE('',*,*,#406,.F.);
#223=ORIENTED_EDGE('',*,*,#310,.F.);
#224=ORIENTED_EDGE('',*,*,#406,.T.);
#225=ORIENTED_EDGE('',*,*,#394,.F.);
#226=ORIENTED_EDGE('',*,*,#407,.F.);
#227=ORIENTED_EDGE('',*,*,#311,.F.);
#228=ORIENTED_EDGE('',*,*,#408,.T.);
#229=ORIENTED_EDGE('',*,*,#409,.T.);
#230=ORIENTED_EDGE('',*,*,#323,.F.);
#231=ORIENTED_EDGE('',*,*,#410,.F.);
#232=ORIENTED_EDGE('',*,*,#397,.F.);
#233=ORIENTED_EDGE('',*,*,#405,.T.);
#234=ORIENTED_EDGE('',*,*,#309,.F.);
#235=ORIENTED_EDGE('',*,*,#411,.T.);
#236=ORIENTED_EDGE('',*,*,#407,.T.);
#237=ORIENTED_EDGE('',*,*,#402,.F.);
#238=ORIENTED_EDGE('',*,*,#329,.F.);
#239=ORIENTED_EDGE('',*,*,#312,.F.);
#240=ORIENTED_EDGE('',*,*,#410,.T.);
#241=ORIENTED_EDGE('',*,*,#322,.F.);
#242=ORIENTED_EDGE('',*,*,#412,.F.);
#243=ORIENTED_EDGE('',*,*,#404,.F.);
#244=ORIENTED_EDGE('',*,*,#412,.T.);
#245=ORIENTED_EDGE('',*,*,#321,.F.);
#246=ORIENTED_EDGE('',*,*,#413,.F.);
#247=ORIENTED_EDGE('',*,*,#391,.F.);
#248=ORIENTED_EDGE('',*,*,#331,.T.);
#249=ORIENTED_EDGE('',*,*,#399,.F.);
#250=ORIENTED_EDGE('',*,*,#413,.T.);
#251=ORIENTED_EDGE('',*,*,#320,.F.);
#252=ORIENTED_EDGE('',*,*,#333,.T.);
#253=ORIENTED_EDGE('',*,*,#414,.T.);
#254=ORIENTED_EDGE('',*,*,#363,.F.);
#255=ORIENTED_EDGE('',*,*,#415,.F.);
#256=ORIENTED_EDGE('',*,*,#416,.T.);
#257=ORIENTED_EDGE('',*,*,#361,.F.);
#258=ORIENTED_EDGE('',*,*,#417,.F.);
#259=ORIENTED_EDGE('',*,*,#315,.F.);
#260=ORIENTED_EDGE('',*,*,#328,.T.);
#261=ORIENTED_EDGE('',*,*,#415,.T.);
#262=ORIENTED_EDGE('',*,*,#362,.F.);
#263=ORIENTED_EDGE('',*,*,#416,.F.);
#264=ORIENTED_EDGE('',*,*,#314,.F.);
#265=ORIENTED_EDGE('',*,*,#418,.T.);
#266=ORIENTED_EDGE('',*,*,#364,.F.);
#267=ORIENTED_EDGE('',*,*,#414,.F.);
#268=ORIENTED_EDGE('',*,*,#332,.T.);
#269=ORIENTED_EDGE('',*,*,#318,.F.);
#270=ORIENTED_EDGE('',*,*,#419,.T.);
#271=ORIENTED_EDGE('',*,*,#365,.F.);
#272=ORIENTED_EDGE('',*,*,#418,.F.);
#273=ORIENTED_EDGE('',*,*,#317,.F.);
#274=ORIENTED_EDGE('',*,*,#417,.T.);
#275=ORIENTED_EDGE('',*,*,#366,.F.);
#276=ORIENTED_EDGE('',*,*,#419,.F.);
#277=ORIENTED_EDGE('',*,*,#316,.F.);
#278=ORIENTED_EDGE('',*,*,#420,.T.);
#279=ORIENTED_EDGE('',*,*,#379,.T.);
#280=ORIENTED_EDGE('',*,*,#421,.F.);
#281=ORIENTED_EDGE('',*,*,#408,.F.);
#282=ORIENTED_EDGE('',*,*,#306,.T.);
#283=ORIENTED_EDGE('',*,*,#422,.T.);
#284=ORIENTED_EDGE('',*,*,#376,.T.);
#285=ORIENTED_EDGE('',*,*,#423,.F.);
#286=ORIENTED_EDGE('',*,*,#305,.T.);
#287=ORIENTED_EDGE('',*,*,#424,.T.);
#288=ORIENTED_EDGE('',*,*,#377,.T.);
#289=ORIENTED_EDGE('',*,*,#422,.F.);
#290=ORIENTED_EDGE('',*,*,#304,.T.);
#291=ORIENTED_EDGE('',*,*,#409,.F.);
#292=ORIENTED_EDGE('',*,*,#421,.T.);
#293=ORIENTED_EDGE('',*,*,#378,.T.);
#294=ORIENTED_EDGE('',*,*,#424,.F.);
#295=ORIENTED_EDGE('',*,*,#308,.T.);
#296=ORIENTED_EDGE('',*,*,#425,.T.);
#297=ORIENTED_EDGE('',*,*,#380,.T.);
#298=ORIENTED_EDGE('',*,*,#420,.F.);
#299=ORIENTED_EDGE('',*,*,#411,.F.);
#300=ORIENTED_EDGE('',*,*,#307,.T.);
#301=ORIENTED_EDGE('',*,*,#423,.T.);
#302=ORIENTED_EDGE('',*,*,#381,.T.);
#303=ORIENTED_EDGE('',*,*,#425,.F.);
#304=EDGE_CURVE('',#426,#427,#508,.T.);
#305=EDGE_CURVE('',#428,#426,#509,.T.);
#306=EDGE_CURVE('',#429,#428,#510,.T.);
#307=EDGE_CURVE('',#430,#429,#511,.T.);
#308=EDGE_CURVE('',#431,#430,#512,.T.);
#309=EDGE_CURVE('',#431,#432,#513,.T.);
#310=EDGE_CURVE('',#432,#433,#32,.F.);
#311=EDGE_CURVE('',#433,#434,#514,.T.);
#312=EDGE_CURVE('',#434,#435,#33,.F.);
#313=EDGE_CURVE('',#435,#436,#515,.T.);
#314=EDGE_CURVE('',#436,#437,#516,.T.);
#315=EDGE_CURVE('',#437,#438,#517,.T.);
#316=EDGE_CURVE('',#438,#439,#518,.T.);
#317=EDGE_CURVE('',#439,#440,#519,.T.);
#318=EDGE_CURVE('',#440,#441,#520,.T.);
#319=EDGE_CURVE('',#441,#442,#521,.T.);
#320=EDGE_CURVE('',#442,#443,#34,.F.);
#321=EDGE_CURVE('',#443,#444,#522,.T.);
#322=EDGE_CURVE('',#444,#445,#35,.F.);
#323=EDGE_CURVE('',#445,#427,#523,.T.);
#324=EDGE_CURVE('',#446,#447,#524,.T.);
#325=EDGE_CURVE('',#447,#448,#36,.T.);
#326=EDGE_CURVE('',#448,#449,#525,.T.);
#327=EDGE_CURVE('',#449,#446,#37,.T.);
#328=EDGE_CURVE('',#436,#450,#16,.F.);
#329=EDGE_CURVE('',#435,#451,#38,.T.);
#330=EDGE_CURVE('',#452,#451,#526,.F.);
#331=EDGE_CURVE('',#442,#452,#39,.T.);
#332=EDGE_CURVE('',#453,#441,#17,.F.);
#333=EDGE_CURVE('',#450,#453,#527,.F.);
#334=EDGE_CURVE('',#454,#455,#528,.T.);
#335=EDGE_CURVE('',#455,#456,#529,.T.);
#336=EDGE_CURVE('',#456,#457,#530,.T.);
#337=EDGE_CURVE('',#457,#458,#531,.T.);
#338=EDGE_CURVE('',#458,#459,#532,.T.);
#339=EDGE_CURVE('',#459,#454,#533,.T.);
#340=EDGE_CURVE('',#460,#461,#534,.T.);
#341=EDGE_CURVE('',#460,#462,#40,.F.);
#342=EDGE_CURVE('',#462,#463,#535,.T.);
#343=EDGE_CURVE('',#463,#464,#41,.F.);
#344=EDGE_CURVE('',#465,#464,#536,.T.);
#345=EDGE_CURVE('',#465,#466,#42,.F.);
#346=EDGE_CURVE('',#466,#467,#537,.T.);
#347=EDGE_CURVE('',#467,#461,#43,.F.);
#348=EDGE_CURVE('',#456,#468,#538,.T.);
#349=EDGE_CURVE('',#469,#468,#539,.T.);
#350=EDGE_CURVE('',#457,#469,#540,.T.);
#351=EDGE_CURVE('',#454,#470,#541,.T.);
#352=EDGE_CURVE('',#471,#470,#542,.T.);
#353=EDGE_CURVE('',#455,#471,#543,.T.);
#354=EDGE_CURVE('',#472,#469,#544,.T.);
#355=EDGE_CURVE('',#472,#473,#545,.T.);
#356=EDGE_CURVE('',#473,#458,#546,.T.);
#357=EDGE_CURVE('',#459,#474,#547,.T.);
#358=EDGE_CURVE('',#475,#474,#548,.T.);
#359=EDGE_CURVE('',#470,#475,#549,.T.);
#360=EDGE_CURVE('',#476,#476,#44,.T.);
#361=EDGE_CURVE('',#477,#478,#550,.T.);
#362=EDGE_CURVE('',#478,#479,#551,.T.);
#363=EDGE_CURVE('',#479,#480,#552,.T.);
#364=EDGE_CURVE('',#480,#481,#553,.T.);
#365=EDGE_CURVE('',#481,#482,#554,.T.);
#366=EDGE_CURVE('',#482,#477,#555,.T.);
#367=EDGE_CURVE('',#468,#471,#556,.T.);
#368=EDGE_CURVE('',#483,#484,#45,.T.);
#369=EDGE_CURVE('',#485,#483,#557,.T.);
#370=EDGE_CURVE('',#486,#485,#46,.T.);
#371=EDGE_CURVE('',#484,#486,#558,.T.);
#372=EDGE_CURVE('',#475,#472,#559,.T.);
#373=EDGE_CURVE('',#487,#487,#47,.T.);
#374=EDGE_CURVE('',#488,#488,#48,.T.);
#375=EDGE_CURVE('',#489,#489,#49,.T.);
#376=EDGE_CURVE('',#490,#491,#560,.T.);
#377=EDGE_CURVE('',#492,#490,#561,.T.);
#378=EDGE_CURVE('',#493,#492,#562,.T.);
#379=EDGE_CURVE('',#494,#493,#563,.T.);
#380=EDGE_CURVE('',#495,#494,#564,.T.);
#381=EDGE_CURVE('',#491,#495,#565,.T.);
#382=EDGE_CURVE('',#484,#496,#566,.T.);
#383=EDGE_CURVE('',#448,#496,#567,.T.);
#384=EDGE_CURVE('',#447,#497,#568,.T.);
#385=EDGE_CURVE('',#483,#497,#569,.T.);
#386=EDGE_CURVE('',#486,#498,#570,.T.);
#387=EDGE_CURVE('',#449,#498,#571,.T.);
#388=EDGE_CURVE('',#485,#499,#572,.T.);
#389=EDGE_CURVE('',#446,#499,#573,.T.);
#390=EDGE_CURVE('',#500,#466,#574,.T.);
#391=EDGE_CURVE('',#500,#501,#575,.F.);
#392=EDGE_CURVE('',#501,#467,#576,.T.);
#393=EDGE_CURVE('',#502,#462,#577,.T.);
#394=EDGE_CURVE('',#502,#503,#578,.F.);
#395=EDGE_CURVE('',#503,#463,#579,.T.);
#396=EDGE_CURVE('',#504,#464,#580,.T.);
#397=EDGE_CURVE('',#504,#505,#581,.F.);
#398=EDGE_CURVE('',#505,#465,#582,.T.);
#399=EDGE_CURVE('',#501,#452,#50,.T.);
#400=EDGE_CURVE('',#452,#461,#583,.T.);
#401=EDGE_CURVE('',#451,#460,#584,.T.);
#402=EDGE_CURVE('',#451,#502,#51,.T.);
#403=EDGE_CURVE('',#503,#504,#52,.T.);
#404=EDGE_CURVE('',#505,#500,#53,.T.);
#405=EDGE_CURVE('',#504,#432,#54,.T.);
#406=EDGE_CURVE('',#433,#503,#55,.T.);
#407=EDGE_CURVE('',#434,#502,#56,.T.);
#408=EDGE_CURVE('',#506,#507,#585,.T.);
#409=EDGE_CURVE('',#507,#427,#18,.F.);
#410=EDGE_CURVE('',#505,#445,#57,.T.);
#411=EDGE_CURVE('',#431,#506,#19,.F.);
#412=EDGE_CURVE('',#500,#444,#58,.T.);
#413=EDGE_CURVE('',#501,#443,#59,.T.);
#414=EDGE_CURVE('',#453,#480,#586,.T.);
#415=EDGE_CURVE('',#450,#479,#587,.T.);
#416=EDGE_CURVE('',#437,#478,#588,.T.);
#417=EDGE_CURVE('',#438,#477,#589,.T.);
#418=EDGE_CURVE('',#440,#481,#590,.T.);
#419=EDGE_CURVE('',#439,#482,#591,.T.);
#420=EDGE_CURVE('',#506,#494,#592,.T.);
#421=EDGE_CURVE('',#507,#493,#593,.T.);
#422=EDGE_CURVE('',#428,#490,#594,.T.);
#423=EDGE_CURVE('',#429,#491,#595,.T.);
#424=EDGE_CURVE('',#426,#492,#596,.T.);
#425=EDGE_CURVE('',#430,#495,#597,.T.);
#426=VERTEX_POINT('',#1209);
#427=VERTEX_POINT('',#1210);
#428=VERTEX_POINT('',#1212);
#429=VERTEX_POINT('',#1214);
#430=VERTEX_POINT('',#1216);
#431=VERTEX_POINT('',#1218);
#432=VERTEX_POINT('',#1220);
#433=VERTEX_POINT('',#1222);
#434=VERTEX_POINT('',#1224);
#435=VERTEX_POINT('',#1226);
#436=VERTEX_POINT('',#1228);
#437=VERTEX_POINT('',#1230);
#438=VERTEX_POINT('',#1232);
#439=VERTEX_POINT('',#1234);
#440=VERTEX_POINT('',#1236);
#441=VERTEX_POINT('',#1238);
#442=VERTEX_POINT('',#1240);
#443=VERTEX_POINT('',#1242);
#444=VERTEX_POINT('',#1244);
#445=VERTEX_POINT('',#1246);
#446=VERTEX_POINT('',#1249);
#447=VERTEX_POINT('',#1250);
#448=VERTEX_POINT('',#1252);
#449=VERTEX_POINT('',#1254);
#450=VERTEX_POINT('',#1258);
#451=VERTEX_POINT('',#1260);
#452=VERTEX_POINT('',#1262);
#453=VERTEX_POINT('',#1265);
#454=VERTEX_POINT('',#1269);
#455=VERTEX_POINT('',#1270);
#456=VERTEX_POINT('',#1272);
#457=VERTEX_POINT('',#1274);
#458=VERTEX_POINT('',#1276);
#459=VERTEX_POINT('',#1278);
#460=VERTEX_POINT('',#1281);
#461=VERTEX_POINT('',#1282);
#462=VERTEX_POINT('',#1284);
#463=VERTEX_POINT('',#1286);
#464=VERTEX_POINT('',#1288);
#465=VERTEX_POINT('',#1290);
#466=VERTEX_POINT('',#1292);
#467=VERTEX_POINT('',#1294);
#468=VERTEX_POINT('',#1298);
#469=VERTEX_POINT('',#1300);
#470=VERTEX_POINT('',#1304);
#471=VERTEX_POINT('',#1306);
#472=VERTEX_POINT('',#1310);
#473=VERTEX_POINT('',#1312);
#474=VERTEX_POINT('',#1316);
#475=VERTEX_POINT('',#1318);
#476=VERTEX_POINT('',#1322);
#477=VERTEX_POINT('',#1324);
#478=VERTEX_POINT('',#1325);
#479=VERTEX_POINT('',#1327);
#480=VERTEX_POINT('',#1329);
#481=VERTEX_POINT('',#1331);
#482=VERTEX_POINT('',#1333);
#483=VERTEX_POINT('',#1339);
#484=VERTEX_POINT('',#1340);
#485=VERTEX_POINT('',#1342);
#486=VERTEX_POINT('',#1344);
#487=VERTEX_POINT('',#1348);
#488=VERTEX_POINT('',#1350);
#489=VERTEX_POINT('',#1353);
#490=VERTEX_POINT('',#1355);
#491=VERTEX_POINT('',#1356);
#492=VERTEX_POINT('',#1358);
#493=VERTEX_POINT('',#1360);
#494=VERTEX_POINT('',#1362);
#495=VERTEX_POINT('',#1364);
#496=VERTEX_POINT('',#1368);
#497=VERTEX_POINT('',#1371);
#498=VERTEX_POINT('',#1375);
#499=VERTEX_POINT('',#1379);
#500=VERTEX_POINT('',#1387);
#501=VERTEX_POINT('',#1389);
#502=VERTEX_POINT('',#1393);
#503=VERTEX_POINT('',#1395);
#504=VERTEX_POINT('',#1399);
#505=VERTEX_POINT('',#1401);
#506=VERTEX_POINT('',#1421);
#507=VERTEX_POINT('',#1422);
#508=LINE('',#1208,#598);
#509=LINE('',#1211,#599);
#510=LINE('',#1213,#600);
#511=LINE('',#1215,#601);
#512=LINE('',#1217,#602);
#513=LINE('',#1219,#603);
#514=LINE('',#1223,#604);
#515=LINE('',#1227,#605);
#516=LINE('',#1229,#606);
#517=LINE('',#1231,#607);
#518=LINE('',#1233,#608);
#519=LINE('',#1235,#609);
#520=LINE('',#1237,#610);
#521=LINE('',#1239,#611);
#522=LINE('',#1243,#612);
#523=LINE('',#1247,#613);
#524=LINE('',#1248,#614);
#525=LINE('',#1253,#615);
#526=LINE('',#1261,#616);
#527=LINE('',#1266,#617);
#528=LINE('',#1268,#618);
#529=LINE('',#1271,#619);
#530=LINE('',#1273,#620);
#531=LINE('',#1275,#621);
#532=LINE('',#1277,#622);
#533=LINE('',#1279,#623);
#534=LINE('',#1280,#624);
#535=LINE('',#1285,#625);
#536=LINE('',#1289,#626);
#537=LINE('',#1293,#627);
#538=LINE('',#1297,#628);
#539=LINE('',#1299,#629);
#540=LINE('',#1301,#630);
#541=LINE('',#1303,#631);
#542=LINE('',#1305,#632);
#543=LINE('',#1307,#633);
#544=LINE('',#1309,#634);
#545=LINE('',#1311,#635);
#546=LINE('',#1313,#636);
#547=LINE('',#1315,#637);
#548=LINE('',#1317,#638);
#549=LINE('',#1319,#639);
#550=LINE('',#1323,#640);
#551=LINE('',#1326,#641);
#552=LINE('',#1328,#642);
#553=LINE('',#1330,#643);
#554=LINE('',#1332,#644);
#555=LINE('',#1334,#645);
#556=LINE('',#1336,#646);
#557=LINE('',#1341,#647);
#558=LINE('',#1345,#648);
#559=LINE('',#1346,#649);
#560=LINE('',#1354,#650);
#561=LINE('',#1357,#651);
#562=LINE('',#1359,#652);
#563=LINE('',#1361,#653);
#564=LINE('',#1363,#654);
#565=LINE('',#1365,#655);
#566=LINE('',#1367,#656);
#567=LINE('',#1369,#657);
#568=LINE('',#1370,#658);
#569=LINE('',#1372,#659);
#570=LINE('',#1374,#660);
#571=LINE('',#1376,#661);
#572=LINE('',#1378,#662);
#573=LINE('',#1380,#663);
#574=LINE('',#1386,#664);
#575=LINE('',#1388,#665);
#576=LINE('',#1390,#666);
#577=LINE('',#1392,#667);
#578=LINE('',#1394,#668);
#579=LINE('',#1396,#669);
#580=LINE('',#1398,#670);
#581=LINE('',#1400,#671);
#582=LINE('',#1402,#672);
#583=LINE('',#1405,#673);
#584=LINE('',#1407,#674);
#585=LINE('',#1420,#675);
#586=LINE('',#1433,#676);
#587=LINE('',#1434,#677);
#588=LINE('',#1436,#678);
#589=LINE('',#1437,#679);
#590=LINE('',#1440,#680);
#591=LINE('',#1442,#681);
#592=LINE('',#1445,#682);
#593=LINE('',#1446,#683);
#594=LINE('',#1448,#684);
#595=LINE('',#1449,#685);
#596=LINE('',#1451,#686);
#597=LINE('',#1454,#687);
#598=VECTOR('',#964,1.);
#599=VECTOR('',#965,1.);
#600=VECTOR('',#966,1.);
#601=VECTOR('',#967,1.);
#602=VECTOR('',#968,1.);
#603=VECTOR('',#969,1.);
#604=VECTOR('',#972,1.);
#605=VECTOR('',#975,1.);
#606=VECTOR('',#976,1.);
#607=VECTOR('',#977,1.);
#608=VECTOR('',#978,1.);
#609=VECTOR('',#979,1.);
#610=VECTOR('',#980,1.);
#611=VECTOR('',#981,1.);
#612=VECTOR('',#984,1.);
#613=VECTOR('',#987,1.);
#614=VECTOR('',#988,1.);
#615=VECTOR('',#991,1.);
#616=VECTOR('',#1000,1.);
#617=VECTOR('',#1005,1.);
#618=VECTOR('',#1008,1.);
#619=VECTOR('',#1009,1.);
#620=VECTOR('',#1010,1.);
#621=VECTOR('',#1011,1.);
#622=VECTOR('',#1012,1.);
#623=VECTOR('',#1013,1.);
#624=VECTOR('',#1014,1.);
#625=VECTOR('',#1017,1.);
#626=VECTOR('',#1020,1.);
#627=VECTOR('',#1023,1.);
#628=VECTOR('',#1028,1.);
#629=VECTOR('',#1029,1.);
#630=VECTOR('',#1030,1.);
#631=VECTOR('',#1033,1.);
#632=VECTOR('',#1034,1.);
#633=VECTOR('',#1035,1.);
#634=VECTOR('',#1038,1.);
#635=VECTOR('',#1039,1.);
#636=VECTOR('',#1040,1.);
#637=VECTOR('',#1043,1.);
#638=VECTOR('',#1044,1.);
#639=VECTOR('',#1045,1.);
#640=VECTOR('',#1050,1.);
#641=VECTOR('',#1051,1.);
#642=VECTOR('',#1052,1.);
#643=VECTOR('',#1053,1.);
#644=VECTOR('',#1054,1.);
#645=VECTOR('',#1055,1.);
#646=VECTOR('',#1058,1.);
#647=VECTOR('',#1063,1.);
#648=VECTOR('',#1066,1.);
#649=VECTOR('',#1067,1.);
#650=VECTOR('',#1076,1.);
#651=VECTOR('',#1077,1.);
#652=VECTOR('',#1078,1.);
#653=VECTOR('',#1079,1.);
#654=VECTOR('',#1080,1.);
#655=VECTOR('',#1081,1.);
#656=VECTOR('',#1084,1.);
#657=VECTOR('',#1085,1.);
#658=VECTOR('',#1086,1.);
#659=VECTOR('',#1087,1.);
#660=VECTOR('',#1090,1.);
#661=VECTOR('',#1091,1.);
#662=VECTOR('',#1094,1.);
#663=VECTOR('',#1095,1.);
#664=VECTOR('',#1106,1.);
#665=VECTOR('',#1107,1.);
#666=VECTOR('',#1108,1.);
#667=VECTOR('',#1111,1.);
#668=VECTOR('',#1112,1.);
#669=VECTOR('',#1113,1.);
#670=VECTOR('',#1116,1.);
#671=VECTOR('',#1117,1.);
#672=VECTOR('',#1118,1.);
#673=VECTOR('',#1123,1.);
#674=VECTOR('',#1126,1.);
#675=VECTOR('',#1151,1.);
#676=VECTOR('',#1172,1.);
#677=VECTOR('',#1173,1.);
#678=VECTOR('',#1176,1.);
#679=VECTOR('',#1177,1.);
#680=VECTOR('',#1182,1.);
#681=VECTOR('',#1185,1.);
#682=VECTOR('',#1190,1.);
#683=VECTOR('',#1191,1.);
#684=VECTOR('',#1194,1.);
#685=VECTOR('',#1195,1.);
#686=VECTOR('',#1198,1.);
#687=VECTOR('',#1203,1.);
#688=EDGE_LOOP('',(#60,#61,#62,#63,#64,#65,#66,#67,#68,#69,#70,#71,#72,
#73,#74,#75,#76,#77,#78,#79));
#689=EDGE_LOOP('',(#80,#81,#82,#83));
#690=EDGE_LOOP('',(#84,#85,#86,#87,#88,#89,#90,#91));
#691=EDGE_LOOP('',(#92,#93,#94,#95,#96,#97));
#692=EDGE_LOOP('',(#98,#99,#100,#101,#102,#103,#104,#105));
#693=EDGE_LOOP('',(#106,#107,#108,#109));
#694=EDGE_LOOP('',(#110,#111,#112,#113));
#695=EDGE_LOOP('',(#114,#115,#116,#117,#118));
#696=EDGE_LOOP('',(#119,#120,#121,#122,#123));
#697=EDGE_LOOP('',(#124));
#698=EDGE_LOOP('',(#125,#126,#127,#128,#129,#130));
#699=EDGE_LOOP('',(#131,#132,#133,#134));
#700=EDGE_LOOP('',(#135,#136,#137,#138));
#701=EDGE_LOOP('',(#139,#140,#141,#142,#143,#144));
#702=EDGE_LOOP('',(#145));
#703=EDGE_LOOP('',(#146));
#704=EDGE_LOOP('',(#147));
#705=EDGE_LOOP('',(#148,#149,#150,#151,#152,#153));
#706=EDGE_LOOP('',(#154,#155,#156,#157,#158,#159));
#707=EDGE_LOOP('',(#160,#161,#162,#163,#164,#165));
#708=EDGE_LOOP('',(#166,#167,#168,#169,#170,#171));
#709=EDGE_LOOP('',(#172,#173,#174,#175,#176,#177));
#710=EDGE_LOOP('',(#178,#179,#180,#181,#182,#183));
#711=EDGE_LOOP('',(#184));
#712=EDGE_LOOP('',(#185));
#713=EDGE_LOOP('',(#186));
#714=EDGE_LOOP('',(#187));
#715=EDGE_LOOP('',(#188,#189,#190,#191));
#716=EDGE_LOOP('',(#192,#193,#194,#195));
#717=EDGE_LOOP('',(#196,#197,#198,#199));
#718=EDGE_LOOP('',(#200,#201,#202,#203));
#719=EDGE_LOOP('',(#204,#205,#206,#207));
#720=EDGE_LOOP('',(#208,#209,#210,#211));
#721=EDGE_LOOP('',(#212,#213,#214,#215));
#722=EDGE_LOOP('',(#216,#217,#218,#219));
#723=EDGE_LOOP('',(#220,#221,#222,#223));
#724=EDGE_LOOP('',(#224,#225,#226,#227));
#725=EDGE_LOOP('',(#228,#229,#230,#231,#232,#233,#234,#235));
#726=EDGE_LOOP('',(#236,#237,#238,#239));
#727=EDGE_LOOP('',(#240,#241,#242,#243));
#728=EDGE_LOOP('',(#244,#245,#246,#247));
#729=EDGE_LOOP('',(#248,#249,#250,#251));
#730=EDGE_LOOP('',(#252,#253,#254,#255));
#731=EDGE_LOOP('',(#256,#257,#258,#259));
#732=EDGE_LOOP('',(#260,#261,#262,#263,#264));
#733=EDGE_LOOP('',(#265,#266,#267,#268,#269));
#734=EDGE_LOOP('',(#270,#271,#272,#273));
#735=EDGE_LOOP('',(#274,#275,#276,#277));
#736=EDGE_LOOP('',(#278,#279,#280,#281));
#737=EDGE_LOOP('',(#282,#283,#284,#285));
#738=EDGE_LOOP('',(#286,#287,#288,#289));
#739=EDGE_LOOP('',(#290,#291,#292,#293,#294));
#740=EDGE_LOOP('',(#295,#296,#297,#298,#299));
#741=EDGE_LOOP('',(#300,#301,#302,#303));
#742=FACE_BOUND('',#688,.T.);
#743=FACE_BOUND('',#689,.T.);
#744=FACE_BOUND('',#690,.T.);
#745=FACE_BOUND('',#691,.T.);
#746=FACE_BOUND('',#692,.T.);
#747=FACE_BOUND('',#693,.T.);
#748=FACE_BOUND('',#694,.T.);
#749=FACE_BOUND('',#695,.T.);
#750=FACE_BOUND('',#696,.T.);
#751=FACE_BOUND('',#697,.T.);
#752=FACE_BOUND('',#698,.T.);
#753=FACE_BOUND('',#699,.T.);
#754=FACE_BOUND('',#700,.T.);
#755=FACE_BOUND('',#701,.T.);
#756=FACE_BOUND('',#702,.T.);
#757=FACE_BOUND('',#703,.T.);
#758=FACE_BOUND('',#704,.T.);
#759=FACE_BOUND('',#705,.T.);
#760=FACE_BOUND('',#706,.T.);
#761=FACE_BOUND('',#707,.T.);
#762=FACE_BOUND('',#708,.T.);
#763=FACE_BOUND('',#709,.T.);
#764=FACE_BOUND('',#710,.T.);
#765=FACE_BOUND('',#711,.T.);
#766=FACE_BOUND('',#712,.T.);
#767=FACE_BOUND('',#713,.T.);
#768=FACE_BOUND('',#714,.T.);
#769=FACE_BOUND('',#715,.T.);
#770=FACE_BOUND('',#716,.T.);
#771=FACE_BOUND('',#717,.T.);
#772=FACE_BOUND('',#718,.T.);
#773=FACE_BOUND('',#719,.T.);
#774=FACE_BOUND('',#720,.T.);
#775=FACE_BOUND('',#721,.T.);
#776=FACE_BOUND('',#722,.T.);
#777=FACE_BOUND('',#723,.T.);
#778=FACE_BOUND('',#724,.T.);
#779=FACE_BOUND('',#725,.T.);
#780=FACE_BOUND('',#726,.T.);
#781=FACE_BOUND('',#727,.T.);
#782=FACE_BOUND('',#728,.T.);
#783=FACE_BOUND('',#729,.T.);
#784=FACE_BOUND('',#730,.T.);
#785=FACE_BOUND('',#731,.T.);
#786=FACE_BOUND('',#732,.T.);
#787=FACE_BOUND('',#733,.T.);
#788=FACE_BOUND('',#734,.T.);
#789=FACE_BOUND('',#735,.T.);
#790=FACE_BOUND('',#736,.T.);
#791=FACE_BOUND('',#737,.T.);
#792=FACE_BOUND('',#738,.T.);
#793=FACE_BOUND('',#739,.T.);
#794=FACE_BOUND('',#740,.T.);
#795=FACE_BOUND('',#741,.T.);
#796=PLANE('',#883);
#797=PLANE('',#895);
#798=PLANE('',#900);
#799=PLANE('',#901);
#800=PLANE('',#902);
#801=PLANE('',#903);
#802=PLANE('',#904);
#803=PLANE('',#906);
#804=PLANE('',#907);
#805=PLANE('',#912);
#806=PLANE('',#915);
#807=PLANE('',#917);
#808=PLANE('',#918);
#809=PLANE('',#921);
#810=PLANE('',#922);
#811=PLANE('',#923);
#812=PLANE('',#926);
#813=PLANE('',#948);
#814=PLANE('',#949);
#815=PLANE('',#950);
#816=PLANE('',#951);
#817=PLANE('',#952);
#818=PLANE('',#953);
#819=PLANE('',#954);
#820=PLANE('',#955);
#821=PLANE('',#956);
#822=PLANE('',#957);
#823=PLANE('',#958);
#824=PLANE('',#959);
#825=ADVANCED_FACE('',(#742,#743),#796,.T.);
#826=ADVANCED_FACE('',(#744),#20,.F.);
#827=ADVANCED_FACE('',(#745,#746),#797,.F.);
#828=ADVANCED_FACE('',(#747),#798,.T.);
#829=ADVANCED_FACE('',(#748),#799,.T.);
#830=ADVANCED_FACE('',(#749),#800,.T.);
#831=ADVANCED_FACE('',(#750),#801,.T.);
#832=ADVANCED_FACE('',(#751,#752),#802,.T.);
#833=ADVANCED_FACE('',(#753),#803,.T.);
#834=ADVANCED_FACE('',(#754,#755,#756,#757),#804,.F.);
#835=ADVANCED_FACE('',(#758,#759),#805,.T.);
#836=ADVANCED_FACE('',(#760),#21,.T.);
#837=ADVANCED_FACE('',(#761),#806,.T.);
#838=ADVANCED_FACE('',(#762),#22,.T.);
#839=ADVANCED_FACE('',(#763),#807,.T.);
#840=ADVANCED_FACE('',(#764),#808,.T.);
#841=ADVANCED_FACE('',(#765,#766),#23,.F.);
#842=ADVANCED_FACE('',(#767,#768),#24,.F.);
#843=ADVANCED_FACE('',(#769),#809,.T.);
#844=ADVANCED_FACE('',(#770),#810,.T.);
#845=ADVANCED_FACE('',(#771),#811,.T.);
#846=ADVANCED_FACE('',(#772),#25,.T.);
#847=ADVANCED_FACE('',(#773),#812,.T.);
#848=ADVANCED_FACE('',(#774),#26,.T.);
#849=ADVANCED_FACE('',(#775),#27,.T.);
#850=ADVANCED_FACE('',(#776),#28,.T.);
#851=ADVANCED_FACE('',(#777),#12,.F.);
#852=ADVANCED_FACE('',(#778),#29,.F.);
#853=ADVANCED_FACE('',(#779),#30,.F.);
#854=ADVANCED_FACE('',(#780),#13,.F.);
#855=ADVANCED_FACE('',(#781),#14,.F.);
#856=ADVANCED_FACE('',(#782),#31,.F.);
#857=ADVANCED_FACE('',(#783),#15,.F.);
#858=ADVANCED_FACE('',(#784),#813,.T.);
#859=ADVANCED_FACE('',(#785),#814,.T.);
#860=ADVANCED_FACE('',(#786),#815,.T.);
#861=ADVANCED_FACE('',(#787),#816,.T.);
#862=ADVANCED_FACE('',(#788),#817,.T.);
#863=ADVANCED_FACE('',(#789),#818,.T.);
#864=ADVANCED_FACE('',(#790),#819,.F.);
#865=ADVANCED_FACE('',(#791),#820,.F.);
#866=ADVANCED_FACE('',(#792),#821,.F.);
#867=ADVANCED_FACE('',(#793),#822,.F.);
#868=ADVANCED_FACE('',(#794),#823,.F.);
#869=ADVANCED_FACE('',(#795),#824,.F.);
#870=CLOSED_SHELL('',(#825,#826,#827,#828,#829,#830,#831,#832,#833,#834,
#835,#836,#837,#838,#839,#840,#841,#842,#843,#844,#845,#846,#847,#848,#849,
#850,#851,#852,#853,#854,#855,#856,#857,#858,#859,#860,#861,#862,#863,#864,
#865,#866,#867,#868,#869));
#871=STYLED_ITEM('',(#872),#879);
#872=PRESENTATION_STYLE_ASSIGNMENT((#873));
#873=SURFACE_STYLE_USAGE(.BOTH.,#874);
#874=SURFACE_SIDE_STYLE('',(#875));
#875=SURFACE_STYLE_FILL_AREA(#876);
#876=FILL_AREA_STYLE('',(#877));
#877=FILL_AREA_STYLE_COLOUR('',#878);
#878=COLOUR_RGB('',0.0745098039215686,0.588235294117647,0.945098039215686);
#879=MANIFOLD_SOLID_BREP('XT30_Rahmen_1-Fach',#870);
#880=SHAPE_DEFINITION_REPRESENTATION(#1462,#881);
#881=SHAPE_REPRESENTATION('XT30_Rahmen_1-Fach',(#882),#1457);
#882=AXIS2_PLACEMENT_3D('',#1206,#960,#961);
#883=AXIS2_PLACEMENT_3D('',#1207,#962,#963);
#884=AXIS2_PLACEMENT_3D('',#1221,#970,#971);
#885=AXIS2_PLACEMENT_3D('',#1225,#973,#974);
#886=AXIS2_PLACEMENT_3D('',#1241,#982,#983);
#887=AXIS2_PLACEMENT_3D('',#1245,#985,#986);
#888=AXIS2_PLACEMENT_3D('',#1251,#989,#990);
#889=AXIS2_PLACEMENT_3D('',#1255,#992,#993);
#890=AXIS2_PLACEMENT_3D('',#1256,#994,#995);
#891=AXIS2_PLACEMENT_3D('',#1257,#996,#997);
#892=AXIS2_PLACEMENT_3D('',#1259,#998,#999);
#893=AXIS2_PLACEMENT_3D('',#1263,#1001,#1002);
#894=AXIS2_PLACEMENT_3D('',#1264,#1003,#1004);
#895=AXIS2_PLACEMENT_3D('',#1267,#1006,#1007);
#896=AXIS2_PLACEMENT_3D('',#1283,#1015,#1016);
#897=AXIS2_PLACEMENT_3D('',#1287,#1018,#1019);
#898=AXIS2_PLACEMENT_3D('',#1291,#1021,#1022);
#899=AXIS2_PLACEMENT_3D('',#1295,#1024,#1025);
#900=AXIS2_PLACEMENT_3D('',#1296,#1026,#1027);
#901=AXIS2_PLACEMENT_3D('',#1302,#1031,#1032);
#902=AXIS2_PLACEMENT_3D('',#1308,#1036,#1037);
#903=AXIS2_PLACEMENT_3D('',#1314,#1041,#1042);
#904=AXIS2_PLACEMENT_3D('',#1320,#1046,#1047);
#905=AXIS2_PLACEMENT_3D('',#1321,#1048,#1049);
#906=AXIS2_PLACEMENT_3D('',#1335,#1056,#1057);
#907=AXIS2_PLACEMENT_3D('',#1337,#1059,#1060);
#908=AXIS2_PLACEMENT_3D('',#1338,#1061,#1062);
#909=AXIS2_PLACEMENT_3D('',#1343,#1064,#1065);
#910=AXIS2_PLACEMENT_3D('',#1347,#1068,#1069);
#911=AXIS2_PLACEMENT_3D('',#1349,#1070,#1071);
#912=AXIS2_PLACEMENT_3D('',#1351,#1072,#1073);
#913=AXIS2_PLACEMENT_3D('',#1352,#1074,#1075);
#914=AXIS2_PLACEMENT_3D('',#1366,#1082,#1083);
#915=AXIS2_PLACEMENT_3D('',#1373,#1088,#1089);
#916=AXIS2_PLACEMENT_3D('',#1377,#1092,#1093);
#917=AXIS2_PLACEMENT_3D('',#1381,#1096,#1097);
#918=AXIS2_PLACEMENT_3D('',#1382,#1098,#1099);
#919=AXIS2_PLACEMENT_3D('',#1383,#1100,#1101);
#920=AXIS2_PLACEMENT_3D('',#1384,#1102,#1103);
#921=AXIS2_PLACEMENT_3D('',#1385,#1104,#1105);
#922=AXIS2_PLACEMENT_3D('',#1391,#1109,#1110);
#923=AXIS2_PLACEMENT_3D('',#1397,#1114,#1115);
#924=AXIS2_PLACEMENT_3D('',#1403,#1119,#1120);
#925=AXIS2_PLACEMENT_3D('',#1404,#1121,#1122);
#926=AXIS2_PLACEMENT_3D('',#1406,#1124,#1125);
#927=AXIS2_PLACEMENT_3D('',#1408,#1127,#1128);
#928=AXIS2_PLACEMENT_3D('',#1409,#1129,#1130);
#929=AXIS2_PLACEMENT_3D('',#1410,#1131,#1132);
#930=AXIS2_PLACEMENT_3D('',#1411,#1133,#1134);
#931=AXIS2_PLACEMENT_3D('',#1412,#1135,#1136);
#932=AXIS2_PLACEMENT_3D('',#1413,#1137,#1138);
#933=AXIS2_PLACEMENT_3D('',#1414,#1139,#1140);
#934=AXIS2_PLACEMENT_3D('',#1415,#1141,#1142);
#935=AXIS2_PLACEMENT_3D('',#1416,#1143,#1144);
#936=AXIS2_PLACEMENT_3D('',#1417,#1145,#1146);
#937=AXIS2_PLACEMENT_3D('',#1418,#1147,#1148);
#938=AXIS2_PLACEMENT_3D('',#1419,#1149,#1150);
#939=AXIS2_PLACEMENT_3D('',#1423,#1152,#1153);
#940=AXIS2_PLACEMENT_3D('',#1424,#1154,#1155);
#941=AXIS2_PLACEMENT_3D('',#1425,#1156,#1157);
#942=AXIS2_PLACEMENT_3D('',#1426,#1158,#1159);
#943=AXIS2_PLACEMENT_3D('',#1427,#1160,#1161);
#944=AXIS2_PLACEMENT_3D('',#1428,#1162,#1163);
#945=AXIS2_PLACEMENT_3D('',#1429,#1164,#1165);
#946=AXIS2_PLACEMENT_3D('',#1430,#1166,#1167);
#947=AXIS2_PLACEMENT_3D('',#1431,#1168,#1169);
#948=AXIS2_PLACEMENT_3D('',#1432,#1170,#1171);
#949=AXIS2_PLACEMENT_3D('',#1435,#1174,#1175);
#950=AXIS2_PLACEMENT_3D('',#1438,#1178,#1179);
#951=AXIS2_PLACEMENT_3D('',#1439,#1180,#1181);
#952=AXIS2_PLACEMENT_3D('',#1441,#1183,#1184);
#953=AXIS2_PLACEMENT_3D('',#1443,#1186,#1187);
#954=AXIS2_PLACEMENT_3D('',#1444,#1188,#1189);
#955=AXIS2_PLACEMENT_3D('',#1447,#1192,#1193);
#956=AXIS2_PLACEMENT_3D('',#1450,#1196,#1197);
#957=AXIS2_PLACEMENT_3D('',#1452,#1199,#1200);
#958=AXIS2_PLACEMENT_3D('',#1453,#1201,#1202);
#959=AXIS2_PLACEMENT_3D('',#1455,#1204,#1205);
#960=DIRECTION('',(0.,0.,1.));
#961=DIRECTION('',(1.,0.,0.));
#962=DIRECTION('',(0.,0.,1.));
#963=DIRECTION('',(1.,0.,0.));
#964=DIRECTION('',(0.499999999999966,-0.866025403784459,0.));
#965=DIRECTION('',(-0.500000000000043,-0.866025403784414,0.));
#966=DIRECTION('',(-1.,3.05777626105952E-14,0.));
#967=DIRECTION('',(-0.500000000000013,0.866025403784431,0.));
#968=DIRECTION('',(0.500000000000006,0.866025403784436,0.));
#969=DIRECTION('',(1.,0.,0.));
#970=DIRECTION('',(0.,0.,1.));
#971=DIRECTION('',(1.,0.,0.));
#972=DIRECTION('',(-4.51750905202294E-17,-1.,0.));
#973=DIRECTION('',(0.,0.,1.));
#974=DIRECTION('',(1.,0.,0.));
#975=DIRECTION('',(-1.,0.,0.));
#976=DIRECTION('',(0.500000000000006,-0.866025403784436,0.));
#977=DIRECTION('',(-0.500000000000013,-0.866025403784431,0.));
#978=DIRECTION('',(-1.,-3.05777626105952E-14,0.));
#979=DIRECTION('',(-0.500000000000043,0.866025403784414,0.));
#980=DIRECTION('',(0.499999999999966,0.866025403784459,0.));
#981=DIRECTION('',(-1.,0.,0.));
#982=DIRECTION('',(0.,0.,1.));
#983=DIRECTION('',(1.,0.,0.));
#984=DIRECTION('',(-4.51750905202294E-17,1.,0.));
#985=DIRECTION('',(0.,0.,1.));
#986=DIRECTION('',(1.,0.,0.));
#987=DIRECTION('',(1.,0.,0.));
#988=DIRECTION('',(0.,-1.,0.));
#989=DIRECTION('',(0.,0.,1.));
#990=DIRECTION('',(-1.,1.85037170770859E-16,0.));
#991=DIRECTION('',(0.,1.,0.));
#992=DIRECTION('',(0.,0.,1.));
#993=DIRECTION('',(1.,1.85037170770859E-16,0.));
#994=DIRECTION('',(1.,0.,0.));
#995=DIRECTION('',(0.,0.,-1.));
#996=DIRECTION('',(-0.866025403784436,-0.500000000000006,0.));
#997=DIRECTION('',(0.500000000000006,-0.866025403784436,0.));
#998=DIRECTION('',(1.,0.,0.));
#999=DIRECTION('',(0.,0.,-1.));
#1000=DIRECTION('',(-1.,0.,0.));
#1001=DIRECTION('',(1.,-1.68388168053195E-15,0.));
#1002=DIRECTION('',(1.68388168053195E-15,1.,0.));
#1003=DIRECTION('',(0.866025403784459,-0.499999999999966,0.));
#1004=DIRECTION('',(0.499999999999966,0.866025403784459,0.));
#1005=DIRECTION('',(1.,0.,0.));
#1006=DIRECTION('',(0.,0.,-1.));
#1007=DIRECTION('',(-1.,0.,0.));
#1008=DIRECTION('',(0.,-1.,0.));
#1009=DIRECTION('',(-1.,0.,0.));
#1010=DIRECTION('',(0.,1.,0.));
#1011=DIRECTION('',(0.707106781186548,0.707106781186548,0.));
#1012=DIRECTION('',(1.,0.,0.));
#1013=DIRECTION('',(0.707106781186548,-0.707106781186548,0.));
#1014=DIRECTION('',(-1.,0.,0.));
#1015=DIRECTION('',(0.,0.,-1.));
#1016=DIRECTION('',(-1.,0.,0.));
#1017=DIRECTION('',(4.51750905202294E-17,1.,0.));
#1018=DIRECTION('',(0.,0.,-1.));
#1019=DIRECTION('',(-1.,0.,0.));
#1020=DIRECTION('',(1.,0.,0.));
#1021=DIRECTION('',(0.,0.,-1.));
#1022=DIRECTION('',(-1.,0.,0.));
#1023=DIRECTION('',(4.51750905202294E-17,-1.,0.));
#1024=DIRECTION('',(0.,0.,-1.));
#1025=DIRECTION('',(-1.,0.,0.));
#1026=DIRECTION('',(1.,0.,0.));
#1027=DIRECTION('',(0.,0.,-1.));
#1028=DIRECTION('',(0.,0.,-1.));
#1029=DIRECTION('',(0.,-1.,0.));
#1030=DIRECTION('',(0.,0.,-1.));
#1031=DIRECTION('',(-1.,0.,0.));
#1032=DIRECTION('',(0.,0.,1.));
#1033=DIRECTION('',(0.,0.,-1.));
#1034=DIRECTION('',(0.,1.,0.));
#1035=DIRECTION('',(0.,0.,-1.));
#1036=DIRECTION('',(0.707106781186548,-0.707106781186548,0.));
#1037=DIRECTION('',(0.,0.,-1.));
#1038=DIRECTION('',(-0.707106781186548,-0.707106781186548,0.));
#1039=DIRECTION('',(0.,0.,1.));
#1040=DIRECTION('',(0.,0.,1.));
#1041=DIRECTION('',(-0.707106781186548,-0.707106781186548,0.));
#1042=DIRECTION('',(0.,0.,1.));
#1043=DIRECTION('',(0.,0.,-1.));
#1044=DIRECTION('',(0.,0.,1.));
#1045=DIRECTION('',(-0.707106781186548,0.707106781186548,0.));
#1046=DIRECTION('',(0.,0.,1.));
#1047=DIRECTION('',(1.,0.,0.));
#1048=DIRECTION('',(0.,0.,1.));
#1049=DIRECTION('',(1.,0.,0.));
#1050=DIRECTION('',(0.500000000000013,0.866025403784431,0.));
#1051=DIRECTION('',(-0.500000000000006,0.866025403784435,0.));
#1052=DIRECTION('',(-1.,-2.2933321957945E-14,0.));
#1053=DIRECTION('',(-0.499999999999966,-0.866025403784459,0.));
#1054=DIRECTION('',(0.500000000000043,-0.866025403784414,0.));
#1055=DIRECTION('',(1.,3.05777626105952E-14,0.));
#1056=DIRECTION('',(0.,1.,0.));
#1057=DIRECTION('',(-1.,0.,0.));
#1058=DIRECTION('',(1.,0.,0.));
#1059=DIRECTION('',(0.,0.,1.));
#1060=DIRECTION('',(1.,0.,0.));
#1061=DIRECTION('',(0.,0.,1.));
#1062=DIRECTION('',(-1.,1.85037170770859E-16,0.));
#1063=DIRECTION('',(0.,-1.,0.));
#1064=DIRECTION('',(0.,0.,1.));
#1065=DIRECTION('',(1.,1.85037170770859E-16,0.));
#1066=DIRECTION('',(0.,1.,0.));
#1067=DIRECTION('',(-1.,0.,0.));
#1068=DIRECTION('',(0.,0.,-1.));
#1069=DIRECTION('',(-1.,0.,0.));
#1070=DIRECTION('',(0.,0.,-1.));
#1071=DIRECTION('',(-1.,0.,0.));
#1072=DIRECTION('',(0.,0.,1.));
#1073=DIRECTION('',(1.,0.,0.));
#1074=DIRECTION('',(0.,0.,1.));
#1075=DIRECTION('',(1.,0.,0.));
#1076=DIRECTION('',(1.,-3.05777626105952E-14,0.));
#1077=DIRECTION('',(0.500000000000043,0.866025403784414,0.));
#1078=DIRECTION('',(-0.499999999999966,0.866025403784459,0.));
#1079=DIRECTION('',(-1.,2.2933321957945E-14,0.));
#1080=DIRECTION('',(-0.500000000000006,-0.866025403784435,0.));
#1081=DIRECTION('',(0.500000000000013,-0.866025403784431,0.));
#1082=DIRECTION('',(0.,0.,1.));
#1083=DIRECTION('',(-1.,1.85037170770859E-16,0.));
#1084=DIRECTION('',(0.,0.,1.));
#1085=DIRECTION('',(0.,0.,-1.));
#1086=DIRECTION('',(0.,0.,-1.));
#1087=DIRECTION('',(0.,0.,1.));
#1088=DIRECTION('',(1.,0.,0.));
#1089=DIRECTION('',(0.,1.,0.));
#1090=DIRECTION('',(0.,0.,1.));
#1091=DIRECTION('',(0.,0.,-1.));
#1092=DIRECTION('',(0.,0.,1.));
#1093=DIRECTION('',(1.,1.85037170770859E-16,0.));
#1094=DIRECTION('',(0.,0.,1.));
#1095=DIRECTION('',(0.,0.,-1.));
#1096=DIRECTION('',(-1.,0.,0.));
#1097=DIRECTION('',(0.,-1.,0.));
#1098=DIRECTION('',(0.,-1.,0.));
#1099=DIRECTION('',(1.,0.,0.));
#1100=DIRECTION('',(0.,0.,-1.));
#1101=DIRECTION('',(-1.,0.,0.));
#1102=DIRECTION('',(0.,0.,-1.));
#1103=DIRECTION('',(-1.,0.,0.));
#1104=DIRECTION('',(-1.,-4.51750905202294E-17,0.));
#1105=DIRECTION('',(4.51750905202294E-17,-1.,0.));
#1106=DIRECTION('',(0.,0.,1.));
#1107=DIRECTION('',(-4.51750905202294E-17,1.,0.));
#1108=DIRECTION('',(0.,0.,1.));
#1109=DIRECTION('',(1.,-4.51750905202294E-17,0.));
#1110=DIRECTION('',(4.51750905202294E-17,1.,0.));
#1111=DIRECTION('',(0.,0.,1.));
#1112=DIRECTION('',(-4.51750905202294E-17,-1.,0.));
#1113=DIRECTION('',(0.,0.,1.));
#1114=DIRECTION('',(0.,1.,0.));
#1115=DIRECTION('',(0.,0.,1.));
#1116=DIRECTION('',(0.,0.,1.));
#1117=DIRECTION('',(1.,0.,0.));
#1118=DIRECTION('',(0.,0.,1.));
#1119=DIRECTION('',(0.,0.,1.));
#1120=DIRECTION('',(1.,0.,0.));
#1121=DIRECTION('',(0.,0.,1.));
#1122=DIRECTION('',(1.,0.,0.));
#1123=DIRECTION('',(0.,0.,1.));
#1124=DIRECTION('',(0.,-1.,0.));
#1125=DIRECTION('',(0.,0.,-1.));
#1126=DIRECTION('',(0.,0.,1.));
#1127=DIRECTION('',(0.,0.,1.));
#1128=DIRECTION('',(1.,0.,0.));
#1129=DIRECTION('',(0.,0.,1.));
#1130=DIRECTION('',(1.,0.,0.));
#1131=DIRECTION('',(0.,0.,1.));
#1132=DIRECTION('',(1.,0.,0.));
#1133=DIRECTION('',(0.,0.,1.));
#1134=DIRECTION('',(1.,0.,0.));
#1135=DIRECTION('',(0.,0.,1.));
#1136=DIRECTION('',(1.,0.,0.));
#1137=DIRECTION('',(0.,0.,1.));
#1138=DIRECTION('',(1.,0.,0.));
#1139=DIRECTION('',(0.,0.,1.));
#1140=DIRECTION('',(1.,0.,0.));
#1141=DIRECTION('',(1.,-1.34710534442555E-15,0.));
#1142=DIRECTION('',(1.34710534442555E-15,1.,0.));
#1143=DIRECTION('',(0.,1.,0.));
#1144=DIRECTION('',(0.,0.,1.));
#1145=DIRECTION('',(4.51750905202294E-17,1.,0.));
#1146=DIRECTION('',(-1.,4.51750905202294E-17,0.));
#1147=DIRECTION('',(2.02065801663833E-15,1.,0.));
#1148=DIRECTION('',(-1.,2.02065801663833E-15,0.));
#1149=DIRECTION('',(-1.,0.,0.));
#1150=DIRECTION('',(0.,0.,1.));
#1151=DIRECTION('',(-1.,0.,0.));
#1152=DIRECTION('',(-0.866025403784459,-0.499999999999966,0.));
#1153=DIRECTION('',(-0.499999999999966,0.866025403784459,0.));
#1154=DIRECTION('',(1.,0.,0.));
#1155=DIRECTION('',(0.,0.,-1.));
#1156=DIRECTION('',(0.866025403784436,-0.500000000000006,0.));
#1157=DIRECTION('',(-0.500000000000006,-0.866025403784436,0.));
#1158=DIRECTION('',(0.,0.,1.));
#1159=DIRECTION('',(1.,0.,0.));
#1160=DIRECTION('',(0.,0.,1.));
#1161=DIRECTION('',(1.,0.,0.));
#1162=DIRECTION('',(2.69421068885111E-15,1.,0.));
#1163=DIRECTION('',(-1.,2.69421068885111E-15,0.));
#1164=DIRECTION('',(4.51750905202294E-17,-1.,0.));
#1165=DIRECTION('',(1.,4.51750905202294E-17,0.));
#1166=DIRECTION('',(0.,1.,-6.73552672212778E-16));
#1167=DIRECTION('',(0.,6.73552672212778E-16,1.));
#1168=DIRECTION('',(0.,0.,1.));
#1169=DIRECTION('',(1.,0.,0.));
#1170=DIRECTION('',(2.2933321957945E-14,-1.,0.));
#1171=DIRECTION('',(1.,2.2933321957945E-14,0.));
#1172=DIRECTION('',(0.,0.,-1.));
#1173=DIRECTION('',(0.,0.,-1.));
#1174=DIRECTION('',(-0.866025403784431,0.500000000000013,0.));
#1175=DIRECTION('',(-0.500000000000013,-0.866025403784431,0.));
#1176=DIRECTION('',(0.,0.,-1.));
#1177=DIRECTION('',(0.,0.,-1.));
#1178=DIRECTION('',(-0.866025403784436,-0.500000000000006,0.));
#1179=DIRECTION('',(0.500000000000006,-0.866025403784436,0.));
#1180=DIRECTION('',(0.866025403784459,-0.499999999999966,0.));
#1181=DIRECTION('',(0.499999999999966,0.866025403784459,0.));
#1182=DIRECTION('',(0.,0.,-1.));
#1183=DIRECTION('',(0.866025403784414,0.500000000000043,0.));
#1184=DIRECTION('',(-0.500000000000043,0.866025403784414,0.));
#1185=DIRECTION('',(0.,0.,-1.));
#1186=DIRECTION('',(-3.05777626105952E-14,1.,0.));
#1187=DIRECTION('',(-1.,-3.05777626105952E-14,0.));
#1188=DIRECTION('',(-2.2933321957945E-14,-1.,0.));
#1189=DIRECTION('',(1.,-2.2933321957945E-14,0.));
#1190=DIRECTION('',(0.,0.,-1.));
#1191=DIRECTION('',(0.,0.,-1.));
#1192=DIRECTION('',(3.05777626105952E-14,1.,0.));
#1193=DIRECTION('',(-1.,3.05777626105952E-14,0.));
#1194=DIRECTION('',(0.,0.,-1.));
#1195=DIRECTION('',(0.,0.,-1.));
#1196=DIRECTION('',(-0.866025403784414,0.500000000000043,0.));
#1197=DIRECTION('',(-0.500000000000043,-0.866025403784414,0.));
#1198=DIRECTION('',(0.,0.,-1.));
#1199=DIRECTION('',(-0.866025403784459,-0.499999999999966,0.));
#1200=DIRECTION('',(0.499999999999966,-0.866025403784459,0.));
#1201=DIRECTION('',(0.866025403784436,-0.500000000000006,0.));
#1202=DIRECTION('',(0.500000000000006,0.866025403784436,0.));
#1203=DIRECTION('',(0.,0.,-1.));
#1204=DIRECTION('',(0.866025403784431,0.500000000000013,0.));
#1205=DIRECTION('',(-0.500000000000013,0.866025403784431,0.));
#1206=CARTESIAN_POINT('',(0.,0.,0.));
#1207=CARTESIAN_POINT('',(0.,0.,0.003378));
#1208=CARTESIAN_POINT('',(0.00211007089632061,0.00121824999999979,0.003378));
#1209=CARTESIAN_POINT('',(-0.00238272456094551,0.009,0.003378));
#1210=CARTESIAN_POINT('',(-0.00127406280723785,0.00707974151416981,0.003378));
#1211=CARTESIAN_POINT('',(-0.00568415773773925,0.00328175000000043,0.003378));
#1212=CARTESIAN_POINT('',(-0.00119136228047262,0.0110635,0.003378));
#1213=CARTESIAN_POINT('',(3.38297076642318E-16,0.0110635,0.003378));
#1214=CARTESIAN_POINT('',(0.00119136228047287,0.0110635,0.003378));
#1215=CARTESIAN_POINT('',(0.00568415773773925,0.00328175000000016,0.003378));
#1216=CARTESIAN_POINT('',(0.00238272456094569,0.009,0.003378));
#1217=CARTESIAN_POINT('',(-0.0021100708963207,0.00121824999999997,0.003378));
#1218=CARTESIAN_POINT('',(0.00127406280723801,0.00707974151416981,0.003378));
#1219=CARTESIAN_POINT('',(0.0023,0.00707974151416981,0.003378));
#1220=CARTESIAN_POINT('',(0.0023,0.00707974151416981,0.003378));
#1221=CARTESIAN_POINT('',(0.0023,0.0048,0.003378));
#1222=CARTESIAN_POINT('',(0.00457974151416981,0.0048,0.003378));
#1223=CARTESIAN_POINT('',(0.00457974151416981,-0.0048,0.003378));
#1224=CARTESIAN_POINT('',(0.00457974151416981,-0.0048,0.003378));
#1225=CARTESIAN_POINT('',(0.0023,-0.0048,0.003378));
#1226=CARTESIAN_POINT('',(0.0023,-0.00707974151416981,0.003378));
#1227=CARTESIAN_POINT('',(-0.0023,-0.00707974151416981,0.003378));
#1228=CARTESIAN_POINT('',(0.00127406280723801,-0.00707974151416981,0.003378));
#1229=CARTESIAN_POINT('',(-0.0021100708963207,-0.00121824999999997,0.003378));
#1230=CARTESIAN_POINT('',(0.00238272456094569,-0.009,0.003378));
#1231=CARTESIAN_POINT('',(0.00568415773773925,-0.00328175000000016,0.003378));
#1232=CARTESIAN_POINT('',(0.00119136228047287,-0.0110635,0.003378));
#1233=CARTESIAN_POINT('',(3.38297076642318E-16,-0.0110635,0.003378));
#1234=CARTESIAN_POINT('',(-0.00119136228047262,-0.0110635,0.003378));
#1235=CARTESIAN_POINT('',(-0.00568415773773925,-0.00328175000000043,0.003378));
#1236=CARTESIAN_POINT('',(-0.00238272456094551,-0.009,0.003378));
#1237=CARTESIAN_POINT('',(0.00211007089632061,-0.00121824999999979,0.003378));
#1238=CARTESIAN_POINT('',(-0.00127406280723785,-0.00707974151416981,0.003378));
#1239=CARTESIAN_POINT('',(-0.0023,-0.00707974151416981,0.003378));
#1240=CARTESIAN_POINT('',(-0.0023,-0.00707974151416981,0.003378));
#1241=CARTESIAN_POINT('',(-0.0023,-0.0048,0.003378));
#1242=CARTESIAN_POINT('',(-0.00457974151416981,-0.0048,0.003378));
#1243=CARTESIAN_POINT('',(-0.00457974151416981,0.0048,0.003378));
#1244=CARTESIAN_POINT('',(-0.00457974151416981,0.0048,0.003378));
#1245=CARTESIAN_POINT('',(-0.0023,0.0048,0.003378));
#1246=CARTESIAN_POINT('',(-0.0023,0.00707974151416981,0.003378));
#1247=CARTESIAN_POINT('',(0.0023,0.00707974151416981,0.003378));
#1248=CARTESIAN_POINT('',(-0.006,0.006,0.003378));
#1249=CARTESIAN_POINT('',(-0.006,0.006,0.003378));
#1250=CARTESIAN_POINT('',(-0.006,-0.006,0.003378));
#1251=CARTESIAN_POINT('',(3.66433149649604E-19,-0.006,0.003378));
#1252=CARTESIAN_POINT('',(0.006,-0.006,0.003378));
#1253=CARTESIAN_POINT('',(0.006,-0.006,0.003378));
#1254=CARTESIAN_POINT('',(0.006,0.006,0.003378));
#1255=CARTESIAN_POINT('',(-3.72167562702515E-19,0.006,0.003378));
#1256=CARTESIAN_POINT('',(0.,-0.00707974151416981,0.00466574151416981));
#1257=CARTESIAN_POINT('',(0.00127406280723801,-0.00707974151416981,0.00466574151416981));
#1258=CARTESIAN_POINT('',(0.00119136228047288,-0.0069364999999999,0.00338599150892086));
#1259=CARTESIAN_POINT('',(0.0023,-0.00707974151416981,0.00466574151416981));
#1260=CARTESIAN_POINT('',(0.0023,-0.005792,0.00466574151416981));
#1261=CARTESIAN_POINT('',(0.0023,-0.005792,0.00466574151416981));
#1262=CARTESIAN_POINT('',(-0.0023,-0.005792,0.00466574151416981));
#1263=CARTESIAN_POINT('',(-0.0023,-0.00707974151416981,0.00466574151416981));
#1264=CARTESIAN_POINT('',(-0.00127406280723785,-0.00707974151416981,0.00466574151416981));
#1265=CARTESIAN_POINT('',(-0.00119136228047276,-0.0069365,0.00338599150892087));
#1266=CARTESIAN_POINT('',(-3.28500376220154E-18,-0.00693649999999992,0.00338599150892086));
#1267=CARTESIAN_POINT('',(0.,-0.0225646088173536,0.007425));
#1268=CARTESIAN_POINT('',(0.0025527052,0.00391385232620514,0.007425));
#1269=CARTESIAN_POINT('',(0.0025527052,0.0039472948,0.007425));
#1270=CARTESIAN_POINT('',(0.0025527052,-0.0051,0.007425));
#1271=CARTESIAN_POINT('',(0.0026,-0.0051,0.007425));
#1272=CARTESIAN_POINT('',(-0.0025527052,-0.0051,0.007425));
#1273=CARTESIAN_POINT('',(-0.0025527052,-0.000586147673794862,0.007425));
#1274=CARTESIAN_POINT('',(-0.0025527052,0.0039472948,0.007425));
#1275=CARTESIAN_POINT('',(-0.002,0.0045,0.007425));
#1276=CARTESIAN_POINT('',(-0.0014,0.0051,0.007425));
#1277=CARTESIAN_POINT('',(-0.0026,0.0051,0.007425));
#1278=CARTESIAN_POINT('',(0.0014,0.0051,0.007425));
#1279=CARTESIAN_POINT('',(0.002,0.0045,0.007425));
#1280=CARTESIAN_POINT('',(0.,-0.005792,0.007425));
#1281=CARTESIAN_POINT('',(0.0023,-0.005792,0.007425));
#1282=CARTESIAN_POINT('',(-0.0023,-0.005792,0.007425));
#1283=CARTESIAN_POINT('',(0.0023,-0.0048,0.007425));
#1284=CARTESIAN_POINT('',(0.003292,-0.0048,0.007425));
#1285=CARTESIAN_POINT('',(0.003292,-8.67361737988404E-19,0.007425));
#1286=CARTESIAN_POINT('',(0.003292,0.0048,0.007425));
#1287=CARTESIAN_POINT('',(0.0023,0.0048,0.007425));
#1288=CARTESIAN_POINT('',(0.0023,0.005792,0.007425));
#1289=CARTESIAN_POINT('',(0.,0.005792,0.007425));
#1290=CARTESIAN_POINT('',(-0.0023,0.005792,0.007425));
#1291=CARTESIAN_POINT('',(-0.0023,0.0048,0.007425));
#1292=CARTESIAN_POINT('',(-0.003292,0.0048,0.007425));
#1293=CARTESIAN_POINT('',(-0.003292,8.67361737988404E-19,0.007425));
#1294=CARTESIAN_POINT('',(-0.003292,-0.0048,0.007425));
#1295=CARTESIAN_POINT('',(-0.0023,-0.0048,0.007425));
#1296=CARTESIAN_POINT('',(-0.0025527052,-0.000586147673794862,0.010602));
#1297=CARTESIAN_POINT('',(-0.0025527052,-0.0051,0.010602));
#1298=CARTESIAN_POINT('',(-0.0025527052,-0.0051,0.));
#1299=CARTESIAN_POINT('',(-0.0025527052,-0.000586147673794862,0.));
#1300=CARTESIAN_POINT('',(-0.0025527052,0.0039472948,0.));
#1301=CARTESIAN_POINT('',(-0.0025527052,0.0039472948,0.010602));
#1302=CARTESIAN_POINT('',(0.0025527052,0.00391385232620514,0.010602));
#1303=CARTESIAN_POINT('',(0.0025527052,0.0039472948,0.010602));
#1304=CARTESIAN_POINT('',(0.0025527052,0.0039472948,0.));
#1305=CARTESIAN_POINT('',(0.0025527052,0.00391385232620514,0.));
#1306=CARTESIAN_POINT('',(0.0025527052,-0.0051,0.));
#1307=CARTESIAN_POINT('',(0.0025527052,-0.0051,0.010602));
#1308=CARTESIAN_POINT('',(-0.002,0.0045,0.));
#1309=CARTESIAN_POINT('',(-0.002625,0.003875,0.));
#1310=CARTESIAN_POINT('',(-0.0014,0.0051,-1.56489337005232E-19));
#1311=CARTESIAN_POINT('',(-0.0014,0.0051,-2.00000000000027E-6));
#1312=CARTESIAN_POINT('',(-0.0014,0.0051,0.005));
#1313=CARTESIAN_POINT('',(-0.0014,0.0051,0.));
#1314=CARTESIAN_POINT('',(0.002,0.0045,0.));
#1315=CARTESIAN_POINT('',(0.0014,0.0051,0.));
#1316=CARTESIAN_POINT('',(0.0014,0.0051,0.005));
#1317=CARTESIAN_POINT('',(0.0014,0.0051,-2.00000000000027E-6));
#1318=CARTESIAN_POINT('',(0.0014,0.0051,-2.08793621498185E-19));
#1319=CARTESIAN_POINT('',(0.002625,0.003875,0.));
#1320=CARTESIAN_POINT('',(0.,0.,0.0016));
#1321=CARTESIAN_POINT('',(2.81892564846231E-18,-0.009,0.0016));
#1322=CARTESIAN_POINT('',(0.001143,-0.009,0.0016));
#1323=CARTESIAN_POINT('',(0.00178704342070928,-0.01003175,0.0016));
#1324=CARTESIAN_POINT('',(0.00119136228047287,-0.0110635,0.0016));
#1325=CARTESIAN_POINT('',(0.00238272456094569,-0.009,0.0016));
#1326=CARTESIAN_POINT('',(0.00178704342070928,-0.0079682499999999,0.0016));
#1327=CARTESIAN_POINT('',(0.00119136228047288,-0.0069364999999999,0.0016));
#1328=CARTESIAN_POINT('',(5.87637577487143E-17,-0.00693649999999992,0.0016));
#1329=CARTESIAN_POINT('',(-0.00119136228047276,-0.0069365,0.0016));
#1330=CARTESIAN_POINT('',(-0.00178704342070913,-0.00796825,0.0016));
#1331=CARTESIAN_POINT('',(-0.00238272456094551,-0.009,0.0016));
#1332=CARTESIAN_POINT('',(-0.00178704342070906,-0.01003175,0.0016));
#1333=CARTESIAN_POINT('',(-0.00119136228047262,-0.0110635,0.0016));
#1334=CARTESIAN_POINT('',(1.22948526359856E-16,-0.0110635,0.0016));
#1335=CARTESIAN_POINT('',(0.0026,-0.0051,0.));
#1336=CARTESIAN_POINT('',(0.0013,-0.0051,0.));
#1337=CARTESIAN_POINT('',(0.,0.,0.));
#1338=CARTESIAN_POINT('',(3.66433149649604E-19,-0.006,0.));
#1339=CARTESIAN_POINT('',(-0.006,-0.006,0.));
#1340=CARTESIAN_POINT('',(0.006,-0.006,0.));
#1341=CARTESIAN_POINT('',(-0.006,0.006,0.));
#1342=CARTESIAN_POINT('',(-0.006,0.006,0.));
#1343=CARTESIAN_POINT('',(-3.72167562702515E-19,0.006,0.));
#1344=CARTESIAN_POINT('',(0.006,0.006,0.));
#1345=CARTESIAN_POINT('',(0.006,-0.006,0.));
#1346=CARTESIAN_POINT('',(-0.0013,0.0051,0.));
#1347=CARTESIAN_POINT('',(-1.51788304147971E-18,0.009,0.));
#1348=CARTESIAN_POINT('',(-0.001143,0.009,0.));
#1349=CARTESIAN_POINT('',(2.81892564846231E-18,-0.009,0.));
#1350=CARTESIAN_POINT('',(-0.001143,-0.009,0.));
#1351=CARTESIAN_POINT('',(0.,0.,0.0016));
#1352=CARTESIAN_POINT('',(-1.51788304147971E-18,0.009,0.0016));
#1353=CARTESIAN_POINT('',(0.001143,0.009,0.0016));
#1354=CARTESIAN_POINT('',(1.22948526359856E-16,0.0110635,0.0016));
#1355=CARTESIAN_POINT('',(-0.00119136228047262,0.0110635,0.0016));
#1356=CARTESIAN_POINT('',(0.00119136228047287,0.0110635,0.0016));
#1357=CARTESIAN_POINT('',(-0.00178704342070906,0.01003175,0.0016));
#1358=CARTESIAN_POINT('',(-0.00238272456094551,0.009,0.0016));
#1359=CARTESIAN_POINT('',(-0.00178704342070913,0.00796825,0.0016));
#1360=CARTESIAN_POINT('',(-0.00119136228047276,0.0069365,0.0016));
#1361=CARTESIAN_POINT('',(5.87637577487143E-17,0.00693649999999992,0.0016));
#1362=CARTESIAN_POINT('',(0.00119136228047288,0.0069364999999999,0.0016));
#1363=CARTESIAN_POINT('',(0.00178704342070928,0.0079682499999999,0.0016));
#1364=CARTESIAN_POINT('',(0.00238272456094569,0.009,0.0016));
#1365=CARTESIAN_POINT('',(0.00178704342070928,0.01003175,0.0016));
#1366=CARTESIAN_POINT('',(3.66433149649604E-19,-0.006,0.));
#1367=CARTESIAN_POINT('',(0.006,-0.006,0.));
#1368=CARTESIAN_POINT('',(0.006,-0.006,0.0016));
#1369=CARTESIAN_POINT('',(0.006,-0.006,0.003378));
#1370=CARTESIAN_POINT('',(-0.006,-0.006,0.003378));
#1371=CARTESIAN_POINT('',(-0.006,-0.006,0.0016));
#1372=CARTESIAN_POINT('',(-0.006,-0.006,0.));
#1373=CARTESIAN_POINT('',(0.006,-0.006,0.));
#1374=CARTESIAN_POINT('',(0.006,0.006,0.));
#1375=CARTESIAN_POINT('',(0.006,0.006,0.0016));
#1376=CARTESIAN_POINT('',(0.006,0.006,0.003378));
#1377=CARTESIAN_POINT('',(-3.72167562702515E-19,0.006,0.));
#1378=CARTESIAN_POINT('',(-0.006,0.006,0.));
#1379=CARTESIAN_POINT('',(-0.006,0.006,0.0016));
#1380=CARTESIAN_POINT('',(-0.006,0.006,0.003378));
#1381=CARTESIAN_POINT('',(-0.006,0.006,0.));
#1382=CARTESIAN_POINT('',(-0.0026,0.0051,0.));
#1383=CARTESIAN_POINT('',(-1.51788304147971E-18,0.009,0.0254));
#1384=CARTESIAN_POINT('',(2.81892564846231E-18,-0.009,0.0254));
#1385=CARTESIAN_POINT('',(-0.003292,8.67361737988404E-19,0.003376));
#1386=CARTESIAN_POINT('',(-0.003292,0.0048,0.003376));
#1387=CARTESIAN_POINT('',(-0.003292,0.0048,0.00466574151416981));
#1388=CARTESIAN_POINT('',(-0.003292,-0.0048,0.00466574151416981));
#1389=CARTESIAN_POINT('',(-0.003292,-0.0048,0.00466574151416981));
#1390=CARTESIAN_POINT('',(-0.003292,-0.0048,0.003376));
#1391=CARTESIAN_POINT('',(0.003292,-8.67361737988404E-19,0.003376));
#1392=CARTESIAN_POINT('',(0.003292,-0.0048,0.003376));
#1393=CARTESIAN_POINT('',(0.003292,-0.0048,0.00466574151416981));
#1394=CARTESIAN_POINT('',(0.003292,0.0048,0.00466574151416981));
#1395=CARTESIAN_POINT('',(0.003292,0.0048,0.00466574151416981));
#1396=CARTESIAN_POINT('',(0.003292,0.0048,0.003376));
#1397=CARTESIAN_POINT('',(4.33680868994202E-19,0.005792,0.003376));
#1398=CARTESIAN_POINT('',(0.0023,0.005792,0.003376));
#1399=CARTESIAN_POINT('',(0.0023,0.005792,0.00466574151416981));
#1400=CARTESIAN_POINT('',(-0.0023,0.005792,0.00466574151416981));
#1401=CARTESIAN_POINT('',(-0.0023,0.005792,0.00466574151416981));
#1402=CARTESIAN_POINT('',(-0.0023,0.005792,0.003376));
#1403=CARTESIAN_POINT('',(-0.0023,-0.0048,0.003376));
#1404=CARTESIAN_POINT('',(-0.0023,-0.0048,0.00466574151416981));
#1405=CARTESIAN_POINT('',(-0.0023,-0.005792,0.003376));
#1406=CARTESIAN_POINT('',(-8.67361737988404E-19,-0.005792,0.003376));
#1407=CARTESIAN_POINT('',(0.0023,-0.005792,0.003376));
#1408=CARTESIAN_POINT('',(0.0023,-0.0048,0.003376));
#1409=CARTESIAN_POINT('',(0.0023,-0.0048,0.00466574151416981));
#1410=CARTESIAN_POINT('',(0.0023,0.0048,0.003376));
#1411=CARTESIAN_POINT('',(0.0023,0.0048,0.00466574151416981));
#1412=CARTESIAN_POINT('',(-0.0023,0.0048,0.003376));
#1413=CARTESIAN_POINT('',(-0.0023,0.0048,0.00466574151416981));
#1414=CARTESIAN_POINT('',(0.0023,0.0048,0.00466574151416981));
#1415=CARTESIAN_POINT('',(0.0023,0.00707974151416981,0.00466574151416981));
#1416=CARTESIAN_POINT('',(0.00457974151416981,0.0048,0.00466574151416981));
#1417=CARTESIAN_POINT('',(0.00457974151416981,-2.06890237461874E-19,0.00466574151416981));
#1418=CARTESIAN_POINT('',(0.00457974151416981,-0.0048,0.00466574151416981));
#1419=CARTESIAN_POINT('',(0.,0.00707974151416981,0.00466574151416981));
#1420=CARTESIAN_POINT('',(-3.28500376220154E-18,0.00693649999999992,0.00338599150892086));
#1421=CARTESIAN_POINT('',(0.00119136228047288,0.0069364999999999,0.00338599150892087));
#1422=CARTESIAN_POINT('',(-0.00119136228047276,0.0069365,0.00338599150892086));
#1423=CARTESIAN_POINT('',(-0.00127406280723785,0.00707974151416981,0.00466574151416981));
#1424=CARTESIAN_POINT('',(-0.0023,0.00707974151416981,0.00466574151416981));
#1425=CARTESIAN_POINT('',(0.00127406280723801,0.00707974151416981,0.00466574151416981));
#1426=CARTESIAN_POINT('',(0.0023,-0.0048,0.00466574151416981));
#1427=CARTESIAN_POINT('',(-0.0023,0.0048,0.00466574151416981));
#1428=CARTESIAN_POINT('',(-0.00457974151416981,0.0048,0.00466574151416981));
#1429=CARTESIAN_POINT('',(-0.00457974151416981,-2.06890237461874E-19,0.00466574151416981));
#1430=CARTESIAN_POINT('',(-0.00457974151416981,-0.0048,0.00466574151416981));
#1431=CARTESIAN_POINT('',(-0.0023,-0.0048,0.00466574151416981));
#1432=CARTESIAN_POINT('',(5.87637577487143E-17,-0.00693649999999992,0.0304636900803433));
#1433=CARTESIAN_POINT('',(-0.00119136228047276,-0.0069365,0.0304636900803433));
#1434=CARTESIAN_POINT('',(0.00119136228047288,-0.0069364999999999,0.0304636900803433));
#1435=CARTESIAN_POINT('',(0.00178704342070928,-0.01003175,0.0304636900803433));
#1436=CARTESIAN_POINT('',(0.00238272456094569,-0.009,0.0304636900803433));
#1437=CARTESIAN_POINT('',(0.00119136228047287,-0.0110635,0.0304636900803433));
#1438=CARTESIAN_POINT('',(0.00178704342070928,-0.0079682499999999,0.0304636900803433));
#1439=CARTESIAN_POINT('',(-0.00178704342070913,-0.00796825,0.0304636900803433));
#1440=CARTESIAN_POINT('',(-0.00238272456094551,-0.009,0.0304636900803433));
#1441=CARTESIAN_POINT('',(-0.00178704342070906,-0.01003175,0.0304636900803433));
#1442=CARTESIAN_POINT('',(-0.00119136228047262,-0.0110635,0.0304636900803433));
#1443=CARTESIAN_POINT('',(1.22948526359856E-16,-0.0110635,0.0304636900803433));
#1444=CARTESIAN_POINT('',(5.87637577487143E-17,0.00693649999999992,0.0304636900803433));
#1445=CARTESIAN_POINT('',(0.00119136228047288,0.0069364999999999,0.0304636900803433));
#1446=CARTESIAN_POINT('',(-0.00119136228047276,0.0069365,0.0304636900803433));
#1447=CARTESIAN_POINT('',(1.22948526359856E-16,0.0110635,0.0304636900803433));
#1448=CARTESIAN_POINT('',(-0.00119136228047262,0.0110635,0.0304636900803433));
#1449=CARTESIAN_POINT('',(0.00119136228047287,0.0110635,0.0304636900803433));
#1450=CARTESIAN_POINT('',(-0.00178704342070906,0.01003175,0.0304636900803433));
#1451=CARTESIAN_POINT('',(-0.00238272456094551,0.009,0.0304636900803433));
#1452=CARTESIAN_POINT('',(-0.00178704342070913,0.00796825,0.0304636900803433));
#1453=CARTESIAN_POINT('',(0.00178704342070928,0.0079682499999999,0.0304636900803433));
#1454=CARTESIAN_POINT('',(0.00238272456094569,0.009,0.0304636900803433));
#1455=CARTESIAN_POINT('',(0.00178704342070928,0.01003175,0.0304636900803433));
#1456=MECHANICAL_DESIGN_GEOMETRIC_PRESENTATION_REPRESENTATION('',(#871),
#1457);
#1457=(
GEOMETRIC_REPRESENTATION_CONTEXT(3)
GLOBAL_UNCERTAINTY_ASSIGNED_CONTEXT((#1458))
GLOBAL_UNIT_ASSIGNED_CONTEXT((#1461,#1460,#1459))
REPRESENTATION_CONTEXT('XT30_Rahmen_1-Fach','TOP_LEVEL_ASSEMBLY_PART')
);
#1458=UNCERTAINTY_MEASURE_WITH_UNIT(LENGTH_MEASURE(1.E-6),#1461,
'DISTANCE_ACCURACY_VALUE','Maximum Tolerance applied to model');
#1459=(
NAMED_UNIT(*)
SI_UNIT($,.STERADIAN.)
SOLID_ANGLE_UNIT()
);
#1460=(
NAMED_UNIT(*)
PLANE_ANGLE_UNIT()
SI_UNIT($,.RADIAN.)
);
#1461=(
LENGTH_UNIT()
NAMED_UNIT(*)
SI_UNIT($,.METRE.)
);
#1462=PRODUCT_DEFINITION_SHAPE('','',#1463);
#1463=PRODUCT_DEFINITION('','',#1465,#1464);
#1464=PRODUCT_DEFINITION_CONTEXT('',#1471,'design');
#1465=PRODUCT_DEFINITION_FORMATION_WITH_SPECIFIED_SOURCE('','',#1467,
 .NOT_KNOWN.);
#1466=PRODUCT_RELATED_PRODUCT_CATEGORY('','',(#1467));
#1467=PRODUCT('XT30_Rahmen_1-Fach','XT30_Rahmen_1-Fach',
'XT30_Rahmen_1-Fach',(#1469));
#1468=PRODUCT_CATEGORY('','');
#1469=PRODUCT_CONTEXT('',#1471,'mechanical');
#1470=APPLICATION_PROTOCOL_DEFINITION('international standard',
'ap242_managed_model_based_3d_engineering',2020,#1471);
#1471=APPLICATION_CONTEXT('managed model based 3d engineering');
ENDSEC;
END-ISO-10303-21;
