ISO-10303-21;
HEADER;
/* Generated by software containing ST-Developer
 * from STEP Tools, Inc. (www.steptools.com) 
 */
/* OPTION: using custom renumber hook */

FILE_DESCRIPTION(
/* description */ ('STEP AP242 Edition 2',
'CAx-IF Rec.Pracs.---Representation and Presentation of Product Manufa
cturing Information (PMI)---4.0---2014-10-13',
'CAx-IF Rec.Pracs.---3D Tessellated Geometry---0.4---2014-09-14','2;1',
'CAx-IF Rec.Pracs.---User Defined Attributes---1.5---2016-08-15'),
/* implementation_level */ '2;1');

FILE_NAME(
/* name */ 'T2-001-V1.2(3D) - Part 3',
/* time_stamp */ '2026-06-05T01:21:37Z',
/* author */ (''),
/* organization */ (''),
/* preprocessor_version */ 'ST-DEVELOPER v20',
/* originating_system */ 'ONSHAPE BY PTC INC, 1.215',
/* authorisation */ '  ');

FILE_SCHEMA (('AP242_MANAGED_MODEL_BASED_3D_ENGINEERING_MIM_LF { 1 0 10303 442 3 1 4 }'));
ENDSEC;

DATA;
#10=SHAPE_REPRESENTATION_RELATIONSHIP('','',#1025,#11);
#11=ADVANCED_BREP_SHAPE_REPRESENTATION('',(#1023),#1699);
#12=CIRCLE('',#1034,0.0032045);
#13=CIRCLE('',#1035,0.0032045);
#14=CIRCLE('',#1037,0.0032045);
#15=CIRCLE('',#1038,0.0032045);
#16=CIRCLE('',#1040,0.0032045);
#17=CIRCLE('',#1041,0.0032045);
#18=CIRCLE('',#1043,0.0032045);
#19=CIRCLE('',#1044,0.0032045);
#20=CIRCLE('',#1046,0.001754);
#21=CIRCLE('',#1047,0.001754);
#22=CIRCLE('',#1048,0.001754);
#23=CIRCLE('',#1049,0.001754);
#24=CIRCLE('',#1051,0.000919815367264149);
#25=CIRCLE('',#1052,0.000919815367264149);
#26=CIRCLE('',#1053,0.000919815367264149);
#27=CIRCLE('',#1054,0.000919815367264149);
#28=CIRCLE('',#1057,0.003659);
#29=CIRCLE('',#1058,0.003659);
#30=CIRCLE('',#1060,0.003659);
#31=CIRCLE('',#1061,0.003659);
#32=CIRCLE('',#1063,0.003659);
#33=CIRCLE('',#1064,0.003659);
#34=CIRCLE('',#1066,0.003659);
#35=CIRCLE('',#1067,0.003659);
#36=CIRCLE('',#1069,0.001754);
#37=CIRCLE('',#1070,0.001754);
#38=CIRCLE('',#1071,0.001754);
#39=CIRCLE('',#1072,0.001754);
#40=CIRCLE('',#1073,0.001143);
#41=CIRCLE('',#1074,0.001143);
#42=CIRCLE('',#1075,0.001143);
#43=CIRCLE('',#1076,0.001143);
#44=CIRCLE('',#1080,0.000919815367264149);
#45=CIRCLE('',#1081,0.000919815367264149);
#46=CIRCLE('',#1082,0.000919815367264149);
#47=CIRCLE('',#1083,0.000919815367264149);
#48=CIRCLE('',#1098,0.001143);
#49=CIRCLE('',#1100,0.001143);
#50=CIRCLE('',#1102,0.001143);
#51=CIRCLE('',#1104,0.001143);
#52=CYLINDRICAL_SURFACE('',#1033,0.0032045);
#53=CYLINDRICAL_SURFACE('',#1036,0.0032045);
#54=CYLINDRICAL_SURFACE('',#1039,0.0032045);
#55=CYLINDRICAL_SURFACE('',#1042,0.0032045);
#56=CYLINDRICAL_SURFACE('',#1056,0.003659);
#57=CYLINDRICAL_SURFACE('',#1059,0.003659);
#58=CYLINDRICAL_SURFACE('',#1062,0.003659);
#59=CYLINDRICAL_SURFACE('',#1065,0.003659);
#60=CYLINDRICAL_SURFACE('',#1084,0.001754);
#61=CYLINDRICAL_SURFACE('',#1085,0.001754);
#62=CYLINDRICAL_SURFACE('',#1086,0.001754);
#63=CYLINDRICAL_SURFACE('',#1087,0.001754);
#64=CYLINDRICAL_SURFACE('',#1093,0.000919815367264149);
#65=CYLINDRICAL_SURFACE('',#1094,0.000919815367264149);
#66=CYLINDRICAL_SURFACE('',#1095,0.000919815367264149);
#67=CYLINDRICAL_SURFACE('',#1096,0.000919815367264149);
#68=CYLINDRICAL_SURFACE('',#1097,0.001143);
#69=CYLINDRICAL_SURFACE('',#1099,0.001143);
#70=CYLINDRICAL_SURFACE('',#1101,0.001143);
#71=CYLINDRICAL_SURFACE('',#1103,0.001143);
#72=ORIENTED_EDGE('',*,*,#352,.F.);
#73=ORIENTED_EDGE('',*,*,#353,.T.);
#74=ORIENTED_EDGE('',*,*,#354,.T.);
#75=ORIENTED_EDGE('',*,*,#355,.F.);
#76=ORIENTED_EDGE('',*,*,#356,.F.);
#77=ORIENTED_EDGE('',*,*,#357,.T.);
#78=ORIENTED_EDGE('',*,*,#358,.T.);
#79=ORIENTED_EDGE('',*,*,#359,.F.);
#80=ORIENTED_EDGE('',*,*,#360,.F.);
#81=ORIENTED_EDGE('',*,*,#361,.T.);
#82=ORIENTED_EDGE('',*,*,#362,.T.);
#83=ORIENTED_EDGE('',*,*,#363,.F.);
#84=ORIENTED_EDGE('',*,*,#364,.F.);
#85=ORIENTED_EDGE('',*,*,#365,.T.);
#86=ORIENTED_EDGE('',*,*,#366,.T.);
#87=ORIENTED_EDGE('',*,*,#367,.F.);
#88=ORIENTED_EDGE('',*,*,#368,.F.);
#89=ORIENTED_EDGE('',*,*,#369,.F.);
#90=ORIENTED_EDGE('',*,*,#370,.F.);
#91=ORIENTED_EDGE('',*,*,#371,.T.);
#92=ORIENTED_EDGE('',*,*,#372,.F.);
#93=ORIENTED_EDGE('',*,*,#373,.T.);
#94=ORIENTED_EDGE('',*,*,#374,.F.);
#95=ORIENTED_EDGE('',*,*,#375,.F.);
#96=ORIENTED_EDGE('',*,*,#376,.F.);
#97=ORIENTED_EDGE('',*,*,#377,.F.);
#98=ORIENTED_EDGE('',*,*,#378,.F.);
#99=ORIENTED_EDGE('',*,*,#379,.T.);
#100=ORIENTED_EDGE('',*,*,#380,.F.);
#101=ORIENTED_EDGE('',*,*,#381,.T.);
#102=ORIENTED_EDGE('',*,*,#382,.F.);
#103=ORIENTED_EDGE('',*,*,#383,.F.);
#104=ORIENTED_EDGE('',*,*,#381,.F.);
#105=ORIENTED_EDGE('',*,*,#384,.T.);
#106=ORIENTED_EDGE('',*,*,#355,.T.);
#107=ORIENTED_EDGE('',*,*,#385,.F.);
#108=ORIENTED_EDGE('',*,*,#357,.F.);
#109=ORIENTED_EDGE('',*,*,#386,.T.);
#110=ORIENTED_EDGE('',*,*,#375,.T.);
#111=ORIENTED_EDGE('',*,*,#387,.F.);
#112=ORIENTED_EDGE('',*,*,#373,.F.);
#113=ORIENTED_EDGE('',*,*,#388,.T.);
#114=ORIENTED_EDGE('',*,*,#363,.T.);
#115=ORIENTED_EDGE('',*,*,#389,.F.);
#116=ORIENTED_EDGE('',*,*,#365,.F.);
#117=ORIENTED_EDGE('',*,*,#390,.T.);
#118=ORIENTED_EDGE('',*,*,#383,.T.);
#119=ORIENTED_EDGE('',*,*,#391,.F.);
#120=ORIENTED_EDGE('',*,*,#392,.F.);
#121=ORIENTED_EDGE('',*,*,#393,.F.);
#122=ORIENTED_EDGE('',*,*,#394,.T.);
#123=ORIENTED_EDGE('',*,*,#395,.T.);
#124=ORIENTED_EDGE('',*,*,#396,.T.);
#125=ORIENTED_EDGE('',*,*,#397,.T.);
#126=ORIENTED_EDGE('',*,*,#398,.F.);
#127=ORIENTED_EDGE('',*,*,#399,.F.);
#128=ORIENTED_EDGE('',*,*,#400,.T.);
#129=ORIENTED_EDGE('',*,*,#401,.T.);
#130=ORIENTED_EDGE('',*,*,#402,.T.);
#131=ORIENTED_EDGE('',*,*,#403,.T.);
#132=ORIENTED_EDGE('',*,*,#404,.T.);
#133=ORIENTED_EDGE('',*,*,#405,.T.);
#134=ORIENTED_EDGE('',*,*,#406,.T.);
#135=ORIENTED_EDGE('',*,*,#407,.T.);
#136=ORIENTED_EDGE('',*,*,#408,.T.);
#137=ORIENTED_EDGE('',*,*,#409,.F.);
#138=ORIENTED_EDGE('',*,*,#367,.T.);
#139=ORIENTED_EDGE('',*,*,#410,.F.);
#140=ORIENTED_EDGE('',*,*,#361,.F.);
#141=ORIENTED_EDGE('',*,*,#411,.F.);
#142=ORIENTED_EDGE('',*,*,#412,.F.);
#143=ORIENTED_EDGE('',*,*,#413,.F.);
#144=ORIENTED_EDGE('',*,*,#414,.T.);
#145=ORIENTED_EDGE('',*,*,#415,.T.);
#146=ORIENTED_EDGE('',*,*,#416,.T.);
#147=ORIENTED_EDGE('',*,*,#417,.T.);
#148=ORIENTED_EDGE('',*,*,#418,.F.);
#149=ORIENTED_EDGE('',*,*,#419,.T.);
#150=ORIENTED_EDGE('',*,*,#420,.F.);
#151=ORIENTED_EDGE('',*,*,#421,.T.);
#152=ORIENTED_EDGE('',*,*,#353,.F.);
#153=ORIENTED_EDGE('',*,*,#422,.F.);
#154=ORIENTED_EDGE('',*,*,#423,.F.);
#155=ORIENTED_EDGE('',*,*,#424,.F.);
#156=ORIENTED_EDGE('',*,*,#425,.T.);
#157=ORIENTED_EDGE('',*,*,#426,.F.);
#158=ORIENTED_EDGE('',*,*,#359,.T.);
#159=ORIENTED_EDGE('',*,*,#427,.F.);
#160=ORIENTED_EDGE('',*,*,#377,.T.);
#161=ORIENTED_EDGE('',*,*,#428,.F.);
#162=ORIENTED_EDGE('',*,*,#408,.F.);
#163=ORIENTED_EDGE('',*,*,#429,.F.);
#164=ORIENTED_EDGE('',*,*,#412,.T.);
#165=ORIENTED_EDGE('',*,*,#430,.F.);
#166=ORIENTED_EDGE('',*,*,#371,.F.);
#167=ORIENTED_EDGE('',*,*,#431,.F.);
#168=ORIENTED_EDGE('',*,*,#369,.T.);
#169=ORIENTED_EDGE('',*,*,#432,.F.);
#170=ORIENTED_EDGE('',*,*,#425,.F.);
#171=ORIENTED_EDGE('',*,*,#433,.F.);
#172=ORIENTED_EDGE('',*,*,#423,.T.);
#173=ORIENTED_EDGE('',*,*,#434,.F.);
#174=ORIENTED_EDGE('',*,*,#379,.F.);
#175=ORIENTED_EDGE('',*,*,#435,.F.);
#176=ORIENTED_EDGE('',*,*,#354,.F.);
#177=ORIENTED_EDGE('',*,*,#427,.T.);
#178=ORIENTED_EDGE('',*,*,#358,.F.);
#179=ORIENTED_EDGE('',*,*,#387,.T.);
#180=ORIENTED_EDGE('',*,*,#374,.T.);
#181=ORIENTED_EDGE('',*,*,#389,.T.);
#182=ORIENTED_EDGE('',*,*,#362,.F.);
#183=ORIENTED_EDGE('',*,*,#410,.T.);
#184=ORIENTED_EDGE('',*,*,#366,.F.);
#185=ORIENTED_EDGE('',*,*,#391,.T.);
#186=ORIENTED_EDGE('',*,*,#382,.T.);
#187=ORIENTED_EDGE('',*,*,#385,.T.);
#188=ORIENTED_EDGE('',*,*,#436,.F.);
#189=ORIENTED_EDGE('',*,*,#437,.F.);
#190=ORIENTED_EDGE('',*,*,#438,.F.);
#191=ORIENTED_EDGE('',*,*,#439,.F.);
#192=ORIENTED_EDGE('',*,*,#440,.F.);
#193=ORIENTED_EDGE('',*,*,#441,.F.);
#194=ORIENTED_EDGE('',*,*,#442,.F.);
#195=ORIENTED_EDGE('',*,*,#443,.F.);
#196=ORIENTED_EDGE('',*,*,#444,.F.);
#197=ORIENTED_EDGE('',*,*,#445,.F.);
#198=ORIENTED_EDGE('',*,*,#446,.F.);
#199=ORIENTED_EDGE('',*,*,#447,.F.);
#200=ORIENTED_EDGE('',*,*,#448,.T.);
#201=ORIENTED_EDGE('',*,*,#405,.F.);
#202=ORIENTED_EDGE('',*,*,#449,.F.);
#203=ORIENTED_EDGE('',*,*,#442,.T.);
#204=ORIENTED_EDGE('',*,*,#450,.T.);
#205=ORIENTED_EDGE('',*,*,#401,.F.);
#206=ORIENTED_EDGE('',*,*,#451,.F.);
#207=ORIENTED_EDGE('',*,*,#438,.T.);
#208=ORIENTED_EDGE('',*,*,#452,.T.);
#209=ORIENTED_EDGE('',*,*,#403,.F.);
#210=ORIENTED_EDGE('',*,*,#453,.F.);
#211=ORIENTED_EDGE('',*,*,#436,.T.);
#212=ORIENTED_EDGE('',*,*,#454,.F.);
#213=ORIENTED_EDGE('',*,*,#455,.T.);
#214=ORIENTED_EDGE('',*,*,#456,.T.);
#215=ORIENTED_EDGE('',*,*,#457,.T.);
#216=ORIENTED_EDGE('',*,*,#458,.T.);
#217=ORIENTED_EDGE('',*,*,#459,.T.);
#218=ORIENTED_EDGE('',*,*,#460,.F.);
#219=ORIENTED_EDGE('',*,*,#461,.T.);
#220=ORIENTED_EDGE('',*,*,#462,.T.);
#221=ORIENTED_EDGE('',*,*,#406,.F.);
#222=ORIENTED_EDGE('',*,*,#448,.F.);
#223=ORIENTED_EDGE('',*,*,#441,.T.);
#224=ORIENTED_EDGE('',*,*,#451,.T.);
#225=ORIENTED_EDGE('',*,*,#400,.F.);
#226=ORIENTED_EDGE('',*,*,#463,.F.);
#227=ORIENTED_EDGE('',*,*,#439,.T.);
#228=ORIENTED_EDGE('',*,*,#449,.T.);
#229=ORIENTED_EDGE('',*,*,#404,.F.);
#230=ORIENTED_EDGE('',*,*,#452,.F.);
#231=ORIENTED_EDGE('',*,*,#443,.T.);
#232=ORIENTED_EDGE('',*,*,#453,.T.);
#233=ORIENTED_EDGE('',*,*,#402,.F.);
#234=ORIENTED_EDGE('',*,*,#450,.F.);
#235=ORIENTED_EDGE('',*,*,#437,.T.);
#236=ORIENTED_EDGE('',*,*,#463,.T.);
#237=ORIENTED_EDGE('',*,*,#407,.F.);
#238=ORIENTED_EDGE('',*,*,#462,.F.);
#239=ORIENTED_EDGE('',*,*,#440,.T.);
#240=ORIENTED_EDGE('',*,*,#414,.F.);
#241=ORIENTED_EDGE('',*,*,#464,.T.);
#242=ORIENTED_EDGE('',*,*,#454,.T.);
#243=ORIENTED_EDGE('',*,*,#465,.T.);
#244=ORIENTED_EDGE('',*,*,#456,.F.);
#245=ORIENTED_EDGE('',*,*,#466,.T.);
#246=ORIENTED_EDGE('',*,*,#420,.T.);
#247=ORIENTED_EDGE('',*,*,#467,.T.);
#248=ORIENTED_EDGE('',*,*,#458,.F.);
#249=ORIENTED_EDGE('',*,*,#468,.T.);
#250=ORIENTED_EDGE('',*,*,#418,.T.);
#251=ORIENTED_EDGE('',*,*,#469,.T.);
#252=ORIENTED_EDGE('',*,*,#416,.F.);
#253=ORIENTED_EDGE('',*,*,#470,.T.);
#254=ORIENTED_EDGE('',*,*,#460,.T.);
#255=ORIENTED_EDGE('',*,*,#471,.T.);
#256=ORIENTED_EDGE('',*,*,#455,.F.);
#257=ORIENTED_EDGE('',*,*,#464,.F.);
#258=ORIENTED_EDGE('',*,*,#421,.F.);
#259=ORIENTED_EDGE('',*,*,#466,.F.);
#260=ORIENTED_EDGE('',*,*,#457,.F.);
#261=ORIENTED_EDGE('',*,*,#467,.F.);
#262=ORIENTED_EDGE('',*,*,#419,.F.);
#263=ORIENTED_EDGE('',*,*,#468,.F.);
#264=ORIENTED_EDGE('',*,*,#461,.F.);
#265=ORIENTED_EDGE('',*,*,#470,.F.);
#266=ORIENTED_EDGE('',*,*,#415,.F.);
#267=ORIENTED_EDGE('',*,*,#465,.F.);
#268=ORIENTED_EDGE('',*,*,#459,.F.);
#269=ORIENTED_EDGE('',*,*,#469,.F.);
#270=ORIENTED_EDGE('',*,*,#417,.F.);
#271=ORIENTED_EDGE('',*,*,#471,.F.);
#272=ORIENTED_EDGE('',*,*,#472,.F.);
#273=ORIENTED_EDGE('',*,*,#444,.T.);
#274=ORIENTED_EDGE('',*,*,#473,.F.);
#275=ORIENTED_EDGE('',*,*,#447,.T.);
#276=ORIENTED_EDGE('',*,*,#474,.F.);
#277=ORIENTED_EDGE('',*,*,#446,.T.);
#278=ORIENTED_EDGE('',*,*,#475,.F.);
#279=ORIENTED_EDGE('',*,*,#445,.T.);
#280=ORIENTED_EDGE('',*,*,#476,.T.);
#281=ORIENTED_EDGE('',*,*,#477,.T.);
#282=ORIENTED_EDGE('',*,*,#478,.F.);
#283=ORIENTED_EDGE('',*,*,#396,.F.);
#284=ORIENTED_EDGE('',*,*,#399,.T.);
#285=ORIENTED_EDGE('',*,*,#479,.T.);
#286=ORIENTED_EDGE('',*,*,#480,.F.);
#287=ORIENTED_EDGE('',*,*,#476,.F.);
#288=ORIENTED_EDGE('',*,*,#398,.T.);
#289=ORIENTED_EDGE('',*,*,#481,.T.);
#290=ORIENTED_EDGE('',*,*,#482,.F.);
#291=ORIENTED_EDGE('',*,*,#479,.F.);
#292=ORIENTED_EDGE('',*,*,#478,.T.);
#293=ORIENTED_EDGE('',*,*,#483,.T.);
#294=ORIENTED_EDGE('',*,*,#481,.F.);
#295=ORIENTED_EDGE('',*,*,#397,.F.);
#296=ORIENTED_EDGE('',*,*,#477,.F.);
#297=ORIENTED_EDGE('',*,*,#480,.T.);
#298=ORIENTED_EDGE('',*,*,#482,.T.);
#299=ORIENTED_EDGE('',*,*,#483,.F.);
#300=ORIENTED_EDGE('',*,*,#392,.T.);
#301=ORIENTED_EDGE('',*,*,#484,.T.);
#302=ORIENTED_EDGE('',*,*,#485,.T.);
#303=ORIENTED_EDGE('',*,*,#486,.F.);
#304=ORIENTED_EDGE('',*,*,#487,.T.);
#305=ORIENTED_EDGE('',*,*,#488,.F.);
#306=ORIENTED_EDGE('',*,*,#484,.F.);
#307=ORIENTED_EDGE('',*,*,#395,.F.);
#308=ORIENTED_EDGE('',*,*,#489,.T.);
#309=ORIENTED_EDGE('',*,*,#490,.F.);
#310=ORIENTED_EDGE('',*,*,#487,.F.);
#311=ORIENTED_EDGE('',*,*,#394,.F.);
#312=ORIENTED_EDGE('',*,*,#393,.T.);
#313=ORIENTED_EDGE('',*,*,#486,.T.);
#314=ORIENTED_EDGE('',*,*,#491,.T.);
#315=ORIENTED_EDGE('',*,*,#489,.F.);
#316=ORIENTED_EDGE('',*,*,#485,.F.);
#317=ORIENTED_EDGE('',*,*,#488,.T.);
#318=ORIENTED_EDGE('',*,*,#490,.T.);
#319=ORIENTED_EDGE('',*,*,#491,.F.);
#320=ORIENTED_EDGE('',*,*,#376,.T.);
#321=ORIENTED_EDGE('',*,*,#390,.F.);
#322=ORIENTED_EDGE('',*,*,#364,.T.);
#323=ORIENTED_EDGE('',*,*,#409,.T.);
#324=ORIENTED_EDGE('',*,*,#428,.T.);
#325=ORIENTED_EDGE('',*,*,#475,.T.);
#326=ORIENTED_EDGE('',*,*,#360,.T.);
#327=ORIENTED_EDGE('',*,*,#388,.F.);
#328=ORIENTED_EDGE('',*,*,#372,.T.);
#329=ORIENTED_EDGE('',*,*,#430,.T.);
#330=ORIENTED_EDGE('',*,*,#411,.T.);
#331=ORIENTED_EDGE('',*,*,#474,.T.);
#332=ORIENTED_EDGE('',*,*,#368,.T.);
#333=ORIENTED_EDGE('',*,*,#386,.F.);
#334=ORIENTED_EDGE('',*,*,#356,.T.);
#335=ORIENTED_EDGE('',*,*,#426,.T.);
#336=ORIENTED_EDGE('',*,*,#432,.T.);
#337=ORIENTED_EDGE('',*,*,#473,.T.);
#338=ORIENTED_EDGE('',*,*,#380,.T.);
#339=ORIENTED_EDGE('',*,*,#434,.T.);
#340=ORIENTED_EDGE('',*,*,#422,.T.);
#341=ORIENTED_EDGE('',*,*,#352,.T.);
#342=ORIENTED_EDGE('',*,*,#384,.F.);
#343=ORIENTED_EDGE('',*,*,#472,.T.);
#344=ORIENTED_EDGE('',*,*,#429,.T.);
#345=ORIENTED_EDGE('',*,*,#413,.T.);
#346=ORIENTED_EDGE('',*,*,#431,.T.);
#347=ORIENTED_EDGE('',*,*,#370,.T.);
#348=ORIENTED_EDGE('',*,*,#433,.T.);
#349=ORIENTED_EDGE('',*,*,#424,.T.);
#350=ORIENTED_EDGE('',*,*,#435,.T.);
#351=ORIENTED_EDGE('',*,*,#378,.T.);
#352=EDGE_CURVE('',#492,#493,#588,.T.);
#353=EDGE_CURVE('',#492,#494,#589,.T.);
#354=EDGE_CURVE('',#494,#495,#590,.T.);
#355=EDGE_CURVE('',#493,#495,#591,.T.);
#356=EDGE_CURVE('',#496,#497,#592,.T.);
#357=EDGE_CURVE('',#496,#498,#593,.T.);
#358=EDGE_CURVE('',#498,#499,#594,.T.);
#359=EDGE_CURVE('',#497,#499,#595,.T.);
#360=EDGE_CURVE('',#500,#501,#596,.T.);
#361=EDGE_CURVE('',#500,#502,#597,.T.);
#362=EDGE_CURVE('',#502,#503,#598,.T.);
#363=EDGE_CURVE('',#501,#503,#599,.T.);
#364=EDGE_CURVE('',#504,#505,#600,.T.);
#365=EDGE_CURVE('',#504,#506,#601,.T.);
#366=EDGE_CURVE('',#506,#507,#602,.T.);
#367=EDGE_CURVE('',#505,#507,#603,.T.);
#368=EDGE_CURVE('',#508,#509,#604,.T.);
#369=EDGE_CURVE('',#510,#508,#605,.T.);
#370=EDGE_CURVE('',#511,#510,#606,.T.);
#371=EDGE_CURVE('',#511,#512,#607,.T.);
#372=EDGE_CURVE('',#513,#512,#608,.T.);
#373=EDGE_CURVE('',#513,#514,#609,.T.);
#374=EDGE_CURVE('',#515,#514,#610,.T.);
#375=EDGE_CURVE('',#509,#515,#611,.T.);
#376=EDGE_CURVE('',#516,#517,#612,.T.);
#377=EDGE_CURVE('',#518,#516,#613,.T.);
#378=EDGE_CURVE('',#519,#518,#614,.T.);
#379=EDGE_CURVE('',#519,#520,#615,.T.);
#380=EDGE_CURVE('',#521,#520,#616,.T.);
#381=EDGE_CURVE('',#521,#522,#617,.T.);
#382=EDGE_CURVE('',#523,#522,#618,.T.);
#383=EDGE_CURVE('',#517,#523,#619,.T.);
#384=EDGE_CURVE('',#521,#493,#12,.T.);
#385=EDGE_CURVE('',#522,#495,#13,.T.);
#386=EDGE_CURVE('',#496,#509,#14,.T.);
#387=EDGE_CURVE('',#498,#515,#15,.T.);
#388=EDGE_CURVE('',#513,#501,#16,.T.);
#389=EDGE_CURVE('',#514,#503,#17,.T.);
#390=EDGE_CURVE('',#504,#517,#18,.T.);
#391=EDGE_CURVE('',#506,#523,#19,.T.);
#392=EDGE_CURVE('',#524,#525,#620,.T.);
#393=EDGE_CURVE('',#526,#524,#621,.T.);
#394=EDGE_CURVE('',#526,#527,#622,.T.);
#395=EDGE_CURVE('',#527,#525,#623,.T.);
#396=EDGE_CURVE('',#528,#529,#624,.T.);
#397=EDGE_CURVE('',#529,#530,#625,.T.);
#398=EDGE_CURVE('',#531,#530,#626,.T.);
#399=EDGE_CURVE('',#528,#531,#627,.T.);
#400=EDGE_CURVE('',#532,#533,#20,.T.);
#401=EDGE_CURVE('',#533,#534,#628,.T.);
#402=EDGE_CURVE('',#534,#535,#21,.T.);
#403=EDGE_CURVE('',#535,#536,#629,.T.);
#404=EDGE_CURVE('',#536,#537,#22,.T.);
#405=EDGE_CURVE('',#537,#538,#630,.T.);
#406=EDGE_CURVE('',#538,#539,#23,.T.);
#407=EDGE_CURVE('',#539,#532,#631,.T.);
#408=EDGE_CURVE('',#540,#541,#632,.T.);
#409=EDGE_CURVE('',#505,#541,#633,.T.);
#410=EDGE_CURVE('',#502,#507,#634,.T.);
#411=EDGE_CURVE('',#542,#500,#635,.T.);
#412=EDGE_CURVE('',#543,#542,#636,.T.);
#413=EDGE_CURVE('',#540,#543,#637,.T.);
#414=EDGE_CURVE('',#544,#545,#638,.T.);
#415=EDGE_CURVE('',#545,#546,#24,.F.);
#416=EDGE_CURVE('',#546,#547,#639,.T.);
#417=EDGE_CURVE('',#547,#548,#25,.F.);
#418=EDGE_CURVE('',#549,#548,#640,.T.);
#419=EDGE_CURVE('',#549,#550,#26,.F.);
#420=EDGE_CURVE('',#551,#550,#641,.T.);
#421=EDGE_CURVE('',#551,#544,#27,.F.);
#422=EDGE_CURVE('',#552,#492,#642,.T.);
#423=EDGE_CURVE('',#553,#552,#643,.T.);
#424=EDGE_CURVE('',#554,#553,#644,.T.);
#425=EDGE_CURVE('',#554,#555,#645,.T.);
#426=EDGE_CURVE('',#497,#555,#646,.T.);
#427=EDGE_CURVE('',#494,#499,#647,.T.);
#428=EDGE_CURVE('',#541,#516,#28,.T.);
#429=EDGE_CURVE('',#518,#540,#29,.T.);
#430=EDGE_CURVE('',#512,#542,#30,.T.);
#431=EDGE_CURVE('',#543,#511,#31,.T.);
#432=EDGE_CURVE('',#555,#508,#32,.T.);
#433=EDGE_CURVE('',#510,#554,#33,.T.);
#434=EDGE_CURVE('',#520,#552,#34,.T.);
#435=EDGE_CURVE('',#553,#519,#35,.T.);
#436=EDGE_CURVE('',#556,#557,#648,.T.);
#437=EDGE_CURVE('',#558,#556,#36,.T.);
#438=EDGE_CURVE('',#559,#558,#649,.T.);
#439=EDGE_CURVE('',#560,#559,#37,.T.);
#440=EDGE_CURVE('',#561,#560,#650,.T.);
#441=EDGE_CURVE('',#562,#561,#38,.T.);
#442=EDGE_CURVE('',#563,#562,#651,.T.);
#443=EDGE_CURVE('',#557,#563,#39,.T.);
#444=EDGE_CURVE('',#564,#564,#40,.T.);
#445=EDGE_CURVE('',#565,#565,#41,.T.);
#446=EDGE_CURVE('',#566,#566,#42,.T.);
#447=EDGE_CURVE('',#567,#567,#43,.T.);
#448=EDGE_CURVE('',#562,#538,#652,.T.);
#449=EDGE_CURVE('',#563,#537,#653,.T.);
#450=EDGE_CURVE('',#558,#534,#654,.T.);
#451=EDGE_CURVE('',#559,#533,#655,.T.);
#452=EDGE_CURVE('',#557,#536,#656,.T.);
#453=EDGE_CURVE('',#556,#535,#657,.T.);
#454=EDGE_CURVE('',#568,#569,#658,.T.);
#455=EDGE_CURVE('',#568,#570,#44,.T.);
#456=EDGE_CURVE('',#570,#571,#659,.T.);
#457=EDGE_CURVE('',#571,#572,#45,.T.);
#458=EDGE_CURVE('',#572,#573,#660,.T.);
#459=EDGE_CURVE('',#573,#574,#46,.T.);
#460=EDGE_CURVE('',#575,#574,#661,.T.);
#461=EDGE_CURVE('',#575,#569,#47,.T.);
#462=EDGE_CURVE('',#561,#539,#662,.T.);
#463=EDGE_CURVE('',#560,#532,#663,.T.);
#464=EDGE_CURVE('',#544,#568,#664,.F.);
#465=EDGE_CURVE('',#569,#545,#665,.T.);
#466=EDGE_CURVE('',#570,#551,#666,.T.);
#467=EDGE_CURVE('',#550,#571,#667,.F.);
#468=EDGE_CURVE('',#572,#549,#668,.T.);
#469=EDGE_CURVE('',#548,#573,#669,.F.);
#470=EDGE_CURVE('',#546,#575,#670,.F.);
#471=EDGE_CURVE('',#574,#547,#671,.T.);
#472=EDGE_CURVE('',#576,#576,#48,.T.);
#473=EDGE_CURVE('',#577,#577,#49,.T.);
#474=EDGE_CURVE('',#578,#578,#50,.T.);
#475=EDGE_CURVE('',#579,#579,#51,.T.);
#476=EDGE_CURVE('',#528,#580,#672,.T.);
#477=EDGE_CURVE('',#580,#581,#673,.T.);
#478=EDGE_CURVE('',#529,#581,#674,.T.);
#479=EDGE_CURVE('',#531,#582,#675,.T.);
#480=EDGE_CURVE('',#580,#582,#676,.T.);
#481=EDGE_CURVE('',#530,#583,#677,.T.);
#482=EDGE_CURVE('',#582,#583,#678,.T.);
#483=EDGE_CURVE('',#581,#583,#679,.T.);
#484=EDGE_CURVE('',#525,#584,#680,.T.);
#485=EDGE_CURVE('',#584,#585,#681,.T.);
#486=EDGE_CURVE('',#524,#585,#682,.T.);
#487=EDGE_CURVE('',#527,#586,#683,.T.);
#488=EDGE_CURVE('',#584,#586,#684,.T.);
#489=EDGE_CURVE('',#526,#587,#685,.T.);
#490=EDGE_CURVE('',#586,#587,#686,.T.);
#491=EDGE_CURVE('',#585,#587,#687,.T.);
#492=VERTEX_POINT('',#1411);
#493=VERTEX_POINT('',#1412);
#494=VERTEX_POINT('',#1414);
#495=VERTEX_POINT('',#1416);
#496=VERTEX_POINT('',#1420);
#497=VERTEX_POINT('',#1421);
#498=VERTEX_POINT('',#1423);
#499=VERTEX_POINT('',#1425);
#500=VERTEX_POINT('',#1429);
#501=VERTEX_POINT('',#1430);
#502=VERTEX_POINT('',#1432);
#503=VERTEX_POINT('',#1434);
#504=VERTEX_POINT('',#1438);
#505=VERTEX_POINT('',#1439);
#506=VERTEX_POINT('',#1441);
#507=VERTEX_POINT('',#1443);
#508=VERTEX_POINT('',#1447);
#509=VERTEX_POINT('',#1448);
#510=VERTEX_POINT('',#1450);
#511=VERTEX_POINT('',#1452);
#512=VERTEX_POINT('',#1454);
#513=VERTEX_POINT('',#1456);
#514=VERTEX_POINT('',#1458);
#515=VERTEX_POINT('',#1460);
#516=VERTEX_POINT('',#1464);
#517=VERTEX_POINT('',#1465);
#518=VERTEX_POINT('',#1467);
#519=VERTEX_POINT('',#1469);
#520=VERTEX_POINT('',#1471);
#521=VERTEX_POINT('',#1473);
#522=VERTEX_POINT('',#1475);
#523=VERTEX_POINT('',#1477);
#524=VERTEX_POINT('',#1493);
#525=VERTEX_POINT('',#1494);
#526=VERTEX_POINT('',#1496);
#527=VERTEX_POINT('',#1498);
#528=VERTEX_POINT('',#1501);
#529=VERTEX_POINT('',#1502);
#530=VERTEX_POINT('',#1504);
#531=VERTEX_POINT('',#1506);
#532=VERTEX_POINT('',#1509);
#533=VERTEX_POINT('',#1510);
#534=VERTEX_POINT('',#1512);
#535=VERTEX_POINT('',#1514);
#536=VERTEX_POINT('',#1516);
#537=VERTEX_POINT('',#1518);
#538=VERTEX_POINT('',#1520);
#539=VERTEX_POINT('',#1522);
#540=VERTEX_POINT('',#1526);
#541=VERTEX_POINT('',#1527);
#542=VERTEX_POINT('',#1531);
#543=VERTEX_POINT('',#1533);
#544=VERTEX_POINT('',#1536);
#545=VERTEX_POINT('',#1537);
#546=VERTEX_POINT('',#1539);
#547=VERTEX_POINT('',#1541);
#548=VERTEX_POINT('',#1543);
#549=VERTEX_POINT('',#1545);
#550=VERTEX_POINT('',#1547);
#551=VERTEX_POINT('',#1549);
#552=VERTEX_POINT('',#1553);
#553=VERTEX_POINT('',#1555);
#554=VERTEX_POINT('',#1557);
#555=VERTEX_POINT('',#1559);
#556=VERTEX_POINT('',#1576);
#557=VERTEX_POINT('',#1577);
#558=VERTEX_POINT('',#1579);
#559=VERTEX_POINT('',#1581);
#560=VERTEX_POINT('',#1583);
#561=VERTEX_POINT('',#1585);
#562=VERTEX_POINT('',#1587);
#563=VERTEX_POINT('',#1589);
#564=VERTEX_POINT('',#1592);
#565=VERTEX_POINT('',#1594);
#566=VERTEX_POINT('',#1596);
#567=VERTEX_POINT('',#1598);
#568=VERTEX_POINT('',#1609);
#569=VERTEX_POINT('',#1610);
#570=VERTEX_POINT('',#1612);
#571=VERTEX_POINT('',#1614);
#572=VERTEX_POINT('',#1616);
#573=VERTEX_POINT('',#1618);
#574=VERTEX_POINT('',#1620);
#575=VERTEX_POINT('',#1622);
#576=VERTEX_POINT('',#1649);
#577=VERTEX_POINT('',#1652);
#578=VERTEX_POINT('',#1655);
#579=VERTEX_POINT('',#1658);
#580=VERTEX_POINT('',#1661);
#581=VERTEX_POINT('',#1663);
#582=VERTEX_POINT('',#1667);
#583=VERTEX_POINT('',#1671);
#584=VERTEX_POINT('',#1678);
#585=VERTEX_POINT('',#1680);
#586=VERTEX_POINT('',#1684);
#587=VERTEX_POINT('',#1688);
#588=LINE('',#1410,#688);
#589=LINE('',#1413,#689);
#590=LINE('',#1415,#690);
#591=LINE('',#1417,#691);
#592=LINE('',#1419,#692);
#593=LINE('',#1422,#693);
#594=LINE('',#1424,#694);
#595=LINE('',#1426,#695);
#596=LINE('',#1428,#696);
#597=LINE('',#1431,#697);
#598=LINE('',#1433,#698);
#599=LINE('',#1435,#699);
#600=LINE('',#1437,#700);
#601=LINE('',#1440,#701);
#602=LINE('',#1442,#702);
#603=LINE('',#1444,#703);
#604=LINE('',#1446,#704);
#605=LINE('',#1449,#705);
#606=LINE('',#1451,#706);
#607=LINE('',#1453,#707);
#608=LINE('',#1455,#708);
#609=LINE('',#1457,#709);
#610=LINE('',#1459,#710);
#611=LINE('',#1461,#711);
#612=LINE('',#1463,#712);
#613=LINE('',#1466,#713);
#614=LINE('',#1468,#714);
#615=LINE('',#1470,#715);
#616=LINE('',#1472,#716);
#617=LINE('',#1474,#717);
#618=LINE('',#1476,#718);
#619=LINE('',#1478,#719);
#620=LINE('',#1492,#720);
#621=LINE('',#1495,#721);
#622=LINE('',#1497,#722);
#623=LINE('',#1499,#723);
#624=LINE('',#1500,#724);
#625=LINE('',#1503,#725);
#626=LINE('',#1505,#726);
#627=LINE('',#1507,#727);
#628=LINE('',#1511,#728);
#629=LINE('',#1515,#729);
#630=LINE('',#1519,#730);
#631=LINE('',#1523,#731);
#632=LINE('',#1525,#732);
#633=LINE('',#1528,#733);
#634=LINE('',#1529,#734);
#635=LINE('',#1530,#735);
#636=LINE('',#1532,#736);
#637=LINE('',#1534,#737);
#638=LINE('',#1535,#738);
#639=LINE('',#1540,#739);
#640=LINE('',#1544,#740);
#641=LINE('',#1548,#741);
#642=LINE('',#1552,#742);
#643=LINE('',#1554,#743);
#644=LINE('',#1556,#744);
#645=LINE('',#1558,#745);
#646=LINE('',#1560,#746);
#647=LINE('',#1561,#747);
#648=LINE('',#1575,#748);
#649=LINE('',#1580,#749);
#650=LINE('',#1584,#750);
#651=LINE('',#1588,#751);
#652=LINE('',#1600,#752);
#653=LINE('',#1601,#753);
#654=LINE('',#1603,#754);
#655=LINE('',#1604,#755);
#656=LINE('',#1606,#756);
#657=LINE('',#1607,#757);
#658=LINE('',#1608,#758);
#659=LINE('',#1613,#759);
#660=LINE('',#1617,#760);
#661=LINE('',#1621,#761);
#662=LINE('',#1625,#762);
#663=LINE('',#1627,#763);
#664=LINE('',#1632,#764);
#665=LINE('',#1633,#765);
#666=LINE('',#1635,#766);
#667=LINE('',#1636,#767);
#668=LINE('',#1638,#768);
#669=LINE('',#1639,#769);
#670=LINE('',#1641,#770);
#671=LINE('',#1642,#771);
#672=LINE('',#1660,#772);
#673=LINE('',#1662,#773);
#674=LINE('',#1664,#774);
#675=LINE('',#1666,#775);
#676=LINE('',#1668,#776);
#677=LINE('',#1670,#777);
#678=LINE('',#1672,#778);
#679=LINE('',#1674,#779);
#680=LINE('',#1677,#780);
#681=LINE('',#1679,#781);
#682=LINE('',#1681,#782);
#683=LINE('',#1683,#783);
#684=LINE('',#1685,#784);
#685=LINE('',#1687,#785);
#686=LINE('',#1689,#786);
#687=LINE('',#1691,#787);
#688=VECTOR('',#1124,1.);
#689=VECTOR('',#1125,1.);
#690=VECTOR('',#1126,1.);
#691=VECTOR('',#1127,1.);
#692=VECTOR('',#1130,1.);
#693=VECTOR('',#1131,1.);
#694=VECTOR('',#1132,1.);
#695=VECTOR('',#1133,1.);
#696=VECTOR('',#1136,1.);
#697=VECTOR('',#1137,1.);
#698=VECTOR('',#1138,1.);
#699=VECTOR('',#1139,1.);
#700=VECTOR('',#1142,1.);
#701=VECTOR('',#1143,1.);
#702=VECTOR('',#1144,1.);
#703=VECTOR('',#1145,1.);
#704=VECTOR('',#1148,1.);
#705=VECTOR('',#1149,1.);
#706=VECTOR('',#1150,1.);
#707=VECTOR('',#1151,1.);
#708=VECTOR('',#1152,1.);
#709=VECTOR('',#1153,1.);
#710=VECTOR('',#1154,1.);
#711=VECTOR('',#1155,1.);
#712=VECTOR('',#1158,1.);
#713=VECTOR('',#1159,1.);
#714=VECTOR('',#1160,1.);
#715=VECTOR('',#1161,1.);
#716=VECTOR('',#1162,1.);
#717=VECTOR('',#1163,1.);
#718=VECTOR('',#1164,1.);
#719=VECTOR('',#1165,1.);
#720=VECTOR('',#1192,1.);
#721=VECTOR('',#1193,1.);
#722=VECTOR('',#1194,1.);
#723=VECTOR('',#1195,1.);
#724=VECTOR('',#1196,1.);
#725=VECTOR('',#1197,1.);
#726=VECTOR('',#1198,1.);
#727=VECTOR('',#1199,1.);
#728=VECTOR('',#1202,1.);
#729=VECTOR('',#1205,1.);
#730=VECTOR('',#1208,1.);
#731=VECTOR('',#1211,1.);
#732=VECTOR('',#1214,1.);
#733=VECTOR('',#1215,1.);
#734=VECTOR('',#1216,1.);
#735=VECTOR('',#1217,1.);
#736=VECTOR('',#1218,1.);
#737=VECTOR('',#1219,1.);
#738=VECTOR('',#1220,1.);
#739=VECTOR('',#1223,1.);
#740=VECTOR('',#1226,1.);
#741=VECTOR('',#1229,1.);
#742=VECTOR('',#1234,1.);
#743=VECTOR('',#1235,1.);
#744=VECTOR('',#1236,1.);
#745=VECTOR('',#1237,1.);
#746=VECTOR('',#1238,1.);
#747=VECTOR('',#1239,1.);
#748=VECTOR('',#1266,1.);
#749=VECTOR('',#1269,1.);
#750=VECTOR('',#1272,1.);
#751=VECTOR('',#1275,1.);
#752=VECTOR('',#1288,1.);
#753=VECTOR('',#1289,1.);
#754=VECTOR('',#1292,1.);
#755=VECTOR('',#1293,1.);
#756=VECTOR('',#1296,1.);
#757=VECTOR('',#1297,1.);
#758=VECTOR('',#1298,1.);
#759=VECTOR('',#1301,1.);
#760=VECTOR('',#1304,1.);
#761=VECTOR('',#1307,1.);
#762=VECTOR('',#1312,1.);
#763=VECTOR('',#1315,1.);
#764=VECTOR('',#1324,1.);
#765=VECTOR('',#1325,1.);
#766=VECTOR('',#1328,1.);
#767=VECTOR('',#1329,1.);
#768=VECTOR('',#1332,1.);
#769=VECTOR('',#1333,1.);
#770=VECTOR('',#1336,1.);
#771=VECTOR('',#1337,1.);
#772=VECTOR('',#1364,1.);
#773=VECTOR('',#1365,1.);
#774=VECTOR('',#1366,1.);
#775=VECTOR('',#1369,1.);
#776=VECTOR('',#1370,1.);
#777=VECTOR('',#1373,1.);
#778=VECTOR('',#1374,1.);
#779=VECTOR('',#1377,1.);
#780=VECTOR('',#1382,1.);
#781=VECTOR('',#1383,1.);
#782=VECTOR('',#1384,1.);
#783=VECTOR('',#1387,1.);
#784=VECTOR('',#1388,1.);
#785=VECTOR('',#1391,1.);
#786=VECTOR('',#1392,1.);
#787=VECTOR('',#1395,1.);
#788=EDGE_LOOP('',(#72,#73,#74,#75));
#789=EDGE_LOOP('',(#76,#77,#78,#79));
#790=EDGE_LOOP('',(#80,#81,#82,#83));
#791=EDGE_LOOP('',(#84,#85,#86,#87));
#792=EDGE_LOOP('',(#88,#89,#90,#91,#92,#93,#94,#95));
#793=EDGE_LOOP('',(#96,#97,#98,#99,#100,#101,#102,#103));
#794=EDGE_LOOP('',(#104,#105,#106,#107));
#795=EDGE_LOOP('',(#108,#109,#110,#111));
#796=EDGE_LOOP('',(#112,#113,#114,#115));
#797=EDGE_LOOP('',(#116,#117,#118,#119));
#798=EDGE_LOOP('',(#120,#121,#122,#123));
#799=EDGE_LOOP('',(#124,#125,#126,#127));
#800=EDGE_LOOP('',(#128,#129,#130,#131,#132,#133,#134,#135));
#801=EDGE_LOOP('',(#136,#137,#138,#139,#140,#141,#142,#143));
#802=EDGE_LOOP('',(#144,#145,#146,#147,#148,#149,#150,#151));
#803=EDGE_LOOP('',(#152,#153,#154,#155,#156,#157,#158,#159));
#804=EDGE_LOOP('',(#160,#161,#162,#163));
#805=EDGE_LOOP('',(#164,#165,#166,#167));
#806=EDGE_LOOP('',(#168,#169,#170,#171));
#807=EDGE_LOOP('',(#172,#173,#174,#175));
#808=EDGE_LOOP('',(#176,#177,#178,#179,#180,#181,#182,#183,#184,#185,#186,
#187));
#809=EDGE_LOOP('',(#188,#189,#190,#191,#192,#193,#194,#195));
#810=EDGE_LOOP('',(#196));
#811=EDGE_LOOP('',(#197));
#812=EDGE_LOOP('',(#198));
#813=EDGE_LOOP('',(#199));
#814=EDGE_LOOP('',(#200,#201,#202,#203));
#815=EDGE_LOOP('',(#204,#205,#206,#207));
#816=EDGE_LOOP('',(#208,#209,#210,#211));
#817=EDGE_LOOP('',(#212,#213,#214,#215,#216,#217,#218,#219));
#818=EDGE_LOOP('',(#220,#221,#222,#223));
#819=EDGE_LOOP('',(#224,#225,#226,#227));
#820=EDGE_LOOP('',(#228,#229,#230,#231));
#821=EDGE_LOOP('',(#232,#233,#234,#235));
#822=EDGE_LOOP('',(#236,#237,#238,#239));
#823=EDGE_LOOP('',(#240,#241,#242,#243));
#824=EDGE_LOOP('',(#244,#245,#246,#247));
#825=EDGE_LOOP('',(#248,#249,#250,#251));
#826=EDGE_LOOP('',(#252,#253,#254,#255));
#827=EDGE_LOOP('',(#256,#257,#258,#259));
#828=EDGE_LOOP('',(#260,#261,#262,#263));
#829=EDGE_LOOP('',(#264,#265,#266,#267));
#830=EDGE_LOOP('',(#268,#269,#270,#271));
#831=EDGE_LOOP('',(#272));
#832=EDGE_LOOP('',(#273));
#833=EDGE_LOOP('',(#274));
#834=EDGE_LOOP('',(#275));
#835=EDGE_LOOP('',(#276));
#836=EDGE_LOOP('',(#277));
#837=EDGE_LOOP('',(#278));
#838=EDGE_LOOP('',(#279));
#839=EDGE_LOOP('',(#280,#281,#282,#283));
#840=EDGE_LOOP('',(#284,#285,#286,#287));
#841=EDGE_LOOP('',(#288,#289,#290,#291));
#842=EDGE_LOOP('',(#292,#293,#294,#295));
#843=EDGE_LOOP('',(#296,#297,#298,#299));
#844=EDGE_LOOP('',(#300,#301,#302,#303));
#845=EDGE_LOOP('',(#304,#305,#306,#307));
#846=EDGE_LOOP('',(#308,#309,#310,#311));
#847=EDGE_LOOP('',(#312,#313,#314,#315));
#848=EDGE_LOOP('',(#316,#317,#318,#319));
#849=EDGE_LOOP('',(#320,#321,#322,#323,#324));
#850=EDGE_LOOP('',(#325));
#851=EDGE_LOOP('',(#326,#327,#328,#329,#330));
#852=EDGE_LOOP('',(#331));
#853=EDGE_LOOP('',(#332,#333,#334,#335,#336));
#854=EDGE_LOOP('',(#337));
#855=EDGE_LOOP('',(#338,#339,#340,#341,#342));
#856=EDGE_LOOP('',(#343));
#857=EDGE_LOOP('',(#344,#345,#346,#347,#348,#349,#350,#351));
#858=FACE_BOUND('',#788,.T.);
#859=FACE_BOUND('',#789,.T.);
#860=FACE_BOUND('',#790,.T.);
#861=FACE_BOUND('',#791,.T.);
#862=FACE_BOUND('',#792,.T.);
#863=FACE_BOUND('',#793,.T.);
#864=FACE_BOUND('',#794,.T.);
#865=FACE_BOUND('',#795,.T.);
#866=FACE_BOUND('',#796,.T.);
#867=FACE_BOUND('',#797,.T.);
#868=FACE_BOUND('',#798,.T.);
#869=FACE_BOUND('',#799,.T.);
#870=FACE_BOUND('',#800,.T.);
#871=FACE_BOUND('',#801,.T.);
#872=FACE_BOUND('',#802,.T.);
#873=FACE_BOUND('',#803,.T.);
#874=FACE_BOUND('',#804,.T.);
#875=FACE_BOUND('',#805,.T.);
#876=FACE_BOUND('',#806,.T.);
#877=FACE_BOUND('',#807,.T.);
#878=FACE_BOUND('',#808,.T.);
#879=FACE_BOUND('',#809,.T.);
#880=FACE_BOUND('',#810,.T.);
#881=FACE_BOUND('',#811,.T.);
#882=FACE_BOUND('',#812,.T.);
#883=FACE_BOUND('',#813,.T.);
#884=FACE_BOUND('',#814,.T.);
#885=FACE_BOUND('',#815,.T.);
#886=FACE_BOUND('',#816,.T.);
#887=FACE_BOUND('',#817,.T.);
#888=FACE_BOUND('',#818,.T.);
#889=FACE_BOUND('',#819,.T.);
#890=FACE_BOUND('',#820,.T.);
#891=FACE_BOUND('',#821,.T.);
#892=FACE_BOUND('',#822,.T.);
#893=FACE_BOUND('',#823,.T.);
#894=FACE_BOUND('',#824,.T.);
#895=FACE_BOUND('',#825,.T.);
#896=FACE_BOUND('',#826,.T.);
#897=FACE_BOUND('',#827,.T.);
#898=FACE_BOUND('',#828,.T.);
#899=FACE_BOUND('',#829,.T.);
#900=FACE_BOUND('',#830,.T.);
#901=FACE_BOUND('',#831,.T.);
#902=FACE_BOUND('',#832,.T.);
#903=FACE_BOUND('',#833,.T.);
#904=FACE_BOUND('',#834,.T.);
#905=FACE_BOUND('',#835,.T.);
#906=FACE_BOUND('',#836,.T.);
#907=FACE_BOUND('',#837,.T.);
#908=FACE_BOUND('',#838,.T.);
#909=FACE_BOUND('',#839,.T.);
#910=FACE_BOUND('',#840,.T.);
#911=FACE_BOUND('',#841,.T.);
#912=FACE_BOUND('',#842,.T.);
#913=FACE_BOUND('',#843,.T.);
#914=FACE_BOUND('',#844,.T.);
#915=FACE_BOUND('',#845,.T.);
#916=FACE_BOUND('',#846,.T.);
#917=FACE_BOUND('',#847,.T.);
#918=FACE_BOUND('',#848,.T.);
#919=FACE_BOUND('',#849,.T.);
#920=FACE_BOUND('',#850,.T.);
#921=FACE_BOUND('',#851,.T.);
#922=FACE_BOUND('',#852,.T.);
#923=FACE_BOUND('',#853,.T.);
#924=FACE_BOUND('',#854,.T.);
#925=FACE_BOUND('',#855,.T.);
#926=FACE_BOUND('',#856,.T.);
#927=FACE_BOUND('',#857,.T.);
#928=PLANE('',#1027);
#929=PLANE('',#1028);
#930=PLANE('',#1029);
#931=PLANE('',#1030);
#932=PLANE('',#1031);
#933=PLANE('',#1032);
#934=PLANE('',#1045);
#935=PLANE('',#1050);
#936=PLANE('',#1055);
#937=PLANE('',#1068);
#938=PLANE('',#1077);
#939=PLANE('',#1078);
#940=PLANE('',#1079);
#941=PLANE('',#1088);
#942=PLANE('',#1089);
#943=PLANE('',#1090);
#944=PLANE('',#1091);
#945=PLANE('',#1092);
#946=PLANE('',#1105);
#947=PLANE('',#1106);
#948=PLANE('',#1107);
#949=PLANE('',#1108);
#950=PLANE('',#1109);
#951=PLANE('',#1110);
#952=PLANE('',#1111);
#953=PLANE('',#1112);
#954=PLANE('',#1113);
#955=PLANE('',#1114);
#956=PLANE('',#1115);
#957=PLANE('',#1116);
#958=PLANE('',#1117);
#959=PLANE('',#1118);
#960=PLANE('',#1119);
#961=ADVANCED_FACE('',(#858),#928,.F.);
#962=ADVANCED_FACE('',(#859),#929,.F.);
#963=ADVANCED_FACE('',(#860),#930,.F.);
#964=ADVANCED_FACE('',(#861),#931,.F.);
#965=ADVANCED_FACE('',(#862),#932,.F.);
#966=ADVANCED_FACE('',(#863),#933,.F.);
#967=ADVANCED_FACE('',(#864),#52,.T.);
#968=ADVANCED_FACE('',(#865),#53,.T.);
#969=ADVANCED_FACE('',(#866),#54,.T.);
#970=ADVANCED_FACE('',(#867),#55,.T.);
#971=ADVANCED_FACE('',(#868,#869,#870),#934,.T.);
#972=ADVANCED_FACE('',(#871,#872),#935,.F.);
#973=ADVANCED_FACE('',(#873),#936,.F.);
#974=ADVANCED_FACE('',(#874),#56,.T.);
#975=ADVANCED_FACE('',(#875),#57,.T.);
#976=ADVANCED_FACE('',(#876),#58,.T.);
#977=ADVANCED_FACE('',(#877),#59,.T.);
#978=ADVANCED_FACE('',(#878,#879,#880,#881,#882,#883),#937,.T.);
#979=ADVANCED_FACE('',(#884),#938,.F.);
#980=ADVANCED_FACE('',(#885),#939,.F.);
#981=ADVANCED_FACE('',(#886,#887),#940,.F.);
#982=ADVANCED_FACE('',(#888),#60,.F.);
#983=ADVANCED_FACE('',(#889),#61,.F.);
#984=ADVANCED_FACE('',(#890),#62,.F.);
#985=ADVANCED_FACE('',(#891),#63,.F.);
#986=ADVANCED_FACE('',(#892),#941,.F.);
#987=ADVANCED_FACE('',(#893),#942,.T.);
#988=ADVANCED_FACE('',(#894),#943,.F.);
#989=ADVANCED_FACE('',(#895),#944,.F.);
#990=ADVANCED_FACE('',(#896),#945,.T.);
#991=ADVANCED_FACE('',(#897),#64,.F.);
#992=ADVANCED_FACE('',(#898),#65,.F.);
#993=ADVANCED_FACE('',(#899),#66,.F.);
#994=ADVANCED_FACE('',(#900),#67,.F.);
#995=ADVANCED_FACE('',(#901,#902),#68,.F.);
#996=ADVANCED_FACE('',(#903,#904),#69,.F.);
#997=ADVANCED_FACE('',(#905,#906),#70,.F.);
#998=ADVANCED_FACE('',(#907,#908),#71,.F.);
#999=ADVANCED_FACE('',(#909),#946,.F.);
#1000=ADVANCED_FACE('',(#910),#947,.T.);
#1001=ADVANCED_FACE('',(#911),#948,.T.);
#1002=ADVANCED_FACE('',(#912),#949,.F.);
#1003=ADVANCED_FACE('',(#913),#950,.T.);
#1004=ADVANCED_FACE('',(#914),#951,.F.);
#1005=ADVANCED_FACE('',(#915),#952,.T.);
#1006=ADVANCED_FACE('',(#916),#953,.T.);
#1007=ADVANCED_FACE('',(#917),#954,.F.);
#1008=ADVANCED_FACE('',(#918),#955,.T.);
#1009=ADVANCED_FACE('',(#919,#920),#956,.F.);
#1010=ADVANCED_FACE('',(#921,#922),#957,.F.);
#1011=ADVANCED_FACE('',(#923,#924),#958,.F.);
#1012=ADVANCED_FACE('',(#925,#926),#959,.F.);
#1013=ADVANCED_FACE('',(#927),#960,.T.);
#1014=CLOSED_SHELL('',(#961,#962,#963,#964,#965,#966,#967,#968,#969,#970,
#971,#972,#973,#974,#975,#976,#977,#978,#979,#980,#981,#982,#983,#984,#985,
#986,#987,#988,#989,#990,#991,#992,#993,#994,#995,#996,#997,#998,#999,#1000,
#1001,#1002,#1003,#1004,#1005,#1006,#1007,#1008,#1009,#1010,#1011,#1012,
#1013));
#1015=STYLED_ITEM('',(#1016),#1023);
#1016=PRESENTATION_STYLE_ASSIGNMENT((#1017));
#1017=SURFACE_STYLE_USAGE(.BOTH.,#1018);
#1018=SURFACE_SIDE_STYLE('',(#1019));
#1019=SURFACE_STYLE_FILL_AREA(#1020);
#1020=FILL_AREA_STYLE('',(#1021));
#1021=FILL_AREA_STYLE_COLOUR('',#1022);
#1022=COLOUR_RGB('',0.498039215686275,0.498039215686275,0.498039215686275);
#1023=MANIFOLD_SOLID_BREP('Part 3',#1014);
#1024=SHAPE_DEFINITION_REPRESENTATION(#1704,#1025);
#1025=SHAPE_REPRESENTATION('Part 3',(#1026),#1699);
#1026=AXIS2_PLACEMENT_3D('',#1408,#1120,#1121);
#1027=AXIS2_PLACEMENT_3D('',#1409,#1122,#1123);
#1028=AXIS2_PLACEMENT_3D('',#1418,#1128,#1129);
#1029=AXIS2_PLACEMENT_3D('',#1427,#1134,#1135);
#1030=AXIS2_PLACEMENT_3D('',#1436,#1140,#1141);
#1031=AXIS2_PLACEMENT_3D('',#1445,#1146,#1147);
#1032=AXIS2_PLACEMENT_3D('',#1462,#1156,#1157);
#1033=AXIS2_PLACEMENT_3D('',#1479,#1166,#1167);
#1034=AXIS2_PLACEMENT_3D('',#1480,#1168,#1169);
#1035=AXIS2_PLACEMENT_3D('',#1481,#1170,#1171);
#1036=AXIS2_PLACEMENT_3D('',#1482,#1172,#1173);
#1037=AXIS2_PLACEMENT_3D('',#1483,#1174,#1175);
#1038=AXIS2_PLACEMENT_3D('',#1484,#1176,#1177);
#1039=AXIS2_PLACEMENT_3D('',#1485,#1178,#1179);
#1040=AXIS2_PLACEMENT_3D('',#1486,#1180,#1181);
#1041=AXIS2_PLACEMENT_3D('',#1487,#1182,#1183);
#1042=AXIS2_PLACEMENT_3D('',#1488,#1184,#1185);
#1043=AXIS2_PLACEMENT_3D('',#1489,#1186,#1187);
#1044=AXIS2_PLACEMENT_3D('',#1490,#1188,#1189);
#1045=AXIS2_PLACEMENT_3D('',#1491,#1190,#1191);
#1046=AXIS2_PLACEMENT_3D('',#1508,#1200,#1201);
#1047=AXIS2_PLACEMENT_3D('',#1513,#1203,#1204);
#1048=AXIS2_PLACEMENT_3D('',#1517,#1206,#1207);
#1049=AXIS2_PLACEMENT_3D('',#1521,#1209,#1210);
#1050=AXIS2_PLACEMENT_3D('',#1524,#1212,#1213);
#1051=AXIS2_PLACEMENT_3D('',#1538,#1221,#1222);
#1052=AXIS2_PLACEMENT_3D('',#1542,#1224,#1225);
#1053=AXIS2_PLACEMENT_3D('',#1546,#1227,#1228);
#1054=AXIS2_PLACEMENT_3D('',#1550,#1230,#1231);
#1055=AXIS2_PLACEMENT_3D('',#1551,#1232,#1233);
#1056=AXIS2_PLACEMENT_3D('',#1562,#1240,#1241);
#1057=AXIS2_PLACEMENT_3D('',#1563,#1242,#1243);
#1058=AXIS2_PLACEMENT_3D('',#1564,#1244,#1245);
#1059=AXIS2_PLACEMENT_3D('',#1565,#1246,#1247);
#1060=AXIS2_PLACEMENT_3D('',#1566,#1248,#1249);
#1061=AXIS2_PLACEMENT_3D('',#1567,#1250,#1251);
#1062=AXIS2_PLACEMENT_3D('',#1568,#1252,#1253);
#1063=AXIS2_PLACEMENT_3D('',#1569,#1254,#1255);
#1064=AXIS2_PLACEMENT_3D('',#1570,#1256,#1257);
#1065=AXIS2_PLACEMENT_3D('',#1571,#1258,#1259);
#1066=AXIS2_PLACEMENT_3D('',#1572,#1260,#1261);
#1067=AXIS2_PLACEMENT_3D('',#1573,#1262,#1263);
#1068=AXIS2_PLACEMENT_3D('',#1574,#1264,#1265);
#1069=AXIS2_PLACEMENT_3D('',#1578,#1267,#1268);
#1070=AXIS2_PLACEMENT_3D('',#1582,#1270,#1271);
#1071=AXIS2_PLACEMENT_3D('',#1586,#1273,#1274);
#1072=AXIS2_PLACEMENT_3D('',#1590,#1276,#1277);
#1073=AXIS2_PLACEMENT_3D('',#1591,#1278,#1279);
#1074=AXIS2_PLACEMENT_3D('',#1593,#1280,#1281);
#1075=AXIS2_PLACEMENT_3D('',#1595,#1282,#1283);
#1076=AXIS2_PLACEMENT_3D('',#1597,#1284,#1285);
#1077=AXIS2_PLACEMENT_3D('',#1599,#1286,#1287);
#1078=AXIS2_PLACEMENT_3D('',#1602,#1290,#1291);
#1079=AXIS2_PLACEMENT_3D('',#1605,#1294,#1295);
#1080=AXIS2_PLACEMENT_3D('',#1611,#1299,#1300);
#1081=AXIS2_PLACEMENT_3D('',#1615,#1302,#1303);
#1082=AXIS2_PLACEMENT_3D('',#1619,#1305,#1306);
#1083=AXIS2_PLACEMENT_3D('',#1623,#1308,#1309);
#1084=AXIS2_PLACEMENT_3D('',#1624,#1310,#1311);
#1085=AXIS2_PLACEMENT_3D('',#1626,#1313,#1314);
#1086=AXIS2_PLACEMENT_3D('',#1628,#1316,#1317);
#1087=AXIS2_PLACEMENT_3D('',#1629,#1318,#1319);
#1088=AXIS2_PLACEMENT_3D('',#1630,#1320,#1321);
#1089=AXIS2_PLACEMENT_3D('',#1631,#1322,#1323);
#1090=AXIS2_PLACEMENT_3D('',#1634,#1326,#1327);
#1091=AXIS2_PLACEMENT_3D('',#1637,#1330,#1331);
#1092=AXIS2_PLACEMENT_3D('',#1640,#1334,#1335);
#1093=AXIS2_PLACEMENT_3D('',#1643,#1338,#1339);
#1094=AXIS2_PLACEMENT_3D('',#1644,#1340,#1341);
#1095=AXIS2_PLACEMENT_3D('',#1645,#1342,#1343);
#1096=AXIS2_PLACEMENT_3D('',#1646,#1344,#1345);
#1097=AXIS2_PLACEMENT_3D('',#1647,#1346,#1347);
#1098=AXIS2_PLACEMENT_3D('',#1648,#1348,#1349);
#1099=AXIS2_PLACEMENT_3D('',#1650,#1350,#1351);
#1100=AXIS2_PLACEMENT_3D('',#1651,#1352,#1353);
#1101=AXIS2_PLACEMENT_3D('',#1653,#1354,#1355);
#1102=AXIS2_PLACEMENT_3D('',#1654,#1356,#1357);
#1103=AXIS2_PLACEMENT_3D('',#1656,#1358,#1359);
#1104=AXIS2_PLACEMENT_3D('',#1657,#1360,#1361);
#1105=AXIS2_PLACEMENT_3D('',#1659,#1362,#1363);
#1106=AXIS2_PLACEMENT_3D('',#1665,#1367,#1368);
#1107=AXIS2_PLACEMENT_3D('',#1669,#1371,#1372);
#1108=AXIS2_PLACEMENT_3D('',#1673,#1375,#1376);
#1109=AXIS2_PLACEMENT_3D('',#1675,#1378,#1379);
#1110=AXIS2_PLACEMENT_3D('',#1676,#1380,#1381);
#1111=AXIS2_PLACEMENT_3D('',#1682,#1385,#1386);
#1112=AXIS2_PLACEMENT_3D('',#1686,#1389,#1390);
#1113=AXIS2_PLACEMENT_3D('',#1690,#1393,#1394);
#1114=AXIS2_PLACEMENT_3D('',#1692,#1396,#1397);
#1115=AXIS2_PLACEMENT_3D('',#1693,#1398,#1399);
#1116=AXIS2_PLACEMENT_3D('',#1694,#1400,#1401);
#1117=AXIS2_PLACEMENT_3D('',#1695,#1402,#1403);
#1118=AXIS2_PLACEMENT_3D('',#1696,#1404,#1405);
#1119=AXIS2_PLACEMENT_3D('',#1697,#1406,#1407);
#1120=DIRECTION('',(0.,0.,1.));
#1121=DIRECTION('',(1.,0.,0.));
#1122=DIRECTION('',(1.,0.,0.));
#1123=DIRECTION('',(0.,0.,-1.));
#1124=DIRECTION('',(0.,0.,-1.));
#1125=DIRECTION('',(0.,1.,0.));
#1126=DIRECTION('',(0.,0.,-1.));
#1127=DIRECTION('',(0.,1.,0.));
#1128=DIRECTION('',(-1.,0.,0.));
#1129=DIRECTION('',(0.,0.,1.));
#1130=DIRECTION('',(0.,0.,1.));
#1131=DIRECTION('',(0.,1.,0.));
#1132=DIRECTION('',(0.,0.,1.));
#1133=DIRECTION('',(0.,1.,0.));
#1134=DIRECTION('',(-1.,0.,0.));
#1135=DIRECTION('',(0.,0.,1.));
#1136=DIRECTION('',(0.,0.,1.));
#1137=DIRECTION('',(0.,1.,0.));
#1138=DIRECTION('',(0.,0.,1.));
#1139=DIRECTION('',(0.,1.,0.));
#1140=DIRECTION('',(1.,0.,0.));
#1141=DIRECTION('',(0.,0.,-1.));
#1142=DIRECTION('',(0.,0.,-1.));
#1143=DIRECTION('',(0.,1.,0.));
#1144=DIRECTION('',(0.,0.,-1.));
#1145=DIRECTION('',(0.,1.,0.));
#1146=DIRECTION('',(1.,0.,0.));
#1147=DIRECTION('',(0.,0.,-1.));
#1148=DIRECTION('',(0.,0.,-1.));
#1149=DIRECTION('',(0.,1.,0.));
#1150=DIRECTION('',(0.,0.,-1.));
#1151=DIRECTION('',(0.,1.,0.));
#1152=DIRECTION('',(0.,0.,-1.));
#1153=DIRECTION('',(0.,1.,0.));
#1154=DIRECTION('',(0.,0.,1.));
#1155=DIRECTION('',(0.,1.,0.));
#1156=DIRECTION('',(-1.,0.,0.));
#1157=DIRECTION('',(0.,0.,1.));
#1158=DIRECTION('',(0.,0.,1.));
#1159=DIRECTION('',(0.,1.,0.));
#1160=DIRECTION('',(0.,0.,1.));
#1161=DIRECTION('',(0.,1.,0.));
#1162=DIRECTION('',(0.,0.,1.));
#1163=DIRECTION('',(0.,1.,0.));
#1164=DIRECTION('',(0.,0.,-1.));
#1165=DIRECTION('',(0.,1.,0.));
#1166=DIRECTION('',(0.,1.,0.));
#1167=DIRECTION('',(0.,0.,1.));
#1168=DIRECTION('',(0.,1.,0.));
#1169=DIRECTION('',(0.,0.,1.));
#1170=DIRECTION('',(0.,1.,0.));
#1171=DIRECTION('',(0.,0.,1.));
#1172=DIRECTION('',(0.,1.,0.));
#1173=DIRECTION('',(0.,0.,1.));
#1174=DIRECTION('',(0.,1.,0.));
#1175=DIRECTION('',(0.,0.,1.));
#1176=DIRECTION('',(0.,1.,0.));
#1177=DIRECTION('',(0.,0.,1.));
#1178=DIRECTION('',(0.,1.,0.));
#1179=DIRECTION('',(0.,0.,1.));
#1180=DIRECTION('',(0.,1.,0.));
#1181=DIRECTION('',(0.,0.,1.));
#1182=DIRECTION('',(0.,1.,0.));
#1183=DIRECTION('',(0.,0.,1.));
#1184=DIRECTION('',(0.,1.,0.));
#1185=DIRECTION('',(0.,0.,1.));
#1186=DIRECTION('',(0.,1.,0.));
#1187=DIRECTION('',(0.,0.,1.));
#1188=DIRECTION('',(0.,1.,0.));
#1189=DIRECTION('',(0.,0.,1.));
#1190=DIRECTION('',(0.,1.,0.));
#1191=DIRECTION('',(1.,0.,0.));
#1192=DIRECTION('',(0.,0.,1.));
#1193=DIRECTION('',(-1.,0.,0.));
#1194=DIRECTION('',(0.,0.,1.));
#1195=DIRECTION('',(-1.,0.,0.));
#1196=DIRECTION('',(0.,0.,-1.));
#1197=DIRECTION('',(1.,0.,0.));
#1198=DIRECTION('',(0.,0.,-1.));
#1199=DIRECTION('',(1.,0.,0.));
#1200=DIRECTION('',(0.,1.,0.));
#1201=DIRECTION('',(0.,0.,1.));
#1202=DIRECTION('',(0.,0.,1.));
#1203=DIRECTION('',(0.,1.,0.));
#1204=DIRECTION('',(0.,0.,1.));
#1205=DIRECTION('',(1.,0.,0.));
#1206=DIRECTION('',(0.,1.,0.));
#1207=DIRECTION('',(0.,0.,1.));
#1208=DIRECTION('',(0.,0.,-1.));
#1209=DIRECTION('',(0.,1.,0.));
#1210=DIRECTION('',(0.,0.,1.));
#1211=DIRECTION('',(-1.,0.,0.));
#1212=DIRECTION('',(0.,0.,-1.));
#1213=DIRECTION('',(-1.,0.,0.));
#1214=DIRECTION('',(0.,1.,0.));
#1215=DIRECTION('',(1.,0.,0.));
#1216=DIRECTION('',(1.,0.,0.));
#1217=DIRECTION('',(1.,0.,0.));
#1218=DIRECTION('',(0.,1.,0.));
#1219=DIRECTION('',(-1.,0.,0.));
#1220=DIRECTION('',(-1.,-1.21957499717155E-16,0.));
#1221=DIRECTION('',(0.,0.,1.));
#1222=DIRECTION('',(1.,0.,0.));
#1223=DIRECTION('',(0.,1.,0.));
#1224=DIRECTION('',(0.,0.,1.));
#1225=DIRECTION('',(1.,0.,0.));
#1226=DIRECTION('',(-1.,-1.95131999547447E-16,0.));
#1227=DIRECTION('',(0.,0.,1.));
#1228=DIRECTION('',(1.,0.,0.));
#1229=DIRECTION('',(0.,1.,0.));
#1230=DIRECTION('',(0.,0.,1.));
#1231=DIRECTION('',(1.,0.,0.));
#1232=DIRECTION('',(0.,0.,1.));
#1233=DIRECTION('',(1.,0.,0.));
#1234=DIRECTION('',(-1.,0.,0.));
#1235=DIRECTION('',(0.,1.,0.));
#1236=DIRECTION('',(1.,0.,0.));
#1237=DIRECTION('',(0.,1.,0.));
#1238=DIRECTION('',(-1.,0.,0.));
#1239=DIRECTION('',(-1.,0.,0.));
#1240=DIRECTION('',(0.,1.,0.));
#1241=DIRECTION('',(0.,0.,1.));
#1242=DIRECTION('',(0.,1.,0.));
#1243=DIRECTION('',(0.,0.,1.));
#1244=DIRECTION('',(0.,-1.,0.));
#1245=DIRECTION('',(0.,0.,-1.));
#1246=DIRECTION('',(0.,1.,0.));
#1247=DIRECTION('',(0.,0.,1.));
#1248=DIRECTION('',(0.,1.,0.));
#1249=DIRECTION('',(0.,0.,1.));
#1250=DIRECTION('',(0.,-1.,0.));
#1251=DIRECTION('',(0.,0.,-1.));
#1252=DIRECTION('',(0.,1.,0.));
#1253=DIRECTION('',(0.,0.,1.));
#1254=DIRECTION('',(0.,1.,0.));
#1255=DIRECTION('',(0.,0.,1.));
#1256=DIRECTION('',(0.,-1.,0.));
#1257=DIRECTION('',(0.,0.,-1.));
#1258=DIRECTION('',(0.,1.,0.));
#1259=DIRECTION('',(0.,0.,1.));
#1260=DIRECTION('',(0.,1.,0.));
#1261=DIRECTION('',(0.,0.,1.));
#1262=DIRECTION('',(0.,-1.,0.));
#1263=DIRECTION('',(0.,0.,-1.));
#1264=DIRECTION('',(0.,1.,0.));
#1265=DIRECTION('',(1.,0.,0.));
#1266=DIRECTION('',(1.,0.,0.));
#1267=DIRECTION('',(0.,1.,0.));
#1268=DIRECTION('',(0.,0.,1.));
#1269=DIRECTION('',(0.,0.,1.));
#1270=DIRECTION('',(0.,1.,0.));
#1271=DIRECTION('',(0.,0.,1.));
#1272=DIRECTION('',(-1.,0.,0.));
#1273=DIRECTION('',(0.,1.,0.));
#1274=DIRECTION('',(0.,0.,1.));
#1275=DIRECTION('',(0.,0.,-1.));
#1276=DIRECTION('',(0.,1.,0.));
#1277=DIRECTION('',(0.,0.,1.));
#1278=DIRECTION('',(0.,1.,0.));
#1279=DIRECTION('',(0.,0.,1.));
#1280=DIRECTION('',(0.,1.,0.));
#1281=DIRECTION('',(0.,0.,1.));
#1282=DIRECTION('',(0.,1.,0.));
#1283=DIRECTION('',(0.,0.,1.));
#1284=DIRECTION('',(0.,1.,0.));
#1285=DIRECTION('',(0.,0.,1.));
#1286=DIRECTION('',(1.,0.,0.));
#1287=DIRECTION('',(0.,0.,-1.));
#1288=DIRECTION('',(0.,-1.,0.));
#1289=DIRECTION('',(0.,-1.,0.));
#1290=DIRECTION('',(-1.,0.,0.));
#1291=DIRECTION('',(0.,0.,1.));
#1292=DIRECTION('',(0.,-1.,0.));
#1293=DIRECTION('',(0.,-1.,0.));
#1294=DIRECTION('',(0.,0.,1.));
#1295=DIRECTION('',(1.,0.,0.));
#1296=DIRECTION('',(0.,-1.,0.));
#1297=DIRECTION('',(0.,-1.,0.));
#1298=DIRECTION('',(-1.,-1.21957499717155E-16,0.));
#1299=DIRECTION('',(0.,0.,1.));
#1300=DIRECTION('',(1.,0.,0.));
#1301=DIRECTION('',(0.,1.,0.));
#1302=DIRECTION('',(0.,0.,1.));
#1303=DIRECTION('',(1.,0.,0.));
#1304=DIRECTION('',(-1.,-1.95131999547447E-16,0.));
#1305=DIRECTION('',(0.,0.,1.));
#1306=DIRECTION('',(1.,0.,0.));
#1307=DIRECTION('',(0.,1.,0.));
#1308=DIRECTION('',(0.,0.,1.));
#1309=DIRECTION('',(1.,0.,0.));
#1310=DIRECTION('',(0.,-1.,0.));
#1311=DIRECTION('',(0.,0.,-1.));
#1312=DIRECTION('',(0.,-1.,0.));
#1313=DIRECTION('',(0.,-1.,0.));
#1314=DIRECTION('',(0.,0.,-1.));
#1315=DIRECTION('',(0.,-1.,0.));
#1316=DIRECTION('',(0.,-1.,0.));
#1317=DIRECTION('',(0.,0.,-1.));
#1318=DIRECTION('',(0.,-1.,0.));
#1319=DIRECTION('',(0.,0.,-1.));
#1320=DIRECTION('',(0.,0.,-1.));
#1321=DIRECTION('',(-1.,0.,0.));
#1322=DIRECTION('',(-1.21957499717155E-16,1.,0.));
#1323=DIRECTION('',(-1.,-1.21957499717155E-16,0.));
#1324=DIRECTION('',(0.,0.,1.));
#1325=DIRECTION('',(0.,0.,1.));
#1326=DIRECTION('',(1.,0.,0.));
#1327=DIRECTION('',(0.,0.,-1.));
#1328=DIRECTION('',(0.,0.,1.));
#1329=DIRECTION('',(0.,0.,1.));
#1330=DIRECTION('',(-1.95131999547447E-16,1.,0.));
#1331=DIRECTION('',(-1.,-1.95131999547447E-16,0.));
#1332=DIRECTION('',(0.,0.,1.));
#1333=DIRECTION('',(0.,0.,1.));
#1334=DIRECTION('',(1.,0.,0.));
#1335=DIRECTION('',(0.,0.,-1.));
#1336=DIRECTION('',(0.,0.,1.));
#1337=DIRECTION('',(0.,0.,1.));
#1338=DIRECTION('',(0.,0.,1.));
#1339=DIRECTION('',(1.,0.,0.));
#1340=DIRECTION('',(0.,0.,-1.));
#1341=DIRECTION('',(-1.,0.,0.));
#1342=DIRECTION('',(0.,0.,-1.));
#1343=DIRECTION('',(-1.,0.,0.));
#1344=DIRECTION('',(0.,0.,1.));
#1345=DIRECTION('',(1.,0.,0.));
#1346=DIRECTION('',(0.,1.,0.));
#1347=DIRECTION('',(0.,0.,1.));
#1348=DIRECTION('',(0.,1.,0.));
#1349=DIRECTION('',(0.,0.,1.));
#1350=DIRECTION('',(0.,1.,0.));
#1351=DIRECTION('',(0.,0.,1.));
#1352=DIRECTION('',(0.,1.,0.));
#1353=DIRECTION('',(0.,0.,1.));
#1354=DIRECTION('',(0.,1.,0.));
#1355=DIRECTION('',(0.,0.,1.));
#1356=DIRECTION('',(0.,1.,0.));
#1357=DIRECTION('',(0.,0.,1.));
#1358=DIRECTION('',(0.,1.,0.));
#1359=DIRECTION('',(0.,0.,1.));
#1360=DIRECTION('',(0.,1.,0.));
#1361=DIRECTION('',(0.,0.,1.));
#1362=DIRECTION('',(-1.,0.,0.));
#1363=DIRECTION('',(0.,0.,1.));
#1364=DIRECTION('',(0.,-1.,0.));
#1365=DIRECTION('',(0.,0.,-1.));
#1366=DIRECTION('',(0.,-1.,0.));
#1367=DIRECTION('',(0.,0.,-1.));
#1368=DIRECTION('',(-1.,0.,0.));
#1369=DIRECTION('',(0.,-1.,0.));
#1370=DIRECTION('',(1.,0.,0.));
#1371=DIRECTION('',(-1.,0.,0.));
#1372=DIRECTION('',(0.,0.,1.));
#1373=DIRECTION('',(0.,-1.,0.));
#1374=DIRECTION('',(0.,0.,-1.));
#1375=DIRECTION('',(0.,0.,-1.));
#1376=DIRECTION('',(-1.,0.,0.));
#1377=DIRECTION('',(1.,0.,0.));
#1378=DIRECTION('',(0.,1.,0.));
#1379=DIRECTION('',(1.,0.,0.));
#1380=DIRECTION('',(-1.,0.,0.));
#1381=DIRECTION('',(0.,0.,1.));
#1382=DIRECTION('',(0.,-1.,0.));
#1383=DIRECTION('',(0.,0.,-1.));
#1384=DIRECTION('',(0.,-1.,0.));
#1385=DIRECTION('',(0.,0.,-1.));
#1386=DIRECTION('',(-1.,0.,0.));
#1387=DIRECTION('',(0.,-1.,0.));
#1388=DIRECTION('',(1.,0.,0.));
#1389=DIRECTION('',(-1.,0.,0.));
#1390=DIRECTION('',(0.,0.,1.));
#1391=DIRECTION('',(0.,-1.,0.));
#1392=DIRECTION('',(0.,0.,-1.));
#1393=DIRECTION('',(0.,0.,-1.));
#1394=DIRECTION('',(-1.,0.,0.));
#1395=DIRECTION('',(1.,0.,0.));
#1396=DIRECTION('',(0.,1.,0.));
#1397=DIRECTION('',(-1.,0.,0.));
#1398=DIRECTION('',(0.,1.,0.));
#1399=DIRECTION('',(-1.,0.,0.));
#1400=DIRECTION('',(0.,1.,0.));
#1401=DIRECTION('',(-1.,0.,0.));
#1402=DIRECTION('',(0.,1.,0.));
#1403=DIRECTION('',(-1.,0.,0.));
#1404=DIRECTION('',(0.,1.,0.));
#1405=DIRECTION('',(-1.,0.,0.));
#1406=DIRECTION('',(0.,-1.,0.));
#1407=DIRECTION('',(1.,0.,0.));
#1408=CARTESIAN_POINT('',(0.,0.,0.));
#1409=CARTESIAN_POINT('',(0.00825,0.0058000054,-0.017199));
#1410=CARTESIAN_POINT('',(0.00825,0.0063080054,-0.017199));
#1411=CARTESIAN_POINT('',(0.00825,0.0063080054,-0.014659));
#1412=CARTESIAN_POINT('',(0.00825,0.0063080054,-0.019739));
#1413=CARTESIAN_POINT('',(0.00825,0.0058000054,-0.014659));
#1414=CARTESIAN_POINT('',(0.00825,0.0085,-0.014659));
#1415=CARTESIAN_POINT('',(0.00825,0.0085,-0.017199));
#1416=CARTESIAN_POINT('',(0.00825,0.0085,-0.019739));
#1417=CARTESIAN_POINT('',(0.00825,0.0058000054,-0.019739));
#1418=CARTESIAN_POINT('',(-0.00825,0.0058000054,-0.017199));
#1419=CARTESIAN_POINT('',(-0.00825,0.0063080054,-0.017199));
#1420=CARTESIAN_POINT('',(-0.00825,0.0063080054,-0.019739));
#1421=CARTESIAN_POINT('',(-0.00825,0.0063080054,-0.014659));
#1422=CARTESIAN_POINT('',(-0.00825,0.0058000054,-0.019739));
#1423=CARTESIAN_POINT('',(-0.00825,0.0085,-0.019739));
#1424=CARTESIAN_POINT('',(-0.00825,0.0085,-0.017199));
#1425=CARTESIAN_POINT('',(-0.00825,0.0085,-0.014659));
#1426=CARTESIAN_POINT('',(-0.00825,0.0058000054,-0.014659));
#1427=CARTESIAN_POINT('',(-0.00825,0.0058000054,0.017199));
#1428=CARTESIAN_POINT('',(-0.00825,0.0063080054,0.017199));
#1429=CARTESIAN_POINT('',(-0.00825,0.0063080054,0.014659));
#1430=CARTESIAN_POINT('',(-0.00825,0.0063080054,0.019739));
#1431=CARTESIAN_POINT('',(-0.00825,0.0058000054,0.014659));
#1432=CARTESIAN_POINT('',(-0.00825,0.0085,0.014659));
#1433=CARTESIAN_POINT('',(-0.00825,0.0085,0.017199));
#1434=CARTESIAN_POINT('',(-0.00825,0.0085,0.019739));
#1435=CARTESIAN_POINT('',(-0.00825,0.0058000054,0.019739));
#1436=CARTESIAN_POINT('',(0.00825,0.0058000054,0.017199));
#1437=CARTESIAN_POINT('',(0.00825,0.0063080054,0.017199));
#1438=CARTESIAN_POINT('',(0.00825,0.0063080054,0.019739));
#1439=CARTESIAN_POINT('',(0.00825,0.0063080054,0.014659));
#1440=CARTESIAN_POINT('',(0.00825,0.0058000054,0.019739));
#1441=CARTESIAN_POINT('',(0.00825,0.0085,0.019739));
#1442=CARTESIAN_POINT('',(0.00825,0.0085,0.017199));
#1443=CARTESIAN_POINT('',(0.00825,0.0085,0.014659));
#1444=CARTESIAN_POINT('',(0.00825,0.0058000054,0.014659));
#1445=CARTESIAN_POINT('',(-0.014659,-0.00377,0.));
#1446=CARTESIAN_POINT('',(-0.014659,0.0063080054,-0.0153695));
#1447=CARTESIAN_POINT('',(-0.014659,0.0063080054,-0.011));
#1448=CARTESIAN_POINT('',(-0.014659,0.0063080054,-0.019739));
#1449=CARTESIAN_POINT('',(-0.014659,-0.00377,-0.011));
#1450=CARTESIAN_POINT('',(-0.014659,-0.002881,-0.011));
#1451=CARTESIAN_POINT('',(-0.014659,-0.002881,0.));
#1452=CARTESIAN_POINT('',(-0.014659,-0.002881,0.011));
#1453=CARTESIAN_POINT('',(-0.014659,-0.00377,0.011));
#1454=CARTESIAN_POINT('',(-0.014659,0.0063080054,0.011));
#1455=CARTESIAN_POINT('',(-0.014659,0.0063080054,0.0153695));
#1456=CARTESIAN_POINT('',(-0.014659,0.0063080054,0.019739));
#1457=CARTESIAN_POINT('',(-0.014659,0.0058000054,0.019739));
#1458=CARTESIAN_POINT('',(-0.014659,0.0085,0.019739));
#1459=CARTESIAN_POINT('',(-0.014659,0.0085,0.));
#1460=CARTESIAN_POINT('',(-0.014659,0.0085,-0.019739));
#1461=CARTESIAN_POINT('',(-0.014659,0.0058000054,-0.019739));
#1462=CARTESIAN_POINT('',(0.014659,-0.00377,0.));
#1463=CARTESIAN_POINT('',(0.014659,0.0063080054,0.0153695));
#1464=CARTESIAN_POINT('',(0.014659,0.0063080054,0.011));
#1465=CARTESIAN_POINT('',(0.014659,0.0063080054,0.019739));
#1466=CARTESIAN_POINT('',(0.014659,-0.00377,0.011));
#1467=CARTESIAN_POINT('',(0.014659,-0.002881,0.011));
#1468=CARTESIAN_POINT('',(0.014659,-0.002881,0.));
#1469=CARTESIAN_POINT('',(0.014659,-0.002881,-0.011));
#1470=CARTESIAN_POINT('',(0.014659,-0.00377,-0.011));
#1471=CARTESIAN_POINT('',(0.014659,0.0063080054,-0.011));
#1472=CARTESIAN_POINT('',(0.014659,0.0063080054,-0.0153695));
#1473=CARTESIAN_POINT('',(0.014659,0.0063080054,-0.019739));
#1474=CARTESIAN_POINT('',(0.014659,0.0058000054,-0.019739));
#1475=CARTESIAN_POINT('',(0.014659,0.0085,-0.019739));
#1476=CARTESIAN_POINT('',(0.014659,0.0085,0.));
#1477=CARTESIAN_POINT('',(0.014659,0.0085,0.019739));
#1478=CARTESIAN_POINT('',(0.014659,0.0058000054,0.019739));
#1479=CARTESIAN_POINT('',(0.0114545,0.0058000054,-0.019739));
#1480=CARTESIAN_POINT('',(0.0114545,0.0063080054,-0.019739));
#1481=CARTESIAN_POINT('',(0.0114545,0.0085,-0.019739));
#1482=CARTESIAN_POINT('',(-0.0114545,0.0058000054,-0.019739));
#1483=CARTESIAN_POINT('',(-0.0114545,0.0063080054,-0.019739));
#1484=CARTESIAN_POINT('',(-0.0114545,0.0085,-0.019739));
#1485=CARTESIAN_POINT('',(-0.0114545,0.0058000054,0.019739));
#1486=CARTESIAN_POINT('',(-0.0114545,0.0063080054,0.019739));
#1487=CARTESIAN_POINT('',(-0.0114545,0.0085,0.019739));
#1488=CARTESIAN_POINT('',(0.0114545,0.0058000054,0.019739));
#1489=CARTESIAN_POINT('',(0.0114545,0.0063080054,0.019739));
#1490=CARTESIAN_POINT('',(0.0114545,0.0085,0.019739));
#1491=CARTESIAN_POINT('',(-0.0015,-0.0001,0.010975));
#1492=CARTESIAN_POINT('',(-0.008008,-0.0001,0.010975));
#1493=CARTESIAN_POINT('',(-0.008008,-9.99999999999925E-5,-0.011908));
#1494=CARTESIAN_POINT('',(-0.008008,-9.99999999999925E-5,-0.001092));
#1495=CARTESIAN_POINT('',(-0.0015,-0.0001,-0.011908));
#1496=CARTESIAN_POINT('',(0.008008,-0.0001,-0.011908));
#1497=CARTESIAN_POINT('',(0.008008,-0.0001,0.010975));
#1498=CARTESIAN_POINT('',(0.008008,-9.99999999999925E-5,-0.001092));
#1499=CARTESIAN_POINT('',(-0.0015,-0.0001,-0.001092));
#1500=CARTESIAN_POINT('',(-0.006008,-0.0001,0.007625));
#1501=CARTESIAN_POINT('',(-0.006008,-0.0001,0.010758));
#1502=CARTESIAN_POINT('',(-0.006008,-0.0001,0.004492));
#1503=CARTESIAN_POINT('',(0.,-0.0001,0.004492));
#1504=CARTESIAN_POINT('',(0.006008,-0.0001,0.004492));
#1505=CARTESIAN_POINT('',(0.006008,-0.0001,0.007625));
#1506=CARTESIAN_POINT('',(0.006008,-0.0001,0.010758));
#1507=CARTESIAN_POINT('',(0.,-0.0001,0.010758));
#1508=CARTESIAN_POINT('',(-0.011,-0.0001,-0.011));
#1509=CARTESIAN_POINT('',(-0.011,-0.0001,-0.012754));
#1510=CARTESIAN_POINT('',(-0.012754,-0.0001,-0.011));
#1511=CARTESIAN_POINT('',(-0.012754,-0.0001,0.));
#1512=CARTESIAN_POINT('',(-0.012754,-0.0001,0.011));
#1513=CARTESIAN_POINT('',(-0.011,-0.0001,0.011));
#1514=CARTESIAN_POINT('',(-0.011,-0.0001,0.012754));
#1515=CARTESIAN_POINT('',(0.,-0.0001,0.012754));
#1516=CARTESIAN_POINT('',(0.011,-0.0001,0.012754));
#1517=CARTESIAN_POINT('',(0.011,-0.0001,0.011));
#1518=CARTESIAN_POINT('',(0.012754,-0.0001,0.011));
#1519=CARTESIAN_POINT('',(0.012754,-0.0001,0.));
#1520=CARTESIAN_POINT('',(0.012754,-0.0001,-0.011));
#1521=CARTESIAN_POINT('',(0.011,-0.0001,-0.011));
#1522=CARTESIAN_POINT('',(0.011,-0.0001,-0.012754));
#1523=CARTESIAN_POINT('',(0.,-0.0001,-0.012754));
#1524=CARTESIAN_POINT('',(0.,-0.00377,0.014659));
#1525=CARTESIAN_POINT('',(0.011,-0.00377,0.014659));
#1526=CARTESIAN_POINT('',(0.011,-0.002881,0.014659));
#1527=CARTESIAN_POINT('',(0.011,0.0063080054,0.014659));
#1528=CARTESIAN_POINT('',(0.,0.0063080054,0.014659));
#1529=CARTESIAN_POINT('',(0.,0.0085,0.014659));
#1530=CARTESIAN_POINT('',(0.,0.0063080054,0.014659));
#1531=CARTESIAN_POINT('',(-0.011,0.0063080054,0.014659));
#1532=CARTESIAN_POINT('',(-0.011,-0.00377,0.014659));
#1533=CARTESIAN_POINT('',(-0.011,-0.002881,0.014659));
#1534=CARTESIAN_POINT('',(0.,-0.002881,0.014659));
#1535=CARTESIAN_POINT('',(0.,0.000548,0.014659));
#1536=CARTESIAN_POINT('',(0.00352518463273585,0.000548,0.014659));
#1537=CARTESIAN_POINT('',(-0.00352518463273585,0.000548,0.014659));
#1538=CARTESIAN_POINT('',(-0.00352518463273585,0.00146781536726415,0.014659));
#1539=CARTESIAN_POINT('',(-0.004445,0.00146781536726415,0.014659));
#1540=CARTESIAN_POINT('',(-0.004445,0.003088,0.014659));
#1541=CARTESIAN_POINT('',(-0.004445,0.00470818463273585,0.014659));
#1542=CARTESIAN_POINT('',(-0.00352518463273585,0.00470818463273585,0.014659));
#1543=CARTESIAN_POINT('',(-0.00352518463273585,0.005628,0.014659));
#1544=CARTESIAN_POINT('',(0.,0.005628,0.014659));
#1545=CARTESIAN_POINT('',(0.00352518463273585,0.005628,0.014659));
#1546=CARTESIAN_POINT('',(0.00352518463273585,0.00470818463273585,0.014659));
#1547=CARTESIAN_POINT('',(0.004445,0.00470818463273585,0.014659));
#1548=CARTESIAN_POINT('',(0.004445,0.003088,0.014659));
#1549=CARTESIAN_POINT('',(0.004445,0.00146781536726415,0.014659));
#1550=CARTESIAN_POINT('',(0.00352518463273585,0.00146781536726415,0.014659));
#1551=CARTESIAN_POINT('',(0.,-0.00377,-0.014659));
#1552=CARTESIAN_POINT('',(0.,0.0063080054,-0.014659));
#1553=CARTESIAN_POINT('',(0.011,0.0063080054,-0.014659));
#1554=CARTESIAN_POINT('',(0.011,-0.00377,-0.014659));
#1555=CARTESIAN_POINT('',(0.011,-0.002881,-0.014659));
#1556=CARTESIAN_POINT('',(0.,-0.002881,-0.014659));
#1557=CARTESIAN_POINT('',(-0.011,-0.002881,-0.014659));
#1558=CARTESIAN_POINT('',(-0.011,-0.00377,-0.014659));
#1559=CARTESIAN_POINT('',(-0.011,0.0063080054,-0.014659));
#1560=CARTESIAN_POINT('',(0.,0.0063080054,-0.014659));
#1561=CARTESIAN_POINT('',(0.,0.0085,-0.014659));
#1562=CARTESIAN_POINT('',(0.011,-0.00377,0.011));
#1563=CARTESIAN_POINT('',(0.011,0.0063080054,0.011));
#1564=CARTESIAN_POINT('',(0.011,-0.002881,0.011));
#1565=CARTESIAN_POINT('',(-0.011,-0.00377,0.011));
#1566=CARTESIAN_POINT('',(-0.011,0.0063080054,0.011));
#1567=CARTESIAN_POINT('',(-0.011,-0.002881,0.011));
#1568=CARTESIAN_POINT('',(-0.011,-0.00377,-0.011));
#1569=CARTESIAN_POINT('',(-0.011,0.0063080054,-0.011));
#1570=CARTESIAN_POINT('',(-0.011,-0.002881,-0.011));
#1571=CARTESIAN_POINT('',(0.011,-0.00377,-0.011));
#1572=CARTESIAN_POINT('',(0.011,0.0063080054,-0.011));
#1573=CARTESIAN_POINT('',(0.011,-0.002881,-0.011));
#1574=CARTESIAN_POINT('',(0.,0.0085,0.00525));
#1575=CARTESIAN_POINT('',(0.,0.0085,0.012754));
#1576=CARTESIAN_POINT('',(-0.011,0.0085,0.012754));
#1577=CARTESIAN_POINT('',(0.011,0.0085,0.012754));
#1578=CARTESIAN_POINT('',(-0.011,0.0085,0.011));
#1579=CARTESIAN_POINT('',(-0.012754,0.0085,0.011));
#1580=CARTESIAN_POINT('',(-0.012754,0.0085,0.));
#1581=CARTESIAN_POINT('',(-0.012754,0.0085,-0.011));
#1582=CARTESIAN_POINT('',(-0.011,0.0085,-0.011));
#1583=CARTESIAN_POINT('',(-0.011,0.0085,-0.012754));
#1584=CARTESIAN_POINT('',(0.,0.0085,-0.012754));
#1585=CARTESIAN_POINT('',(0.011,0.0085,-0.012754));
#1586=CARTESIAN_POINT('',(0.011,0.0085,-0.011));
#1587=CARTESIAN_POINT('',(0.012754,0.0085,-0.011));
#1588=CARTESIAN_POINT('',(0.012754,0.0085,0.));
#1589=CARTESIAN_POINT('',(0.012754,0.0085,0.011));
#1590=CARTESIAN_POINT('',(0.011,0.0085,0.011));
#1591=CARTESIAN_POINT('',(0.0114545,0.0085,-0.019739));
#1592=CARTESIAN_POINT('',(0.0114545,0.0085,-0.018596));
#1593=CARTESIAN_POINT('',(0.0114545,0.0085,0.019739));
#1594=CARTESIAN_POINT('',(0.0114545,0.0085,0.020882));
#1595=CARTESIAN_POINT('',(-0.0114545,0.0085,0.019739));
#1596=CARTESIAN_POINT('',(-0.0114545,0.0085,0.020882));
#1597=CARTESIAN_POINT('',(-0.0114545,0.0085,-0.019739));
#1598=CARTESIAN_POINT('',(-0.0114545,0.0085,-0.018596));
#1599=CARTESIAN_POINT('',(0.012754,0.010802,0.));
#1600=CARTESIAN_POINT('',(0.012754,0.010802,-0.011));
#1601=CARTESIAN_POINT('',(0.012754,0.010802,0.011));
#1602=CARTESIAN_POINT('',(-0.012754,0.010802,0.));
#1603=CARTESIAN_POINT('',(-0.012754,0.010802,0.011));
#1604=CARTESIAN_POINT('',(-0.012754,0.010802,-0.011));
#1605=CARTESIAN_POINT('',(0.,0.010802,0.012754));
#1606=CARTESIAN_POINT('',(0.011,0.010802,0.012754));
#1607=CARTESIAN_POINT('',(-0.011,0.010802,0.012754));
#1608=CARTESIAN_POINT('',(1.2505522020997E-18,0.000548,0.012754));
#1609=CARTESIAN_POINT('',(0.00352518463273585,0.000548,0.012754));
#1610=CARTESIAN_POINT('',(-0.00352518463273585,0.000548,0.012754));
#1611=CARTESIAN_POINT('',(0.00352518463273585,0.00146781536726415,0.012754));
#1612=CARTESIAN_POINT('',(0.004445,0.00146781536726415,0.012754));
#1613=CARTESIAN_POINT('',(0.004445,0.010802,0.012754));
#1614=CARTESIAN_POINT('',(0.004445,0.00470818463273585,0.012754));
#1615=CARTESIAN_POINT('',(0.00352518463273585,0.00470818463273585,0.012754));
#1616=CARTESIAN_POINT('',(0.00352518463273585,0.005628,0.012754));
#1617=CARTESIAN_POINT('',(1.00961296565849E-18,0.005628,0.012754));
#1618=CARTESIAN_POINT('',(-0.00352518463273585,0.005628,0.012754));
#1619=CARTESIAN_POINT('',(-0.00352518463273585,0.00470818463273585,0.012754));
#1620=CARTESIAN_POINT('',(-0.004445,0.00470818463273585,0.012754));
#1621=CARTESIAN_POINT('',(-0.004445,0.010802,0.012754));
#1622=CARTESIAN_POINT('',(-0.004445,0.00146781536726415,0.012754));
#1623=CARTESIAN_POINT('',(-0.00352518463273585,0.00146781536726415,0.012754));
#1624=CARTESIAN_POINT('',(0.011,0.010802,-0.011));
#1625=CARTESIAN_POINT('',(0.011,0.010802,-0.012754));
#1626=CARTESIAN_POINT('',(-0.011,0.010802,-0.011));
#1627=CARTESIAN_POINT('',(-0.011,0.010802,-0.012754));
#1628=CARTESIAN_POINT('',(0.011,0.010802,0.011));
#1629=CARTESIAN_POINT('',(-0.011,0.010802,0.011));
#1630=CARTESIAN_POINT('',(0.,0.010802,-0.012754));
#1631=CARTESIAN_POINT('',(0.,0.000548,-0.010741));
#1632=CARTESIAN_POINT('',(0.00352518463273585,0.000548,-0.010741));
#1633=CARTESIAN_POINT('',(-0.00352518463273585,0.000548,0.014659));
#1634=CARTESIAN_POINT('',(0.004445,0.003088,-0.010741));
#1635=CARTESIAN_POINT('',(0.004445,0.00146781536726415,-0.010741));
#1636=CARTESIAN_POINT('',(0.004445,0.00470818463273585,0.012754));
#1637=CARTESIAN_POINT('',(0.,0.005628,-0.010741));
#1638=CARTESIAN_POINT('',(0.00352518463273585,0.005628,0.014659));
#1639=CARTESIAN_POINT('',(-0.00352518463273585,0.005628,-0.010741));
#1640=CARTESIAN_POINT('',(-0.004445,0.003088,-0.010741));
#1641=CARTESIAN_POINT('',(-0.004445,0.00146781536726415,0.012754));
#1642=CARTESIAN_POINT('',(-0.004445,0.00470818463273585,-0.010741));
#1643=CARTESIAN_POINT('',(0.00352518463273585,0.00146781536726415,-0.010741));
#1644=CARTESIAN_POINT('',(0.00352518463273585,0.00470818463273585,-0.010741));
#1645=CARTESIAN_POINT('',(-0.00352518463273585,0.00146781536726415,-0.010741));
#1646=CARTESIAN_POINT('',(-0.00352518463273585,0.00470818463273585,-0.010741));
#1647=CARTESIAN_POINT('',(0.0114545,0.0058000054,-0.019739));
#1648=CARTESIAN_POINT('',(0.0114545,0.0063080054,-0.019739));
#1649=CARTESIAN_POINT('',(0.0114545,0.0063080054,-0.018596));
#1650=CARTESIAN_POINT('',(-0.0114545,0.0058000054,-0.019739));
#1651=CARTESIAN_POINT('',(-0.0114545,0.0063080054,-0.019739));
#1652=CARTESIAN_POINT('',(-0.0114545,0.0063080054,-0.018596));
#1653=CARTESIAN_POINT('',(-0.0114545,0.0058000054,0.019739));
#1654=CARTESIAN_POINT('',(-0.0114545,0.0063080054,0.019739));
#1655=CARTESIAN_POINT('',(-0.0114545,0.0063080054,0.020882));
#1656=CARTESIAN_POINT('',(0.0114545,0.0058000054,0.019739));
#1657=CARTESIAN_POINT('',(0.0114545,0.0063080054,0.019739));
#1658=CARTESIAN_POINT('',(0.0114545,0.0063080054,0.020882));
#1659=CARTESIAN_POINT('',(-0.006008,-9.8E-5,0.007625));
#1660=CARTESIAN_POINT('',(-0.006008,-9.8E-5,0.010758));
#1661=CARTESIAN_POINT('',(-0.006008,-0.0025,0.010758));
#1662=CARTESIAN_POINT('',(-0.006008,-0.0025,0.007625));
#1663=CARTESIAN_POINT('',(-0.006008,-0.0025,0.004492));
#1664=CARTESIAN_POINT('',(-0.006008,-9.8E-5,0.004492));
#1665=CARTESIAN_POINT('',(0.,-9.8E-5,0.010758));
#1666=CARTESIAN_POINT('',(0.006008,-9.8E-5,0.010758));
#1667=CARTESIAN_POINT('',(0.006008,-0.0025,0.010758));
#1668=CARTESIAN_POINT('',(0.,-0.0025,0.010758));
#1669=CARTESIAN_POINT('',(0.006008,-9.8E-5,0.007625));
#1670=CARTESIAN_POINT('',(0.006008,-9.8E-5,0.004492));
#1671=CARTESIAN_POINT('',(0.006008,-0.0025,0.004492));
#1672=CARTESIAN_POINT('',(0.006008,-0.0025,0.007625));
#1673=CARTESIAN_POINT('',(0.,-9.8E-5,0.004492));
#1674=CARTESIAN_POINT('',(0.,-0.0025,0.004492));
#1675=CARTESIAN_POINT('',(0.,-0.0025,0.007625));
#1676=CARTESIAN_POINT('',(-0.008008,0.0236,-0.0065));
#1677=CARTESIAN_POINT('',(-0.008008,0.0236,-0.001092));
#1678=CARTESIAN_POINT('',(-0.008008,-0.0018,-0.001092));
#1679=CARTESIAN_POINT('',(-0.008008,-0.0018,-0.0065));
#1680=CARTESIAN_POINT('',(-0.008008,-0.0018,-0.011908));
#1681=CARTESIAN_POINT('',(-0.008008,0.0236,-0.011908));
#1682=CARTESIAN_POINT('',(0.,0.0236,-0.001092));
#1683=CARTESIAN_POINT('',(0.008008,0.0236,-0.001092));
#1684=CARTESIAN_POINT('',(0.008008,-0.0018,-0.001092));
#1685=CARTESIAN_POINT('',(0.,-0.0018,-0.001092));
#1686=CARTESIAN_POINT('',(0.008008,0.0236,-0.0065));
#1687=CARTESIAN_POINT('',(0.008008,0.0236,-0.011908));
#1688=CARTESIAN_POINT('',(0.008008,-0.0018,-0.011908));
#1689=CARTESIAN_POINT('',(0.008008,-0.0018,-0.0065));
#1690=CARTESIAN_POINT('',(0.,0.0236,-0.011908));
#1691=CARTESIAN_POINT('',(0.,-0.0018,-0.011908));
#1692=CARTESIAN_POINT('',(0.,-0.0018,-0.0065));
#1693=CARTESIAN_POINT('',(0.,0.0063080054,3.81639164714897E-17));
#1694=CARTESIAN_POINT('',(0.,0.0063080054,3.81639164714897E-17));
#1695=CARTESIAN_POINT('',(0.,0.0063080054,3.81639164714897E-17));
#1696=CARTESIAN_POINT('',(0.,0.0063080054,3.81639164714897E-17));
#1697=CARTESIAN_POINT('',(0.,-0.002881,0.));
#1698=MECHANICAL_DESIGN_GEOMETRIC_PRESENTATION_REPRESENTATION('',(#1015),
#1699);
#1699=(
GEOMETRIC_REPRESENTATION_CONTEXT(3)
GLOBAL_UNCERTAINTY_ASSIGNED_CONTEXT((#1700))
GLOBAL_UNIT_ASSIGNED_CONTEXT((#1703,#1702,#1701))
REPRESENTATION_CONTEXT('Part 3','TOP_LEVEL_ASSEMBLY_PART')
);
#1700=UNCERTAINTY_MEASURE_WITH_UNIT(LENGTH_MEASURE(1.E-8),#1703,
'DISTANCE_ACCURACY_VALUE','Maximum Tolerance applied to model');
#1701=(
NAMED_UNIT(*)
SI_UNIT($,.STERADIAN.)
SOLID_ANGLE_UNIT()
);
#1702=(
NAMED_UNIT(*)
PLANE_ANGLE_UNIT()
SI_UNIT($,.RADIAN.)
);
#1703=(
LENGTH_UNIT()
NAMED_UNIT(*)
SI_UNIT($,.METRE.)
);
#1704=PRODUCT_DEFINITION_SHAPE('','',#1705);
#1705=PRODUCT_DEFINITION('','',#1707,#1706);
#1706=PRODUCT_DEFINITION_CONTEXT('',#1713,'design');
#1707=PRODUCT_DEFINITION_FORMATION_WITH_SPECIFIED_SOURCE('','',#1709,
 .NOT_KNOWN.);
#1708=PRODUCT_RELATED_PRODUCT_CATEGORY('','',(#1709));
#1709=PRODUCT('Part 3','Part 3','Part 3',(#1711));
#1710=PRODUCT_CATEGORY('','');
#1711=PRODUCT_CONTEXT('',#1713,'mechanical');
#1712=APPLICATION_PROTOCOL_DEFINITION('international standard',
'ap242_managed_model_based_3d_engineering',2020,#1713);
#1713=APPLICATION_CONTEXT('managed model based 3d engineering');
ENDSEC;
END-ISO-10303-21;
