ISO-10303-21;
HEADER;
/* Generated by software containing ST-Developer
 * from STEP Tools, Inc. (www.steptools.com) 
 */
/* OPTION: using custom renumber hook */

FILE_DESCRIPTION(
/* description */ ('STEP AP242 Edition 2',
'CAx-IF Rec.Pracs.---Representation and Presentation of Product Manufa
cturing Information (PMI)---4.0---2014-10-13',
'CAx-IF Rec.Pracs.---3D Tessellated Geometry---0.4---2014-09-14','2;1',
'CAx-IF Rec.Pracs.---User Defined Attributes---1.5---2016-08-15'),
/* implementation_level */ '2;1');

FILE_NAME(
/* name */ 'dexi parts - Part 11',
/* time_stamp */ '2026-06-05T01:17:04Z',
/* author */ (''),
/* organization */ (''),
/* preprocessor_version */ 'ST-DEVELOPER v20',
/* originating_system */ 'ONSHAPE BY PTC INC, 1.215',
/* authorisation */ '  ');

FILE_SCHEMA (('AP242_MANAGED_MODEL_BASED_3D_ENGINEERING_MIM_LF { 1 0 10303 442 3 1 4 }'));
ENDSEC;

DATA;
#10=SHAPE_REPRESENTATION_RELATIONSHIP('','',#717,#11);
#11=ADVANCED_BREP_SHAPE_REPRESENTATION('',(#715),#1257);
#12=TOROIDAL_SURFACE('',#801,0.03429,0.000635);
#13=PLANE('',#735);
#14=PLANE('',#752);
#15=PLANE('',#755);
#16=PLANE('',#758);
#17=PLANE('',#761);
#18=PLANE('',#764);
#19=PLANE('',#767);
#20=PLANE('',#770);
#21=PLANE('',#773);
#22=PLANE('',#776);
#23=PLANE('',#779);
#24=PLANE('',#782);
#25=PLANE('',#785);
#26=PLANE('',#788);
#27=B_SPLINE_CURVE_WITH_KNOTS('',3,(#1031,#1032,#1033,#1034,#1035),
 .UNSPECIFIED.,.F.,.F.,(4,1,4),(0.,0.000795318305950123,0.00159063661190025),
 .UNSPECIFIED.);
#28=B_SPLINE_CURVE_WITH_KNOTS('',3,(#1037,#1038,#1039,#1040,#1041),
 .UNSPECIFIED.,.F.,.F.,(4,1,4),(0.,0.000794259589610704,0.00158851917922141),
 .UNSPECIFIED.);
#29=B_SPLINE_CURVE_WITH_KNOTS('',3,(#1045,#1046,#1047,#1048,#1049),
 .UNSPECIFIED.,.F.,.F.,(4,1,4),(0.,0.000793745182067918,0.00158749036413584),
 .UNSPECIFIED.);
#30=B_SPLINE_CURVE_WITH_KNOTS('',3,(#1051,#1052,#1053,#1054,#1055),
 .UNSPECIFIED.,.F.,.F.,(4,1,4),(0.,0.000794376354884534,0.00158875270976907),
 .UNSPECIFIED.);
#31=B_SPLINE_CURVE_WITH_KNOTS('',3,(#1086,#1087,#1088,#1089,#1090),
 .UNSPECIFIED.,.F.,.F.,(4,1,4),(0.,0.000794321948201667,0.00158864389640333),
 .UNSPECIFIED.);
#32=B_SPLINE_CURVE_WITH_KNOTS('',3,(#1092,#1093,#1094,#1095,#1096),
 .UNSPECIFIED.,.F.,.F.,(4,1,4),(0.,0.000793733382861613,0.00158746676572323),
 .UNSPECIFIED.);
#33=B_SPLINE_CURVE_WITH_KNOTS('',3,(#1100,#1101,#1102,#1103,#1104),
 .UNSPECIFIED.,.F.,.F.,(4,1,4),(0.,0.00079421042662643,0.00158842085325286),
 .UNSPECIFIED.);
#34=B_SPLINE_CURVE_WITH_KNOTS('',3,(#1106,#1107,#1108,#1109,#1110),
 .UNSPECIFIED.,.F.,.F.,(4,1,4),(0.,0.000795188590960773,0.00159037718192155),
 .UNSPECIFIED.);
#35=LINE('',#1023,#81);
#36=LINE('',#1027,#82);
#37=LINE('',#1059,#83);
#38=LINE('',#1063,#84);
#39=LINE('',#1067,#85);
#40=LINE('',#1071,#86);
#41=LINE('',#1075,#87);
#42=LINE('',#1079,#88);
#43=LINE('',#1120,#89);
#44=LINE('',#1121,#90);
#45=LINE('',#1124,#91);
#46=LINE('',#1128,#92);
#47=LINE('',#1133,#93);
#48=LINE('',#1137,#94);
#49=LINE('',#1142,#95);
#50=LINE('',#1146,#96);
#51=LINE('',#1151,#97);
#52=LINE('',#1155,#98);
#53=LINE('',#1159,#99);
#54=LINE('',#1161,#100);
#55=LINE('',#1163,#101);
#56=LINE('',#1167,#102);
#57=LINE('',#1169,#103);
#58=LINE('',#1171,#104);
#59=LINE('',#1179,#105);
#60=LINE('',#1181,#106);
#61=LINE('',#1183,#107);
#62=LINE('',#1187,#108);
#63=LINE('',#1189,#109);
#64=LINE('',#1191,#110);
#65=LINE('',#1199,#111);
#66=LINE('',#1201,#112);
#67=LINE('',#1203,#113);
#68=LINE('',#1207,#114);
#69=LINE('',#1209,#115);
#70=LINE('',#1211,#116);
#71=LINE('',#1219,#117);
#72=LINE('',#1221,#118);
#73=LINE('',#1223,#119);
#74=LINE('',#1227,#120);
#75=LINE('',#1229,#121);
#76=LINE('',#1231,#122);
#77=LINE('',#1239,#123);
#78=LINE('',#1240,#124);
#79=LINE('',#1242,#125);
#80=LINE('',#1244,#126);
#81=VECTOR('',#810,1.);
#82=VECTOR('',#813,1.);
#83=VECTOR('',#820,1.);
#84=VECTOR('',#823,1.);
#85=VECTOR('',#826,1.);
#86=VECTOR('',#829,1.);
#87=VECTOR('',#832,1.);
#88=VECTOR('',#835,1.);
#89=VECTOR('',#854,1.);
#90=VECTOR('',#855,1.);
#91=VECTOR('',#858,1.);
#92=VECTOR('',#861,1.);
#93=VECTOR('',#866,1.);
#94=VECTOR('',#869,1.);
#95=VECTOR('',#874,1.);
#96=VECTOR('',#877,1.);
#97=VECTOR('',#882,1.);
#98=VECTOR('',#885,1.);
#99=VECTOR('',#890,1.);
#100=VECTOR('',#891,1.);
#101=VECTOR('',#892,1.);
#102=VECTOR('',#897,1.);
#103=VECTOR('',#900,1.);
#104=VECTOR('',#901,1.);
#105=VECTOR('',#914,1.);
#106=VECTOR('',#915,1.);
#107=VECTOR('',#916,1.);
#108=VECTOR('',#921,1.);
#109=VECTOR('',#924,1.);
#110=VECTOR('',#925,1.);
#111=VECTOR('',#938,1.);
#112=VECTOR('',#939,1.);
#113=VECTOR('',#940,1.);
#114=VECTOR('',#945,1.);
#115=VECTOR('',#948,1.);
#116=VECTOR('',#949,1.);
#117=VECTOR('',#962,1.);
#118=VECTOR('',#963,1.);
#119=VECTOR('',#964,1.);
#120=VECTOR('',#969,1.);
#121=VECTOR('',#972,1.);
#122=VECTOR('',#973,1.);
#123=VECTOR('',#986,1.);
#124=VECTOR('',#987,1.);
#125=VECTOR('',#990,1.);
#126=VECTOR('',#993,1.);
#127=ORIENTED_EDGE('',*,*,#327,.T.);
#128=ORIENTED_EDGE('',*,*,#328,.T.);
#129=ORIENTED_EDGE('',*,*,#329,.T.);
#130=ORIENTED_EDGE('',*,*,#330,.T.);
#131=ORIENTED_EDGE('',*,*,#331,.T.);
#132=ORIENTED_EDGE('',*,*,#332,.T.);
#133=ORIENTED_EDGE('',*,*,#333,.T.);
#134=ORIENTED_EDGE('',*,*,#334,.T.);
#135=ORIENTED_EDGE('',*,*,#335,.F.);
#136=ORIENTED_EDGE('',*,*,#336,.T.);
#137=ORIENTED_EDGE('',*,*,#337,.T.);
#138=ORIENTED_EDGE('',*,*,#338,.T.);
#139=ORIENTED_EDGE('',*,*,#339,.T.);
#140=ORIENTED_EDGE('',*,*,#340,.T.);
#141=ORIENTED_EDGE('',*,*,#341,.T.);
#142=ORIENTED_EDGE('',*,*,#342,.T.);
#143=ORIENTED_EDGE('',*,*,#343,.T.);
#144=ORIENTED_EDGE('',*,*,#344,.T.);
#145=ORIENTED_EDGE('',*,*,#345,.T.);
#146=ORIENTED_EDGE('',*,*,#346,.T.);
#147=ORIENTED_EDGE('',*,*,#347,.T.);
#148=ORIENTED_EDGE('',*,*,#348,.T.);
#149=ORIENTED_EDGE('',*,*,#349,.T.);
#150=ORIENTED_EDGE('',*,*,#350,.T.);
#151=ORIENTED_EDGE('',*,*,#351,.F.);
#152=ORIENTED_EDGE('',*,*,#352,.T.);
#153=ORIENTED_EDGE('',*,*,#353,.T.);
#154=ORIENTED_EDGE('',*,*,#354,.T.);
#155=ORIENTED_EDGE('',*,*,#355,.T.);
#156=ORIENTED_EDGE('',*,*,#356,.T.);
#157=ORIENTED_EDGE('',*,*,#357,.F.);
#158=ORIENTED_EDGE('',*,*,#358,.F.);
#159=ORIENTED_EDGE('',*,*,#359,.T.);
#160=ORIENTED_EDGE('',*,*,#360,.T.);
#161=ORIENTED_EDGE('',*,*,#338,.F.);
#162=ORIENTED_EDGE('',*,*,#361,.T.);
#163=ORIENTED_EDGE('',*,*,#351,.T.);
#164=ORIENTED_EDGE('',*,*,#362,.T.);
#165=ORIENTED_EDGE('',*,*,#332,.F.);
#166=ORIENTED_EDGE('',*,*,#363,.T.);
#167=ORIENTED_EDGE('',*,*,#364,.F.);
#168=ORIENTED_EDGE('',*,*,#365,.F.);
#169=ORIENTED_EDGE('',*,*,#366,.T.);
#170=ORIENTED_EDGE('',*,*,#367,.T.);
#171=ORIENTED_EDGE('',*,*,#328,.F.);
#172=ORIENTED_EDGE('',*,*,#368,.T.);
#173=ORIENTED_EDGE('',*,*,#369,.F.);
#174=ORIENTED_EDGE('',*,*,#370,.T.);
#175=ORIENTED_EDGE('',*,*,#371,.T.);
#176=ORIENTED_EDGE('',*,*,#372,.T.);
#177=ORIENTED_EDGE('',*,*,#346,.F.);
#178=ORIENTED_EDGE('',*,*,#373,.T.);
#179=ORIENTED_EDGE('',*,*,#374,.F.);
#180=ORIENTED_EDGE('',*,*,#375,.F.);
#181=ORIENTED_EDGE('',*,*,#376,.T.);
#182=ORIENTED_EDGE('',*,*,#377,.T.);
#183=ORIENTED_EDGE('',*,*,#342,.F.);
#184=ORIENTED_EDGE('',*,*,#378,.T.);
#185=ORIENTED_EDGE('',*,*,#379,.F.);
#186=ORIENTED_EDGE('',*,*,#380,.T.);
#187=ORIENTED_EDGE('',*,*,#381,.T.);
#188=ORIENTED_EDGE('',*,*,#382,.T.);
#189=ORIENTED_EDGE('',*,*,#379,.T.);
#190=ORIENTED_EDGE('',*,*,#383,.T.);
#191=ORIENTED_EDGE('',*,*,#384,.F.);
#192=ORIENTED_EDGE('',*,*,#385,.T.);
#193=ORIENTED_EDGE('',*,*,#380,.F.);
#194=ORIENTED_EDGE('',*,*,#385,.F.);
#195=ORIENTED_EDGE('',*,*,#386,.T.);
#196=ORIENTED_EDGE('',*,*,#387,.T.);
#197=ORIENTED_EDGE('',*,*,#388,.T.);
#198=ORIENTED_EDGE('',*,*,#389,.T.);
#199=ORIENTED_EDGE('',*,*,#381,.F.);
#200=ORIENTED_EDGE('',*,*,#387,.F.);
#201=ORIENTED_EDGE('',*,*,#390,.F.);
#202=ORIENTED_EDGE('',*,*,#357,.T.);
#203=ORIENTED_EDGE('',*,*,#340,.F.);
#204=ORIENTED_EDGE('',*,*,#391,.T.);
#205=ORIENTED_EDGE('',*,*,#388,.F.);
#206=ORIENTED_EDGE('',*,*,#386,.F.);
#207=ORIENTED_EDGE('',*,*,#384,.T.);
#208=ORIENTED_EDGE('',*,*,#392,.T.);
#209=ORIENTED_EDGE('',*,*,#390,.T.);
#210=ORIENTED_EDGE('',*,*,#369,.T.);
#211=ORIENTED_EDGE('',*,*,#393,.T.);
#212=ORIENTED_EDGE('',*,*,#394,.F.);
#213=ORIENTED_EDGE('',*,*,#395,.T.);
#214=ORIENTED_EDGE('',*,*,#370,.F.);
#215=ORIENTED_EDGE('',*,*,#395,.F.);
#216=ORIENTED_EDGE('',*,*,#396,.T.);
#217=ORIENTED_EDGE('',*,*,#397,.T.);
#218=ORIENTED_EDGE('',*,*,#398,.T.);
#219=ORIENTED_EDGE('',*,*,#399,.T.);
#220=ORIENTED_EDGE('',*,*,#371,.F.);
#221=ORIENTED_EDGE('',*,*,#397,.F.);
#222=ORIENTED_EDGE('',*,*,#400,.F.);
#223=ORIENTED_EDGE('',*,*,#358,.T.);
#224=ORIENTED_EDGE('',*,*,#348,.F.);
#225=ORIENTED_EDGE('',*,*,#401,.T.);
#226=ORIENTED_EDGE('',*,*,#398,.F.);
#227=ORIENTED_EDGE('',*,*,#396,.F.);
#228=ORIENTED_EDGE('',*,*,#394,.T.);
#229=ORIENTED_EDGE('',*,*,#402,.T.);
#230=ORIENTED_EDGE('',*,*,#400,.T.);
#231=ORIENTED_EDGE('',*,*,#374,.T.);
#232=ORIENTED_EDGE('',*,*,#403,.T.);
#233=ORIENTED_EDGE('',*,*,#404,.F.);
#234=ORIENTED_EDGE('',*,*,#405,.T.);
#235=ORIENTED_EDGE('',*,*,#375,.T.);
#236=ORIENTED_EDGE('',*,*,#405,.F.);
#237=ORIENTED_EDGE('',*,*,#406,.F.);
#238=ORIENTED_EDGE('',*,*,#407,.T.);
#239=ORIENTED_EDGE('',*,*,#408,.T.);
#240=ORIENTED_EDGE('',*,*,#409,.T.);
#241=ORIENTED_EDGE('',*,*,#376,.F.);
#242=ORIENTED_EDGE('',*,*,#407,.F.);
#243=ORIENTED_EDGE('',*,*,#410,.T.);
#244=ORIENTED_EDGE('',*,*,#359,.F.);
#245=ORIENTED_EDGE('',*,*,#344,.F.);
#246=ORIENTED_EDGE('',*,*,#411,.T.);
#247=ORIENTED_EDGE('',*,*,#408,.F.);
#248=ORIENTED_EDGE('',*,*,#406,.T.);
#249=ORIENTED_EDGE('',*,*,#404,.T.);
#250=ORIENTED_EDGE('',*,*,#412,.T.);
#251=ORIENTED_EDGE('',*,*,#410,.F.);
#252=ORIENTED_EDGE('',*,*,#364,.T.);
#253=ORIENTED_EDGE('',*,*,#413,.T.);
#254=ORIENTED_EDGE('',*,*,#414,.F.);
#255=ORIENTED_EDGE('',*,*,#415,.T.);
#256=ORIENTED_EDGE('',*,*,#365,.T.);
#257=ORIENTED_EDGE('',*,*,#415,.F.);
#258=ORIENTED_EDGE('',*,*,#416,.F.);
#259=ORIENTED_EDGE('',*,*,#417,.T.);
#260=ORIENTED_EDGE('',*,*,#418,.T.);
#261=ORIENTED_EDGE('',*,*,#419,.T.);
#262=ORIENTED_EDGE('',*,*,#366,.F.);
#263=ORIENTED_EDGE('',*,*,#417,.F.);
#264=ORIENTED_EDGE('',*,*,#420,.T.);
#265=ORIENTED_EDGE('',*,*,#360,.F.);
#266=ORIENTED_EDGE('',*,*,#330,.F.);
#267=ORIENTED_EDGE('',*,*,#421,.T.);
#268=ORIENTED_EDGE('',*,*,#418,.F.);
#269=ORIENTED_EDGE('',*,*,#416,.T.);
#270=ORIENTED_EDGE('',*,*,#414,.T.);
#271=ORIENTED_EDGE('',*,*,#422,.T.);
#272=ORIENTED_EDGE('',*,*,#420,.F.);
#273=ORIENTED_EDGE('',*,*,#335,.T.);
#274=ORIENTED_EDGE('',*,*,#423,.T.);
#275=ORIENTED_EDGE('',*,*,#354,.F.);
#276=ORIENTED_EDGE('',*,*,#424,.T.);
#277=ORIENTED_EDGE('',*,*,#352,.F.);
#278=ORIENTED_EDGE('',*,*,#361,.F.);
#279=ORIENTED_EDGE('',*,*,#337,.F.);
#280=ORIENTED_EDGE('',*,*,#425,.F.);
#281=ORIENTED_EDGE('',*,*,#356,.F.);
#282=ORIENTED_EDGE('',*,*,#426,.F.);
#283=ORIENTED_EDGE('',*,*,#333,.F.);
#284=ORIENTED_EDGE('',*,*,#362,.F.);
#285=ORIENTED_EDGE('',*,*,#421,.F.);
#286=ORIENTED_EDGE('',*,*,#329,.F.);
#287=ORIENTED_EDGE('',*,*,#367,.F.);
#288=ORIENTED_EDGE('',*,*,#419,.F.);
#289=ORIENTED_EDGE('',*,*,#422,.F.);
#290=ORIENTED_EDGE('',*,*,#413,.F.);
#291=ORIENTED_EDGE('',*,*,#363,.F.);
#292=ORIENTED_EDGE('',*,*,#331,.F.);
#293=ORIENTED_EDGE('',*,*,#401,.F.);
#294=ORIENTED_EDGE('',*,*,#347,.F.);
#295=ORIENTED_EDGE('',*,*,#372,.F.);
#296=ORIENTED_EDGE('',*,*,#399,.F.);
#297=ORIENTED_EDGE('',*,*,#402,.F.);
#298=ORIENTED_EDGE('',*,*,#393,.F.);
#299=ORIENTED_EDGE('',*,*,#368,.F.);
#300=ORIENTED_EDGE('',*,*,#349,.F.);
#301=ORIENTED_EDGE('',*,*,#412,.F.);
#302=ORIENTED_EDGE('',*,*,#403,.F.);
#303=ORIENTED_EDGE('',*,*,#373,.F.);
#304=ORIENTED_EDGE('',*,*,#345,.F.);
#305=ORIENTED_EDGE('',*,*,#411,.F.);
#306=ORIENTED_EDGE('',*,*,#343,.F.);
#307=ORIENTED_EDGE('',*,*,#377,.F.);
#308=ORIENTED_EDGE('',*,*,#409,.F.);
#309=ORIENTED_EDGE('',*,*,#392,.F.);
#310=ORIENTED_EDGE('',*,*,#383,.F.);
#311=ORIENTED_EDGE('',*,*,#378,.F.);
#312=ORIENTED_EDGE('',*,*,#341,.F.);
#313=ORIENTED_EDGE('',*,*,#391,.F.);
#314=ORIENTED_EDGE('',*,*,#339,.F.);
#315=ORIENTED_EDGE('',*,*,#382,.F.);
#316=ORIENTED_EDGE('',*,*,#389,.F.);
#317=ORIENTED_EDGE('',*,*,#355,.F.);
#318=ORIENTED_EDGE('',*,*,#423,.F.);
#319=ORIENTED_EDGE('',*,*,#334,.F.);
#320=ORIENTED_EDGE('',*,*,#426,.T.);
#321=ORIENTED_EDGE('',*,*,#353,.F.);
#322=ORIENTED_EDGE('',*,*,#425,.T.);
#323=ORIENTED_EDGE('',*,*,#336,.F.);
#324=ORIENTED_EDGE('',*,*,#424,.F.);
#325=ORIENTED_EDGE('',*,*,#350,.F.);
#326=ORIENTED_EDGE('',*,*,#327,.F.);
#327=EDGE_CURVE('',#427,#427,#497,.F.);
#328=EDGE_CURVE('',#428,#429,#498,.T.);
#329=EDGE_CURVE('',#429,#430,#35,.F.);
#330=EDGE_CURVE('',#430,#431,#499,.T.);
#331=EDGE_CURVE('',#431,#432,#36,.T.);
#332=EDGE_CURVE('',#432,#433,#500,.T.);
#333=EDGE_CURVE('',#433,#434,#27,.T.);
#334=EDGE_CURVE('',#434,#435,#28,.T.);
#335=EDGE_CURVE('',#436,#435,#501,.F.);
#336=EDGE_CURVE('',#436,#437,#29,.T.);
#337=EDGE_CURVE('',#437,#438,#30,.T.);
#338=EDGE_CURVE('',#438,#439,#502,.T.);
#339=EDGE_CURVE('',#439,#440,#37,.F.);
#340=EDGE_CURVE('',#440,#441,#503,.T.);
#341=EDGE_CURVE('',#441,#442,#38,.T.);
#342=EDGE_CURVE('',#442,#443,#504,.T.);
#343=EDGE_CURVE('',#443,#444,#39,.F.);
#344=EDGE_CURVE('',#444,#445,#505,.T.);
#345=EDGE_CURVE('',#445,#446,#40,.T.);
#346=EDGE_CURVE('',#446,#447,#506,.T.);
#347=EDGE_CURVE('',#447,#448,#41,.F.);
#348=EDGE_CURVE('',#448,#449,#507,.T.);
#349=EDGE_CURVE('',#449,#428,#42,.T.);
#350=EDGE_CURVE('',#450,#450,#508,.T.);
#351=EDGE_CURVE('',#451,#452,#509,.T.);
#352=EDGE_CURVE('',#451,#453,#31,.T.);
#353=EDGE_CURVE('',#453,#454,#32,.T.);
#354=EDGE_CURVE('',#454,#455,#510,.F.);
#355=EDGE_CURVE('',#455,#456,#33,.T.);
#356=EDGE_CURVE('',#456,#452,#34,.T.);
#357=EDGE_CURVE('',#457,#457,#511,.T.);
#358=EDGE_CURVE('',#458,#458,#512,.T.);
#359=EDGE_CURVE('',#459,#459,#513,.T.);
#360=EDGE_CURVE('',#460,#460,#514,.T.);
#361=EDGE_CURVE('',#438,#451,#43,.F.);
#362=EDGE_CURVE('',#452,#433,#44,.T.);
#363=EDGE_CURVE('',#432,#461,#515,.F.);
#364=EDGE_CURVE('',#462,#461,#45,.T.);
#365=EDGE_CURVE('',#463,#462,#516,.T.);
#366=EDGE_CURVE('',#463,#464,#46,.T.);
#367=EDGE_CURVE('',#464,#429,#517,.F.);
#368=EDGE_CURVE('',#428,#465,#518,.F.);
#369=EDGE_CURVE('',#466,#465,#47,.T.);
#370=EDGE_CURVE('',#466,#467,#519,.T.);
#371=EDGE_CURVE('',#467,#468,#48,.T.);
#372=EDGE_CURVE('',#468,#447,#520,.F.);
#373=EDGE_CURVE('',#446,#469,#521,.F.);
#374=EDGE_CURVE('',#470,#469,#49,.T.);
#375=EDGE_CURVE('',#471,#470,#522,.T.);
#376=EDGE_CURVE('',#471,#472,#50,.T.);
#377=EDGE_CURVE('',#472,#443,#523,.F.);
#378=EDGE_CURVE('',#442,#473,#524,.F.);
#379=EDGE_CURVE('',#474,#473,#51,.T.);
#380=EDGE_CURVE('',#474,#475,#525,.T.);
#381=EDGE_CURVE('',#475,#476,#52,.T.);
#382=EDGE_CURVE('',#476,#439,#526,.F.);
#383=EDGE_CURVE('',#473,#477,#53,.T.);
#384=EDGE_CURVE('',#478,#477,#54,.T.);
#385=EDGE_CURVE('',#478,#474,#55,.T.);
#386=EDGE_CURVE('',#478,#479,#527,.T.);
#387=EDGE_CURVE('',#479,#475,#56,.T.);
#388=EDGE_CURVE('',#479,#480,#57,.T.);
#389=EDGE_CURVE('',#480,#476,#58,.T.);
#390=EDGE_CURVE('',#481,#481,#528,.T.);
#391=EDGE_CURVE('',#440,#480,#529,.T.);
#392=EDGE_CURVE('',#477,#441,#530,.T.);
#393=EDGE_CURVE('',#465,#482,#59,.T.);
#394=EDGE_CURVE('',#483,#482,#60,.T.);
#395=EDGE_CURVE('',#483,#466,#61,.T.);
#396=EDGE_CURVE('',#483,#484,#531,.T.);
#397=EDGE_CURVE('',#484,#467,#62,.T.);
#398=EDGE_CURVE('',#484,#485,#63,.T.);
#399=EDGE_CURVE('',#485,#468,#64,.T.);
#400=EDGE_CURVE('',#486,#486,#532,.T.);
#401=EDGE_CURVE('',#448,#485,#533,.T.);
#402=EDGE_CURVE('',#482,#449,#534,.T.);
#403=EDGE_CURVE('',#469,#487,#65,.T.);
#404=EDGE_CURVE('',#488,#487,#66,.T.);
#405=EDGE_CURVE('',#488,#470,#67,.T.);
#406=EDGE_CURVE('',#489,#488,#535,.T.);
#407=EDGE_CURVE('',#489,#471,#68,.T.);
#408=EDGE_CURVE('',#489,#490,#69,.T.);
#409=EDGE_CURVE('',#490,#472,#70,.T.);
#410=EDGE_CURVE('',#491,#491,#536,.T.);
#411=EDGE_CURVE('',#444,#490,#537,.T.);
#412=EDGE_CURVE('',#487,#445,#538,.T.);
#413=EDGE_CURVE('',#461,#492,#71,.T.);
#414=EDGE_CURVE('',#493,#492,#72,.T.);
#415=EDGE_CURVE('',#493,#462,#73,.T.);
#416=EDGE_CURVE('',#494,#493,#539,.T.);
#417=EDGE_CURVE('',#494,#463,#74,.T.);
#418=EDGE_CURVE('',#494,#495,#75,.T.);
#419=EDGE_CURVE('',#495,#464,#76,.T.);
#420=EDGE_CURVE('',#496,#496,#540,.T.);
#421=EDGE_CURVE('',#430,#495,#541,.T.);
#422=EDGE_CURVE('',#492,#431,#542,.T.);
#423=EDGE_CURVE('',#435,#455,#77,.F.);
#424=EDGE_CURVE('',#454,#436,#78,.T.);
#425=EDGE_CURVE('',#453,#437,#79,.T.);
#426=EDGE_CURVE('',#434,#456,#80,.F.);
#427=VERTEX_POINT('',#1019);
#428=VERTEX_POINT('',#1021);
#429=VERTEX_POINT('',#1022);
#430=VERTEX_POINT('',#1024);
#431=VERTEX_POINT('',#1026);
#432=VERTEX_POINT('',#1028);
#433=VERTEX_POINT('',#1030);
#434=VERTEX_POINT('',#1036);
#435=VERTEX_POINT('',#1042);
#436=VERTEX_POINT('',#1044);
#437=VERTEX_POINT('',#1050);
#438=VERTEX_POINT('',#1056);
#439=VERTEX_POINT('',#1058);
#440=VERTEX_POINT('',#1060);
#441=VERTEX_POINT('',#1062);
#442=VERTEX_POINT('',#1064);
#443=VERTEX_POINT('',#1066);
#444=VERTEX_POINT('',#1068);
#445=VERTEX_POINT('',#1070);
#446=VERTEX_POINT('',#1072);
#447=VERTEX_POINT('',#1074);
#448=VERTEX_POINT('',#1076);
#449=VERTEX_POINT('',#1078);
#450=VERTEX_POINT('',#1082);
#451=VERTEX_POINT('',#1084);
#452=VERTEX_POINT('',#1085);
#453=VERTEX_POINT('',#1091);
#454=VERTEX_POINT('',#1097);
#455=VERTEX_POINT('',#1099);
#456=VERTEX_POINT('',#1105);
#457=VERTEX_POINT('',#1113);
#458=VERTEX_POINT('',#1115);
#459=VERTEX_POINT('',#1117);
#460=VERTEX_POINT('',#1119);
#461=VERTEX_POINT('',#1123);
#462=VERTEX_POINT('',#1125);
#463=VERTEX_POINT('',#1127);
#464=VERTEX_POINT('',#1129);
#465=VERTEX_POINT('',#1132);
#466=VERTEX_POINT('',#1134);
#467=VERTEX_POINT('',#1136);
#468=VERTEX_POINT('',#1138);
#469=VERTEX_POINT('',#1141);
#470=VERTEX_POINT('',#1143);
#471=VERTEX_POINT('',#1145);
#472=VERTEX_POINT('',#1147);
#473=VERTEX_POINT('',#1150);
#474=VERTEX_POINT('',#1152);
#475=VERTEX_POINT('',#1154);
#476=VERTEX_POINT('',#1156);
#477=VERTEX_POINT('',#1160);
#478=VERTEX_POINT('',#1162);
#479=VERTEX_POINT('',#1166);
#480=VERTEX_POINT('',#1170);
#481=VERTEX_POINT('',#1174);
#482=VERTEX_POINT('',#1180);
#483=VERTEX_POINT('',#1182);
#484=VERTEX_POINT('',#1186);
#485=VERTEX_POINT('',#1190);
#486=VERTEX_POINT('',#1194);
#487=VERTEX_POINT('',#1200);
#488=VERTEX_POINT('',#1202);
#489=VERTEX_POINT('',#1206);
#490=VERTEX_POINT('',#1210);
#491=VERTEX_POINT('',#1214);
#492=VERTEX_POINT('',#1220);
#493=VERTEX_POINT('',#1222);
#494=VERTEX_POINT('',#1226);
#495=VERTEX_POINT('',#1230);
#496=VERTEX_POINT('',#1234);
#497=CIRCLE('',#720,0.033655);
#498=CIRCLE('',#721,0.033655);
#499=CIRCLE('',#722,0.033655);
#500=CIRCLE('',#723,0.033655);
#501=CIRCLE('',#724,0.033655);
#502=CIRCLE('',#725,0.033655);
#503=CIRCLE('',#726,0.033655);
#504=CIRCLE('',#727,0.033655);
#505=CIRCLE('',#728,0.033655);
#506=CIRCLE('',#729,0.033655);
#507=CIRCLE('',#730,0.033655);
#508=CIRCLE('',#732,0.034925);
#509=CIRCLE('',#733,0.034925);
#510=CIRCLE('',#734,0.034925);
#511=CIRCLE('',#736,0.001143);
#512=CIRCLE('',#737,0.001143);
#513=CIRCLE('',#738,0.001143);
#514=CIRCLE('',#739,0.001143);
#515=CIRCLE('',#740,0.001016);
#516=CIRCLE('',#741,0.001905);
#517=CIRCLE('',#742,0.001016);
#518=CIRCLE('',#743,0.001016);
#519=CIRCLE('',#744,0.001905);
#520=CIRCLE('',#745,0.001016);
#521=CIRCLE('',#746,0.001016);
#522=CIRCLE('',#747,0.001905);
#523=CIRCLE('',#748,0.001016);
#524=CIRCLE('',#749,0.001016);
#525=CIRCLE('',#750,0.001905);
#526=CIRCLE('',#751,0.001016);
#527=CIRCLE('',#754,0.001905);
#528=CIRCLE('',#757,0.001143);
#529=CIRCLE('',#759,0.001016);
#530=CIRCLE('',#760,0.001016);
#531=CIRCLE('',#763,0.001905);
#532=CIRCLE('',#766,0.001143);
#533=CIRCLE('',#768,0.001016);
#534=CIRCLE('',#769,0.001016);
#535=CIRCLE('',#772,0.001905);
#536=CIRCLE('',#775,0.001143);
#537=CIRCLE('',#777,0.001016);
#538=CIRCLE('',#778,0.001016);
#539=CIRCLE('',#781,0.001905);
#540=CIRCLE('',#784,0.001143);
#541=CIRCLE('',#786,0.001016);
#542=CIRCLE('',#787,0.001016);
#543=EDGE_LOOP('',(#127));
#544=EDGE_LOOP('',(#128,#129,#130,#131,#132,#133,#134,#135,#136,#137,#138,
#139,#140,#141,#142,#143,#144,#145,#146,#147,#148,#149));
#545=EDGE_LOOP('',(#150));
#546=EDGE_LOOP('',(#151,#152,#153,#154,#155,#156));
#547=EDGE_LOOP('',(#157));
#548=EDGE_LOOP('',(#158));
#549=EDGE_LOOP('',(#159));
#550=EDGE_LOOP('',(#160));
#551=EDGE_LOOP('',(#161,#162,#163,#164,#165,#166,#167,#168,#169,#170,#171,
#172,#173,#174,#175,#176,#177,#178,#179,#180,#181,#182,#183,#184,#185,#186,
#187,#188));
#552=EDGE_LOOP('',(#189,#190,#191,#192));
#553=EDGE_LOOP('',(#193,#194,#195,#196));
#554=EDGE_LOOP('',(#197,#198,#199,#200));
#555=EDGE_LOOP('',(#201));
#556=EDGE_LOOP('',(#202));
#557=EDGE_LOOP('',(#203,#204,#205,#206,#207,#208));
#558=EDGE_LOOP('',(#209));
#559=EDGE_LOOP('',(#210,#211,#212,#213));
#560=EDGE_LOOP('',(#214,#215,#216,#217));
#561=EDGE_LOOP('',(#218,#219,#220,#221));
#562=EDGE_LOOP('',(#222));
#563=EDGE_LOOP('',(#223));
#564=EDGE_LOOP('',(#224,#225,#226,#227,#228,#229));
#565=EDGE_LOOP('',(#230));
#566=EDGE_LOOP('',(#231,#232,#233,#234));
#567=EDGE_LOOP('',(#235,#236,#237,#238));
#568=EDGE_LOOP('',(#239,#240,#241,#242));
#569=EDGE_LOOP('',(#243));
#570=EDGE_LOOP('',(#244));
#571=EDGE_LOOP('',(#245,#246,#247,#248,#249,#250));
#572=EDGE_LOOP('',(#251));
#573=EDGE_LOOP('',(#252,#253,#254,#255));
#574=EDGE_LOOP('',(#256,#257,#258,#259));
#575=EDGE_LOOP('',(#260,#261,#262,#263));
#576=EDGE_LOOP('',(#264));
#577=EDGE_LOOP('',(#265));
#578=EDGE_LOOP('',(#266,#267,#268,#269,#270,#271));
#579=EDGE_LOOP('',(#272));
#580=EDGE_LOOP('',(#273,#274,#275,#276));
#581=EDGE_LOOP('',(#277,#278,#279,#280));
#582=EDGE_LOOP('',(#281,#282,#283,#284));
#583=EDGE_LOOP('',(#285,#286,#287,#288));
#584=EDGE_LOOP('',(#289,#290,#291,#292));
#585=EDGE_LOOP('',(#293,#294,#295,#296));
#586=EDGE_LOOP('',(#297,#298,#299,#300));
#587=EDGE_LOOP('',(#301,#302,#303,#304));
#588=EDGE_LOOP('',(#305,#306,#307,#308));
#589=EDGE_LOOP('',(#309,#310,#311,#312));
#590=EDGE_LOOP('',(#313,#314,#315,#316));
#591=EDGE_LOOP('',(#317,#318,#319,#320));
#592=EDGE_LOOP('',(#321,#322,#323,#324));
#593=EDGE_LOOP('',(#325));
#594=EDGE_LOOP('',(#326));
#595=FACE_BOUND('',#543,.T.);
#596=FACE_BOUND('',#544,.T.);
#597=FACE_BOUND('',#545,.T.);
#598=FACE_BOUND('',#546,.T.);
#599=FACE_BOUND('',#547,.T.);
#600=FACE_BOUND('',#548,.T.);
#601=FACE_BOUND('',#549,.T.);
#602=FACE_BOUND('',#550,.T.);
#603=FACE_BOUND('',#551,.T.);
#604=FACE_BOUND('',#552,.T.);
#605=FACE_BOUND('',#553,.T.);
#606=FACE_BOUND('',#554,.T.);
#607=FACE_BOUND('',#555,.T.);
#608=FACE_BOUND('',#556,.T.);
#609=FACE_BOUND('',#557,.T.);
#610=FACE_BOUND('',#558,.T.);
#611=FACE_BOUND('',#559,.T.);
#612=FACE_BOUND('',#560,.T.);
#613=FACE_BOUND('',#561,.T.);
#614=FACE_BOUND('',#562,.T.);
#615=FACE_BOUND('',#563,.T.);
#616=FACE_BOUND('',#564,.T.);
#617=FACE_BOUND('',#565,.T.);
#618=FACE_BOUND('',#566,.T.);
#619=FACE_BOUND('',#567,.T.);
#620=FACE_BOUND('',#568,.T.);
#621=FACE_BOUND('',#569,.T.);
#622=FACE_BOUND('',#570,.T.);
#623=FACE_BOUND('',#571,.T.);
#624=FACE_BOUND('',#572,.T.);
#625=FACE_BOUND('',#573,.T.);
#626=FACE_BOUND('',#574,.T.);
#627=FACE_BOUND('',#575,.T.);
#628=FACE_BOUND('',#576,.T.);
#629=FACE_BOUND('',#577,.T.);
#630=FACE_BOUND('',#578,.T.);
#631=FACE_BOUND('',#579,.T.);
#632=FACE_BOUND('',#580,.T.);
#633=FACE_BOUND('',#581,.T.);
#634=FACE_BOUND('',#582,.T.);
#635=FACE_BOUND('',#583,.T.);
#636=FACE_BOUND('',#584,.T.);
#637=FACE_BOUND('',#585,.T.);
#638=FACE_BOUND('',#586,.T.);
#639=FACE_BOUND('',#587,.T.);
#640=FACE_BOUND('',#588,.T.);
#641=FACE_BOUND('',#589,.T.);
#642=FACE_BOUND('',#590,.T.);
#643=FACE_BOUND('',#591,.T.);
#644=FACE_BOUND('',#592,.T.);
#645=FACE_BOUND('',#593,.T.);
#646=FACE_BOUND('',#594,.T.);
#647=CYLINDRICAL_SURFACE('',#719,0.033655);
#648=CYLINDRICAL_SURFACE('',#731,0.034925);
#649=CYLINDRICAL_SURFACE('',#753,0.001905);
#650=CYLINDRICAL_SURFACE('',#756,0.001143);
#651=CYLINDRICAL_SURFACE('',#762,0.001905);
#652=CYLINDRICAL_SURFACE('',#765,0.001143);
#653=CYLINDRICAL_SURFACE('',#771,0.001905);
#654=CYLINDRICAL_SURFACE('',#774,0.001143);
#655=CYLINDRICAL_SURFACE('',#780,0.001905);
#656=CYLINDRICAL_SURFACE('',#783,0.001143);
#657=CYLINDRICAL_SURFACE('',#789,0.001016);
#658=CYLINDRICAL_SURFACE('',#790,0.001016);
#659=CYLINDRICAL_SURFACE('',#791,0.001016);
#660=CYLINDRICAL_SURFACE('',#792,0.001016);
#661=CYLINDRICAL_SURFACE('',#793,0.001016);
#662=CYLINDRICAL_SURFACE('',#794,0.001016);
#663=CYLINDRICAL_SURFACE('',#795,0.001016);
#664=CYLINDRICAL_SURFACE('',#796,0.001016);
#665=CYLINDRICAL_SURFACE('',#797,0.001016);
#666=CYLINDRICAL_SURFACE('',#798,0.001016);
#667=CYLINDRICAL_SURFACE('',#799,0.001016);
#668=CYLINDRICAL_SURFACE('',#800,0.001016);
#669=ADVANCED_FACE('',(#595,#596),#647,.F.);
#670=ADVANCED_FACE('',(#597,#598),#648,.T.);
#671=ADVANCED_FACE('',(#599,#600,#601,#602,#603),#13,.T.);
#672=ADVANCED_FACE('',(#604),#14,.F.);
#673=ADVANCED_FACE('',(#605),#649,.T.);
#674=ADVANCED_FACE('',(#606),#15,.T.);
#675=ADVANCED_FACE('',(#607,#608),#650,.F.);
#676=ADVANCED_FACE('',(#609,#610),#16,.F.);
#677=ADVANCED_FACE('',(#611),#17,.F.);
#678=ADVANCED_FACE('',(#612),#651,.T.);
#679=ADVANCED_FACE('',(#613),#18,.T.);
#680=ADVANCED_FACE('',(#614,#615),#652,.F.);
#681=ADVANCED_FACE('',(#616,#617),#19,.F.);
#682=ADVANCED_FACE('',(#618),#20,.F.);
#683=ADVANCED_FACE('',(#619),#653,.T.);
#684=ADVANCED_FACE('',(#620),#21,.T.);
#685=ADVANCED_FACE('',(#621,#622),#654,.F.);
#686=ADVANCED_FACE('',(#623,#624),#22,.F.);
#687=ADVANCED_FACE('',(#625),#23,.F.);
#688=ADVANCED_FACE('',(#626),#655,.T.);
#689=ADVANCED_FACE('',(#627),#24,.T.);
#690=ADVANCED_FACE('',(#628,#629),#656,.F.);
#691=ADVANCED_FACE('',(#630,#631),#25,.F.);
#692=ADVANCED_FACE('',(#632),#26,.T.);
#693=ADVANCED_FACE('',(#633),#657,.T.);
#694=ADVANCED_FACE('',(#634),#658,.T.);
#695=ADVANCED_FACE('',(#635),#659,.F.);
#696=ADVANCED_FACE('',(#636),#660,.F.);
#697=ADVANCED_FACE('',(#637),#661,.F.);
#698=ADVANCED_FACE('',(#638),#662,.F.);
#699=ADVANCED_FACE('',(#639),#663,.F.);
#700=ADVANCED_FACE('',(#640),#664,.F.);
#701=ADVANCED_FACE('',(#641),#665,.F.);
#702=ADVANCED_FACE('',(#642),#666,.F.);
#703=ADVANCED_FACE('',(#643),#667,.F.);
#704=ADVANCED_FACE('',(#644),#668,.F.);
#705=ADVANCED_FACE('',(#645,#646),#12,.T.);
#706=CLOSED_SHELL('',(#669,#670,#671,#672,#673,#674,#675,#676,#677,#678,
#679,#680,#681,#682,#683,#684,#685,#686,#687,#688,#689,#690,#691,#692,#693,
#694,#695,#696,#697,#698,#699,#700,#701,#702,#703,#704,#705));
#707=STYLED_ITEM('',(#708),#715);
#708=PRESENTATION_STYLE_ASSIGNMENT((#709));
#709=SURFACE_STYLE_USAGE(.BOTH.,#710);
#710=SURFACE_SIDE_STYLE('',(#711));
#711=SURFACE_STYLE_FILL_AREA(#712);
#712=FILL_AREA_STYLE('',(#713));
#713=FILL_AREA_STYLE_COLOUR('',#714);
#714=COLOUR_RGB('',0.231372549019608,0.380392156862745,0.705882352941177);
#715=MANIFOLD_SOLID_BREP('Part 11',#706);
#716=SHAPE_DEFINITION_REPRESENTATION(#1262,#717);
#717=SHAPE_REPRESENTATION('Part 11',(#718),#1257);
#718=AXIS2_PLACEMENT_3D('',#1016,#802,#803);
#719=AXIS2_PLACEMENT_3D('',#1017,#804,#805);
#720=AXIS2_PLACEMENT_3D('',#1018,#806,#807);
#721=AXIS2_PLACEMENT_3D('',#1020,#808,#809);
#722=AXIS2_PLACEMENT_3D('',#1025,#811,#812);
#723=AXIS2_PLACEMENT_3D('',#1029,#814,#815);
#724=AXIS2_PLACEMENT_3D('',#1043,#816,#817);
#725=AXIS2_PLACEMENT_3D('',#1057,#818,#819);
#726=AXIS2_PLACEMENT_3D('',#1061,#821,#822);
#727=AXIS2_PLACEMENT_3D('',#1065,#824,#825);
#728=AXIS2_PLACEMENT_3D('',#1069,#827,#828);
#729=AXIS2_PLACEMENT_3D('',#1073,#830,#831);
#730=AXIS2_PLACEMENT_3D('',#1077,#833,#834);
#731=AXIS2_PLACEMENT_3D('',#1080,#836,#837);
#732=AXIS2_PLACEMENT_3D('',#1081,#838,#839);
#733=AXIS2_PLACEMENT_3D('',#1083,#840,#841);
#734=AXIS2_PLACEMENT_3D('',#1098,#842,#843);
#735=AXIS2_PLACEMENT_3D('',#1111,#844,#845);
#736=AXIS2_PLACEMENT_3D('',#1112,#846,#847);
#737=AXIS2_PLACEMENT_3D('',#1114,#848,#849);
#738=AXIS2_PLACEMENT_3D('',#1116,#850,#851);
#739=AXIS2_PLACEMENT_3D('',#1118,#852,#853);
#740=AXIS2_PLACEMENT_3D('',#1122,#856,#857);
#741=AXIS2_PLACEMENT_3D('',#1126,#859,#860);
#742=AXIS2_PLACEMENT_3D('',#1130,#862,#863);
#743=AXIS2_PLACEMENT_3D('',#1131,#864,#865);
#744=AXIS2_PLACEMENT_3D('',#1135,#867,#868);
#745=AXIS2_PLACEMENT_3D('',#1139,#870,#871);
#746=AXIS2_PLACEMENT_3D('',#1140,#872,#873);
#747=AXIS2_PLACEMENT_3D('',#1144,#875,#876);
#748=AXIS2_PLACEMENT_3D('',#1148,#878,#879);
#749=AXIS2_PLACEMENT_3D('',#1149,#880,#881);
#750=AXIS2_PLACEMENT_3D('',#1153,#883,#884);
#751=AXIS2_PLACEMENT_3D('',#1157,#886,#887);
#752=AXIS2_PLACEMENT_3D('',#1158,#888,#889);
#753=AXIS2_PLACEMENT_3D('',#1164,#893,#894);
#754=AXIS2_PLACEMENT_3D('',#1165,#895,#896);
#755=AXIS2_PLACEMENT_3D('',#1168,#898,#899);
#756=AXIS2_PLACEMENT_3D('',#1172,#902,#903);
#757=AXIS2_PLACEMENT_3D('',#1173,#904,#905);
#758=AXIS2_PLACEMENT_3D('',#1175,#906,#907);
#759=AXIS2_PLACEMENT_3D('',#1176,#908,#909);
#760=AXIS2_PLACEMENT_3D('',#1177,#910,#911);
#761=AXIS2_PLACEMENT_3D('',#1178,#912,#913);
#762=AXIS2_PLACEMENT_3D('',#1184,#917,#918);
#763=AXIS2_PLACEMENT_3D('',#1185,#919,#920);
#764=AXIS2_PLACEMENT_3D('',#1188,#922,#923);
#765=AXIS2_PLACEMENT_3D('',#1192,#926,#927);
#766=AXIS2_PLACEMENT_3D('',#1193,#928,#929);
#767=AXIS2_PLACEMENT_3D('',#1195,#930,#931);
#768=AXIS2_PLACEMENT_3D('',#1196,#932,#933);
#769=AXIS2_PLACEMENT_3D('',#1197,#934,#935);
#770=AXIS2_PLACEMENT_3D('',#1198,#936,#937);
#771=AXIS2_PLACEMENT_3D('',#1204,#941,#942);
#772=AXIS2_PLACEMENT_3D('',#1205,#943,#944);
#773=AXIS2_PLACEMENT_3D('',#1208,#946,#947);
#774=AXIS2_PLACEMENT_3D('',#1212,#950,#951);
#775=AXIS2_PLACEMENT_3D('',#1213,#952,#953);
#776=AXIS2_PLACEMENT_3D('',#1215,#954,#955);
#777=AXIS2_PLACEMENT_3D('',#1216,#956,#957);
#778=AXIS2_PLACEMENT_3D('',#1217,#958,#959);
#779=AXIS2_PLACEMENT_3D('',#1218,#960,#961);
#780=AXIS2_PLACEMENT_3D('',#1224,#965,#966);
#781=AXIS2_PLACEMENT_3D('',#1225,#967,#968);
#782=AXIS2_PLACEMENT_3D('',#1228,#970,#971);
#783=AXIS2_PLACEMENT_3D('',#1232,#974,#975);
#784=AXIS2_PLACEMENT_3D('',#1233,#976,#977);
#785=AXIS2_PLACEMENT_3D('',#1235,#978,#979);
#786=AXIS2_PLACEMENT_3D('',#1236,#980,#981);
#787=AXIS2_PLACEMENT_3D('',#1237,#982,#983);
#788=AXIS2_PLACEMENT_3D('',#1238,#984,#985);
#789=AXIS2_PLACEMENT_3D('',#1241,#988,#989);
#790=AXIS2_PLACEMENT_3D('',#1243,#991,#992);
#791=AXIS2_PLACEMENT_3D('',#1245,#994,#995);
#792=AXIS2_PLACEMENT_3D('',#1246,#996,#997);
#793=AXIS2_PLACEMENT_3D('',#1247,#998,#999);
#794=AXIS2_PLACEMENT_3D('',#1248,#1000,#1001);
#795=AXIS2_PLACEMENT_3D('',#1249,#1002,#1003);
#796=AXIS2_PLACEMENT_3D('',#1250,#1004,#1005);
#797=AXIS2_PLACEMENT_3D('',#1251,#1006,#1007);
#798=AXIS2_PLACEMENT_3D('',#1252,#1008,#1009);
#799=AXIS2_PLACEMENT_3D('',#1253,#1010,#1011);
#800=AXIS2_PLACEMENT_3D('',#1254,#1012,#1013);
#801=AXIS2_PLACEMENT_3D('',#1255,#1014,#1015);
#802=DIRECTION('',(0.,0.,1.));
#803=DIRECTION('',(1.,0.,0.));
#804=DIRECTION('',(0.,0.,1.));
#805=DIRECTION('',(1.,0.,0.));
#806=DIRECTION('',(0.,0.,1.));
#807=DIRECTION('',(1.,0.,0.));
#808=DIRECTION('',(0.,0.,1.));
#809=DIRECTION('',(1.,0.,0.));
#810=DIRECTION('',(0.,0.,1.));
#811=DIRECTION('',(0.,0.,1.));
#812=DIRECTION('',(1.,0.,0.));
#813=DIRECTION('',(0.,0.,1.));
#814=DIRECTION('',(0.,0.,1.));
#815=DIRECTION('',(1.,0.,0.));
#816=DIRECTION('',(0.,0.,1.));
#817=DIRECTION('',(1.,0.,0.));
#818=DIRECTION('',(0.,0.,1.));
#819=DIRECTION('',(1.,0.,0.));
#820=DIRECTION('',(0.,0.,1.));
#821=DIRECTION('',(0.,0.,1.));
#822=DIRECTION('',(1.,0.,0.));
#823=DIRECTION('',(0.,0.,1.));
#824=DIRECTION('',(0.,0.,1.));
#825=DIRECTION('',(1.,0.,0.));
#826=DIRECTION('',(0.,0.,1.));
#827=DIRECTION('',(0.,0.,1.));
#828=DIRECTION('',(1.,0.,0.));
#829=DIRECTION('',(0.,0.,1.));
#830=DIRECTION('',(0.,0.,1.));
#831=DIRECTION('',(1.,0.,0.));
#832=DIRECTION('',(0.,0.,1.));
#833=DIRECTION('',(0.,0.,1.));
#834=DIRECTION('',(1.,0.,0.));
#835=DIRECTION('',(0.,0.,1.));
#836=DIRECTION('',(0.,0.,1.));
#837=DIRECTION('',(1.,0.,0.));
#838=DIRECTION('',(0.,0.,1.));
#839=DIRECTION('',(1.,0.,0.));
#840=DIRECTION('',(0.,0.,1.));
#841=DIRECTION('',(1.,0.,0.));
#842=DIRECTION('',(0.,0.,1.));
#843=DIRECTION('',(1.,0.,0.));
#844=DIRECTION('',(0.,0.,1.));
#845=DIRECTION('',(1.,0.,0.));
#846=DIRECTION('',(0.,0.,1.));
#847=DIRECTION('',(1.,0.,0.));
#848=DIRECTION('',(0.,0.,1.));
#849=DIRECTION('',(1.,0.,0.));
#850=DIRECTION('',(0.,0.,-1.));
#851=DIRECTION('',(1.,0.,0.));
#852=DIRECTION('',(0.,0.,-1.));
#853=DIRECTION('',(1.,0.,0.));
#854=DIRECTION('',(-1.,0.,0.));
#855=DIRECTION('',(-1.,0.,0.));
#856=DIRECTION('',(0.,0.,1.));
#857=DIRECTION('',(1.,0.,0.));
#858=DIRECTION('',(0.507335067060945,-0.861748878577899,0.));
#859=DIRECTION('',(0.,0.,-1.));
#860=DIRECTION('',(1.,0.,0.));
#861=DIRECTION('',(0.507335067060946,-0.861748878577898,0.));
#862=DIRECTION('',(0.,0.,1.));
#863=DIRECTION('',(1.,0.,0.));
#864=DIRECTION('',(0.,0.,1.));
#865=DIRECTION('',(1.,0.,0.));
#866=DIRECTION('',(-0.507335067060854,-0.861748878577953,0.));
#867=DIRECTION('',(0.,0.,1.));
#868=DIRECTION('',(1.,0.,0.));
#869=DIRECTION('',(-0.507335067060851,-0.861748878577954,0.));
#870=DIRECTION('',(0.,0.,1.));
#871=DIRECTION('',(1.,0.,0.));
#872=DIRECTION('',(0.,0.,1.));
#873=DIRECTION('',(1.,0.,0.));
#874=DIRECTION('',(-0.507335067061064,0.861748878577829,0.));
#875=DIRECTION('',(0.,0.,-1.));
#876=DIRECTION('',(1.,0.,0.));
#877=DIRECTION('',(-0.50733506706106,0.861748878577831,0.));
#878=DIRECTION('',(0.,0.,1.));
#879=DIRECTION('',(1.,0.,0.));
#880=DIRECTION('',(0.,0.,1.));
#881=DIRECTION('',(1.,0.,0.));
#882=DIRECTION('',(0.507335067060971,0.861748878577884,0.));
#883=DIRECTION('',(0.,0.,1.));
#884=DIRECTION('',(1.,0.,0.));
#885=DIRECTION('',(0.50733506706097,0.861748878577884,0.));
#886=DIRECTION('',(0.,0.,1.));
#887=DIRECTION('',(1.,0.,0.));
#888=DIRECTION('',(0.861748878577884,-0.507335067060971,0.));
#889=DIRECTION('',(0.507335067060971,0.861748878577884,0.));
#890=DIRECTION('',(0.,0.,-1.));
#891=DIRECTION('',(0.507335067060971,0.861748878577884,0.));
#892=DIRECTION('',(0.,0.,1.));
#893=DIRECTION('',(0.,0.,1.));
#894=DIRECTION('',(1.,0.,0.));
#895=DIRECTION('',(0.,0.,1.));
#896=DIRECTION('',(1.,0.,0.));
#897=DIRECTION('',(0.,0.,1.));
#898=DIRECTION('',(0.861748878577884,-0.50733506706097,0.));
#899=DIRECTION('',(0.50733506706097,0.861748878577884,0.));
#900=DIRECTION('',(0.50733506706097,0.861748878577884,0.));
#901=DIRECTION('',(0.,0.,1.));
#902=DIRECTION('',(0.,0.,1.));
#903=DIRECTION('',(1.,0.,0.));
#904=DIRECTION('',(0.,0.,1.));
#905=DIRECTION('',(1.,0.,0.));
#906=DIRECTION('',(0.,0.,1.));
#907=DIRECTION('',(1.,0.,0.));
#908=DIRECTION('',(0.,0.,1.));
#909=DIRECTION('',(1.,0.,0.));
#910=DIRECTION('',(0.,0.,1.));
#911=DIRECTION('',(1.,0.,0.));
#912=DIRECTION('',(-0.861748878577953,0.507335067060854,0.));
#913=DIRECTION('',(-0.507335067060854,-0.861748878577953,0.));
#914=DIRECTION('',(0.,0.,-1.));
#915=DIRECTION('',(-0.507335067060854,-0.861748878577953,0.));
#916=DIRECTION('',(0.,0.,1.));
#917=DIRECTION('',(0.,0.,1.));
#918=DIRECTION('',(1.,0.,0.));
#919=DIRECTION('',(0.,0.,1.));
#920=DIRECTION('',(1.,0.,0.));
#921=DIRECTION('',(0.,0.,1.));
#922=DIRECTION('',(-0.861748878577954,0.507335067060851,0.));
#923=DIRECTION('',(-0.507335067060851,-0.861748878577954,0.));
#924=DIRECTION('',(-0.507335067060851,-0.861748878577954,0.));
#925=DIRECTION('',(0.,0.,1.));
#926=DIRECTION('',(0.,0.,1.));
#927=DIRECTION('',(1.,0.,0.));
#928=DIRECTION('',(0.,0.,1.));
#929=DIRECTION('',(1.,0.,0.));
#930=DIRECTION('',(0.,0.,1.));
#931=DIRECTION('',(1.,0.,0.));
#932=DIRECTION('',(0.,0.,1.));
#933=DIRECTION('',(1.,0.,0.));
#934=DIRECTION('',(0.,0.,1.));
#935=DIRECTION('',(1.,0.,0.));
#936=DIRECTION('',(0.861748878577829,0.507335067061064,0.));
#937=DIRECTION('',(-0.507335067061064,0.861748878577829,0.));
#938=DIRECTION('',(0.,0.,-1.));
#939=DIRECTION('',(-0.507335067061064,0.861748878577829,0.));
#940=DIRECTION('',(0.,0.,1.));
#941=DIRECTION('',(0.,0.,1.));
#942=DIRECTION('',(1.,0.,0.));
#943=DIRECTION('',(0.,0.,-1.));
#944=DIRECTION('',(1.,0.,0.));
#945=DIRECTION('',(0.,0.,1.));
#946=DIRECTION('',(0.861748878577831,0.50733506706106,0.));
#947=DIRECTION('',(-0.50733506706106,0.861748878577831,0.));
#948=DIRECTION('',(-0.50733506706106,0.861748878577831,0.));
#949=DIRECTION('',(0.,0.,1.));
#950=DIRECTION('',(0.,0.,1.));
#951=DIRECTION('',(1.,0.,0.));
#952=DIRECTION('',(0.,0.,-1.));
#953=DIRECTION('',(1.,0.,0.));
#954=DIRECTION('',(0.,0.,1.));
#955=DIRECTION('',(1.,0.,0.));
#956=DIRECTION('',(0.,0.,1.));
#957=DIRECTION('',(1.,0.,0.));
#958=DIRECTION('',(0.,0.,1.));
#959=DIRECTION('',(1.,0.,0.));
#960=DIRECTION('',(-0.861748878577899,-0.507335067060945,0.));
#961=DIRECTION('',(0.507335067060945,-0.861748878577899,0.));
#962=DIRECTION('',(0.,0.,-1.));
#963=DIRECTION('',(0.507335067060945,-0.861748878577899,0.));
#964=DIRECTION('',(0.,0.,1.));
#965=DIRECTION('',(0.,0.,1.));
#966=DIRECTION('',(1.,0.,0.));
#967=DIRECTION('',(0.,0.,-1.));
#968=DIRECTION('',(1.,0.,0.));
#969=DIRECTION('',(0.,0.,1.));
#970=DIRECTION('',(-0.861748878577898,-0.507335067060946,0.));
#971=DIRECTION('',(0.507335067060946,-0.861748878577898,0.));
#972=DIRECTION('',(0.507335067060946,-0.861748878577898,0.));
#973=DIRECTION('',(0.,0.,1.));
#974=DIRECTION('',(0.,0.,1.));
#975=DIRECTION('',(1.,0.,0.));
#976=DIRECTION('',(0.,0.,-1.));
#977=DIRECTION('',(1.,0.,0.));
#978=DIRECTION('',(0.,0.,1.));
#979=DIRECTION('',(1.,0.,0.));
#980=DIRECTION('',(0.,0.,1.));
#981=DIRECTION('',(1.,0.,0.));
#982=DIRECTION('',(0.,0.,1.));
#983=DIRECTION('',(1.,0.,0.));
#984=DIRECTION('',(0.,0.,1.));
#985=DIRECTION('',(1.,0.,0.));
#986=DIRECTION('',(-1.,0.,0.));
#987=DIRECTION('',(-1.,0.,0.));
#988=DIRECTION('',(1.,0.,0.));
#989=DIRECTION('',(0.,0.,-1.));
#990=DIRECTION('',(-1.,0.,0.));
#991=DIRECTION('',(-1.,0.,0.));
#992=DIRECTION('',(0.,0.,1.));
#993=DIRECTION('',(-1.,0.,0.));
#994=DIRECTION('',(0.,0.,1.));
#995=DIRECTION('',(1.,0.,0.));
#996=DIRECTION('',(0.,0.,1.));
#997=DIRECTION('',(1.,0.,0.));
#998=DIRECTION('',(0.,0.,1.));
#999=DIRECTION('',(1.,0.,0.));
#1000=DIRECTION('',(0.,0.,1.));
#1001=DIRECTION('',(1.,0.,0.));
#1002=DIRECTION('',(0.,0.,1.));
#1003=DIRECTION('',(1.,0.,0.));
#1004=DIRECTION('',(0.,0.,1.));
#1005=DIRECTION('',(1.,0.,0.));
#1006=DIRECTION('',(0.,0.,1.));
#1007=DIRECTION('',(1.,0.,0.));
#1008=DIRECTION('',(0.,0.,1.));
#1009=DIRECTION('',(1.,0.,0.));
#1010=DIRECTION('',(1.,0.,0.));
#1011=DIRECTION('',(0.,0.,-1.));
#1012=DIRECTION('',(-1.,0.,0.));
#1013=DIRECTION('',(0.,0.,1.));
#1014=DIRECTION('',(0.,0.,1.));
#1015=DIRECTION('',(1.,0.,0.));
#1016=CARTESIAN_POINT('',(0.,0.,0.));
#1017=CARTESIAN_POINT('',(-0.0204308550183854,0.0857591449816125,0.02988));
#1018=CARTESIAN_POINT('',(-0.0204308550183854,0.0857591449816125,0.030515));
#1019=CARTESIAN_POINT('',(0.0132241449816146,0.0857591449816125,0.030515));
#1020=CARTESIAN_POINT('',(-0.0204308550183854,0.0857591449816125,0.03496));
#1021=CARTESIAN_POINT('',(-0.034841179292725,0.0553453063664627,0.03496));
#1022=CARTESIAN_POINT('',(-0.00602053074404354,0.0553453063664638,0.03496));
#1023=CARTESIAN_POINT('',(-0.00602053074404354,0.0553453063664638,0.02988));
#1024=CARTESIAN_POINT('',(-0.00602053074404354,0.0553453063664638,0.03369));
#1025=CARTESIAN_POINT('',(-0.0204308550183854,0.0857591449816125,0.03369));
#1026=CARTESIAN_POINT('',(-0.000829482917612364,0.0584014177959153,0.03369));
#1027=CARTESIAN_POINT('',(-0.000829482917612361,0.0584014177959153,0.02988));
#1028=CARTESIAN_POINT('',(-0.000829482917612364,0.0584014177959153,0.03496));
#1029=CARTESIAN_POINT('',(-0.0204308550183854,0.0857591449816125,0.03496));
#1030=CARTESIAN_POINT('',(0.0130357535489612,0.0822031449816125,0.03496));
#1031=CARTESIAN_POINT('',(0.0130357535489612,0.0822031449816125,0.03496));
#1032=CARTESIAN_POINT('',(0.0130641664619779,0.0824705476357713,0.03496));
#1033=CARTESIAN_POINT('',(0.013112257177295,0.0829959648089663,0.0347406855568524));
#1034=CARTESIAN_POINT('',(0.0131281590463931,0.0832191449816125,0.0342129430161175));
#1035=CARTESIAN_POINT('',(0.0131281590463931,0.0832191449816125,0.033944));
#1036=CARTESIAN_POINT('',(0.013128159046393,0.0832191449816125,0.033944));
#1037=CARTESIAN_POINT('',(0.013128159046393,0.0832191449816125,0.033944));
#1038=CARTESIAN_POINT('',(0.013128159046393,0.0832191449816125,0.0336754291661182));
#1039=CARTESIAN_POINT('',(0.0131458994717394,0.0834404025112639,0.0331494872043809));
#1040=CARTESIAN_POINT('',(0.0131774604955329,0.0839668624324912,0.032928));
#1041=CARTESIAN_POINT('',(0.0131896216141669,0.0842351449816125,0.032928));
#1042=CARTESIAN_POINT('',(0.0131896216141669,0.0842351449816125,0.032928));
#1043=CARTESIAN_POINT('',(-0.0204308550183854,0.0857591449816125,0.032928));
#1044=CARTESIAN_POINT('',(0.0132202236689083,0.0862728843917847,0.032928));
#1045=CARTESIAN_POINT('',(0.0132202236689083,0.0862728843917847,0.032928));
#1046=CARTESIAN_POINT('',(0.0132161266788408,0.0865412463909074,0.032928));
#1047=CARTESIAN_POINT('',(0.0132004412078198,0.087066959972429,0.033148772371642));
#1048=CARTESIAN_POINT('',(0.0131893609585676,0.0872888843917847,0.0336756049748293));
#1049=CARTESIAN_POINT('',(0.0131893609585676,0.0872888843917847,0.033944));
#1050=CARTESIAN_POINT('',(0.0131893609585676,0.0872888843917847,0.033944));
#1051=CARTESIAN_POINT('',(0.0131893609585676,0.0872888843917847,0.033944));
#1052=CARTESIAN_POINT('',(0.0131893609585676,0.0872888843917847,0.034212605297759));
#1053=CARTESIAN_POINT('',(0.0131802811101612,0.0875103080883094,0.034738891895638));
#1054=CARTESIAN_POINT('',(0.0131480410163674,0.0880370623443334,0.03496));
#1055=CARTESIAN_POINT('',(0.013127724150815,0.0883048843917847,0.03496));
#1056=CARTESIAN_POINT('',(0.013127724150815,0.0883048843917847,0.03496));
#1057=CARTESIAN_POINT('',(-0.0204308550183854,0.0857591449816125,0.03496));
#1058=CARTESIAN_POINT('',(-0.000829482917611844,0.113116872167309,0.03496));
#1059=CARTESIAN_POINT('',(-0.000829482917611844,0.113116872167309,0.02988));
#1060=CARTESIAN_POINT('',(-0.000829482917611844,0.113116872167309,0.03369));
#1061=CARTESIAN_POINT('',(-0.0204308550183854,0.0857591449816125,0.03369));
#1062=CARTESIAN_POINT('',(-0.00602053074404294,0.116172983596761,0.03369));
#1063=CARTESIAN_POINT('',(-0.00602053074404294,0.116172983596761,0.02988));
#1064=CARTESIAN_POINT('',(-0.00602053074404294,0.116172983596761,0.03496));
#1065=CARTESIAN_POINT('',(-0.0204308550183854,0.0857591449816125,0.03496));
#1066=CARTESIAN_POINT('',(-0.034841179292732,0.116172983596759,0.03496));
#1067=CARTESIAN_POINT('',(-0.034841179292732,0.116172983596759,0.02988));
#1068=CARTESIAN_POINT('',(-0.034841179292732,0.116172983596759,0.03369));
#1069=CARTESIAN_POINT('',(-0.0204308550183854,0.0857591449816125,0.03369));
#1070=CARTESIAN_POINT('',(-0.0400322271191627,0.113116872167307,0.03369));
#1071=CARTESIAN_POINT('',(-0.0400322271191627,0.113116872167307,0.02988));
#1072=CARTESIAN_POINT('',(-0.0400322271191627,0.113116872167307,0.03496));
#1073=CARTESIAN_POINT('',(-0.0204308550183854,0.0857591449816125,0.03496));
#1074=CARTESIAN_POINT('',(-0.0400322271191564,0.0584014177959138,0.03496));
#1075=CARTESIAN_POINT('',(-0.0400322271191564,0.0584014177959138,0.02988));
#1076=CARTESIAN_POINT('',(-0.0400322271191564,0.0584014177959138,0.03369));
#1077=CARTESIAN_POINT('',(-0.0204308550183854,0.0857591449816125,0.03369));
#1078=CARTESIAN_POINT('',(-0.034841179292725,0.0553453063664627,0.03369));
#1079=CARTESIAN_POINT('',(-0.034841179292725,0.0553453063664627,0.02988));
#1080=CARTESIAN_POINT('',(-0.0204308550183854,0.0857591449816125,0.02988));
#1081=CARTESIAN_POINT('',(-0.0204308550183854,0.0857591449816125,0.030515));
#1082=CARTESIAN_POINT('',(0.0144941449816146,0.0857591449816125,0.030515));
#1083=CARTESIAN_POINT('',(-0.0204308550183854,0.0857591449816125,0.03496));
#1084=CARTESIAN_POINT('',(0.0144012398921349,0.0883048843917847,0.03496));
#1085=CARTESIAN_POINT('',(0.0143126406174886,0.0822031449816125,0.03496));
#1086=CARTESIAN_POINT('',(0.0144012398921349,0.0883048843917847,0.03496));
#1087=CARTESIAN_POINT('',(0.0144208169752751,0.088037020833054,0.03496));
#1088=CARTESIAN_POINT('',(0.0144518252032403,0.0875113042165443,0.0347398722156358));
#1089=CARTESIAN_POINT('',(0.0144606270701841,0.0872888843917847,0.0342125931206748));
#1090=CARTESIAN_POINT('',(0.0144606270701841,0.0872888843917847,0.033944));
#1091=CARTESIAN_POINT('',(0.0144606270701841,0.0872888843917847,0.033944));
#1092=CARTESIAN_POINT('',(0.0144606270701841,0.0872888843917847,0.033944));
#1093=CARTESIAN_POINT('',(0.0144606270701841,0.0872888843917847,0.0336756106524915));
#1094=CARTESIAN_POINT('',(0.0144712673105935,0.0870679880745073,0.0331497954295167));
#1095=CARTESIAN_POINT('',(0.0144864183639517,0.0865412421838223,0.032928));
#1096=CARTESIAN_POINT('',(0.0144903662778183,0.0862728843917846,0.032928));
#1097=CARTESIAN_POINT('',(0.0144903662778183,0.0862728843917847,0.032928));
#1098=CARTESIAN_POINT('',(-0.0204308550183854,0.0857591449816125,0.032928));
#1099=CARTESIAN_POINT('',(0.014460878228904,0.0842351449816125,0.032928));
#1100=CARTESIAN_POINT('',(0.014460878228904,0.0842351449816125,0.032928));
#1101=CARTESIAN_POINT('',(0.0144491596320213,0.0839668496033558,0.032928));
#1102=CARTESIAN_POINT('',(0.0144188139328937,0.0834413911755458,0.0331485007453559));
#1103=CARTESIAN_POINT('',(0.0144016588874469,0.0832191449816125,0.0336754388099624));
#1104=CARTESIAN_POINT('',(0.0144016588874469,0.0832191449816125,0.033944));
#1105=CARTESIAN_POINT('',(0.0144016588874469,0.0832191449816125,0.033944));
#1106=CARTESIAN_POINT('',(0.0144016588874469,0.0832191449816125,0.033944));
#1107=CARTESIAN_POINT('',(0.0144016588874469,0.0832191449816125,0.0342128820274198));
#1108=CARTESIAN_POINT('',(0.0143864308362274,0.0829971114625532,0.0347395456027332));
#1109=CARTESIAN_POINT('',(0.0143400147530764,0.0824706008759681,0.03496));
#1110=CARTESIAN_POINT('',(0.0143126406174886,0.0822031449816125,0.03496));
#1111=CARTESIAN_POINT('',(-0.0204308425183866,0.0857591449816136,0.03496));
#1112=CARTESIAN_POINT('',(-0.0042408550183865,0.11325914498161,0.03496));
#1113=CARTESIAN_POINT('',(-0.00309785501838651,0.11325914498161,0.03496));
#1114=CARTESIAN_POINT('',(-0.0366208550183817,0.058259144981613,0.03496));
#1115=CARTESIAN_POINT('',(-0.0354778550183818,0.058259144981613,0.03496));
#1116=CARTESIAN_POINT('',(-0.0366208550183884,0.113259144981609,0.03496));
#1117=CARTESIAN_POINT('',(-0.0354778550183884,0.113259144981609,0.03496));
#1118=CARTESIAN_POINT('',(-0.0042408550183873,0.0582591449816147,0.03496));
#1119=CARTESIAN_POINT('',(-0.0030978550183873,0.0582591449816147,0.03496));
#1120=CARTESIAN_POINT('',(0.0144606270701841,0.0883048843917847,0.03496));
#1121=CARTESIAN_POINT('',(-0.0204308425183866,0.0822031449816125,0.03496));
#1122=CARTESIAN_POINT('',(-0.00142122245273004,0.0592273114468043,0.03496));
#1123=CARTESIAN_POINT('',(-0.00229675931336519,0.0587118590186704,0.03496));
#1124=CARTESIAN_POINT('',(-0.00217073004515359,0.0584977883036723,0.03496));
#1125=CARTESIAN_POINT('',(-0.00259922340469643,0.0592256182843658,0.03496));
#1126=CARTESIAN_POINT('',(-0.00424085501838732,0.0582591449816147,0.03496));
#1127=CARTESIAN_POINT('',(-0.00588248663207821,0.0572926716788636,0.03496));
#1128=CARTESIAN_POINT('',(-0.00545399327253539,0.0565648416981701,0.03496));
#1129=CARTESIAN_POINT('',(-0.00558002254074701,0.0567789124131682,0.03496));
#1130=CARTESIAN_POINT('',(-0.00645555940138216,0.0562634599850343,0.03496));
#1131=CARTESIAN_POINT('',(-0.0344061506353864,0.0562634599850332,0.03496));
#1132=CARTESIAN_POINT('',(-0.0352816874960216,0.0567789124131671,0.03496));
#1133=CARTESIAN_POINT('',(-0.0354077167642335,0.0565648416981685,0.03496));
#1134=CARTESIAN_POINT('',(-0.0349792234046907,0.0572926716788621,0.03496));
#1135=CARTESIAN_POINT('',(-0.0366208550183817,0.058259144981613,0.03496));
#1136=CARTESIAN_POINT('',(-0.0382624866320727,0.0592256182843639,0.03496));
#1137=CARTESIAN_POINT('',(-0.0386909799916154,0.0584977883036704,0.03496));
#1138=CARTESIAN_POINT('',(-0.0385649507234036,0.058711859018669,0.03496));
#1139=CARTESIAN_POINT('',(-0.0394404875840388,0.0592273114468028,0.03496));
#1140=CARTESIAN_POINT('',(-0.0394404875840449,0.112290978516418,0.03496));
#1141=CARTESIAN_POINT('',(-0.0385649507234098,0.112806430944552,0.03496));
#1142=CARTESIAN_POINT('',(-0.038690979991622,0.113020501659551,0.03496));
#1143=CARTESIAN_POINT('',(-0.0382624866320791,0.112292671678857,0.03496));
#1144=CARTESIAN_POINT('',(-0.0366208550183884,0.113259144981609,0.03496));
#1145=CARTESIAN_POINT('',(-0.0349792234046976,0.11422561828436,0.03496));
#1146=CARTESIAN_POINT('',(-0.0354077167642405,0.114953448265054,0.03496));
#1147=CARTESIAN_POINT('',(-0.0352816874960283,0.114739377550055,0.03496));
#1148=CARTESIAN_POINT('',(-0.0344061506353932,0.115254829978189,0.03496));
#1149=CARTESIAN_POINT('',(-0.00645555940138159,0.11525482997819,0.03496));
#1150=CARTESIAN_POINT('',(-0.00558002254074647,0.114739377550056,0.03496));
#1151=CARTESIAN_POINT('',(-0.00545399327253454,0.114953448265055,0.03496));
#1152=CARTESIAN_POINT('',(-0.00588248663207738,0.114225618284362,0.03496));
#1153=CARTESIAN_POINT('',(-0.00424085501838652,0.11325914498161,0.03496));
#1154=CARTESIAN_POINT('',(-0.00259922340469565,0.112292671678859,0.03496));
#1155=CARTESIAN_POINT('',(-0.00217073004515279,0.113020501659553,0.03496));
#1156=CARTESIAN_POINT('',(-0.00229675931336468,0.112806430944554,0.03496));
#1157=CARTESIAN_POINT('',(-0.00142122245272955,0.11229097851642,0.03496));
#1158=CARTESIAN_POINT('',(-0.00545399327253454,0.114953448265055,0.03369));
#1159=CARTESIAN_POINT('',(-0.00558002254074647,0.114739377550056,0.03369));
#1160=CARTESIAN_POINT('',(-0.00558002254074647,0.114739377550056,0.03369));
#1161=CARTESIAN_POINT('',(-0.00545399327253454,0.114953448265055,0.03369));
#1162=CARTESIAN_POINT('',(-0.00588248663207738,0.114225618284362,0.03369));
#1163=CARTESIAN_POINT('',(-0.00588248663207738,0.114225618284362,0.03369));
#1164=CARTESIAN_POINT('',(-0.00424085501838652,0.11325914498161,0.03369));
#1165=CARTESIAN_POINT('',(-0.00424085501838652,0.11325914498161,0.03369));
#1166=CARTESIAN_POINT('',(-0.00259922340469565,0.112292671678859,0.03369));
#1167=CARTESIAN_POINT('',(-0.00259922340469565,0.112292671678859,0.03369));
#1168=CARTESIAN_POINT('',(-0.00217073004515279,0.113020501659553,0.03369));
#1169=CARTESIAN_POINT('',(-0.00217073004515279,0.113020501659553,0.03369));
#1170=CARTESIAN_POINT('',(-0.00229675931336468,0.112806430944554,0.03369));
#1171=CARTESIAN_POINT('',(-0.00229675931336468,0.112806430944554,0.03369));
#1172=CARTESIAN_POINT('',(-0.0042408550183865,0.11325914498161,0.03369));
#1173=CARTESIAN_POINT('',(-0.0042408550183865,0.11325914498161,0.03369));
#1174=CARTESIAN_POINT('',(-0.00309785501838651,0.11325914498161,0.03369));
#1175=CARTESIAN_POINT('',(-0.0204308550183854,0.0857591449816125,0.03369));
#1176=CARTESIAN_POINT('',(-0.00142122245272955,0.11229097851642,0.03369));
#1177=CARTESIAN_POINT('',(-0.00645555940138159,0.11525482997819,0.03369));
#1178=CARTESIAN_POINT('',(-0.0354077167642335,0.0565648416981685,0.03369));
#1179=CARTESIAN_POINT('',(-0.0352816874960216,0.0567789124131671,0.03369));
#1180=CARTESIAN_POINT('',(-0.0352816874960216,0.0567789124131671,0.03369));
#1181=CARTESIAN_POINT('',(-0.0354077167642335,0.0565648416981685,0.03369));
#1182=CARTESIAN_POINT('',(-0.0349792234046907,0.0572926716788621,0.03369));
#1183=CARTESIAN_POINT('',(-0.0349792234046907,0.0572926716788621,0.03369));
#1184=CARTESIAN_POINT('',(-0.0366208550183817,0.058259144981613,0.03369));
#1185=CARTESIAN_POINT('',(-0.0366208550183817,0.058259144981613,0.03369));
#1186=CARTESIAN_POINT('',(-0.0382624866320727,0.0592256182843639,0.03369));
#1187=CARTESIAN_POINT('',(-0.0382624866320727,0.0592256182843639,0.03369));
#1188=CARTESIAN_POINT('',(-0.0386909799916154,0.0584977883036704,0.03369));
#1189=CARTESIAN_POINT('',(-0.0386909799916154,0.0584977883036704,0.03369));
#1190=CARTESIAN_POINT('',(-0.0385649507234036,0.058711859018669,0.03369));
#1191=CARTESIAN_POINT('',(-0.0385649507234036,0.058711859018669,0.03369));
#1192=CARTESIAN_POINT('',(-0.0366208550183817,0.058259144981613,0.03369));
#1193=CARTESIAN_POINT('',(-0.0366208550183817,0.058259144981613,0.03369));
#1194=CARTESIAN_POINT('',(-0.0354778550183818,0.058259144981613,0.03369));
#1195=CARTESIAN_POINT('',(-0.0204308550183854,0.0857591449816125,0.03369));
#1196=CARTESIAN_POINT('',(-0.0394404875840388,0.0592273114468028,0.03369));
#1197=CARTESIAN_POINT('',(-0.0344061506353864,0.0562634599850332,0.03369));
#1198=CARTESIAN_POINT('',(-0.038690979991622,0.113020501659551,0.03369));
#1199=CARTESIAN_POINT('',(-0.0385649507234098,0.112806430944552,0.03369));
#1200=CARTESIAN_POINT('',(-0.0385649507234098,0.112806430944552,0.03369));
#1201=CARTESIAN_POINT('',(-0.038690979991622,0.113020501659551,0.03369));
#1202=CARTESIAN_POINT('',(-0.0382624866320791,0.112292671678857,0.03369));
#1203=CARTESIAN_POINT('',(-0.0382624866320791,0.112292671678857,0.03369));
#1204=CARTESIAN_POINT('',(-0.0366208550183884,0.113259144981609,0.03369));
#1205=CARTESIAN_POINT('',(-0.0366208550183884,0.113259144981609,0.03369));
#1206=CARTESIAN_POINT('',(-0.0349792234046976,0.11422561828436,0.03369));
#1207=CARTESIAN_POINT('',(-0.0349792234046976,0.11422561828436,0.03369));
#1208=CARTESIAN_POINT('',(-0.0354077167642405,0.114953448265054,0.03369));
#1209=CARTESIAN_POINT('',(-0.0354077167642405,0.114953448265054,0.03369));
#1210=CARTESIAN_POINT('',(-0.0352816874960283,0.114739377550055,0.03369));
#1211=CARTESIAN_POINT('',(-0.0352816874960283,0.114739377550055,0.03369));
#1212=CARTESIAN_POINT('',(-0.0366208550183884,0.113259144981609,0.03369));
#1213=CARTESIAN_POINT('',(-0.0366208550183884,0.113259144981609,0.03369));
#1214=CARTESIAN_POINT('',(-0.0354778550183884,0.113259144981609,0.03369));
#1215=CARTESIAN_POINT('',(-0.0204308550183854,0.0857591449816125,0.03369));
#1216=CARTESIAN_POINT('',(-0.0344061506353932,0.115254829978189,0.03369));
#1217=CARTESIAN_POINT('',(-0.0394404875840449,0.112290978516418,0.03369));
#1218=CARTESIAN_POINT('',(-0.00217073004515359,0.0584977883036723,0.03369));
#1219=CARTESIAN_POINT('',(-0.00229675931336519,0.0587118590186704,0.03369));
#1220=CARTESIAN_POINT('',(-0.00229675931336519,0.0587118590186704,0.03369));
#1221=CARTESIAN_POINT('',(-0.00217073004515359,0.0584977883036723,0.03369));
#1222=CARTESIAN_POINT('',(-0.00259922340469643,0.0592256182843658,0.03369));
#1223=CARTESIAN_POINT('',(-0.00259922340469643,0.0592256182843658,0.03369));
#1224=CARTESIAN_POINT('',(-0.00424085501838732,0.0582591449816147,0.03369));
#1225=CARTESIAN_POINT('',(-0.00424085501838732,0.0582591449816147,0.03369));
#1226=CARTESIAN_POINT('',(-0.00588248663207821,0.0572926716788636,0.03369));
#1227=CARTESIAN_POINT('',(-0.00588248663207821,0.0572926716788636,0.03369));
#1228=CARTESIAN_POINT('',(-0.00545399327253539,0.0565648416981701,0.03369));
#1229=CARTESIAN_POINT('',(-0.00545399327253539,0.0565648416981701,0.03369));
#1230=CARTESIAN_POINT('',(-0.00558002254074701,0.0567789124131682,0.03369));
#1231=CARTESIAN_POINT('',(-0.00558002254074701,0.0567789124131682,0.03369));
#1232=CARTESIAN_POINT('',(-0.0042408550183873,0.0582591449816147,0.03369));
#1233=CARTESIAN_POINT('',(-0.0042408550183873,0.0582591449816147,0.03369));
#1234=CARTESIAN_POINT('',(-0.0030978550183873,0.0582591449816147,0.03369));
#1235=CARTESIAN_POINT('',(-0.0204308550183854,0.0857591449816125,0.03369));
#1236=CARTESIAN_POINT('',(-0.00645555940138216,0.0562634599850343,0.03369));
#1237=CARTESIAN_POINT('',(-0.00142122245273004,0.0592273114468043,0.03369));
#1238=CARTESIAN_POINT('',(0.01905,0.0852540146866986,0.032928));
#1239=CARTESIAN_POINT('',(0.0144016588874469,0.0842351449816125,0.032928));
#1240=CARTESIAN_POINT('',(0.01905,0.0862728843917847,0.032928));
#1241=CARTESIAN_POINT('',(0.01905,0.0883048843917847,0.033944));
#1242=CARTESIAN_POINT('',(0.0131893609585676,0.0872888843917847,0.033944));
#1243=CARTESIAN_POINT('',(-0.0204308425183866,0.0822031449816125,0.033944));
#1244=CARTESIAN_POINT('',(0.01905,0.0832191449816125,0.033944));
#1245=CARTESIAN_POINT('',(-0.00645555940138216,0.0562634599850343,0.02988));
#1246=CARTESIAN_POINT('',(-0.00142122245273004,0.0592273114468043,0.02988));
#1247=CARTESIAN_POINT('',(-0.0394404875840388,0.0592273114468028,0.02988));
#1248=CARTESIAN_POINT('',(-0.0344061506353864,0.0562634599850332,0.02988));
#1249=CARTESIAN_POINT('',(-0.0394404875840449,0.112290978516418,0.02988));
#1250=CARTESIAN_POINT('',(-0.0344061506353932,0.115254829978189,0.02988));
#1251=CARTESIAN_POINT('',(-0.00645555940138159,0.11525482997819,0.02988));
#1252=CARTESIAN_POINT('',(-0.00142122245272955,0.11229097851642,0.02988));
#1253=CARTESIAN_POINT('',(0.01905,0.0842351449816125,0.033944));
#1254=CARTESIAN_POINT('',(0.01905,0.0862728843917847,0.033944));
#1255=CARTESIAN_POINT('',(-0.0204308550183854,0.0857591449816125,0.030515));
#1256=MECHANICAL_DESIGN_GEOMETRIC_PRESENTATION_REPRESENTATION('',(#707),
#1257);
#1257=(
GEOMETRIC_REPRESENTATION_CONTEXT(3)
GLOBAL_UNCERTAINTY_ASSIGNED_CONTEXT((#1258))
GLOBAL_UNIT_ASSIGNED_CONTEXT((#1261,#1260,#1259))
REPRESENTATION_CONTEXT('Part 11','TOP_LEVEL_ASSEMBLY_PART')
);
#1258=UNCERTAINTY_MEASURE_WITH_UNIT(LENGTH_MEASURE(2.E-5),#1261,
'DISTANCE_ACCURACY_VALUE','Maximum Tolerance applied to model');
#1259=(
NAMED_UNIT(*)
SI_UNIT($,.STERADIAN.)
SOLID_ANGLE_UNIT()
);
#1260=(
NAMED_UNIT(*)
PLANE_ANGLE_UNIT()
SI_UNIT($,.RADIAN.)
);
#1261=(
LENGTH_UNIT()
NAMED_UNIT(*)
SI_UNIT($,.METRE.)
);
#1262=PRODUCT_DEFINITION_SHAPE('','',#1263);
#1263=PRODUCT_DEFINITION('','',#1265,#1264);
#1264=PRODUCT_DEFINITION_CONTEXT('',#1271,'design');
#1265=PRODUCT_DEFINITION_FORMATION_WITH_SPECIFIED_SOURCE('','',#1267,
 .NOT_KNOWN.);
#1266=PRODUCT_RELATED_PRODUCT_CATEGORY('','',(#1267));
#1267=PRODUCT('Part 11','Part 11','Part 11',(#1269));
#1268=PRODUCT_CATEGORY('','');
#1269=PRODUCT_CONTEXT('',#1271,'mechanical');
#1270=APPLICATION_PROTOCOL_DEFINITION('international standard',
'ap242_managed_model_based_3d_engineering',2020,#1271);
#1271=APPLICATION_CONTEXT('managed model based 3d engineering');
ENDSEC;
END-ISO-10303-21;
