ISO-10303-21;
HEADER;
/* Generated by software containing ST-Developer
 * from STEP Tools, Inc. (www.steptools.com) 
 */
/* OPTION: using custom renumber hook */

FILE_DESCRIPTION(
/* description */ ('STEP AP242 Edition 2',
'CAx-IF Rec.Pracs.---Representation and Presentation of Product Manufa
cturing Information (PMI)---4.0---2014-10-13',
'CAx-IF Rec.Pracs.---3D Tessellated Geometry---0.4---2014-09-14','2;1',
'CAx-IF Rec.Pracs.---User Defined Attributes---1.5---2016-08-15'),
/* implementation_level */ '2;1');

FILE_NAME(
/* name */ 'dexi parts - Part 7',
/* time_stamp */ '2026-06-11T21:26:53Z',
/* author */ (''),
/* organization */ (''),
/* preprocessor_version */ 'ST-DEVELOPER v20',
/* originating_system */ 'ONSHAPE BY PTC INC, 1.216',
/* authorisation */ '  ');

FILE_SCHEMA (('AP242_MANAGED_MODEL_BASED_3D_ENGINEERING_MIM_LF { 1 0 10303 442 3 1 4 }'));
ENDSEC;

DATA;
#10=SHAPE_REPRESENTATION_RELATIONSHIP('','',#896,#11);
#11=ADVANCED_BREP_SHAPE_REPRESENTATION('',(#894),#1596);
#12=TOROIDAL_SURFACE('',#971,0.00537916063774591,0.0005212334);
#13=TOROIDAL_SURFACE('',#974,0.00537916063774591,0.0005212334);
#14=TOROIDAL_SURFACE('',#975,0.00018396307345283,9.19815367264149E-5);
#15=TOROIDAL_SURFACE('',#978,0.00018396307345283,9.19815367264149E-5);
#16=TOROIDAL_SURFACE('',#983,0.00643430967874436,9.19815367264149E-5);
#17=TOROIDAL_SURFACE('',#988,0.0036476481355404,9.19815367264149E-5);
#18=TOROIDAL_SURFACE('',#992,0.00018396307345283,9.19815367264149E-5);
#19=TOROIDAL_SURFACE('',#994,0.00018396307345283,9.19815367264149E-5);
#20=TOROIDAL_SURFACE('',#996,0.00018396307345283,9.19815367264149E-5);
#21=TOROIDAL_SURFACE('',#998,0.00018396307345283,9.19815367264149E-5);
#22=TOROIDAL_SURFACE('',#1000,0.00643430967874436,9.19815367264149E-5);
#23=TOROIDAL_SURFACE('',#1006,0.0036476481355404,9.19815367264149E-5);
#24=TOROIDAL_SURFACE('',#1008,0.00018396307345283,9.19815367264149E-5);
#25=TOROIDAL_SURFACE('',#1010,0.00018396307345283,9.19815367264149E-5);
#26=ELLIPSE('',#938,0.004081489772811,0.0039582598);
#27=ELLIPSE('',#951,0.00104394261933666,0.0005212334);
#28=ELLIPSE('',#954,0.00792772700987124,0.0039582598);
#29=ELLIPSE('',#967,0.00559782469255622,0.0039582598);
#30=B_SPLINE_CURVE_WITH_KNOTS('',3,(#1437,#1438,#1439,#1440),
 .UNSPECIFIED.,.F.,.F.,(4,4),(0.,0.00183004040356132),.UNSPECIFIED.);
#31=B_SPLINE_CURVE_WITH_KNOTS('',3,(#1471,#1472,#1473,#1474),
 .UNSPECIFIED.,.F.,.F.,(4,4),(0.,0.000188332674486387),.UNSPECIFIED.);
#32=B_SPLINE_CURVE_WITH_KNOTS('',3,(#1478,#1479,#1480,#1481),
 .UNSPECIFIED.,.F.,.F.,(4,4),(0.,0.000188332674486393),.UNSPECIFIED.);
#33=B_SPLINE_CURVE_WITH_KNOTS('',3,(#1482,#1483,#1484,#1485),
 .UNSPECIFIED.,.F.,.F.,(4,4),(0.,0.000188332674486377),.UNSPECIFIED.);
#34=B_SPLINE_CURVE_WITH_KNOTS('',3,(#1489,#1490,#1491,#1492),
 .UNSPECIFIED.,.F.,.F.,(4,4),(0.,0.000188332674486372),.UNSPECIFIED.);
#35=B_SPLINE_CURVE_WITH_KNOTS('',3,(#1520,#1521,#1522,#1523,#1524),
 .UNSPECIFIED.,.F.,.F.,(4,1,4),(0.,0.00104136652919058,0.00208273305838115),
 .UNSPECIFIED.);
#36=B_SPLINE_CURVE_WITH_KNOTS('',3,(#1534,#1535,#1536,#1537),
 .UNSPECIFIED.,.F.,.F.,(4,4),(0.,0.00102468242793103),.UNSPECIFIED.);
#37=B_SPLINE_CURVE_WITH_KNOTS('',3,(#1539,#1540,#1541,#1542,#1543),
 .UNSPECIFIED.,.F.,.F.,(4,1,4),(0.,0.000543208810304667,0.00108641762060933),
 .UNSPECIFIED.);
#38=CYLINDRICAL_SURFACE('',#933,0.00355560627074051);
#39=CYLINDRICAL_SURFACE('',#936,0.00364831982914648);
#40=CYLINDRICAL_SURFACE('',#941,0.00634232814201794);
#41=CYLINDRICAL_SURFACE('',#945,0.00373962967226682);
#42=CYLINDRICAL_SURFACE('',#955,0.0005212334);
#43=CYLINDRICAL_SURFACE('',#957,0.0005212334);
#44=CYLINDRICAL_SURFACE('',#960,0.0005212334);
#45=CYLINDRICAL_SURFACE('',#962,0.00665387386083941);
#46=CYLINDRICAL_SURFACE('',#963,0.000685318706218801);
#47=CYLINDRICAL_SURFACE('',#964,0.00395825184867217);
#48=CYLINDRICAL_SURFACE('',#965,0.0039582598);
#49=CYLINDRICAL_SURFACE('',#966,0.0039582598);
#50=CYLINDRICAL_SURFACE('',#968,0.0039582598);
#51=CYLINDRICAL_SURFACE('',#969,0.00590039403774591);
#52=CYLINDRICAL_SURFACE('',#972,0.00590039403774591);
#53=CYLINDRICAL_SURFACE('',#981,9.19815367264149E-5);
#54=CYLINDRICAL_SURFACE('',#985,9.19815367264149E-5);
#55=CYLINDRICAL_SURFACE('',#990,9.19815367264149E-5);
#56=CYLINDRICAL_SURFACE('',#1002,9.19815367264149E-5);
#57=CYLINDRICAL_SURFACE('',#1004,9.19815367264149E-5);
#58=CYLINDRICAL_SURFACE('',#1012,9.19815367264149E-5);
#59=CYLINDRICAL_SURFACE('',#1013,0.00144347551651268);
#60=CYLINDRICAL_SURFACE('',#1014,0.001778);
#61=LINE('',#1315,#116);
#62=LINE('',#1323,#117);
#63=LINE('',#1329,#118);
#64=LINE('',#1331,#119);
#65=LINE('',#1333,#120);
#66=LINE('',#1335,#121);
#67=LINE('',#1337,#122);
#68=LINE('',#1341,#123);
#69=LINE('',#1343,#124);
#70=LINE('',#1350,#125);
#71=LINE('',#1352,#126);
#72=LINE('',#1356,#127);
#73=LINE('',#1362,#128);
#74=LINE('',#1369,#129);
#75=LINE('',#1371,#130);
#76=LINE('',#1375,#131);
#77=LINE('',#1381,#132);
#78=LINE('',#1387,#133);
#79=LINE('',#1390,#134);
#80=LINE('',#1392,#135);
#81=LINE('',#1394,#136);
#82=LINE('',#1403,#137);
#83=LINE('',#1411,#138);
#84=LINE('',#1414,#139);
#85=LINE('',#1417,#140);
#86=LINE('',#1419,#141);
#87=LINE('',#1420,#142);
#88=LINE('',#1422,#143);
#89=LINE('',#1424,#144);
#90=LINE('',#1429,#145);
#91=LINE('',#1430,#146);
#92=LINE('',#1432,#147);
#93=LINE('',#1434,#148);
#94=LINE('',#1435,#149);
#95=LINE('',#1442,#150);
#96=LINE('',#1444,#151);
#97=LINE('',#1445,#152);
#98=LINE('',#1449,#153);
#99=LINE('',#1451,#154);
#100=LINE('',#1453,#155);
#101=LINE('',#1456,#156);
#102=LINE('',#1458,#157);
#103=LINE('',#1460,#158);
#104=LINE('',#1462,#159);
#105=LINE('',#1467,#160);
#106=LINE('',#1476,#161);
#107=LINE('',#1487,#162);
#108=LINE('',#1494,#163);
#109=LINE('',#1499,#164);
#110=LINE('',#1506,#165);
#111=LINE('',#1510,#166);
#112=LINE('',#1512,#167);
#113=LINE('',#1516,#168);
#114=LINE('',#1518,#169);
#115=LINE('',#1532,#170);
#116=VECTOR('',#1025,1.);
#117=VECTOR('',#1032,1.);
#118=VECTOR('',#1037,1.);
#119=VECTOR('',#1038,1.);
#120=VECTOR('',#1039,1.);
#121=VECTOR('',#1040,1.);
#122=VECTOR('',#1041,1.);
#123=VECTOR('',#1044,1.);
#124=VECTOR('',#1047,1.);
#125=VECTOR('',#1052,1.);
#126=VECTOR('',#1053,1.);
#127=VECTOR('',#1056,1.);
#128=VECTOR('',#1063,1.);
#129=VECTOR('',#1068,1.);
#130=VECTOR('',#1069,1.);
#131=VECTOR('',#1072,1.);
#132=VECTOR('',#1077,1.);
#133=VECTOR('',#1084,1.);
#134=VECTOR('',#1085,1.);
#135=VECTOR('',#1086,1.);
#136=VECTOR('',#1087,1.);
#137=VECTOR('',#1096,1.);
#138=VECTOR('',#1103,1.);
#139=VECTOR('',#1106,1.);
#140=VECTOR('',#1107,1.);
#141=VECTOR('',#1108,1.);
#142=VECTOR('',#1109,1.);
#143=VECTOR('',#1110,1.);
#144=VECTOR('',#1111,1.);
#145=VECTOR('',#1118,1.);
#146=VECTOR('',#1119,1.);
#147=VECTOR('',#1122,1.);
#148=VECTOR('',#1125,1.);
#149=VECTOR('',#1126,1.);
#150=VECTOR('',#1129,1.);
#151=VECTOR('',#1132,1.);
#152=VECTOR('',#1133,1.);
#153=VECTOR('',#1138,1.);
#154=VECTOR('',#1139,1.);
#155=VECTOR('',#1142,1.);
#156=VECTOR('',#1143,1.);
#157=VECTOR('',#1144,1.);
#158=VECTOR('',#1145,1.);
#159=VECTOR('',#1148,1.);
#160=VECTOR('',#1151,1.);
#161=VECTOR('',#1156,1.);
#162=VECTOR('',#1157,1.);
#163=VECTOR('',#1160,1.);
#164=VECTOR('',#1163,1.);
#165=VECTOR('',#1172,1.);
#166=VECTOR('',#1177,1.);
#167=VECTOR('',#1178,1.);
#168=VECTOR('',#1183,1.);
#169=VECTOR('',#1184,1.);
#170=VECTOR('',#1201,1.);
#171=ORIENTED_EDGE('',*,*,#429,.F.);
#172=ORIENTED_EDGE('',*,*,#430,.F.);
#173=ORIENTED_EDGE('',*,*,#431,.T.);
#174=ORIENTED_EDGE('',*,*,#432,.F.);
#175=ORIENTED_EDGE('',*,*,#433,.T.);
#176=ORIENTED_EDGE('',*,*,#434,.F.);
#177=ORIENTED_EDGE('',*,*,#435,.F.);
#178=ORIENTED_EDGE('',*,*,#436,.T.);
#179=ORIENTED_EDGE('',*,*,#437,.F.);
#180=ORIENTED_EDGE('',*,*,#438,.T.);
#181=ORIENTED_EDGE('',*,*,#439,.F.);
#182=ORIENTED_EDGE('',*,*,#440,.F.);
#183=ORIENTED_EDGE('',*,*,#441,.F.);
#184=ORIENTED_EDGE('',*,*,#442,.F.);
#185=ORIENTED_EDGE('',*,*,#443,.F.);
#186=ORIENTED_EDGE('',*,*,#444,.T.);
#187=ORIENTED_EDGE('',*,*,#445,.F.);
#188=ORIENTED_EDGE('',*,*,#446,.F.);
#189=ORIENTED_EDGE('',*,*,#447,.F.);
#190=ORIENTED_EDGE('',*,*,#448,.F.);
#191=ORIENTED_EDGE('',*,*,#449,.T.);
#192=ORIENTED_EDGE('',*,*,#450,.F.);
#193=ORIENTED_EDGE('',*,*,#451,.T.);
#194=ORIENTED_EDGE('',*,*,#452,.T.);
#195=ORIENTED_EDGE('',*,*,#453,.F.);
#196=ORIENTED_EDGE('',*,*,#454,.T.);
#197=ORIENTED_EDGE('',*,*,#455,.F.);
#198=ORIENTED_EDGE('',*,*,#456,.F.);
#199=ORIENTED_EDGE('',*,*,#457,.F.);
#200=ORIENTED_EDGE('',*,*,#458,.T.);
#201=ORIENTED_EDGE('',*,*,#459,.T.);
#202=ORIENTED_EDGE('',*,*,#460,.F.);
#203=ORIENTED_EDGE('',*,*,#461,.F.);
#204=ORIENTED_EDGE('',*,*,#462,.F.);
#205=ORIENTED_EDGE('',*,*,#463,.T.);
#206=ORIENTED_EDGE('',*,*,#464,.T.);
#207=ORIENTED_EDGE('',*,*,#465,.F.);
#208=ORIENTED_EDGE('',*,*,#466,.T.);
#209=ORIENTED_EDGE('',*,*,#467,.F.);
#210=ORIENTED_EDGE('',*,*,#468,.F.);
#211=ORIENTED_EDGE('',*,*,#469,.F.);
#212=ORIENTED_EDGE('',*,*,#470,.F.);
#213=ORIENTED_EDGE('',*,*,#471,.T.);
#214=ORIENTED_EDGE('',*,*,#472,.F.);
#215=ORIENTED_EDGE('',*,*,#473,.T.);
#216=ORIENTED_EDGE('',*,*,#474,.F.);
#217=ORIENTED_EDGE('',*,*,#475,.T.);
#218=ORIENTED_EDGE('',*,*,#476,.F.);
#219=ORIENTED_EDGE('',*,*,#477,.F.);
#220=ORIENTED_EDGE('',*,*,#478,.F.);
#221=ORIENTED_EDGE('',*,*,#479,.F.);
#222=ORIENTED_EDGE('',*,*,#480,.F.);
#223=ORIENTED_EDGE('',*,*,#481,.T.);
#224=ORIENTED_EDGE('',*,*,#482,.T.);
#225=ORIENTED_EDGE('',*,*,#458,.F.);
#226=ORIENTED_EDGE('',*,*,#483,.F.);
#227=ORIENTED_EDGE('',*,*,#484,.F.);
#228=ORIENTED_EDGE('',*,*,#485,.F.);
#229=ORIENTED_EDGE('',*,*,#486,.F.);
#230=ORIENTED_EDGE('',*,*,#467,.T.);
#231=ORIENTED_EDGE('',*,*,#487,.F.);
#232=ORIENTED_EDGE('',*,*,#447,.T.);
#233=ORIENTED_EDGE('',*,*,#488,.T.);
#234=ORIENTED_EDGE('',*,*,#463,.F.);
#235=ORIENTED_EDGE('',*,*,#489,.F.);
#236=ORIENTED_EDGE('',*,*,#464,.F.);
#237=ORIENTED_EDGE('',*,*,#488,.F.);
#238=ORIENTED_EDGE('',*,*,#446,.T.);
#239=ORIENTED_EDGE('',*,*,#490,.F.);
#240=ORIENTED_EDGE('',*,*,#452,.F.);
#241=ORIENTED_EDGE('',*,*,#491,.T.);
#242=ORIENTED_EDGE('',*,*,#455,.T.);
#243=ORIENTED_EDGE('',*,*,#492,.F.);
#244=ORIENTED_EDGE('',*,*,#456,.T.);
#245=ORIENTED_EDGE('',*,*,#491,.F.);
#246=ORIENTED_EDGE('',*,*,#451,.F.);
#247=ORIENTED_EDGE('',*,*,#493,.F.);
#248=ORIENTED_EDGE('',*,*,#494,.F.);
#249=ORIENTED_EDGE('',*,*,#449,.F.);
#250=ORIENTED_EDGE('',*,*,#495,.F.);
#251=ORIENTED_EDGE('',*,*,#461,.T.);
#252=ORIENTED_EDGE('',*,*,#496,.F.);
#253=ORIENTED_EDGE('',*,*,#497,.F.);
#254=ORIENTED_EDGE('',*,*,#459,.F.);
#255=ORIENTED_EDGE('',*,*,#482,.F.);
#256=ORIENTED_EDGE('',*,*,#498,.T.);
#257=ORIENTED_EDGE('',*,*,#499,.F.);
#258=ORIENTED_EDGE('',*,*,#500,.F.);
#259=ORIENTED_EDGE('',*,*,#501,.F.);
#260=ORIENTED_EDGE('',*,*,#502,.F.);
#261=ORIENTED_EDGE('',*,*,#503,.F.);
#262=ORIENTED_EDGE('',*,*,#504,.F.);
#263=ORIENTED_EDGE('',*,*,#505,.F.);
#264=ORIENTED_EDGE('',*,*,#506,.F.);
#265=ORIENTED_EDGE('',*,*,#507,.F.);
#266=ORIENTED_EDGE('',*,*,#478,.T.);
#267=ORIENTED_EDGE('',*,*,#508,.F.);
#268=ORIENTED_EDGE('',*,*,#509,.F.);
#269=ORIENTED_EDGE('',*,*,#510,.F.);
#270=ORIENTED_EDGE('',*,*,#436,.F.);
#271=ORIENTED_EDGE('',*,*,#511,.F.);
#272=ORIENTED_EDGE('',*,*,#512,.F.);
#273=ORIENTED_EDGE('',*,*,#513,.F.);
#274=ORIENTED_EDGE('',*,*,#514,.F.);
#275=ORIENTED_EDGE('',*,*,#515,.F.);
#276=ORIENTED_EDGE('',*,*,#516,.F.);
#277=ORIENTED_EDGE('',*,*,#517,.F.);
#278=ORIENTED_EDGE('',*,*,#442,.T.);
#279=ORIENTED_EDGE('',*,*,#518,.F.);
#280=ORIENTED_EDGE('',*,*,#519,.F.);
#281=ORIENTED_EDGE('',*,*,#498,.F.);
#282=ORIENTED_EDGE('',*,*,#481,.F.);
#283=ORIENTED_EDGE('',*,*,#520,.T.);
#284=ORIENTED_EDGE('',*,*,#521,.F.);
#285=ORIENTED_EDGE('',*,*,#522,.F.);
#286=ORIENTED_EDGE('',*,*,#520,.F.);
#287=ORIENTED_EDGE('',*,*,#480,.T.);
#288=ORIENTED_EDGE('',*,*,#523,.F.);
#289=ORIENTED_EDGE('',*,*,#485,.T.);
#290=ORIENTED_EDGE('',*,*,#524,.F.);
#291=ORIENTED_EDGE('',*,*,#525,.F.);
#292=ORIENTED_EDGE('',*,*,#526,.F.);
#293=ORIENTED_EDGE('',*,*,#525,.T.);
#294=ORIENTED_EDGE('',*,*,#527,.F.);
#295=ORIENTED_EDGE('',*,*,#439,.T.);
#296=ORIENTED_EDGE('',*,*,#528,.F.);
#297=ORIENTED_EDGE('',*,*,#469,.T.);
#298=ORIENTED_EDGE('',*,*,#529,.F.);
#299=ORIENTED_EDGE('',*,*,#445,.T.);
#300=ORIENTED_EDGE('',*,*,#530,.F.);
#301=ORIENTED_EDGE('',*,*,#443,.T.);
#302=ORIENTED_EDGE('',*,*,#521,.T.);
#303=ORIENTED_EDGE('',*,*,#522,.T.);
#304=ORIENTED_EDGE('',*,*,#531,.F.);
#305=ORIENTED_EDGE('',*,*,#496,.T.);
#306=ORIENTED_EDGE('',*,*,#460,.T.);
#307=ORIENTED_EDGE('',*,*,#499,.T.);
#308=ORIENTED_EDGE('',*,*,#519,.T.);
#309=ORIENTED_EDGE('',*,*,#532,.F.);
#310=ORIENTED_EDGE('',*,*,#533,.F.);
#311=ORIENTED_EDGE('',*,*,#532,.T.);
#312=ORIENTED_EDGE('',*,*,#518,.T.);
#313=ORIENTED_EDGE('',*,*,#441,.T.);
#314=ORIENTED_EDGE('',*,*,#534,.F.);
#315=ORIENTED_EDGE('',*,*,#448,.T.);
#316=ORIENTED_EDGE('',*,*,#489,.T.);
#317=ORIENTED_EDGE('',*,*,#462,.T.);
#318=ORIENTED_EDGE('',*,*,#495,.T.);
#319=ORIENTED_EDGE('',*,*,#453,.T.);
#320=ORIENTED_EDGE('',*,*,#492,.T.);
#321=ORIENTED_EDGE('',*,*,#465,.T.);
#322=ORIENTED_EDGE('',*,*,#490,.T.);
#323=ORIENTED_EDGE('',*,*,#450,.T.);
#324=ORIENTED_EDGE('',*,*,#497,.T.);
#325=ORIENTED_EDGE('',*,*,#533,.T.);
#326=ORIENTED_EDGE('',*,*,#534,.T.);
#327=ORIENTED_EDGE('',*,*,#440,.T.);
#328=ORIENTED_EDGE('',*,*,#527,.T.);
#329=ORIENTED_EDGE('',*,*,#524,.T.);
#330=ORIENTED_EDGE('',*,*,#484,.T.);
#331=ORIENTED_EDGE('',*,*,#535,.T.);
#332=ORIENTED_EDGE('',*,*,#493,.T.);
#333=ORIENTED_EDGE('',*,*,#535,.F.);
#334=ORIENTED_EDGE('',*,*,#483,.T.);
#335=ORIENTED_EDGE('',*,*,#457,.T.);
#336=ORIENTED_EDGE('',*,*,#494,.T.);
#337=ORIENTED_EDGE('',*,*,#486,.T.);
#338=ORIENTED_EDGE('',*,*,#526,.T.);
#339=ORIENTED_EDGE('',*,*,#536,.T.);
#340=ORIENTED_EDGE('',*,*,#468,.T.);
#341=ORIENTED_EDGE('',*,*,#528,.T.);
#342=ORIENTED_EDGE('',*,*,#438,.F.);
#343=ORIENTED_EDGE('',*,*,#529,.T.);
#344=ORIENTED_EDGE('',*,*,#536,.F.);
#345=ORIENTED_EDGE('',*,*,#487,.T.);
#346=ORIENTED_EDGE('',*,*,#470,.T.);
#347=ORIENTED_EDGE('',*,*,#537,.T.);
#348=ORIENTED_EDGE('',*,*,#523,.T.);
#349=ORIENTED_EDGE('',*,*,#530,.T.);
#350=ORIENTED_EDGE('',*,*,#444,.F.);
#351=ORIENTED_EDGE('',*,*,#531,.T.);
#352=ORIENTED_EDGE('',*,*,#537,.F.);
#353=ORIENTED_EDGE('',*,*,#435,.T.);
#354=ORIENTED_EDGE('',*,*,#538,.T.);
#355=ORIENTED_EDGE('',*,*,#539,.T.);
#356=ORIENTED_EDGE('',*,*,#511,.T.);
#357=ORIENTED_EDGE('',*,*,#510,.T.);
#358=ORIENTED_EDGE('',*,*,#540,.T.);
#359=ORIENTED_EDGE('',*,*,#541,.T.);
#360=ORIENTED_EDGE('',*,*,#437,.T.);
#361=ORIENTED_EDGE('',*,*,#539,.F.);
#362=ORIENTED_EDGE('',*,*,#504,.T.);
#363=ORIENTED_EDGE('',*,*,#542,.T.);
#364=ORIENTED_EDGE('',*,*,#512,.T.);
#365=ORIENTED_EDGE('',*,*,#538,.F.);
#366=ORIENTED_EDGE('',*,*,#434,.T.);
#367=ORIENTED_EDGE('',*,*,#543,.T.);
#368=ORIENTED_EDGE('',*,*,#505,.T.);
#369=ORIENTED_EDGE('',*,*,#544,.T.);
#370=ORIENTED_EDGE('',*,*,#501,.T.);
#371=ORIENTED_EDGE('',*,*,#545,.T.);
#372=ORIENTED_EDGE('',*,*,#432,.T.);
#373=ORIENTED_EDGE('',*,*,#541,.F.);
#374=ORIENTED_EDGE('',*,*,#515,.T.);
#375=ORIENTED_EDGE('',*,*,#546,.T.);
#376=ORIENTED_EDGE('',*,*,#430,.T.);
#377=ORIENTED_EDGE('',*,*,#540,.F.);
#378=ORIENTED_EDGE('',*,*,#509,.T.);
#379=ORIENTED_EDGE('',*,*,#547,.T.);
#380=ORIENTED_EDGE('',*,*,#516,.T.);
#381=ORIENTED_EDGE('',*,*,#513,.T.);
#382=ORIENTED_EDGE('',*,*,#542,.F.);
#383=ORIENTED_EDGE('',*,*,#548,.T.);
#384=ORIENTED_EDGE('',*,*,#479,.T.);
#385=ORIENTED_EDGE('',*,*,#433,.F.);
#386=ORIENTED_EDGE('',*,*,#545,.F.);
#387=ORIENTED_EDGE('',*,*,#549,.T.);
#388=ORIENTED_EDGE('',*,*,#543,.F.);
#389=ORIENTED_EDGE('',*,*,#431,.F.);
#390=ORIENTED_EDGE('',*,*,#546,.F.);
#391=ORIENTED_EDGE('',*,*,#550,.T.);
#392=ORIENTED_EDGE('',*,*,#544,.F.);
#393=ORIENTED_EDGE('',*,*,#508,.T.);
#394=ORIENTED_EDGE('',*,*,#477,.T.);
#395=ORIENTED_EDGE('',*,*,#551,.T.);
#396=ORIENTED_EDGE('',*,*,#547,.F.);
#397=ORIENTED_EDGE('',*,*,#548,.F.);
#398=ORIENTED_EDGE('',*,*,#507,.T.);
#399=ORIENTED_EDGE('',*,*,#552,.T.);
#400=ORIENTED_EDGE('',*,*,#472,.T.);
#401=ORIENTED_EDGE('',*,*,#549,.F.);
#402=ORIENTED_EDGE('',*,*,#500,.T.);
#403=ORIENTED_EDGE('',*,*,#553,.T.);
#404=ORIENTED_EDGE('',*,*,#506,.T.);
#405=ORIENTED_EDGE('',*,*,#550,.F.);
#406=ORIENTED_EDGE('',*,*,#514,.T.);
#407=ORIENTED_EDGE('',*,*,#554,.T.);
#408=ORIENTED_EDGE('',*,*,#502,.T.);
#409=ORIENTED_EDGE('',*,*,#551,.F.);
#410=ORIENTED_EDGE('',*,*,#476,.T.);
#411=ORIENTED_EDGE('',*,*,#555,.T.);
#412=ORIENTED_EDGE('',*,*,#517,.T.);
#413=ORIENTED_EDGE('',*,*,#552,.F.);
#414=ORIENTED_EDGE('',*,*,#553,.F.);
#415=ORIENTED_EDGE('',*,*,#556,.T.);
#416=ORIENTED_EDGE('',*,*,#473,.F.);
#417=ORIENTED_EDGE('',*,*,#555,.F.);
#418=ORIENTED_EDGE('',*,*,#475,.F.);
#419=ORIENTED_EDGE('',*,*,#557,.T.);
#420=ORIENTED_EDGE('',*,*,#554,.F.);
#421=ORIENTED_EDGE('',*,*,#556,.F.);
#422=ORIENTED_EDGE('',*,*,#503,.T.);
#423=ORIENTED_EDGE('',*,*,#557,.F.);
#424=ORIENTED_EDGE('',*,*,#474,.T.);
#425=ORIENTED_EDGE('',*,*,#429,.T.);
#426=ORIENTED_EDGE('',*,*,#471,.F.);
#427=ORIENTED_EDGE('',*,*,#466,.F.);
#428=ORIENTED_EDGE('',*,*,#454,.F.);
#429=EDGE_CURVE('',#558,#558,#640,.T.);
#430=EDGE_CURVE('',#559,#560,#641,.T.);
#431=EDGE_CURVE('',#559,#561,#642,.T.);
#432=EDGE_CURVE('',#562,#561,#61,.T.);
#433=EDGE_CURVE('',#562,#563,#643,.T.);
#434=EDGE_CURVE('',#564,#563,#644,.F.);
#435=EDGE_CURVE('',#565,#564,#645,.F.);
#436=EDGE_CURVE('',#565,#566,#62,.T.);
#437=EDGE_CURVE('',#560,#566,#646,.F.);
#438=EDGE_CURVE('',#567,#568,#647,.F.);
#439=EDGE_CURVE('',#569,#568,#63,.F.);
#440=EDGE_CURVE('',#570,#569,#64,.F.);
#441=EDGE_CURVE('',#571,#570,#65,.T.);
#442=EDGE_CURVE('',#572,#571,#66,.T.);
#443=EDGE_CURVE('',#573,#572,#67,.F.);
#444=EDGE_CURVE('',#573,#574,#648,.F.);
#445=EDGE_CURVE('',#567,#574,#68,.T.);
#446=EDGE_CURVE('',#575,#576,#69,.T.);
#447=EDGE_CURVE('',#577,#575,#649,.T.);
#448=EDGE_CURVE('',#578,#577,#650,.T.);
#449=EDGE_CURVE('',#578,#579,#70,.T.);
#450=EDGE_CURVE('',#580,#579,#71,.T.);
#451=EDGE_CURVE('',#580,#581,#651,.T.);
#452=EDGE_CURVE('',#581,#582,#72,.T.);
#453=EDGE_CURVE('',#576,#582,#652,.T.);
#454=EDGE_CURVE('',#583,#583,#653,.T.);
#455=EDGE_CURVE('',#584,#585,#73,.T.);
#456=EDGE_CURVE('',#586,#584,#654,.T.);
#457=EDGE_CURVE('',#587,#586,#655,.F.);
#458=EDGE_CURVE('',#587,#588,#74,.T.);
#459=EDGE_CURVE('',#588,#589,#75,.T.);
#460=EDGE_CURVE('',#590,#589,#656,.F.);
#461=EDGE_CURVE('',#591,#590,#76,.T.);
#462=EDGE_CURVE('',#592,#591,#657,.F.);
#463=EDGE_CURVE('',#592,#593,#658,.T.);
#464=EDGE_CURVE('',#593,#594,#77,.T.);
#465=EDGE_CURVE('',#585,#594,#659,.F.);
#466=EDGE_CURVE('',#595,#595,#660,.T.);
#467=EDGE_CURVE('',#596,#597,#78,.T.);
#468=EDGE_CURVE('',#598,#596,#79,.F.);
#469=EDGE_CURVE('',#599,#598,#80,.F.);
#470=EDGE_CURVE('',#597,#599,#81,.T.);
#471=EDGE_CURVE('',#600,#600,#661,.T.);
#472=EDGE_CURVE('',#601,#602,#662,.T.);
#473=EDGE_CURVE('',#601,#603,#663,.F.);
#474=EDGE_CURVE('',#604,#603,#82,.F.);
#475=EDGE_CURVE('',#604,#605,#664,.F.);
#476=EDGE_CURVE('',#606,#605,#665,.F.);
#477=EDGE_CURVE('',#607,#606,#666,.T.);
#478=EDGE_CURVE('',#608,#607,#83,.T.);
#479=EDGE_CURVE('',#602,#608,#667,.T.);
#480=EDGE_CURVE('',#609,#610,#84,.T.);
#481=EDGE_CURVE('',#609,#611,#85,.T.);
#482=EDGE_CURVE('',#611,#588,#86,.T.);
#483=EDGE_CURVE('',#612,#587,#87,.F.);
#484=EDGE_CURVE('',#613,#612,#88,.F.);
#485=EDGE_CURVE('',#614,#613,#89,.T.);
#486=EDGE_CURVE('',#596,#614,#668,.F.);
#487=EDGE_CURVE('',#610,#597,#669,.F.);
#488=EDGE_CURVE('',#575,#593,#90,.T.);
#489=EDGE_CURVE('',#577,#592,#91,.T.);
#490=EDGE_CURVE('',#594,#576,#92,.T.);
#491=EDGE_CURVE('',#581,#584,#93,.T.);
#492=EDGE_CURVE('',#582,#585,#94,.T.);
#493=EDGE_CURVE('',#615,#580,#30,.T.);
#494=EDGE_CURVE('',#586,#615,#95,.F.);
#495=EDGE_CURVE('',#591,#578,#96,.F.);
#496=EDGE_CURVE('',#616,#590,#97,.T.);
#497=EDGE_CURVE('',#579,#616,#26,.T.);
#498=EDGE_CURVE('',#611,#617,#98,.T.);
#499=EDGE_CURVE('',#589,#617,#99,.F.);
#500=EDGE_CURVE('',#618,#619,#100,.F.);
#501=EDGE_CURVE('',#620,#618,#101,.F.);
#502=EDGE_CURVE('',#621,#620,#102,.F.);
#503=EDGE_CURVE('',#619,#621,#103,.T.);
#504=EDGE_CURVE('',#622,#623,#104,.F.);
#505=EDGE_CURVE('',#624,#622,#670,.T.);
#506=EDGE_CURVE('',#625,#624,#105,.T.);
#507=EDGE_CURVE('',#623,#625,#671,.F.);
#508=EDGE_CURVE('',#626,#607,#31,.F.);
#509=EDGE_CURVE('',#627,#626,#106,.F.);
#510=EDGE_CURVE('',#566,#627,#32,.T.);
#511=EDGE_CURVE('',#628,#565,#33,.F.);
#512=EDGE_CURVE('',#629,#628,#107,.F.);
#513=EDGE_CURVE('',#608,#629,#34,.T.);
#514=EDGE_CURVE('',#630,#631,#108,.F.);
#515=EDGE_CURVE('',#632,#630,#672,.F.);
#516=EDGE_CURVE('',#633,#632,#109,.T.);
#517=EDGE_CURVE('',#631,#633,#673,.T.);
#518=EDGE_CURVE('',#634,#571,#674,.F.);
#519=EDGE_CURVE('',#617,#634,#675,.F.);
#520=EDGE_CURVE('',#609,#635,#110,.T.);
#521=EDGE_CURVE('',#572,#635,#27,.T.);
#522=EDGE_CURVE('',#635,#636,#111,.T.);
#523=EDGE_CURVE('',#636,#610,#112,.F.);
#524=EDGE_CURVE('',#637,#613,#28,.F.);
#525=EDGE_CURVE('',#638,#637,#113,.T.);
#526=EDGE_CURVE('',#614,#638,#114,.T.);
#527=EDGE_CURVE('',#569,#637,#35,.T.);
#528=EDGE_CURVE('',#638,#568,#676,.T.);
#529=EDGE_CURVE('',#567,#598,#677,.T.);
#530=EDGE_CURVE('',#599,#574,#678,.T.);
#531=EDGE_CURVE('',#573,#636,#679,.T.);
#532=EDGE_CURVE('',#639,#634,#115,.T.);
#533=EDGE_CURVE('',#616,#639,#36,.T.);
#534=EDGE_CURVE('',#639,#570,#37,.T.);
#535=EDGE_CURVE('',#612,#615,#29,.T.);
#536=EDGE_CURVE('',#638,#598,#680,.T.);
#537=EDGE_CURVE('',#599,#636,#681,.T.);
#538=EDGE_CURVE('',#564,#622,#682,.T.);
#539=EDGE_CURVE('',#622,#628,#683,.T.);
#540=EDGE_CURVE('',#627,#632,#684,.T.);
#541=EDGE_CURVE('',#632,#560,#685,.T.);
#542=EDGE_CURVE('',#623,#629,#686,.T.);
#543=EDGE_CURVE('',#563,#624,#687,.T.);
#544=EDGE_CURVE('',#561,#620,#688,.T.);
#545=EDGE_CURVE('',#618,#562,#689,.T.);
#546=EDGE_CURVE('',#630,#559,#690,.T.);
#547=EDGE_CURVE('',#626,#633,#691,.T.);
#548=EDGE_CURVE('',#623,#602,#692,.T.);
#549=EDGE_CURVE('',#618,#624,#693,.T.);
#550=EDGE_CURVE('',#630,#620,#694,.T.);
#551=EDGE_CURVE('',#606,#633,#695,.T.);
#552=EDGE_CURVE('',#625,#601,#696,.T.);
#553=EDGE_CURVE('',#619,#625,#697,.T.);
#554=EDGE_CURVE('',#631,#621,#698,.T.);
#555=EDGE_CURVE('',#605,#631,#699,.T.);
#556=EDGE_CURVE('',#619,#603,#700,.F.);
#557=EDGE_CURVE('',#604,#621,#701,.F.);
#558=VERTEX_POINT('',#1309);
#559=VERTEX_POINT('',#1311);
#560=VERTEX_POINT('',#1312);
#561=VERTEX_POINT('',#1314);
#562=VERTEX_POINT('',#1316);
#563=VERTEX_POINT('',#1318);
#564=VERTEX_POINT('',#1320);
#565=VERTEX_POINT('',#1322);
#566=VERTEX_POINT('',#1324);
#567=VERTEX_POINT('',#1327);
#568=VERTEX_POINT('',#1328);
#569=VERTEX_POINT('',#1330);
#570=VERTEX_POINT('',#1332);
#571=VERTEX_POINT('',#1334);
#572=VERTEX_POINT('',#1336);
#573=VERTEX_POINT('',#1338);
#574=VERTEX_POINT('',#1340);
#575=VERTEX_POINT('',#1344);
#576=VERTEX_POINT('',#1345);
#577=VERTEX_POINT('',#1347);
#578=VERTEX_POINT('',#1349);
#579=VERTEX_POINT('',#1351);
#580=VERTEX_POINT('',#1353);
#581=VERTEX_POINT('',#1355);
#582=VERTEX_POINT('',#1357);
#583=VERTEX_POINT('',#1360);
#584=VERTEX_POINT('',#1363);
#585=VERTEX_POINT('',#1364);
#586=VERTEX_POINT('',#1366);
#587=VERTEX_POINT('',#1368);
#588=VERTEX_POINT('',#1370);
#589=VERTEX_POINT('',#1372);
#590=VERTEX_POINT('',#1374);
#591=VERTEX_POINT('',#1376);
#592=VERTEX_POINT('',#1378);
#593=VERTEX_POINT('',#1380);
#594=VERTEX_POINT('',#1382);
#595=VERTEX_POINT('',#1385);
#596=VERTEX_POINT('',#1388);
#597=VERTEX_POINT('',#1389);
#598=VERTEX_POINT('',#1391);
#599=VERTEX_POINT('',#1393);
#600=VERTEX_POINT('',#1397);
#601=VERTEX_POINT('',#1399);
#602=VERTEX_POINT('',#1400);
#603=VERTEX_POINT('',#1402);
#604=VERTEX_POINT('',#1404);
#605=VERTEX_POINT('',#1406);
#606=VERTEX_POINT('',#1408);
#607=VERTEX_POINT('',#1410);
#608=VERTEX_POINT('',#1412);
#609=VERTEX_POINT('',#1415);
#610=VERTEX_POINT('',#1416);
#611=VERTEX_POINT('',#1418);
#612=VERTEX_POINT('',#1421);
#613=VERTEX_POINT('',#1423);
#614=VERTEX_POINT('',#1425);
#615=VERTEX_POINT('',#1441);
#616=VERTEX_POINT('',#1446);
#617=VERTEX_POINT('',#1450);
#618=VERTEX_POINT('',#1454);
#619=VERTEX_POINT('',#1455);
#620=VERTEX_POINT('',#1457);
#621=VERTEX_POINT('',#1459);
#622=VERTEX_POINT('',#1463);
#623=VERTEX_POINT('',#1464);
#624=VERTEX_POINT('',#1466);
#625=VERTEX_POINT('',#1468);
#626=VERTEX_POINT('',#1475);
#627=VERTEX_POINT('',#1477);
#628=VERTEX_POINT('',#1486);
#629=VERTEX_POINT('',#1488);
#630=VERTEX_POINT('',#1495);
#631=VERTEX_POINT('',#1496);
#632=VERTEX_POINT('',#1498);
#633=VERTEX_POINT('',#1500);
#634=VERTEX_POINT('',#1504);
#635=VERTEX_POINT('',#1507);
#636=VERTEX_POINT('',#1511);
#637=VERTEX_POINT('',#1515);
#638=VERTEX_POINT('',#1517);
#639=VERTEX_POINT('',#1533);
#640=CIRCLE('',#899,0.00144347551651268);
#641=CIRCLE('',#900,0.0036476481355404);
#642=CIRCLE('',#901,0.00018396307345283);
#643=CIRCLE('',#902,0.00018396307345283);
#644=CIRCLE('',#903,0.00643430967874436);
#645=CIRCLE('',#904,0.00018396307345283);
#646=CIRCLE('',#905,0.00018396307345283);
#647=CIRCLE('',#906,0.00537916063774591);
#648=CIRCLE('',#907,0.00537916063774591);
#649=CIRCLE('',#909,0.00355560627074051);
#650=CIRCLE('',#910,0.00395825184867217);
#651=CIRCLE('',#911,0.00364831982914648);
#652=CIRCLE('',#912,0.0039582598);
#653=CIRCLE('',#913,0.001778);
#654=CIRCLE('',#915,0.00364831982914648);
#655=CIRCLE('',#916,0.0039582598);
#656=CIRCLE('',#917,0.00665387386083941);
#657=CIRCLE('',#918,0.00395825184867217);
#658=CIRCLE('',#919,0.00355560627074051);
#659=CIRCLE('',#920,0.0039582598);
#660=CIRCLE('',#921,0.001778);
#661=CIRCLE('',#924,0.00144347551651268);
#662=CIRCLE('',#925,0.00643430967874436);
#663=CIRCLE('',#926,0.00018396307345283);
#664=CIRCLE('',#927,0.00018396307345283);
#665=CIRCLE('',#928,0.0036476481355404);
#666=CIRCLE('',#929,0.00018396307345283);
#667=CIRCLE('',#930,0.00018396307345283);
#668=CIRCLE('',#931,0.00590039403774591);
#669=CIRCLE('',#932,0.00590039403774591);
#670=CIRCLE('',#942,0.00634232814201794);
#671=CIRCLE('',#943,0.00634232814201794);
#672=CIRCLE('',#946,0.00373962967226682);
#673=CIRCLE('',#947,0.00373962967226682);
#674=CIRCLE('',#949,0.000685318706218801);
#675=CIRCLE('',#950,0.00665387386083941);
#676=CIRCLE('',#956,0.0005212334);
#677=CIRCLE('',#958,0.0005212334);
#678=CIRCLE('',#959,0.0005212334);
#679=CIRCLE('',#961,0.0005212334);
#680=CIRCLE('',#970,0.00590039403774591);
#681=CIRCLE('',#973,0.00590039403774591);
#682=CIRCLE('',#976,9.19815367264149E-5);
#683=CIRCLE('',#977,9.19815367264149E-5);
#684=CIRCLE('',#979,9.19815367264149E-5);
#685=CIRCLE('',#980,9.19815367264149E-5);
#686=CIRCLE('',#982,9.19815367264149E-5);
#687=CIRCLE('',#984,9.19815367264149E-5);
#688=CIRCLE('',#986,9.19815367264149E-5);
#689=CIRCLE('',#987,9.19815367264149E-5);
#690=CIRCLE('',#989,9.19815367264149E-5);
#691=CIRCLE('',#991,9.19815367264149E-5);
#692=CIRCLE('',#993,9.19815367264149E-5);
#693=CIRCLE('',#995,9.19815367264149E-5);
#694=CIRCLE('',#997,9.19815367264149E-5);
#695=CIRCLE('',#999,9.19815367264149E-5);
#696=CIRCLE('',#1001,9.19815367264149E-5);
#697=CIRCLE('',#1003,9.19815367264149E-5);
#698=CIRCLE('',#1005,9.19815367264149E-5);
#699=CIRCLE('',#1007,9.19815367264149E-5);
#700=CIRCLE('',#1009,9.19815367264149E-5);
#701=CIRCLE('',#1011,9.19815367264149E-5);
#702=EDGE_LOOP('',(#171));
#703=EDGE_LOOP('',(#172,#173,#174,#175,#176,#177,#178,#179));
#704=EDGE_LOOP('',(#180,#181,#182,#183,#184,#185,#186,#187));
#705=EDGE_LOOP('',(#188,#189,#190,#191,#192,#193,#194,#195));
#706=EDGE_LOOP('',(#196));
#707=EDGE_LOOP('',(#197,#198,#199,#200,#201,#202,#203,#204,#205,#206,#207));
#708=EDGE_LOOP('',(#208));
#709=EDGE_LOOP('',(#209,#210,#211,#212));
#710=EDGE_LOOP('',(#213));
#711=EDGE_LOOP('',(#214,#215,#216,#217,#218,#219,#220,#221));
#712=EDGE_LOOP('',(#222,#223,#224,#225,#226,#227,#228,#229,#230,#231));
#713=EDGE_LOOP('',(#232,#233,#234,#235));
#714=EDGE_LOOP('',(#236,#237,#238,#239));
#715=EDGE_LOOP('',(#240,#241,#242,#243));
#716=EDGE_LOOP('',(#244,#245,#246,#247,#248));
#717=EDGE_LOOP('',(#249,#250,#251,#252,#253));
#718=EDGE_LOOP('',(#254,#255,#256,#257));
#719=EDGE_LOOP('',(#258,#259,#260,#261));
#720=EDGE_LOOP('',(#262,#263,#264,#265));
#721=EDGE_LOOP('',(#266,#267,#268,#269,#270,#271,#272,#273));
#722=EDGE_LOOP('',(#274,#275,#276,#277));
#723=EDGE_LOOP('',(#278,#279,#280,#281,#282,#283,#284));
#724=EDGE_LOOP('',(#285,#286,#287,#288));
#725=EDGE_LOOP('',(#289,#290,#291,#292));
#726=EDGE_LOOP('',(#293,#294,#295,#296));
#727=EDGE_LOOP('',(#297,#298,#299,#300));
#728=EDGE_LOOP('',(#301,#302,#303,#304));
#729=EDGE_LOOP('',(#305,#306,#307,#308,#309,#310));
#730=EDGE_LOOP('',(#311,#312,#313,#314));
#731=EDGE_LOOP('',(#315,#316,#317,#318));
#732=EDGE_LOOP('',(#319,#320,#321,#322));
#733=EDGE_LOOP('',(#323,#324,#325,#326,#327,#328,#329,#330,#331,#332));
#734=EDGE_LOOP('',(#333,#334,#335,#336));
#735=EDGE_LOOP('',(#337,#338,#339,#340));
#736=EDGE_LOOP('',(#341,#342,#343,#344));
#737=EDGE_LOOP('',(#345,#346,#347,#348));
#738=EDGE_LOOP('',(#349,#350,#351,#352));
#739=EDGE_LOOP('',(#353,#354,#355,#356));
#740=EDGE_LOOP('',(#357,#358,#359,#360));
#741=EDGE_LOOP('',(#361,#362,#363,#364));
#742=EDGE_LOOP('',(#365,#366,#367,#368));
#743=EDGE_LOOP('',(#369,#370,#371,#372));
#744=EDGE_LOOP('',(#373,#374,#375,#376));
#745=EDGE_LOOP('',(#377,#378,#379,#380));
#746=EDGE_LOOP('',(#381,#382,#383,#384));
#747=EDGE_LOOP('',(#385,#386,#387,#388));
#748=EDGE_LOOP('',(#389,#390,#391,#392));
#749=EDGE_LOOP('',(#393,#394,#395,#396));
#750=EDGE_LOOP('',(#397,#398,#399,#400));
#751=EDGE_LOOP('',(#401,#402,#403,#404));
#752=EDGE_LOOP('',(#405,#406,#407,#408));
#753=EDGE_LOOP('',(#409,#410,#411,#412));
#754=EDGE_LOOP('',(#413,#414,#415,#416));
#755=EDGE_LOOP('',(#417,#418,#419,#420));
#756=EDGE_LOOP('',(#421,#422,#423,#424));
#757=EDGE_LOOP('',(#425));
#758=EDGE_LOOP('',(#426));
#759=EDGE_LOOP('',(#427));
#760=EDGE_LOOP('',(#428));
#761=FACE_BOUND('',#702,.T.);
#762=FACE_BOUND('',#703,.T.);
#763=FACE_BOUND('',#704,.T.);
#764=FACE_BOUND('',#705,.T.);
#765=FACE_BOUND('',#706,.T.);
#766=FACE_BOUND('',#707,.T.);
#767=FACE_BOUND('',#708,.T.);
#768=FACE_BOUND('',#709,.T.);
#769=FACE_BOUND('',#710,.T.);
#770=FACE_BOUND('',#711,.T.);
#771=FACE_BOUND('',#712,.T.);
#772=FACE_BOUND('',#713,.T.);
#773=FACE_BOUND('',#714,.T.);
#774=FACE_BOUND('',#715,.T.);
#775=FACE_BOUND('',#716,.T.);
#776=FACE_BOUND('',#717,.T.);
#777=FACE_BOUND('',#718,.T.);
#778=FACE_BOUND('',#719,.T.);
#779=FACE_BOUND('',#720,.T.);
#780=FACE_BOUND('',#721,.T.);
#781=FACE_BOUND('',#722,.T.);
#782=FACE_BOUND('',#723,.T.);
#783=FACE_BOUND('',#724,.T.);
#784=FACE_BOUND('',#725,.T.);
#785=FACE_BOUND('',#726,.T.);
#786=FACE_BOUND('',#727,.T.);
#787=FACE_BOUND('',#728,.T.);
#788=FACE_BOUND('',#729,.T.);
#789=FACE_BOUND('',#730,.T.);
#790=FACE_BOUND('',#731,.T.);
#791=FACE_BOUND('',#732,.T.);
#792=FACE_BOUND('',#733,.T.);
#793=FACE_BOUND('',#734,.T.);
#794=FACE_BOUND('',#735,.T.);
#795=FACE_BOUND('',#736,.T.);
#796=FACE_BOUND('',#737,.T.);
#797=FACE_BOUND('',#738,.T.);
#798=FACE_BOUND('',#739,.T.);
#799=FACE_BOUND('',#740,.T.);
#800=FACE_BOUND('',#741,.T.);
#801=FACE_BOUND('',#742,.T.);
#802=FACE_BOUND('',#743,.T.);
#803=FACE_BOUND('',#744,.T.);
#804=FACE_BOUND('',#745,.T.);
#805=FACE_BOUND('',#746,.T.);
#806=FACE_BOUND('',#747,.T.);
#807=FACE_BOUND('',#748,.T.);
#808=FACE_BOUND('',#749,.T.);
#809=FACE_BOUND('',#750,.T.);
#810=FACE_BOUND('',#751,.T.);
#811=FACE_BOUND('',#752,.T.);
#812=FACE_BOUND('',#753,.T.);
#813=FACE_BOUND('',#754,.T.);
#814=FACE_BOUND('',#755,.T.);
#815=FACE_BOUND('',#756,.T.);
#816=FACE_BOUND('',#757,.T.);
#817=FACE_BOUND('',#758,.T.);
#818=FACE_BOUND('',#759,.T.);
#819=FACE_BOUND('',#760,.T.);
#820=PLANE('',#898);
#821=PLANE('',#908);
#822=PLANE('',#914);
#823=PLANE('',#922);
#824=PLANE('',#923);
#825=PLANE('',#934);
#826=PLANE('',#935);
#827=PLANE('',#937);
#828=PLANE('',#939);
#829=PLANE('',#940);
#830=PLANE('',#944);
#831=PLANE('',#948);
#832=PLANE('',#952);
#833=PLANE('',#953);
#834=ADVANCED_FACE('',(#761,#762,#763),#820,.T.);
#835=ADVANCED_FACE('',(#764,#765),#821,.T.);
#836=ADVANCED_FACE('',(#766,#767),#822,.F.);
#837=ADVANCED_FACE('',(#768),#823,.T.);
#838=ADVANCED_FACE('',(#769,#770,#771),#824,.F.);
#839=ADVANCED_FACE('',(#772),#38,.T.);
#840=ADVANCED_FACE('',(#773),#825,.F.);
#841=ADVANCED_FACE('',(#774),#826,.T.);
#842=ADVANCED_FACE('',(#775),#39,.F.);
#843=ADVANCED_FACE('',(#776),#827,.T.);
#844=ADVANCED_FACE('',(#777),#828,.T.);
#845=ADVANCED_FACE('',(#778),#829,.T.);
#846=ADVANCED_FACE('',(#779),#40,.F.);
#847=ADVANCED_FACE('',(#780),#830,.F.);
#848=ADVANCED_FACE('',(#781),#41,.T.);
#849=ADVANCED_FACE('',(#782),#831,.T.);
#850=ADVANCED_FACE('',(#783),#832,.F.);
#851=ADVANCED_FACE('',(#784),#833,.F.);
#852=ADVANCED_FACE('',(#785),#42,.T.);
#853=ADVANCED_FACE('',(#786),#43,.T.);
#854=ADVANCED_FACE('',(#787),#44,.T.);
#855=ADVANCED_FACE('',(#788),#45,.T.);
#856=ADVANCED_FACE('',(#789),#46,.F.);
#857=ADVANCED_FACE('',(#790),#47,.T.);
#858=ADVANCED_FACE('',(#791),#48,.T.);
#859=ADVANCED_FACE('',(#792),#49,.T.);
#860=ADVANCED_FACE('',(#793),#50,.T.);
#861=ADVANCED_FACE('',(#794),#51,.T.);
#862=ADVANCED_FACE('',(#795),#12,.T.);
#863=ADVANCED_FACE('',(#796),#52,.T.);
#864=ADVANCED_FACE('',(#797),#13,.T.);
#865=ADVANCED_FACE('',(#798),#14,.T.);
#866=ADVANCED_FACE('',(#799),#15,.T.);
#867=ADVANCED_FACE('',(#800),#53,.F.);
#868=ADVANCED_FACE('',(#801),#16,.T.);
#869=ADVANCED_FACE('',(#802),#54,.T.);
#870=ADVANCED_FACE('',(#803),#17,.T.);
#871=ADVANCED_FACE('',(#804),#55,.F.);
#872=ADVANCED_FACE('',(#805),#18,.T.);
#873=ADVANCED_FACE('',(#806),#19,.T.);
#874=ADVANCED_FACE('',(#807),#20,.T.);
#875=ADVANCED_FACE('',(#808),#21,.T.);
#876=ADVANCED_FACE('',(#809),#22,.T.);
#877=ADVANCED_FACE('',(#810),#56,.F.);
#878=ADVANCED_FACE('',(#811),#57,.F.);
#879=ADVANCED_FACE('',(#812),#23,.T.);
#880=ADVANCED_FACE('',(#813),#24,.T.);
#881=ADVANCED_FACE('',(#814),#25,.T.);
#882=ADVANCED_FACE('',(#815),#58,.T.);
#883=ADVANCED_FACE('',(#816,#817),#59,.F.);
#884=ADVANCED_FACE('',(#818,#819),#60,.F.);
#885=CLOSED_SHELL('',(#834,#835,#836,#837,#838,#839,#840,#841,#842,#843,
#844,#845,#846,#847,#848,#849,#850,#851,#852,#853,#854,#855,#856,#857,#858,
#859,#860,#861,#862,#863,#864,#865,#866,#867,#868,#869,#870,#871,#872,#873,
#874,#875,#876,#877,#878,#879,#880,#881,#882,#883,#884));
#886=STYLED_ITEM('',(#887),#894);
#887=PRESENTATION_STYLE_ASSIGNMENT((#888));
#888=SURFACE_STYLE_USAGE(.BOTH.,#889);
#889=SURFACE_SIDE_STYLE('',(#890));
#890=SURFACE_STYLE_FILL_AREA(#891);
#891=FILL_AREA_STYLE('',(#892));
#892=FILL_AREA_STYLE_COLOUR('',#893);
#893=COLOUR_RGB('',0.0745098039215686,0.588235294117647,0.945098039215686);
#894=MANIFOLD_SOLID_BREP('Part 7',#885);
#895=SHAPE_DEFINITION_REPRESENTATION(#1601,#896);
#896=SHAPE_REPRESENTATION('Part 7',(#897),#1596);
#897=AXIS2_PLACEMENT_3D('',#1306,#1015,#1016);
#898=AXIS2_PLACEMENT_3D('',#1307,#1017,#1018);
#899=AXIS2_PLACEMENT_3D('',#1308,#1019,#1020);
#900=AXIS2_PLACEMENT_3D('',#1310,#1021,#1022);
#901=AXIS2_PLACEMENT_3D('',#1313,#1023,#1024);
#902=AXIS2_PLACEMENT_3D('',#1317,#1026,#1027);
#903=AXIS2_PLACEMENT_3D('',#1319,#1028,#1029);
#904=AXIS2_PLACEMENT_3D('',#1321,#1030,#1031);
#905=AXIS2_PLACEMENT_3D('',#1325,#1033,#1034);
#906=AXIS2_PLACEMENT_3D('',#1326,#1035,#1036);
#907=AXIS2_PLACEMENT_3D('',#1339,#1042,#1043);
#908=AXIS2_PLACEMENT_3D('',#1342,#1045,#1046);
#909=AXIS2_PLACEMENT_3D('',#1346,#1048,#1049);
#910=AXIS2_PLACEMENT_3D('',#1348,#1050,#1051);
#911=AXIS2_PLACEMENT_3D('',#1354,#1054,#1055);
#912=AXIS2_PLACEMENT_3D('',#1358,#1057,#1058);
#913=AXIS2_PLACEMENT_3D('',#1359,#1059,#1060);
#914=AXIS2_PLACEMENT_3D('',#1361,#1061,#1062);
#915=AXIS2_PLACEMENT_3D('',#1365,#1064,#1065);
#916=AXIS2_PLACEMENT_3D('',#1367,#1066,#1067);
#917=AXIS2_PLACEMENT_3D('',#1373,#1070,#1071);
#918=AXIS2_PLACEMENT_3D('',#1377,#1073,#1074);
#919=AXIS2_PLACEMENT_3D('',#1379,#1075,#1076);
#920=AXIS2_PLACEMENT_3D('',#1383,#1078,#1079);
#921=AXIS2_PLACEMENT_3D('',#1384,#1080,#1081);
#922=AXIS2_PLACEMENT_3D('',#1386,#1082,#1083);
#923=AXIS2_PLACEMENT_3D('',#1395,#1088,#1089);
#924=AXIS2_PLACEMENT_3D('',#1396,#1090,#1091);
#925=AXIS2_PLACEMENT_3D('',#1398,#1092,#1093);
#926=AXIS2_PLACEMENT_3D('',#1401,#1094,#1095);
#927=AXIS2_PLACEMENT_3D('',#1405,#1097,#1098);
#928=AXIS2_PLACEMENT_3D('',#1407,#1099,#1100);
#929=AXIS2_PLACEMENT_3D('',#1409,#1101,#1102);
#930=AXIS2_PLACEMENT_3D('',#1413,#1104,#1105);
#931=AXIS2_PLACEMENT_3D('',#1426,#1112,#1113);
#932=AXIS2_PLACEMENT_3D('',#1427,#1114,#1115);
#933=AXIS2_PLACEMENT_3D('',#1428,#1116,#1117);
#934=AXIS2_PLACEMENT_3D('',#1431,#1120,#1121);
#935=AXIS2_PLACEMENT_3D('',#1433,#1123,#1124);
#936=AXIS2_PLACEMENT_3D('',#1436,#1127,#1128);
#937=AXIS2_PLACEMENT_3D('',#1443,#1130,#1131);
#938=AXIS2_PLACEMENT_3D('',#1447,#1134,#1135);
#939=AXIS2_PLACEMENT_3D('',#1448,#1136,#1137);
#940=AXIS2_PLACEMENT_3D('',#1452,#1140,#1141);
#941=AXIS2_PLACEMENT_3D('',#1461,#1146,#1147);
#942=AXIS2_PLACEMENT_3D('',#1465,#1149,#1150);
#943=AXIS2_PLACEMENT_3D('',#1469,#1152,#1153);
#944=AXIS2_PLACEMENT_3D('',#1470,#1154,#1155);
#945=AXIS2_PLACEMENT_3D('',#1493,#1158,#1159);
#946=AXIS2_PLACEMENT_3D('',#1497,#1161,#1162);
#947=AXIS2_PLACEMENT_3D('',#1501,#1164,#1165);
#948=AXIS2_PLACEMENT_3D('',#1502,#1166,#1167);
#949=AXIS2_PLACEMENT_3D('',#1503,#1168,#1169);
#950=AXIS2_PLACEMENT_3D('',#1505,#1170,#1171);
#951=AXIS2_PLACEMENT_3D('',#1508,#1173,#1174);
#952=AXIS2_PLACEMENT_3D('',#1509,#1175,#1176);
#953=AXIS2_PLACEMENT_3D('',#1513,#1179,#1180);
#954=AXIS2_PLACEMENT_3D('',#1514,#1181,#1182);
#955=AXIS2_PLACEMENT_3D('',#1519,#1185,#1186);
#956=AXIS2_PLACEMENT_3D('',#1525,#1187,#1188);
#957=AXIS2_PLACEMENT_3D('',#1526,#1189,#1190);
#958=AXIS2_PLACEMENT_3D('',#1527,#1191,#1192);
#959=AXIS2_PLACEMENT_3D('',#1528,#1193,#1194);
#960=AXIS2_PLACEMENT_3D('',#1529,#1195,#1196);
#961=AXIS2_PLACEMENT_3D('',#1530,#1197,#1198);
#962=AXIS2_PLACEMENT_3D('',#1531,#1199,#1200);
#963=AXIS2_PLACEMENT_3D('',#1538,#1202,#1203);
#964=AXIS2_PLACEMENT_3D('',#1544,#1204,#1205);
#965=AXIS2_PLACEMENT_3D('',#1545,#1206,#1207);
#966=AXIS2_PLACEMENT_3D('',#1546,#1208,#1209);
#967=AXIS2_PLACEMENT_3D('',#1547,#1210,#1211);
#968=AXIS2_PLACEMENT_3D('',#1548,#1212,#1213);
#969=AXIS2_PLACEMENT_3D('',#1549,#1214,#1215);
#970=AXIS2_PLACEMENT_3D('',#1550,#1216,#1217);
#971=AXIS2_PLACEMENT_3D('',#1551,#1218,#1219);
#972=AXIS2_PLACEMENT_3D('',#1552,#1220,#1221);
#973=AXIS2_PLACEMENT_3D('',#1553,#1222,#1223);
#974=AXIS2_PLACEMENT_3D('',#1554,#1224,#1225);
#975=AXIS2_PLACEMENT_3D('',#1555,#1226,#1227);
#976=AXIS2_PLACEMENT_3D('',#1556,#1228,#1229);
#977=AXIS2_PLACEMENT_3D('',#1557,#1230,#1231);
#978=AXIS2_PLACEMENT_3D('',#1558,#1232,#1233);
#979=AXIS2_PLACEMENT_3D('',#1559,#1234,#1235);
#980=AXIS2_PLACEMENT_3D('',#1560,#1236,#1237);
#981=AXIS2_PLACEMENT_3D('',#1561,#1238,#1239);
#982=AXIS2_PLACEMENT_3D('',#1562,#1240,#1241);
#983=AXIS2_PLACEMENT_3D('',#1563,#1242,#1243);
#984=AXIS2_PLACEMENT_3D('',#1564,#1244,#1245);
#985=AXIS2_PLACEMENT_3D('',#1565,#1246,#1247);
#986=AXIS2_PLACEMENT_3D('',#1566,#1248,#1249);
#987=AXIS2_PLACEMENT_3D('',#1567,#1250,#1251);
#988=AXIS2_PLACEMENT_3D('',#1568,#1252,#1253);
#989=AXIS2_PLACEMENT_3D('',#1569,#1254,#1255);
#990=AXIS2_PLACEMENT_3D('',#1570,#1256,#1257);
#991=AXIS2_PLACEMENT_3D('',#1571,#1258,#1259);
#992=AXIS2_PLACEMENT_3D('',#1572,#1260,#1261);
#993=AXIS2_PLACEMENT_3D('',#1573,#1262,#1263);
#994=AXIS2_PLACEMENT_3D('',#1574,#1264,#1265);
#995=AXIS2_PLACEMENT_3D('',#1575,#1266,#1267);
#996=AXIS2_PLACEMENT_3D('',#1576,#1268,#1269);
#997=AXIS2_PLACEMENT_3D('',#1577,#1270,#1271);
#998=AXIS2_PLACEMENT_3D('',#1578,#1272,#1273);
#999=AXIS2_PLACEMENT_3D('',#1579,#1274,#1275);
#1000=AXIS2_PLACEMENT_3D('',#1580,#1276,#1277);
#1001=AXIS2_PLACEMENT_3D('',#1581,#1278,#1279);
#1002=AXIS2_PLACEMENT_3D('',#1582,#1280,#1281);
#1003=AXIS2_PLACEMENT_3D('',#1583,#1282,#1283);
#1004=AXIS2_PLACEMENT_3D('',#1584,#1284,#1285);
#1005=AXIS2_PLACEMENT_3D('',#1585,#1286,#1287);
#1006=AXIS2_PLACEMENT_3D('',#1586,#1288,#1289);
#1007=AXIS2_PLACEMENT_3D('',#1587,#1290,#1291);
#1008=AXIS2_PLACEMENT_3D('',#1588,#1292,#1293);
#1009=AXIS2_PLACEMENT_3D('',#1589,#1294,#1295);
#1010=AXIS2_PLACEMENT_3D('',#1590,#1296,#1297);
#1011=AXIS2_PLACEMENT_3D('',#1591,#1298,#1299);
#1012=AXIS2_PLACEMENT_3D('',#1592,#1300,#1301);
#1013=AXIS2_PLACEMENT_3D('',#1593,#1302,#1303);
#1014=AXIS2_PLACEMENT_3D('',#1594,#1304,#1305);
#1015=DIRECTION('',(0.,0.,1.));
#1016=DIRECTION('',(1.,0.,0.));
#1017=DIRECTION('',(0.,-1.,0.));
#1018=DIRECTION('',(0.,0.,1.));
#1019=DIRECTION('',(0.,-1.,0.));
#1020=DIRECTION('',(0.,0.,-1.));
#1021=DIRECTION('',(0.,1.,0.));
#1022=DIRECTION('',(0.,0.,1.));
#1023=DIRECTION('',(0.,1.,0.));
#1024=DIRECTION('',(0.,0.,1.));
#1025=DIRECTION('',(0.516475338431271,0.,-0.856302063989282));
#1026=DIRECTION('',(0.,1.,0.));
#1027=DIRECTION('',(0.,0.,1.));
#1028=DIRECTION('',(0.,1.,0.));
#1029=DIRECTION('',(0.,0.,1.));
#1030=DIRECTION('',(0.,1.,0.));
#1031=DIRECTION('',(0.,0.,1.));
#1032=DIRECTION('',(-0.93759846513066,0.,0.347719884655207));
#1033=DIRECTION('',(0.,1.,0.));
#1034=DIRECTION('',(0.,0.,1.));
#1035=DIRECTION('',(0.,1.,0.));
#1036=DIRECTION('',(0.,0.,1.));
#1037=DIRECTION('',(-0.866433118735577,0.,0.499293151122807));
#1038=DIRECTION('',(-1.,0.,0.));
#1039=DIRECTION('',(0.,0.,1.));
#1040=DIRECTION('',(-1.,0.,0.));
#1041=DIRECTION('',(0.866433118735577,0.,0.499293151122807));
#1042=DIRECTION('',(0.,1.,0.));
#1043=DIRECTION('',(0.,0.,1.));
#1044=DIRECTION('',(0.,0.,-1.));
#1045=DIRECTION('',(0.,0.,1.));
#1046=DIRECTION('',(-1.,0.,0.));
#1047=DIRECTION('',(0.,1.,0.));
#1048=DIRECTION('',(0.,0.,-1.));
#1049=DIRECTION('',(1.,0.,0.));
#1050=DIRECTION('',(0.,0.,-1.));
#1051=DIRECTION('',(1.,0.,0.));
#1052=DIRECTION('',(0.243871317408977,0.969807599756369,0.));
#1053=DIRECTION('',(1.,0.,0.));
#1054=DIRECTION('',(0.,0.,-1.));
#1055=DIRECTION('',(1.,0.,0.));
#1056=DIRECTION('',(-0.797864635833349,-0.602836646933908,0.));
#1057=DIRECTION('',(0.,0.,-1.));
#1058=DIRECTION('',(1.,0.,0.));
#1059=DIRECTION('',(0.,0.,-1.));
#1060=DIRECTION('',(1.,0.,0.));
#1061=DIRECTION('',(0.,0.,1.));
#1062=DIRECTION('',(1.,0.,0.));
#1063=DIRECTION('',(-0.797864635833349,-0.602836646933908,0.));
#1064=DIRECTION('',(0.,0.,-1.));
#1065=DIRECTION('',(1.,0.,0.));
#1066=DIRECTION('',(0.,0.,-1.));
#1067=DIRECTION('',(1.,0.,0.));
#1068=DIRECTION('',(1.,0.,0.));
#1069=DIRECTION('',(0.,-1.,0.));
#1070=DIRECTION('',(0.,0.,-1.));
#1071=DIRECTION('',(1.,0.,0.));
#1072=DIRECTION('',(0.243871317408977,0.969807599756369,0.));
#1073=DIRECTION('',(0.,0.,-1.));
#1074=DIRECTION('',(1.,0.,0.));
#1075=DIRECTION('',(0.,0.,-1.));
#1076=DIRECTION('',(1.,0.,0.));
#1077=DIRECTION('',(0.,1.,0.));
#1078=DIRECTION('',(0.,0.,-1.));
#1079=DIRECTION('',(1.,0.,0.));
#1080=DIRECTION('',(0.,0.,1.));
#1081=DIRECTION('',(1.,0.,0.));
#1082=DIRECTION('',(1.,0.,0.));
#1083=DIRECTION('',(0.,0.,-1.));
#1084=DIRECTION('',(0.,0.,-1.));
#1085=DIRECTION('',(0.,-1.,0.));
#1086=DIRECTION('',(0.,0.,-1.));
#1087=DIRECTION('',(0.,-1.,0.));
#1088=DIRECTION('',(0.,-1.,0.));
#1089=DIRECTION('',(0.,0.,1.));
#1090=DIRECTION('',(0.,-1.,0.));
#1091=DIRECTION('',(0.,0.,-1.));
#1092=DIRECTION('',(0.,1.,0.));
#1093=DIRECTION('',(0.,0.,1.));
#1094=DIRECTION('',(0.,1.,0.));
#1095=DIRECTION('',(0.,0.,1.));
#1096=DIRECTION('',(0.516475338431271,0.,-0.856302063989282));
#1097=DIRECTION('',(0.,1.,0.));
#1098=DIRECTION('',(0.,0.,1.));
#1099=DIRECTION('',(0.,1.,0.));
#1100=DIRECTION('',(0.,0.,1.));
#1101=DIRECTION('',(0.,1.,0.));
#1102=DIRECTION('',(0.,0.,1.));
#1103=DIRECTION('',(-0.93759846513066,0.,0.347719884655207));
#1104=DIRECTION('',(0.,1.,0.));
#1105=DIRECTION('',(0.,0.,1.));
#1106=DIRECTION('',(0.866433118735577,0.,0.499293151122807));
#1107=DIRECTION('',(-1.,0.,0.));
#1108=DIRECTION('',(0.,0.,-1.));
#1109=DIRECTION('',(0.,0.,1.));
#1110=DIRECTION('',(1.,0.,0.));
#1111=DIRECTION('',(-0.866433118735577,0.,0.499293151122807));
#1112=DIRECTION('',(0.,1.,0.));
#1113=DIRECTION('',(0.,0.,1.));
#1114=DIRECTION('',(0.,1.,0.));
#1115=DIRECTION('',(0.,0.,1.));
#1116=DIRECTION('',(0.,0.,-1.));
#1117=DIRECTION('',(-1.,0.,0.));
#1118=DIRECTION('',(0.,0.,-1.));
#1119=DIRECTION('',(0.,0.,-1.));
#1120=DIRECTION('',(1.,0.,0.));
#1121=DIRECTION('',(0.,0.,-1.));
#1122=DIRECTION('',(0.,0.,1.));
#1123=DIRECTION('',(-0.602836646933908,0.797864635833349,0.));
#1124=DIRECTION('',(0.797864635833349,0.602836646933908,0.));
#1125=DIRECTION('',(0.,0.,-1.));
#1126=DIRECTION('',(0.,0.,-1.));
#1127=DIRECTION('',(0.,0.,-1.));
#1128=DIRECTION('',(-1.,0.,0.));
#1129=DIRECTION('',(0.,0.,-1.));
#1130=DIRECTION('',(0.969807599756369,-0.243871317408977,0.));
#1131=DIRECTION('',(-0.243871317408977,-0.969807599756369,0.));
#1132=DIRECTION('',(0.,0.,-1.));
#1133=DIRECTION('',(0.,0.,-1.));
#1134=DIRECTION('',(-0.969807599756369,0.243871317408977,0.));
#1135=DIRECTION('',(-0.243871317408977,-0.969807599756369,0.));
#1136=DIRECTION('',(1.,0.,0.));
#1137=DIRECTION('',(0.,0.,-1.));
#1138=DIRECTION('',(0.,-1.,0.));
#1139=DIRECTION('',(0.,0.,-1.));
#1140=DIRECTION('',(0.856302063989282,0.,0.516475338431271));
#1141=DIRECTION('',(0.516475338431271,0.,-0.856302063989282));
#1142=DIRECTION('',(0.,-1.,0.));
#1143=DIRECTION('',(0.516475338431271,0.,-0.856302063989282));
#1144=DIRECTION('',(0.,1.,0.));
#1145=DIRECTION('',(0.516475338431271,0.,-0.856302063989282));
#1146=DIRECTION('',(0.,-1.,0.));
#1147=DIRECTION('',(0.,0.,1.));
#1148=DIRECTION('',(0.,-1.,0.));
#1149=DIRECTION('',(0.,1.,0.));
#1150=DIRECTION('',(0.,0.,1.));
#1151=DIRECTION('',(0.,-1.,0.));
#1152=DIRECTION('',(0.,1.,0.));
#1153=DIRECTION('',(0.,0.,1.));
#1154=DIRECTION('',(-0.347719884655207,0.,-0.93759846513066));
#1155=DIRECTION('',(-0.93759846513066,0.,0.347719884655207));
#1156=DIRECTION('',(0.,-1.,0.));
#1157=DIRECTION('',(0.,1.,0.));
#1158=DIRECTION('',(0.,-1.,0.));
#1159=DIRECTION('',(0.,0.,1.));
#1160=DIRECTION('',(0.,-1.,0.));
#1161=DIRECTION('',(0.,1.,0.));
#1162=DIRECTION('',(0.,0.,1.));
#1163=DIRECTION('',(0.,-1.,0.));
#1164=DIRECTION('',(0.,1.,0.));
#1165=DIRECTION('',(0.,0.,1.));
#1166=DIRECTION('',(0.,0.,-1.));
#1167=DIRECTION('',(-1.,0.,0.));
#1168=DIRECTION('',(0.,0.,1.));
#1169=DIRECTION('',(-1.,0.,0.));
#1170=DIRECTION('',(0.,0.,1.));
#1171=DIRECTION('',(-1.,0.,0.));
#1172=DIRECTION('',(0.,-1.,0.));
#1173=DIRECTION('',(0.,0.,1.));
#1174=DIRECTION('',(-1.,0.,0.));
#1175=DIRECTION('',(-0.499293151122807,0.,0.866433118735577));
#1176=DIRECTION('',(0.866433118735577,0.,0.499293151122807));
#1177=DIRECTION('',(0.866433118735577,0.,0.499293151122807));
#1178=DIRECTION('',(0.,-1.,0.));
#1179=DIRECTION('',(-0.499293151122807,0.,-0.866433118735577));
#1180=DIRECTION('',(-0.866433118735577,0.,0.499293151122807));
#1181=DIRECTION('',(0.499293151122807,0.,0.866433118735577));
#1182=DIRECTION('',(-0.866433118735577,0.,0.499293151122807));
#1183=DIRECTION('',(-0.866433118735577,0.,0.499293151122807));
#1184=DIRECTION('',(0.,-1.,0.));
#1185=DIRECTION('',(0.866433118735577,0.,-0.499293151122807));
#1186=DIRECTION('',(-0.499293151122807,0.,-0.866433118735577));
#1187=DIRECTION('',(0.866433118735577,0.,-0.499293151122806));
#1188=DIRECTION('',(0.499293151122807,0.,0.866433118735577));
#1189=DIRECTION('',(0.,0.,-1.));
#1190=DIRECTION('',(-1.,0.,0.));
#1191=DIRECTION('',(0.,0.,1.));
#1192=DIRECTION('',(-1.,0.,0.));
#1193=DIRECTION('',(0.,0.,-1.));
#1194=DIRECTION('',(1.,0.,0.));
#1195=DIRECTION('',(-0.866433118735577,0.,-0.499293151122807));
#1196=DIRECTION('',(-0.499293151122807,0.,0.866433118735577));
#1197=DIRECTION('',(0.866433118735577,0.,0.499293151122806));
#1198=DIRECTION('',(-0.499293151122807,0.,0.866433118735577));
#1199=DIRECTION('',(0.,0.,-1.));
#1200=DIRECTION('',(-1.,0.,0.));
#1201=DIRECTION('',(0.,0.,-1.));
#1202=DIRECTION('',(0.,0.,-1.));
#1203=DIRECTION('',(-1.,0.,0.));
#1204=DIRECTION('',(0.,0.,-1.));
#1205=DIRECTION('',(-1.,0.,0.));
#1206=DIRECTION('',(0.,0.,-1.));
#1207=DIRECTION('',(-1.,0.,0.));
#1208=DIRECTION('',(-1.,0.,0.));
#1209=DIRECTION('',(0.,0.,1.));
#1210=DIRECTION('',(0.707106781186548,0.,0.707106781186548));
#1211=DIRECTION('',(-0.707106781186548,0.,0.707106781186548));
#1212=DIRECTION('',(0.,0.,-1.));
#1213=DIRECTION('',(-1.,0.,0.));
#1214=DIRECTION('',(0.,1.,0.));
#1215=DIRECTION('',(0.,0.,-1.));
#1216=DIRECTION('',(0.,1.,0.));
#1217=DIRECTION('',(0.,0.,1.));
#1218=DIRECTION('',(0.,-1.,0.));
#1219=DIRECTION('',(0.,0.,1.));
#1220=DIRECTION('',(0.,1.,0.));
#1221=DIRECTION('',(0.,0.,-1.));
#1222=DIRECTION('',(0.,1.,0.));
#1223=DIRECTION('',(0.,0.,1.));
#1224=DIRECTION('',(0.,-1.,0.));
#1225=DIRECTION('',(0.,0.,1.));
#1226=DIRECTION('',(0.,-1.,0.));
#1227=DIRECTION('',(0.,0.,1.));
#1228=DIRECTION('',(-0.35611376639761,0.,-0.934442606788725));
#1229=DIRECTION('',(0.934442606788725,0.,-0.35611376639761));
#1230=DIRECTION('',(0.,1.,0.));
#1231=DIRECTION('',(0.,0.,1.));
#1232=DIRECTION('',(0.,-1.,0.));
#1233=DIRECTION('',(0.,0.,1.));
#1234=DIRECTION('',(0.,1.,0.));
#1235=DIRECTION('',(0.,0.,1.));
#1236=DIRECTION('',(-0.361398073413314,0.,-0.932411621835091));
#1237=DIRECTION('',(0.932411621835091,0.,-0.361398073413314));
#1238=DIRECTION('',(0.,-1.,0.));
#1239=DIRECTION('',(0.,0.,1.));
#1240=DIRECTION('',(0.,1.,0.));
#1241=DIRECTION('',(0.,0.,1.));
#1242=DIRECTION('',(0.,-1.,0.));
#1243=DIRECTION('',(0.,0.,1.));
#1244=DIRECTION('',(0.677714634581266,0.,0.735325012545053));
#1245=DIRECTION('',(-0.735325012545053,0.,0.677714634581265));
#1246=DIRECTION('',(0.516475338431271,0.,-0.856302063989282));
#1247=DIRECTION('',(-0.856302063989282,0.,-0.516475338431271));
#1248=DIRECTION('',(-0.516475338431244,0.,0.856302063989298));
#1249=DIRECTION('',(-0.856302063989298,0.,-0.516475338431244));
#1250=DIRECTION('',(0.516475338431244,0.,-0.856302063989298));
#1251=DIRECTION('',(0.856302063989298,0.,0.516475338431244));
#1252=DIRECTION('',(0.,-1.,0.));
#1253=DIRECTION('',(0.,0.,1.));
#1254=DIRECTION('',(0.526425141112122,0.,0.850221483382467));
#1255=DIRECTION('',(-0.850221483382467,0.,0.526425141112122));
#1256=DIRECTION('',(0.,-1.,0.));
#1257=DIRECTION('',(0.,0.,1.));
#1258=DIRECTION('',(0.,1.,0.));
#1259=DIRECTION('',(0.,0.,1.));
#1260=DIRECTION('',(0.,-1.,0.));
#1261=DIRECTION('',(0.,0.,1.));
#1262=DIRECTION('',(-0.35611376639761,0.,-0.934442606788725));
#1263=DIRECTION('',(0.934442606788725,0.,-0.35611376639761));
#1264=DIRECTION('',(0.,-1.,0.));
#1265=DIRECTION('',(0.,0.,1.));
#1266=DIRECTION('',(0.,1.,0.));
#1267=DIRECTION('',(0.,0.,1.));
#1268=DIRECTION('',(0.,-1.,0.));
#1269=DIRECTION('',(0.,0.,1.));
#1270=DIRECTION('',(0.,1.,0.));
#1271=DIRECTION('',(0.,0.,1.));
#1272=DIRECTION('',(0.,-1.,0.));
#1273=DIRECTION('',(0.,0.,1.));
#1274=DIRECTION('',(-0.361398073413314,0.,-0.932411621835091));
#1275=DIRECTION('',(0.932411621835091,0.,-0.361398073413314));
#1276=DIRECTION('',(0.,-1.,0.));
#1277=DIRECTION('',(0.,0.,1.));
#1278=DIRECTION('',(0.677714634581306,5.5471374240192E-14,0.735325012545015));
#1279=DIRECTION('',(-0.735325012545015,0.,0.677714634581306));
#1280=DIRECTION('',(0.,-1.,0.));
#1281=DIRECTION('',(0.,0.,1.));
#1282=DIRECTION('',(0.,1.,0.));
#1283=DIRECTION('',(0.,0.,1.));
#1284=DIRECTION('',(0.,-1.,0.));
#1285=DIRECTION('',(0.,0.,1.));
#1286=DIRECTION('',(0.,1.,0.));
#1287=DIRECTION('',(0.,0.,1.));
#1288=DIRECTION('',(0.,-1.,0.));
#1289=DIRECTION('',(0.,0.,1.));
#1290=DIRECTION('',(0.526425141112122,0.,0.850221483382467));
#1291=DIRECTION('',(-0.850221483382467,0.,0.526425141112122));
#1292=DIRECTION('',(0.,-1.,0.));
#1293=DIRECTION('',(0.,0.,1.));
#1294=DIRECTION('',(0.516475338431244,0.,-0.856302063989298));
#1295=DIRECTION('',(0.856302063989298,0.,0.516475338431244));
#1296=DIRECTION('',(0.,-1.,0.));
#1297=DIRECTION('',(0.,0.,1.));
#1298=DIRECTION('',(-0.516475338431244,-6.45976288631843E-14,0.856302063989298));
#1299=DIRECTION('',(-0.856302063989298,0.,-0.516475338431244));
#1300=DIRECTION('',(-0.516475338431271,0.,0.856302063989282));
#1301=DIRECTION('',(0.856302063989282,0.,0.516475338431271));
#1302=DIRECTION('',(0.,-1.,0.));
#1303=DIRECTION('',(0.,0.,-1.));
#1304=DIRECTION('',(0.,0.,1.));
#1305=DIRECTION('',(1.,0.,0.));
#1306=CARTESIAN_POINT('',(0.,0.,0.));
#1307=CARTESIAN_POINT('',(0.069648880973944,0.0698399049759276,0.062902));
#1308=CARTESIAN_POINT('',(0.0715538700909981,0.0698399049759276,0.0505118015099451));
#1309=CARTESIAN_POINT('',(0.0715538700909981,0.0698399049759276,0.0490683259934324));
#1310=CARTESIAN_POINT('',(0.0715538700909978,0.0698399049759276,0.0505118015099452));
#1311=CARTESIAN_POINT('',(0.0684525612823414,0.0698399049759276,0.0524320151944245));
#1312=CARTESIAN_POINT('',(0.0749549796049408,0.0698399049759276,0.0491935485012713));
#1313=CARTESIAN_POINT('',(0.0682961519251427,0.0698399049759276,0.0525288579813263));
#1314=CARTESIAN_POINT('',(0.0681386239656472,0.0698399049759276,0.0524338455907059));
#1315=CARTESIAN_POINT('',(0.0639118457160748,0.0698399049759276,0.059441728968308));
#1316=CARTESIAN_POINT('',(0.066800305935556,0.0698399049759276,0.0546527404849365));
#1317=CARTESIAN_POINT('',(0.0669578338950515,0.0698399049759276,0.0547477528755569));
#1318=CARTESIAN_POINT('',(0.066822561245757,0.0698399049759276,0.0548724273426584));
#1319=CARTESIAN_POINT('',(0.0715538700909981,0.0698399049759276,0.0505118015099451));
#1320=CARTESIAN_POINT('',(0.0775663632000899,0.0698399049759276,0.0482204552560788));
#1321=CARTESIAN_POINT('',(0.0773944602661797,0.0698399049759276,0.0482859670390442));
#1322=CARTESIAN_POINT('',(0.0772131013681667,0.0698399049759276,0.0482551228741872));
#1323=CARTESIAN_POINT('',(0.0762266267563671,0.0698399049759276,0.0486209690769991));
#1324=CARTESIAN_POINT('',(0.0752439001919479,0.0698399049759276,0.0489854252704932));
#1325=CARTESIAN_POINT('',(0.0751265089126168,0.0698399049759276,0.0491270646009463));
#1326=CARTESIAN_POINT('',(0.0749969676532522,0.0698399049759276,0.0531127174386648));
#1327=CARTESIAN_POINT('',(0.0803761282909981,0.0698399049759276,0.0531127174386648));
#1328=CARTESIAN_POINT('',(0.0776827457184681,0.0698399049759276,0.0577734003662066));
#1329=CARTESIAN_POINT('',(0.0806371134242416,0.0698399049759276,0.0560709082413167));
#1330=CARTESIAN_POINT('',(0.0703027891624746,0.0698399049759276,0.0620261945915345));
#1331=CARTESIAN_POINT('',(0.066667594153041,0.0698399049759276,0.0620261945915345));
#1332=CARTESIAN_POINT('',(0.066667594153041,0.0698399049759276,0.0620261945915345));
#1333=CARTESIAN_POINT('',(0.066667594153041,0.0698399049759276,0.0629));
#1334=CARTESIAN_POINT('',(0.066667594153041,0.0698399049759276,0.0381236030198903));
#1335=CARTESIAN_POINT('',(0.06792540025689,0.0698399049759276,0.0381236030198903));
#1336=CARTESIAN_POINT('',(0.0687864576375533,0.0698399049759276,0.0381236030198903));
#1337=CARTESIAN_POINT('',(0.0695701519901335,0.0698399049759276,0.0385752169002415));
#1338=CARTESIAN_POINT('',(0.0776827457184681,0.0698399049759276,0.0432502026536837));
#1339=CARTESIAN_POINT('',(0.0749969676532522,0.0698399049759276,0.0479108855812255));
#1340=CARTESIAN_POINT('',(0.0803761282909981,0.0698399049759276,0.0479108855812255));
#1341=CARTESIAN_POINT('',(0.0803761282909981,0.0698399049759276,0.062902));
#1342=CARTESIAN_POINT('',(0.0646361014168537,0.0593277863411387,0.0629));
#1343=CARTESIAN_POINT('',(0.0579626836924893,0.0641483641755913,0.0629));
#1344=CARTESIAN_POINT('',(0.0579626836924893,0.0620279063411387,0.0629));
#1345=CARTESIAN_POINT('',(0.0579626836924893,0.0643280352403114,0.0629));
#1346=CARTESIAN_POINT('',(0.0615182899632298,0.0620279063411387,0.0629));
#1347=CARTESIAN_POINT('',(0.0650726901617,0.0621205086178088,0.0629));
#1348=CARTESIAN_POINT('',(0.0615465814012801,0.0639189286764177,0.0629));
#1349=CARTESIAN_POINT('',(0.0651403219209483,0.0655780811030536,0.0629));
#1350=CARTESIAN_POINT('',(0.0655810440023203,0.0673307087939034,0.0629));
#1351=CARTESIAN_POINT('',(0.0655882052309658,0.0673591869849339,0.0629));
#1352=CARTESIAN_POINT('',(0.06983040025689,0.0673591869849339,0.0629));
#1353=CARTESIAN_POINT('',(0.0595061631272933,0.0673591869849339,0.0629));
#1354=CARTESIAN_POINT('',(0.0571626097534572,0.0701552547880684,0.0629));
#1355=CARTESIAN_POINT('',(0.0593619506462025,0.0672443894161828,0.0629));
#1356=CARTESIAN_POINT('',(0.0238003014457689,0.0403753387017868,0.0629));
#1357=CARTESIAN_POINT('',(0.0589232469521616,0.0669129213299492,0.0629));
#1358=CARTESIAN_POINT('',(0.0619209434924893,0.0643280352403114,0.0629));
#1359=CARTESIAN_POINT('',(0.0615955003858456,0.0620292883867991,0.0629));
#1360=CARTESIAN_POINT('',(0.0633735003858456,0.0620292883867991,0.0629));
#1361=CARTESIAN_POINT('',(-0.0205080529410013,0.0862673793138637,0.0380355219615054));
#1362=CARTESIAN_POINT('',(0.0238003014457689,0.0403753387017868,0.0380355219615054));
#1363=CARTESIAN_POINT('',(0.0593619506462025,0.0672443894161828,0.0380355219615054));
#1364=CARTESIAN_POINT('',(0.0589232469521616,0.0669129213299492,0.0380355219615054));
#1365=CARTESIAN_POINT('',(0.0571626097534572,0.0701552547880684,0.0380355219615054));
#1366=CARTESIAN_POINT('',(0.0605555098394521,0.0688141855944027,0.0380355219615054));
#1367=CARTESIAN_POINT('',(0.0642366509248685,0.0673591869849339,0.0380355219615054));
#1368=CARTESIAN_POINT('',(0.0642366509248685,0.0713174467849339,0.0380355219615054));
#1369=CARTESIAN_POINT('',(0.0679698397106527,0.0713174467849339,0.0380355219615054));
#1370=CARTESIAN_POINT('',(0.06602040025689,0.0713174467849339,0.0380355219615054));
#1371=CARTESIAN_POINT('',(0.06602040025689,0.0698399049759276,0.0380355219615054));
#1372=CARTESIAN_POINT('',(0.06602040025689,0.0699016854225645,0.0380355219615054));
#1373=CARTESIAN_POINT('',(0.0593665263960506,0.0699016854225645,0.0380355219615054));
#1374=CARTESIAN_POINT('',(0.0658195038341129,0.0682789964382484,0.0380355219615054));
#1375=CARTESIAN_POINT('',(0.0655810440023203,0.0673307087939034,0.0380355219615054));
#1376=CARTESIAN_POINT('',(0.0651403219209483,0.0655780811030536,0.0380355219615054));
#1377=CARTESIAN_POINT('',(0.0615465814012801,0.0639189286764177,0.0380355219615054));
#1378=CARTESIAN_POINT('',(0.0650726901617,0.0621205086178088,0.0380355219615054));
#1379=CARTESIAN_POINT('',(0.0615182899632298,0.0620279063411387,0.0380355219615054));
#1380=CARTESIAN_POINT('',(0.0579626836924893,0.0620279063411387,0.0380355219615054));
#1381=CARTESIAN_POINT('',(0.0579626836924893,0.0641483641755913,0.0380355219615054));
#1382=CARTESIAN_POINT('',(0.0579626836924893,0.0643280352403114,0.0380355219615054));
#1383=CARTESIAN_POINT('',(0.0619209434924893,0.0643280352403114,0.0380355219615054));
#1384=CARTESIAN_POINT('',(0.0615955003858456,0.0620292883867991,0.0380355219615054));
#1385=CARTESIAN_POINT('',(0.0633735003858456,0.0620292883867991,0.0380355219615054));
#1386=CARTESIAN_POINT('',(0.0808973616909981,0.0701976758804307,0.062902));
#1387=CARTESIAN_POINT('',(0.0808973616909981,0.0713174467849339,0.062902));
#1388=CARTESIAN_POINT('',(0.0808973616909981,0.0713174467849339,0.0531127174386648));
#1389=CARTESIAN_POINT('',(0.0808973616909981,0.0713174467849339,0.0479108855812255));
#1390=CARTESIAN_POINT('',(0.0808973616909981,0.0713174467849339,0.0531127174386648));
#1391=CARTESIAN_POINT('',(0.0808973616909981,0.0703611383759276,0.0531127174386648));
#1392=CARTESIAN_POINT('',(0.0808973616909981,0.0703611383759276,0.062902));
#1393=CARTESIAN_POINT('',(0.0808973616909981,0.0703611383759276,0.0479108855812255));
#1394=CARTESIAN_POINT('',(0.0808973616909981,0.0703611383759276,0.0479108855812255));
#1395=CARTESIAN_POINT('',(0.0679698397106527,0.0713174467849339,0.062902));
#1396=CARTESIAN_POINT('',(0.0715538700909981,0.0713174467849339,0.0505118015099451));
#1397=CARTESIAN_POINT('',(0.0715538700909981,0.0713174467849339,0.0490683259934324));
#1398=CARTESIAN_POINT('',(0.0715538700909981,0.0713174467849339,0.0505118015099451));
#1399=CARTESIAN_POINT('',(0.066822561245757,0.0713174467849339,0.0548724273426584));
#1400=CARTESIAN_POINT('',(0.0775663632000899,0.0713174467849339,0.0482204552560788));
#1401=CARTESIAN_POINT('',(0.0669578338950515,0.0713174467849339,0.0547477528755569));
#1402=CARTESIAN_POINT('',(0.066800305935556,0.0713174467849339,0.0546527404849365));
#1403=CARTESIAN_POINT('',(0.0667648649036141,0.0713174467849339,0.0547115007519688));
#1404=CARTESIAN_POINT('',(0.0681386239656472,0.0713174467849339,0.0524338455907059));
#1405=CARTESIAN_POINT('',(0.0682961519251427,0.0713174467849339,0.0525288579813263));
#1406=CARTESIAN_POINT('',(0.0684525612823414,0.0713174467849339,0.0524320151944245));
#1407=CARTESIAN_POINT('',(0.0715538700909978,0.0713174467849339,0.0505118015099452));
#1408=CARTESIAN_POINT('',(0.0749549796049408,0.0713174467849339,0.0491935485012713));
#1409=CARTESIAN_POINT('',(0.0751265089126168,0.0713174467849339,0.0491270646009463));
#1410=CARTESIAN_POINT('',(0.0752439001919479,0.0713174467849339,0.0489854252704932));
#1411=CARTESIAN_POINT('',(0.0643122355696757,0.0713174467849339,0.0530395671050963));
#1412=CARTESIAN_POINT('',(0.0772131013681667,0.0713174467849339,0.0482551228741872));
#1413=CARTESIAN_POINT('',(0.0773944602661797,0.0713174467849339,0.0482859670390442));
#1414=CARTESIAN_POINT('',(0.0791529023140746,0.0713174467849339,0.0434958139012949));
#1415=CARTESIAN_POINT('',(0.06983040025689,0.0713174467849339,0.0381236030198903));
#1416=CARTESIAN_POINT('',(0.0779429939852246,0.0713174467849339,0.0427985887733325));
#1417=CARTESIAN_POINT('',(0.0679698397106527,0.0713174467849339,0.0381236030198903));
#1418=CARTESIAN_POINT('',(0.06602040025689,0.0713174467849339,0.0381236030198903));
#1419=CARTESIAN_POINT('',(0.06602040025689,0.0713174467849339,0.062902));
#1420=CARTESIAN_POINT('',(0.0642366509248685,0.0713174467849339,0.0380355219615054));
#1421=CARTESIAN_POINT('',(0.0642366509248685,0.0713174467849339,0.0589417402));
#1422=CARTESIAN_POINT('',(0.0606208676007216,0.0713174467849339,0.0589417402));
#1423=CARTESIAN_POINT('',(0.076699245494537,0.0713174467849339,0.0589417402));
#1424=CARTESIAN_POINT('',(0.0684328004334366,0.0713174467849339,0.063705384749003));
#1425=CARTESIAN_POINT('',(0.0779429939852246,0.0713174467849339,0.0582250142465578));
#1426=CARTESIAN_POINT('',(0.0749969676532522,0.0713174467849339,0.0531127174386648));
#1427=CARTESIAN_POINT('',(0.0749969676532522,0.0713174467849339,0.0479108855812255));
#1428=CARTESIAN_POINT('',(0.0615182899632298,0.0620279063411387,0.062902));
#1429=CARTESIAN_POINT('',(0.0579626836924893,0.0620279063411387,0.062902));
#1430=CARTESIAN_POINT('',(0.0650726901617,0.0621205086178088,0.0504677609807527));
#1431=CARTESIAN_POINT('',(0.0579626836924893,0.0641483641755913,0.062902));
#1432=CARTESIAN_POINT('',(0.0579626836924893,0.0643280352403114,0.0629));
#1433=CARTESIAN_POINT('',(0.0238003014457689,0.0403753387017868,0.062902));
#1434=CARTESIAN_POINT('',(0.0593619506462025,0.0672443894161828,0.062902));
#1435=CARTESIAN_POINT('',(0.0589232469521616,0.0669129213299492,0.0504677609807527));
#1436=CARTESIAN_POINT('',(0.0571626097534572,0.0701552547880684,0.062902));
#1437=CARTESIAN_POINT('',(0.0605555098394521,0.0688141855944027,0.0626228812854163));
#1438=CARTESIAN_POINT('',(0.0603416077842581,0.0682730141881172,0.0628367833406103));
#1439=CARTESIAN_POINT('',(0.0599806462017881,0.0677568799195666,0.0629));
#1440=CARTESIAN_POINT('',(0.0595061631272933,0.0673591869849339,0.0629));
#1441=CARTESIAN_POINT('',(0.0605555098394521,0.0688141855944027,0.0626228812854163));
#1442=CARTESIAN_POINT('',(0.0605555098394521,0.0688141855944027,0.062902));
#1443=CARTESIAN_POINT('',(0.0655810440023203,0.0673307087939034,0.062902));
#1444=CARTESIAN_POINT('',(0.0651403219209483,0.0655780811030536,0.0504677609807527));
#1445=CARTESIAN_POINT('',(0.0658195038341129,0.0682789964382484,0.062902));
#1446=CARTESIAN_POINT('',(0.0658195038341129,0.0682789964382484,0.0627916455512897));
#1447=CARTESIAN_POINT('',(0.0655882052309658,0.0673591869849339,0.0589417402));
#1448=CARTESIAN_POINT('',(0.06602040025689,0.0698399049759276,0.062902));
#1449=CARTESIAN_POINT('',(0.06602040025689,0.0952399049759276,0.0381236030198903));
#1450=CARTESIAN_POINT('',(0.06602040025689,0.0699016854225645,0.0381236030198903));
#1451=CARTESIAN_POINT('',(0.06602040025689,0.0699016854225645,0.062902));
#1452=CARTESIAN_POINT('',(0.0675702741272077,0.0952399049759276,0.0535542488963269));
#1453=CARTESIAN_POINT('',(0.0668790699153038,0.0952399049759276,0.0547002466802467));
#1454=CARTESIAN_POINT('',(0.0668790699153038,0.069931886512654,0.0547002466802467));
#1455=CARTESIAN_POINT('',(0.0668790699153038,0.0712254652482075,0.0547002466802467));
#1456=CARTESIAN_POINT('',(0.0675702741272077,0.069931886512654,0.0535542488963269));
#1457=CARTESIAN_POINT('',(0.068217387945395,0.069931886512654,0.0524813517860161));
#1458=CARTESIAN_POINT('',(0.068217387945395,0.0698399049759276,0.0524813517860161));
#1459=CARTESIAN_POINT('',(0.068217387945395,0.0712254652482075,0.0524813517860161));
#1460=CARTESIAN_POINT('',(0.0682969193710536,0.0712254652482075,0.052349490845375));
#1461=CARTESIAN_POINT('',(0.0715538700909981,0.0952399049759276,0.0505118015099451));
#1462=CARTESIAN_POINT('',(0.0774804117331348,0.0952399049759276,0.0482532111475615));
#1463=CARTESIAN_POINT('',(0.0774804117331348,0.069931886512654,0.0482532111475615));
#1464=CARTESIAN_POINT('',(0.0774804117331348,0.0712254652482075,0.0482532111475615));
#1465=CARTESIAN_POINT('',(0.0715538700909981,0.069931886512654,0.0505118015099451));
#1466=CARTESIAN_POINT('',(0.0668901975704042,0.069931886512654,0.0548100901091077));
#1467=CARTESIAN_POINT('',(0.0668901975704042,0.0952399049759276,0.0548100901091077));
#1468=CARTESIAN_POINT('',(0.0668901975704042,0.0712254652482075,0.0548100901091077));
#1469=CARTESIAN_POINT('',(0.0715538700909981,0.0712254652482075,0.0505118015099451));
#1470=CARTESIAN_POINT('',(0.0762266267563671,0.0952399049759276,0.0486209690769991));
#1471=CARTESIAN_POINT('',(0.0752439001919479,0.0713174467849339,0.0489854252704932));
#1472=CARTESIAN_POINT('',(0.0751841074678883,0.0713174467849339,0.0490076001351996));
#1473=CARTESIAN_POINT('',(0.0751361466364352,0.0712698544827343,0.0490253869974877));
#1474=CARTESIAN_POINT('',(0.0750945251032758,0.0712254652482075,0.0490408228532912));
#1475=CARTESIAN_POINT('',(0.0750945251032758,0.0712254652482075,0.0490408228532912));
#1476=CARTESIAN_POINT('',(0.0750945251032758,0.0952399049759276,0.0490408228532912));
#1477=CARTESIAN_POINT('',(0.0750945251032758,0.069931886512654,0.0490408228532912));
#1478=CARTESIAN_POINT('',(0.0752439001919479,0.0698399049759276,0.0489854252704932));
#1479=CARTESIAN_POINT('',(0.0751841074678883,0.0698399049759276,0.0490076001351996));
#1480=CARTESIAN_POINT('',(0.0751361466364335,0.0698874972781254,0.0490253869974883));
#1481=CARTESIAN_POINT('',(0.0750945251032758,0.069931886512654,0.0490408228532912));
#1482=CARTESIAN_POINT('',(0.0772131013681667,0.0698399049759276,0.0482551228741872));
#1483=CARTESIAN_POINT('',(0.0772728940922263,0.0698399049759276,0.0482329480094808));
#1484=CARTESIAN_POINT('',(0.0773208549236793,0.0698874972781273,0.0482151611471928));
#1485=CARTESIAN_POINT('',(0.0773624764568388,0.069931886512654,0.0481997252913892));
#1486=CARTESIAN_POINT('',(0.0773624764568388,0.069931886512654,0.0481997252913892));
#1487=CARTESIAN_POINT('',(0.0773624764568388,0.0698399049759276,0.0481997252913892));
#1488=CARTESIAN_POINT('',(0.0773624764568388,0.0712254652482075,0.0481997252913892));
#1489=CARTESIAN_POINT('',(0.0772131013681667,0.0713174467849339,0.0482551228741872));
#1490=CARTESIAN_POINT('',(0.0772728940922263,0.0713174467849339,0.0482329480094808));
#1491=CARTESIAN_POINT('',(0.0773208549236776,0.0712698544827324,0.0482151611471934));
#1492=CARTESIAN_POINT('',(0.0773624764568388,0.0712254652482075,0.0481997252913892));
#1493=CARTESIAN_POINT('',(0.0715538700909978,0.0952399049759276,0.0505118015099452));
#1494=CARTESIAN_POINT('',(0.0683743566037421,0.0952399049759276,0.0524804365878754));
#1495=CARTESIAN_POINT('',(0.0683743566037421,0.069931886512654,0.0524804365878754));
#1496=CARTESIAN_POINT('',(0.0683743566037421,0.0712254652482075,0.0524804365878754));
#1497=CARTESIAN_POINT('',(0.0715538700909978,0.069931886512654,0.0505118015099452));
#1498=CARTESIAN_POINT('',(0.0750407442587788,0.069931886512654,0.0491603065511088));
#1499=CARTESIAN_POINT('',(0.0750407442587788,0.0952399049759276,0.0491603065511088));
#1500=CARTESIAN_POINT('',(0.0750407442587788,0.0712254652482075,0.0491603065511088));
#1501=CARTESIAN_POINT('',(0.0715538700909978,0.0712254652482075,0.0505118015099452));
#1502=CARTESIAN_POINT('',(0.06792540025689,0.0952399049759276,0.0381236030198903));
#1503=CARTESIAN_POINT('',(0.066667594153041,0.0691545862697088,0.0381236030198903));
#1504=CARTESIAN_POINT('',(0.0659858354631689,0.0692243488519239,0.0381236030198903));
#1505=CARTESIAN_POINT('',(0.0593665263960506,0.0699016854225645,0.0381236030198903));
#1506=CARTESIAN_POINT('',(0.06983040025689,0.0952399049759276,0.0381236030198903));
#1507=CARTESIAN_POINT('',(0.06983040025689,0.0703611383759276,0.0381236030198903));
#1508=CARTESIAN_POINT('',(0.0687864576375533,0.0703611383759276,0.0381236030198903));
#1509=CARTESIAN_POINT('',(0.075363880973944,0.0952399049759276,0.0413123419590564));
#1510=CARTESIAN_POINT('',(0.0808973616909981,0.0703611383759276,0.0445010808982224));
#1511=CARTESIAN_POINT('',(0.0779429939852246,0.0703611383759276,0.0427985887733325));
#1512=CARTESIAN_POINT('',(0.0779429939852246,0.0713174467849339,0.0427985887733325));
#1513=CARTESIAN_POINT('',(0.075363880973944,0.0952399049759276,0.0597112610608339));
#1514=CARTESIAN_POINT('',(0.076699245494537,0.0673591869849339,0.0589417402));
#1515=CARTESIAN_POINT('',(0.07222221933784,0.0703611383759276,0.0615216837052743));
#1516=CARTESIAN_POINT('',(0.06983040025689,0.0703611383759276,0.0629));
#1517=CARTESIAN_POINT('',(0.0779429939852246,0.0703611383759276,0.0582250142465578));
#1518=CARTESIAN_POINT('',(0.0779429939852246,0.0703611383759276,0.0582250142465578));
#1519=CARTESIAN_POINT('',(0.0751036327071876,0.0703611383759276,0.0592596471804828));
#1520=CARTESIAN_POINT('',(0.0703027891624746,0.0698399049759276,0.0620261945915345));
#1521=CARTESIAN_POINT('',(0.0706550674920977,0.0698399049759276,0.0620261945915345));
#1522=CARTESIAN_POINT('',(0.0713379048549879,0.0699843324259319,0.0619120807799552));
#1523=CARTESIAN_POINT('',(0.0719431241865842,0.070222915668255,0.0616825158509072));
#1524=CARTESIAN_POINT('',(0.07222221933784,0.0703611383759276,0.0615216837052743));
#1525=CARTESIAN_POINT('',(0.0776827457184681,0.0703611383759276,0.0577734003662066));
#1526=CARTESIAN_POINT('',(0.0803761282909981,0.0703611383759276,0.062902));
#1527=CARTESIAN_POINT('',(0.0803761282909981,0.0703611383759276,0.0531127174386648));
#1528=CARTESIAN_POINT('',(0.0803761282909981,0.0703611383759276,0.0479108855812255));
#1529=CARTESIAN_POINT('',(0.0751036327071876,0.0703611383759276,0.0417639558394075));
#1530=CARTESIAN_POINT('',(0.0776827457184681,0.0703611383759276,0.0432502026536837));
#1531=CARTESIAN_POINT('',(0.0593665263960506,0.0699016854225645,0.062902));
#1532=CARTESIAN_POINT('',(0.0659858354631689,0.0692243488519239,0.062902));
#1533=CARTESIAN_POINT('',(0.0659858354631689,0.0692243488519239,0.0624330138722036));
#1534=CARTESIAN_POINT('',(0.0658195038341129,0.0682789964382484,0.0627916455512897));
#1535=CARTESIAN_POINT('',(0.0659015368261054,0.0686052185619091,0.0627137054031967));
#1536=CARTESIAN_POINT('',(0.0659548001582682,0.068921054619729,0.0625950443772516));
#1537=CARTESIAN_POINT('',(0.0659858354631689,0.0692243488519239,0.0624330138722036));
#1538=CARTESIAN_POINT('',(0.066667594153041,0.0691545862697088,0.062902));
#1539=CARTESIAN_POINT('',(0.0659858354631689,0.0692243488519239,0.0624330138722036));
#1540=CARTESIAN_POINT('',(0.066002436479005,0.0693865831965771,0.0623463425477605));
#1541=CARTESIAN_POINT('',(0.0661408626765963,0.0696819217878443,0.0621566435733597));
#1542=CARTESIAN_POINT('',(0.0664820466567777,0.0698399049759276,0.0620261945915345));
#1543=CARTESIAN_POINT('',(0.066667594153041,0.0698399049759276,0.0620261945915345));
#1544=CARTESIAN_POINT('',(0.0615465814012801,0.0639189286764177,0.062902));
#1545=CARTESIAN_POINT('',(0.0619209434924893,0.0643280352403114,0.062902));
#1546=CARTESIAN_POINT('',(0.0646361014168537,0.0673591869849339,0.0589417402));
#1547=CARTESIAN_POINT('',(0.0642366509248685,0.0673591869849339,0.0589417402));
#1548=CARTESIAN_POINT('',(0.0642366509248685,0.0673591869849339,0.062902));
#1549=CARTESIAN_POINT('',(0.0749969676532522,0.0952399049759276,0.0531127174386648));
#1550=CARTESIAN_POINT('',(0.0749969676532522,0.0703611383759276,0.0531127174386648));
#1551=CARTESIAN_POINT('',(0.0749969676532522,0.0703611383759276,0.0531127174386648));
#1552=CARTESIAN_POINT('',(0.0749969676532522,0.0701976758804307,0.0479108855812255));
#1553=CARTESIAN_POINT('',(0.0749969676532522,0.0703611383759276,0.0479108855812255));
#1554=CARTESIAN_POINT('',(0.0749969676532522,0.0703611383759276,0.0479108855812255));
#1555=CARTESIAN_POINT('',(0.0773944602661797,0.069931886512654,0.0482859670390442));
#1556=CARTESIAN_POINT('',(0.0775663632000899,0.069931886512654,0.0482204552560788));
#1557=CARTESIAN_POINT('',(0.0773944602661797,0.069931886512654,0.0482859670390442));
#1558=CARTESIAN_POINT('',(0.0751265089126168,0.069931886512654,0.0491270646009463));
#1559=CARTESIAN_POINT('',(0.0751265089126168,0.069931886512654,0.0491270646009463));
#1560=CARTESIAN_POINT('',(0.0749549796049408,0.069931886512654,0.0491935485012713));
#1561=CARTESIAN_POINT('',(0.0773944602661797,0.0952399049759276,0.0482859670390442));
#1562=CARTESIAN_POINT('',(0.0773944602661797,0.0712254652482075,0.0482859670390442));
#1563=CARTESIAN_POINT('',(0.0715538700909981,0.069931886512654,0.0505118015099451));
#1564=CARTESIAN_POINT('',(0.066822561245757,0.069931886512654,0.0548724273426584));
#1565=CARTESIAN_POINT('',(0.0639118457160748,0.069931886512654,0.059441728968308));
#1566=CARTESIAN_POINT('',(0.0681386239656472,0.069931886512654,0.0524338455907059));
#1567=CARTESIAN_POINT('',(0.066800305935556,0.069931886512654,0.0546527404849365));
#1568=CARTESIAN_POINT('',(0.0715538700909978,0.069931886512654,0.0505118015099452));
#1569=CARTESIAN_POINT('',(0.0684525612823414,0.069931886512654,0.0524320151944245));
#1570=CARTESIAN_POINT('',(0.0751265089126168,0.0952399049759276,0.0491270646009463));
#1571=CARTESIAN_POINT('',(0.0751265089126168,0.0712254652482075,0.0491270646009463));
#1572=CARTESIAN_POINT('',(0.0773944602661797,0.0712254652482075,0.0482859670390442));
#1573=CARTESIAN_POINT('',(0.0775663632000899,0.0712254652482075,0.0482204552560788));
#1574=CARTESIAN_POINT('',(0.0669578338950515,0.069931886512654,0.0547477528755569));
#1575=CARTESIAN_POINT('',(0.0669578338950515,0.069931886512654,0.0547477528755569));
#1576=CARTESIAN_POINT('',(0.0682961519251427,0.069931886512654,0.0525288579813263));
#1577=CARTESIAN_POINT('',(0.0682961519251427,0.069931886512654,0.0525288579813263));
#1578=CARTESIAN_POINT('',(0.0751265089126168,0.0712254652482075,0.0491270646009463));
#1579=CARTESIAN_POINT('',(0.0749549796049408,0.0712254652482075,0.0491935485012713));
#1580=CARTESIAN_POINT('',(0.0715538700909981,0.0712254652482075,0.0505118015099451));
#1581=CARTESIAN_POINT('',(0.066822561245757,0.0712254652482075,0.0548724273426584));
#1582=CARTESIAN_POINT('',(0.0669578338950515,0.0952399049759276,0.0547477528755569));
#1583=CARTESIAN_POINT('',(0.0669578338950515,0.0712254652482075,0.0547477528755569));
#1584=CARTESIAN_POINT('',(0.0682961519251427,0.0952399049759276,0.0525288579813263));
#1585=CARTESIAN_POINT('',(0.0682961519251427,0.0712254652482075,0.0525288579813263));
#1586=CARTESIAN_POINT('',(0.0715538700909978,0.0712254652482075,0.0505118015099452));
#1587=CARTESIAN_POINT('',(0.0684525612823414,0.0712254652482075,0.0524320151944245));
#1588=CARTESIAN_POINT('',(0.0669578338950515,0.0712254652482075,0.0547477528755569));
#1589=CARTESIAN_POINT('',(0.066800305935556,0.0712254652482075,0.0546527404849365));
#1590=CARTESIAN_POINT('',(0.0682961519251427,0.0712254652482075,0.0525288579813263));
#1591=CARTESIAN_POINT('',(0.0681386239656472,0.0712254652482075,0.0524338455907059));
#1592=CARTESIAN_POINT('',(0.06749151014746,0.0712254652482075,0.0535067427010167));
#1593=CARTESIAN_POINT('',(0.0715538700909981,0.373710988800084,0.0505118015099451));
#1594=CARTESIAN_POINT('',(0.0615955003858456,0.0620292883867991,0.0380335219615054));
#1595=MECHANICAL_DESIGN_GEOMETRIC_PRESENTATION_REPRESENTATION('',(#886),
#1596);
#1596=(
GEOMETRIC_REPRESENTATION_CONTEXT(3)
GLOBAL_UNCERTAINTY_ASSIGNED_CONTEXT((#1597))
GLOBAL_UNIT_ASSIGNED_CONTEXT((#1600,#1599,#1598))
REPRESENTATION_CONTEXT('Part 7','TOP_LEVEL_ASSEMBLY_PART')
);
#1597=UNCERTAINTY_MEASURE_WITH_UNIT(LENGTH_MEASURE(2.E-5),#1600,
'DISTANCE_ACCURACY_VALUE','Maximum Tolerance applied to model');
#1598=(
NAMED_UNIT(*)
SI_UNIT($,.STERADIAN.)
SOLID_ANGLE_UNIT()
);
#1599=(
NAMED_UNIT(*)
PLANE_ANGLE_UNIT()
SI_UNIT($,.RADIAN.)
);
#1600=(
LENGTH_UNIT()
NAMED_UNIT(*)
SI_UNIT($,.METRE.)
);
#1601=PRODUCT_DEFINITION_SHAPE('','',#1602);
#1602=PRODUCT_DEFINITION('','',#1604,#1603);
#1603=PRODUCT_DEFINITION_CONTEXT('',#1610,'design');
#1604=PRODUCT_DEFINITION_FORMATION_WITH_SPECIFIED_SOURCE('','',#1606,
 .NOT_KNOWN.);
#1605=PRODUCT_RELATED_PRODUCT_CATEGORY('','',(#1606));
#1606=PRODUCT('Part 7','Part 7','Part 7',(#1608));
#1607=PRODUCT_CATEGORY('','');
#1608=PRODUCT_CONTEXT('',#1610,'mechanical');
#1609=APPLICATION_PROTOCOL_DEFINITION('international standard',
'ap242_managed_model_based_3d_engineering',2020,#1610);
#1610=APPLICATION_CONTEXT('managed model based 3d engineering');
ENDSEC;
END-ISO-10303-21;
