ISO-10303-21;
HEADER;
/*Generated by software containing ST-Developer
 * from STEP Tools, Inc. (www.steptools.com) 
 */
/*OPTION: using custom renumber hook */
/*description */
/*implementation_level */
FILE_DESCRIPTION(('STEP AP242 Edition 2','STEP AP242 Edition 2''CAx-IF Rec.Pracs.---Representation and Presentation of Product Manufa
cturing Information (PMI)---4.0---2014-10-13','STEP AP242 Edition 2''CAx-IF Rec.Pracs.---Representation and Presentation of Product Manufa
cturing Information (PMI)---4.0---2014-10-13''CAx-IF Rec.Pracs.---3D Tessellated Geometry---0.4---2014-09-14','STEP AP242 Edition 2''CAx-IF Rec.Pracs.---Representation and Presentation of Product Manufa
cturing Information (PMI)---4.0---2014-10-13''CAx-IF Rec.Pracs.---3D Tessellated Geometry---0.4---2014-09-14''2;1','STEP AP242 Edition 2''CAx-IF Rec.Pracs.---Representation and Presentation of Product Manufa
cturing Information (PMI)---4.0---2014-10-13''CAx-IF Rec.Pracs.---3D Tessellated Geometry---0.4---2014-09-14''2;1''CAx-IF Rec.Pracs.---User Defined Attributes---1.5---2016-08-15'),'2;1');
/*name */
/*time_stamp */
/*author */
/*organization */
/*preprocessor_version */
/*originating_system */
/*authorisation */
FILE_NAME('/vol/tmp/translate-15921858480071587334/xt30_male_vertikal_mount - XT30_Rahmen_1-Fach.step','2026-03-10T17:29:27',(''),(''),'ST-DEVELOPER v20','ONSHAPE BY PTC INC, 1.211','  ');
FILE_SCHEMA(('AP242_MANAGED_MODEL_BASED_3D_ENGINEERING_MIM_LF { 1 0 10303 442 3 1 4 }'));
ENDSEC;
DATA;
#10=SHAPE_REPRESENTATION_RELATIONSHIP('','',#755,#11);
#11=ADVANCED_BREP_SHAPE_REPRESENTATION('',(#753),#1259);
#12=CONICAL_SURFACE('',#825,0.001375,0.785398163397448);
#13=CONICAL_SURFACE('',#828,0.001375,0.785398163397448);
#14=CYLINDRICAL_SURFACE('',#777,0.006);
#15=CYLINDRICAL_SURFACE('',#779,0.006);
#16=CYLINDRICAL_SURFACE('',#787,0.0015);
#17=CYLINDRICAL_SURFACE('',#790,0.0015);
#18=CYLINDRICAL_SURFACE('',#792,0.0015);
#19=CYLINDRICAL_SURFACE('',#795,0.0015);
#20=CYLINDRICAL_SURFACE('',#807,0.0005);
#21=CYLINDRICAL_SURFACE('',#810,0.0005);
#22=CYLINDRICAL_SURFACE('',#812,0.0005);
#23=CYLINDRICAL_SURFACE('',#815,0.0005);
#24=CYLINDRICAL_SURFACE('',#817,0.0005);
#25=CYLINDRICAL_SURFACE('',#822,0.0005);
#26=CYLINDRICAL_SURFACE('',#823,0.00075);
#27=CYLINDRICAL_SURFACE('',#826,0.00075);
#28=CYLINDRICAL_SURFACE('',#829,0.0006);
#29=CYLINDRICAL_SURFACE('',#830,0.0006);
#30=CIRCLE('',#758,0.0005);
#31=CIRCLE('',#759,0.0005);
#32=CIRCLE('',#760,0.0005);
#33=CIRCLE('',#761,0.0005);
#34=CIRCLE('',#762,0.0005);
#35=CIRCLE('',#763,0.0005);
#36=CIRCLE('',#764,0.002);
#37=CIRCLE('',#765,0.002);
#38=CIRCLE('',#766,0.006);
#39=CIRCLE('',#767,0.006);
#40=CIRCLE('',#769,0.0015);
#41=CIRCLE('',#770,0.0015);
#42=CIRCLE('',#771,0.0015);
#43=CIRCLE('',#772,0.0015);
#44=CIRCLE('',#773,0.00075);
#45=CIRCLE('',#774,0.00075);
#46=CIRCLE('',#775,0.006);
#47=CIRCLE('',#776,0.006);
#48=CIRCLE('',#783,0.0015);
#49=CIRCLE('',#784,0.0015);
#50=CIRCLE('',#785,0.0015);
#51=CIRCLE('',#786,0.0015);
#52=CIRCLE('',#789,0.0006);
#53=CIRCLE('',#794,0.0006);
#54=CIRCLE('',#798,0.0006);
#55=CIRCLE('',#803,0.0006);
#56=CIRCLE('',#808,0.0005);
#57=CIRCLE('',#811,0.0005);
#58=CIRCLE('',#813,0.0005);
#59=CIRCLE('',#816,0.0005);
#60=CIRCLE('',#818,0.0005);
#61=CIRCLE('',#821,0.0005);
#62=CIRCLE('',#824,0.00075);
#63=CIRCLE('',#827,0.00075);
#64=ORIENTED_EDGE('',*,*,#264,.T.);
#65=ORIENTED_EDGE('',*,*,#265,.F.);
#66=ORIENTED_EDGE('',*,*,#266,.T.);
#67=ORIENTED_EDGE('',*,*,#267,.F.);
#68=ORIENTED_EDGE('',*,*,#268,.T.);
#69=ORIENTED_EDGE('',*,*,#269,.F.);
#70=ORIENTED_EDGE('',*,*,#270,.T.);
#71=ORIENTED_EDGE('',*,*,#271,.F.);
#72=ORIENTED_EDGE('',*,*,#272,.T.);
#73=ORIENTED_EDGE('',*,*,#273,.F.);
#74=ORIENTED_EDGE('',*,*,#274,.T.);
#75=ORIENTED_EDGE('',*,*,#275,.F.);
#76=ORIENTED_EDGE('',*,*,#276,.T.);
#77=ORIENTED_EDGE('',*,*,#277,.T.);
#78=ORIENTED_EDGE('',*,*,#278,.F.);
#79=ORIENTED_EDGE('',*,*,#279,.F.);
#80=ORIENTED_EDGE('',*,*,#280,.F.);
#81=ORIENTED_EDGE('',*,*,#281,.F.);
#82=ORIENTED_EDGE('',*,*,#282,.T.);
#83=ORIENTED_EDGE('',*,*,#283,.T.);
#84=ORIENTED_EDGE('',*,*,#284,.T.);
#85=ORIENTED_EDGE('',*,*,#285,.T.);
#86=ORIENTED_EDGE('',*,*,#286,.T.);
#87=ORIENTED_EDGE('',*,*,#287,.T.);
#88=ORIENTED_EDGE('',*,*,#288,.T.);
#89=ORIENTED_EDGE('',*,*,#289,.T.);
#90=ORIENTED_EDGE('',*,*,#290,.T.);
#91=ORIENTED_EDGE('',*,*,#291,.T.);
#92=ORIENTED_EDGE('',*,*,#292,.T.);
#93=ORIENTED_EDGE('',*,*,#293,.T.);
#94=ORIENTED_EDGE('',*,*,#294,.T.);
#95=ORIENTED_EDGE('',*,*,#295,.T.);
#96=ORIENTED_EDGE('',*,*,#278,.T.);
#97=ORIENTED_EDGE('',*,*,#296,.T.);
#98=ORIENTED_EDGE('',*,*,#292,.F.);
#99=ORIENTED_EDGE('',*,*,#297,.F.);
#100=ORIENTED_EDGE('',*,*,#281,.T.);
#101=ORIENTED_EDGE('',*,*,#298,.T.);
#102=ORIENTED_EDGE('',*,*,#293,.F.);
#103=ORIENTED_EDGE('',*,*,#296,.F.);
#104=ORIENTED_EDGE('',*,*,#280,.T.);
#105=ORIENTED_EDGE('',*,*,#299,.T.);
#106=ORIENTED_EDGE('',*,*,#294,.F.);
#107=ORIENTED_EDGE('',*,*,#298,.F.);
#108=ORIENTED_EDGE('',*,*,#279,.T.);
#109=ORIENTED_EDGE('',*,*,#297,.T.);
#110=ORIENTED_EDGE('',*,*,#295,.F.);
#111=ORIENTED_EDGE('',*,*,#299,.F.);
#112=ORIENTED_EDGE('',*,*,#300,.T.);
#113=ORIENTED_EDGE('',*,*,#301,.T.);
#114=ORIENTED_EDGE('',*,*,#302,.F.);
#115=ORIENTED_EDGE('',*,*,#303,.F.);
#116=ORIENTED_EDGE('',*,*,#304,.T.);
#117=ORIENTED_EDGE('',*,*,#302,.T.);
#118=ORIENTED_EDGE('',*,*,#305,.T.);
#119=ORIENTED_EDGE('',*,*,#306,.F.);
#120=ORIENTED_EDGE('',*,*,#307,.T.);
#121=ORIENTED_EDGE('',*,*,#308,.F.);
#122=ORIENTED_EDGE('',*,*,#309,.T.);
#123=ORIENTED_EDGE('',*,*,#310,.T.);
#124=ORIENTED_EDGE('',*,*,#311,.T.);
#125=ORIENTED_EDGE('',*,*,#312,.T.);
#126=ORIENTED_EDGE('',*,*,#313,.T.);
#127=ORIENTED_EDGE('',*,*,#314,.T.);
#128=ORIENTED_EDGE('',*,*,#315,.T.);
#129=ORIENTED_EDGE('',*,*,#316,.T.);
#130=ORIENTED_EDGE('',*,*,#289,.F.);
#131=ORIENTED_EDGE('',*,*,#317,.T.);
#132=ORIENTED_EDGE('',*,*,#309,.F.);
#133=ORIENTED_EDGE('',*,*,#318,.F.);
#134=ORIENTED_EDGE('',*,*,#319,.T.);
#135=ORIENTED_EDGE('',*,*,#288,.F.);
#136=ORIENTED_EDGE('',*,*,#320,.T.);
#137=ORIENTED_EDGE('',*,*,#310,.F.);
#138=ORIENTED_EDGE('',*,*,#317,.F.);
#139=ORIENTED_EDGE('',*,*,#287,.F.);
#140=ORIENTED_EDGE('',*,*,#321,.T.);
#141=ORIENTED_EDGE('',*,*,#311,.F.);
#142=ORIENTED_EDGE('',*,*,#320,.F.);
#143=ORIENTED_EDGE('',*,*,#286,.F.);
#144=ORIENTED_EDGE('',*,*,#322,.T.);
#145=ORIENTED_EDGE('',*,*,#312,.F.);
#146=ORIENTED_EDGE('',*,*,#321,.F.);
#147=ORIENTED_EDGE('',*,*,#285,.F.);
#148=ORIENTED_EDGE('',*,*,#323,.T.);
#149=ORIENTED_EDGE('',*,*,#313,.F.);
#150=ORIENTED_EDGE('',*,*,#322,.F.);
#151=ORIENTED_EDGE('',*,*,#324,.T.);
#152=ORIENTED_EDGE('',*,*,#284,.F.);
#153=ORIENTED_EDGE('',*,*,#325,.T.);
#154=ORIENTED_EDGE('',*,*,#314,.F.);
#155=ORIENTED_EDGE('',*,*,#323,.F.);
#156=ORIENTED_EDGE('',*,*,#283,.F.);
#157=ORIENTED_EDGE('',*,*,#326,.T.);
#158=ORIENTED_EDGE('',*,*,#315,.F.);
#159=ORIENTED_EDGE('',*,*,#325,.F.);
#160=ORIENTED_EDGE('',*,*,#282,.F.);
#161=ORIENTED_EDGE('',*,*,#318,.T.);
#162=ORIENTED_EDGE('',*,*,#316,.F.);
#163=ORIENTED_EDGE('',*,*,#326,.F.);
#164=ORIENTED_EDGE('',*,*,#327,.T.);
#165=ORIENTED_EDGE('',*,*,#328,.T.);
#166=ORIENTED_EDGE('',*,*,#303,.T.);
#167=ORIENTED_EDGE('',*,*,#304,.F.);
#168=ORIENTED_EDGE('',*,*,#329,.F.);
#169=ORIENTED_EDGE('',*,*,#330,.T.);
#170=ORIENTED_EDGE('',*,*,#329,.T.);
#171=ORIENTED_EDGE('',*,*,#308,.T.);
#172=ORIENTED_EDGE('',*,*,#331,.T.);
#173=ORIENTED_EDGE('',*,*,#332,.T.);
#174=ORIENTED_EDGE('',*,*,#331,.F.);
#175=ORIENTED_EDGE('',*,*,#307,.F.);
#176=ORIENTED_EDGE('',*,*,#333,.F.);
#177=ORIENTED_EDGE('',*,*,#334,.T.);
#178=ORIENTED_EDGE('',*,*,#333,.T.);
#179=ORIENTED_EDGE('',*,*,#306,.T.);
#180=ORIENTED_EDGE('',*,*,#335,.T.);
#181=ORIENTED_EDGE('',*,*,#336,.T.);
#182=ORIENTED_EDGE('',*,*,#337,.T.);
#183=ORIENTED_EDGE('',*,*,#335,.F.);
#184=ORIENTED_EDGE('',*,*,#305,.F.);
#185=ORIENTED_EDGE('',*,*,#301,.F.);
#186=ORIENTED_EDGE('',*,*,#338,.F.);
#187=ORIENTED_EDGE('',*,*,#266,.F.);
#188=ORIENTED_EDGE('',*,*,#339,.F.);
#189=ORIENTED_EDGE('',*,*,#340,.T.);
#190=ORIENTED_EDGE('',*,*,#341,.F.);
#191=ORIENTED_EDGE('',*,*,#270,.F.);
#192=ORIENTED_EDGE('',*,*,#342,.F.);
#193=ORIENTED_EDGE('',*,*,#343,.T.);
#194=ORIENTED_EDGE('',*,*,#344,.F.);
#195=ORIENTED_EDGE('',*,*,#345,.T.);
#196=ORIENTED_EDGE('',*,*,#346,.F.);
#197=ORIENTED_EDGE('',*,*,#274,.F.);
#198=ORIENTED_EDGE('',*,*,#347,.F.);
#199=ORIENTED_EDGE('',*,*,#348,.T.);
#200=ORIENTED_EDGE('',*,*,#275,.T.);
#201=ORIENTED_EDGE('',*,*,#346,.T.);
#202=ORIENTED_EDGE('',*,*,#349,.F.);
#203=ORIENTED_EDGE('',*,*,#264,.F.);
#204=ORIENTED_EDGE('',*,*,#348,.F.);
#205=ORIENTED_EDGE('',*,*,#350,.T.);
#206=ORIENTED_EDGE('',*,*,#351,.F.);
#207=ORIENTED_EDGE('',*,*,#339,.T.);
#208=ORIENTED_EDGE('',*,*,#265,.T.);
#209=ORIENTED_EDGE('',*,*,#349,.T.);
#210=ORIENTED_EDGE('',*,*,#352,.F.);
#211=ORIENTED_EDGE('',*,*,#353,.T.);
#212=ORIENTED_EDGE('',*,*,#267,.T.);
#213=ORIENTED_EDGE('',*,*,#338,.T.);
#214=ORIENTED_EDGE('',*,*,#354,.F.);
#215=ORIENTED_EDGE('',*,*,#268,.F.);
#216=ORIENTED_EDGE('',*,*,#353,.F.);
#217=ORIENTED_EDGE('',*,*,#355,.T.);
#218=ORIENTED_EDGE('',*,*,#356,.F.);
#219=ORIENTED_EDGE('',*,*,#342,.T.);
#220=ORIENTED_EDGE('',*,*,#269,.T.);
#221=ORIENTED_EDGE('',*,*,#354,.T.);
#222=ORIENTED_EDGE('',*,*,#357,.F.);
#223=ORIENTED_EDGE('',*,*,#358,.T.);
#224=ORIENTED_EDGE('',*,*,#271,.T.);
#225=ORIENTED_EDGE('',*,*,#341,.T.);
#226=ORIENTED_EDGE('',*,*,#359,.F.);
#227=ORIENTED_EDGE('',*,*,#272,.F.);
#228=ORIENTED_EDGE('',*,*,#358,.F.);
#229=ORIENTED_EDGE('',*,*,#360,.T.);
#230=ORIENTED_EDGE('',*,*,#332,.F.);
#231=ORIENTED_EDGE('',*,*,#334,.F.);
#232=ORIENTED_EDGE('',*,*,#337,.F.);
#233=ORIENTED_EDGE('',*,*,#300,.F.);
#234=ORIENTED_EDGE('',*,*,#328,.F.);
#235=ORIENTED_EDGE('',*,*,#330,.F.);
#236=ORIENTED_EDGE('',*,*,#361,.T.);
#237=ORIENTED_EDGE('',*,*,#360,.F.);
#238=ORIENTED_EDGE('',*,*,#357,.T.);
#239=ORIENTED_EDGE('',*,*,#343,.F.);
#240=ORIENTED_EDGE('',*,*,#356,.T.);
#241=ORIENTED_EDGE('',*,*,#355,.F.);
#242=ORIENTED_EDGE('',*,*,#352,.T.);
#243=ORIENTED_EDGE('',*,*,#340,.F.);
#244=ORIENTED_EDGE('',*,*,#351,.T.);
#245=ORIENTED_EDGE('',*,*,#350,.F.);
#246=ORIENTED_EDGE('',*,*,#347,.T.);
#247=ORIENTED_EDGE('',*,*,#345,.F.);
#248=ORIENTED_EDGE('',*,*,#361,.F.);
#249=ORIENTED_EDGE('',*,*,#344,.T.);
#250=ORIENTED_EDGE('',*,*,#273,.T.);
#251=ORIENTED_EDGE('',*,*,#359,.T.);
#252=ORIENTED_EDGE('',*,*,#290,.F.);
#253=ORIENTED_EDGE('',*,*,#362,.F.);
#254=ORIENTED_EDGE('',*,*,#362,.T.);
#255=ORIENTED_EDGE('',*,*,#276,.F.);
#256=ORIENTED_EDGE('',*,*,#291,.F.);
#257=ORIENTED_EDGE('',*,*,#363,.F.);
#258=ORIENTED_EDGE('',*,*,#363,.T.);
#259=ORIENTED_EDGE('',*,*,#277,.F.);
#260=ORIENTED_EDGE('',*,*,#319,.F.);
#261=ORIENTED_EDGE('',*,*,#336,.F.);
#262=ORIENTED_EDGE('',*,*,#327,.F.);
#263=ORIENTED_EDGE('',*,*,#324,.F.);
#264=EDGE_CURVE('',#364,#365,#434,.T.);
#265=EDGE_CURVE('',#366,#365,#30,.T.);
#266=EDGE_CURVE('',#366,#367,#435,.T.);
#267=EDGE_CURVE('',#368,#367,#31,.T.);
#268=EDGE_CURVE('',#368,#369,#436,.T.);
#269=EDGE_CURVE('',#370,#369,#32,.T.);
#270=EDGE_CURVE('',#370,#371,#437,.T.);
#271=EDGE_CURVE('',#372,#371,#33,.T.);
#272=EDGE_CURVE('',#372,#373,#438,.T.);
#273=EDGE_CURVE('',#374,#373,#34,.T.);
#274=EDGE_CURVE('',#374,#375,#439,.T.);
#275=EDGE_CURVE('',#364,#375,#35,.T.);
#276=EDGE_CURVE('',#376,#376,#36,.T.);
#277=EDGE_CURVE('',#377,#377,#37,.T.);
#278=EDGE_CURVE('',#378,#379,#38,.T.);
#279=EDGE_CURVE('',#380,#378,#440,.T.);
#280=EDGE_CURVE('',#381,#380,#39,.T.);
#281=EDGE_CURVE('',#379,#381,#441,.T.);
#282=EDGE_CURVE('',#382,#383,#442,.T.);
#283=EDGE_CURVE('',#383,#384,#40,.T.);
#284=EDGE_CURVE('',#384,#385,#443,.T.);
#285=EDGE_CURVE('',#385,#386,#41,.T.);
#286=EDGE_CURVE('',#386,#387,#444,.T.);
#287=EDGE_CURVE('',#387,#388,#42,.T.);
#288=EDGE_CURVE('',#388,#389,#445,.T.);
#289=EDGE_CURVE('',#389,#382,#43,.T.);
#290=EDGE_CURVE('',#390,#390,#44,.T.);
#291=EDGE_CURVE('',#391,#391,#45,.T.);
#292=EDGE_CURVE('',#392,#393,#46,.T.);
#293=EDGE_CURVE('',#393,#394,#446,.T.);
#294=EDGE_CURVE('',#394,#395,#47,.T.);
#295=EDGE_CURVE('',#395,#392,#447,.T.);
#296=EDGE_CURVE('',#379,#393,#448,.T.);
#297=EDGE_CURVE('',#378,#392,#449,.T.);
#298=EDGE_CURVE('',#381,#394,#450,.T.);
#299=EDGE_CURVE('',#380,#395,#451,.T.);
#300=EDGE_CURVE('',#396,#397,#452,.T.);
#301=EDGE_CURVE('',#397,#398,#453,.T.);
#302=EDGE_CURVE('',#399,#398,#454,.T.);
#303=EDGE_CURVE('',#396,#399,#455,.T.);
#304=EDGE_CURVE('',#400,#399,#456,.T.);
#305=EDGE_CURVE('',#398,#401,#457,.T.);
#306=EDGE_CURVE('',#402,#401,#458,.T.);
#307=EDGE_CURVE('',#402,#403,#459,.T.);
#308=EDGE_CURVE('',#400,#403,#460,.T.);
#309=EDGE_CURVE('',#404,#405,#48,.T.);
#310=EDGE_CURVE('',#405,#406,#461,.T.);
#311=EDGE_CURVE('',#406,#407,#49,.T.);
#312=EDGE_CURVE('',#407,#408,#462,.T.);
#313=EDGE_CURVE('',#408,#409,#50,.T.);
#314=EDGE_CURVE('',#409,#410,#463,.T.);
#315=EDGE_CURVE('',#410,#411,#51,.T.);
#316=EDGE_CURVE('',#411,#404,#464,.T.);
#317=EDGE_CURVE('',#389,#405,#465,.T.);
#318=EDGE_CURVE('',#382,#404,#466,.T.);
#319=EDGE_CURVE('',#412,#412,#52,.T.);
#320=EDGE_CURVE('',#388,#406,#467,.T.);
#321=EDGE_CURVE('',#387,#407,#468,.T.);
#322=EDGE_CURVE('',#386,#408,#469,.T.);
#323=EDGE_CURVE('',#385,#409,#470,.T.);
#324=EDGE_CURVE('',#413,#413,#53,.T.);
#325=EDGE_CURVE('',#384,#410,#471,.T.);
#326=EDGE_CURVE('',#383,#411,#472,.T.);
#327=EDGE_CURVE('',#414,#414,#54,.T.);
#328=EDGE_CURVE('',#415,#396,#473,.T.);
#329=EDGE_CURVE('',#415,#400,#474,.T.);
#330=EDGE_CURVE('',#416,#415,#475,.T.);
#331=EDGE_CURVE('',#403,#416,#476,.T.);
#332=EDGE_CURVE('',#417,#416,#477,.T.);
#333=EDGE_CURVE('',#417,#402,#478,.T.);
#334=EDGE_CURVE('',#418,#417,#479,.T.);
#335=EDGE_CURVE('',#401,#418,#480,.T.);
#336=EDGE_CURVE('',#419,#419,#55,.T.);
#337=EDGE_CURVE('',#397,#418,#481,.T.);
#338=EDGE_CURVE('',#367,#420,#482,.T.);
#339=EDGE_CURVE('',#421,#366,#483,.T.);
#340=EDGE_CURVE('',#421,#420,#484,.T.);
#341=EDGE_CURVE('',#371,#422,#485,.T.);
#342=EDGE_CURVE('',#423,#370,#486,.T.);
#343=EDGE_CURVE('',#423,#422,#487,.T.);
#344=EDGE_CURVE('',#424,#374,#488,.T.);
#345=EDGE_CURVE('',#424,#425,#489,.T.);
#346=EDGE_CURVE('',#375,#425,#490,.T.);
#347=EDGE_CURVE('',#426,#425,#56,.T.);
#348=EDGE_CURVE('',#426,#364,#491,.T.);
#349=EDGE_CURVE('',#365,#427,#492,.T.);
#350=EDGE_CURVE('',#426,#427,#493,.T.);
#351=EDGE_CURVE('',#421,#427,#57,.T.);
#352=EDGE_CURVE('',#428,#420,#58,.T.);
#353=EDGE_CURVE('',#428,#368,#494,.T.);
#354=EDGE_CURVE('',#369,#429,#495,.T.);
#355=EDGE_CURVE('',#428,#429,#496,.T.);
#356=EDGE_CURVE('',#423,#429,#59,.T.);
#357=EDGE_CURVE('',#430,#422,#60,.T.);
#358=EDGE_CURVE('',#430,#372,#497,.T.);
#359=EDGE_CURVE('',#373,#431,#498,.T.);
#360=EDGE_CURVE('',#430,#431,#499,.T.);
#361=EDGE_CURVE('',#424,#431,#61,.T.);
#362=EDGE_CURVE('',#432,#432,#62,.T.);
#363=EDGE_CURVE('',#433,#433,#63,.T.);
#364=VERTEX_POINT('',#1050);
#365=VERTEX_POINT('',#1051);
#366=VERTEX_POINT('',#1053);
#367=VERTEX_POINT('',#1055);
#368=VERTEX_POINT('',#1057);
#369=VERTEX_POINT('',#1059);
#370=VERTEX_POINT('',#1061);
#371=VERTEX_POINT('',#1063);
#372=VERTEX_POINT('',#1065);
#373=VERTEX_POINT('',#1067);
#374=VERTEX_POINT('',#1069);
#375=VERTEX_POINT('',#1071);
#376=VERTEX_POINT('',#1074);
#377=VERTEX_POINT('',#1076);
#378=VERTEX_POINT('',#1078);
#379=VERTEX_POINT('',#1079);
#380=VERTEX_POINT('',#1081);
#381=VERTEX_POINT('',#1083);
#382=VERTEX_POINT('',#1087);
#383=VERTEX_POINT('',#1088);
#384=VERTEX_POINT('',#1090);
#385=VERTEX_POINT('',#1092);
#386=VERTEX_POINT('',#1094);
#387=VERTEX_POINT('',#1096);
#388=VERTEX_POINT('',#1098);
#389=VERTEX_POINT('',#1100);
#390=VERTEX_POINT('',#1103);
#391=VERTEX_POINT('',#1105);
#392=VERTEX_POINT('',#1107);
#393=VERTEX_POINT('',#1108);
#394=VERTEX_POINT('',#1110);
#395=VERTEX_POINT('',#1112);
#396=VERTEX_POINT('',#1124);
#397=VERTEX_POINT('',#1125);
#398=VERTEX_POINT('',#1127);
#399=VERTEX_POINT('',#1129);
#400=VERTEX_POINT('',#1133);
#401=VERTEX_POINT('',#1135);
#402=VERTEX_POINT('',#1137);
#403=VERTEX_POINT('',#1139);
#404=VERTEX_POINT('',#1142);
#405=VERTEX_POINT('',#1143);
#406=VERTEX_POINT('',#1145);
#407=VERTEX_POINT('',#1147);
#408=VERTEX_POINT('',#1149);
#409=VERTEX_POINT('',#1151);
#410=VERTEX_POINT('',#1153);
#411=VERTEX_POINT('',#1155);
#412=VERTEX_POINT('',#1162);
#413=VERTEX_POINT('',#1172);
#414=VERTEX_POINT('',#1179);
#415=VERTEX_POINT('',#1181);
#416=VERTEX_POINT('',#1185);
#417=VERTEX_POINT('',#1189);
#418=VERTEX_POINT('',#1193);
#419=VERTEX_POINT('',#1197);
#420=VERTEX_POINT('',#1201);
#421=VERTEX_POINT('',#1203);
#422=VERTEX_POINT('',#1207);
#423=VERTEX_POINT('',#1209);
#424=VERTEX_POINT('',#1213);
#425=VERTEX_POINT('',#1215);
#426=VERTEX_POINT('',#1219);
#427=VERTEX_POINT('',#1223);
#428=VERTEX_POINT('',#1229);
#429=VERTEX_POINT('',#1233);
#430=VERTEX_POINT('',#1239);
#431=VERTEX_POINT('',#1243);
#432=VERTEX_POINT('',#1250);
#433=VERTEX_POINT('',#1254);
#434=LINE('',#1049,#500);
#435=LINE('',#1054,#501);
#436=LINE('',#1058,#502);
#437=LINE('',#1062,#503);
#438=LINE('',#1066,#504);
#439=LINE('',#1070,#505);
#440=LINE('',#1080,#506);
#441=LINE('',#1084,#507);
#442=LINE('',#1086,#508);
#443=LINE('',#1091,#509);
#444=LINE('',#1095,#510);
#445=LINE('',#1099,#511);
#446=LINE('',#1109,#512);
#447=LINE('',#1113,#513);
#448=LINE('',#1115,#514);
#449=LINE('',#1116,#515);
#450=LINE('',#1118,#516);
#451=LINE('',#1120,#517);
#452=LINE('',#1123,#518);
#453=LINE('',#1126,#519);
#454=LINE('',#1128,#520);
#455=LINE('',#1130,#521);
#456=LINE('',#1132,#522);
#457=LINE('',#1134,#523);
#458=LINE('',#1136,#524);
#459=LINE('',#1138,#525);
#460=LINE('',#1140,#526);
#461=LINE('',#1144,#527);
#462=LINE('',#1148,#528);
#463=LINE('',#1152,#529);
#464=LINE('',#1156,#530);
#465=LINE('',#1158,#531);
#466=LINE('',#1159,#532);
#467=LINE('',#1163,#533);
#468=LINE('',#1165,#534);
#469=LINE('',#1167,#535);
#470=LINE('',#1169,#536);
#471=LINE('',#1173,#537);
#472=LINE('',#1175,#538);
#473=LINE('',#1180,#539);
#474=LINE('',#1182,#540);
#475=LINE('',#1184,#541);
#476=LINE('',#1186,#542);
#477=LINE('',#1188,#543);
#478=LINE('',#1190,#544);
#479=LINE('',#1192,#545);
#480=LINE('',#1194,#546);
#481=LINE('',#1198,#547);
#482=LINE('',#1200,#548);
#483=LINE('',#1202,#549);
#484=LINE('',#1204,#550);
#485=LINE('',#1206,#551);
#486=LINE('',#1208,#552);
#487=LINE('',#1210,#553);
#488=LINE('',#1212,#554);
#489=LINE('',#1214,#555);
#490=LINE('',#1216,#556);
#491=LINE('',#1220,#557);
#492=LINE('',#1222,#558);
#493=LINE('',#1224,#559);
#494=LINE('',#1230,#560);
#495=LINE('',#1232,#561);
#496=LINE('',#1234,#562);
#497=LINE('',#1240,#563);
#498=LINE('',#1242,#564);
#499=LINE('',#1244,#565);
#500=VECTOR('',#835,1.);
#501=VECTOR('',#838,1.);
#502=VECTOR('',#841,1.);
#503=VECTOR('',#844,1.);
#504=VECTOR('',#847,1.);
#505=VECTOR('',#850,1.);
#506=VECTOR('',#859,1.);
#507=VECTOR('',#862,1.);
#508=VECTOR('',#865,1.);
#509=VECTOR('',#868,1.);
#510=VECTOR('',#871,1.);
#511=VECTOR('',#874,1.);
#512=VECTOR('',#883,1.);
#513=VECTOR('',#886,1.);
#514=VECTOR('',#889,1.);
#515=VECTOR('',#890,1.);
#516=VECTOR('',#893,1.);
#517=VECTOR('',#896,1.);
#518=VECTOR('',#901,1.);
#519=VECTOR('',#902,1.);
#520=VECTOR('',#903,1.);
#521=VECTOR('',#904,1.);
#522=VECTOR('',#907,1.);
#523=VECTOR('',#908,1.);
#524=VECTOR('',#909,1.);
#525=VECTOR('',#910,1.);
#526=VECTOR('',#911,1.);
#527=VECTOR('',#914,1.);
#528=VECTOR('',#917,1.);
#529=VECTOR('',#920,1.);
#530=VECTOR('',#923,1.);
#531=VECTOR('',#926,1.);
#532=VECTOR('',#927,1.);
#533=VECTOR('',#932,1.);
#534=VECTOR('',#935,1.);
#535=VECTOR('',#938,1.);
#536=VECTOR('',#941,1.);
#537=VECTOR('',#946,1.);
#538=VECTOR('',#949,1.);
#539=VECTOR('',#956,1.);
#540=VECTOR('',#957,1.);
#541=VECTOR('',#960,1.);
#542=VECTOR('',#961,1.);
#543=VECTOR('',#964,1.);
#544=VECTOR('',#965,1.);
#545=VECTOR('',#968,1.);
#546=VECTOR('',#969,1.);
#547=VECTOR('',#974,1.);
#548=VECTOR('',#977,1.);
#549=VECTOR('',#978,1.);
#550=VECTOR('',#979,1.);
#551=VECTOR('',#982,1.);
#552=VECTOR('',#983,1.);
#553=VECTOR('',#984,1.);
#554=VECTOR('',#987,1.);
#555=VECTOR('',#988,1.);
#556=VECTOR('',#989,1.);
#557=VECTOR('',#994,1.);
#558=VECTOR('',#997,1.);
#559=VECTOR('',#998,1.);
#560=VECTOR('',#1007,1.);
#561=VECTOR('',#1010,1.);
#562=VECTOR('',#1011,1.);
#563=VECTOR('',#1020,1.);
#564=VECTOR('',#1023,1.);
#565=VECTOR('',#1024,1.);
#566=EDGE_LOOP('',(#64,#65,#66,#67,#68,#69,#70,#71,#72,#73,#74,#75));
#567=EDGE_LOOP('',(#76));
#568=EDGE_LOOP('',(#77));
#569=EDGE_LOOP('',(#78,#79,#80,#81));
#570=EDGE_LOOP('',(#82,#83,#84,#85,#86,#87,#88,#89));
#571=EDGE_LOOP('',(#90));
#572=EDGE_LOOP('',(#91));
#573=EDGE_LOOP('',(#92,#93,#94,#95));
#574=EDGE_LOOP('',(#96,#97,#98,#99));
#575=EDGE_LOOP('',(#100,#101,#102,#103));
#576=EDGE_LOOP('',(#104,#105,#106,#107));
#577=EDGE_LOOP('',(#108,#109,#110,#111));
#578=EDGE_LOOP('',(#112,#113,#114,#115));
#579=EDGE_LOOP('',(#116,#117,#118,#119,#120,#121));
#580=EDGE_LOOP('',(#122,#123,#124,#125,#126,#127,#128,#129));
#581=EDGE_LOOP('',(#130,#131,#132,#133));
#582=EDGE_LOOP('',(#134));
#583=EDGE_LOOP('',(#135,#136,#137,#138));
#584=EDGE_LOOP('',(#139,#140,#141,#142));
#585=EDGE_LOOP('',(#143,#144,#145,#146));
#586=EDGE_LOOP('',(#147,#148,#149,#150));
#587=EDGE_LOOP('',(#151));
#588=EDGE_LOOP('',(#152,#153,#154,#155));
#589=EDGE_LOOP('',(#156,#157,#158,#159));
#590=EDGE_LOOP('',(#160,#161,#162,#163));
#591=EDGE_LOOP('',(#164));
#592=EDGE_LOOP('',(#165,#166,#167,#168));
#593=EDGE_LOOP('',(#169,#170,#171,#172));
#594=EDGE_LOOP('',(#173,#174,#175,#176));
#595=EDGE_LOOP('',(#177,#178,#179,#180));
#596=EDGE_LOOP('',(#181));
#597=EDGE_LOOP('',(#182,#183,#184,#185));
#598=EDGE_LOOP('',(#186,#187,#188,#189));
#599=EDGE_LOOP('',(#190,#191,#192,#193));
#600=EDGE_LOOP('',(#194,#195,#196,#197));
#601=EDGE_LOOP('',(#198,#199,#200,#201));
#602=EDGE_LOOP('',(#202,#203,#204,#205));
#603=EDGE_LOOP('',(#206,#207,#208,#209));
#604=EDGE_LOOP('',(#210,#211,#212,#213));
#605=EDGE_LOOP('',(#214,#215,#216,#217));
#606=EDGE_LOOP('',(#218,#219,#220,#221));
#607=EDGE_LOOP('',(#222,#223,#224,#225));
#608=EDGE_LOOP('',(#226,#227,#228,#229));
#609=EDGE_LOOP('',(#230,#231,#232,#233,#234,#235));
#610=EDGE_LOOP('',(#236,#237,#238,#239,#240,#241,#242,#243,#244,#245,#246,#247));
#611=EDGE_LOOP('',(#248,#249,#250,#251));
#612=EDGE_LOOP('',(#252));
#613=EDGE_LOOP('',(#253));
#614=EDGE_LOOP('',(#254));
#615=EDGE_LOOP('',(#255));
#616=EDGE_LOOP('',(#256));
#617=EDGE_LOOP('',(#257));
#618=EDGE_LOOP('',(#258));
#619=EDGE_LOOP('',(#259));
#620=EDGE_LOOP('',(#260));
#621=EDGE_LOOP('',(#261));
#622=EDGE_LOOP('',(#262));
#623=EDGE_LOOP('',(#263));
#624=FACE_BOUND('',#566,.T.);
#625=FACE_BOUND('',#567,.T.);
#626=FACE_BOUND('',#568,.T.);
#627=FACE_BOUND('',#569,.T.);
#628=FACE_BOUND('',#570,.T.);
#629=FACE_BOUND('',#571,.T.);
#630=FACE_BOUND('',#572,.T.);
#631=FACE_BOUND('',#573,.T.);
#632=FACE_BOUND('',#574,.T.);
#633=FACE_BOUND('',#575,.T.);
#634=FACE_BOUND('',#576,.T.);
#635=FACE_BOUND('',#577,.T.);
#636=FACE_BOUND('',#578,.T.);
#637=FACE_BOUND('',#579,.T.);
#638=FACE_BOUND('',#580,.T.);
#639=FACE_BOUND('',#581,.T.);
#640=FACE_BOUND('',#582,.T.);
#641=FACE_BOUND('',#583,.T.);
#642=FACE_BOUND('',#584,.T.);
#643=FACE_BOUND('',#585,.T.);
#644=FACE_BOUND('',#586,.T.);
#645=FACE_BOUND('',#587,.T.);
#646=FACE_BOUND('',#588,.T.);
#647=FACE_BOUND('',#589,.T.);
#648=FACE_BOUND('',#590,.T.);
#649=FACE_BOUND('',#591,.T.);
#650=FACE_BOUND('',#592,.T.);
#651=FACE_BOUND('',#593,.T.);
#652=FACE_BOUND('',#594,.T.);
#653=FACE_BOUND('',#595,.T.);
#654=FACE_BOUND('',#596,.T.);
#655=FACE_BOUND('',#597,.T.);
#656=FACE_BOUND('',#598,.T.);
#657=FACE_BOUND('',#599,.T.);
#658=FACE_BOUND('',#600,.T.);
#659=FACE_BOUND('',#601,.T.);
#660=FACE_BOUND('',#602,.T.);
#661=FACE_BOUND('',#603,.T.);
#662=FACE_BOUND('',#604,.T.);
#663=FACE_BOUND('',#605,.T.);
#664=FACE_BOUND('',#606,.T.);
#665=FACE_BOUND('',#607,.T.);
#666=FACE_BOUND('',#608,.T.);
#667=FACE_BOUND('',#609,.T.);
#668=FACE_BOUND('',#610,.T.);
#669=FACE_BOUND('',#611,.T.);
#670=FACE_BOUND('',#612,.T.);
#671=FACE_BOUND('',#613,.T.);
#672=FACE_BOUND('',#614,.T.);
#673=FACE_BOUND('',#615,.T.);
#674=FACE_BOUND('',#616,.T.);
#675=FACE_BOUND('',#617,.T.);
#676=FACE_BOUND('',#618,.T.);
#677=FACE_BOUND('',#619,.T.);
#678=FACE_BOUND('',#620,.T.);
#679=FACE_BOUND('',#621,.T.);
#680=FACE_BOUND('',#622,.T.);
#681=FACE_BOUND('',#623,.T.);
#682=PLANE('',#757);
#683=PLANE('',#768);
#684=PLANE('',#778);
#685=PLANE('',#780);
#686=PLANE('',#781);
#687=PLANE('',#782);
#688=PLANE('',#788);
#689=PLANE('',#791);
#690=PLANE('',#793);
#691=PLANE('',#796);
#692=PLANE('',#797);
#693=PLANE('',#799);
#694=PLANE('',#800);
#695=PLANE('',#801);
#696=PLANE('',#802);
#697=PLANE('',#804);
#698=PLANE('',#805);
#699=PLANE('',#806);
#700=PLANE('',#809);
#701=PLANE('',#814);
#702=PLANE('',#819);
#703=PLANE('',#820);
#704=ADVANCED_FACE('',(#624,#625,#626,#627),#682,.F.);
#705=ADVANCED_FACE('',(#628,#629,#630,#631),#683,.T.);
#706=ADVANCED_FACE('',(#632),#14,.T.);
#707=ADVANCED_FACE('',(#633),#684,.T.);
#708=ADVANCED_FACE('',(#634),#15,.T.);
#709=ADVANCED_FACE('',(#635),#685,.T.);
#710=ADVANCED_FACE('',(#636),#686,.T.);
#711=ADVANCED_FACE('',(#637,#638),#687,.T.);
#712=ADVANCED_FACE('',(#639),#16,.T.);
#713=ADVANCED_FACE('',(#640,#641),#688,.T.);
#714=ADVANCED_FACE('',(#642),#17,.T.);
#715=ADVANCED_FACE('',(#643),#689,.T.);
#716=ADVANCED_FACE('',(#644),#18,.T.);
#717=ADVANCED_FACE('',(#645,#646),#690,.T.);
#718=ADVANCED_FACE('',(#647),#19,.T.);
#719=ADVANCED_FACE('',(#648),#691,.T.);
#720=ADVANCED_FACE('',(#649,#650),#692,.T.);
#721=ADVANCED_FACE('',(#651),#693,.T.);
#722=ADVANCED_FACE('',(#652),#694,.T.);
#723=ADVANCED_FACE('',(#653),#695,.T.);
#724=ADVANCED_FACE('',(#654,#655),#696,.T.);
#725=ADVANCED_FACE('',(#656),#697,.F.);
#726=ADVANCED_FACE('',(#657),#698,.F.);
#727=ADVANCED_FACE('',(#658),#699,.F.);
#728=ADVANCED_FACE('',(#659),#20,.F.);
#729=ADVANCED_FACE('',(#660),#700,.F.);
#730=ADVANCED_FACE('',(#661),#21,.F.);
#731=ADVANCED_FACE('',(#662),#22,.F.);
#732=ADVANCED_FACE('',(#663),#701,.F.);
#733=ADVANCED_FACE('',(#664),#23,.F.);
#734=ADVANCED_FACE('',(#665),#24,.F.);
#735=ADVANCED_FACE('',(#666),#702,.F.);
#736=ADVANCED_FACE('',(#667,#668),#703,.F.);
#737=ADVANCED_FACE('',(#669),#25,.F.);
#738=ADVANCED_FACE('',(#670,#671),#26,.F.);
#739=ADVANCED_FACE('',(#672,#673),#12,.F.);
#740=ADVANCED_FACE('',(#674,#675),#27,.F.);
#741=ADVANCED_FACE('',(#676,#677),#13,.F.);
#742=ADVANCED_FACE('',(#678,#679),#28,.F.);
#743=ADVANCED_FACE('',(#680,#681),#29,.F.);
#744=CLOSED_SHELL('',(#704,#705,#706,#707,#708,#709,#710,#711,#712,#713,#714,#715,#716,#717,#718,#719,#720,#721,#722,#723,#724,#725,#726,#727,#728,#729,#730,#731,#732,#733,#734,#735,#736,#737,#738,#739,#740,#741,#742,#743));
#745=STYLED_ITEM('',(#746),#753);
#746=PRESENTATION_STYLE_ASSIGNMENT((#747));
#747=SURFACE_STYLE_USAGE(.BOTH.,#748);
#748=SURFACE_SIDE_STYLE('',(#749));
#749=SURFACE_STYLE_FILL_AREA(#750);
#750=FILL_AREA_STYLE('',(#751));
#751=FILL_AREA_STYLE_COLOUR('',#752);
#752=COLOUR_RGB('',0.0745098039215686,0.588235294117647,0.945098039215686);
#753=MANIFOLD_SOLID_BREP('XT30_Rahmen_1-Fach',#744);
#754=SHAPE_DEFINITION_REPRESENTATION(#1264,#755);
#755=SHAPE_REPRESENTATION('XT30_Rahmen_1-Fach',(#756),#1259);
#756=AXIS2_PLACEMENT_3D('',#1047,#831,#832);
#757=AXIS2_PLACEMENT_3D('',#1048,#833,#834);
#758=AXIS2_PLACEMENT_3D('',#1052,#836,#837);
#759=AXIS2_PLACEMENT_3D('',#1056,#839,#840);
#760=AXIS2_PLACEMENT_3D('',#1060,#842,#843);
#761=AXIS2_PLACEMENT_3D('',#1064,#845,#846);
#762=AXIS2_PLACEMENT_3D('',#1068,#848,#849);
#763=AXIS2_PLACEMENT_3D('',#1072,#851,#852);
#764=AXIS2_PLACEMENT_3D('',#1073,#853,#854);
#765=AXIS2_PLACEMENT_3D('',#1075,#855,#856);
#766=AXIS2_PLACEMENT_3D('',#1077,#857,#858);
#767=AXIS2_PLACEMENT_3D('',#1082,#860,#861);
#768=AXIS2_PLACEMENT_3D('',#1085,#863,#864);
#769=AXIS2_PLACEMENT_3D('',#1089,#866,#867);
#770=AXIS2_PLACEMENT_3D('',#1093,#869,#870);
#771=AXIS2_PLACEMENT_3D('',#1097,#872,#873);
#772=AXIS2_PLACEMENT_3D('',#1101,#875,#876);
#773=AXIS2_PLACEMENT_3D('',#1102,#877,#878);
#774=AXIS2_PLACEMENT_3D('',#1104,#879,#880);
#775=AXIS2_PLACEMENT_3D('',#1106,#881,#882);
#776=AXIS2_PLACEMENT_3D('',#1111,#884,#885);
#777=AXIS2_PLACEMENT_3D('',#1114,#887,#888);
#778=AXIS2_PLACEMENT_3D('',#1117,#891,#892);
#779=AXIS2_PLACEMENT_3D('',#1119,#894,#895);
#780=AXIS2_PLACEMENT_3D('',#1121,#897,#898);
#781=AXIS2_PLACEMENT_3D('',#1122,#899,#900);
#782=AXIS2_PLACEMENT_3D('',#1131,#905,#906);
#783=AXIS2_PLACEMENT_3D('',#1141,#912,#913);
#784=AXIS2_PLACEMENT_3D('',#1146,#915,#916);
#785=AXIS2_PLACEMENT_3D('',#1150,#918,#919);
#786=AXIS2_PLACEMENT_3D('',#1154,#921,#922);
#787=AXIS2_PLACEMENT_3D('',#1157,#924,#925);
#788=AXIS2_PLACEMENT_3D('',#1160,#928,#929);
#789=AXIS2_PLACEMENT_3D('',#1161,#930,#931);
#790=AXIS2_PLACEMENT_3D('',#1164,#933,#934);
#791=AXIS2_PLACEMENT_3D('',#1166,#936,#937);
#792=AXIS2_PLACEMENT_3D('',#1168,#939,#940);
#793=AXIS2_PLACEMENT_3D('',#1170,#942,#943);
#794=AXIS2_PLACEMENT_3D('',#1171,#944,#945);
#795=AXIS2_PLACEMENT_3D('',#1174,#947,#948);
#796=AXIS2_PLACEMENT_3D('',#1176,#950,#951);
#797=AXIS2_PLACEMENT_3D('',#1177,#952,#953);
#798=AXIS2_PLACEMENT_3D('',#1178,#954,#955);
#799=AXIS2_PLACEMENT_3D('',#1183,#958,#959);
#800=AXIS2_PLACEMENT_3D('',#1187,#962,#963);
#801=AXIS2_PLACEMENT_3D('',#1191,#966,#967);
#802=AXIS2_PLACEMENT_3D('',#1195,#970,#971);
#803=AXIS2_PLACEMENT_3D('',#1196,#972,#973);
#804=AXIS2_PLACEMENT_3D('',#1199,#975,#976);
#805=AXIS2_PLACEMENT_3D('',#1205,#980,#981);
#806=AXIS2_PLACEMENT_3D('',#1211,#985,#986);
#807=AXIS2_PLACEMENT_3D('',#1217,#990,#991);
#808=AXIS2_PLACEMENT_3D('',#1218,#992,#993);
#809=AXIS2_PLACEMENT_3D('',#1221,#995,#996);
#810=AXIS2_PLACEMENT_3D('',#1225,#999,#1000);
#811=AXIS2_PLACEMENT_3D('',#1226,#1001,#1002);
#812=AXIS2_PLACEMENT_3D('',#1227,#1003,#1004);
#813=AXIS2_PLACEMENT_3D('',#1228,#1005,#1006);
#814=AXIS2_PLACEMENT_3D('',#1231,#1008,#1009);
#815=AXIS2_PLACEMENT_3D('',#1235,#1012,#1013);
#816=AXIS2_PLACEMENT_3D('',#1236,#1014,#1015);
#817=AXIS2_PLACEMENT_3D('',#1237,#1016,#1017);
#818=AXIS2_PLACEMENT_3D('',#1238,#1018,#1019);
#819=AXIS2_PLACEMENT_3D('',#1241,#1021,#1022);
#820=AXIS2_PLACEMENT_3D('',#1245,#1025,#1026);
#821=AXIS2_PLACEMENT_3D('',#1246,#1027,#1028);
#822=AXIS2_PLACEMENT_3D('',#1247,#1029,#1030);
#823=AXIS2_PLACEMENT_3D('',#1248,#1031,#1032);
#824=AXIS2_PLACEMENT_3D('',#1249,#1033,#1034);
#825=AXIS2_PLACEMENT_3D('',#1251,#1035,#1036);
#826=AXIS2_PLACEMENT_3D('',#1252,#1037,#1038);
#827=AXIS2_PLACEMENT_3D('',#1253,#1039,#1040);
#828=AXIS2_PLACEMENT_3D('',#1255,#1041,#1042);
#829=AXIS2_PLACEMENT_3D('',#1256,#1043,#1044);
#830=AXIS2_PLACEMENT_3D('',#1257,#1045,#1046);
#831=DIRECTION('',(0.,0.,1.));
#832=DIRECTION('',(1.,0.,0.));
#833=DIRECTION('',(0.,0.,1.));
#834=DIRECTION('',(1.,0.,0.));
#835=DIRECTION('',(0.,1.,0.));
#836=DIRECTION('',(0.,0.,-1.));
#837=DIRECTION('',(0.923879532511287,0.382683432365089,0.));
#838=DIRECTION('',(-0.707106781186548,0.707106781186548,0.));
#839=DIRECTION('',(0.,0.,-1.));
#840=DIRECTION('',(0.382683432365089,0.923879532511287,0.));
#841=DIRECTION('',(-1.,0.,0.));
#842=DIRECTION('',(0.,0.,-1.));
#843=DIRECTION('',(-0.38268343236509,0.923879532511287,0.));
#844=DIRECTION('',(-0.707106781186548,-0.707106781186548,0.));
#845=DIRECTION('',(0.,0.,-1.));
#846=DIRECTION('',(-0.923879532511287,0.38268343236509,0.));
#847=DIRECTION('',(0.,-1.,0.));
#848=DIRECTION('',(0.,0.,-1.));
#849=DIRECTION('',(-0.707106781186547,-0.707106781186548,0.));
#850=DIRECTION('',(1.,0.,0.));
#851=DIRECTION('',(0.,0.,-1.));
#852=DIRECTION('',(0.707106781186548,-0.707106781186547,0.));
#853=DIRECTION('',(0.,0.,1.));
#854=DIRECTION('',(-1.,0.,0.));
#855=DIRECTION('',(0.,0.,1.));
#856=DIRECTION('',(-1.,0.,0.));
#857=DIRECTION('',(0.,0.,1.));
#858=DIRECTION('',(-1.,1.85037170770859E-16,0.));
#859=DIRECTION('',(0.,-1.,0.));
#860=DIRECTION('',(0.,0.,1.));
#861=DIRECTION('',(1.,1.85037170770859E-16,0.));
#862=DIRECTION('',(0.,1.,0.));
#863=DIRECTION('',(0.,0.,1.));
#864=DIRECTION('',(1.,0.,0.));
#865=DIRECTION('',(1.,0.,0.));
#866=DIRECTION('',(0.,0.,-1.));
#867=DIRECTION('',(1.,7.40148683083437E-16,0.));
#868=DIRECTION('',(-5.78241158658936E-17,-1.,0.));
#869=DIRECTION('',(0.,0.,-1.));
#870=DIRECTION('',(3.70074341541719E-16,-1.,0.));
#871=DIRECTION('',(-1.,0.,0.));
#872=DIRECTION('',(0.,0.,-1.));
#873=DIRECTION('',(-1.,0.,0.));
#874=DIRECTION('',(-5.78241158658936E-17,1.,0.));
#875=DIRECTION('',(0.,0.,-1.));
#876=DIRECTION('',(0.,1.,0.));
#877=DIRECTION('',(0.,0.,-1.));
#878=DIRECTION('',(-1.,0.,0.));
#879=DIRECTION('',(0.,0.,-1.));
#880=DIRECTION('',(-1.,0.,0.));
#881=DIRECTION('',(0.,0.,1.));
#882=DIRECTION('',(-1.,1.85037170770859E-16,0.));
#883=DIRECTION('',(0.,1.,0.));
#884=DIRECTION('',(0.,0.,1.));
#885=DIRECTION('',(1.,1.85037170770859E-16,0.));
#886=DIRECTION('',(0.,-1.,0.));
#887=DIRECTION('',(0.,0.,1.));
#888=DIRECTION('',(-1.,1.85037170770859E-16,0.));
#889=DIRECTION('',(0.,0.,1.));
#890=DIRECTION('',(0.,0.,1.));
#891=DIRECTION('',(1.,0.,0.));
#892=DIRECTION('',(0.,1.,0.));
#893=DIRECTION('',(0.,0.,1.));
#894=DIRECTION('',(0.,0.,1.));
#895=DIRECTION('',(1.,1.85037170770859E-16,0.));
#896=DIRECTION('',(0.,0.,1.));
#897=DIRECTION('',(-1.,0.,0.));
#898=DIRECTION('',(0.,-1.,0.));
#899=DIRECTION('',(0.,1.,0.));
#900=DIRECTION('',(-1.,0.,0.));
#901=DIRECTION('',(-1.,0.,0.));
#902=DIRECTION('',(0.,0.,1.));
#903=DIRECTION('',(-1.,0.,0.));
#904=DIRECTION('',(0.,0.,1.));
#905=DIRECTION('',(0.,0.,1.));
#906=DIRECTION('',(1.,0.,0.));
#907=DIRECTION('',(0.,-1.,0.));
#908=DIRECTION('',(0.,1.,0.));
#909=DIRECTION('',(-0.707106781186548,-0.707106781186548,0.));
#910=DIRECTION('',(1.,0.,0.));
#911=DIRECTION('',(-0.707106781186548,0.707106781186548,0.));
#912=DIRECTION('',(0.,0.,1.));
#913=DIRECTION('',(0.,1.,0.));
#914=DIRECTION('',(5.78241158658936E-17,-1.,0.));
#915=DIRECTION('',(0.,0.,1.));
#916=DIRECTION('',(-1.,0.,0.));
#917=DIRECTION('',(1.,0.,0.));
#918=DIRECTION('',(0.,0.,1.));
#919=DIRECTION('',(3.70074341541719E-16,-1.,0.));
#920=DIRECTION('',(5.78241158658936E-17,1.,0.));
#921=DIRECTION('',(0.,0.,1.));
#922=DIRECTION('',(1.,7.40148683083437E-16,0.));
#923=DIRECTION('',(-1.,0.,0.));
#924=DIRECTION('',(0.,0.,1.));
#925=DIRECTION('',(0.,1.,0.));
#926=DIRECTION('',(0.,0.,1.));
#927=DIRECTION('',(0.,0.,1.));
#928=DIRECTION('',(-1.,-5.78241158658936E-17,0.));
#929=DIRECTION('',(5.78241158658936E-17,-1.,0.));
#930=DIRECTION('',(1.,5.78241158658936E-17,0.));
#931=DIRECTION('',(5.78241158658936E-17,1.,0.));
#932=DIRECTION('',(0.,0.,1.));
#933=DIRECTION('',(0.,0.,1.));
#934=DIRECTION('',(-1.,0.,0.));
#935=DIRECTION('',(0.,0.,1.));
#936=DIRECTION('',(0.,-1.,0.));
#937=DIRECTION('',(1.,0.,0.));
#938=DIRECTION('',(0.,0.,1.));
#939=DIRECTION('',(0.,0.,1.));
#940=DIRECTION('',(3.70074341541719E-16,-1.,0.));
#941=DIRECTION('',(0.,0.,1.));
#942=DIRECTION('',(1.,-5.78241158658936E-17,0.));
#943=DIRECTION('',(5.78241158658936E-17,1.,0.));
#944=DIRECTION('',(-1.,5.78241158658936E-17,0.));
#945=DIRECTION('',(5.78241158658936E-17,1.,0.));
#946=DIRECTION('',(0.,0.,1.));
#947=DIRECTION('',(0.,0.,1.));
#948=DIRECTION('',(1.,7.40148683083437E-16,0.));
#949=DIRECTION('',(0.,0.,1.));
#950=DIRECTION('',(0.,1.,0.));
#951=DIRECTION('',(-1.,0.,0.));
#952=DIRECTION('',(-1.,0.,0.));
#953=DIRECTION('',(0.,-1.,0.));
#954=DIRECTION('',(1.,0.,0.));
#955=DIRECTION('',(5.78241158658936E-17,1.,0.));
#956=DIRECTION('',(0.,-1.,0.));
#957=DIRECTION('',(0.,0.,1.));
#958=DIRECTION('',(-0.707106781186548,-0.707106781186548,0.));
#959=DIRECTION('',(0.,0.,1.));
#960=DIRECTION('',(0.707106781186548,-0.707106781186548,0.));
#961=DIRECTION('',(0.,0.,-1.));
#962=DIRECTION('',(0.,-1.,0.));
#963=DIRECTION('',(1.,0.,0.));
#964=DIRECTION('',(1.,0.,0.));
#965=DIRECTION('',(0.,0.,1.));
#966=DIRECTION('',(0.707106781186548,-0.707106781186548,0.));
#967=DIRECTION('',(0.,0.,-1.));
#968=DIRECTION('',(0.707106781186548,0.707106781186548,0.));
#969=DIRECTION('',(0.,0.,-1.));
#970=DIRECTION('',(1.,0.,0.));
#971=DIRECTION('',(0.,1.,0.));
#972=DIRECTION('',(-1.,0.,0.));
#973=DIRECTION('',(5.78241158658936E-17,1.,0.));
#974=DIRECTION('',(0.,1.,0.));
#975=DIRECTION('',(0.707106781186548,0.707106781186548,0.));
#976=DIRECTION('',(-0.707106781186548,0.707106781186548,0.));
#977=DIRECTION('',(0.,0.,1.));
#978=DIRECTION('',(0.,0.,-1.));
#979=DIRECTION('',(-0.707106781186548,0.707106781186548,0.));
#980=DIRECTION('',(-0.707106781186548,0.707106781186548,0.));
#981=DIRECTION('',(-0.707106781186548,-0.707106781186548,0.));
#982=DIRECTION('',(0.,0.,1.));
#983=DIRECTION('',(0.,0.,-1.));
#984=DIRECTION('',(-0.707106781186548,-0.707106781186548,0.));
#985=DIRECTION('',(0.,-1.,0.));
#986=DIRECTION('',(1.,0.,0.));
#987=DIRECTION('',(0.,0.,-1.));
#988=DIRECTION('',(1.,0.,0.));
#989=DIRECTION('',(0.,0.,1.));
#990=DIRECTION('',(0.,0.,1.));
#991=DIRECTION('',(0.707106781186548,-0.707106781186547,0.));
#992=DIRECTION('',(0.,0.,-1.));
#993=DIRECTION('',(0.707106781186548,-0.707106781186547,0.));
#994=DIRECTION('',(0.,0.,-1.));
#995=DIRECTION('',(1.,0.,0.));
#996=DIRECTION('',(0.,1.,0.));
#997=DIRECTION('',(0.,0.,1.));
#998=DIRECTION('',(0.,1.,0.));
#999=DIRECTION('',(0.,0.,1.));
#1000=DIRECTION('',(0.923879532511287,0.382683432365089,0.));
#1001=DIRECTION('',(0.,0.,-1.));
#1002=DIRECTION('',(0.923879532511287,0.382683432365089,0.));
#1003=DIRECTION('',(0.,0.,1.));
#1004=DIRECTION('',(0.382683432365089,0.923879532511287,0.));
#1005=DIRECTION('',(0.,0.,-1.));
#1006=DIRECTION('',(0.382683432365089,0.923879532511287,0.));
#1007=DIRECTION('',(0.,0.,-1.));
#1008=DIRECTION('',(0.,1.,0.));
#1009=DIRECTION('',(-1.,0.,0.));
#1010=DIRECTION('',(0.,0.,1.));
#1011=DIRECTION('',(-1.,0.,0.));
#1012=DIRECTION('',(0.,0.,1.));
#1013=DIRECTION('',(-0.38268343236509,0.923879532511287,0.));
#1014=DIRECTION('',(0.,0.,-1.));
#1015=DIRECTION('',(-0.38268343236509,0.923879532511287,0.));
#1016=DIRECTION('',(0.,0.,1.));
#1017=DIRECTION('',(-0.923879532511287,0.38268343236509,0.));
#1018=DIRECTION('',(0.,0.,-1.));
#1019=DIRECTION('',(-0.923879532511287,0.38268343236509,0.));
#1020=DIRECTION('',(0.,0.,-1.));
#1021=DIRECTION('',(-1.,0.,0.));
#1022=DIRECTION('',(0.,-1.,0.));
#1023=DIRECTION('',(0.,0.,1.));
#1024=DIRECTION('',(0.,-1.,0.));
#1025=DIRECTION('',(0.,0.,1.));
#1026=DIRECTION('',(1.,0.,0.));
#1027=DIRECTION('',(0.,0.,-1.));
#1028=DIRECTION('',(-0.707106781186547,-0.707106781186548,0.));
#1029=DIRECTION('',(0.,0.,1.));
#1030=DIRECTION('',(-0.707106781186547,-0.707106781186548,0.));
#1031=DIRECTION('',(0.,0.,1.));
#1032=DIRECTION('',(-1.,0.,0.));
#1033=DIRECTION('',(0.,0.,1.));
#1034=DIRECTION('',(-1.,0.,0.));
#1035=DIRECTION('',(0.,0.,-1.));
#1036=DIRECTION('',(-1.,0.,0.));
#1037=DIRECTION('',(0.,0.,1.));
#1038=DIRECTION('',(-1.,0.,0.));
#1039=DIRECTION('',(0.,0.,1.));
#1040=DIRECTION('',(-1.,0.,0.));
#1041=DIRECTION('',(0.,0.,-1.));
#1042=DIRECTION('',(-1.,0.,0.));
#1043=DIRECTION('',(-1.,5.78241158658936E-17,0.));
#1044=DIRECTION('',(5.78241158658936E-17,1.,0.));
#1045=DIRECTION('',(-1.,5.78241158658936E-17,0.));
#1046=DIRECTION('',(5.78241158658936E-17,1.,0.));
#1047=CARTESIAN_POINT('',(0.,0.,0.));
#1048=CARTESIAN_POINT('',(0.,0.,0.));
#1049=CARTESIAN_POINT('',(0.0029,-0.0027,0.));
#1050=CARTESIAN_POINT('',(0.0029,-0.0049,0.));
#1051=CARTESIAN_POINT('',(0.0029,0.00381715728752538,0.));
#1052=CARTESIAN_POINT('',(0.0024,0.00381715728752538,0.));
#1053=CARTESIAN_POINT('',(0.00275355339059327,0.00417071067811865,0.));
#1054=CARTESIAN_POINT('',(0.00318106601717798,0.00374319805153395,0.));
#1055=CARTESIAN_POINT('',(0.00167071067811865,0.00525355339059327,0.));
#1056=CARTESIAN_POINT('',(0.00131715728752538,0.0049,0.));
#1057=CARTESIAN_POINT('',(0.00131715728752538,0.0054,0.));
#1058=CARTESIAN_POINT('',(0.000762132034355964,0.0054,0.));
#1059=CARTESIAN_POINT('',(-0.00131715728752538,0.0054,0.));
#1060=CARTESIAN_POINT('',(-0.00131715728752538,0.0049,0.));
#1061=CARTESIAN_POINT('',(-0.00167071067811865,0.00525355339059328,0.));
#1062=CARTESIAN_POINT('',(-0.00249319805153395,0.00443106601717798,0.));
#1063=CARTESIAN_POINT('',(-0.00275355339059327,0.00417071067811865,0.));
#1064=CARTESIAN_POINT('',(-0.0024,0.00381715728752538,0.));
#1065=CARTESIAN_POINT('',(-0.0029,0.00381715728752538,0.));
#1066=CARTESIAN_POINT('',(-0.0029,0.00201213203435596,0.));
#1067=CARTESIAN_POINT('',(-0.0029,-0.0049,0.));
#1068=CARTESIAN_POINT('',(-0.0024,-0.0049,0.));
#1069=CARTESIAN_POINT('',(-0.0024,-0.0054,0.));
#1070=CARTESIAN_POINT('',(-0.00145,-0.0054,0.));
#1071=CARTESIAN_POINT('',(0.0024,-0.0054,0.));
#1072=CARTESIAN_POINT('',(0.0024,-0.0049,0.));
#1073=CARTESIAN_POINT('',(2.8635365491617E-18,-0.009,0.));
#1074=CARTESIAN_POINT('',(-0.002,-0.009,0.));
#1075=CARTESIAN_POINT('',(-1.53993418412574E-18,0.009,0.));
#1076=CARTESIAN_POINT('',(-0.002,0.009,0.));
#1077=CARTESIAN_POINT('',(3.66433149649604E-19,-0.006,0.));
#1078=CARTESIAN_POINT('',(-0.006,-0.006,0.));
#1079=CARTESIAN_POINT('',(0.006,-0.006,0.));
#1080=CARTESIAN_POINT('',(-0.006,0.006,0.));
#1081=CARTESIAN_POINT('',(-0.006,0.006,0.));
#1082=CARTESIAN_POINT('',(-3.72167562702515E-19,0.006,0.));
#1083=CARTESIAN_POINT('',(0.006,0.006,0.));
#1084=CARTESIAN_POINT('',(0.006,-0.006,0.));
#1085=CARTESIAN_POINT('',(0.,0.,0.0016));
#1086=CARTESIAN_POINT('',(0.00115,0.0063,0.0016));
#1087=CARTESIAN_POINT('',(-0.0023,0.0063,0.0016));
#1088=CARTESIAN_POINT('',(0.0023,0.0063,0.0016));
#1089=CARTESIAN_POINT('',(0.0023,0.0048,0.0016));
#1090=CARTESIAN_POINT('',(0.0038,0.0048,0.0016));
#1091=CARTESIAN_POINT('',(0.0038,-0.0024,0.0016));
#1092=CARTESIAN_POINT('',(0.0038,-0.0048,0.0016));
#1093=CARTESIAN_POINT('',(0.0023,-0.0048,0.0016));
#1094=CARTESIAN_POINT('',(0.0023,-0.0063,0.0016));
#1095=CARTESIAN_POINT('',(-0.00115,-0.0063,0.0016));
#1096=CARTESIAN_POINT('',(-0.0023,-0.0063,0.0016));
#1097=CARTESIAN_POINT('',(-0.0023,-0.0048,0.0016));
#1098=CARTESIAN_POINT('',(-0.0038,-0.0048,0.0016));
#1099=CARTESIAN_POINT('',(-0.0038,0.0024,0.0016));
#1100=CARTESIAN_POINT('',(-0.0038,0.0048,0.0016));
#1101=CARTESIAN_POINT('',(-0.0023,0.0048,0.0016));
#1102=CARTESIAN_POINT('',(2.8635365491617E-18,-0.009,0.0016));
#1103=CARTESIAN_POINT('',(-0.000749999999999997,-0.009,0.0016));
#1104=CARTESIAN_POINT('',(-1.53993418412574E-18,0.009,0.0016));
#1105=CARTESIAN_POINT('',(-0.000750000000000002,0.009,0.0016));
#1106=CARTESIAN_POINT('',(3.66433149649604E-19,-0.006,0.0016));
#1107=CARTESIAN_POINT('',(-0.006,-0.006,0.0016));
#1108=CARTESIAN_POINT('',(0.006,-0.006,0.0016));
#1109=CARTESIAN_POINT('',(0.006,-0.006,0.0016));
#1110=CARTESIAN_POINT('',(0.006,0.006,0.0016));
#1111=CARTESIAN_POINT('',(-3.72167562702515E-19,0.006,0.0016));
#1112=CARTESIAN_POINT('',(-0.006,0.006,0.0016));
#1113=CARTESIAN_POINT('',(-0.006,0.006,0.0016));
#1114=CARTESIAN_POINT('',(3.66433149649604E-19,-0.006,0.));
#1115=CARTESIAN_POINT('',(0.006,-0.006,0.));
#1116=CARTESIAN_POINT('',(-0.006,-0.006,0.));
#1117=CARTESIAN_POINT('',(0.006,-0.006,0.));
#1118=CARTESIAN_POINT('',(0.006,0.006,0.));
#1119=CARTESIAN_POINT('',(-3.72167562702515E-19,0.006,0.));
#1120=CARTESIAN_POINT('',(-0.006,0.006,0.));
#1121=CARTESIAN_POINT('',(-0.006,0.006,0.));
#1122=CARTESIAN_POINT('',(0.0026,-0.0051,0.));
#1123=CARTESIAN_POINT('',(0.0013,-0.0051,0.005));
#1124=CARTESIAN_POINT('',(0.0026,-0.0051,0.005));
#1125=CARTESIAN_POINT('',(-0.0026,-0.0051,0.005));
#1126=CARTESIAN_POINT('',(-0.0026,-0.0051,0.));
#1127=CARTESIAN_POINT('',(-0.0026,-0.0051,0.0106));
#1128=CARTESIAN_POINT('',(0.0026,-0.0051,0.0106));
#1129=CARTESIAN_POINT('',(0.0026,-0.0051,0.0106));
#1130=CARTESIAN_POINT('',(0.0026,-0.0051,0.));
#1131=CARTESIAN_POINT('',(0.,1.11022302462516E-18,0.0106));
#1132=CARTESIAN_POINT('',(0.0026,0.0051,0.0106));
#1133=CARTESIAN_POINT('',(0.0026,0.0039,0.0106));
#1134=CARTESIAN_POINT('',(-0.0026,-0.0051,0.0106));
#1135=CARTESIAN_POINT('',(-0.0026,0.0039,0.0106));
#1136=CARTESIAN_POINT('',(-0.002625,0.003875,0.0106));
#1137=CARTESIAN_POINT('',(-0.0014,0.0051,0.0106));
#1138=CARTESIAN_POINT('',(-0.0026,0.0051,0.0106));
#1139=CARTESIAN_POINT('',(0.0014,0.0051,0.0106));
#1140=CARTESIAN_POINT('',(0.002625,0.003875,0.0106));
#1141=CARTESIAN_POINT('',(-0.0023,0.0048,0.0106));
#1142=CARTESIAN_POINT('',(-0.0023,0.0063,0.0106));
#1143=CARTESIAN_POINT('',(-0.0038,0.0048,0.0106));
#1144=CARTESIAN_POINT('',(-0.0038,-0.0048,0.0106));
#1145=CARTESIAN_POINT('',(-0.0038,-0.0048,0.0106));
#1146=CARTESIAN_POINT('',(-0.0023,-0.0048,0.0106));
#1147=CARTESIAN_POINT('',(-0.0023,-0.0063,0.0106));
#1148=CARTESIAN_POINT('',(0.0023,-0.0063,0.0106));
#1149=CARTESIAN_POINT('',(0.0023,-0.0063,0.0106));
#1150=CARTESIAN_POINT('',(0.0023,-0.0048,0.0106));
#1151=CARTESIAN_POINT('',(0.0038,-0.0048,0.0106));
#1152=CARTESIAN_POINT('',(0.0038,0.0048,0.0106));
#1153=CARTESIAN_POINT('',(0.0038,0.0048,0.0106));
#1154=CARTESIAN_POINT('',(0.0023,0.0048,0.0106));
#1155=CARTESIAN_POINT('',(0.0023,0.0063,0.0106));
#1156=CARTESIAN_POINT('',(-0.0023,0.0063,0.0106));
#1157=CARTESIAN_POINT('',(-0.0023,0.0048,0.0016));
#1158=CARTESIAN_POINT('',(-0.0038,0.0048,0.0016));
#1159=CARTESIAN_POINT('',(-0.0023,0.0063,0.0016));
#1160=CARTESIAN_POINT('',(-0.0038,0.0048,0.0016));
#1161=CARTESIAN_POINT('',(-0.0038,7.74843152602974E-19,0.0091));
#1162=CARTESIAN_POINT('',(-0.0038,0.000600000000000001,0.0091));
#1163=CARTESIAN_POINT('',(-0.0038,-0.0048,0.0016));
#1164=CARTESIAN_POINT('',(-0.0023,-0.0048,0.0016));
#1165=CARTESIAN_POINT('',(-0.0023,-0.0063,0.0016));
#1166=CARTESIAN_POINT('',(-0.0023,-0.0063,0.0016));
#1167=CARTESIAN_POINT('',(0.0023,-0.0063,0.0016));
#1168=CARTESIAN_POINT('',(0.0023,-0.0048,0.0016));
#1169=CARTESIAN_POINT('',(0.0038,-0.0048,0.0016));
#1170=CARTESIAN_POINT('',(0.0038,-0.0048,0.0016));
#1171=CARTESIAN_POINT('',(0.0038,3.35379872022183E-19,0.0091));
#1172=CARTESIAN_POINT('',(0.0038,0.0006,0.0091));
#1173=CARTESIAN_POINT('',(0.0038,0.0048,0.0016));
#1174=CARTESIAN_POINT('',(0.0023,0.0048,0.0016));
#1175=CARTESIAN_POINT('',(0.0023,0.0063,0.0016));
#1176=CARTESIAN_POINT('',(0.0023,0.0063,0.0016));
#1177=CARTESIAN_POINT('',(0.0026,0.0051,0.));
#1178=CARTESIAN_POINT('',(0.0026,4.04768811061255E-19,0.0091));
#1179=CARTESIAN_POINT('',(0.0026,0.0006,0.0091));
#1180=CARTESIAN_POINT('',(0.0026,0.00255,0.005));
#1181=CARTESIAN_POINT('',(0.0026,0.0039,0.005));
#1182=CARTESIAN_POINT('',(0.0026,0.0039,0.));
#1183=CARTESIAN_POINT('',(0.002,0.0045,0.));
#1184=CARTESIAN_POINT('',(0.002625,0.003875,0.005));
#1185=CARTESIAN_POINT('',(0.0014,0.0051,0.005));
#1186=CARTESIAN_POINT('',(0.0014,0.0051,0.));
#1187=CARTESIAN_POINT('',(-0.0026,0.0051,0.));
#1188=CARTESIAN_POINT('',(-0.0013,0.0051,0.005));
#1189=CARTESIAN_POINT('',(-0.0014,0.0051,0.005));
#1190=CARTESIAN_POINT('',(-0.0014,0.0051,0.));
#1191=CARTESIAN_POINT('',(-0.002,0.0045,0.));
#1192=CARTESIAN_POINT('',(-0.002625,0.003875,0.005));
#1193=CARTESIAN_POINT('',(-0.0026,0.0039,0.005));
#1194=CARTESIAN_POINT('',(-0.0026,0.0039,0.));
#1195=CARTESIAN_POINT('',(-0.0026,-0.0051,0.));
#1196=CARTESIAN_POINT('',(-0.0026,7.05454213563901E-19,0.0091));
#1197=CARTESIAN_POINT('',(-0.0026,0.000600000000000001,0.0091));
#1198=CARTESIAN_POINT('',(-0.0026,-0.00255,0.005));
#1199=CARTESIAN_POINT('',(0.0029,0.00402426406871193,0.));
#1200=CARTESIAN_POINT('',(0.00167071067811865,0.00525355339059327,0.));
#1201=CARTESIAN_POINT('',(0.00167071067811865,0.00525355339059327,0.005));
#1202=CARTESIAN_POINT('',(0.00275355339059327,0.00417071067811865,0.));
#1203=CARTESIAN_POINT('',(0.00275355339059327,0.00417071067811865,0.005));
#1204=CARTESIAN_POINT('',(0.0029,0.00402426406871193,0.005));
#1205=CARTESIAN_POINT('',(-0.00152426406871193,0.0054,0.));
#1206=CARTESIAN_POINT('',(-0.00275355339059327,0.00417071067811865,0.));
#1207=CARTESIAN_POINT('',(-0.00275355339059327,0.00417071067811865,0.005));
#1208=CARTESIAN_POINT('',(-0.00167071067811865,0.00525355339059328,0.));
#1209=CARTESIAN_POINT('',(-0.00167071067811865,0.00525355339059328,0.005));
#1210=CARTESIAN_POINT('',(-0.00152426406871193,0.0054,0.005));
#1211=CARTESIAN_POINT('',(-0.0029,-0.0054,0.));
#1212=CARTESIAN_POINT('',(-0.0024,-0.0054,0.));
#1213=CARTESIAN_POINT('',(-0.0024,-0.0054,0.005));
#1214=CARTESIAN_POINT('',(-0.0029,-0.0054,0.005));
#1215=CARTESIAN_POINT('',(0.0024,-0.0054,0.005));
#1216=CARTESIAN_POINT('',(0.0024,-0.0054,0.));
#1217=CARTESIAN_POINT('',(0.0024,-0.0049,0.));
#1218=CARTESIAN_POINT('',(0.0024,-0.0049,0.005));
#1219=CARTESIAN_POINT('',(0.0029,-0.0049,0.005));
#1220=CARTESIAN_POINT('',(0.0029,-0.0049,0.));
#1221=CARTESIAN_POINT('',(0.0029,-0.0054,0.));
#1222=CARTESIAN_POINT('',(0.0029,0.00381715728752538,0.));
#1223=CARTESIAN_POINT('',(0.0029,0.00381715728752538,0.005));
#1224=CARTESIAN_POINT('',(0.0029,-0.0054,0.005));
#1225=CARTESIAN_POINT('',(0.0024,0.00381715728752538,0.));
#1226=CARTESIAN_POINT('',(0.0024,0.00381715728752538,0.005));
#1227=CARTESIAN_POINT('',(0.00131715728752538,0.0049,0.));
#1228=CARTESIAN_POINT('',(0.00131715728752538,0.0049,0.005));
#1229=CARTESIAN_POINT('',(0.00131715728752538,0.0054,0.005));
#1230=CARTESIAN_POINT('',(0.00131715728752538,0.0054,0.));
#1231=CARTESIAN_POINT('',(0.00152426406871193,0.0054,0.));
#1232=CARTESIAN_POINT('',(-0.00131715728752538,0.0054,0.));
#1233=CARTESIAN_POINT('',(-0.00131715728752538,0.0054,0.005));
#1234=CARTESIAN_POINT('',(0.00152426406871193,0.0054,0.005));
#1235=CARTESIAN_POINT('',(-0.00131715728752538,0.0049,0.));
#1236=CARTESIAN_POINT('',(-0.00131715728752538,0.0049,0.005));
#1237=CARTESIAN_POINT('',(-0.0024,0.00381715728752538,0.));
#1238=CARTESIAN_POINT('',(-0.0024,0.00381715728752538,0.005));
#1239=CARTESIAN_POINT('',(-0.0029,0.00381715728752538,0.005));
#1240=CARTESIAN_POINT('',(-0.0029,0.00381715728752538,0.));
#1241=CARTESIAN_POINT('',(-0.0029,0.00402426406871193,0.));
#1242=CARTESIAN_POINT('',(-0.0029,-0.0049,0.));
#1243=CARTESIAN_POINT('',(-0.0029,-0.0049,0.005));
#1244=CARTESIAN_POINT('',(-0.0029,0.00402426406871193,0.005));
#1245=CARTESIAN_POINT('',(0.,0.,0.005));
#1246=CARTESIAN_POINT('',(-0.0024,-0.0049,0.005));
#1247=CARTESIAN_POINT('',(-0.0024,-0.0049,0.));
#1248=CARTESIAN_POINT('',(2.8635365491617E-18,-0.009,0.004));
#1249=CARTESIAN_POINT('',(2.8635365491617E-18,-0.009,0.00125));
#1250=CARTESIAN_POINT('',(-0.000749999999999997,-0.009,0.00125));
#1251=CARTESIAN_POINT('',(2.8635365491617E-18,-0.009,0.000625));
#1252=CARTESIAN_POINT('',(-1.53993418412574E-18,0.009,0.004));
#1253=CARTESIAN_POINT('',(-1.53993418412574E-18,0.009,0.00125));
#1254=CARTESIAN_POINT('',(-0.000750000000000002,0.009,0.00125));
#1255=CARTESIAN_POINT('',(-1.53993418412574E-18,0.009,0.000625));
#1256=CARTESIAN_POINT('',(-0.00159,6.47051856539349E-19,0.0091));
#1257=CARTESIAN_POINT('',(-0.00159,6.47051856539349E-19,0.0091));
#1258=MECHANICAL_DESIGN_GEOMETRIC_PRESENTATION_REPRESENTATION('',(#745),#1259);
#1259=(
GEOMETRIC_REPRESENTATION_CONTEXT(3)
GLOBAL_UNCERTAINTY_ASSIGNED_CONTEXT((#1260))
GLOBAL_UNIT_ASSIGNED_CONTEXT((#1263,#1262,#1261))
REPRESENTATION_CONTEXT('XT30_Rahmen_1-Fach','TOP_LEVEL_ASSEMBLY_PART')
);
#1260=UNCERTAINTY_MEASURE_WITH_UNIT(LENGTH_MEASURE(1.E-06),#1263,'DISTANCE_ACCURACY_VALUE','Maximum Tolerance applied to model');
#1261=(
NAMED_UNIT(*)
SI_UNIT($,.STERADIAN.)
SOLID_ANGLE_UNIT()
);
#1262=(
NAMED_UNIT(*)
PLANE_ANGLE_UNIT()
SI_UNIT($,.RADIAN.)
);
#1263=(
LENGTH_UNIT()
NAMED_UNIT(*)
SI_UNIT($,.METRE.)
);
#1264=PRODUCT_DEFINITION_SHAPE('','',#1265);
#1265=PRODUCT_DEFINITION('','',#1267,#1266);
#1266=PRODUCT_DEFINITION_CONTEXT('',#1273,'design');
#1267=PRODUCT_DEFINITION_FORMATION_WITH_SPECIFIED_SOURCE('','',#1269,.NOT_KNOWN.);
#1268=PRODUCT_RELATED_PRODUCT_CATEGORY('','',(#1269));
#1269=PRODUCT('XT30_Rahmen_1-Fach','XT30_Rahmen_1-Fach','XT30_Rahmen_1-Fach',(#1271));
#1270=PRODUCT_CATEGORY('','');
#1271=PRODUCT_CONTEXT('',#1273,'mechanical');
#1272=APPLICATION_PROTOCOL_DEFINITION('international standard','ap242_managed_model_based_3d_engineering',2020,#1273);
#1273=APPLICATION_CONTEXT('managed model based 3d engineering');
ENDSEC;
END-ISO-10303-21;
