ISO-10303-21;
HEADER;
/*Generated by software containing ST-Developer
 * from STEP Tools, Inc. (www.steptools.com) 
 */
/*OPTION: using custom renumber hook */
/*description */
/*implementation_level */
FILE_DESCRIPTION(('STEP AP242 Edition 2','STEP AP242 Edition 2''CAx-IF Rec.Pracs.---Representation and Presentation of Product Manufa
cturing Information (PMI)---4.0---2014-10-13','STEP AP242 Edition 2''CAx-IF Rec.Pracs.---Representation and Presentation of Product Manufa
cturing Information (PMI)---4.0---2014-10-13''CAx-IF Rec.Pracs.---3D Tessellated Geometry---0.4---2014-09-14','STEP AP242 Edition 2''CAx-IF Rec.Pracs.---Representation and Presentation of Product Manufa
cturing Information (PMI)---4.0---2014-10-13''CAx-IF Rec.Pracs.---3D Tessellated Geometry---0.4---2014-09-14''2;1','STEP AP242 Edition 2''CAx-IF Rec.Pracs.---Representation and Presentation of Product Manufa
cturing Information (PMI)---4.0---2014-10-13''CAx-IF Rec.Pracs.---3D Tessellated Geometry---0.4---2014-09-14''2;1''CAx-IF Rec.Pracs.---User Defined Attributes---1.5---2016-08-15'),'2;1');
/*name */
/*time_stamp */
/*author */
/*organization */
/*preprocessor_version */
/*originating_system */
/*authorisation */
FILE_NAME('/vol/tmp/translate-1135863895354867582/MTF-02P-V1.2 case - Part 2.step','2026-03-10T17:38:28',(''),(''),'ST-DEVELOPER v20','ONSHAPE BY PTC INC, 1.211','  ');
FILE_SCHEMA(('AP242_MANAGED_MODEL_BASED_3D_ENGINEERING_MIM_LF { 1 0 10303 442 3 1 4 }'));
ENDSEC;
DATA;
#10=SHAPE_REPRESENTATION_RELATIONSHIP('','',#561,#11);
#11=ADVANCED_BREP_SHAPE_REPRESENTATION('',(#559),#935);
#12=CYLINDRICAL_SURFACE('',#576,0.0025);
#13=CYLINDRICAL_SURFACE('',#579,0.0025);
#14=CYLINDRICAL_SURFACE('',#583,0.00254);
#15=CYLINDRICAL_SURFACE('',#587,0.0025);
#16=CYLINDRICAL_SURFACE('',#590,0.0025);
#17=CYLINDRICAL_SURFACE('',#594,0.00254);
#18=CYLINDRICAL_SURFACE('',#597,0.001397);
#19=CYLINDRICAL_SURFACE('',#600,0.001397);
#20=CYLINDRICAL_SURFACE('',#604,0.001446);
#21=CYLINDRICAL_SURFACE('',#607,0.001446);
#22=CYLINDRICAL_SURFACE('',#610,0.001446);
#23=CYLINDRICAL_SURFACE('',#613,0.001446);
#24=LINE('',#785,#76);
#25=LINE('',#787,#77);
#26=LINE('',#791,#78);
#27=LINE('',#793,#79);
#28=LINE('',#797,#80);
#29=LINE('',#801,#81);
#30=LINE('',#803,#82);
#31=LINE('',#807,#83);
#32=LINE('',#809,#84);
#33=LINE('',#813,#85);
#34=LINE('',#814,#86);
#35=LINE('',#819,#87);
#36=LINE('',#823,#88);
#37=LINE('',#827,#89);
#38=LINE('',#831,#90);
#39=LINE('',#835,#91);
#40=LINE('',#837,#92);
#41=LINE('',#839,#93);
#42=LINE('',#841,#94);
#43=LINE('',#845,#95);
#44=LINE('',#847,#96);
#45=LINE('',#849,#97);
#46=LINE('',#851,#98);
#47=LINE('',#853,#99);
#48=LINE('',#857,#100);
#49=LINE('',#859,#101);
#50=LINE('',#861,#102);
#51=LINE('',#863,#103);
#52=LINE('',#865,#104);
#53=LINE('',#869,#105);
#54=LINE('',#871,#106);
#55=LINE('',#873,#107);
#56=LINE('',#877,#108);
#57=LINE('',#879,#109);
#58=LINE('',#881,#110);
#59=LINE('',#883,#111);
#60=LINE('',#885,#112);
#61=LINE('',#889,#113);
#62=LINE('',#891,#114);
#63=LINE('',#896,#115);
#64=LINE('',#902,#116);
#65=LINE('',#904,#117);
#66=LINE('',#906,#118);
#67=LINE('',#910,#119);
#68=LINE('',#912,#120);
#69=LINE('',#914,#121);
#70=LINE('',#918,#122);
#71=LINE('',#920,#123);
#72=LINE('',#922,#124);
#73=LINE('',#926,#125);
#74=LINE('',#928,#126);
#75=LINE('',#930,#127);
#76=VECTOR('',#626,1.);
#77=VECTOR('',#627,1.);
#78=VECTOR('',#630,1.);
#79=VECTOR('',#631,1.);
#80=VECTOR('',#634,1.);
#81=VECTOR('',#637,1.);
#82=VECTOR('',#638,1.);
#83=VECTOR('',#641,1.);
#84=VECTOR('',#642,1.);
#85=VECTOR('',#645,1.);
#86=VECTOR('',#646,1.);
#87=VECTOR('',#649,1.);
#88=VECTOR('',#652,1.);
#89=VECTOR('',#655,1.);
#90=VECTOR('',#660,1.);
#91=VECTOR('',#663,1.);
#92=VECTOR('',#666,1.);
#93=VECTOR('',#667,1.);
#94=VECTOR('',#670,1.);
#95=VECTOR('',#675,1.);
#96=VECTOR('',#676,1.);
#97=VECTOR('',#679,1.);
#98=VECTOR('',#680,1.);
#99=VECTOR('',#683,1.);
#100=VECTOR('',#688,1.);
#101=VECTOR('',#689,1.);
#102=VECTOR('',#692,1.);
#103=VECTOR('',#693,1.);
#104=VECTOR('',#696,1.);
#105=VECTOR('',#701,1.);
#106=VECTOR('',#702,1.);
#107=VECTOR('',#705,1.);
#108=VECTOR('',#710,1.);
#109=VECTOR('',#711,1.);
#110=VECTOR('',#714,1.);
#111=VECTOR('',#715,1.);
#112=VECTOR('',#718,1.);
#113=VECTOR('',#723,1.);
#114=VECTOR('',#724,1.);
#115=VECTOR('',#731,1.);
#116=VECTOR('',#740,1.);
#117=VECTOR('',#741,1.);
#118=VECTOR('',#742,1.);
#119=VECTOR('',#747,1.);
#120=VECTOR('',#750,1.);
#121=VECTOR('',#751,1.);
#122=VECTOR('',#756,1.);
#123=VECTOR('',#759,1.);
#124=VECTOR('',#760,1.);
#125=VECTOR('',#765,1.);
#126=VECTOR('',#768,1.);
#127=VECTOR('',#769,1.);
#128=ORIENTED_EDGE('',*,*,#280,.T.);
#129=ORIENTED_EDGE('',*,*,#281,.F.);
#130=ORIENTED_EDGE('',*,*,#282,.T.);
#131=ORIENTED_EDGE('',*,*,#283,.T.);
#132=ORIENTED_EDGE('',*,*,#284,.T.);
#133=ORIENTED_EDGE('',*,*,#285,.T.);
#134=ORIENTED_EDGE('',*,*,#286,.F.);
#135=ORIENTED_EDGE('',*,*,#287,.T.);
#136=ORIENTED_EDGE('',*,*,#288,.T.);
#137=ORIENTED_EDGE('',*,*,#289,.T.);
#138=ORIENTED_EDGE('',*,*,#290,.T.);
#139=ORIENTED_EDGE('',*,*,#291,.T.);
#140=ORIENTED_EDGE('',*,*,#292,.T.);
#141=ORIENTED_EDGE('',*,*,#293,.F.);
#142=ORIENTED_EDGE('',*,*,#294,.F.);
#143=ORIENTED_EDGE('',*,*,#295,.T.);
#144=ORIENTED_EDGE('',*,*,#296,.T.);
#145=ORIENTED_EDGE('',*,*,#297,.T.);
#146=ORIENTED_EDGE('',*,*,#298,.F.);
#147=ORIENTED_EDGE('',*,*,#299,.T.);
#148=ORIENTED_EDGE('',*,*,#300,.F.);
#149=ORIENTED_EDGE('',*,*,#301,.T.);
#150=ORIENTED_EDGE('',*,*,#302,.F.);
#151=ORIENTED_EDGE('',*,*,#303,.T.);
#152=ORIENTED_EDGE('',*,*,#304,.F.);
#153=ORIENTED_EDGE('',*,*,#305,.T.);
#154=ORIENTED_EDGE('',*,*,#282,.F.);
#155=ORIENTED_EDGE('',*,*,#306,.F.);
#156=ORIENTED_EDGE('',*,*,#307,.T.);
#157=ORIENTED_EDGE('',*,*,#308,.T.);
#158=ORIENTED_EDGE('',*,*,#297,.F.);
#159=ORIENTED_EDGE('',*,*,#309,.F.);
#160=ORIENTED_EDGE('',*,*,#310,.T.);
#161=ORIENTED_EDGE('',*,*,#306,.T.);
#162=ORIENTED_EDGE('',*,*,#296,.F.);
#163=ORIENTED_EDGE('',*,*,#311,.F.);
#164=ORIENTED_EDGE('',*,*,#312,.T.);
#165=ORIENTED_EDGE('',*,*,#309,.T.);
#166=ORIENTED_EDGE('',*,*,#295,.F.);
#167=ORIENTED_EDGE('',*,*,#313,.F.);
#168=ORIENTED_EDGE('',*,*,#314,.T.);
#169=ORIENTED_EDGE('',*,*,#311,.T.);
#170=ORIENTED_EDGE('',*,*,#294,.T.);
#171=ORIENTED_EDGE('',*,*,#315,.F.);
#172=ORIENTED_EDGE('',*,*,#316,.F.);
#173=ORIENTED_EDGE('',*,*,#313,.T.);
#174=ORIENTED_EDGE('',*,*,#293,.T.);
#175=ORIENTED_EDGE('',*,*,#317,.F.);
#176=ORIENTED_EDGE('',*,*,#318,.F.);
#177=ORIENTED_EDGE('',*,*,#315,.T.);
#178=ORIENTED_EDGE('',*,*,#292,.F.);
#179=ORIENTED_EDGE('',*,*,#319,.F.);
#180=ORIENTED_EDGE('',*,*,#320,.T.);
#181=ORIENTED_EDGE('',*,*,#317,.T.);
#182=ORIENTED_EDGE('',*,*,#291,.F.);
#183=ORIENTED_EDGE('',*,*,#321,.F.);
#184=ORIENTED_EDGE('',*,*,#322,.T.);
#185=ORIENTED_EDGE('',*,*,#319,.T.);
#186=ORIENTED_EDGE('',*,*,#290,.F.);
#187=ORIENTED_EDGE('',*,*,#323,.F.);
#188=ORIENTED_EDGE('',*,*,#324,.T.);
#189=ORIENTED_EDGE('',*,*,#321,.T.);
#190=ORIENTED_EDGE('',*,*,#289,.F.);
#191=ORIENTED_EDGE('',*,*,#325,.F.);
#192=ORIENTED_EDGE('',*,*,#326,.T.);
#193=ORIENTED_EDGE('',*,*,#323,.T.);
#194=ORIENTED_EDGE('',*,*,#288,.F.);
#195=ORIENTED_EDGE('',*,*,#327,.F.);
#196=ORIENTED_EDGE('',*,*,#328,.T.);
#197=ORIENTED_EDGE('',*,*,#325,.T.);
#198=ORIENTED_EDGE('',*,*,#287,.F.);
#199=ORIENTED_EDGE('',*,*,#329,.F.);
#200=ORIENTED_EDGE('',*,*,#330,.T.);
#201=ORIENTED_EDGE('',*,*,#327,.T.);
#202=ORIENTED_EDGE('',*,*,#286,.T.);
#203=ORIENTED_EDGE('',*,*,#331,.F.);
#204=ORIENTED_EDGE('',*,*,#332,.F.);
#205=ORIENTED_EDGE('',*,*,#329,.T.);
#206=ORIENTED_EDGE('',*,*,#285,.F.);
#207=ORIENTED_EDGE('',*,*,#333,.F.);
#208=ORIENTED_EDGE('',*,*,#334,.T.);
#209=ORIENTED_EDGE('',*,*,#331,.T.);
#210=ORIENTED_EDGE('',*,*,#284,.F.);
#211=ORIENTED_EDGE('',*,*,#335,.F.);
#212=ORIENTED_EDGE('',*,*,#336,.T.);
#213=ORIENTED_EDGE('',*,*,#333,.T.);
#214=ORIENTED_EDGE('',*,*,#337,.F.);
#215=ORIENTED_EDGE('',*,*,#281,.T.);
#216=ORIENTED_EDGE('',*,*,#283,.F.);
#217=ORIENTED_EDGE('',*,*,#308,.F.);
#218=ORIENTED_EDGE('',*,*,#338,.T.);
#219=ORIENTED_EDGE('',*,*,#335,.T.);
#220=ORIENTED_EDGE('',*,*,#339,.T.);
#221=ORIENTED_EDGE('',*,*,#280,.F.);
#222=ORIENTED_EDGE('',*,*,#307,.F.);
#223=ORIENTED_EDGE('',*,*,#310,.F.);
#224=ORIENTED_EDGE('',*,*,#312,.F.);
#225=ORIENTED_EDGE('',*,*,#314,.F.);
#226=ORIENTED_EDGE('',*,*,#316,.T.);
#227=ORIENTED_EDGE('',*,*,#318,.T.);
#228=ORIENTED_EDGE('',*,*,#320,.F.);
#229=ORIENTED_EDGE('',*,*,#322,.F.);
#230=ORIENTED_EDGE('',*,*,#324,.F.);
#231=ORIENTED_EDGE('',*,*,#326,.F.);
#232=ORIENTED_EDGE('',*,*,#328,.F.);
#233=ORIENTED_EDGE('',*,*,#330,.F.);
#234=ORIENTED_EDGE('',*,*,#332,.T.);
#235=ORIENTED_EDGE('',*,*,#334,.F.);
#236=ORIENTED_EDGE('',*,*,#336,.F.);
#237=ORIENTED_EDGE('',*,*,#338,.F.);
#238=ORIENTED_EDGE('',*,*,#337,.T.);
#239=ORIENTED_EDGE('',*,*,#339,.F.);
#240=ORIENTED_EDGE('',*,*,#298,.T.);
#241=ORIENTED_EDGE('',*,*,#340,.F.);
#242=ORIENTED_EDGE('',*,*,#341,.F.);
#243=ORIENTED_EDGE('',*,*,#342,.T.);
#244=ORIENTED_EDGE('',*,*,#299,.F.);
#245=ORIENTED_EDGE('',*,*,#342,.F.);
#246=ORIENTED_EDGE('',*,*,#343,.T.);
#247=ORIENTED_EDGE('',*,*,#344,.T.);
#248=ORIENTED_EDGE('',*,*,#300,.T.);
#249=ORIENTED_EDGE('',*,*,#344,.F.);
#250=ORIENTED_EDGE('',*,*,#345,.F.);
#251=ORIENTED_EDGE('',*,*,#346,.T.);
#252=ORIENTED_EDGE('',*,*,#301,.F.);
#253=ORIENTED_EDGE('',*,*,#346,.F.);
#254=ORIENTED_EDGE('',*,*,#347,.T.);
#255=ORIENTED_EDGE('',*,*,#348,.T.);
#256=ORIENTED_EDGE('',*,*,#302,.T.);
#257=ORIENTED_EDGE('',*,*,#348,.F.);
#258=ORIENTED_EDGE('',*,*,#349,.F.);
#259=ORIENTED_EDGE('',*,*,#350,.T.);
#260=ORIENTED_EDGE('',*,*,#303,.F.);
#261=ORIENTED_EDGE('',*,*,#350,.F.);
#262=ORIENTED_EDGE('',*,*,#351,.T.);
#263=ORIENTED_EDGE('',*,*,#352,.T.);
#264=ORIENTED_EDGE('',*,*,#304,.T.);
#265=ORIENTED_EDGE('',*,*,#352,.F.);
#266=ORIENTED_EDGE('',*,*,#353,.F.);
#267=ORIENTED_EDGE('',*,*,#354,.T.);
#268=ORIENTED_EDGE('',*,*,#305,.F.);
#269=ORIENTED_EDGE('',*,*,#354,.F.);
#270=ORIENTED_EDGE('',*,*,#355,.T.);
#271=ORIENTED_EDGE('',*,*,#340,.T.);
#272=ORIENTED_EDGE('',*,*,#341,.T.);
#273=ORIENTED_EDGE('',*,*,#355,.F.);
#274=ORIENTED_EDGE('',*,*,#353,.T.);
#275=ORIENTED_EDGE('',*,*,#351,.F.);
#276=ORIENTED_EDGE('',*,*,#349,.T.);
#277=ORIENTED_EDGE('',*,*,#347,.F.);
#278=ORIENTED_EDGE('',*,*,#345,.T.);
#279=ORIENTED_EDGE('',*,*,#343,.F.);
#280=EDGE_CURVE('',#356,#356,#408,.T.);
#281=EDGE_CURVE('',#357,#357,#409,.T.);
#282=EDGE_CURVE('',#358,#359,#410,.T.);
#283=EDGE_CURVE('',#359,#360,#24,.T.);
#284=EDGE_CURVE('',#360,#361,#25,.T.);
#285=EDGE_CURVE('',#361,#362,#411,.T.);
#286=EDGE_CURVE('',#363,#362,#26,.T.);
#287=EDGE_CURVE('',#363,#364,#27,.T.);
#288=EDGE_CURVE('',#364,#365,#412,.T.);
#289=EDGE_CURVE('',#365,#366,#28,.T.);
#290=EDGE_CURVE('',#366,#367,#413,.T.);
#291=EDGE_CURVE('',#367,#368,#29,.T.);
#292=EDGE_CURVE('',#368,#369,#30,.T.);
#293=EDGE_CURVE('',#370,#369,#414,.T.);
#294=EDGE_CURVE('',#371,#370,#31,.T.);
#295=EDGE_CURVE('',#371,#372,#32,.T.);
#296=EDGE_CURVE('',#372,#373,#415,.T.);
#297=EDGE_CURVE('',#373,#358,#33,.T.);
#298=EDGE_CURVE('',#374,#375,#34,.T.);
#299=EDGE_CURVE('',#374,#376,#416,.T.);
#300=EDGE_CURVE('',#377,#376,#35,.T.);
#301=EDGE_CURVE('',#377,#378,#417,.T.);
#302=EDGE_CURVE('',#379,#378,#36,.T.);
#303=EDGE_CURVE('',#379,#380,#418,.T.);
#304=EDGE_CURVE('',#381,#380,#37,.T.);
#305=EDGE_CURVE('',#381,#375,#419,.T.);
#306=EDGE_CURVE('',#382,#358,#38,.T.);
#307=EDGE_CURVE('',#382,#383,#420,.T.);
#308=EDGE_CURVE('',#383,#359,#39,.T.);
#309=EDGE_CURVE('',#384,#373,#40,.T.);
#310=EDGE_CURVE('',#384,#382,#41,.T.);
#311=EDGE_CURVE('',#385,#372,#42,.T.);
#312=EDGE_CURVE('',#385,#384,#421,.T.);
#313=EDGE_CURVE('',#386,#371,#43,.T.);
#314=EDGE_CURVE('',#386,#385,#44,.T.);
#315=EDGE_CURVE('',#387,#370,#45,.T.);
#316=EDGE_CURVE('',#386,#387,#46,.T.);
#317=EDGE_CURVE('',#388,#369,#47,.T.);
#318=EDGE_CURVE('',#387,#388,#422,.T.);
#319=EDGE_CURVE('',#389,#368,#48,.T.);
#320=EDGE_CURVE('',#389,#388,#49,.T.);
#321=EDGE_CURVE('',#390,#367,#50,.T.);
#322=EDGE_CURVE('',#390,#389,#51,.T.);
#323=EDGE_CURVE('',#391,#366,#52,.T.);
#324=EDGE_CURVE('',#391,#390,#423,.T.);
#325=EDGE_CURVE('',#392,#365,#53,.T.);
#326=EDGE_CURVE('',#392,#391,#54,.T.);
#327=EDGE_CURVE('',#393,#364,#55,.T.);
#328=EDGE_CURVE('',#393,#392,#424,.T.);
#329=EDGE_CURVE('',#394,#363,#56,.T.);
#330=EDGE_CURVE('',#394,#393,#57,.T.);
#331=EDGE_CURVE('',#395,#362,#58,.T.);
#332=EDGE_CURVE('',#394,#395,#59,.T.);
#333=EDGE_CURVE('',#396,#361,#60,.T.);
#334=EDGE_CURVE('',#396,#395,#425,.T.);
#335=EDGE_CURVE('',#397,#360,#61,.T.);
#336=EDGE_CURVE('',#397,#396,#62,.T.);
#337=EDGE_CURVE('',#398,#398,#426,.T.);
#338=EDGE_CURVE('',#383,#397,#63,.T.);
#339=EDGE_CURVE('',#399,#399,#427,.T.);
#340=EDGE_CURVE('',#400,#375,#64,.T.);
#341=EDGE_CURVE('',#401,#400,#65,.T.);
#342=EDGE_CURVE('',#401,#374,#66,.T.);
#343=EDGE_CURVE('',#401,#402,#428,.T.);
#344=EDGE_CURVE('',#402,#376,#67,.T.);
#345=EDGE_CURVE('',#403,#402,#68,.T.);
#346=EDGE_CURVE('',#403,#377,#69,.T.);
#347=EDGE_CURVE('',#403,#404,#429,.T.);
#348=EDGE_CURVE('',#404,#378,#70,.T.);
#349=EDGE_CURVE('',#405,#404,#71,.T.);
#350=EDGE_CURVE('',#405,#379,#72,.T.);
#351=EDGE_CURVE('',#405,#406,#430,.T.);
#352=EDGE_CURVE('',#406,#380,#73,.T.);
#353=EDGE_CURVE('',#407,#406,#74,.T.);
#354=EDGE_CURVE('',#407,#381,#75,.T.);
#355=EDGE_CURVE('',#407,#400,#431,.T.);
#356=VERTEX_POINT('',#779);
#357=VERTEX_POINT('',#781);
#358=VERTEX_POINT('',#783);
#359=VERTEX_POINT('',#784);
#360=VERTEX_POINT('',#786);
#361=VERTEX_POINT('',#788);
#362=VERTEX_POINT('',#790);
#363=VERTEX_POINT('',#792);
#364=VERTEX_POINT('',#794);
#365=VERTEX_POINT('',#796);
#366=VERTEX_POINT('',#798);
#367=VERTEX_POINT('',#800);
#368=VERTEX_POINT('',#802);
#369=VERTEX_POINT('',#804);
#370=VERTEX_POINT('',#806);
#371=VERTEX_POINT('',#808);
#372=VERTEX_POINT('',#810);
#373=VERTEX_POINT('',#812);
#374=VERTEX_POINT('',#815);
#375=VERTEX_POINT('',#816);
#376=VERTEX_POINT('',#818);
#377=VERTEX_POINT('',#820);
#378=VERTEX_POINT('',#822);
#379=VERTEX_POINT('',#824);
#380=VERTEX_POINT('',#826);
#381=VERTEX_POINT('',#828);
#382=VERTEX_POINT('',#832);
#383=VERTEX_POINT('',#834);
#384=VERTEX_POINT('',#838);
#385=VERTEX_POINT('',#842);
#386=VERTEX_POINT('',#846);
#387=VERTEX_POINT('',#850);
#388=VERTEX_POINT('',#854);
#389=VERTEX_POINT('',#858);
#390=VERTEX_POINT('',#862);
#391=VERTEX_POINT('',#866);
#392=VERTEX_POINT('',#870);
#393=VERTEX_POINT('',#874);
#394=VERTEX_POINT('',#878);
#395=VERTEX_POINT('',#882);
#396=VERTEX_POINT('',#886);
#397=VERTEX_POINT('',#890);
#398=VERTEX_POINT('',#894);
#399=VERTEX_POINT('',#899);
#400=VERTEX_POINT('',#903);
#401=VERTEX_POINT('',#905);
#402=VERTEX_POINT('',#909);
#403=VERTEX_POINT('',#913);
#404=VERTEX_POINT('',#917);
#405=VERTEX_POINT('',#921);
#406=VERTEX_POINT('',#925);
#407=VERTEX_POINT('',#929);
#408=CIRCLE('',#564,0.001397);
#409=CIRCLE('',#565,0.001397);
#410=CIRCLE('',#566,0.0025);
#411=CIRCLE('',#567,0.00254);
#412=CIRCLE('',#568,0.0025);
#413=CIRCLE('',#569,0.0025);
#414=CIRCLE('',#570,0.00254);
#415=CIRCLE('',#571,0.0025);
#416=CIRCLE('',#572,0.001446);
#417=CIRCLE('',#573,0.001446);
#418=CIRCLE('',#574,0.001446);
#419=CIRCLE('',#575,0.001446);
#420=CIRCLE('',#577,0.0025);
#421=CIRCLE('',#580,0.0025);
#422=CIRCLE('',#584,0.00254);
#423=CIRCLE('',#588,0.0025);
#424=CIRCLE('',#591,0.0025);
#425=CIRCLE('',#595,0.00254);
#426=CIRCLE('',#598,0.001397);
#427=CIRCLE('',#601,0.001397);
#428=CIRCLE('',#605,0.001446);
#429=CIRCLE('',#608,0.001446);
#430=CIRCLE('',#611,0.001446);
#431=CIRCLE('',#614,0.001446);
#432=EDGE_LOOP('',(#128));
#433=EDGE_LOOP('',(#129));
#434=EDGE_LOOP('',(#130,#131,#132,#133,#134,#135,#136,#137,#138,#139,#140,#141,#142,#143,#144,#145));
#435=EDGE_LOOP('',(#146,#147,#148,#149,#150,#151,#152,#153));
#436=EDGE_LOOP('',(#154,#155,#156,#157));
#437=EDGE_LOOP('',(#158,#159,#160,#161));
#438=EDGE_LOOP('',(#162,#163,#164,#165));
#439=EDGE_LOOP('',(#166,#167,#168,#169));
#440=EDGE_LOOP('',(#170,#171,#172,#173));
#441=EDGE_LOOP('',(#174,#175,#176,#177));
#442=EDGE_LOOP('',(#178,#179,#180,#181));
#443=EDGE_LOOP('',(#182,#183,#184,#185));
#444=EDGE_LOOP('',(#186,#187,#188,#189));
#445=EDGE_LOOP('',(#190,#191,#192,#193));
#446=EDGE_LOOP('',(#194,#195,#196,#197));
#447=EDGE_LOOP('',(#198,#199,#200,#201));
#448=EDGE_LOOP('',(#202,#203,#204,#205));
#449=EDGE_LOOP('',(#206,#207,#208,#209));
#450=EDGE_LOOP('',(#210,#211,#212,#213));
#451=EDGE_LOOP('',(#214));
#452=EDGE_LOOP('',(#215));
#453=EDGE_LOOP('',(#216,#217,#218,#219));
#454=EDGE_LOOP('',(#220));
#455=EDGE_LOOP('',(#221));
#456=EDGE_LOOP('',(#222,#223,#224,#225,#226,#227,#228,#229,#230,#231,#232,#233,#234,#235,#236,#237));
#457=EDGE_LOOP('',(#238));
#458=EDGE_LOOP('',(#239));
#459=EDGE_LOOP('',(#240,#241,#242,#243));
#460=EDGE_LOOP('',(#244,#245,#246,#247));
#461=EDGE_LOOP('',(#248,#249,#250,#251));
#462=EDGE_LOOP('',(#252,#253,#254,#255));
#463=EDGE_LOOP('',(#256,#257,#258,#259));
#464=EDGE_LOOP('',(#260,#261,#262,#263));
#465=EDGE_LOOP('',(#264,#265,#266,#267));
#466=EDGE_LOOP('',(#268,#269,#270,#271));
#467=EDGE_LOOP('',(#272,#273,#274,#275,#276,#277,#278,#279));
#468=FACE_BOUND('',#432,.T.);
#469=FACE_BOUND('',#433,.T.);
#470=FACE_BOUND('',#434,.T.);
#471=FACE_BOUND('',#435,.T.);
#472=FACE_BOUND('',#436,.T.);
#473=FACE_BOUND('',#437,.T.);
#474=FACE_BOUND('',#438,.T.);
#475=FACE_BOUND('',#439,.T.);
#476=FACE_BOUND('',#440,.T.);
#477=FACE_BOUND('',#441,.T.);
#478=FACE_BOUND('',#442,.T.);
#479=FACE_BOUND('',#443,.T.);
#480=FACE_BOUND('',#444,.T.);
#481=FACE_BOUND('',#445,.T.);
#482=FACE_BOUND('',#446,.T.);
#483=FACE_BOUND('',#447,.T.);
#484=FACE_BOUND('',#448,.T.);
#485=FACE_BOUND('',#449,.T.);
#486=FACE_BOUND('',#450,.T.);
#487=FACE_BOUND('',#451,.T.);
#488=FACE_BOUND('',#452,.T.);
#489=FACE_BOUND('',#453,.T.);
#490=FACE_BOUND('',#454,.T.);
#491=FACE_BOUND('',#455,.T.);
#492=FACE_BOUND('',#456,.T.);
#493=FACE_BOUND('',#457,.T.);
#494=FACE_BOUND('',#458,.T.);
#495=FACE_BOUND('',#459,.T.);
#496=FACE_BOUND('',#460,.T.);
#497=FACE_BOUND('',#461,.T.);
#498=FACE_BOUND('',#462,.T.);
#499=FACE_BOUND('',#463,.T.);
#500=FACE_BOUND('',#464,.T.);
#501=FACE_BOUND('',#465,.T.);
#502=FACE_BOUND('',#466,.T.);
#503=FACE_BOUND('',#467,.T.);
#504=PLANE('',#563);
#505=PLANE('',#578);
#506=PLANE('',#581);
#507=PLANE('',#582);
#508=PLANE('',#585);
#509=PLANE('',#586);
#510=PLANE('',#589);
#511=PLANE('',#592);
#512=PLANE('',#593);
#513=PLANE('',#596);
#514=PLANE('',#599);
#515=PLANE('',#602);
#516=PLANE('',#603);
#517=PLANE('',#606);
#518=PLANE('',#609);
#519=PLANE('',#612);
#520=PLANE('',#615);
#521=ADVANCED_FACE('',(#468,#469,#470,#471),#504,.F.);
#522=ADVANCED_FACE('',(#472),#12,.T.);
#523=ADVANCED_FACE('',(#473),#505,.T.);
#524=ADVANCED_FACE('',(#474),#13,.T.);
#525=ADVANCED_FACE('',(#475),#506,.T.);
#526=ADVANCED_FACE('',(#476),#507,.F.);
#527=ADVANCED_FACE('',(#477),#14,.T.);
#528=ADVANCED_FACE('',(#478),#508,.T.);
#529=ADVANCED_FACE('',(#479),#509,.T.);
#530=ADVANCED_FACE('',(#480),#15,.T.);
#531=ADVANCED_FACE('',(#481),#510,.T.);
#532=ADVANCED_FACE('',(#482),#16,.T.);
#533=ADVANCED_FACE('',(#483),#511,.T.);
#534=ADVANCED_FACE('',(#484),#512,.F.);
#535=ADVANCED_FACE('',(#485),#17,.T.);
#536=ADVANCED_FACE('',(#486),#513,.T.);
#537=ADVANCED_FACE('',(#487,#488),#18,.F.);
#538=ADVANCED_FACE('',(#489),#514,.T.);
#539=ADVANCED_FACE('',(#490,#491),#19,.F.);
#540=ADVANCED_FACE('',(#492,#493,#494),#515,.T.);
#541=ADVANCED_FACE('',(#495),#516,.F.);
#542=ADVANCED_FACE('',(#496),#20,.T.);
#543=ADVANCED_FACE('',(#497),#517,.F.);
#544=ADVANCED_FACE('',(#498),#21,.T.);
#545=ADVANCED_FACE('',(#499),#518,.F.);
#546=ADVANCED_FACE('',(#500),#22,.T.);
#547=ADVANCED_FACE('',(#501),#519,.F.);
#548=ADVANCED_FACE('',(#502),#23,.T.);
#549=ADVANCED_FACE('',(#503),#520,.F.);
#550=CLOSED_SHELL('',(#521,#522,#523,#524,#525,#526,#527,#528,#529,#530,#531,#532,#533,#534,#535,#536,#537,#538,#539,#540,#541,#542,#543,#544,#545,#546,#547,#548,#549));
#551=STYLED_ITEM('',(#552),#559);
#552=PRESENTATION_STYLE_ASSIGNMENT((#553));
#553=SURFACE_STYLE_USAGE(.BOTH.,#554);
#554=SURFACE_SIDE_STYLE('',(#555));
#555=SURFACE_STYLE_FILL_AREA(#556);
#556=FILL_AREA_STYLE('',(#557));
#557=FILL_AREA_STYLE_COLOUR('',#558);
#558=COLOUR_RGB('',0.0745098039215686,0.588235294117647,0.945098039215686);
#559=MANIFOLD_SOLID_BREP('Part 2',#550);
#560=SHAPE_DEFINITION_REPRESENTATION(#940,#561);
#561=SHAPE_REPRESENTATION('Part 2',(#562),#935);
#562=AXIS2_PLACEMENT_3D('',#776,#616,#617);
#563=AXIS2_PLACEMENT_3D('',#777,#618,#619);
#564=AXIS2_PLACEMENT_3D('',#778,#620,#621);
#565=AXIS2_PLACEMENT_3D('',#780,#622,#623);
#566=AXIS2_PLACEMENT_3D('',#782,#624,#625);
#567=AXIS2_PLACEMENT_3D('',#789,#628,#629);
#568=AXIS2_PLACEMENT_3D('',#795,#632,#633);
#569=AXIS2_PLACEMENT_3D('',#799,#635,#636);
#570=AXIS2_PLACEMENT_3D('',#805,#639,#640);
#571=AXIS2_PLACEMENT_3D('',#811,#643,#644);
#572=AXIS2_PLACEMENT_3D('',#817,#647,#648);
#573=AXIS2_PLACEMENT_3D('',#821,#650,#651);
#574=AXIS2_PLACEMENT_3D('',#825,#653,#654);
#575=AXIS2_PLACEMENT_3D('',#829,#656,#657);
#576=AXIS2_PLACEMENT_3D('',#830,#658,#659);
#577=AXIS2_PLACEMENT_3D('',#833,#661,#662);
#578=AXIS2_PLACEMENT_3D('',#836,#664,#665);
#579=AXIS2_PLACEMENT_3D('',#840,#668,#669);
#580=AXIS2_PLACEMENT_3D('',#843,#671,#672);
#581=AXIS2_PLACEMENT_3D('',#844,#673,#674);
#582=AXIS2_PLACEMENT_3D('',#848,#677,#678);
#583=AXIS2_PLACEMENT_3D('',#852,#681,#682);
#584=AXIS2_PLACEMENT_3D('',#855,#684,#685);
#585=AXIS2_PLACEMENT_3D('',#856,#686,#687);
#586=AXIS2_PLACEMENT_3D('',#860,#690,#691);
#587=AXIS2_PLACEMENT_3D('',#864,#694,#695);
#588=AXIS2_PLACEMENT_3D('',#867,#697,#698);
#589=AXIS2_PLACEMENT_3D('',#868,#699,#700);
#590=AXIS2_PLACEMENT_3D('',#872,#703,#704);
#591=AXIS2_PLACEMENT_3D('',#875,#706,#707);
#592=AXIS2_PLACEMENT_3D('',#876,#708,#709);
#593=AXIS2_PLACEMENT_3D('',#880,#712,#713);
#594=AXIS2_PLACEMENT_3D('',#884,#716,#717);
#595=AXIS2_PLACEMENT_3D('',#887,#719,#720);
#596=AXIS2_PLACEMENT_3D('',#888,#721,#722);
#597=AXIS2_PLACEMENT_3D('',#892,#725,#726);
#598=AXIS2_PLACEMENT_3D('',#893,#727,#728);
#599=AXIS2_PLACEMENT_3D('',#895,#729,#730);
#600=AXIS2_PLACEMENT_3D('',#897,#732,#733);
#601=AXIS2_PLACEMENT_3D('',#898,#734,#735);
#602=AXIS2_PLACEMENT_3D('',#900,#736,#737);
#603=AXIS2_PLACEMENT_3D('',#901,#738,#739);
#604=AXIS2_PLACEMENT_3D('',#907,#743,#744);
#605=AXIS2_PLACEMENT_3D('',#908,#745,#746);
#606=AXIS2_PLACEMENT_3D('',#911,#748,#749);
#607=AXIS2_PLACEMENT_3D('',#915,#752,#753);
#608=AXIS2_PLACEMENT_3D('',#916,#754,#755);
#609=AXIS2_PLACEMENT_3D('',#919,#757,#758);
#610=AXIS2_PLACEMENT_3D('',#923,#761,#762);
#611=AXIS2_PLACEMENT_3D('',#924,#763,#764);
#612=AXIS2_PLACEMENT_3D('',#927,#766,#767);
#613=AXIS2_PLACEMENT_3D('',#931,#770,#771);
#614=AXIS2_PLACEMENT_3D('',#932,#772,#773);
#615=AXIS2_PLACEMENT_3D('',#933,#774,#775);
#616=DIRECTION('',(0.,0.,1.));
#617=DIRECTION('',(1.,0.,0.));
#618=DIRECTION('',(0.,-1.,0.));
#619=DIRECTION('',(1.,0.,0.));
#620=DIRECTION('',(0.,-1.,0.));
#621=DIRECTION('',(0.,0.,-1.));
#622=DIRECTION('',(0.,1.,0.));
#623=DIRECTION('',(0.,0.,-1.));
#624=DIRECTION('',(0.,1.,0.));
#625=DIRECTION('',(0.,0.,1.));
#626=DIRECTION('',(-1.,0.,0.));
#627=DIRECTION('',(-4.01155729950032E-16,0.,-1.));
#628=DIRECTION('',(0.,1.,0.));
#629=DIRECTION('',(0.,0.,-1.));
#630=DIRECTION('',(0.,0.,-1.));
#631=DIRECTION('',(-1.,0.,0.));
#632=DIRECTION('',(0.,1.,0.));
#633=DIRECTION('',(0.,0.,-1.));
#634=DIRECTION('',(-2.66880534765662E-16,0.,1.));
#635=DIRECTION('',(0.,1.,0.));
#636=DIRECTION('',(0.,0.,-1.));
#637=DIRECTION('',(1.,0.,-2.77555756156289E-16));
#638=DIRECTION('',(0.,0.,1.));
#639=DIRECTION('',(0.,-1.,0.));
#640=DIRECTION('',(0.,0.,-1.));
#641=DIRECTION('',(-4.01155729950032E-16,0.,1.));
#642=DIRECTION('',(1.,0.,-2.77555756156289E-16));
#643=DIRECTION('',(0.,1.,0.));
#644=DIRECTION('',(0.,0.,1.));
#645=DIRECTION('',(-1.33440267382831E-16,0.,-1.));
#646=DIRECTION('',(-1.33440267382831E-16,0.,-1.));
#647=DIRECTION('',(0.,-1.,0.));
#648=DIRECTION('',(0.,0.,-1.));
#649=DIRECTION('',(1.,0.,-2.77555756156289E-16));
#650=DIRECTION('',(0.,-1.,0.));
#651=DIRECTION('',(0.,0.,-1.));
#652=DIRECTION('',(-2.66880534765662E-16,0.,1.));
#653=DIRECTION('',(0.,-1.,0.));
#654=DIRECTION('',(0.,0.,-1.));
#655=DIRECTION('',(-1.,0.,0.));
#656=DIRECTION('',(0.,-1.,0.));
#657=DIRECTION('',(0.,0.,-1.));
#658=DIRECTION('',(0.,1.,0.));
#659=DIRECTION('',(0.,0.,1.));
#660=DIRECTION('',(0.,1.,0.));
#661=DIRECTION('',(0.,1.,0.));
#662=DIRECTION('',(0.,0.,1.));
#663=DIRECTION('',(0.,1.,0.));
#664=DIRECTION('',(1.,0.,-1.33440267382831E-16));
#665=DIRECTION('',(-1.33440267382831E-16,0.,-1.));
#666=DIRECTION('',(0.,1.,0.));
#667=DIRECTION('',(-1.33440267382831E-16,0.,-1.));
#668=DIRECTION('',(0.,1.,0.));
#669=DIRECTION('',(0.,0.,1.));
#670=DIRECTION('',(0.,1.,0.));
#671=DIRECTION('',(0.,1.,0.));
#672=DIRECTION('',(0.,0.,1.));
#673=DIRECTION('',(2.77555756156289E-16,0.,1.));
#674=DIRECTION('',(1.,0.,-2.77555756156289E-16));
#675=DIRECTION('',(0.,1.,0.));
#676=DIRECTION('',(1.,0.,-2.77555756156289E-16));
#677=DIRECTION('',(-1.,0.,-4.01155729950032E-16));
#678=DIRECTION('',(-4.01155729950032E-16,0.,1.));
#679=DIRECTION('',(0.,1.,0.));
#680=DIRECTION('',(-4.01155729950032E-16,0.,1.));
#681=DIRECTION('',(0.,1.,0.));
#682=DIRECTION('',(0.,0.,1.));
#683=DIRECTION('',(0.,1.,0.));
#684=DIRECTION('',(0.,-1.,0.));
#685=DIRECTION('',(0.,0.,-1.));
#686=DIRECTION('',(-1.,0.,0.));
#687=DIRECTION('',(0.,0.,1.));
#688=DIRECTION('',(0.,1.,0.));
#689=DIRECTION('',(0.,0.,1.));
#690=DIRECTION('',(2.77555756156289E-16,0.,1.));
#691=DIRECTION('',(1.,0.,-2.77555756156289E-16));
#692=DIRECTION('',(0.,1.,0.));
#693=DIRECTION('',(1.,0.,-2.77555756156289E-16));
#694=DIRECTION('',(0.,1.,0.));
#695=DIRECTION('',(0.,0.,1.));
#696=DIRECTION('',(0.,1.,0.));
#697=DIRECTION('',(0.,1.,0.));
#698=DIRECTION('',(0.,0.,-1.));
#699=DIRECTION('',(-1.,0.,-2.66880534765662E-16));
#700=DIRECTION('',(-2.66880534765662E-16,0.,1.));
#701=DIRECTION('',(0.,1.,0.));
#702=DIRECTION('',(-2.66880534765662E-16,0.,1.));
#703=DIRECTION('',(0.,1.,0.));
#704=DIRECTION('',(0.,0.,1.));
#705=DIRECTION('',(0.,1.,0.));
#706=DIRECTION('',(0.,1.,0.));
#707=DIRECTION('',(0.,0.,-1.));
#708=DIRECTION('',(0.,0.,-1.));
#709=DIRECTION('',(-1.,0.,0.));
#710=DIRECTION('',(0.,1.,0.));
#711=DIRECTION('',(-1.,0.,0.));
#712=DIRECTION('',(1.,0.,0.));
#713=DIRECTION('',(0.,0.,-1.));
#714=DIRECTION('',(0.,1.,0.));
#715=DIRECTION('',(0.,0.,-1.));
#716=DIRECTION('',(0.,1.,0.));
#717=DIRECTION('',(0.,0.,1.));
#718=DIRECTION('',(0.,1.,0.));
#719=DIRECTION('',(0.,1.,0.));
#720=DIRECTION('',(0.,0.,-1.));
#721=DIRECTION('',(1.,0.,-4.01155729950032E-16));
#722=DIRECTION('',(-4.01155729950032E-16,0.,-1.));
#723=DIRECTION('',(0.,1.,0.));
#724=DIRECTION('',(-4.01155729950032E-16,0.,-1.));
#725=DIRECTION('',(0.,1.,0.));
#726=DIRECTION('',(0.,0.,1.));
#727=DIRECTION('',(0.,1.,0.));
#728=DIRECTION('',(0.,0.,-1.));
#729=DIRECTION('',(0.,0.,-1.));
#730=DIRECTION('',(-1.,0.,0.));
#731=DIRECTION('',(-1.,0.,0.));
#732=DIRECTION('',(0.,1.,0.));
#733=DIRECTION('',(0.,0.,1.));
#734=DIRECTION('',(0.,-1.,0.));
#735=DIRECTION('',(0.,0.,-1.));
#736=DIRECTION('',(0.,-1.,0.));
#737=DIRECTION('',(1.,0.,0.));
#738=DIRECTION('',(-1.,0.,1.33440267382831E-16));
#739=DIRECTION('',(1.33440267382831E-16,0.,1.));
#740=DIRECTION('',(0.,-1.,0.));
#741=DIRECTION('',(-1.33440267382831E-16,0.,-1.));
#742=DIRECTION('',(0.,-1.,0.));
#743=DIRECTION('',(0.,-1.,0.));
#744=DIRECTION('',(0.,0.,-1.));
#745=DIRECTION('',(0.,-1.,0.));
#746=DIRECTION('',(0.,0.,-1.));
#747=DIRECTION('',(0.,-1.,0.));
#748=DIRECTION('',(-2.77555756156289E-16,0.,-1.));
#749=DIRECTION('',(-1.,0.,2.77555756156289E-16));
#750=DIRECTION('',(1.,0.,-2.77555756156289E-16));
#751=DIRECTION('',(0.,-1.,0.));
#752=DIRECTION('',(0.,-1.,0.));
#753=DIRECTION('',(0.,0.,-1.));
#754=DIRECTION('',(0.,-1.,0.));
#755=DIRECTION('',(0.,0.,-1.));
#756=DIRECTION('',(0.,-1.,0.));
#757=DIRECTION('',(1.,0.,2.66880534765662E-16));
#758=DIRECTION('',(2.66880534765662E-16,0.,-1.));
#759=DIRECTION('',(-2.66880534765662E-16,0.,1.));
#760=DIRECTION('',(0.,-1.,0.));
#761=DIRECTION('',(0.,-1.,0.));
#762=DIRECTION('',(0.,0.,-1.));
#763=DIRECTION('',(0.,-1.,0.));
#764=DIRECTION('',(0.,0.,-1.));
#765=DIRECTION('',(0.,-1.,0.));
#766=DIRECTION('',(0.,0.,1.));
#767=DIRECTION('',(1.,0.,0.));
#768=DIRECTION('',(-1.,0.,0.));
#769=DIRECTION('',(0.,-1.,0.));
#770=DIRECTION('',(0.,-1.,0.));
#771=DIRECTION('',(0.,0.,-1.));
#772=DIRECTION('',(0.,-1.,0.));
#773=DIRECTION('',(0.,0.,-1.));
#774=DIRECTION('',(0.,-1.,0.));
#775=DIRECTION('',(1.,0.,0.));
#776=CARTESIAN_POINT('',(0.,0.,0.));
#777=CARTESIAN_POINT('',(0.,0.,0.));
#778=CARTESIAN_POINT('',(0.,0.,0.0111621571704745));
#779=CARTESIAN_POINT('',(0.,0.,0.00976515717047452));
#780=CARTESIAN_POINT('',(0.,0.,-0.0111621571704745));
#781=CARTESIAN_POINT('',(0.,0.,-0.0125591571704745));
#782=CARTESIAN_POINT('',(0.009375,0.,-0.0065));
#783=CARTESIAN_POINT('',(0.011875,0.,-0.0065));
#784=CARTESIAN_POINT('',(0.009375,0.,-0.009));
#785=CARTESIAN_POINT('',(-0.009375,0.,-0.009));
#786=CARTESIAN_POINT('',(0.00254,0.,-0.009));
#787=CARTESIAN_POINT('',(0.00254,0.,-0.0100810785852373));
#788=CARTESIAN_POINT('',(0.00254,0.,-0.0111621571704745));
#789=CARTESIAN_POINT('',(0.,0.,-0.0111621571704745));
#790=CARTESIAN_POINT('',(-0.00254,0.,-0.0111621571704745));
#791=CARTESIAN_POINT('',(-0.00254,0.,-0.0100810785852373));
#792=CARTESIAN_POINT('',(-0.00254,0.,-0.009));
#793=CARTESIAN_POINT('',(-0.009375,0.,-0.009));
#794=CARTESIAN_POINT('',(-0.009375,0.,-0.009));
#795=CARTESIAN_POINT('',(-0.009375,0.,-0.0065));
#796=CARTESIAN_POINT('',(-0.011875,0.,-0.0065));
#797=CARTESIAN_POINT('',(-0.011875,0.,0.0065));
#798=CARTESIAN_POINT('',(-0.011875,0.,0.0065));
#799=CARTESIAN_POINT('',(-0.009375,0.,0.0065));
#800=CARTESIAN_POINT('',(-0.009375,0.,0.009));
#801=CARTESIAN_POINT('',(0.009375,0.,0.009));
#802=CARTESIAN_POINT('',(-0.00254,0.,0.009));
#803=CARTESIAN_POINT('',(-0.00254,0.,0.0100810785852373));
#804=CARTESIAN_POINT('',(-0.00254,0.,0.0111621571704745));
#805=CARTESIAN_POINT('',(0.,0.,0.0111621571704745));
#806=CARTESIAN_POINT('',(0.00254,0.,0.0111621571704745));
#807=CARTESIAN_POINT('',(0.00254,0.,0.0100810785852373));
#808=CARTESIAN_POINT('',(0.00254,0.,0.009));
#809=CARTESIAN_POINT('',(0.009375,0.,0.009));
#810=CARTESIAN_POINT('',(0.009375,0.,0.009));
#811=CARTESIAN_POINT('',(0.009375,0.,0.0065));
#812=CARTESIAN_POINT('',(0.011875,0.,0.0065));
#813=CARTESIAN_POINT('',(0.011875,0.,-0.0065));
#814=CARTESIAN_POINT('',(0.010821,0.,0.));
#815=CARTESIAN_POINT('',(0.010821,0.,0.0065));
#816=CARTESIAN_POINT('',(0.010821,0.,-0.0065));
#817=CARTESIAN_POINT('',(0.009375,0.,0.0065));
#818=CARTESIAN_POINT('',(0.009375,0.,0.007946));
#819=CARTESIAN_POINT('',(0.,0.,0.007946));
#820=CARTESIAN_POINT('',(-0.009375,0.,0.007946));
#821=CARTESIAN_POINT('',(-0.009375,0.,0.0065));
#822=CARTESIAN_POINT('',(-0.010821,0.,0.0065));
#823=CARTESIAN_POINT('',(-0.010821,0.,-8.67361737988404E-19));
#824=CARTESIAN_POINT('',(-0.010821,0.,-0.0065));
#825=CARTESIAN_POINT('',(-0.009375,0.,-0.0065));
#826=CARTESIAN_POINT('',(-0.009375,0.,-0.007946));
#827=CARTESIAN_POINT('',(0.,0.,-0.007946));
#828=CARTESIAN_POINT('',(0.009375,0.,-0.007946));
#829=CARTESIAN_POINT('',(0.009375,0.,-0.0065));
#830=CARTESIAN_POINT('',(0.009375,-0.000508,-0.0065));
#831=CARTESIAN_POINT('',(0.011875,-0.000508,-0.0065));
#832=CARTESIAN_POINT('',(0.011875,-0.000508,-0.0065));
#833=CARTESIAN_POINT('',(0.009375,-0.000508,-0.0065));
#834=CARTESIAN_POINT('',(0.009375,-0.000508,-0.009));
#835=CARTESIAN_POINT('',(0.009375,-0.000508,-0.009));
#836=CARTESIAN_POINT('',(0.011875,-0.000508,-0.0065));
#837=CARTESIAN_POINT('',(0.011875,-0.000508,0.0065));
#838=CARTESIAN_POINT('',(0.011875,-0.000508,0.0065));
#839=CARTESIAN_POINT('',(0.011875,-0.000508,-0.0065));
#840=CARTESIAN_POINT('',(0.009375,-0.000508,0.0065));
#841=CARTESIAN_POINT('',(0.009375,-0.000508,0.009));
#842=CARTESIAN_POINT('',(0.009375,-0.000508,0.009));
#843=CARTESIAN_POINT('',(0.009375,-0.000508,0.0065));
#844=CARTESIAN_POINT('',(0.009375,-0.000508,0.009));
#845=CARTESIAN_POINT('',(0.00254,-0.000508,0.009));
#846=CARTESIAN_POINT('',(0.00254,-0.000508,0.009));
#847=CARTESIAN_POINT('',(0.009375,-0.000508,0.009));
#848=CARTESIAN_POINT('',(0.00254,-0.000508,0.0100810785852373));
#849=CARTESIAN_POINT('',(0.00254,-0.000508,0.0111621571704745));
#850=CARTESIAN_POINT('',(0.00254,-0.000508,0.0111621571704745));
#851=CARTESIAN_POINT('',(0.00254,-0.000508,0.0100810785852373));
#852=CARTESIAN_POINT('',(0.,-0.000508,0.0111621571704745));
#853=CARTESIAN_POINT('',(-0.00254,-0.000508,0.0111621571704745));
#854=CARTESIAN_POINT('',(-0.00254,-0.000508,0.0111621571704745));
#855=CARTESIAN_POINT('',(0.,-0.000508,0.0111621571704745));
#856=CARTESIAN_POINT('',(-0.00254,-0.000508,0.0100810785852373));
#857=CARTESIAN_POINT('',(-0.00254,-0.000508,0.009));
#858=CARTESIAN_POINT('',(-0.00254,-0.000508,0.009));
#859=CARTESIAN_POINT('',(-0.00254,-0.000508,0.0100810785852373));
#860=CARTESIAN_POINT('',(0.009375,-0.000508,0.009));
#861=CARTESIAN_POINT('',(-0.009375,-0.000508,0.009));
#862=CARTESIAN_POINT('',(-0.009375,-0.000508,0.009));
#863=CARTESIAN_POINT('',(0.009375,-0.000508,0.009));
#864=CARTESIAN_POINT('',(-0.009375,-0.000508,0.0065));
#865=CARTESIAN_POINT('',(-0.011875,-0.000508,0.0065));
#866=CARTESIAN_POINT('',(-0.011875,-0.000508,0.0065));
#867=CARTESIAN_POINT('',(-0.009375,-0.000508,0.0065));
#868=CARTESIAN_POINT('',(-0.011875,-0.000508,0.0065));
#869=CARTESIAN_POINT('',(-0.011875,-0.000508,-0.0065));
#870=CARTESIAN_POINT('',(-0.011875,-0.000508,-0.0065));
#871=CARTESIAN_POINT('',(-0.011875,-0.000508,0.0065));
#872=CARTESIAN_POINT('',(-0.009375,-0.000508,-0.0065));
#873=CARTESIAN_POINT('',(-0.009375,-0.000508,-0.009));
#874=CARTESIAN_POINT('',(-0.009375,-0.000508,-0.009));
#875=CARTESIAN_POINT('',(-0.009375,-0.000508,-0.0065));
#876=CARTESIAN_POINT('',(-0.009375,-0.000508,-0.009));
#877=CARTESIAN_POINT('',(-0.00254,-0.000508,-0.009));
#878=CARTESIAN_POINT('',(-0.00254,-0.000508,-0.009));
#879=CARTESIAN_POINT('',(-0.009375,-0.000508,-0.009));
#880=CARTESIAN_POINT('',(-0.00254,-0.000508,-0.0100810785852373));
#881=CARTESIAN_POINT('',(-0.00254,-0.000508,-0.0111621571704745));
#882=CARTESIAN_POINT('',(-0.00254,-0.000508,-0.0111621571704745));
#883=CARTESIAN_POINT('',(-0.00254,-0.000508,-0.0100810785852373));
#884=CARTESIAN_POINT('',(0.,-0.000508,-0.0111621571704745));
#885=CARTESIAN_POINT('',(0.00254,-0.000508,-0.0111621571704745));
#886=CARTESIAN_POINT('',(0.00254,-0.000508,-0.0111621571704745));
#887=CARTESIAN_POINT('',(0.,-0.000508,-0.0111621571704745));
#888=CARTESIAN_POINT('',(0.00254,-0.000508,-0.0100810785852373));
#889=CARTESIAN_POINT('',(0.00254,-0.000508,-0.009));
#890=CARTESIAN_POINT('',(0.00254,-0.000508,-0.009));
#891=CARTESIAN_POINT('',(0.00254,-0.000508,-0.0100810785852373));
#892=CARTESIAN_POINT('',(0.,-0.000508,-0.0111621571704745));
#893=CARTESIAN_POINT('',(0.,-0.000508,-0.0111621571704745));
#894=CARTESIAN_POINT('',(0.,-0.000508,-0.0125591571704745));
#895=CARTESIAN_POINT('',(-0.009375,-0.000508,-0.009));
#896=CARTESIAN_POINT('',(-0.009375,-0.000508,-0.009));
#897=CARTESIAN_POINT('',(0.,-0.000508,0.0111621571704745));
#898=CARTESIAN_POINT('',(0.,-0.000508,0.0111621571704745));
#899=CARTESIAN_POINT('',(0.,-0.000508,0.00976515717047452));
#900=CARTESIAN_POINT('',(0.,-0.000508,0.));
#901=CARTESIAN_POINT('',(0.010821,0.000254,0.));
#902=CARTESIAN_POINT('',(0.010821,0.000254,-0.0065));
#903=CARTESIAN_POINT('',(0.010821,0.000254,-0.0065));
#904=CARTESIAN_POINT('',(0.010821,0.000254,0.));
#905=CARTESIAN_POINT('',(0.010821,0.000254,0.0065));
#906=CARTESIAN_POINT('',(0.010821,0.000254,0.0065));
#907=CARTESIAN_POINT('',(0.009375,0.000254,0.0065));
#908=CARTESIAN_POINT('',(0.009375,0.000254,0.0065));
#909=CARTESIAN_POINT('',(0.009375,0.000254,0.007946));
#910=CARTESIAN_POINT('',(0.009375,0.000254,0.007946));
#911=CARTESIAN_POINT('',(0.,0.000254,0.007946));
#912=CARTESIAN_POINT('',(0.,0.000254,0.007946));
#913=CARTESIAN_POINT('',(-0.009375,0.000254,0.007946));
#914=CARTESIAN_POINT('',(-0.009375,0.000254,0.007946));
#915=CARTESIAN_POINT('',(-0.009375,0.000254,0.0065));
#916=CARTESIAN_POINT('',(-0.009375,0.000254,0.0065));
#917=CARTESIAN_POINT('',(-0.010821,0.000254,0.0065));
#918=CARTESIAN_POINT('',(-0.010821,0.000254,0.0065));
#919=CARTESIAN_POINT('',(-0.010821,0.000254,-8.67361737988404E-19));
#920=CARTESIAN_POINT('',(-0.010821,0.000254,-8.67361737988404E-19));
#921=CARTESIAN_POINT('',(-0.010821,0.000254,-0.0065));
#922=CARTESIAN_POINT('',(-0.010821,0.000254,-0.0065));
#923=CARTESIAN_POINT('',(-0.009375,0.000254,-0.0065));
#924=CARTESIAN_POINT('',(-0.009375,0.000254,-0.0065));
#925=CARTESIAN_POINT('',(-0.009375,0.000254,-0.007946));
#926=CARTESIAN_POINT('',(-0.009375,0.000254,-0.007946));
#927=CARTESIAN_POINT('',(0.,0.000254,-0.007946));
#928=CARTESIAN_POINT('',(0.,0.000254,-0.007946));
#929=CARTESIAN_POINT('',(0.009375,0.000254,-0.007946));
#930=CARTESIAN_POINT('',(0.009375,0.000254,-0.007946));
#931=CARTESIAN_POINT('',(0.009375,0.000254,-0.0065));
#932=CARTESIAN_POINT('',(0.009375,0.000254,-0.0065));
#933=CARTESIAN_POINT('',(0.,0.000254,0.));
#934=MECHANICAL_DESIGN_GEOMETRIC_PRESENTATION_REPRESENTATION('',(#551),#935);
#935=(
GEOMETRIC_REPRESENTATION_CONTEXT(3)
GLOBAL_UNCERTAINTY_ASSIGNED_CONTEXT((#936))
GLOBAL_UNIT_ASSIGNED_CONTEXT((#939,#938,#937))
REPRESENTATION_CONTEXT('Part 2','TOP_LEVEL_ASSEMBLY_PART')
);
#936=UNCERTAINTY_MEASURE_WITH_UNIT(LENGTH_MEASURE(2.2E-07),#939,'DISTANCE_ACCURACY_VALUE','Maximum Tolerance applied to model');
#937=(
NAMED_UNIT(*)
SI_UNIT($,.STERADIAN.)
SOLID_ANGLE_UNIT()
);
#938=(
NAMED_UNIT(*)
PLANE_ANGLE_UNIT()
SI_UNIT($,.RADIAN.)
);
#939=(
LENGTH_UNIT()
NAMED_UNIT(*)
SI_UNIT($,.METRE.)
);
#940=PRODUCT_DEFINITION_SHAPE('','',#941);
#941=PRODUCT_DEFINITION('','',#943,#942);
#942=PRODUCT_DEFINITION_CONTEXT('',#949,'design');
#943=PRODUCT_DEFINITION_FORMATION_WITH_SPECIFIED_SOURCE('','',#945,.NOT_KNOWN.);
#944=PRODUCT_RELATED_PRODUCT_CATEGORY('','',(#945));
#945=PRODUCT('Part 2','Part 2','Part 2',(#947));
#946=PRODUCT_CATEGORY('','');
#947=PRODUCT_CONTEXT('',#949,'mechanical');
#948=APPLICATION_PROTOCOL_DEFINITION('international standard','ap242_managed_model_based_3d_engineering',2020,#949);
#949=APPLICATION_CONTEXT('managed model based 3d engineering');
ENDSEC;
END-ISO-10303-21;
