ISO-10303-21;
HEADER;
/* Generated by software containing ST-Developer
 * from STEP Tools, Inc. (www.steptools.com) 
 */
/* OPTION: using custom renumber hook */

FILE_DESCRIPTION(
/* description */ ('STEP AP242 Edition 2',
'CAx-IF Rec.Pracs.---Representation and Presentation of Product Manufa
cturing Information (PMI)---4.0---2014-10-13',
'CAx-IF Rec.Pracs.---3D Tessellated Geometry---0.4---2014-09-14','2;1',
'CAx-IF Rec.Pracs.---User Defined Attributes---1.5---2016-08-15'),
/* implementation_level */ '2;1');

FILE_NAME(
/* name */ 'dexi parts - Part 12',
/* time_stamp */ '2026-06-05T01:15:54Z',
/* author */ (''),
/* organization */ (''),
/* preprocessor_version */ 'ST-DEVELOPER v20',
/* originating_system */ 'ONSHAPE BY PTC INC, 1.215',
/* authorisation */ '  ');

FILE_SCHEMA (('AP242_MANAGED_MODEL_BASED_3D_ENGINEERING_MIM_LF { 1 0 10303 442 3 1 4 }'));
ENDSEC;

DATA;
#10=SHAPE_REPRESENTATION_RELATIONSHIP('','',#898,#11);
#11=ADVANCED_BREP_SHAPE_REPRESENTATION('',(#896),#1577);
#12=DEGENERATE_TOROIDAL_SURFACE('',#995,0.000723783909054096,0.00202359380798113,
 .T.);
#13=ELLIPSE('',#966,0.00121409434277987,0.000858494342779872);
#14=ELLIPSE('',#968,0.00121409434277987,0.000858494342779872);
#15=ELLIPSE('',#970,0.00121409434277987,0.000858494342779872);
#16=ELLIPSE('',#972,0.00121409434277987,0.000858494342779872);
#17=ELLIPSE('',#974,0.00121409434277987,0.000858494342779872);
#18=ELLIPSE('',#976,0.00121409434277987,0.000858494342779872);
#19=ELLIPSE('',#978,0.00121409434277987,0.000858494342779872);
#20=ELLIPSE('',#980,0.00121409434277987,0.000858494342779872);
#21=B_SPLINE_CURVE_WITH_KNOTS('',3,(#1412,#1413,#1414,#1415),
 .UNSPECIFIED.,.F.,.F.,(4,4),(0.,0.00183943099728704),.UNSPECIFIED.);
#22=B_SPLINE_CURVE_WITH_KNOTS('',3,(#1427,#1428,#1429,#1430),
 .UNSPECIFIED.,.F.,.F.,(4,4),(0.,0.00184232280051096),.UNSPECIFIED.);
#23=B_SPLINE_CURVE_WITH_KNOTS('',3,(#1438,#1439,#1440,#1441),
 .UNSPECIFIED.,.F.,.F.,(4,4),(0.,0.00184232280051105),.UNSPECIFIED.);
#24=B_SPLINE_CURVE_WITH_KNOTS('',3,(#1451,#1452,#1453,#1454),
 .UNSPECIFIED.,.F.,.F.,(4,4),(0.,0.00183943099728698),.UNSPECIFIED.);
#25=B_SPLINE_CURVE_WITH_KNOTS('',3,(#1466,#1467,#1468,#1469,#1470),
 .UNSPECIFIED.,.F.,.F.,(4,1,4),(0.,0.00192895834935781,0.00385791669871562),
 .UNSPECIFIED.);
#26=B_SPLINE_CURVE_WITH_KNOTS('',3,(#1472,#1473,#1474,#1475,#1476),
 .UNSPECIFIED.,.F.,.F.,(4,1,4),(0.,0.00192895834935782,0.00385791669871564),
 .UNSPECIFIED.);
#27=B_SPLINE_CURVE_WITH_KNOTS('',3,(#1479,#1480,#1481,#1482,#1483),
 .UNSPECIFIED.,.F.,.F.,(4,1,4),(0.,0.00192895834935782,0.00385791669871564),
 .UNSPECIFIED.);
#28=B_SPLINE_CURVE_WITH_KNOTS('',3,(#1485,#1486,#1487,#1488,#1489),
 .UNSPECIFIED.,.F.,.F.,(4,1,4),(0.,0.00192895834935779,0.00385791669871558),
 .UNSPECIFIED.);
#29=B_SPLINE_CURVE_WITH_KNOTS('',3,(#1492,#1493,#1494,#1495,#1496),
 .UNSPECIFIED.,.F.,.F.,(4,1,4),(0.,0.000750465933156825,0.00150093186631365),
 .UNSPECIFIED.);
#30=B_SPLINE_CURVE_WITH_KNOTS('',3,(#1497,#1498,#1499,#1500,#1501),
 .UNSPECIFIED.,.F.,.F.,(4,1,4),(0.,0.000750465933156798,0.0015009318663136),
 .UNSPECIFIED.);
#31=B_SPLINE_CURVE_WITH_KNOTS('',3,(#1507,#1508,#1509,#1510),
 .UNSPECIFIED.,.F.,.F.,(4,4),(0.,0.00193322700253849),.UNSPECIFIED.);
#32=B_SPLINE_CURVE_WITH_KNOTS('',3,(#1516,#1517,#1518,#1519),
 .UNSPECIFIED.,.F.,.F.,(4,4),(0.,0.0019332270025385),.UNSPECIFIED.);
#33=B_SPLINE_CURVE_WITH_KNOTS('',3,(#1529,#1530,#1531,#1532),
 .UNSPECIFIED.,.F.,.F.,(4,4),(0.,0.00193322700253848),.UNSPECIFIED.);
#34=B_SPLINE_CURVE_WITH_KNOTS('',3,(#1535,#1536,#1537,#1538),
 .UNSPECIFIED.,.F.,.F.,(4,4),(0.,0.0019332270025385),.UNSPECIFIED.);
#35=B_SPLINE_CURVE_WITH_KNOTS('',3,(#1541,#1542,#1543,#1544,#1545),
 .UNSPECIFIED.,.F.,.F.,(4,1,4),(0.,0.000750465933156742,0.00150093186631348),
 .UNSPECIFIED.);
#36=B_SPLINE_CURVE_WITH_KNOTS('',3,(#1547,#1548,#1549,#1550,#1551),
 .UNSPECIFIED.,.F.,.F.,(4,1,4),(0.,0.000750465933156778,0.00150093186631356),
 .UNSPECIFIED.);
#37=LINE('',#1288,#95);
#38=LINE('',#1291,#96);
#39=LINE('',#1293,#97);
#40=LINE('',#1295,#98);
#41=LINE('',#1297,#99);
#42=LINE('',#1300,#100);
#43=LINE('',#1302,#101);
#44=LINE('',#1304,#102);
#45=LINE('',#1306,#103);
#46=LINE('',#1310,#104);
#47=LINE('',#1312,#105);
#48=LINE('',#1314,#106);
#49=LINE('',#1322,#107);
#50=LINE('',#1324,#108);
#51=LINE('',#1326,#109);
#52=LINE('',#1328,#110);
#53=LINE('',#1330,#111);
#54=LINE('',#1333,#112);
#55=LINE('',#1335,#113);
#56=LINE('',#1337,#114);
#57=LINE('',#1339,#115);
#58=LINE('',#1342,#116);
#59=LINE('',#1344,#117);
#60=LINE('',#1346,#118);
#61=LINE('',#1348,#119);
#62=LINE('',#1351,#120);
#63=LINE('',#1353,#121);
#64=LINE('',#1355,#122);
#65=LINE('',#1357,#123);
#66=LINE('',#1360,#124);
#67=LINE('',#1362,#125);
#68=LINE('',#1364,#126);
#69=LINE('',#1369,#127);
#70=LINE('',#1371,#128);
#71=LINE('',#1373,#129);
#72=LINE('',#1381,#130);
#73=LINE('',#1382,#131);
#74=LINE('',#1387,#132);
#75=LINE('',#1388,#133);
#76=LINE('',#1392,#134);
#77=LINE('',#1393,#135);
#78=LINE('',#1406,#136);
#79=LINE('',#1410,#137);
#80=LINE('',#1417,#138);
#81=LINE('',#1419,#139);
#82=LINE('',#1421,#140);
#83=LINE('',#1425,#141);
#84=LINE('',#1432,#142);
#85=LINE('',#1436,#143);
#86=LINE('',#1443,#144);
#87=LINE('',#1445,#145);
#88=LINE('',#1449,#146);
#89=LINE('',#1456,#147);
#90=LINE('',#1458,#148);
#91=LINE('',#1460,#149);
#92=LINE('',#1463,#150);
#93=LINE('',#1521,#151);
#94=LINE('',#1527,#152);
#95=VECTOR('',#1033,1.);
#96=VECTOR('',#1034,1.);
#97=VECTOR('',#1035,1.);
#98=VECTOR('',#1036,1.);
#99=VECTOR('',#1039,1.);
#100=VECTOR('',#1040,1.);
#101=VECTOR('',#1041,1.);
#102=VECTOR('',#1042,1.);
#103=VECTOR('',#1045,1.);
#104=VECTOR('',#1048,1.);
#105=VECTOR('',#1049,1.);
#106=VECTOR('',#1050,1.);
#107=VECTOR('',#1057,1.);
#108=VECTOR('',#1060,1.);
#109=VECTOR('',#1061,1.);
#110=VECTOR('',#1062,1.);
#111=VECTOR('',#1065,1.);
#112=VECTOR('',#1066,1.);
#113=VECTOR('',#1067,1.);
#114=VECTOR('',#1068,1.);
#115=VECTOR('',#1071,1.);
#116=VECTOR('',#1072,1.);
#117=VECTOR('',#1073,1.);
#118=VECTOR('',#1074,1.);
#119=VECTOR('',#1077,1.);
#120=VECTOR('',#1078,1.);
#121=VECTOR('',#1079,1.);
#122=VECTOR('',#1080,1.);
#123=VECTOR('',#1083,1.);
#124=VECTOR('',#1084,1.);
#125=VECTOR('',#1085,1.);
#126=VECTOR('',#1086,1.);
#127=VECTOR('',#1091,1.);
#128=VECTOR('',#1092,1.);
#129=VECTOR('',#1093,1.);
#130=VECTOR('',#1100,1.);
#131=VECTOR('',#1101,1.);
#132=VECTOR('',#1106,1.);
#133=VECTOR('',#1107,1.);
#134=VECTOR('',#1110,1.);
#135=VECTOR('',#1111,1.);
#136=VECTOR('',#1132,1.);
#137=VECTOR('',#1135,1.);
#138=VECTOR('',#1138,1.);
#139=VECTOR('',#1139,1.);
#140=VECTOR('',#1140,1.);
#141=VECTOR('',#1145,1.);
#142=VECTOR('',#1146,1.);
#143=VECTOR('',#1151,1.);
#144=VECTOR('',#1152,1.);
#145=VECTOR('',#1155,1.);
#146=VECTOR('',#1158,1.);
#147=VECTOR('',#1161,1.);
#148=VECTOR('',#1164,1.);
#149=VECTOR('',#1167,1.);
#150=VECTOR('',#1172,1.);
#151=VECTOR('',#1207,1.);
#152=VECTOR('',#1214,1.);
#153=PLANE('',#911);
#154=PLANE('',#914);
#155=PLANE('',#915);
#156=PLANE('',#916);
#157=PLANE('',#921);
#158=PLANE('',#922);
#159=PLANE('',#923);
#160=PLANE('',#924);
#161=PLANE('',#925);
#162=PLANE('',#926);
#163=PLANE('',#943);
#164=PLANE('',#945);
#165=PLANE('',#946);
#166=PLANE('',#948);
#167=PLANE('',#950);
#168=PLANE('',#952);
#169=PLANE('',#953);
#170=PLANE('',#954);
#171=PLANE('',#956);
#172=PLANE('',#999);
#173=CYLINDRICAL_SURFACE('',#903,0.002159);
#174=CYLINDRICAL_SURFACE('',#906,0.0035746055);
#175=CYLINDRICAL_SURFACE('',#909,0.003175);
#176=CYLINDRICAL_SURFACE('',#931,0.003175);
#177=CYLINDRICAL_SURFACE('',#935,0.002159);
#178=CYLINDRICAL_SURFACE('',#958,0.00331133532215094);
#179=CYLINDRICAL_SURFACE('',#959,0.00331133532215094);
#180=CYLINDRICAL_SURFACE('',#961,0.00331133532215094);
#181=CYLINDRICAL_SURFACE('',#963,0.00331133532215094);
#182=CYLINDRICAL_SURFACE('',#965,0.000858494342779872);
#183=CYLINDRICAL_SURFACE('',#967,0.000858494342779872);
#184=CYLINDRICAL_SURFACE('',#969,0.000858494342779872);
#185=CYLINDRICAL_SURFACE('',#971,0.000858494342779872);
#186=CYLINDRICAL_SURFACE('',#973,0.000858494342779872);
#187=CYLINDRICAL_SURFACE('',#975,0.000858494342779872);
#188=CYLINDRICAL_SURFACE('',#977,0.000858494342779872);
#189=CYLINDRICAL_SURFACE('',#979,0.000858494342779872);
#190=CYLINDRICAL_SURFACE('',#981,0.000858494342779872);
#191=CYLINDRICAL_SURFACE('',#982,0.000858494342779872);
#192=CYLINDRICAL_SURFACE('',#984,0.00245284097937107);
#193=CYLINDRICAL_SURFACE('',#985,0.00245284097937107);
#194=CYLINDRICAL_SURFACE('',#988,0.00363810550000001);
#195=CYLINDRICAL_SURFACE('',#993,0.00274737771703522);
#196=CYLINDRICAL_SURFACE('',#996,0.0048446055);
#197=ORIENTED_EDGE('',*,*,#435,.T.);
#198=ORIENTED_EDGE('',*,*,#436,.F.);
#199=ORIENTED_EDGE('',*,*,#437,.T.);
#200=ORIENTED_EDGE('',*,*,#438,.F.);
#201=ORIENTED_EDGE('',*,*,#439,.F.);
#202=ORIENTED_EDGE('',*,*,#440,.T.);
#203=ORIENTED_EDGE('',*,*,#436,.T.);
#204=ORIENTED_EDGE('',*,*,#441,.F.);
#205=ORIENTED_EDGE('',*,*,#442,.F.);
#206=ORIENTED_EDGE('',*,*,#443,.T.);
#207=ORIENTED_EDGE('',*,*,#444,.F.);
#208=ORIENTED_EDGE('',*,*,#445,.T.);
#209=ORIENTED_EDGE('',*,*,#446,.T.);
#210=ORIENTED_EDGE('',*,*,#447,.T.);
#211=ORIENTED_EDGE('',*,*,#448,.F.);
#212=ORIENTED_EDGE('',*,*,#449,.T.);
#213=ORIENTED_EDGE('',*,*,#450,.T.);
#214=ORIENTED_EDGE('',*,*,#451,.F.);
#215=ORIENTED_EDGE('',*,*,#451,.T.);
#216=ORIENTED_EDGE('',*,*,#452,.T.);
#217=ORIENTED_EDGE('',*,*,#453,.T.);
#218=ORIENTED_EDGE('',*,*,#454,.T.);
#219=ORIENTED_EDGE('',*,*,#455,.F.);
#220=ORIENTED_EDGE('',*,*,#456,.F.);
#221=ORIENTED_EDGE('',*,*,#457,.T.);
#222=ORIENTED_EDGE('',*,*,#458,.T.);
#223=ORIENTED_EDGE('',*,*,#459,.T.);
#224=ORIENTED_EDGE('',*,*,#460,.F.);
#225=ORIENTED_EDGE('',*,*,#461,.T.);
#226=ORIENTED_EDGE('',*,*,#462,.T.);
#227=ORIENTED_EDGE('',*,*,#463,.T.);
#228=ORIENTED_EDGE('',*,*,#455,.T.);
#229=ORIENTED_EDGE('',*,*,#464,.T.);
#230=ORIENTED_EDGE('',*,*,#465,.T.);
#231=ORIENTED_EDGE('',*,*,#466,.F.);
#232=ORIENTED_EDGE('',*,*,#467,.F.);
#233=ORIENTED_EDGE('',*,*,#468,.T.);
#234=ORIENTED_EDGE('',*,*,#469,.T.);
#235=ORIENTED_EDGE('',*,*,#470,.T.);
#236=ORIENTED_EDGE('',*,*,#471,.T.);
#237=ORIENTED_EDGE('',*,*,#472,.T.);
#238=ORIENTED_EDGE('',*,*,#473,.T.);
#239=ORIENTED_EDGE('',*,*,#474,.F.);
#240=ORIENTED_EDGE('',*,*,#475,.T.);
#241=ORIENTED_EDGE('',*,*,#476,.T.);
#242=ORIENTED_EDGE('',*,*,#477,.T.);
#243=ORIENTED_EDGE('',*,*,#478,.T.);
#244=ORIENTED_EDGE('',*,*,#479,.F.);
#245=ORIENTED_EDGE('',*,*,#480,.T.);
#246=ORIENTED_EDGE('',*,*,#481,.T.);
#247=ORIENTED_EDGE('',*,*,#482,.T.);
#248=ORIENTED_EDGE('',*,*,#483,.T.);
#249=ORIENTED_EDGE('',*,*,#484,.T.);
#250=ORIENTED_EDGE('',*,*,#485,.T.);
#251=ORIENTED_EDGE('',*,*,#486,.T.);
#252=ORIENTED_EDGE('',*,*,#487,.T.);
#253=ORIENTED_EDGE('',*,*,#447,.F.);
#254=ORIENTED_EDGE('',*,*,#488,.T.);
#255=ORIENTED_EDGE('',*,*,#489,.T.);
#256=ORIENTED_EDGE('',*,*,#490,.T.);
#257=ORIENTED_EDGE('',*,*,#485,.F.);
#258=ORIENTED_EDGE('',*,*,#491,.T.);
#259=ORIENTED_EDGE('',*,*,#492,.T.);
#260=ORIENTED_EDGE('',*,*,#493,.T.);
#261=ORIENTED_EDGE('',*,*,#458,.F.);
#262=ORIENTED_EDGE('',*,*,#494,.T.);
#263=ORIENTED_EDGE('',*,*,#495,.T.);
#264=ORIENTED_EDGE('',*,*,#466,.T.);
#265=ORIENTED_EDGE('',*,*,#496,.T.);
#266=ORIENTED_EDGE('',*,*,#476,.F.);
#267=ORIENTED_EDGE('',*,*,#497,.T.);
#268=ORIENTED_EDGE('',*,*,#474,.T.);
#269=ORIENTED_EDGE('',*,*,#498,.T.);
#270=ORIENTED_EDGE('',*,*,#468,.F.);
#271=ORIENTED_EDGE('',*,*,#499,.T.);
#272=ORIENTED_EDGE('',*,*,#500,.T.);
#273=ORIENTED_EDGE('',*,*,#495,.F.);
#274=ORIENTED_EDGE('',*,*,#441,.T.);
#275=ORIENTED_EDGE('',*,*,#500,.F.);
#276=ORIENTED_EDGE('',*,*,#438,.T.);
#277=ORIENTED_EDGE('',*,*,#501,.F.);
#278=ORIENTED_EDGE('',*,*,#502,.T.);
#279=ORIENTED_EDGE('',*,*,#448,.T.);
#280=ORIENTED_EDGE('',*,*,#460,.T.);
#281=ORIENTED_EDGE('',*,*,#503,.T.);
#282=ORIENTED_EDGE('',*,*,#504,.T.);
#283=ORIENTED_EDGE('',*,*,#505,.T.);
#284=ORIENTED_EDGE('',*,*,#506,.T.);
#285=ORIENTED_EDGE('',*,*,#507,.T.);
#286=ORIENTED_EDGE('',*,*,#482,.F.);
#287=ORIENTED_EDGE('',*,*,#507,.F.);
#288=ORIENTED_EDGE('',*,*,#508,.T.);
#289=ORIENTED_EDGE('',*,*,#509,.T.);
#290=ORIENTED_EDGE('',*,*,#510,.T.);
#291=ORIENTED_EDGE('',*,*,#511,.T.);
#292=ORIENTED_EDGE('',*,*,#483,.F.);
#293=ORIENTED_EDGE('',*,*,#463,.F.);
#294=ORIENTED_EDGE('',*,*,#512,.T.);
#295=ORIENTED_EDGE('',*,*,#513,.F.);
#296=ORIENTED_EDGE('',*,*,#514,.T.);
#297=ORIENTED_EDGE('',*,*,#515,.T.);
#298=ORIENTED_EDGE('',*,*,#456,.T.);
#299=ORIENTED_EDGE('',*,*,#516,.T.);
#300=ORIENTED_EDGE('',*,*,#517,.T.);
#301=ORIENTED_EDGE('',*,*,#444,.T.);
#302=ORIENTED_EDGE('',*,*,#487,.F.);
#303=ORIENTED_EDGE('',*,*,#518,.T.);
#304=ORIENTED_EDGE('',*,*,#519,.T.);
#305=ORIENTED_EDGE('',*,*,#479,.T.);
#306=ORIENTED_EDGE('',*,*,#520,.T.);
#307=ORIENTED_EDGE('',*,*,#475,.F.);
#308=ORIENTED_EDGE('',*,*,#497,.F.);
#309=ORIENTED_EDGE('',*,*,#471,.F.);
#310=ORIENTED_EDGE('',*,*,#521,.T.);
#311=ORIENTED_EDGE('',*,*,#467,.T.);
#312=ORIENTED_EDGE('',*,*,#499,.F.);
#313=ORIENTED_EDGE('',*,*,#513,.T.);
#314=ORIENTED_EDGE('',*,*,#522,.T.);
#315=ORIENTED_EDGE('',*,*,#516,.F.);
#316=ORIENTED_EDGE('',*,*,#523,.T.);
#317=ORIENTED_EDGE('',*,*,#509,.F.);
#318=ORIENTED_EDGE('',*,*,#524,.T.);
#319=ORIENTED_EDGE('',*,*,#501,.T.);
#320=ORIENTED_EDGE('',*,*,#525,.T.);
#321=ORIENTED_EDGE('',*,*,#515,.F.);
#322=ORIENTED_EDGE('',*,*,#526,.F.);
#323=ORIENTED_EDGE('',*,*,#494,.F.);
#324=ORIENTED_EDGE('',*,*,#457,.F.);
#325=ORIENTED_EDGE('',*,*,#486,.F.);
#326=ORIENTED_EDGE('',*,*,#490,.F.);
#327=ORIENTED_EDGE('',*,*,#527,.F.);
#328=ORIENTED_EDGE('',*,*,#518,.F.);
#329=ORIENTED_EDGE('',*,*,#514,.F.);
#330=ORIENTED_EDGE('',*,*,#523,.F.);
#331=ORIENTED_EDGE('',*,*,#519,.F.);
#332=ORIENTED_EDGE('',*,*,#527,.T.);
#333=ORIENTED_EDGE('',*,*,#489,.F.);
#334=ORIENTED_EDGE('',*,*,#526,.T.);
#335=ORIENTED_EDGE('',*,*,#511,.F.);
#336=ORIENTED_EDGE('',*,*,#528,.F.);
#337=ORIENTED_EDGE('',*,*,#491,.F.);
#338=ORIENTED_EDGE('',*,*,#484,.F.);
#339=ORIENTED_EDGE('',*,*,#525,.F.);
#340=ORIENTED_EDGE('',*,*,#504,.F.);
#341=ORIENTED_EDGE('',*,*,#529,.F.);
#342=ORIENTED_EDGE('',*,*,#492,.F.);
#343=ORIENTED_EDGE('',*,*,#528,.T.);
#344=ORIENTED_EDGE('',*,*,#510,.F.);
#345=ORIENTED_EDGE('',*,*,#529,.T.);
#346=ORIENTED_EDGE('',*,*,#503,.F.);
#347=ORIENTED_EDGE('',*,*,#459,.F.);
#348=ORIENTED_EDGE('',*,*,#493,.F.);
#349=ORIENTED_EDGE('',*,*,#530,.F.);
#350=ORIENTED_EDGE('',*,*,#453,.F.);
#351=ORIENTED_EDGE('',*,*,#531,.F.);
#352=ORIENTED_EDGE('',*,*,#498,.F.);
#353=ORIENTED_EDGE('',*,*,#531,.T.);
#354=ORIENTED_EDGE('',*,*,#452,.F.);
#355=ORIENTED_EDGE('',*,*,#532,.F.);
#356=ORIENTED_EDGE('',*,*,#469,.F.);
#357=ORIENTED_EDGE('',*,*,#530,.T.);
#358=ORIENTED_EDGE('',*,*,#473,.F.);
#359=ORIENTED_EDGE('',*,*,#533,.F.);
#360=ORIENTED_EDGE('',*,*,#454,.F.);
#361=ORIENTED_EDGE('',*,*,#450,.F.);
#362=ORIENTED_EDGE('',*,*,#534,.T.);
#363=ORIENTED_EDGE('',*,*,#535,.F.);
#364=ORIENTED_EDGE('',*,*,#470,.F.);
#365=ORIENTED_EDGE('',*,*,#532,.T.);
#366=ORIENTED_EDGE('',*,*,#536,.F.);
#367=ORIENTED_EDGE('',*,*,#537,.T.);
#368=ORIENTED_EDGE('',*,*,#461,.F.);
#369=ORIENTED_EDGE('',*,*,#533,.T.);
#370=ORIENTED_EDGE('',*,*,#472,.F.);
#371=ORIENTED_EDGE('',*,*,#535,.T.);
#372=ORIENTED_EDGE('',*,*,#538,.T.);
#373=ORIENTED_EDGE('',*,*,#539,.F.);
#374=ORIENTED_EDGE('',*,*,#521,.F.);
#375=ORIENTED_EDGE('',*,*,#540,.F.);
#376=ORIENTED_EDGE('',*,*,#541,.T.);
#377=ORIENTED_EDGE('',*,*,#536,.T.);
#378=ORIENTED_EDGE('',*,*,#520,.F.);
#379=ORIENTED_EDGE('',*,*,#539,.T.);
#380=ORIENTED_EDGE('',*,*,#542,.T.);
#381=ORIENTED_EDGE('',*,*,#505,.F.);
#382=ORIENTED_EDGE('',*,*,#543,.F.);
#383=ORIENTED_EDGE('',*,*,#464,.F.);
#384=ORIENTED_EDGE('',*,*,#446,.F.);
#385=ORIENTED_EDGE('',*,*,#544,.T.);
#386=ORIENTED_EDGE('',*,*,#540,.T.);
#387=ORIENTED_EDGE('',*,*,#478,.F.);
#388=ORIENTED_EDGE('',*,*,#545,.F.);
#389=ORIENTED_EDGE('',*,*,#543,.T.);
#390=ORIENTED_EDGE('',*,*,#481,.F.);
#391=ORIENTED_EDGE('',*,*,#546,.F.);
#392=ORIENTED_EDGE('',*,*,#465,.F.);
#393=ORIENTED_EDGE('',*,*,#545,.T.);
#394=ORIENTED_EDGE('',*,*,#477,.F.);
#395=ORIENTED_EDGE('',*,*,#547,.F.);
#396=ORIENTED_EDGE('',*,*,#488,.F.);
#397=ORIENTED_EDGE('',*,*,#546,.T.);
#398=ORIENTED_EDGE('',*,*,#480,.F.);
#399=ORIENTED_EDGE('',*,*,#547,.T.);
#400=ORIENTED_EDGE('',*,*,#496,.F.);
#401=ORIENTED_EDGE('',*,*,#502,.F.);
#402=ORIENTED_EDGE('',*,*,#524,.F.);
#403=ORIENTED_EDGE('',*,*,#508,.F.);
#404=ORIENTED_EDGE('',*,*,#506,.F.);
#405=ORIENTED_EDGE('',*,*,#542,.F.);
#406=ORIENTED_EDGE('',*,*,#538,.F.);
#407=ORIENTED_EDGE('',*,*,#534,.F.);
#408=ORIENTED_EDGE('',*,*,#449,.F.);
#409=ORIENTED_EDGE('',*,*,#544,.F.);
#410=ORIENTED_EDGE('',*,*,#445,.F.);
#411=ORIENTED_EDGE('',*,*,#517,.F.);
#412=ORIENTED_EDGE('',*,*,#522,.F.);
#413=ORIENTED_EDGE('',*,*,#512,.F.);
#414=ORIENTED_EDGE('',*,*,#462,.F.);
#415=ORIENTED_EDGE('',*,*,#537,.F.);
#416=ORIENTED_EDGE('',*,*,#541,.F.);
#417=ORIENTED_EDGE('',*,*,#548,.T.);
#418=ORIENTED_EDGE('',*,*,#443,.F.);
#419=ORIENTED_EDGE('',*,*,#549,.T.);
#420=ORIENTED_EDGE('',*,*,#550,.T.);
#421=ORIENTED_EDGE('',*,*,#550,.F.);
#422=ORIENTED_EDGE('',*,*,#440,.F.);
#423=ORIENTED_EDGE('',*,*,#548,.F.);
#424=ORIENTED_EDGE('',*,*,#549,.F.);
#425=ORIENTED_EDGE('',*,*,#442,.T.);
#426=ORIENTED_EDGE('',*,*,#551,.T.);
#427=ORIENTED_EDGE('',*,*,#551,.F.);
#428=ORIENTED_EDGE('',*,*,#437,.F.);
#429=ORIENTED_EDGE('',*,*,#552,.T.);
#430=ORIENTED_EDGE('',*,*,#553,.F.);
#431=ORIENTED_EDGE('',*,*,#439,.T.);
#432=ORIENTED_EDGE('',*,*,#553,.T.);
#433=ORIENTED_EDGE('',*,*,#435,.F.);
#434=ORIENTED_EDGE('',*,*,#552,.F.);
#435=EDGE_CURVE('',#554,#554,#635,.F.);
#436=EDGE_CURVE('',#555,#555,#636,.F.);
#437=EDGE_CURVE('',#556,#556,#637,.T.);
#438=EDGE_CURVE('',#557,#557,#638,.T.);
#439=EDGE_CURVE('',#558,#558,#639,.F.);
#440=EDGE_CURVE('',#559,#559,#640,.F.);
#441=EDGE_CURVE('',#560,#560,#641,.T.);
#442=EDGE_CURVE('',#561,#561,#642,.T.);
#443=EDGE_CURVE('',#562,#562,#643,.T.);
#444=EDGE_CURVE('',#563,#564,#37,.T.);
#445=EDGE_CURVE('',#563,#565,#38,.F.);
#446=EDGE_CURVE('',#565,#566,#39,.T.);
#447=EDGE_CURVE('',#566,#564,#40,.T.);
#448=EDGE_CURVE('',#567,#568,#41,.T.);
#449=EDGE_CURVE('',#567,#569,#42,.T.);
#450=EDGE_CURVE('',#569,#570,#43,.T.);
#451=EDGE_CURVE('',#568,#570,#44,.T.);
#452=EDGE_CURVE('',#570,#571,#45,.T.);
#453=EDGE_CURVE('',#571,#572,#644,.F.);
#454=EDGE_CURVE('',#572,#573,#46,.T.);
#455=EDGE_CURVE('',#574,#573,#47,.T.);
#456=EDGE_CURVE('',#575,#574,#48,.T.);
#457=EDGE_CURVE('',#575,#576,#645,.F.);
#458=EDGE_CURVE('',#576,#577,#646,.T.);
#459=EDGE_CURVE('',#577,#578,#647,.F.);
#460=EDGE_CURVE('',#568,#578,#49,.T.);
#461=EDGE_CURVE('',#573,#579,#50,.F.);
#462=EDGE_CURVE('',#579,#580,#51,.F.);
#463=EDGE_CURVE('',#580,#574,#52,.T.);
#464=EDGE_CURVE('',#581,#582,#53,.T.);
#465=EDGE_CURVE('',#582,#583,#54,.T.);
#466=EDGE_CURVE('',#584,#583,#55,.T.);
#467=EDGE_CURVE('',#581,#584,#56,.T.);
#468=EDGE_CURVE('',#585,#586,#57,.T.);
#469=EDGE_CURVE('',#586,#587,#58,.F.);
#470=EDGE_CURVE('',#587,#588,#59,.F.);
#471=EDGE_CURVE('',#588,#585,#60,.T.);
#472=EDGE_CURVE('',#589,#590,#61,.T.);
#473=EDGE_CURVE('',#590,#591,#62,.F.);
#474=EDGE_CURVE('',#592,#591,#63,.T.);
#475=EDGE_CURVE('',#592,#589,#64,.T.);
#476=EDGE_CURVE('',#593,#594,#65,.T.);
#477=EDGE_CURVE('',#594,#595,#66,.T.);
#478=EDGE_CURVE('',#595,#596,#67,.F.);
#479=EDGE_CURVE('',#593,#596,#68,.T.);
#480=EDGE_CURVE('',#597,#598,#648,.F.);
#481=EDGE_CURVE('',#598,#599,#69,.F.);
#482=EDGE_CURVE('',#599,#600,#70,.T.);
#483=EDGE_CURVE('',#600,#601,#71,.T.);
#484=EDGE_CURVE('',#601,#602,#649,.F.);
#485=EDGE_CURVE('',#602,#603,#650,.T.);
#486=EDGE_CURVE('',#603,#604,#651,.F.);
#487=EDGE_CURVE('',#604,#564,#72,.T.);
#488=EDGE_CURVE('',#566,#597,#73,.F.);
#489=EDGE_CURVE('',#605,#606,#652,.F.);
#490=EDGE_CURVE('',#606,#603,#74,.T.);
#491=EDGE_CURVE('',#602,#607,#75,.F.);
#492=EDGE_CURVE('',#607,#608,#653,.F.);
#493=EDGE_CURVE('',#608,#577,#76,.T.);
#494=EDGE_CURVE('',#576,#605,#77,.F.);
#495=EDGE_CURVE('',#609,#609,#654,.T.);
#496=EDGE_CURVE('',#583,#594,#655,.T.);
#497=EDGE_CURVE('',#593,#592,#656,.F.);
#498=EDGE_CURVE('',#591,#586,#657,.T.);
#499=EDGE_CURVE('',#585,#584,#658,.F.);
#500=EDGE_CURVE('',#610,#610,#659,.T.);
#501=EDGE_CURVE('',#611,#612,#78,.T.);
#502=EDGE_CURVE('',#611,#567,#660,.F.);
#503=EDGE_CURVE('',#578,#613,#79,.F.);
#504=EDGE_CURVE('',#613,#612,#21,.T.);
#505=EDGE_CURVE('',#599,#614,#80,.F.);
#506=EDGE_CURVE('',#614,#615,#81,.T.);
#507=EDGE_CURVE('',#615,#600,#82,.T.);
#508=EDGE_CURVE('',#615,#616,#661,.T.);
#509=EDGE_CURVE('',#616,#617,#83,.T.);
#510=EDGE_CURVE('',#617,#618,#22,.T.);
#511=EDGE_CURVE('',#618,#601,#84,.F.);
#512=EDGE_CURVE('',#580,#619,#662,.F.);
#513=EDGE_CURVE('',#620,#619,#85,.T.);
#514=EDGE_CURVE('',#620,#621,#23,.T.);
#515=EDGE_CURVE('',#621,#575,#86,.T.);
#516=EDGE_CURVE('',#622,#623,#87,.T.);
#517=EDGE_CURVE('',#623,#563,#663,.T.);
#518=EDGE_CURVE('',#604,#624,#88,.T.);
#519=EDGE_CURVE('',#624,#622,#24,.T.);
#520=EDGE_CURVE('',#596,#589,#89,.F.);
#521=EDGE_CURVE('',#588,#581,#90,.F.);
#522=EDGE_CURVE('',#619,#623,#91,.T.);
#523=EDGE_CURVE('',#622,#620,#664,.T.);
#524=EDGE_CURVE('',#616,#611,#92,.F.);
#525=EDGE_CURVE('',#612,#617,#665,.T.);
#526=EDGE_CURVE('',#605,#621,#25,.F.);
#527=EDGE_CURVE('',#624,#606,#26,.T.);
#528=EDGE_CURVE('',#607,#618,#27,.F.);
#529=EDGE_CURVE('',#608,#613,#28,.F.);
#530=EDGE_CURVE('',#572,#591,#29,.F.);
#531=EDGE_CURVE('',#586,#571,#30,.T.);
#532=EDGE_CURVE('',#587,#570,#13,.F.);
#533=EDGE_CURVE('',#573,#590,#14,.T.);
#534=EDGE_CURVE('',#569,#625,#31,.F.);
#535=EDGE_CURVE('',#588,#625,#15,.F.);
#536=EDGE_CURVE('',#626,#589,#16,.F.);
#537=EDGE_CURVE('',#626,#579,#32,.T.);
#538=EDGE_CURVE('',#625,#627,#93,.F.);
#539=EDGE_CURVE('',#581,#627,#17,.F.);
#540=EDGE_CURVE('',#628,#596,#18,.F.);
#541=EDGE_CURVE('',#628,#626,#94,.F.);
#542=EDGE_CURVE('',#627,#614,#33,.T.);
#543=EDGE_CURVE('',#582,#599,#19,.F.);
#544=EDGE_CURVE('',#565,#628,#34,.F.);
#545=EDGE_CURVE('',#566,#595,#20,.T.);
#546=EDGE_CURVE('',#583,#598,#35,.T.);
#547=EDGE_CURVE('',#597,#594,#36,.F.);
#548=EDGE_CURVE('',#629,#629,#666,.T.);
#549=EDGE_CURVE('',#630,#630,#667,.F.);
#550=EDGE_CURVE('',#631,#631,#668,.T.);
#551=EDGE_CURVE('',#632,#632,#669,.F.);
#552=EDGE_CURVE('',#633,#633,#670,.T.);
#553=EDGE_CURVE('',#634,#634,#671,.T.);
#554=VERTEX_POINT('',#1266);
#555=VERTEX_POINT('',#1268);
#556=VERTEX_POINT('',#1271);
#557=VERTEX_POINT('',#1273);
#558=VERTEX_POINT('',#1276);
#559=VERTEX_POINT('',#1278);
#560=VERTEX_POINT('',#1281);
#561=VERTEX_POINT('',#1284);
#562=VERTEX_POINT('',#1286);
#563=VERTEX_POINT('',#1289);
#564=VERTEX_POINT('',#1290);
#565=VERTEX_POINT('',#1292);
#566=VERTEX_POINT('',#1294);
#567=VERTEX_POINT('',#1298);
#568=VERTEX_POINT('',#1299);
#569=VERTEX_POINT('',#1301);
#570=VERTEX_POINT('',#1303);
#571=VERTEX_POINT('',#1307);
#572=VERTEX_POINT('',#1309);
#573=VERTEX_POINT('',#1311);
#574=VERTEX_POINT('',#1313);
#575=VERTEX_POINT('',#1315);
#576=VERTEX_POINT('',#1317);
#577=VERTEX_POINT('',#1319);
#578=VERTEX_POINT('',#1321);
#579=VERTEX_POINT('',#1325);
#580=VERTEX_POINT('',#1327);
#581=VERTEX_POINT('',#1331);
#582=VERTEX_POINT('',#1332);
#583=VERTEX_POINT('',#1334);
#584=VERTEX_POINT('',#1336);
#585=VERTEX_POINT('',#1340);
#586=VERTEX_POINT('',#1341);
#587=VERTEX_POINT('',#1343);
#588=VERTEX_POINT('',#1345);
#589=VERTEX_POINT('',#1349);
#590=VERTEX_POINT('',#1350);
#591=VERTEX_POINT('',#1352);
#592=VERTEX_POINT('',#1354);
#593=VERTEX_POINT('',#1358);
#594=VERTEX_POINT('',#1359);
#595=VERTEX_POINT('',#1361);
#596=VERTEX_POINT('',#1363);
#597=VERTEX_POINT('',#1367);
#598=VERTEX_POINT('',#1368);
#599=VERTEX_POINT('',#1370);
#600=VERTEX_POINT('',#1372);
#601=VERTEX_POINT('',#1374);
#602=VERTEX_POINT('',#1376);
#603=VERTEX_POINT('',#1378);
#604=VERTEX_POINT('',#1380);
#605=VERTEX_POINT('',#1385);
#606=VERTEX_POINT('',#1386);
#607=VERTEX_POINT('',#1389);
#608=VERTEX_POINT('',#1391);
#609=VERTEX_POINT('',#1395);
#610=VERTEX_POINT('',#1402);
#611=VERTEX_POINT('',#1407);
#612=VERTEX_POINT('',#1408);
#613=VERTEX_POINT('',#1411);
#614=VERTEX_POINT('',#1418);
#615=VERTEX_POINT('',#1420);
#616=VERTEX_POINT('',#1424);
#617=VERTEX_POINT('',#1426);
#618=VERTEX_POINT('',#1431);
#619=VERTEX_POINT('',#1435);
#620=VERTEX_POINT('',#1437);
#621=VERTEX_POINT('',#1442);
#622=VERTEX_POINT('',#1446);
#623=VERTEX_POINT('',#1447);
#624=VERTEX_POINT('',#1450);
#625=VERTEX_POINT('',#1511);
#626=VERTEX_POINT('',#1515);
#627=VERTEX_POINT('',#1522);
#628=VERTEX_POINT('',#1526);
#629=VERTEX_POINT('',#1557);
#630=VERTEX_POINT('',#1560);
#631=VERTEX_POINT('',#1562);
#632=VERTEX_POINT('',#1567);
#633=VERTEX_POINT('',#1571);
#634=VERTEX_POINT('',#1573);
#635=CIRCLE('',#901,0.00366492921606381);
#636=CIRCLE('',#902,0.003175);
#637=CIRCLE('',#904,0.002159);
#638=CIRCLE('',#905,0.002159);
#639=CIRCLE('',#907,0.00357460550000001);
#640=CIRCLE('',#908,0.0035746055);
#641=CIRCLE('',#910,0.003175);
#642=CIRCLE('',#912,0.00274737771703522);
#643=CIRCLE('',#913,0.00324919383178226);
#644=CIRCLE('',#917,0.00301749434277987);
#645=CIRCLE('',#918,0.00331133532215094);
#646=CIRCLE('',#919,0.003175);
#647=CIRCLE('',#920,0.00331133532215094);
#648=CIRCLE('',#927,0.00301749434277987);
#649=CIRCLE('',#928,0.00331133532215094);
#650=CIRCLE('',#929,0.003175);
#651=CIRCLE('',#930,0.00331133532215094);
#652=CIRCLE('',#932,0.003175);
#653=CIRCLE('',#933,0.003175);
#654=CIRCLE('',#934,0.003175);
#655=CIRCLE('',#936,0.002159);
#656=CIRCLE('',#937,0.002159);
#657=CIRCLE('',#938,0.002159);
#658=CIRCLE('',#939,0.002159);
#659=CIRCLE('',#940,0.002159);
#660=CIRCLE('',#944,0.00245284097937107);
#661=CIRCLE('',#947,0.00245284097937107);
#662=CIRCLE('',#949,0.00245284097937107);
#663=CIRCLE('',#951,0.00245284097937107);
#664=CIRCLE('',#955,0.00648633532215094);
#665=CIRCLE('',#957,0.00648633532215094);
#666=CIRCLE('',#987,0.00357510862359645);
#667=CIRCLE('',#989,0.00363810550000001);
#668=CIRCLE('',#990,0.00363810550000001);
#669=CIRCLE('',#994,0.00274737771703522);
#670=CIRCLE('',#997,0.0048446055);
#671=CIRCLE('',#998,0.0048446055);
#672=EDGE_LOOP('',(#197));
#673=EDGE_LOOP('',(#198));
#674=EDGE_LOOP('',(#199));
#675=EDGE_LOOP('',(#200));
#676=EDGE_LOOP('',(#201));
#677=EDGE_LOOP('',(#202));
#678=EDGE_LOOP('',(#203));
#679=EDGE_LOOP('',(#204));
#680=EDGE_LOOP('',(#205));
#681=EDGE_LOOP('',(#206));
#682=EDGE_LOOP('',(#207,#208,#209,#210));
#683=EDGE_LOOP('',(#211,#212,#213,#214));
#684=EDGE_LOOP('',(#215,#216,#217,#218,#219,#220,#221,#222,#223,#224));
#685=EDGE_LOOP('',(#225,#226,#227,#228));
#686=EDGE_LOOP('',(#229,#230,#231,#232));
#687=EDGE_LOOP('',(#233,#234,#235,#236));
#688=EDGE_LOOP('',(#237,#238,#239,#240));
#689=EDGE_LOOP('',(#241,#242,#243,#244));
#690=EDGE_LOOP('',(#245,#246,#247,#248,#249,#250,#251,#252,#253,#254));
#691=EDGE_LOOP('',(#255,#256,#257,#258,#259,#260,#261,#262));
#692=EDGE_LOOP('',(#263));
#693=EDGE_LOOP('',(#264,#265,#266,#267,#268,#269,#270,#271));
#694=EDGE_LOOP('',(#272));
#695=EDGE_LOOP('',(#273));
#696=EDGE_LOOP('',(#274));
#697=EDGE_LOOP('',(#275));
#698=EDGE_LOOP('',(#276));
#699=EDGE_LOOP('',(#277,#278,#279,#280,#281,#282));
#700=EDGE_LOOP('',(#283,#284,#285,#286));
#701=EDGE_LOOP('',(#287,#288,#289,#290,#291,#292));
#702=EDGE_LOOP('',(#293,#294,#295,#296,#297,#298));
#703=EDGE_LOOP('',(#299,#300,#301,#302,#303,#304));
#704=EDGE_LOOP('',(#305,#306,#307,#308));
#705=EDGE_LOOP('',(#309,#310,#311,#312));
#706=EDGE_LOOP('',(#313,#314,#315,#316));
#707=EDGE_LOOP('',(#317,#318,#319,#320));
#708=EDGE_LOOP('',(#321,#322,#323,#324));
#709=EDGE_LOOP('',(#325,#326,#327,#328));
#710=EDGE_LOOP('',(#329,#330,#331,#332,#333,#334));
#711=EDGE_LOOP('',(#335,#336,#337,#338));
#712=EDGE_LOOP('',(#339,#340,#341,#342,#343,#344));
#713=EDGE_LOOP('',(#345,#346,#347,#348));
#714=EDGE_LOOP('',(#349,#350,#351,#352));
#715=EDGE_LOOP('',(#353,#354,#355,#356));
#716=EDGE_LOOP('',(#357,#358,#359,#360));
#717=EDGE_LOOP('',(#361,#362,#363,#364,#365));
#718=EDGE_LOOP('',(#366,#367,#368,#369,#370));
#719=EDGE_LOOP('',(#371,#372,#373,#374));
#720=EDGE_LOOP('',(#375,#376,#377,#378));
#721=EDGE_LOOP('',(#379,#380,#381,#382,#383));
#722=EDGE_LOOP('',(#384,#385,#386,#387,#388));
#723=EDGE_LOOP('',(#389,#390,#391,#392));
#724=EDGE_LOOP('',(#393,#394,#395,#396));
#725=EDGE_LOOP('',(#397,#398,#399,#400));
#726=EDGE_LOOP('',(#401,#402,#403,#404,#405,#406,#407,#408));
#727=EDGE_LOOP('',(#409,#410,#411,#412,#413,#414,#415,#416));
#728=EDGE_LOOP('',(#417));
#729=EDGE_LOOP('',(#418));
#730=EDGE_LOOP('',(#419));
#731=EDGE_LOOP('',(#420));
#732=EDGE_LOOP('',(#421));
#733=EDGE_LOOP('',(#422));
#734=EDGE_LOOP('',(#423));
#735=EDGE_LOOP('',(#424));
#736=EDGE_LOOP('',(#425));
#737=EDGE_LOOP('',(#426));
#738=EDGE_LOOP('',(#427));
#739=EDGE_LOOP('',(#428));
#740=EDGE_LOOP('',(#429));
#741=EDGE_LOOP('',(#430));
#742=EDGE_LOOP('',(#431));
#743=EDGE_LOOP('',(#432));
#744=EDGE_LOOP('',(#433));
#745=EDGE_LOOP('',(#434));
#746=FACE_BOUND('',#672,.T.);
#747=FACE_BOUND('',#673,.T.);
#748=FACE_BOUND('',#674,.T.);
#749=FACE_BOUND('',#675,.T.);
#750=FACE_BOUND('',#676,.T.);
#751=FACE_BOUND('',#677,.T.);
#752=FACE_BOUND('',#678,.T.);
#753=FACE_BOUND('',#679,.T.);
#754=FACE_BOUND('',#680,.T.);
#755=FACE_BOUND('',#681,.T.);
#756=FACE_BOUND('',#682,.T.);
#757=FACE_BOUND('',#683,.T.);
#758=FACE_BOUND('',#684,.T.);
#759=FACE_BOUND('',#685,.T.);
#760=FACE_BOUND('',#686,.T.);
#761=FACE_BOUND('',#687,.T.);
#762=FACE_BOUND('',#688,.T.);
#763=FACE_BOUND('',#689,.T.);
#764=FACE_BOUND('',#690,.T.);
#765=FACE_BOUND('',#691,.T.);
#766=FACE_BOUND('',#692,.T.);
#767=FACE_BOUND('',#693,.T.);
#768=FACE_BOUND('',#694,.T.);
#769=FACE_BOUND('',#695,.T.);
#770=FACE_BOUND('',#696,.T.);
#771=FACE_BOUND('',#697,.T.);
#772=FACE_BOUND('',#698,.T.);
#773=FACE_BOUND('',#699,.T.);
#774=FACE_BOUND('',#700,.T.);
#775=FACE_BOUND('',#701,.T.);
#776=FACE_BOUND('',#702,.T.);
#777=FACE_BOUND('',#703,.T.);
#778=FACE_BOUND('',#704,.T.);
#779=FACE_BOUND('',#705,.T.);
#780=FACE_BOUND('',#706,.T.);
#781=FACE_BOUND('',#707,.T.);
#782=FACE_BOUND('',#708,.T.);
#783=FACE_BOUND('',#709,.T.);
#784=FACE_BOUND('',#710,.T.);
#785=FACE_BOUND('',#711,.T.);
#786=FACE_BOUND('',#712,.T.);
#787=FACE_BOUND('',#713,.T.);
#788=FACE_BOUND('',#714,.T.);
#789=FACE_BOUND('',#715,.T.);
#790=FACE_BOUND('',#716,.T.);
#791=FACE_BOUND('',#717,.T.);
#792=FACE_BOUND('',#718,.T.);
#793=FACE_BOUND('',#719,.T.);
#794=FACE_BOUND('',#720,.T.);
#795=FACE_BOUND('',#721,.T.);
#796=FACE_BOUND('',#722,.T.);
#797=FACE_BOUND('',#723,.T.);
#798=FACE_BOUND('',#724,.T.);
#799=FACE_BOUND('',#725,.T.);
#800=FACE_BOUND('',#726,.T.);
#801=FACE_BOUND('',#727,.T.);
#802=FACE_BOUND('',#728,.T.);
#803=FACE_BOUND('',#729,.T.);
#804=FACE_BOUND('',#730,.T.);
#805=FACE_BOUND('',#731,.T.);
#806=FACE_BOUND('',#732,.T.);
#807=FACE_BOUND('',#733,.T.);
#808=FACE_BOUND('',#734,.T.);
#809=FACE_BOUND('',#735,.T.);
#810=FACE_BOUND('',#736,.T.);
#811=FACE_BOUND('',#737,.T.);
#812=FACE_BOUND('',#738,.T.);
#813=FACE_BOUND('',#739,.T.);
#814=FACE_BOUND('',#740,.T.);
#815=FACE_BOUND('',#741,.T.);
#816=FACE_BOUND('',#742,.T.);
#817=FACE_BOUND('',#743,.T.);
#818=FACE_BOUND('',#744,.T.);
#819=FACE_BOUND('',#745,.T.);
#820=TOROIDAL_SURFACE('',#900,0.00450246205205536,0.00132746205205536);
#821=TOROIDAL_SURFACE('',#941,0.00635,0.003175);
#822=TOROIDAL_SURFACE('',#942,0.00635,0.002159);
#823=TOROIDAL_SURFACE('',#960,0.00648633532215094,0.00331133532215094);
#824=TOROIDAL_SURFACE('',#962,0.00648633532215094,0.00331133532215094);
#825=TOROIDAL_SURFACE('',#964,0.00301749434277987,0.000858494342779872);
#826=TOROIDAL_SURFACE('',#983,0.00301749434277987,0.000858494342779872);
#827=TOROIDAL_SURFACE('',#986,0.0049533048,0.0017783048);
#828=TOROIDAL_SURFACE('',#991,0.00425526887177547,0.000680663371775471);
#829=TOROIDAL_SURFACE('',#992,0.00425526887177547,0.000680663371775471);
#830=TOROIDAL_SURFACE('',#1000,0.0032502588634088,0.0015943466365912);
#831=ADVANCED_FACE('',(#746,#747),#820,.F.);
#832=ADVANCED_FACE('',(#748,#749),#173,.F.);
#833=ADVANCED_FACE('',(#750,#751),#174,.T.);
#834=ADVANCED_FACE('',(#752,#753),#175,.T.);
#835=ADVANCED_FACE('',(#754,#755),#153,.T.);
#836=ADVANCED_FACE('',(#756),#154,.F.);
#837=ADVANCED_FACE('',(#757),#155,.T.);
#838=ADVANCED_FACE('',(#758),#156,.T.);
#839=ADVANCED_FACE('',(#759),#157,.F.);
#840=ADVANCED_FACE('',(#760),#158,.F.);
#841=ADVANCED_FACE('',(#761),#159,.T.);
#842=ADVANCED_FACE('',(#762),#160,.T.);
#843=ADVANCED_FACE('',(#763),#161,.F.);
#844=ADVANCED_FACE('',(#764),#162,.T.);
#845=ADVANCED_FACE('',(#765,#766),#176,.T.);
#846=ADVANCED_FACE('',(#767,#768),#177,.F.);
#847=ADVANCED_FACE('',(#769,#770),#821,.T.);
#848=ADVANCED_FACE('',(#771,#772),#822,.F.);
#849=ADVANCED_FACE('',(#773),#163,.F.);
#850=ADVANCED_FACE('',(#774),#164,.T.);
#851=ADVANCED_FACE('',(#775),#165,.T.);
#852=ADVANCED_FACE('',(#776),#166,.F.);
#853=ADVANCED_FACE('',(#777),#167,.T.);
#854=ADVANCED_FACE('',(#778),#168,.T.);
#855=ADVANCED_FACE('',(#779),#169,.T.);
#856=ADVANCED_FACE('',(#780),#170,.F.);
#857=ADVANCED_FACE('',(#781),#171,.F.);
#858=ADVANCED_FACE('',(#782),#178,.F.);
#859=ADVANCED_FACE('',(#783),#179,.F.);
#860=ADVANCED_FACE('',(#784),#823,.F.);
#861=ADVANCED_FACE('',(#785),#180,.F.);
#862=ADVANCED_FACE('',(#786),#824,.F.);
#863=ADVANCED_FACE('',(#787),#181,.F.);
#864=ADVANCED_FACE('',(#788),#825,.T.);
#865=ADVANCED_FACE('',(#789),#182,.T.);
#866=ADVANCED_FACE('',(#790),#183,.T.);
#867=ADVANCED_FACE('',(#791),#184,.T.);
#868=ADVANCED_FACE('',(#792),#185,.T.);
#869=ADVANCED_FACE('',(#793),#186,.T.);
#870=ADVANCED_FACE('',(#794),#187,.T.);
#871=ADVANCED_FACE('',(#795),#188,.T.);
#872=ADVANCED_FACE('',(#796),#189,.T.);
#873=ADVANCED_FACE('',(#797),#190,.T.);
#874=ADVANCED_FACE('',(#798),#191,.T.);
#875=ADVANCED_FACE('',(#799),#826,.T.);
#876=ADVANCED_FACE('',(#800),#192,.T.);
#877=ADVANCED_FACE('',(#801),#193,.T.);
#878=ADVANCED_FACE('',(#802,#803),#827,.F.);
#879=ADVANCED_FACE('',(#804,#805),#194,.T.);
#880=ADVANCED_FACE('',(#806,#807),#828,.F.);
#881=ADVANCED_FACE('',(#808,#809),#829,.F.);
#882=ADVANCED_FACE('',(#810,#811),#195,.F.);
#883=ADVANCED_FACE('',(#812,#813),#12,.F.);
#884=ADVANCED_FACE('',(#814,#815),#196,.T.);
#885=ADVANCED_FACE('',(#816,#817),#172,.T.);
#886=ADVANCED_FACE('',(#818,#819),#830,.T.);
#887=CLOSED_SHELL('',(#831,#832,#833,#834,#835,#836,#837,#838,#839,#840,
#841,#842,#843,#844,#845,#846,#847,#848,#849,#850,#851,#852,#853,#854,#855,
#856,#857,#858,#859,#860,#861,#862,#863,#864,#865,#866,#867,#868,#869,#870,
#871,#872,#873,#874,#875,#876,#877,#878,#879,#880,#881,#882,#883,#884,#885,
#886));
#888=STYLED_ITEM('',(#889),#896);
#889=PRESENTATION_STYLE_ASSIGNMENT((#890));
#890=SURFACE_STYLE_USAGE(.BOTH.,#891);
#891=SURFACE_SIDE_STYLE('',(#892));
#892=SURFACE_STYLE_FILL_AREA(#893);
#893=FILL_AREA_STYLE('',(#894));
#894=FILL_AREA_STYLE_COLOUR('',#895);
#895=COLOUR_RGB('',0.917647058823529,0.917647058823529,0.917647058823529);
#896=MANIFOLD_SOLID_BREP('Part 12',#887);
#897=SHAPE_DEFINITION_REPRESENTATION(#1582,#898);
#898=SHAPE_REPRESENTATION('Part 12',(#899),#1577);
#899=AXIS2_PLACEMENT_3D('',#1263,#1001,#1002);
#900=AXIS2_PLACEMENT_3D('',#1264,#1003,#1004);
#901=AXIS2_PLACEMENT_3D('',#1265,#1005,#1006);
#902=AXIS2_PLACEMENT_3D('',#1267,#1007,#1008);
#903=AXIS2_PLACEMENT_3D('',#1269,#1009,#1010);
#904=AXIS2_PLACEMENT_3D('',#1270,#1011,#1012);
#905=AXIS2_PLACEMENT_3D('',#1272,#1013,#1014);
#906=AXIS2_PLACEMENT_3D('',#1274,#1015,#1016);
#907=AXIS2_PLACEMENT_3D('',#1275,#1017,#1018);
#908=AXIS2_PLACEMENT_3D('',#1277,#1019,#1020);
#909=AXIS2_PLACEMENT_3D('',#1279,#1021,#1022);
#910=AXIS2_PLACEMENT_3D('',#1280,#1023,#1024);
#911=AXIS2_PLACEMENT_3D('',#1282,#1025,#1026);
#912=AXIS2_PLACEMENT_3D('',#1283,#1027,#1028);
#913=AXIS2_PLACEMENT_3D('',#1285,#1029,#1030);
#914=AXIS2_PLACEMENT_3D('',#1287,#1031,#1032);
#915=AXIS2_PLACEMENT_3D('',#1296,#1037,#1038);
#916=AXIS2_PLACEMENT_3D('',#1305,#1043,#1044);
#917=AXIS2_PLACEMENT_3D('',#1308,#1046,#1047);
#918=AXIS2_PLACEMENT_3D('',#1316,#1051,#1052);
#919=AXIS2_PLACEMENT_3D('',#1318,#1053,#1054);
#920=AXIS2_PLACEMENT_3D('',#1320,#1055,#1056);
#921=AXIS2_PLACEMENT_3D('',#1323,#1058,#1059);
#922=AXIS2_PLACEMENT_3D('',#1329,#1063,#1064);
#923=AXIS2_PLACEMENT_3D('',#1338,#1069,#1070);
#924=AXIS2_PLACEMENT_3D('',#1347,#1075,#1076);
#925=AXIS2_PLACEMENT_3D('',#1356,#1081,#1082);
#926=AXIS2_PLACEMENT_3D('',#1365,#1087,#1088);
#927=AXIS2_PLACEMENT_3D('',#1366,#1089,#1090);
#928=AXIS2_PLACEMENT_3D('',#1375,#1094,#1095);
#929=AXIS2_PLACEMENT_3D('',#1377,#1096,#1097);
#930=AXIS2_PLACEMENT_3D('',#1379,#1098,#1099);
#931=AXIS2_PLACEMENT_3D('',#1383,#1102,#1103);
#932=AXIS2_PLACEMENT_3D('',#1384,#1104,#1105);
#933=AXIS2_PLACEMENT_3D('',#1390,#1108,#1109);
#934=AXIS2_PLACEMENT_3D('',#1394,#1112,#1113);
#935=AXIS2_PLACEMENT_3D('',#1396,#1114,#1115);
#936=AXIS2_PLACEMENT_3D('',#1397,#1116,#1117);
#937=AXIS2_PLACEMENT_3D('',#1398,#1118,#1119);
#938=AXIS2_PLACEMENT_3D('',#1399,#1120,#1121);
#939=AXIS2_PLACEMENT_3D('',#1400,#1122,#1123);
#940=AXIS2_PLACEMENT_3D('',#1401,#1124,#1125);
#941=AXIS2_PLACEMENT_3D('',#1403,#1126,#1127);
#942=AXIS2_PLACEMENT_3D('',#1404,#1128,#1129);
#943=AXIS2_PLACEMENT_3D('',#1405,#1130,#1131);
#944=AXIS2_PLACEMENT_3D('',#1409,#1133,#1134);
#945=AXIS2_PLACEMENT_3D('',#1416,#1136,#1137);
#946=AXIS2_PLACEMENT_3D('',#1422,#1141,#1142);
#947=AXIS2_PLACEMENT_3D('',#1423,#1143,#1144);
#948=AXIS2_PLACEMENT_3D('',#1433,#1147,#1148);
#949=AXIS2_PLACEMENT_3D('',#1434,#1149,#1150);
#950=AXIS2_PLACEMENT_3D('',#1444,#1153,#1154);
#951=AXIS2_PLACEMENT_3D('',#1448,#1156,#1157);
#952=AXIS2_PLACEMENT_3D('',#1455,#1159,#1160);
#953=AXIS2_PLACEMENT_3D('',#1457,#1162,#1163);
#954=AXIS2_PLACEMENT_3D('',#1459,#1165,#1166);
#955=AXIS2_PLACEMENT_3D('',#1461,#1168,#1169);
#956=AXIS2_PLACEMENT_3D('',#1462,#1170,#1171);
#957=AXIS2_PLACEMENT_3D('',#1464,#1173,#1174);
#958=AXIS2_PLACEMENT_3D('',#1465,#1175,#1176);
#959=AXIS2_PLACEMENT_3D('',#1471,#1177,#1178);
#960=AXIS2_PLACEMENT_3D('',#1477,#1179,#1180);
#961=AXIS2_PLACEMENT_3D('',#1478,#1181,#1182);
#962=AXIS2_PLACEMENT_3D('',#1484,#1183,#1184);
#963=AXIS2_PLACEMENT_3D('',#1490,#1185,#1186);
#964=AXIS2_PLACEMENT_3D('',#1491,#1187,#1188);
#965=AXIS2_PLACEMENT_3D('',#1502,#1189,#1190);
#966=AXIS2_PLACEMENT_3D('',#1503,#1191,#1192);
#967=AXIS2_PLACEMENT_3D('',#1504,#1193,#1194);
#968=AXIS2_PLACEMENT_3D('',#1505,#1195,#1196);
#969=AXIS2_PLACEMENT_3D('',#1506,#1197,#1198);
#970=AXIS2_PLACEMENT_3D('',#1512,#1199,#1200);
#971=AXIS2_PLACEMENT_3D('',#1513,#1201,#1202);
#972=AXIS2_PLACEMENT_3D('',#1514,#1203,#1204);
#973=AXIS2_PLACEMENT_3D('',#1520,#1205,#1206);
#974=AXIS2_PLACEMENT_3D('',#1523,#1208,#1209);
#975=AXIS2_PLACEMENT_3D('',#1524,#1210,#1211);
#976=AXIS2_PLACEMENT_3D('',#1525,#1212,#1213);
#977=AXIS2_PLACEMENT_3D('',#1528,#1215,#1216);
#978=AXIS2_PLACEMENT_3D('',#1533,#1217,#1218);
#979=AXIS2_PLACEMENT_3D('',#1534,#1219,#1220);
#980=AXIS2_PLACEMENT_3D('',#1539,#1221,#1222);
#981=AXIS2_PLACEMENT_3D('',#1540,#1223,#1224);
#982=AXIS2_PLACEMENT_3D('',#1546,#1225,#1226);
#983=AXIS2_PLACEMENT_3D('',#1552,#1227,#1228);
#984=AXIS2_PLACEMENT_3D('',#1553,#1229,#1230);
#985=AXIS2_PLACEMENT_3D('',#1554,#1231,#1232);
#986=AXIS2_PLACEMENT_3D('',#1555,#1233,#1234);
#987=AXIS2_PLACEMENT_3D('',#1556,#1235,#1236);
#988=AXIS2_PLACEMENT_3D('',#1558,#1237,#1238);
#989=AXIS2_PLACEMENT_3D('',#1559,#1239,#1240);
#990=AXIS2_PLACEMENT_3D('',#1561,#1241,#1242);
#991=AXIS2_PLACEMENT_3D('',#1563,#1243,#1244);
#992=AXIS2_PLACEMENT_3D('',#1564,#1245,#1246);
#993=AXIS2_PLACEMENT_3D('',#1565,#1247,#1248);
#994=AXIS2_PLACEMENT_3D('',#1566,#1249,#1250);
#995=AXIS2_PLACEMENT_3D('',#1568,#1251,#1252);
#996=AXIS2_PLACEMENT_3D('',#1569,#1253,#1254);
#997=AXIS2_PLACEMENT_3D('',#1570,#1255,#1256);
#998=AXIS2_PLACEMENT_3D('',#1572,#1257,#1258);
#999=AXIS2_PLACEMENT_3D('',#1574,#1259,#1260);
#1000=AXIS2_PLACEMENT_3D('',#1575,#1261,#1262);
#1001=DIRECTION('',(0.,0.,1.));
#1002=DIRECTION('',(1.,0.,0.));
#1003=DIRECTION('',(0.,0.,1.));
#1004=DIRECTION('',(1.,0.,0.));
#1005=DIRECTION('',(0.,0.,1.));
#1006=DIRECTION('',(1.,0.,0.));
#1007=DIRECTION('',(0.,0.,1.));
#1008=DIRECTION('',(1.,0.,0.));
#1009=DIRECTION('',(0.,0.,-1.));
#1010=DIRECTION('',(-1.,0.,0.));
#1011=DIRECTION('',(0.,0.,1.));
#1012=DIRECTION('',(1.,0.,0.));
#1013=DIRECTION('',(0.,0.,1.));
#1014=DIRECTION('',(1.,0.,0.));
#1015=DIRECTION('',(0.,0.,1.));
#1016=DIRECTION('',(1.,0.,0.));
#1017=DIRECTION('',(0.,0.,1.));
#1018=DIRECTION('',(1.,0.,0.));
#1019=DIRECTION('',(0.,0.,1.));
#1020=DIRECTION('',(1.,0.,0.));
#1021=DIRECTION('',(-1.22464679914735E-16,-2.36156393025745E-30,-1.));
#1022=DIRECTION('',(-1.,0.,1.22464679914735E-16));
#1023=DIRECTION('',(0.,0.,-1.));
#1024=DIRECTION('',(-1.,0.,0.));
#1025=DIRECTION('',(0.,0.,1.));
#1026=DIRECTION('',(1.,0.,0.));
#1027=DIRECTION('',(0.,0.,1.));
#1028=DIRECTION('',(1.,0.,0.));
#1029=DIRECTION('',(0.,0.,1.));
#1030=DIRECTION('',(1.,0.,0.));
#1031=DIRECTION('',(-0.766044443118978,1.05359882512439E-14,-0.642787609686539));
#1032=DIRECTION('',(-0.64278760968654,0.,0.766044443118978));
#1033=DIRECTION('',(0.642787609686539,1.23952802955841E-14,-0.766044443118978));
#1034=DIRECTION('',(1.03502660039054E-16,1.,1.6267738295037E-14));
#1035=DIRECTION('',(0.64278760968654,1.23952802955841E-14,-0.766044443118978));
#1036=DIRECTION('',(1.03502660039056E-16,1.,1.6267738295037E-14));
#1037=DIRECTION('',(-0.766044443118978,1.03164884960097E-14,-0.642787609686539));
#1038=DIRECTION('',(-0.64278760968654,0.,0.766044443118978));
#1039=DIRECTION('',(0.642787609686539,1.23952802955841E-14,-0.766044443118978));
#1040=DIRECTION('',(-6.46439077241147E-17,1.,1.61266465720432E-14));
#1041=DIRECTION('',(0.64278760968654,1.23952802955841E-14,-0.766044443118978));
#1042=DIRECTION('',(-6.46439077241141E-17,1.,1.61266465720432E-14));
#1043=DIRECTION('',(0.642787609686539,1.23952802955841E-14,-0.766044443118978));
#1044=DIRECTION('',(0.766044443118978,-4.511513072979E-15,0.642787609686539));
#1045=DIRECTION('',(0.766044443118978,-1.00790856629731E-14,0.642787609686539));
#1046=DIRECTION('',(0.642787609686539,1.23952802955841E-14,-0.766044443118978));
#1047=DIRECTION('',(-0.766044443118978,0.,-0.642787609686539));
#1048=DIRECTION('',(0.766044443118978,-1.23086711612376E-14,0.642787609686539));
#1049=DIRECTION('',(1.03502660039056E-16,1.,1.6267738295037E-14));
#1050=DIRECTION('',(0.766044443118978,-1.0703986762872E-14,0.64278760968654));
#1051=DIRECTION('',(0.642787609686539,1.23952802955841E-14,-0.766044443118978));
#1052=DIRECTION('',(-0.766044443118978,0.,-0.642787609686539));
#1053=DIRECTION('',(0.642787609686539,1.23952802955841E-14,-0.766044443118978));
#1054=DIRECTION('',(-0.766044443118978,4.511513072979E-15,-0.642787609686539));
#1055=DIRECTION('',(0.642787609686539,1.23952802955841E-14,-0.766044443118978));
#1056=DIRECTION('',(-0.766044443118978,0.,-0.642787609686539));
#1057=DIRECTION('',(0.766044443118978,-9.85029573925441E-15,0.642787609686539));
#1058=DIRECTION('',(-0.766044443118978,1.05359882512439E-14,-0.642787609686539));
#1059=DIRECTION('',(-0.64278760968654,0.,0.766044443118978));
#1060=DIRECTION('',(0.64278760968654,1.23952802955841E-14,-0.766044443118978));
#1061=DIRECTION('',(1.03502660039054E-16,1.,1.6267738295037E-14));
#1062=DIRECTION('',(0.642787609686539,1.23952802955841E-14,-0.766044443118978));
#1063=DIRECTION('',(-1.10041638222571E-16,1.,1.60885533531256E-14));
#1064=DIRECTION('',(0.,-1.60885533531256E-14,1.));
#1065=DIRECTION('',(0.64278760968654,1.23952802955841E-14,-0.766044443118978));
#1066=DIRECTION('',(0.766044443118978,-1.02572259676978E-14,0.642787609686539));
#1067=DIRECTION('',(0.642787609686539,1.23952802955841E-14,-0.766044443118978));
#1068=DIRECTION('',(0.766044443118978,-1.02572259676978E-14,0.642787609686539));
#1069=DIRECTION('',(-2.46505028752507E-16,1.,1.59740469724628E-14));
#1070=DIRECTION('',(0.,-1.59740469724628E-14,1.));
#1071=DIRECTION('',(0.642787609686539,1.23952802955841E-14,-0.766044443118978));
#1072=DIRECTION('',(0.766044443118978,-1.00790856629731E-14,0.642787609686539));
#1073=DIRECTION('',(0.64278760968654,1.23952802955841E-14,-0.766044443118978));
#1074=DIRECTION('',(0.766044443118978,-1.00790856629731E-14,0.642787609686539));
#1075=DIRECTION('',(1.46145655265168E-15,1.,1.7407196905484E-14));
#1076=DIRECTION('',(0.,-1.7407196905484E-14,1.));
#1077=DIRECTION('',(0.64278760968654,1.23952802955841E-14,-0.766044443118978));
#1078=DIRECTION('',(0.766044443118978,-1.23086711612376E-14,0.642787609686539));
#1079=DIRECTION('',(0.642787609686539,1.23952802955841E-14,-0.766044443118978));
#1080=DIRECTION('',(0.766044443118978,-1.23086711612376E-14,0.642787609686539));
#1081=DIRECTION('',(-1.1004163822255E-16,1.,1.60885533531256E-14));
#1082=DIRECTION('',(0.,-1.60885533531256E-14,1.));
#1083=DIRECTION('',(0.642787609686539,1.23952802955841E-14,-0.766044443118978));
#1084=DIRECTION('',(0.766044443118978,-1.02572259676979E-14,0.642787609686539));
#1085=DIRECTION('',(0.64278760968654,1.23952802955841E-14,-0.766044443118978));
#1086=DIRECTION('',(0.766044443118978,-1.02572259676979E-14,0.642787609686539));
#1087=DIRECTION('',(0.642787609686539,1.23952802955841E-14,-0.766044443118978));
#1088=DIRECTION('',(0.766044443118978,-4.511513072979E-15,0.642787609686539));
#1089=DIRECTION('',(0.642787609686539,1.23952802955841E-14,-0.766044443118978));
#1090=DIRECTION('',(-0.766044443118978,0.,-0.642787609686539));
#1091=DIRECTION('',(0.766044443118978,-1.02572259676978E-14,0.642787609686539));
#1092=DIRECTION('',(-6.46439077241141E-17,1.,1.61266465720432E-14));
#1093=DIRECTION('',(0.766044443118978,-1.07039867628721E-14,0.642787609686539));
#1094=DIRECTION('',(0.642787609686539,1.23952802955841E-14,-0.766044443118978));
#1095=DIRECTION('',(-0.766044443118978,0.,-0.642787609686539));
#1096=DIRECTION('',(0.642787609686539,1.23952802955841E-14,-0.766044443118978));
#1097=DIRECTION('',(-0.766044443118978,4.511513072979E-15,-0.642787609686539));
#1098=DIRECTION('',(0.642787609686539,1.23952802955841E-14,-0.766044443118978));
#1099=DIRECTION('',(-0.766044443118978,0.,-0.642787609686539));
#1100=DIRECTION('',(0.766044443118978,-9.85029573925436E-15,0.642787609686539));
#1101=DIRECTION('',(0.766044443118978,-1.02572259676979E-14,0.642787609686539));
#1102=DIRECTION('',(0.642787609686539,1.23952802955841E-14,-0.766044443118978));
#1103=DIRECTION('',(-0.766044443118978,0.,-0.642787609686539));
#1104=DIRECTION('',(0.642787609686539,1.23952802955841E-14,-0.766044443118978));
#1105=DIRECTION('',(-0.766044443118978,0.,-0.642787609686539));
#1106=DIRECTION('',(0.642787609686539,1.23952802955841E-14,-0.766044443118978));
#1107=DIRECTION('',(0.642787609686539,1.23952802955841E-14,-0.766044443118978));
#1108=DIRECTION('',(0.642787609686539,1.23952802955841E-14,-0.766044443118978));
#1109=DIRECTION('',(-0.766044443118978,0.,-0.642787609686539));
#1110=DIRECTION('',(0.642787609686539,1.23952802955841E-14,-0.766044443118978));
#1111=DIRECTION('',(0.642787609686539,1.23952802955841E-14,-0.766044443118978));
#1112=DIRECTION('',(0.642787609686539,1.23952802955841E-14,-0.766044443118979));
#1113=DIRECTION('',(-0.766044443118979,4.51151307297899E-15,-0.642787609686539));
#1114=DIRECTION('',(0.642787609686539,1.23952802955841E-14,-0.766044443118978));
#1115=DIRECTION('',(-0.766044443118978,0.,-0.642787609686539));
#1116=DIRECTION('',(0.642787609686539,1.23952802955841E-14,-0.766044443118978));
#1117=DIRECTION('',(-0.766044443118978,0.,-0.642787609686539));
#1118=DIRECTION('',(-0.642787609686539,-1.23952802955841E-14,0.766044443118978));
#1119=DIRECTION('',(0.766044443118978,-4.511513072979E-15,0.642787609686539));
#1120=DIRECTION('',(0.642787609686539,1.23952802955841E-14,-0.766044443118978));
#1121=DIRECTION('',(-0.766044443118978,0.,-0.642787609686539));
#1122=DIRECTION('',(-0.642787609686539,-1.23952802955841E-14,0.766044443118978));
#1123=DIRECTION('',(0.766044443118978,-4.511513072979E-15,0.642787609686539));
#1124=DIRECTION('',(-0.642787609686539,-1.23952802955841E-14,0.766044443118979));
#1125=DIRECTION('',(0.766044443118979,-4.51151307297899E-15,0.642787609686539));
#1126=DIRECTION('',(1.92836328964537E-14,-1.,0.));
#1127=DIRECTION('',(1.,1.92836328964537E-14,0.));
#1128=DIRECTION('',(1.92836328964537E-14,-1.,0.));
#1129=DIRECTION('',(1.,1.92836328964537E-14,0.));
#1130=DIRECTION('',(-4.21768278458807E-16,1.,1.58269836442753E-14));
#1131=DIRECTION('',(0.,-1.58269836442753E-14,1.));
#1132=DIRECTION('',(0.766044443118978,-9.85029573925441E-15,0.642787609686539));
#1133=DIRECTION('',(-4.21768278458807E-16,1.,1.58269836442753E-14));
#1134=DIRECTION('',(0.,-1.58269836442753E-14,1.));
#1135=DIRECTION('',(0.642787609686539,1.23952802955841E-14,-0.766044443118978));
#1136=DIRECTION('',(-0.766044443118978,1.03164884960097E-14,-0.642787609686539));
#1137=DIRECTION('',(-0.64278760968654,0.,0.766044443118978));
#1138=DIRECTION('',(0.64278760968654,1.23952802955841E-14,-0.766044443118978));
#1139=DIRECTION('',(-6.46439077241147E-17,1.,1.61266465720432E-14));
#1140=DIRECTION('',(0.642787609686539,1.23952802955841E-14,-0.766044443118978));
#1141=DIRECTION('',(2.32196986324053E-16,1.,1.63757256567573E-14));
#1142=DIRECTION('',(0.,-1.63757256567573E-14,1.));
#1143=DIRECTION('',(2.32196986324053E-16,1.,1.63757256567573E-14));
#1144=DIRECTION('',(0.,-1.63757256567573E-14,1.));
#1145=DIRECTION('',(0.766044443118978,-1.07039867628721E-14,0.642787609686539));
#1146=DIRECTION('',(-0.642787609686539,-1.23952802955841E-14,0.766044443118978));
#1147=DIRECTION('',(2.32196986323992E-16,1.,1.63757256567572E-14));
#1148=DIRECTION('',(0.,-1.63757256567572E-14,1.));
#1149=DIRECTION('',(2.32196986323992E-16,1.,1.63757256567572E-14));
#1150=DIRECTION('',(0.,-1.63757256567572E-14,1.));
#1151=DIRECTION('',(0.766044443118978,-1.0703986762872E-14,0.64278760968654));
#1152=DIRECTION('',(0.642787609686539,1.23952802955841E-14,-0.766044443118978));
#1153=DIRECTION('',(-4.21768278458846E-16,1.,1.58269836442752E-14));
#1154=DIRECTION('',(0.,-1.58269836442752E-14,1.));
#1155=DIRECTION('',(0.766044443118978,-9.85029573925436E-15,0.642787609686539));
#1156=DIRECTION('',(-4.21768278458846E-16,1.,1.58269836442752E-14));
#1157=DIRECTION('',(0.,-1.58269836442752E-14,1.));
#1158=DIRECTION('',(-0.642787609686539,-1.23952802955841E-14,0.766044443118978));
#1159=DIRECTION('',(0.642787609686539,1.23952802955841E-14,-0.766044443118978));
#1160=DIRECTION('',(0.766044443118978,-1.04008751243637E-14,0.642787609686539));
#1161=DIRECTION('',(1.03502660039058E-16,1.,1.6267738295037E-14));
#1162=DIRECTION('',(0.642787609686539,1.23952802955841E-14,-0.766044443118978));
#1163=DIRECTION('',(0.766044443118978,-1.04008751243637E-14,0.642787609686539));
#1164=DIRECTION('',(6.46439077241159E-17,-1.,-1.61266465720432E-14));
#1165=DIRECTION('',(0.642787609686539,1.23952802955841E-14,-0.766044443118978));
#1166=DIRECTION('',(0.766044443118978,-1.04008751243637E-14,0.642787609686539));
#1167=DIRECTION('',(1.03502660039055E-16,1.,1.6267738295037E-14));
#1168=DIRECTION('',(0.642787609686539,1.23952802955841E-14,-0.766044443118978));
#1169=DIRECTION('',(-0.766044443118978,0.,-0.642787609686539));
#1170=DIRECTION('',(0.642787609686539,1.23952802955841E-14,-0.766044443118978));
#1171=DIRECTION('',(0.766044443118978,-1.04008751243637E-14,0.642787609686539));
#1172=DIRECTION('',(-6.46439077241137E-17,1.,1.61266465720432E-14));
#1173=DIRECTION('',(0.642787609686539,1.23952802955841E-14,-0.766044443118978));
#1174=DIRECTION('',(-0.766044443118978,0.,-0.642787609686539));
#1175=DIRECTION('',(0.642787609686539,1.23952802955841E-14,-0.766044443118978));
#1176=DIRECTION('',(-0.766044443118978,0.,-0.642787609686539));
#1177=DIRECTION('',(0.642787609686539,1.23952802955841E-14,-0.766044443118978));
#1178=DIRECTION('',(-0.766044443118978,0.,-0.642787609686539));
#1179=DIRECTION('',(0.642787609686539,1.23952802955841E-14,-0.766044443118978));
#1180=DIRECTION('',(-0.766044443118978,0.,-0.642787609686539));
#1181=DIRECTION('',(0.642787609686539,1.23952802955841E-14,-0.766044443118978));
#1182=DIRECTION('',(-0.766044443118978,0.,-0.642787609686539));
#1183=DIRECTION('',(0.642787609686539,1.23952802955841E-14,-0.766044443118978));
#1184=DIRECTION('',(-0.766044443118978,0.,-0.642787609686539));
#1185=DIRECTION('',(0.642787609686539,1.23952802955841E-14,-0.766044443118978));
#1186=DIRECTION('',(-0.766044443118978,0.,-0.642787609686539));
#1187=DIRECTION('',(0.642787609686539,1.23952802955841E-14,-0.766044443118978));
#1188=DIRECTION('',(-0.766044443118978,0.,-0.642787609686539));
#1189=DIRECTION('',(0.766044443118978,-1.00790856629731E-14,0.642787609686539));
#1190=DIRECTION('',(0.642787609686539,0.,-0.766044443118978));
#1191=DIRECTION('',(0.996194698091745,1.63779693126717E-15,-0.0871557427476582));
#1192=DIRECTION('',(-0.0871557427476581,1.58917765721639E-14,-0.996194698091745));
#1193=DIRECTION('',(0.766044443118978,-1.23086711612376E-14,0.642787609686539));
#1194=DIRECTION('',(0.642787609686539,0.,-0.766044443118978));
#1195=DIRECTION('',(0.0871557427476581,-1.7468331597222E-14,0.996194698091745));
#1196=DIRECTION('',(-0.996194698091745,-6.12419062091492E-17,0.0871557427476582));
#1197=DIRECTION('',(0.64278760968654,1.23952802955841E-14,-0.766044443118978));
#1198=DIRECTION('',(-0.766044443118978,0.,-0.64278760968654));
#1199=DIRECTION('',(0.454519477672044,-0.707106781186539,-0.541675220419713));
#1200=DIRECTION('',(-0.454519477672044,-0.707106781186556,0.541675220419691));
#1201=DIRECTION('',(-0.64278760968654,-1.23952802955841E-14,0.766044443118978));
#1202=DIRECTION('',(0.766044443118978,0.,0.64278760968654));
#1203=DIRECTION('',(0.454519477672044,-0.707106781186539,-0.541675220419713));
#1204=DIRECTION('',(-0.454519477672044,-0.707106781186556,0.54167522041969));
#1205=DIRECTION('',(6.46439077241145E-17,-1.,-1.61266465720432E-14));
#1206=DIRECTION('',(0.,1.61266465720432E-14,-1.));
#1207=DIRECTION('',(6.46439077241145E-17,-1.,-1.61266465720432E-14));
#1208=DIRECTION('',(-0.454519477672044,-0.707106781186556,0.541675220419691));
#1209=DIRECTION('',(0.454519477672044,-0.707106781186539,-0.541675220419713));
#1210=DIRECTION('',(-1.03502660039056E-16,-1.,-1.6267738295037E-14));
#1211=DIRECTION('',(0.,1.6267738295037E-14,-1.));
#1212=DIRECTION('',(-0.454519477672044,-0.707106781186556,0.54167522041969));
#1213=DIRECTION('',(0.454519477672044,-0.707106781186539,-0.541675220419713));
#1214=DIRECTION('',(1.03502660039055E-16,1.,1.6267738295037E-14));
#1215=DIRECTION('',(-0.64278760968654,-1.23952802955841E-14,0.766044443118978));
#1216=DIRECTION('',(0.766044443118978,0.,0.64278760968654));
#1217=DIRECTION('',(-0.996194698091745,-1.51183271379364E-15,0.0871557427476582));
#1218=DIRECTION('',(0.0871557427476581,-1.60177407896375E-14,0.996194698091745));
#1219=DIRECTION('',(0.64278760968654,1.23952802955841E-14,-0.766044443118978));
#1220=DIRECTION('',(-0.766044443118978,0.,-0.64278760968654));
#1221=DIRECTION('',(-0.0871557427476581,1.60177407896375E-14,-0.996194698091745));
#1222=DIRECTION('',(0.996194698091745,1.51183271379363E-15,-0.0871557427476582));
#1223=DIRECTION('',(-0.766044443118978,1.02572259676978E-14,-0.642787609686539));
#1224=DIRECTION('',(-0.642787609686539,0.,0.766044443118978));
#1225=DIRECTION('',(-0.766044443118978,1.02572259676979E-14,-0.642787609686539));
#1226=DIRECTION('',(-0.642787609686539,0.,0.766044443118978));
#1227=DIRECTION('',(0.642787609686539,1.23952802955841E-14,-0.766044443118978));
#1228=DIRECTION('',(-0.766044443118978,0.,-0.642787609686539));
#1229=DIRECTION('',(6.46439077241145E-17,-1.,-1.61266465720432E-14));
#1230=DIRECTION('',(0.,1.61266465720432E-14,-1.));
#1231=DIRECTION('',(1.03502660039055E-16,1.,1.6267738295037E-14));
#1232=DIRECTION('',(0.,-1.6267738295037E-14,1.));
#1233=DIRECTION('',(0.,0.,1.));
#1234=DIRECTION('',(1.,0.,0.));
#1235=DIRECTION('',(0.,0.,1.));
#1236=DIRECTION('',(1.,0.,0.));
#1237=DIRECTION('',(0.,0.,1.));
#1238=DIRECTION('',(1.,0.,0.));
#1239=DIRECTION('',(0.,0.,1.));
#1240=DIRECTION('',(1.,0.,0.));
#1241=DIRECTION('',(0.,0.,1.));
#1242=DIRECTION('',(1.,0.,0.));
#1243=DIRECTION('',(0.,0.,1.));
#1244=DIRECTION('',(1.,0.,0.));
#1245=DIRECTION('',(0.,0.,1.));
#1246=DIRECTION('',(1.,0.,0.));
#1247=DIRECTION('',(0.,0.,1.));
#1248=DIRECTION('',(1.,0.,0.));
#1249=DIRECTION('',(0.,0.,1.));
#1250=DIRECTION('',(1.,0.,0.));
#1251=DIRECTION('',(0.,0.,1.));
#1252=DIRECTION('',(1.,0.,0.));
#1253=DIRECTION('',(0.,0.,1.));
#1254=DIRECTION('',(1.,0.,0.));
#1255=DIRECTION('',(0.,0.,1.));
#1256=DIRECTION('',(1.,0.,0.));
#1257=DIRECTION('',(0.,0.,1.));
#1258=DIRECTION('',(1.,0.,0.));
#1259=DIRECTION('',(0.,0.,1.));
#1260=DIRECTION('',(1.,0.,0.));
#1261=DIRECTION('',(0.,0.,1.));
#1262=DIRECTION('',(1.,0.,0.));
#1263=CARTESIAN_POINT('',(0.,0.,0.));
#1264=CARTESIAN_POINT('',(0.0602141449816146,0.0857591449816151,0.0322101379479446));
#1265=CARTESIAN_POINT('',(0.0602141449816146,0.0857591449816151,0.0332400380636272));
#1266=CARTESIAN_POINT('',(0.0638790741976784,0.0857591449816151,0.0332400380636272));
#1267=CARTESIAN_POINT('',(0.0602141449816146,0.0857591449816151,0.0322101379479446));
#1268=CARTESIAN_POINT('',(0.0633891449816146,0.0857591449816151,0.0322101379479446));
#1269=CARTESIAN_POINT('',(0.0602141449816146,0.0857591449816151,0.037502));
#1270=CARTESIAN_POINT('',(0.0602141449816146,0.0857591449816151,0.0326360291680192));
#1271=CARTESIAN_POINT('',(0.0623731449816146,0.0857591449816151,0.0326360291680192));
#1272=CARTESIAN_POINT('',(0.0602141449816146,0.0857591449816151,0.0309212109875904));
#1273=CARTESIAN_POINT('',(0.0623731449816146,0.0857591449816151,0.0309212109875904));
#1274=CARTESIAN_POINT('',(0.0602141449816146,0.0857591449816151,0.034198));
#1275=CARTESIAN_POINT('',(0.0602141449816146,0.0857591449816151,0.0348361685123603));
#1276=CARTESIAN_POINT('',(0.0637887504816146,0.0857591449816151,0.0348361685123603));
#1277=CARTESIAN_POINT('',(0.0602141449816146,0.0857591449816151,0.0362793377082246));
#1278=CARTESIAN_POINT('',(0.0637887504816146,0.0857591449816151,0.0362793377082246));
#1279=CARTESIAN_POINT('',(0.0602141449816146,0.0857591449816151,0.03369));
#1280=CARTESIAN_POINT('',(0.0602141449816146,0.0857591449816151,0.0309212109875904));
#1281=CARTESIAN_POINT('',(0.0570391449816146,0.0857591449816151,0.0309212109875904));
#1282=CARTESIAN_POINT('',(0.0364741449816146,0.140759144981615,0.039278));
#1283=CARTESIAN_POINT('',(0.0602141449816146,0.0857591449816151,0.039278));
#1284=CARTESIAN_POINT('',(0.0629615226986498,0.0857591449816151,0.039278));
#1285=CARTESIAN_POINT('',(0.0602141449816146,0.0857591449816151,0.039278));
#1286=CARTESIAN_POINT('',(0.0634633388133969,0.0857591449816151,0.039278));
#1287=CARTESIAN_POINT('',(0.0779598736853873,0.0857591449816152,0.0222797335149221));
#1288=CARTESIAN_POINT('',(0.0779598736853873,0.0870291449816155,0.0222797335149222));
#1289=CARTESIAN_POINT('',(0.0791283593433074,0.0870291449816155,0.0208871865342011));
#1290=CARTESIAN_POINT('',(0.083837523588361,0.0870291449816156,0.0152750231270423));
#1291=CARTESIAN_POINT('',(0.0791283593433074,0.0857591449816152,0.020887186534201));
#1292=CARTESIAN_POINT('',(0.0791283593433074,0.0869986393243954,0.0208871865342011));
#1293=CARTESIAN_POINT('',(0.0779598736853873,0.0869986393243954,0.0222797335149222));
#1294=CARTESIAN_POINT('',(0.083837523588361,0.0869986393243955,0.0152750231270423));
#1295=CARTESIAN_POINT('',(0.083837523588361,0.0857591449816153,0.0152750231270423));
#1296=CARTESIAN_POINT('',(0.0633667270439707,0.0857591449816154,0.0100346295503936));
#1297=CARTESIAN_POINT('',(0.0633667270439707,0.0844891449816151,0.0100346295503936));
#1298=CARTESIAN_POINT('',(0.0645352127018909,0.0844891449816151,0.00864208256967242));
#1299=CARTESIAN_POINT('',(0.0692443769469445,0.0844891449816152,0.00302991916251364));
#1300=CARTESIAN_POINT('',(0.0645352127018909,0.0870291449816157,0.00864208256967246));
#1301=CARTESIAN_POINT('',(0.0645352127018909,0.0845196506388359,0.00864208256967242));
#1302=CARTESIAN_POINT('',(0.0633667270439707,0.0845196506388359,0.0100346295503936));
#1303=CARTESIAN_POINT('',(0.0692443769469445,0.084519650638836,0.00302991916251364));
#1304=CARTESIAN_POINT('',(0.0692443769469445,0.0857591449816155,0.00302991916251366));
#1305=CARTESIAN_POINT('',(0.0765409502676527,0.0857591449816154,0.00915247114477794));
#1306=CARTESIAN_POINT('',(0.0765409502676527,0.0845196506388359,0.00915247114477792));
#1307=CARTESIAN_POINT('',(0.0744334332369514,0.0845196506388359,0.00738405438161661));
#1308=CARTESIAN_POINT('',(0.0765409502676527,0.0857591449816155,0.00915247114477794));
#1309=CARTESIAN_POINT('',(0.078648467298354,0.0845196506388359,0.0109208879079392));
#1310=CARTESIAN_POINT('',(0.0765409502676527,0.0845196506388359,0.00915247114477792));
#1311=CARTESIAN_POINT('',(0.083837523588361,0.0845196506388358,0.0152750231270422));
#1312=CARTESIAN_POINT('',(0.083837523588361,0.0857591449816153,0.0152750231270423));
#1313=CARTESIAN_POINT('',(0.083837523588361,0.084489144981615,0.0152750231270422));
#1314=CARTESIAN_POINT('',(0.0808579789191256,0.084489144981615,0.0127748882940105));
#1315=CARTESIAN_POINT('',(0.0800584135279118,0.0844891449816151,0.0121039732691409));
#1316=CARTESIAN_POINT('',(0.0800584135279118,0.0811778096594641,0.0121039732691409));
#1317=CARTESIAN_POINT('',(0.0782627153779429,0.0835166245250864,0.0105972036137963));
#1318=CARTESIAN_POINT('',(0.0765409502676527,0.0857591449816154,0.00915247114477794));
#1319=CARTESIAN_POINT('',(0.0748191851573625,0.0835166245250864,0.00770773867575946));
#1320=CARTESIAN_POINT('',(0.0730234870073936,0.0811778096594642,0.00620096902041484));
#1321=CARTESIAN_POINT('',(0.0730234870073936,0.0844891449816151,0.00620096902041488));
#1322=CARTESIAN_POINT('',(0.0735614055984173,0.0844891449816151,0.00665233631174626));
#1323=CARTESIAN_POINT('',(0.0779598736853873,0.0857591449816152,0.0222797335149221));
#1324=CARTESIAN_POINT('',(0.0781231417382476,0.0845196506388356,0.02208515822637));
#1325=CARTESIAN_POINT('',(0.0791283593433074,0.0845196506388357,0.020887186534201));
#1326=CARTESIAN_POINT('',(0.0791283593433074,0.0857591449816152,0.020887186534201));
#1327=CARTESIAN_POINT('',(0.0791283593433074,0.0844891449816149,0.020887186534201));
#1328=CARTESIAN_POINT('',(0.0779598736853873,0.0844891449816149,0.0222797335149221));
#1329=CARTESIAN_POINT('',(0.0664442659846003,0.0861401449816157,0.0126169913404096));
#1330=CARTESIAN_POINT('',(0.0699020217676801,0.0861401449816158,0.00358174868903855));
#1331=CARTESIAN_POINT('',(0.0641876399175667,0.0861401449816157,0.0103918837883663));
#1332=CARTESIAN_POINT('',(0.0693501922411551,0.0861401449816158,0.00423939350977418));
#1333=CARTESIAN_POINT('',(0.0743611870802981,0.0861401449816158,0.00844411743113026));
#1334=CARTESIAN_POINT('',(0.0743611870802981,0.0861401449816158,0.00844411743113026));
#1335=CARTESIAN_POINT('',(0.0690340811286299,0.0861401449816157,0.0147927150871608));
#1336=CARTESIAN_POINT('',(0.0691986347567096,0.0861401449816157,0.0145966077097224));
#1337=CARTESIAN_POINT('',(0.0666075340374607,0.0861401449816157,0.0124224160518573));
#1338=CARTESIAN_POINT('',(0.06807219964543,0.0853781449816157,0.0139829898747929));
#1339=CARTESIAN_POINT('',(0.0690340811286298,0.0853781449816157,0.0147927150871607));
#1340=CARTESIAN_POINT('',(0.0691986347567096,0.0853781449816157,0.0145966077097223));
#1341=CARTESIAN_POINT('',(0.074361187080298,0.0853781449816158,0.00844411743113017));
#1342=CARTESIAN_POINT('',(0.0733980200218788,0.0853781449816158,0.00763592430764855));
#1343=CARTESIAN_POINT('',(0.0693501922411551,0.0853781449816158,0.00423939350977416));
#1344=CARTESIAN_POINT('',(0.0640243718647063,0.0853781449816157,0.0105864590769185));
#1345=CARTESIAN_POINT('',(0.0641876399175667,0.0853781449816157,0.0103918837883663));
#1346=CARTESIAN_POINT('',(0.0682354676982904,0.0853781449816157,0.0137884145862407));
#1347=CARTESIAN_POINT('',(0.0748823347447577,0.0853781449816156,0.0196973717249062));
#1348=CARTESIAN_POINT('',(0.0831798787676254,0.0853781449816156,0.0147231936005173));
#1349=CARTESIAN_POINT('',(0.0774654969175121,0.0853781449816155,0.021533328699845));
#1350=CARTESIAN_POINT('',(0.0826280492411005,0.0853781449816156,0.0153808384212529));
#1351=CARTESIAN_POINT('',(0.0802081551212066,0.0853781449816157,0.0133503061577619));
#1352=CARTESIAN_POINT('',(0.0776170544019576,0.0853781449816157,0.0111761144998969));
#1353=CARTESIAN_POINT('',(0.0722899484502894,0.0853781449816156,0.0175247121559274));
#1354=CARTESIAN_POINT('',(0.0724545020783692,0.0853781449816156,0.017328604778489));
#1355=CARTESIAN_POINT('',(0.0750456027976181,0.0853781449816156,0.019502796436354));
#1356=CARTESIAN_POINT('',(0.0748823347447577,0.0861401449816155,0.0196973717249062));
#1357=CARTESIAN_POINT('',(0.0722899484502893,0.0861401449816156,0.0175247121559274));
#1358=CARTESIAN_POINT('',(0.0724545020783691,0.0861401449816156,0.0173286047784889));
#1359=CARTESIAN_POINT('',(0.0776170544019575,0.0861401449816157,0.0111761144998968));
#1360=CARTESIAN_POINT('',(0.0832856940618361,0.0861401449816156,0.0159326679477779));
#1361=CARTESIAN_POINT('',(0.0826280492411005,0.0861401449816156,0.0153808384212529));
#1362=CARTESIAN_POINT('',(0.0773022288646517,0.0861401449816155,0.0217279039883973));
#1363=CARTESIAN_POINT('',(0.077465496917512,0.0861401449816155,0.021533328699845));
#1364=CARTESIAN_POINT('',(0.0750456027976181,0.0861401449816155,0.019502796436354));
#1365=CARTESIAN_POINT('',(0.0765409502676527,0.0857591449816154,0.00915247114477794));
#1366=CARTESIAN_POINT('',(0.0765409502676527,0.0857591449816155,0.00915247114477794));
#1367=CARTESIAN_POINT('',(0.0786484672983538,0.0869986393243956,0.0109208879079391));
#1368=CARTESIAN_POINT('',(0.0744334332369516,0.0869986393243956,0.00738405438161682));
#1369=CARTESIAN_POINT('',(0.0692443769469444,0.0869986393243957,0.00302991916251369));
#1370=CARTESIAN_POINT('',(0.0692443769469445,0.0869986393243957,0.00302991916251368));
#1371=CARTESIAN_POINT('',(0.0692443769469445,0.0857591449816155,0.00302991916251366));
#1372=CARTESIAN_POINT('',(0.0692443769469445,0.0870291449816158,0.00302991916251368));
#1373=CARTESIAN_POINT('',(0.0722239216161798,0.0870291449816158,0.00553005399554533));
#1374=CARTESIAN_POINT('',(0.0730234870073936,0.0870291449816158,0.00620096902041489));
#1375=CARTESIAN_POINT('',(0.0730234870073936,0.0903404803037667,0.00620096902041495));
#1376=CARTESIAN_POINT('',(0.0748191851573624,0.0880016654381445,0.00770773867575953));
#1377=CARTESIAN_POINT('',(0.0765409502676527,0.0857591449816154,0.00915247114477794));
#1378=CARTESIAN_POINT('',(0.0782627153779429,0.0880016654381444,0.0105972036137964));
#1379=CARTESIAN_POINT('',(0.0800584135279118,0.0903404803037666,0.0121039732691411));
#1380=CARTESIAN_POINT('',(0.0800584135279118,0.0870291449816157,0.012103973269141));
#1381=CARTESIAN_POINT('',(0.0795204949368881,0.0870291449816157,0.0116526059778096));
#1382=CARTESIAN_POINT('',(0.0781688839284824,0.0869986393243956,0.0105184696791613));
#1383=CARTESIAN_POINT('',(0.0616997627678091,0.0857591449816152,0.0268395096660809));
#1384=CARTESIAN_POINT('',(0.068126644915932,0.0857591449816153,0.0191802497768758));
#1385=CARTESIAN_POINT('',(0.0698484100262222,0.0835166245250862,0.0206249822458941));
#1386=CARTESIAN_POINT('',(0.0698484100262223,0.0880016654381443,0.0206249822458942));
#1387=CARTESIAN_POINT('',(0.0634215278780993,0.0880016654381441,0.0282842421350993));
#1388=CARTESIAN_POINT('',(0.0599779976575188,0.0880016654381442,0.0253947771970625));
#1389=CARTESIAN_POINT('',(0.0664048798056418,0.0880016654381443,0.0177355173078573));
#1390=CARTESIAN_POINT('',(0.068126644915932,0.0857591449816153,0.0191802497768758));
#1391=CARTESIAN_POINT('',(0.0664048798056418,0.0835166245250863,0.0177355173078573));
#1392=CARTESIAN_POINT('',(0.0599779976575188,0.0835166245250862,0.0253947771970624));
#1393=CARTESIAN_POINT('',(0.0634215278780993,0.0835166245250861,0.0282842421350992));
#1394=CARTESIAN_POINT('',(0.0616997627678091,0.0857591449816152,0.0268395096660808));
#1395=CARTESIAN_POINT('',(0.0592675716609063,0.0857591449816152,0.0247986590053261));
#1396=CARTESIAN_POINT('',(0.0616997627678091,0.0857591449816152,0.0268395096660809));
#1397=CARTESIAN_POINT('',(0.0759891207411278,0.0857591449816154,0.00981011596551354));
#1398=CARTESIAN_POINT('',(0.0708265684175394,0.0857591449816153,0.0159626062441056));
#1399=CARTESIAN_POINT('',(0.0759891207411278,0.0857591449816154,0.00981011596551355));
#1400=CARTESIAN_POINT('',(0.0708265684175394,0.0857591449816153,0.0159626062441056));
#1401=CARTESIAN_POINT('',(0.0616997627678091,0.0857591449816152,0.0268395096660808));
#1402=CARTESIAN_POINT('',(0.063353652720503,0.0857591449816152,0.0282272881153941));
#1403=CARTESIAN_POINT('',(0.0665641449816146,0.0857591449816152,0.0309212109875904));
#1404=CARTESIAN_POINT('',(0.0665641449816146,0.0857591449816152,0.0309212109875904));
#1405=CARTESIAN_POINT('',(0.0676837556954436,0.084489144981615,0.0136570466996262));
#1406=CARTESIAN_POINT('',(0.0672755855632926,0.084489144981615,0.0141434849210067));
#1407=CARTESIAN_POINT('',(0.0648375421139215,0.084489144981615,0.0120977235618452));
#1408=CARTESIAN_POINT('',(0.0653824826107036,0.084489144981615,0.0125549829317087));
#1409=CARTESIAN_POINT('',(0.0664141979039926,0.0844891449816151,0.0102187383597435));
#1410=CARTESIAN_POINT('',(0.0671458371044199,0.084489144981615,0.0132056794082948));
#1411=CARTESIAN_POINT('',(0.0664271352865826,0.084489144981615,0.0140621948817064));
#1412=CARTESIAN_POINT('',(0.0664271352865826,0.084489144981615,0.0140621948817064));
#1413=CARTESIAN_POINT('',(0.0662179055727497,0.084489144981615,0.0134743244453135));
#1414=CARTESIAN_POINT('',(0.0658605944503113,0.084489144981615,0.012956166399985));
#1415=CARTESIAN_POINT('',(0.0653824826107036,0.084489144981615,0.0125549829317087));
#1416=CARTESIAN_POINT('',(0.0633667270439707,0.0857591449816154,0.0100346295503936));
#1417=CARTESIAN_POINT('',(0.0635299950968311,0.0869986393243956,0.0098400542618414));
#1418=CARTESIAN_POINT('',(0.0645352127018909,0.0869986393243956,0.00864208256967244));
#1419=CARTESIAN_POINT('',(0.0645352127018909,0.0870291449816157,0.00864208256967246));
#1420=CARTESIAN_POINT('',(0.0645352127018909,0.0870291449816157,0.00864208256967246));
#1421=CARTESIAN_POINT('',(0.0633667270439707,0.0870291449816157,0.0100346295503936));
#1422=CARTESIAN_POINT('',(0.0663462717132061,0.0870291449816157,0.0125347643834253));
#1423=CARTESIAN_POINT('',(0.0664141979039926,0.0870291449816157,0.0102187383597436));
#1424=CARTESIAN_POINT('',(0.0648375421139215,0.0870291449816157,0.0120977235618453));
#1425=CARTESIAN_POINT('',(0.0659381015810552,0.0870291449816157,0.0130212026048058));
#1426=CARTESIAN_POINT('',(0.0653824826107036,0.0870291449816157,0.0125549829317087));
#1427=CARTESIAN_POINT('',(0.0653824826107036,0.0870291449816159,0.0125549829317087));
#1428=CARTESIAN_POINT('',(0.0658598021711047,0.0870291449816159,0.012955501598795));
#1429=CARTESIAN_POINT('',(0.0662182515750192,0.0870291449816156,0.0134752966041034));
#1430=CARTESIAN_POINT('',(0.0664271352865822,0.0870291449816156,0.0140621948817066));
#1431=CARTESIAN_POINT('',(0.0664271352865826,0.0870291449816156,0.0140621948817064));
#1432=CARTESIAN_POINT('',(0.0730234870073936,0.0870291449816158,0.00620096902041488));
#1433=CARTESIAN_POINT('',(0.0749803290161518,0.0844891449816149,0.0197795986818905));
#1434=CARTESIAN_POINT('',(0.0772493741412057,0.0844891449816149,0.0193105307441299));
#1435=CARTESIAN_POINT('',(0.0756727183511346,0.0844891449816149,0.0211895159462316));
#1436=CARTESIAN_POINT('',(0.0745721588840009,0.0844891449816149,0.020266036903271));
#1437=CARTESIAN_POINT('',(0.0751277778543525,0.0844891449816149,0.0207322565763681));
#1438=CARTESIAN_POINT('',(0.0751277778543525,0.0844891449816149,0.0207322565763681));
#1439=CARTESIAN_POINT('',(0.0746504582939514,0.0844891449816149,0.0203317379092819));
#1440=CARTESIAN_POINT('',(0.074076316056971,0.0844891449816149,0.0200689956126765));
#1441=CARTESIAN_POINT('',(0.0734620618071006,0.0844891449816149,0.0199651991304329));
#1442=CARTESIAN_POINT('',(0.0734620618071008,0.0844891449816149,0.0199651991304324));
#1443=CARTESIAN_POINT('',(0.0741807636249381,0.0844891449816149,0.0191086836570209));
#1444=CARTESIAN_POINT('',(0.0736428450339144,0.0870291449816156,0.0186573163656895));
#1445=CARTESIAN_POINT('',(0.0732346749017634,0.0870291449816156,0.0191437545870701));
#1446=CARTESIAN_POINT('',(0.0751277778543525,0.0870291449816155,0.0207322565763682));
#1447=CARTESIAN_POINT('',(0.0756727183511346,0.0870291449816155,0.0211895159462317));
#1448=CARTESIAN_POINT('',(0.0772493741412057,0.0870291449816156,0.0193105307441299));
#1449=CARTESIAN_POINT('',(0.0737725934927872,0.0870291449816156,0.0195951218784015));
#1450=CARTESIAN_POINT('',(0.0734620618071009,0.0870291449816156,0.0199651991304325));
#1451=CARTESIAN_POINT('',(0.0734620618071009,0.0870291449816156,0.0199651991304325));
#1452=CARTESIAN_POINT('',(0.0740773335291481,0.0870291449816156,0.0200691675447918));
#1453=CARTESIAN_POINT('',(0.0746496660147448,0.0870291449816155,0.0203310731080919));
#1454=CARTESIAN_POINT('',(0.0751277778543525,0.0870291449816155,0.0207322565763682));
#1455=CARTESIAN_POINT('',(0.0708265684175394,0.0857591449816153,0.0159626062441056));
#1456=CARTESIAN_POINT('',(0.0774654969175121,0.085378144981615,0.021533328699845));
#1457=CARTESIAN_POINT('',(0.0708265684175394,0.0857591449816153,0.0159626062441056));
#1458=CARTESIAN_POINT('',(0.0641876399175667,0.0857591449816154,0.0103918837883663));
#1459=CARTESIAN_POINT('',(0.070255130232528,0.0857591449816153,0.0166436197540385));
#1460=CARTESIAN_POINT('',(0.0756727183511346,0.0857591449816152,0.0211895159462316));
#1461=CARTESIAN_POINT('',(0.070255130232528,0.0857591449816153,0.0166436197540385));
#1462=CARTESIAN_POINT('',(0.070255130232528,0.0857591449816153,0.0166436197540385));
#1463=CARTESIAN_POINT('',(0.0648375421139215,0.084489144981615,0.0120977235618453));
#1464=CARTESIAN_POINT('',(0.070255130232528,0.0857591449816153,0.0166436197540385));
#1465=CARTESIAN_POINT('',(0.0652172260280681,0.0811778096594638,0.0297910117904439));
#1466=CARTESIAN_POINT('',(0.0734620618071008,0.0844891449816149,0.0199651991304324));
#1467=CARTESIAN_POINT('',(0.0728162080783019,0.0844891449816149,0.0198560629785745));
#1468=CARTESIAN_POINT('',(0.0715332747976032,0.0842225108714739,0.0199634396575343));
#1469=CARTESIAN_POINT('',(0.0703864945447259,0.0837775590943796,0.0203887419396714));
#1470=CARTESIAN_POINT('',(0.0698484100262222,0.0835166245250862,0.0206249822458941));
#1471=CARTESIAN_POINT('',(0.0652172260280682,0.0903404803037663,0.029791011790444));
#1472=CARTESIAN_POINT('',(0.0734620618071009,0.0870291449816156,0.0199651991304325));
#1473=CARTESIAN_POINT('',(0.0728162080783021,0.0870291449816156,0.0198560629785745));
#1474=CARTESIAN_POINT('',(0.0715332747976025,0.0872957790917631,0.019963439657525));
#1475=CARTESIAN_POINT('',(0.0703864945447277,0.0877407308688375,0.0203887419396902));
#1476=CARTESIAN_POINT('',(0.0698484100262223,0.0880016654381443,0.0206249822458943));
#1477=CARTESIAN_POINT('',(0.068126644915932,0.0857591449816153,0.0191802497768758));
#1478=CARTESIAN_POINT('',(0.0581822995075499,0.0903404803037664,0.0238880075417179));
#1479=CARTESIAN_POINT('',(0.0664271352865826,0.0870291449816156,0.0140621948817064));
#1480=CARTESIAN_POINT('',(0.0666467647381115,0.0870291449816156,0.0146792853472516));
#1481=CARTESIAN_POINT('',(0.0667637983784474,0.0872957790917614,0.0159613737533058));
#1482=CARTESIAN_POINT('',(0.0665440936947017,0.0877407308688413,0.0171645848035931));
#1483=CARTESIAN_POINT('',(0.0664048798056418,0.0880016654381443,0.0177355173078574));
#1484=CARTESIAN_POINT('',(0.068126644915932,0.0857591449816153,0.0191802497768758));
#1485=CARTESIAN_POINT('',(0.0664271352865826,0.084489144981615,0.0140621948817064));
#1486=CARTESIAN_POINT('',(0.0666467647381115,0.084489144981615,0.0146792853472516));
#1487=CARTESIAN_POINT('',(0.0667637983784559,0.0842225108714632,0.0159613737533051));
#1488=CARTESIAN_POINT('',(0.0665440936946848,0.0837775590944013,0.0171645848035945));
#1489=CARTESIAN_POINT('',(0.0664048798056418,0.0835166245250863,0.0177355173078573));
#1490=CARTESIAN_POINT('',(0.05818229950755,0.0811778096594639,0.0238880075417178));
#1491=CARTESIAN_POINT('',(0.0759891207411278,0.0857591449816154,0.00981011596551354));
#1492=CARTESIAN_POINT('',(0.0776170544019576,0.0853781449816157,0.0111761144998969));
#1493=CARTESIAN_POINT('',(0.0777805668079577,0.0853781449816157,0.0109812480026126));
#1494=CARTESIAN_POINT('',(0.078225352971205,0.0851447432232422,0.0107596742994526));
#1495=CARTESIAN_POINT('',(0.0785444086246921,0.0847297121929792,0.0108335723132487));
#1496=CARTESIAN_POINT('',(0.078648467298354,0.0845196506388358,0.0109208879079392));
#1497=CARTESIAN_POINT('',(0.074361187080298,0.0853781449816158,0.00844411743113017));
#1498=CARTESIAN_POINT('',(0.0745246994862981,0.0853781449816158,0.00824925093384583));
#1499=CARTESIAN_POINT('',(0.074665670680332,0.0851447432232441,0.00777274620207277));
#1500=CARTESIAN_POINT('',(0.0745374919106178,0.0847297121929755,0.00747136997631092));
#1501=CARTESIAN_POINT('',(0.0744334332369514,0.0845196506388359,0.00738405438161662));
#1502=CARTESIAN_POINT('',(0.0759891207411278,0.0845196506388359,0.00981011596551352));
#1503=CARTESIAN_POINT('',(0.0693501922411551,0.0845196506388359,0.00423939350977414));
#1504=CARTESIAN_POINT('',(0.0759891207411278,0.0845196506388359,0.00981011596551352));
#1505=CARTESIAN_POINT('',(0.0826280492411005,0.0845196506388358,0.0153808384212529));
#1506=CARTESIAN_POINT('',(0.0640243718647063,0.0845196506388359,0.0105864590769185));
#1507=CARTESIAN_POINT('',(0.0639616289077086,0.0853375240408338,0.0102552649055486));
#1508=CARTESIAN_POINT('',(0.0639520997009594,0.0852039718208961,0.00961542786327754));
#1509=CARTESIAN_POINT('',(0.0641787098484261,0.0848477673303386,0.00906694612605918));
#1510=CARTESIAN_POINT('',(0.0645352127018909,0.0845196506388359,0.00864208256967242));
#1511=CARTESIAN_POINT('',(0.0639616289077086,0.0853375240408338,0.0102552649055486));
#1512=CARTESIAN_POINT('',(0.0636358103910418,0.0845196506388358,0.0110495286091018));
#1513=CARTESIAN_POINT('',(0.0773022288646517,0.0845196506388357,0.0217279039883973));
#1514=CARTESIAN_POINT('',(0.0769136673909872,0.0845196506388356,0.0221909735205806));
#1515=CARTESIAN_POINT('',(0.0776392866525132,0.0853375240408336,0.0217321824745833));
#1516=CARTESIAN_POINT('',(0.0776392866525132,0.0853375240408336,0.0217321824745833));
#1517=CARTESIAN_POINT('',(0.0782710578617928,0.085203971820896,0.0216304603748758));
#1518=CARTESIAN_POINT('',(0.0787718564897974,0.0848477673302196,0.0213120500906416));
#1519=CARTESIAN_POINT('',(0.0791283593433074,0.0845196506388357,0.020887186534201));
#1520=CARTESIAN_POINT('',(0.0636358103910418,0.0857591449816154,0.0110495286091019));
#1521=CARTESIAN_POINT('',(0.0639616289077086,0.0853375240408338,0.0102552649055486));
#1522=CARTESIAN_POINT('',(0.0639616289077086,0.0861807659223977,0.0102552649055486));
#1523=CARTESIAN_POINT('',(0.0636358103910418,0.0869986393243956,0.0110495286091019));
#1524=CARTESIAN_POINT('',(0.0769136673909872,0.0857591449816152,0.0221909735205806));
#1525=CARTESIAN_POINT('',(0.0769136673909872,0.0869986393243954,0.0221909735205807));
#1526=CARTESIAN_POINT('',(0.0776392866525132,0.0861807659223975,0.0217321824745833));
#1527=CARTESIAN_POINT('',(0.0776392866525132,0.0861807659223975,0.0217321824745833));
#1528=CARTESIAN_POINT('',(0.0640243718647063,0.0869986393243956,0.0105864590769185));
#1529=CARTESIAN_POINT('',(0.0639616289077086,0.0861807659223977,0.0102552649055486));
#1530=CARTESIAN_POINT('',(0.0639520997009594,0.0863143181423354,0.00961542786327757));
#1531=CARTESIAN_POINT('',(0.0641787098484157,0.0866705226329202,0.00906694612607161));
#1532=CARTESIAN_POINT('',(0.0645352127018909,0.0869986393243956,0.00864208256967246));
#1533=CARTESIAN_POINT('',(0.0693501922411551,0.0869986393243957,0.00423939350977418));
#1534=CARTESIAN_POINT('',(0.0773022288646517,0.0869986393243954,0.0217279039883973));
#1535=CARTESIAN_POINT('',(0.0776392866525132,0.0861807659223975,0.0217321824745833));
#1536=CARTESIAN_POINT('',(0.0782710578617928,0.0863143181423352,0.0216304603748758));
#1537=CARTESIAN_POINT('',(0.0787718564897978,0.0866705226330104,0.0213120500906412));
#1538=CARTESIAN_POINT('',(0.0791283593433074,0.0869986393243954,0.0208871865342011));
#1539=CARTESIAN_POINT('',(0.0826280492411005,0.0869986393243955,0.0153808384212529));
#1540=CARTESIAN_POINT('',(0.0717700863610491,0.0869986393243957,0.00626992577326525));
#1541=CARTESIAN_POINT('',(0.0743611870802981,0.0861401449816158,0.00844411743113026));
#1542=CARTESIAN_POINT('',(0.0745246994862982,0.0861401449816158,0.00824925093384594));
#1543=CARTESIAN_POINT('',(0.074665670680328,0.0863735467399839,0.00777274620206945));
#1544=CARTESIAN_POINT('',(0.0745374919106265,0.0867885777702632,0.00747136997631819));
#1545=CARTESIAN_POINT('',(0.0744334332369516,0.0869986393243956,0.00738405438161682));
#1546=CARTESIAN_POINT('',(0.0802081551212065,0.0869986393243955,0.0133503061577619));
#1547=CARTESIAN_POINT('',(0.0776170544019575,0.0861401449816157,0.0111761144998968));
#1548=CARTESIAN_POINT('',(0.0777805668079576,0.0861401449816157,0.0109812480026125));
#1549=CARTESIAN_POINT('',(0.0782253529711962,0.0863735467399967,0.0107596742994452));
#1550=CARTESIAN_POINT('',(0.0785444086247093,0.0867885777702375,0.0108335723132632));
#1551=CARTESIAN_POINT('',(0.0786484672983538,0.0869986393243956,0.0109208879079391));
#1552=CARTESIAN_POINT('',(0.0759891207411278,0.0857591449816154,0.00981011596551354));
#1553=CARTESIAN_POINT('',(0.0664141979039926,0.0857591449816154,0.0102187383597436));
#1554=CARTESIAN_POINT('',(0.0772493741412057,0.0857591449816153,0.0193105307441299));
#1555=CARTESIAN_POINT('',(0.0602141449816146,0.0857591449816151,0.0397863048));
#1556=CARTESIAN_POINT('',(0.0602141449816146,0.0857591449816151,0.0386624973160199));
#1557=CARTESIAN_POINT('',(0.063789253605211,0.0857591449816151,0.0386624973160199));
#1558=CARTESIAN_POINT('',(0.0602141449816146,0.0857591449816151,0.03695800108));
#1559=CARTESIAN_POINT('',(0.0602141449816146,0.0857591449816151,0.0384015884717659));
#1560=CARTESIAN_POINT('',(0.0638522504816146,0.0857591449816151,0.0384015884717659));
#1561=CARTESIAN_POINT('',(0.0602141449816146,0.0857591449816151,0.0365664126082341));
#1562=CARTESIAN_POINT('',(0.0638522504816146,0.0857591449816151,0.0365664126082341));
#1563=CARTESIAN_POINT('',(0.0602141449816146,0.0857591449816151,0.0362793377082246));
#1564=CARTESIAN_POINT('',(0.0602141449816146,0.0857591449816151,0.0386886633717755));
#1565=CARTESIAN_POINT('',(0.0602141449816146,0.0857591449816151,0.032039));
#1566=CARTESIAN_POINT('',(0.0602141449816146,0.0857591449816151,0.0340625938079811));
#1567=CARTESIAN_POINT('',(0.0629615226986498,0.0857591449816151,0.0340625938079811));
#1568=CARTESIAN_POINT('',(0.0602141449816146,0.0857591449816151,0.0340625938079811));
#1569=CARTESIAN_POINT('',(0.0602141449816146,0.0857591449816151,0.0331851685123603));
#1570=CARTESIAN_POINT('',(0.0602141449816146,0.0857591449816151,0.0347795151489515));
#1571=CARTESIAN_POINT('',(0.0650587504816146,0.0857591449816151,0.0347795151489515));
#1572=CARTESIAN_POINT('',(0.0602141449816146,0.0857591449816151,0.0348361685123603));
#1573=CARTESIAN_POINT('',(0.0650587504816146,0.0857591449816151,0.0348361685123603));
#1574=CARTESIAN_POINT('',(0.0602141449816146,0.0857591449816151,0.0348361685123603));
#1575=CARTESIAN_POINT('',(0.0602141449816146,0.0857591449816151,0.0347795151489515));
#1576=MECHANICAL_DESIGN_GEOMETRIC_PRESENTATION_REPRESENTATION('',(#888),
#1577);
#1577=(
GEOMETRIC_REPRESENTATION_CONTEXT(3)
GLOBAL_UNCERTAINTY_ASSIGNED_CONTEXT((#1578))
GLOBAL_UNIT_ASSIGNED_CONTEXT((#1581,#1580,#1579))
REPRESENTATION_CONTEXT('Part 12','TOP_LEVEL_ASSEMBLY_PART')
);
#1578=UNCERTAINTY_MEASURE_WITH_UNIT(LENGTH_MEASURE(2.E-5),#1581,
'DISTANCE_ACCURACY_VALUE','Maximum Tolerance applied to model');
#1579=(
NAMED_UNIT(*)
SI_UNIT($,.STERADIAN.)
SOLID_ANGLE_UNIT()
);
#1580=(
NAMED_UNIT(*)
PLANE_ANGLE_UNIT()
SI_UNIT($,.RADIAN.)
);
#1581=(
LENGTH_UNIT()
NAMED_UNIT(*)
SI_UNIT($,.METRE.)
);
#1582=PRODUCT_DEFINITION_SHAPE('','',#1583);
#1583=PRODUCT_DEFINITION('','',#1585,#1584);
#1584=PRODUCT_DEFINITION_CONTEXT('',#1591,'design');
#1585=PRODUCT_DEFINITION_FORMATION_WITH_SPECIFIED_SOURCE('','',#1587,
 .NOT_KNOWN.);
#1586=PRODUCT_RELATED_PRODUCT_CATEGORY('','',(#1587));
#1587=PRODUCT('Part 12','Part 12','Part 12',(#1589));
#1588=PRODUCT_CATEGORY('','');
#1589=PRODUCT_CONTEXT('',#1591,'mechanical');
#1590=APPLICATION_PROTOCOL_DEFINITION('international standard',
'ap242_managed_model_based_3d_engineering',2020,#1591);
#1591=APPLICATION_CONTEXT('managed model based 3d engineering');
ENDSEC;
END-ISO-10303-21;
