ISO-10303-21;
HEADER;
/* Generated by software containing ST-Developer
 * from STEP Tools, Inc. (www.steptools.com) 
 */
/* OPTION: using custom renumber hook */

FILE_DESCRIPTION(
/* description */ ('STEP AP242 Edition 2',
'CAx-IF Rec.Pracs.---Representation and Presentation of Product Manufa
cturing Information (PMI)---4.0---2014-10-13',
'CAx-IF Rec.Pracs.---3D Tessellated Geometry---0.4---2014-09-14','2;1',
'CAx-IF Rec.Pracs.---User Defined Attributes---1.5---2016-08-15'),
/* implementation_level */ '2;1');

FILE_NAME(
/* name */ 'DEXI+Assembled parts - DEXI Assembled v16 - Part 2',
/* time_stamp */ '2026-04-16T03:01:09Z',
/* author */ (''),
/* organization */ (''),
/* preprocessor_version */ 'ST-DEVELOPER v20',
/* originating_system */ 'ONSHAPE BY PTC INC, 1.213',
/* authorisation */ '  ');

FILE_SCHEMA (('AP242_MANAGED_MODEL_BASED_3D_ENGINEERING_MIM_LF { 1 0 10303 442 3 1 4 }'));
ENDSEC;

DATA;
#10=SHAPE_REPRESENTATION_RELATIONSHIP('','',#921,#11);
#11=ADVANCED_BREP_SHAPE_REPRESENTATION('',(#919),#1646);
#12=(
BOUNDED_SURFACE()
B_SPLINE_SURFACE(3,2,((#1512,#1513,#1514),(#1515,#1516,#1517),(#1518,#1519,
#1520),(#1521,#1522,#1523),(#1524,#1525,#1526)),.UNSPECIFIED.,.F.,.F.,.F.)
B_SPLINE_SURFACE_WITH_KNOTS((4,1,4),(3,3),(0.,0.785398163397448,1.5707963267949),
(0.,1.),.UNSPECIFIED.)
GEOMETRIC_REPRESENTATION_ITEM()
RATIONAL_B_SPLINE_SURFACE(((1.,0.707290970390562,1.),(1.,0.707290975136059,
1.),(1.,0.707251063565997,1.),(1.,0.707155008088392,1.),(1.,0.707106781186548,
1.)))
REPRESENTATION_ITEM('')
SURFACE()
);
#13=(
BOUNDED_SURFACE()
B_SPLINE_SURFACE(3,2,((#1527,#1528,#1529),(#1530,#1531,#1532),(#1533,#1534,
#1535),(#1536,#1537,#1538),(#1539,#1540,#1541)),.UNSPECIFIED.,.F.,.F.,.F.)
B_SPLINE_SURFACE_WITH_KNOTS((4,1,4),(3,3),(3.13216787562902,3.92227842800686,
4.71238898038469),(0.,1.),.UNSPECIFIED.)
GEOMETRIC_REPRESENTATION_ITEM()
RATIONAL_B_SPLINE_SURFACE(((1.,0.707290962211252,1.),(1.,0.707291419340378,
1.),(1.,0.70725192131639,1.),(1.,0.707155297449803,1.),(1.,0.707106781186548,
1.)))
REPRESENTATION_ITEM('')
SURFACE()
);
#14=DEGENERATE_TOROIDAL_SURFACE('',#980,0.002437,0.00254,.T.);
#15=DEGENERATE_TOROIDAL_SURFACE('',#987,0.002437,0.00254,.T.);
#16=TOROIDAL_SURFACE('',#975,0.00508,0.00254);
#17=TOROIDAL_SURFACE('',#976,0.00508,0.00254);
#18=TOROIDAL_SURFACE('',#991,0.00508,0.00254);
#19=TOROIDAL_SURFACE('',#992,0.00508,0.00254);
#20=SPHERICAL_SURFACE('',#971,0.00254);
#21=SPHERICAL_SURFACE('',#996,0.00254);
#22=SPHERICAL_SURFACE('',#1021,0.000762);
#23=SPHERICAL_SURFACE('',#1028,0.000762);
#24=SPHERICAL_SURFACE('',#1030,0.000762);
#25=SPHERICAL_SURFACE('',#1036,0.000762);
#26=ELLIPSE('',#929,0.00262960149824161,0.00254);
#27=ELLIPSE('',#932,0.00262960149824161,0.00254);
#28=ELLIPSE('',#946,0.00508000068954919,0.00508);
#29=ELLIPSE('',#948,0.00508000068954919,0.00508);
#30=ELLIPSE('',#964,0.0025400013790981,0.00254);
#31=ELLIPSE('',#968,0.0025400013790981,0.00254);
#32=CYLINDRICAL_SURFACE('',#928,0.00254);
#33=CYLINDRICAL_SURFACE('',#931,0.00254);
#34=CYLINDRICAL_SURFACE('',#934,0.00254);
#35=CYLINDRICAL_SURFACE('',#949,0.001675);
#36=CYLINDRICAL_SURFACE('',#951,0.001675);
#37=CYLINDRICAL_SURFACE('',#960,0.00254);
#38=CYLINDRICAL_SURFACE('',#963,0.00254);
#39=CYLINDRICAL_SURFACE('',#967,0.00254);
#40=CYLINDRICAL_SURFACE('',#973,0.00254);
#41=CYLINDRICAL_SURFACE('',#978,0.00254);
#42=CYLINDRICAL_SURFACE('',#982,0.00254);
#43=CYLINDRICAL_SURFACE('',#985,0.00254);
#44=CYLINDRICAL_SURFACE('',#989,0.00254);
#45=CYLINDRICAL_SURFACE('',#994,0.00254);
#46=CYLINDRICAL_SURFACE('',#998,0.000762);
#47=CYLINDRICAL_SURFACE('',#1002,0.000762);
#48=CYLINDRICAL_SURFACE('',#1006,0.000762);
#49=CYLINDRICAL_SURFACE('',#1010,0.00254);
#50=CYLINDRICAL_SURFACE('',#1013,0.00254);
#51=CYLINDRICAL_SURFACE('',#1016,0.000762);
#52=CYLINDRICAL_SURFACE('',#1024,0.000762);
#53=CYLINDRICAL_SURFACE('',#1026,0.000762);
#54=CYLINDRICAL_SURFACE('',#1032,0.000762);
#55=CYLINDRICAL_SURFACE('',#1034,0.000762);
#56=B_SPLINE_CURVE_WITH_KNOTS('',3,(#1347,#1348,#1349,#1350),
 .UNSPECIFIED.,.F.,.F.,(4,4),(0.,0.00326903149896122),.UNSPECIFIED.);
#57=B_SPLINE_CURVE_WITH_KNOTS('',3,(#1369,#1370,#1371,#1372),
 .UNSPECIFIED.,.F.,.F.,(4,4),(0.,0.00326903149896122),.UNSPECIFIED.);
#58=B_SPLINE_CURVE_WITH_KNOTS('',3,(#1380,#1381,#1382,#1383),
 .UNSPECIFIED.,.F.,.F.,(4,4),(0.,0.00178914922762373),.UNSPECIFIED.);
#59=B_SPLINE_CURVE_WITH_KNOTS('',3,(#1386,#1387,#1388,#1389,#1390),
 .UNSPECIFIED.,.F.,.F.,(4,1,4),(0.,0.000892574928238737,0.00178514985647747),
 .UNSPECIFIED.);
#60=B_SPLINE_CURVE_WITH_KNOTS('',3,(#1399,#1400,#1401,#1402),
 .UNSPECIFIED.,.F.,.F.,(4,4),(1.71465850842031E-12,0.0019270828338189),
 .UNSPECIFIED.);
#61=B_SPLINE_CURVE_WITH_KNOTS('',3,(#1408,#1409,#1410,#1411),
 .UNSPECIFIED.,.F.,.F.,(4,4),(0.,0.00192402502638187),.UNSPECIFIED.);
#62=B_SPLINE_CURVE_WITH_KNOTS('',3,(#1499,#1500,#1501,#1502,#1503),
 .UNSPECIFIED.,.F.,.F.,(4,1,4),(0.,0.5,1.),.UNSPECIFIED.);
#63=B_SPLINE_CURVE_WITH_KNOTS('',3,(#1550,#1551,#1552,#1553,#1554),
 .UNSPECIFIED.,.F.,.F.,(4,1,4),(0.,0.5,1.),.UNSPECIFIED.);
#64=CIRCLE('',#925,0.00254);
#65=CIRCLE('',#927,0.00254);
#66=CIRCLE('',#930,0.00254);
#67=CIRCLE('',#933,0.00254);
#68=CIRCLE('',#937,0.001675);
#69=CIRCLE('',#938,0.002437);
#70=CIRCLE('',#940,0.002437);
#71=CIRCLE('',#941,0.001675);
#72=CIRCLE('',#943,0.00508);
#73=CIRCLE('',#944,0.00508);
#74=CIRCLE('',#950,0.001675);
#75=CIRCLE('',#952,0.001675);
#76=CIRCLE('',#954,0.004977);
#77=CIRCLE('',#955,0.004977);
#78=CIRCLE('',#957,0.00508);
#79=CIRCLE('',#958,0.00508);
#80=CIRCLE('',#961,0.00254);
#81=CIRCLE('',#962,0.00254);
#82=CIRCLE('',#965,0.00254);
#83=CIRCLE('',#966,0.00254);
#84=CIRCLE('',#969,0.00254);
#85=CIRCLE('',#970,0.00254);
#86=CIRCLE('',#972,0.00254);
#87=CIRCLE('',#974,0.00254);
#88=CIRCLE('',#977,0.00254);
#89=CIRCLE('',#979,0.00254);
#90=CIRCLE('',#981,0.00254);
#91=CIRCLE('',#983,0.00254);
#92=CIRCLE('',#984,0.00254);
#93=CIRCLE('',#986,0.00254);
#94=CIRCLE('',#988,0.00254);
#95=CIRCLE('',#990,0.00254);
#96=CIRCLE('',#993,0.00254);
#97=CIRCLE('',#995,0.00254);
#98=CIRCLE('',#999,0.000762);
#99=CIRCLE('',#1000,0.000762);
#100=CIRCLE('',#1003,0.000762);
#101=CIRCLE('',#1004,0.000762);
#102=CIRCLE('',#1007,0.000762);
#103=CIRCLE('',#1008,0.000762);
#104=CIRCLE('',#1011,0.00254);
#105=CIRCLE('',#1012,0.00254);
#106=CIRCLE('',#1014,0.00254);
#107=CIRCLE('',#1015,0.00254);
#108=CIRCLE('',#1017,0.000762);
#109=CIRCLE('',#1018,0.000762);
#110=CIRCLE('',#1022,0.000762);
#111=CIRCLE('',#1023,0.000762);
#112=CIRCLE('',#1025,0.000762);
#113=CIRCLE('',#1027,0.000762);
#114=CIRCLE('',#1029,0.000762);
#115=CIRCLE('',#1031,0.000762);
#116=CIRCLE('',#1033,0.000762);
#117=CIRCLE('',#1035,0.000762);
#118=ORIENTED_EDGE('',*,*,#374,.T.);
#119=ORIENTED_EDGE('',*,*,#375,.T.);
#120=ORIENTED_EDGE('',*,*,#376,.T.);
#121=ORIENTED_EDGE('',*,*,#377,.T.);
#122=ORIENTED_EDGE('',*,*,#378,.F.);
#123=ORIENTED_EDGE('',*,*,#379,.T.);
#124=ORIENTED_EDGE('',*,*,#380,.F.);
#125=ORIENTED_EDGE('',*,*,#381,.T.);
#126=ORIENTED_EDGE('',*,*,#382,.T.);
#127=ORIENTED_EDGE('',*,*,#383,.T.);
#128=ORIENTED_EDGE('',*,*,#384,.T.);
#129=ORIENTED_EDGE('',*,*,#385,.T.);
#130=ORIENTED_EDGE('',*,*,#386,.T.);
#131=ORIENTED_EDGE('',*,*,#387,.T.);
#132=ORIENTED_EDGE('',*,*,#388,.T.);
#133=ORIENTED_EDGE('',*,*,#389,.T.);
#134=ORIENTED_EDGE('',*,*,#390,.T.);
#135=ORIENTED_EDGE('',*,*,#391,.T.);
#136=ORIENTED_EDGE('',*,*,#392,.F.);
#137=ORIENTED_EDGE('',*,*,#393,.F.);
#138=ORIENTED_EDGE('',*,*,#388,.F.);
#139=ORIENTED_EDGE('',*,*,#394,.T.);
#140=ORIENTED_EDGE('',*,*,#395,.T.);
#141=ORIENTED_EDGE('',*,*,#374,.F.);
#142=ORIENTED_EDGE('',*,*,#396,.F.);
#143=ORIENTED_EDGE('',*,*,#376,.F.);
#144=ORIENTED_EDGE('',*,*,#397,.T.);
#145=ORIENTED_EDGE('',*,*,#398,.T.);
#146=ORIENTED_EDGE('',*,*,#385,.F.);
#147=ORIENTED_EDGE('',*,*,#399,.T.);
#148=ORIENTED_EDGE('',*,*,#400,.F.);
#149=ORIENTED_EDGE('',*,*,#386,.F.);
#150=ORIENTED_EDGE('',*,*,#401,.F.);
#151=ORIENTED_EDGE('',*,*,#379,.F.);
#152=ORIENTED_EDGE('',*,*,#402,.F.);
#153=ORIENTED_EDGE('',*,*,#392,.T.);
#154=ORIENTED_EDGE('',*,*,#403,.T.);
#155=ORIENTED_EDGE('',*,*,#404,.T.);
#156=ORIENTED_EDGE('',*,*,#405,.F.);
#157=ORIENTED_EDGE('',*,*,#406,.T.);
#158=ORIENTED_EDGE('',*,*,#381,.F.);
#159=ORIENTED_EDGE('',*,*,#407,.T.);
#160=ORIENTED_EDGE('',*,*,#408,.T.);
#161=ORIENTED_EDGE('',*,*,#409,.T.);
#162=ORIENTED_EDGE('',*,*,#410,.T.);
#163=ORIENTED_EDGE('',*,*,#411,.T.);
#164=ORIENTED_EDGE('',*,*,#412,.T.);
#165=ORIENTED_EDGE('',*,*,#413,.T.);
#166=ORIENTED_EDGE('',*,*,#414,.T.);
#167=ORIENTED_EDGE('',*,*,#415,.T.);
#168=ORIENTED_EDGE('',*,*,#416,.F.);
#169=ORIENTED_EDGE('',*,*,#417,.T.);
#170=ORIENTED_EDGE('',*,*,#418,.T.);
#171=ORIENTED_EDGE('',*,*,#419,.T.);
#172=ORIENTED_EDGE('',*,*,#420,.T.);
#173=ORIENTED_EDGE('',*,*,#404,.F.);
#174=ORIENTED_EDGE('',*,*,#421,.T.);
#175=ORIENTED_EDGE('',*,*,#422,.T.);
#176=ORIENTED_EDGE('',*,*,#423,.F.);
#177=ORIENTED_EDGE('',*,*,#424,.F.);
#178=ORIENTED_EDGE('',*,*,#425,.T.);
#179=ORIENTED_EDGE('',*,*,#405,.T.);
#180=ORIENTED_EDGE('',*,*,#423,.T.);
#181=ORIENTED_EDGE('',*,*,#416,.T.);
#182=ORIENTED_EDGE('',*,*,#426,.F.);
#183=ORIENTED_EDGE('',*,*,#407,.F.);
#184=ORIENTED_EDGE('',*,*,#427,.T.);
#185=ORIENTED_EDGE('',*,*,#426,.T.);
#186=ORIENTED_EDGE('',*,*,#428,.F.);
#187=ORIENTED_EDGE('',*,*,#429,.T.);
#188=ORIENTED_EDGE('',*,*,#424,.T.);
#189=ORIENTED_EDGE('',*,*,#422,.F.);
#190=ORIENTED_EDGE('',*,*,#430,.F.);
#191=ORIENTED_EDGE('',*,*,#431,.T.);
#192=ORIENTED_EDGE('',*,*,#432,.F.);
#193=ORIENTED_EDGE('',*,*,#417,.F.);
#194=ORIENTED_EDGE('',*,*,#433,.F.);
#195=ORIENTED_EDGE('',*,*,#427,.F.);
#196=ORIENTED_EDGE('',*,*,#419,.F.);
#197=ORIENTED_EDGE('',*,*,#434,.T.);
#198=ORIENTED_EDGE('',*,*,#435,.T.);
#199=ORIENTED_EDGE('',*,*,#436,.T.);
#200=ORIENTED_EDGE('',*,*,#437,.T.);
#201=ORIENTED_EDGE('',*,*,#438,.T.);
#202=ORIENTED_EDGE('',*,*,#380,.T.);
#203=ORIENTED_EDGE('',*,*,#401,.T.);
#204=ORIENTED_EDGE('',*,*,#393,.T.);
#205=ORIENTED_EDGE('',*,*,#402,.T.);
#206=ORIENTED_EDGE('',*,*,#436,.F.);
#207=ORIENTED_EDGE('',*,*,#439,.T.);
#208=ORIENTED_EDGE('',*,*,#377,.F.);
#209=ORIENTED_EDGE('',*,*,#440,.T.);
#210=ORIENTED_EDGE('',*,*,#410,.F.);
#211=ORIENTED_EDGE('',*,*,#441,.T.);
#212=ORIENTED_EDGE('',*,*,#390,.F.);
#213=ORIENTED_EDGE('',*,*,#442,.T.);
#214=ORIENTED_EDGE('',*,*,#443,.T.);
#215=ORIENTED_EDGE('',*,*,#383,.F.);
#216=ORIENTED_EDGE('',*,*,#444,.T.);
#217=ORIENTED_EDGE('',*,*,#412,.F.);
#218=ORIENTED_EDGE('',*,*,#445,.T.);
#219=ORIENTED_EDGE('',*,*,#446,.T.);
#220=ORIENTED_EDGE('',*,*,#396,.T.);
#221=ORIENTED_EDGE('',*,*,#439,.F.);
#222=ORIENTED_EDGE('',*,*,#447,.F.);
#223=ORIENTED_EDGE('',*,*,#447,.T.);
#224=ORIENTED_EDGE('',*,*,#435,.F.);
#225=ORIENTED_EDGE('',*,*,#448,.F.);
#226=ORIENTED_EDGE('',*,*,#389,.F.);
#227=ORIENTED_EDGE('',*,*,#448,.T.);
#228=ORIENTED_EDGE('',*,*,#434,.F.);
#229=ORIENTED_EDGE('',*,*,#449,.F.);
#230=ORIENTED_EDGE('',*,*,#442,.F.);
#231=ORIENTED_EDGE('',*,*,#449,.T.);
#232=ORIENTED_EDGE('',*,*,#418,.F.);
#233=ORIENTED_EDGE('',*,*,#450,.F.);
#234=ORIENTED_EDGE('',*,*,#443,.F.);
#235=ORIENTED_EDGE('',*,*,#450,.T.);
#236=ORIENTED_EDGE('',*,*,#432,.T.);
#237=ORIENTED_EDGE('',*,*,#451,.F.);
#238=ORIENTED_EDGE('',*,*,#411,.F.);
#239=ORIENTED_EDGE('',*,*,#451,.T.);
#240=ORIENTED_EDGE('',*,*,#431,.F.);
#241=ORIENTED_EDGE('',*,*,#452,.F.);
#242=ORIENTED_EDGE('',*,*,#408,.F.);
#243=ORIENTED_EDGE('',*,*,#452,.T.);
#244=ORIENTED_EDGE('',*,*,#430,.T.);
#245=ORIENTED_EDGE('',*,*,#453,.F.);
#246=ORIENTED_EDGE('',*,*,#409,.F.);
#247=ORIENTED_EDGE('',*,*,#391,.F.);
#248=ORIENTED_EDGE('',*,*,#441,.F.);
#249=ORIENTED_EDGE('',*,*,#453,.T.);
#250=ORIENTED_EDGE('',*,*,#421,.F.);
#251=ORIENTED_EDGE('',*,*,#403,.F.);
#252=ORIENTED_EDGE('',*,*,#406,.F.);
#253=ORIENTED_EDGE('',*,*,#425,.F.);
#254=ORIENTED_EDGE('',*,*,#454,.F.);
#255=ORIENTED_EDGE('',*,*,#444,.F.);
#256=ORIENTED_EDGE('',*,*,#382,.F.);
#257=ORIENTED_EDGE('',*,*,#454,.T.);
#258=ORIENTED_EDGE('',*,*,#429,.F.);
#259=ORIENTED_EDGE('',*,*,#455,.F.);
#260=ORIENTED_EDGE('',*,*,#413,.F.);
#261=ORIENTED_EDGE('',*,*,#455,.T.);
#262=ORIENTED_EDGE('',*,*,#428,.T.);
#263=ORIENTED_EDGE('',*,*,#456,.F.);
#264=ORIENTED_EDGE('',*,*,#414,.F.);
#265=ORIENTED_EDGE('',*,*,#456,.T.);
#266=ORIENTED_EDGE('',*,*,#433,.T.);
#267=ORIENTED_EDGE('',*,*,#457,.F.);
#268=ORIENTED_EDGE('',*,*,#415,.F.);
#269=ORIENTED_EDGE('',*,*,#457,.T.);
#270=ORIENTED_EDGE('',*,*,#420,.F.);
#271=ORIENTED_EDGE('',*,*,#458,.F.);
#272=ORIENTED_EDGE('',*,*,#445,.F.);
#273=ORIENTED_EDGE('',*,*,#458,.T.);
#274=ORIENTED_EDGE('',*,*,#438,.F.);
#275=ORIENTED_EDGE('',*,*,#459,.F.);
#276=ORIENTED_EDGE('',*,*,#446,.F.);
#277=ORIENTED_EDGE('',*,*,#459,.T.);
#278=ORIENTED_EDGE('',*,*,#437,.F.);
#279=ORIENTED_EDGE('',*,*,#460,.F.);
#280=ORIENTED_EDGE('',*,*,#384,.F.);
#281=ORIENTED_EDGE('',*,*,#460,.T.);
#282=ORIENTED_EDGE('',*,*,#440,.F.);
#283=ORIENTED_EDGE('',*,*,#399,.F.);
#284=ORIENTED_EDGE('',*,*,#461,.F.);
#285=ORIENTED_EDGE('',*,*,#462,.T.);
#286=ORIENTED_EDGE('',*,*,#463,.T.);
#287=ORIENTED_EDGE('',*,*,#464,.F.);
#288=ORIENTED_EDGE('',*,*,#463,.F.);
#289=ORIENTED_EDGE('',*,*,#465,.T.);
#290=ORIENTED_EDGE('',*,*,#466,.T.);
#291=ORIENTED_EDGE('',*,*,#467,.F.);
#292=ORIENTED_EDGE('',*,*,#466,.F.);
#293=ORIENTED_EDGE('',*,*,#468,.T.);
#294=ORIENTED_EDGE('',*,*,#469,.T.);
#295=ORIENTED_EDGE('',*,*,#470,.F.);
#296=ORIENTED_EDGE('',*,*,#469,.F.);
#297=ORIENTED_EDGE('',*,*,#471,.T.);
#298=ORIENTED_EDGE('',*,*,#472,.T.);
#299=ORIENTED_EDGE('',*,*,#473,.F.);
#300=ORIENTED_EDGE('',*,*,#472,.F.);
#301=ORIENTED_EDGE('',*,*,#474,.T.);
#302=ORIENTED_EDGE('',*,*,#475,.T.);
#303=ORIENTED_EDGE('',*,*,#476,.F.);
#304=ORIENTED_EDGE('',*,*,#475,.F.);
#305=ORIENTED_EDGE('',*,*,#477,.T.);
#306=ORIENTED_EDGE('',*,*,#478,.T.);
#307=ORIENTED_EDGE('',*,*,#479,.F.);
#308=ORIENTED_EDGE('',*,*,#478,.F.);
#309=ORIENTED_EDGE('',*,*,#480,.T.);
#310=ORIENTED_EDGE('',*,*,#481,.T.);
#311=ORIENTED_EDGE('',*,*,#482,.T.);
#312=ORIENTED_EDGE('',*,*,#483,.F.);
#313=ORIENTED_EDGE('',*,*,#484,.T.);
#314=ORIENTED_EDGE('',*,*,#485,.F.);
#315=ORIENTED_EDGE('',*,*,#486,.T.);
#316=ORIENTED_EDGE('',*,*,#481,.F.);
#317=ORIENTED_EDGE('',*,*,#487,.T.);
#318=ORIENTED_EDGE('',*,*,#461,.T.);
#319=ORIENTED_EDGE('',*,*,#488,.F.);
#320=ORIENTED_EDGE('',*,*,#489,.T.);
#321=ORIENTED_EDGE('',*,*,#490,.T.);
#322=ORIENTED_EDGE('',*,*,#394,.F.);
#323=ORIENTED_EDGE('',*,*,#387,.F.);
#324=ORIENTED_EDGE('',*,*,#400,.T.);
#325=ORIENTED_EDGE('',*,*,#378,.T.);
#326=ORIENTED_EDGE('',*,*,#398,.F.);
#327=ORIENTED_EDGE('',*,*,#491,.T.);
#328=ORIENTED_EDGE('',*,*,#492,.T.);
#329=ORIENTED_EDGE('',*,*,#493,.T.);
#330=ORIENTED_EDGE('',*,*,#485,.T.);
#331=ORIENTED_EDGE('',*,*,#483,.T.);
#332=ORIENTED_EDGE('',*,*,#486,.F.);
#333=ORIENTED_EDGE('',*,*,#484,.F.);
#334=ORIENTED_EDGE('',*,*,#464,.T.);
#335=ORIENTED_EDGE('',*,*,#467,.T.);
#336=ORIENTED_EDGE('',*,*,#470,.T.);
#337=ORIENTED_EDGE('',*,*,#473,.T.);
#338=ORIENTED_EDGE('',*,*,#476,.T.);
#339=ORIENTED_EDGE('',*,*,#479,.T.);
#340=ORIENTED_EDGE('',*,*,#482,.F.);
#341=ORIENTED_EDGE('',*,*,#488,.T.);
#342=ORIENTED_EDGE('',*,*,#494,.F.);
#343=ORIENTED_EDGE('',*,*,#495,.F.);
#344=ORIENTED_EDGE('',*,*,#477,.F.);
#345=ORIENTED_EDGE('',*,*,#395,.F.);
#346=ORIENTED_EDGE('',*,*,#490,.F.);
#347=ORIENTED_EDGE('',*,*,#496,.F.);
#348=ORIENTED_EDGE('',*,*,#480,.F.);
#349=ORIENTED_EDGE('',*,*,#495,.T.);
#350=ORIENTED_EDGE('',*,*,#491,.F.);
#351=ORIENTED_EDGE('',*,*,#397,.F.);
#352=ORIENTED_EDGE('',*,*,#375,.F.);
#353=ORIENTED_EDGE('',*,*,#494,.T.);
#354=ORIENTED_EDGE('',*,*,#474,.F.);
#355=ORIENTED_EDGE('',*,*,#497,.F.);
#356=ORIENTED_EDGE('',*,*,#492,.F.);
#357=ORIENTED_EDGE('',*,*,#487,.F.);
#358=ORIENTED_EDGE('',*,*,#496,.T.);
#359=ORIENTED_EDGE('',*,*,#498,.F.);
#360=ORIENTED_EDGE('',*,*,#497,.T.);
#361=ORIENTED_EDGE('',*,*,#471,.F.);
#362=ORIENTED_EDGE('',*,*,#499,.F.);
#363=ORIENTED_EDGE('',*,*,#498,.T.);
#364=ORIENTED_EDGE('',*,*,#489,.F.);
#365=ORIENTED_EDGE('',*,*,#500,.F.);
#366=ORIENTED_EDGE('',*,*,#462,.F.);
#367=ORIENTED_EDGE('',*,*,#499,.T.);
#368=ORIENTED_EDGE('',*,*,#468,.F.);
#369=ORIENTED_EDGE('',*,*,#501,.F.);
#370=ORIENTED_EDGE('',*,*,#493,.F.);
#371=ORIENTED_EDGE('',*,*,#465,.F.);
#372=ORIENTED_EDGE('',*,*,#500,.T.);
#373=ORIENTED_EDGE('',*,*,#501,.T.);
#374=EDGE_CURVE('',#502,#503,#580,.F.);
#375=EDGE_CURVE('',#503,#504,#581,.T.);
#376=EDGE_CURVE('',#504,#505,#582,.T.);
#377=EDGE_CURVE('',#505,#502,#583,.F.);
#378=EDGE_CURVE('',#506,#507,#584,.T.);
#379=EDGE_CURVE('',#506,#508,#64,.T.);
#380=EDGE_CURVE('',#509,#508,#585,.T.);
#381=EDGE_CURVE('',#509,#510,#586,.T.);
#382=EDGE_CURVE('',#510,#511,#56,.T.);
#383=EDGE_CURVE('',#511,#512,#587,.T.);
#384=EDGE_CURVE('',#512,#513,#588,.F.);
#385=EDGE_CURVE('',#513,#507,#589,.F.);
#386=EDGE_CURVE('',#514,#515,#65,.F.);
#387=EDGE_CURVE('',#515,#516,#590,.T.);
#388=EDGE_CURVE('',#516,#517,#591,.T.);
#389=EDGE_CURVE('',#517,#518,#592,.T.);
#390=EDGE_CURVE('',#518,#519,#593,.F.);
#391=EDGE_CURVE('',#519,#520,#57,.F.);
#392=EDGE_CURVE('',#521,#520,#594,.T.);
#393=EDGE_CURVE('',#514,#521,#595,.T.);
#394=EDGE_CURVE('',#516,#522,#26,.F.);
#395=EDGE_CURVE('',#522,#503,#58,.T.);
#396=EDGE_CURVE('',#517,#502,#66,.T.);
#397=EDGE_CURVE('',#504,#523,#59,.T.);
#398=EDGE_CURVE('',#523,#507,#27,.F.);
#399=EDGE_CURVE('',#513,#505,#67,.T.);
#400=EDGE_CURVE('',#515,#506,#596,.T.);
#401=EDGE_CURVE('',#508,#514,#597,.F.);
#402=EDGE_CURVE('',#521,#509,#598,.T.);
#403=EDGE_CURVE('',#520,#524,#60,.T.);
#404=EDGE_CURVE('',#524,#525,#599,.T.);
#405=EDGE_CURVE('',#526,#525,#600,.T.);
#406=EDGE_CURVE('',#526,#510,#61,.T.);
#407=EDGE_CURVE('',#527,#527,#68,.T.);
#408=EDGE_CURVE('',#528,#529,#69,.T.);
#409=EDGE_CURVE('',#529,#530,#601,.T.);
#410=EDGE_CURVE('',#530,#531,#602,.T.);
#411=EDGE_CURVE('',#531,#528,#603,.T.);
#412=EDGE_CURVE('',#532,#533,#604,.F.);
#413=EDGE_CURVE('',#533,#534,#605,.F.);
#414=EDGE_CURVE('',#534,#535,#70,.T.);
#415=EDGE_CURVE('',#535,#532,#606,.T.);
#416=EDGE_CURVE('',#536,#536,#71,.T.);
#417=EDGE_CURVE('',#537,#538,#607,.T.);
#418=EDGE_CURVE('',#538,#539,#72,.T.);
#419=EDGE_CURVE('',#539,#540,#608,.T.);
#420=EDGE_CURVE('',#540,#537,#73,.T.);
#421=EDGE_CURVE('',#524,#541,#28,.T.);
#422=EDGE_CURVE('',#541,#542,#609,.T.);
#423=EDGE_CURVE('',#525,#542,#610,.T.);
#424=EDGE_CURVE('',#543,#542,#611,.T.);
#425=EDGE_CURVE('',#543,#526,#29,.F.);
#426=EDGE_CURVE('',#544,#544,#74,.T.);
#427=EDGE_CURVE('',#545,#545,#75,.T.);
#428=EDGE_CURVE('',#546,#547,#76,.T.);
#429=EDGE_CURVE('',#546,#543,#612,.T.);
#430=EDGE_CURVE('',#548,#541,#613,.T.);
#431=EDGE_CURVE('',#548,#549,#77,.T.);
#432=EDGE_CURVE('',#538,#549,#614,.T.);
#433=EDGE_CURVE('',#547,#537,#615,.T.);
#434=EDGE_CURVE('',#539,#550,#78,.F.);
#435=EDGE_CURVE('',#550,#551,#616,.F.);
#436=EDGE_CURVE('',#551,#552,#617,.T.);
#437=EDGE_CURVE('',#552,#553,#618,.T.);
#438=EDGE_CURVE('',#553,#540,#79,.F.);
#439=EDGE_CURVE('',#551,#502,#80,.T.);
#440=EDGE_CURVE('',#505,#552,#81,.F.);
#441=EDGE_CURVE('',#530,#519,#30,.T.);
#442=EDGE_CURVE('',#518,#554,#82,.T.);
#443=EDGE_CURVE('',#554,#531,#83,.F.);
#444=EDGE_CURVE('',#511,#533,#31,.F.);
#445=EDGE_CURVE('',#532,#555,#84,.F.);
#446=EDGE_CURVE('',#555,#512,#85,.T.);
#447=EDGE_CURVE('',#517,#551,#86,.T.);
#448=EDGE_CURVE('',#518,#550,#87,.T.);
#449=EDGE_CURVE('',#554,#539,#62,.F.);
#450=EDGE_CURVE('',#531,#538,#88,.T.);
#451=EDGE_CURVE('',#528,#549,#89,.T.);
#452=EDGE_CURVE('',#529,#548,#90,.T.);
#453=EDGE_CURVE('',#530,#541,#91,.T.);
#454=EDGE_CURVE('',#533,#543,#92,.T.);
#455=EDGE_CURVE('',#534,#546,#93,.T.);
#456=EDGE_CURVE('',#535,#547,#94,.T.);
#457=EDGE_CURVE('',#532,#537,#95,.T.);
#458=EDGE_CURVE('',#555,#540,#63,.F.);
#459=EDGE_CURVE('',#512,#553,#96,.T.);
#460=EDGE_CURVE('',#513,#552,#97,.T.);
#461=EDGE_CURVE('',#556,#557,#619,.T.);
#462=EDGE_CURVE('',#556,#558,#620,.T.);
#463=EDGE_CURVE('',#558,#559,#621,.T.);
#464=EDGE_CURVE('',#557,#559,#622,.T.);
#465=EDGE_CURVE('',#558,#560,#98,.T.);
#466=EDGE_CURVE('',#560,#561,#623,.T.);
#467=EDGE_CURVE('',#559,#561,#99,.T.);
#468=EDGE_CURVE('',#560,#562,#624,.T.);
#469=EDGE_CURVE('',#562,#563,#625,.T.);
#470=EDGE_CURVE('',#561,#563,#626,.T.);
#471=EDGE_CURVE('',#562,#564,#100,.T.);
#472=EDGE_CURVE('',#564,#565,#627,.T.);
#473=EDGE_CURVE('',#563,#565,#101,.T.);
#474=EDGE_CURVE('',#564,#566,#628,.T.);
#475=EDGE_CURVE('',#566,#567,#629,.T.);
#476=EDGE_CURVE('',#565,#567,#630,.T.);
#477=EDGE_CURVE('',#566,#568,#102,.T.);
#478=EDGE_CURVE('',#568,#569,#631,.T.);
#479=EDGE_CURVE('',#567,#569,#103,.T.);
#480=EDGE_CURVE('',#568,#570,#632,.F.);
#481=EDGE_CURVE('',#570,#571,#633,.T.);
#482=EDGE_CURVE('',#571,#569,#634,.T.);
#483=EDGE_CURVE('',#572,#572,#104,.T.);
#484=EDGE_CURVE('',#573,#573,#105,.T.);
#485=EDGE_CURVE('',#574,#574,#106,.T.);
#486=EDGE_CURVE('',#575,#575,#107,.T.);
#487=EDGE_CURVE('',#570,#556,#108,.T.);
#488=EDGE_CURVE('',#571,#557,#109,.T.);
#489=EDGE_CURVE('',#576,#577,#635,.F.);
#490=EDGE_CURVE('',#577,#522,#636,.T.);
#491=EDGE_CURVE('',#523,#578,#637,.T.);
#492=EDGE_CURVE('',#578,#579,#638,.F.);
#493=EDGE_CURVE('',#579,#576,#639,.F.);
#494=EDGE_CURVE('',#578,#566,#110,.T.);
#495=EDGE_CURVE('',#568,#578,#111,.T.);
#496=EDGE_CURVE('',#570,#577,#112,.T.);
#497=EDGE_CURVE('',#579,#564,#113,.T.);
#498=EDGE_CURVE('',#556,#577,#114,.T.);
#499=EDGE_CURVE('',#579,#562,#115,.T.);
#500=EDGE_CURVE('',#558,#576,#116,.T.);
#501=EDGE_CURVE('',#576,#560,#117,.T.);
#502=VERTEX_POINT('',#1330);
#503=VERTEX_POINT('',#1331);
#504=VERTEX_POINT('',#1333);
#505=VERTEX_POINT('',#1335);
#506=VERTEX_POINT('',#1339);
#507=VERTEX_POINT('',#1340);
#508=VERTEX_POINT('',#1342);
#509=VERTEX_POINT('',#1344);
#510=VERTEX_POINT('',#1346);
#511=VERTEX_POINT('',#1351);
#512=VERTEX_POINT('',#1353);
#513=VERTEX_POINT('',#1355);
#514=VERTEX_POINT('',#1359);
#515=VERTEX_POINT('',#1360);
#516=VERTEX_POINT('',#1362);
#517=VERTEX_POINT('',#1364);
#518=VERTEX_POINT('',#1366);
#519=VERTEX_POINT('',#1368);
#520=VERTEX_POINT('',#1373);
#521=VERTEX_POINT('',#1375);
#522=VERTEX_POINT('',#1379);
#523=VERTEX_POINT('',#1391);
#524=VERTEX_POINT('',#1403);
#525=VERTEX_POINT('',#1405);
#526=VERTEX_POINT('',#1407);
#527=VERTEX_POINT('',#1414);
#528=VERTEX_POINT('',#1416);
#529=VERTEX_POINT('',#1417);
#530=VERTEX_POINT('',#1419);
#531=VERTEX_POINT('',#1421);
#532=VERTEX_POINT('',#1425);
#533=VERTEX_POINT('',#1426);
#534=VERTEX_POINT('',#1428);
#535=VERTEX_POINT('',#1430);
#536=VERTEX_POINT('',#1433);
#537=VERTEX_POINT('',#1436);
#538=VERTEX_POINT('',#1437);
#539=VERTEX_POINT('',#1439);
#540=VERTEX_POINT('',#1441);
#541=VERTEX_POINT('',#1445);
#542=VERTEX_POINT('',#1447);
#543=VERTEX_POINT('',#1451);
#544=VERTEX_POINT('',#1455);
#545=VERTEX_POINT('',#1458);
#546=VERTEX_POINT('',#1461);
#547=VERTEX_POINT('',#1462);
#548=VERTEX_POINT('',#1465);
#549=VERTEX_POINT('',#1467);
#550=VERTEX_POINT('',#1472);
#551=VERTEX_POINT('',#1474);
#552=VERTEX_POINT('',#1476);
#553=VERTEX_POINT('',#1478);
#554=VERTEX_POINT('',#1487);
#555=VERTEX_POINT('',#1492);
#556=VERTEX_POINT('',#1562);
#557=VERTEX_POINT('',#1563);
#558=VERTEX_POINT('',#1565);
#559=VERTEX_POINT('',#1567);
#560=VERTEX_POINT('',#1571);
#561=VERTEX_POINT('',#1573);
#562=VERTEX_POINT('',#1577);
#563=VERTEX_POINT('',#1579);
#564=VERTEX_POINT('',#1583);
#565=VERTEX_POINT('',#1585);
#566=VERTEX_POINT('',#1589);
#567=VERTEX_POINT('',#1591);
#568=VERTEX_POINT('',#1595);
#569=VERTEX_POINT('',#1597);
#570=VERTEX_POINT('',#1601);
#571=VERTEX_POINT('',#1603);
#572=VERTEX_POINT('',#1607);
#573=VERTEX_POINT('',#1609);
#574=VERTEX_POINT('',#1612);
#575=VERTEX_POINT('',#1614);
#576=VERTEX_POINT('',#1620);
#577=VERTEX_POINT('',#1621);
#578=VERTEX_POINT('',#1624);
#579=VERTEX_POINT('',#1626);
#580=LINE('',#1329,#640);
#581=LINE('',#1332,#641);
#582=LINE('',#1334,#642);
#583=LINE('',#1336,#643);
#584=LINE('',#1338,#644);
#585=LINE('',#1343,#645);
#586=LINE('',#1345,#646);
#587=LINE('',#1352,#647);
#588=LINE('',#1354,#648);
#589=LINE('',#1356,#649);
#590=LINE('',#1361,#650);
#591=LINE('',#1363,#651);
#592=LINE('',#1365,#652);
#593=LINE('',#1367,#653);
#594=LINE('',#1374,#654);
#595=LINE('',#1376,#655);
#596=LINE('',#1395,#656);
#597=LINE('',#1396,#657);
#598=LINE('',#1398,#658);
#599=LINE('',#1404,#659);
#600=LINE('',#1406,#660);
#601=LINE('',#1418,#661);
#602=LINE('',#1420,#662);
#603=LINE('',#1422,#663);
#604=LINE('',#1424,#664);
#605=LINE('',#1427,#665);
#606=LINE('',#1431,#666);
#607=LINE('',#1435,#667);
#608=LINE('',#1440,#668);
#609=LINE('',#1446,#669);
#610=LINE('',#1448,#670);
#611=LINE('',#1450,#671);
#612=LINE('',#1463,#672);
#613=LINE('',#1464,#673);
#614=LINE('',#1468,#674);
#615=LINE('',#1469,#675);
#616=LINE('',#1473,#676);
#617=LINE('',#1475,#677);
#618=LINE('',#1477,#678);
#619=LINE('',#1561,#679);
#620=LINE('',#1564,#680);
#621=LINE('',#1566,#681);
#622=LINE('',#1568,#682);
#623=LINE('',#1572,#683);
#624=LINE('',#1576,#684);
#625=LINE('',#1578,#685);
#626=LINE('',#1580,#686);
#627=LINE('',#1584,#687);
#628=LINE('',#1588,#688);
#629=LINE('',#1590,#689);
#630=LINE('',#1592,#690);
#631=LINE('',#1596,#691);
#632=LINE('',#1600,#692);
#633=LINE('',#1602,#693);
#634=LINE('',#1604,#694);
#635=LINE('',#1619,#695);
#636=LINE('',#1622,#696);
#637=LINE('',#1623,#697);
#638=LINE('',#1625,#698);
#639=LINE('',#1627,#699);
#640=VECTOR('',#1041,1.);
#641=VECTOR('',#1042,1.);
#642=VECTOR('',#1043,1.);
#643=VECTOR('',#1044,1.);
#644=VECTOR('',#1047,1.);
#645=VECTOR('',#1050,1.);
#646=VECTOR('',#1051,1.);
#647=VECTOR('',#1052,1.);
#648=VECTOR('',#1053,1.);
#649=VECTOR('',#1054,1.);
#650=VECTOR('',#1059,1.);
#651=VECTOR('',#1060,1.);
#652=VECTOR('',#1061,1.);
#653=VECTOR('',#1062,1.);
#654=VECTOR('',#1063,1.);
#655=VECTOR('',#1064,1.);
#656=VECTOR('',#1079,1.);
#657=VECTOR('',#1080,1.);
#658=VECTOR('',#1083,1.);
#659=VECTOR('',#1084,1.);
#660=VECTOR('',#1085,1.);
#661=VECTOR('',#1092,1.);
#662=VECTOR('',#1093,1.);
#663=VECTOR('',#1094,1.);
#664=VECTOR('',#1097,1.);
#665=VECTOR('',#1098,1.);
#666=VECTOR('',#1101,1.);
#667=VECTOR('',#1106,1.);
#668=VECTOR('',#1109,1.);
#669=VECTOR('',#1116,1.);
#670=VECTOR('',#1117,1.);
#671=VECTOR('',#1120,1.);
#672=VECTOR('',#1135,1.);
#673=VECTOR('',#1136,1.);
#674=VECTOR('',#1139,1.);
#675=VECTOR('',#1140,1.);
#676=VECTOR('',#1145,1.);
#677=VECTOR('',#1146,1.);
#678=VECTOR('',#1147,1.);
#679=VECTOR('',#1228,1.);
#680=VECTOR('',#1229,1.);
#681=VECTOR('',#1230,1.);
#682=VECTOR('',#1231,1.);
#683=VECTOR('',#1236,1.);
#684=VECTOR('',#1241,1.);
#685=VECTOR('',#1242,1.);
#686=VECTOR('',#1243,1.);
#687=VECTOR('',#1248,1.);
#688=VECTOR('',#1253,1.);
#689=VECTOR('',#1254,1.);
#690=VECTOR('',#1255,1.);
#691=VECTOR('',#1260,1.);
#692=VECTOR('',#1265,1.);
#693=VECTOR('',#1266,1.);
#694=VECTOR('',#1267,1.);
#695=VECTOR('',#1288,1.);
#696=VECTOR('',#1289,1.);
#697=VECTOR('',#1290,1.);
#698=VECTOR('',#1291,1.);
#699=VECTOR('',#1292,1.);
#700=EDGE_LOOP('',(#118,#119,#120,#121));
#701=EDGE_LOOP('',(#122,#123,#124,#125,#126,#127,#128,#129));
#702=EDGE_LOOP('',(#130,#131,#132,#133,#134,#135,#136,#137));
#703=EDGE_LOOP('',(#138,#139,#140,#141,#142));
#704=EDGE_LOOP('',(#143,#144,#145,#146,#147));
#705=EDGE_LOOP('',(#148,#149,#150,#151));
#706=EDGE_LOOP('',(#152,#153,#154,#155,#156,#157,#158));
#707=EDGE_LOOP('',(#159));
#708=EDGE_LOOP('',(#160,#161,#162,#163));
#709=EDGE_LOOP('',(#164,#165,#166,#167));
#710=EDGE_LOOP('',(#168));
#711=EDGE_LOOP('',(#169,#170,#171,#172));
#712=EDGE_LOOP('',(#173,#174,#175,#176));
#713=EDGE_LOOP('',(#177,#178,#179,#180));
#714=EDGE_LOOP('',(#181));
#715=EDGE_LOOP('',(#182));
#716=EDGE_LOOP('',(#183));
#717=EDGE_LOOP('',(#184));
#718=EDGE_LOOP('',(#185));
#719=EDGE_LOOP('',(#186,#187,#188,#189,#190,#191,#192,#193,#194));
#720=EDGE_LOOP('',(#195));
#721=EDGE_LOOP('',(#196,#197,#198,#199,#200,#201));
#722=EDGE_LOOP('',(#202,#203,#204,#205));
#723=EDGE_LOOP('',(#206,#207,#208,#209));
#724=EDGE_LOOP('',(#210,#211,#212,#213,#214));
#725=EDGE_LOOP('',(#215,#216,#217,#218,#219));
#726=EDGE_LOOP('',(#220,#221,#222));
#727=EDGE_LOOP('',(#223,#224,#225,#226));
#728=EDGE_LOOP('',(#227,#228,#229,#230));
#729=EDGE_LOOP('',(#231,#232,#233,#234));
#730=EDGE_LOOP('',(#235,#236,#237,#238));
#731=EDGE_LOOP('',(#239,#240,#241,#242));
#732=EDGE_LOOP('',(#243,#244,#245,#246));
#733=EDGE_LOOP('',(#247,#248,#249,#250,#251));
#734=EDGE_LOOP('',(#252,#253,#254,#255,#256));
#735=EDGE_LOOP('',(#257,#258,#259,#260));
#736=EDGE_LOOP('',(#261,#262,#263,#264));
#737=EDGE_LOOP('',(#265,#266,#267,#268));
#738=EDGE_LOOP('',(#269,#270,#271,#272));
#739=EDGE_LOOP('',(#273,#274,#275,#276));
#740=EDGE_LOOP('',(#277,#278,#279,#280));
#741=EDGE_LOOP('',(#281,#282,#283));
#742=EDGE_LOOP('',(#284,#285,#286,#287));
#743=EDGE_LOOP('',(#288,#289,#290,#291));
#744=EDGE_LOOP('',(#292,#293,#294,#295));
#745=EDGE_LOOP('',(#296,#297,#298,#299));
#746=EDGE_LOOP('',(#300,#301,#302,#303));
#747=EDGE_LOOP('',(#304,#305,#306,#307));
#748=EDGE_LOOP('',(#308,#309,#310,#311));
#749=EDGE_LOOP('',(#312));
#750=EDGE_LOOP('',(#313));
#751=EDGE_LOOP('',(#314));
#752=EDGE_LOOP('',(#315));
#753=EDGE_LOOP('',(#316,#317,#318,#319));
#754=EDGE_LOOP('',(#320,#321,#322,#323,#324,#325,#326,#327,#328,#329));
#755=EDGE_LOOP('',(#330));
#756=EDGE_LOOP('',(#331));
#757=EDGE_LOOP('',(#332));
#758=EDGE_LOOP('',(#333));
#759=EDGE_LOOP('',(#334,#335,#336,#337,#338,#339,#340,#341));
#760=EDGE_LOOP('',(#342,#343,#344));
#761=EDGE_LOOP('',(#345,#346,#347,#348,#349,#350,#351,#352));
#762=EDGE_LOOP('',(#353,#354,#355,#356));
#763=EDGE_LOOP('',(#357,#358,#359));
#764=EDGE_LOOP('',(#360,#361,#362));
#765=EDGE_LOOP('',(#363,#364,#365,#366));
#766=EDGE_LOOP('',(#367,#368,#369,#370));
#767=EDGE_LOOP('',(#371,#372,#373));
#768=FACE_BOUND('',#700,.T.);
#769=FACE_BOUND('',#701,.T.);
#770=FACE_BOUND('',#702,.T.);
#771=FACE_BOUND('',#703,.T.);
#772=FACE_BOUND('',#704,.T.);
#773=FACE_BOUND('',#705,.T.);
#774=FACE_BOUND('',#706,.T.);
#775=FACE_BOUND('',#707,.T.);
#776=FACE_BOUND('',#708,.T.);
#777=FACE_BOUND('',#709,.T.);
#778=FACE_BOUND('',#710,.T.);
#779=FACE_BOUND('',#711,.T.);
#780=FACE_BOUND('',#712,.T.);
#781=FACE_BOUND('',#713,.T.);
#782=FACE_BOUND('',#714,.T.);
#783=FACE_BOUND('',#715,.T.);
#784=FACE_BOUND('',#716,.T.);
#785=FACE_BOUND('',#717,.T.);
#786=FACE_BOUND('',#718,.T.);
#787=FACE_BOUND('',#719,.T.);
#788=FACE_BOUND('',#720,.T.);
#789=FACE_BOUND('',#721,.T.);
#790=FACE_BOUND('',#722,.T.);
#791=FACE_BOUND('',#723,.T.);
#792=FACE_BOUND('',#724,.T.);
#793=FACE_BOUND('',#725,.T.);
#794=FACE_BOUND('',#726,.T.);
#795=FACE_BOUND('',#727,.T.);
#796=FACE_BOUND('',#728,.T.);
#797=FACE_BOUND('',#729,.T.);
#798=FACE_BOUND('',#730,.T.);
#799=FACE_BOUND('',#731,.T.);
#800=FACE_BOUND('',#732,.T.);
#801=FACE_BOUND('',#733,.T.);
#802=FACE_BOUND('',#734,.T.);
#803=FACE_BOUND('',#735,.T.);
#804=FACE_BOUND('',#736,.T.);
#805=FACE_BOUND('',#737,.T.);
#806=FACE_BOUND('',#738,.T.);
#807=FACE_BOUND('',#739,.T.);
#808=FACE_BOUND('',#740,.T.);
#809=FACE_BOUND('',#741,.T.);
#810=FACE_BOUND('',#742,.T.);
#811=FACE_BOUND('',#743,.T.);
#812=FACE_BOUND('',#744,.T.);
#813=FACE_BOUND('',#745,.T.);
#814=FACE_BOUND('',#746,.T.);
#815=FACE_BOUND('',#747,.T.);
#816=FACE_BOUND('',#748,.T.);
#817=FACE_BOUND('',#749,.T.);
#818=FACE_BOUND('',#750,.T.);
#819=FACE_BOUND('',#751,.T.);
#820=FACE_BOUND('',#752,.T.);
#821=FACE_BOUND('',#753,.T.);
#822=FACE_BOUND('',#754,.T.);
#823=FACE_BOUND('',#755,.T.);
#824=FACE_BOUND('',#756,.T.);
#825=FACE_BOUND('',#757,.T.);
#826=FACE_BOUND('',#758,.T.);
#827=FACE_BOUND('',#759,.T.);
#828=FACE_BOUND('',#760,.T.);
#829=FACE_BOUND('',#761,.T.);
#830=FACE_BOUND('',#762,.T.);
#831=FACE_BOUND('',#763,.T.);
#832=FACE_BOUND('',#764,.T.);
#833=FACE_BOUND('',#765,.T.);
#834=FACE_BOUND('',#766,.T.);
#835=FACE_BOUND('',#767,.T.);
#836=PLANE('',#923);
#837=PLANE('',#924);
#838=PLANE('',#926);
#839=PLANE('',#935);
#840=PLANE('',#936);
#841=PLANE('',#939);
#842=PLANE('',#942);
#843=PLANE('',#945);
#844=PLANE('',#947);
#845=PLANE('',#953);
#846=PLANE('',#956);
#847=PLANE('',#959);
#848=PLANE('',#997);
#849=PLANE('',#1001);
#850=PLANE('',#1005);
#851=PLANE('',#1009);
#852=PLANE('',#1019);
#853=PLANE('',#1020);
#854=ADVANCED_FACE('',(#768),#836,.T.);
#855=ADVANCED_FACE('',(#769),#837,.F.);
#856=ADVANCED_FACE('',(#770),#838,.T.);
#857=ADVANCED_FACE('',(#771),#32,.T.);
#858=ADVANCED_FACE('',(#772),#33,.T.);
#859=ADVANCED_FACE('',(#773),#34,.F.);
#860=ADVANCED_FACE('',(#774),#839,.F.);
#861=ADVANCED_FACE('Face appearance 2',(#775,#776),#840,.T.);
#862=ADVANCED_FACE('Face appearance 2',(#777,#778),#841,.T.);
#863=ADVANCED_FACE('',(#779),#842,.F.);
#864=ADVANCED_FACE('',(#780),#843,.F.);
#865=ADVANCED_FACE('',(#781),#844,.T.);
#866=ADVANCED_FACE('',(#782,#783),#35,.F.);
#867=ADVANCED_FACE('',(#784,#785),#36,.F.);
#868=ADVANCED_FACE('',(#786,#787,#788),#845,.F.);
#869=ADVANCED_FACE('',(#789),#846,.T.);
#870=ADVANCED_FACE('',(#790),#847,.F.);
#871=ADVANCED_FACE('',(#791),#37,.T.);
#872=ADVANCED_FACE('',(#792),#38,.F.);
#873=ADVANCED_FACE('',(#793),#39,.F.);
#874=ADVANCED_FACE('',(#794),#20,.T.);
#875=ADVANCED_FACE('',(#795),#40,.T.);
#876=ADVANCED_FACE('',(#796),#16,.T.);
#877=ADVANCED_FACE('',(#797),#17,.T.);
#878=ADVANCED_FACE('',(#798),#41,.T.);
#879=ADVANCED_FACE('',(#799),#14,.T.);
#880=ADVANCED_FACE('',(#800),#42,.T.);
#881=ADVANCED_FACE('',(#801),#12,.T.);
#882=ADVANCED_FACE('',(#802),#13,.T.);
#883=ADVANCED_FACE('',(#803),#43,.T.);
#884=ADVANCED_FACE('',(#804),#15,.T.);
#885=ADVANCED_FACE('',(#805),#44,.T.);
#886=ADVANCED_FACE('',(#806),#18,.T.);
#887=ADVANCED_FACE('',(#807),#19,.T.);
#888=ADVANCED_FACE('',(#808),#45,.T.);
#889=ADVANCED_FACE('',(#809),#21,.T.);
#890=ADVANCED_FACE('',(#810),#848,.T.);
#891=ADVANCED_FACE('',(#811),#46,.T.);
#892=ADVANCED_FACE('',(#812),#849,.T.);
#893=ADVANCED_FACE('',(#813),#47,.T.);
#894=ADVANCED_FACE('',(#814),#850,.T.);
#895=ADVANCED_FACE('',(#815),#48,.T.);
#896=ADVANCED_FACE('',(#816),#851,.F.);
#897=ADVANCED_FACE('',(#817,#818),#49,.F.);
#898=ADVANCED_FACE('',(#819,#820),#50,.F.);
#899=ADVANCED_FACE('',(#821),#51,.T.);
#900=ADVANCED_FACE('',(#822,#823,#824),#852,.F.);
#901=ADVANCED_FACE('',(#825,#826,#827),#853,.F.);
#902=ADVANCED_FACE('',(#828),#22,.T.);
#903=ADVANCED_FACE('',(#829),#52,.T.);
#904=ADVANCED_FACE('',(#830),#53,.T.);
#905=ADVANCED_FACE('',(#831),#23,.T.);
#906=ADVANCED_FACE('',(#832),#24,.T.);
#907=ADVANCED_FACE('',(#833),#54,.T.);
#908=ADVANCED_FACE('',(#834),#55,.T.);
#909=ADVANCED_FACE('',(#835),#25,.T.);
#910=CLOSED_SHELL('',(#854,#855,#856,#857,#858,#859,#860,#861,#862,#863,
#864,#865,#866,#867,#868,#869,#870,#871,#872,#873,#874,#875,#876,#877,#878,
#879,#880,#881,#882,#883,#884,#885,#886,#887,#888,#889,#890,#891,#892,#893,
#894,#895,#896,#897,#898,#899,#900,#901,#902,#903,#904,#905,#906,#907,#908,
#909));
#911=STYLED_ITEM('',(#912),#919);
#912=PRESENTATION_STYLE_ASSIGNMENT((#913));
#913=SURFACE_STYLE_USAGE(.BOTH.,#914);
#914=SURFACE_SIDE_STYLE('',(#915));
#915=SURFACE_STYLE_FILL_AREA(#916);
#916=FILL_AREA_STYLE('',(#917));
#917=FILL_AREA_STYLE_COLOUR('',#918);
#918=DRAUGHTING_PRE_DEFINED_COLOUR('red');
#919=MANIFOLD_SOLID_BREP('Part 2',#910);
#920=SHAPE_DEFINITION_REPRESENTATION(#1651,#921);
#921=SHAPE_REPRESENTATION('Part 2',(#922),#1646);
#922=AXIS2_PLACEMENT_3D('',#1327,#1037,#1038);
#923=AXIS2_PLACEMENT_3D('',#1328,#1039,#1040);
#924=AXIS2_PLACEMENT_3D('',#1337,#1045,#1046);
#925=AXIS2_PLACEMENT_3D('',#1341,#1048,#1049);
#926=AXIS2_PLACEMENT_3D('',#1357,#1055,#1056);
#927=AXIS2_PLACEMENT_3D('',#1358,#1057,#1058);
#928=AXIS2_PLACEMENT_3D('',#1377,#1065,#1066);
#929=AXIS2_PLACEMENT_3D('',#1378,#1067,#1068);
#930=AXIS2_PLACEMENT_3D('',#1384,#1069,#1070);
#931=AXIS2_PLACEMENT_3D('',#1385,#1071,#1072);
#932=AXIS2_PLACEMENT_3D('',#1392,#1073,#1074);
#933=AXIS2_PLACEMENT_3D('',#1393,#1075,#1076);
#934=AXIS2_PLACEMENT_3D('',#1394,#1077,#1078);
#935=AXIS2_PLACEMENT_3D('',#1397,#1081,#1082);
#936=AXIS2_PLACEMENT_3D('',#1412,#1086,#1087);
#937=AXIS2_PLACEMENT_3D('',#1413,#1088,#1089);
#938=AXIS2_PLACEMENT_3D('',#1415,#1090,#1091);
#939=AXIS2_PLACEMENT_3D('',#1423,#1095,#1096);
#940=AXIS2_PLACEMENT_3D('',#1429,#1099,#1100);
#941=AXIS2_PLACEMENT_3D('',#1432,#1102,#1103);
#942=AXIS2_PLACEMENT_3D('',#1434,#1104,#1105);
#943=AXIS2_PLACEMENT_3D('',#1438,#1107,#1108);
#944=AXIS2_PLACEMENT_3D('',#1442,#1110,#1111);
#945=AXIS2_PLACEMENT_3D('',#1443,#1112,#1113);
#946=AXIS2_PLACEMENT_3D('',#1444,#1114,#1115);
#947=AXIS2_PLACEMENT_3D('',#1449,#1118,#1119);
#948=AXIS2_PLACEMENT_3D('',#1452,#1121,#1122);
#949=AXIS2_PLACEMENT_3D('',#1453,#1123,#1124);
#950=AXIS2_PLACEMENT_3D('',#1454,#1125,#1126);
#951=AXIS2_PLACEMENT_3D('',#1456,#1127,#1128);
#952=AXIS2_PLACEMENT_3D('',#1457,#1129,#1130);
#953=AXIS2_PLACEMENT_3D('',#1459,#1131,#1132);
#954=AXIS2_PLACEMENT_3D('',#1460,#1133,#1134);
#955=AXIS2_PLACEMENT_3D('',#1466,#1137,#1138);
#956=AXIS2_PLACEMENT_3D('',#1470,#1141,#1142);
#957=AXIS2_PLACEMENT_3D('',#1471,#1143,#1144);
#958=AXIS2_PLACEMENT_3D('',#1479,#1148,#1149);
#959=AXIS2_PLACEMENT_3D('',#1480,#1150,#1151);
#960=AXIS2_PLACEMENT_3D('',#1481,#1152,#1153);
#961=AXIS2_PLACEMENT_3D('',#1482,#1154,#1155);
#962=AXIS2_PLACEMENT_3D('',#1483,#1156,#1157);
#963=AXIS2_PLACEMENT_3D('',#1484,#1158,#1159);
#964=AXIS2_PLACEMENT_3D('',#1485,#1160,#1161);
#965=AXIS2_PLACEMENT_3D('',#1486,#1162,#1163);
#966=AXIS2_PLACEMENT_3D('',#1488,#1164,#1165);
#967=AXIS2_PLACEMENT_3D('',#1489,#1166,#1167);
#968=AXIS2_PLACEMENT_3D('',#1490,#1168,#1169);
#969=AXIS2_PLACEMENT_3D('',#1491,#1170,#1171);
#970=AXIS2_PLACEMENT_3D('',#1493,#1172,#1173);
#971=AXIS2_PLACEMENT_3D('',#1494,#1174,#1175);
#972=AXIS2_PLACEMENT_3D('',#1495,#1176,#1177);
#973=AXIS2_PLACEMENT_3D('',#1496,#1178,#1179);
#974=AXIS2_PLACEMENT_3D('',#1497,#1180,#1181);
#975=AXIS2_PLACEMENT_3D('',#1498,#1182,#1183);
#976=AXIS2_PLACEMENT_3D('',#1504,#1184,#1185);
#977=AXIS2_PLACEMENT_3D('',#1505,#1186,#1187);
#978=AXIS2_PLACEMENT_3D('',#1506,#1188,#1189);
#979=AXIS2_PLACEMENT_3D('',#1507,#1190,#1191);
#980=AXIS2_PLACEMENT_3D('',#1508,#1192,#1193);
#981=AXIS2_PLACEMENT_3D('',#1509,#1194,#1195);
#982=AXIS2_PLACEMENT_3D('',#1510,#1196,#1197);
#983=AXIS2_PLACEMENT_3D('',#1511,#1198,#1199);
#984=AXIS2_PLACEMENT_3D('',#1542,#1200,#1201);
#985=AXIS2_PLACEMENT_3D('',#1543,#1202,#1203);
#986=AXIS2_PLACEMENT_3D('',#1544,#1204,#1205);
#987=AXIS2_PLACEMENT_3D('',#1545,#1206,#1207);
#988=AXIS2_PLACEMENT_3D('',#1546,#1208,#1209);
#989=AXIS2_PLACEMENT_3D('',#1547,#1210,#1211);
#990=AXIS2_PLACEMENT_3D('',#1548,#1212,#1213);
#991=AXIS2_PLACEMENT_3D('',#1549,#1214,#1215);
#992=AXIS2_PLACEMENT_3D('',#1555,#1216,#1217);
#993=AXIS2_PLACEMENT_3D('',#1556,#1218,#1219);
#994=AXIS2_PLACEMENT_3D('',#1557,#1220,#1221);
#995=AXIS2_PLACEMENT_3D('',#1558,#1222,#1223);
#996=AXIS2_PLACEMENT_3D('',#1559,#1224,#1225);
#997=AXIS2_PLACEMENT_3D('',#1560,#1226,#1227);
#998=AXIS2_PLACEMENT_3D('',#1569,#1232,#1233);
#999=AXIS2_PLACEMENT_3D('',#1570,#1234,#1235);
#1000=AXIS2_PLACEMENT_3D('',#1574,#1237,#1238);
#1001=AXIS2_PLACEMENT_3D('',#1575,#1239,#1240);
#1002=AXIS2_PLACEMENT_3D('',#1581,#1244,#1245);
#1003=AXIS2_PLACEMENT_3D('',#1582,#1246,#1247);
#1004=AXIS2_PLACEMENT_3D('',#1586,#1249,#1250);
#1005=AXIS2_PLACEMENT_3D('',#1587,#1251,#1252);
#1006=AXIS2_PLACEMENT_3D('',#1593,#1256,#1257);
#1007=AXIS2_PLACEMENT_3D('',#1594,#1258,#1259);
#1008=AXIS2_PLACEMENT_3D('',#1598,#1261,#1262);
#1009=AXIS2_PLACEMENT_3D('',#1599,#1263,#1264);
#1010=AXIS2_PLACEMENT_3D('',#1605,#1268,#1269);
#1011=AXIS2_PLACEMENT_3D('',#1606,#1270,#1271);
#1012=AXIS2_PLACEMENT_3D('',#1608,#1272,#1273);
#1013=AXIS2_PLACEMENT_3D('',#1610,#1274,#1275);
#1014=AXIS2_PLACEMENT_3D('',#1611,#1276,#1277);
#1015=AXIS2_PLACEMENT_3D('',#1613,#1278,#1279);
#1016=AXIS2_PLACEMENT_3D('',#1615,#1280,#1281);
#1017=AXIS2_PLACEMENT_3D('',#1616,#1282,#1283);
#1018=AXIS2_PLACEMENT_3D('',#1617,#1284,#1285);
#1019=AXIS2_PLACEMENT_3D('',#1618,#1286,#1287);
#1020=AXIS2_PLACEMENT_3D('',#1628,#1293,#1294);
#1021=AXIS2_PLACEMENT_3D('',#1629,#1295,#1296);
#1022=AXIS2_PLACEMENT_3D('',#1630,#1297,#1298);
#1023=AXIS2_PLACEMENT_3D('',#1631,#1299,#1300);
#1024=AXIS2_PLACEMENT_3D('',#1632,#1301,#1302);
#1025=AXIS2_PLACEMENT_3D('',#1633,#1303,#1304);
#1026=AXIS2_PLACEMENT_3D('',#1634,#1305,#1306);
#1027=AXIS2_PLACEMENT_3D('',#1635,#1307,#1308);
#1028=AXIS2_PLACEMENT_3D('',#1636,#1309,#1310);
#1029=AXIS2_PLACEMENT_3D('',#1637,#1311,#1312);
#1030=AXIS2_PLACEMENT_3D('',#1638,#1313,#1314);
#1031=AXIS2_PLACEMENT_3D('',#1639,#1315,#1316);
#1032=AXIS2_PLACEMENT_3D('',#1640,#1317,#1318);
#1033=AXIS2_PLACEMENT_3D('',#1641,#1319,#1320);
#1034=AXIS2_PLACEMENT_3D('',#1642,#1321,#1322);
#1035=AXIS2_PLACEMENT_3D('',#1643,#1323,#1324);
#1036=AXIS2_PLACEMENT_3D('',#1644,#1325,#1326);
#1037=DIRECTION('',(0.,0.,1.));
#1038=DIRECTION('',(1.,0.,0.));
#1039=DIRECTION('',(0.,0.,-1.));
#1040=DIRECTION('',(1.,0.,0.));
#1041=DIRECTION('',(0.,1.,0.));
#1042=DIRECTION('',(-1.,0.,0.));
#1043=DIRECTION('',(0.,1.,0.));
#1044=DIRECTION('',(-1.,0.,0.));
#1045=DIRECTION('',(1.,0.,0.));
#1046=DIRECTION('',(0.,0.,-1.));
#1047=DIRECTION('',(0.,0.25881904510252,-0.965925826289069));
#1048=DIRECTION('',(1.,0.,0.));
#1049=DIRECTION('',(0.,0.,-1.));
#1050=DIRECTION('',(0.,0.,-1.));
#1051=DIRECTION('',(0.,1.,0.));
#1052=DIRECTION('',(0.,1.,0.));
#1053=DIRECTION('',(0.,0.,1.));
#1054=DIRECTION('',(0.,1.,0.));
#1055=DIRECTION('',(1.,0.,0.));
#1056=DIRECTION('',(0.,0.,-1.));
#1057=DIRECTION('',(1.,0.,0.));
#1058=DIRECTION('',(0.,0.,-1.));
#1059=DIRECTION('',(0.,0.25881904510252,-0.965925826289069));
#1060=DIRECTION('',(0.,1.,0.));
#1061=DIRECTION('',(0.,0.,1.));
#1062=DIRECTION('',(0.,1.,0.));
#1063=DIRECTION('',(0.,1.,0.));
#1064=DIRECTION('',(0.,0.,1.));
#1065=DIRECTION('',(0.,1.,0.));
#1066=DIRECTION('',(0.,0.,1.));
#1067=DIRECTION('',(0.,-0.965925826289069,-0.25881904510252));
#1068=DIRECTION('',(0.,0.25881904510252,-0.965925826289069));
#1069=DIRECTION('',(0.,1.,0.));
#1070=DIRECTION('',(0.,0.,1.));
#1071=DIRECTION('',(0.,-1.,0.));
#1072=DIRECTION('',(0.,0.,-1.));
#1073=DIRECTION('',(0.,-0.965925826289069,-0.25881904510252));
#1074=DIRECTION('',(0.,-0.25881904510252,0.965925826289069));
#1075=DIRECTION('',(0.,-1.,0.));
#1076=DIRECTION('',(0.,0.,-1.));
#1077=DIRECTION('',(-1.,0.,0.));
#1078=DIRECTION('',(0.,0.,1.));
#1079=DIRECTION('',(-1.,0.,0.));
#1080=DIRECTION('',(-1.,0.,0.));
#1081=DIRECTION('',(0.,0.,-1.));
#1082=DIRECTION('',(-1.,0.,0.));
#1083=DIRECTION('',(-1.,0.,0.));
#1084=DIRECTION('',(-0.999999864261989,-0.000521033592046269,0.));
#1085=DIRECTION('',(0.999999864261989,-0.00052103359204627,0.));
#1086=DIRECTION('',(0.,0.,-1.));
#1087=DIRECTION('',(1.,0.,0.));
#1088=DIRECTION('',(0.,0.,1.));
#1089=DIRECTION('',(-1.,0.,0.));
#1090=DIRECTION('',(0.,0.,-1.));
#1091=DIRECTION('',(-1.,0.,0.));
#1092=DIRECTION('',(-0.999999864261989,-0.000521033592046269,0.));
#1093=DIRECTION('',(0.,1.,0.));
#1094=DIRECTION('',(1.,-3.96508223080413E-16,0.));
#1095=DIRECTION('',(0.,0.,-1.));
#1096=DIRECTION('',(1.,0.,0.));
#1097=DIRECTION('',(0.,1.,0.));
#1098=DIRECTION('',(0.999999864261989,-0.00052103359204627,0.));
#1099=DIRECTION('',(0.,0.,-1.));
#1100=DIRECTION('',(-1.,0.,0.));
#1101=DIRECTION('',(1.,-3.96508223080413E-16,0.));
#1102=DIRECTION('',(0.,0.,-1.));
#1103=DIRECTION('',(-1.,0.,0.));
#1104=DIRECTION('',(-3.96508223080413E-16,-1.,0.));
#1105=DIRECTION('',(1.,-3.96508223080413E-16,0.));
#1106=DIRECTION('',(1.,-3.96508223080413E-16,0.));
#1107=DIRECTION('',(-3.96508223080413E-16,-1.,0.));
#1108=DIRECTION('',(1.,-3.96508223080413E-16,0.));
#1109=DIRECTION('',(-1.,0.,0.));
#1110=DIRECTION('',(-3.96508223080413E-16,-1.,0.));
#1111=DIRECTION('',(1.,-3.96508223080413E-16,0.));
#1112=DIRECTION('',(-0.000521033592046269,0.999999864261989,0.));
#1113=DIRECTION('',(-0.999999864261989,-0.000521033592046269,0.));
#1114=DIRECTION('',(-0.000521033592046269,0.999999864261989,0.));
#1115=DIRECTION('',(-0.999999864261989,-0.000521033592046269,0.));
#1116=DIRECTION('',(-0.999999864261989,-0.000521033592046269,0.));
#1117=DIRECTION('',(0.,0.,1.));
#1118=DIRECTION('',(-0.00052103359204627,-0.999999864261989,0.));
#1119=DIRECTION('',(0.999999864261989,-0.00052103359204627,0.));
#1120=DIRECTION('',(0.999999864261989,-0.00052103359204627,0.));
#1121=DIRECTION('',(-0.00052103359204627,-0.999999864261989,0.));
#1122=DIRECTION('',(-0.999999864261989,0.00052103359204627,0.));
#1123=DIRECTION('',(0.,0.,1.));
#1124=DIRECTION('',(1.,0.,0.));
#1125=DIRECTION('',(0.,0.,-1.));
#1126=DIRECTION('',(-1.,0.,0.));
#1127=DIRECTION('',(0.,0.,1.));
#1128=DIRECTION('',(1.,0.,0.));
#1129=DIRECTION('',(0.,0.,1.));
#1130=DIRECTION('',(-1.,0.,0.));
#1131=DIRECTION('',(0.,0.,-1.));
#1132=DIRECTION('',(1.,0.,0.));
#1133=DIRECTION('',(0.,0.,-1.));
#1134=DIRECTION('',(-1.,0.,0.));
#1135=DIRECTION('',(0.999999864261989,-0.00052103359204627,0.));
#1136=DIRECTION('',(-0.999999864261989,-0.000521033592046269,0.));
#1137=DIRECTION('',(0.,0.,1.));
#1138=DIRECTION('',(-1.,0.,0.));
#1139=DIRECTION('',(1.,-3.96508223080413E-16,0.));
#1140=DIRECTION('',(1.,-3.96508223080413E-16,0.));
#1141=DIRECTION('',(0.,1.,0.));
#1142=DIRECTION('',(0.,0.,1.));
#1143=DIRECTION('',(0.,1.,0.));
#1144=DIRECTION('',(0.,0.,1.));
#1145=DIRECTION('',(0.,0.,1.));
#1146=DIRECTION('',(-1.,0.,0.));
#1147=DIRECTION('',(0.,0.,1.));
#1148=DIRECTION('',(0.,1.,0.));
#1149=DIRECTION('',(0.,0.,1.));
#1150=DIRECTION('',(0.,1.,0.));
#1151=DIRECTION('',(0.,0.,1.));
#1152=DIRECTION('',(-1.,0.,0.));
#1153=DIRECTION('',(0.,0.,1.));
#1154=DIRECTION('',(-1.,0.,0.));
#1155=DIRECTION('',(0.,0.,1.));
#1156=DIRECTION('',(-1.,0.,0.));
#1157=DIRECTION('',(0.,0.,1.));
#1158=DIRECTION('',(0.,-1.,0.));
#1159=DIRECTION('',(0.,0.,-1.));
#1160=DIRECTION('',(0.00104206675974757,-0.999999457048287,0.));
#1161=DIRECTION('',(-0.999999457048287,-0.00104206675974757,0.));
#1162=DIRECTION('',(0.,1.,0.));
#1163=DIRECTION('',(0.,0.,1.));
#1164=DIRECTION('',(-3.96508223080413E-16,-1.,0.));
#1165=DIRECTION('',(1.,-3.96508223080413E-16,0.));
#1166=DIRECTION('',(0.,1.,0.));
#1167=DIRECTION('',(0.,0.,1.));
#1168=DIRECTION('',(0.00104206675974757,0.999999457048287,0.));
#1169=DIRECTION('',(-0.999999457048287,0.00104206675974757,0.));
#1170=DIRECTION('',(-3.96508223080413E-16,-1.,0.));
#1171=DIRECTION('',(1.,-3.96508223080413E-16,0.));
#1172=DIRECTION('',(0.,1.,0.));
#1173=DIRECTION('',(0.,0.,1.));
#1174=DIRECTION('',(1.,0.,0.));
#1175=DIRECTION('',(0.,0.,-1.));
#1176=DIRECTION('',(0.,0.,1.));
#1177=DIRECTION('',(1.,0.,0.));
#1178=DIRECTION('',(0.,0.,1.));
#1179=DIRECTION('',(1.,0.,0.));
#1180=DIRECTION('',(0.,0.,1.));
#1181=DIRECTION('',(1.,0.,0.));
#1182=DIRECTION('',(0.,1.,0.));
#1183=DIRECTION('',(0.,0.,1.));
#1184=DIRECTION('',(-3.96508223080413E-16,-1.,0.));
#1185=DIRECTION('',(1.,-3.96508223080413E-16,0.));
#1186=DIRECTION('',(1.,0.,0.));
#1187=DIRECTION('',(0.,0.,-1.));
#1188=DIRECTION('',(-1.,3.96508223080413E-16,0.));
#1189=DIRECTION('',(-3.96508223080413E-16,-1.,0.));
#1190=DIRECTION('',(1.,0.,0.));
#1191=DIRECTION('',(0.,0.,-1.));
#1192=DIRECTION('',(0.,0.,-1.));
#1193=DIRECTION('',(-1.,0.,0.));
#1194=DIRECTION('',(-0.999999864262142,-0.000521033297066778,0.));
#1195=DIRECTION('',(0.000521033297066778,-0.999999864262142,0.));
#1196=DIRECTION('',(0.999999864261989,0.000521033592046269,0.));
#1197=DIRECTION('',(-0.000521033592046269,0.999999864261989,0.));
#1198=DIRECTION('',(-0.999999864261989,-0.00052103359204646,0.));
#1199=DIRECTION('',(0.00052103359204646,-0.999999864261989,0.));
#1200=DIRECTION('',(-0.999999864261989,0.00052103359204646,0.));
#1201=DIRECTION('',(-0.00052103359204646,-0.999999864261989,0.));
#1202=DIRECTION('',(0.999999864261989,-0.00052103359204627,0.));
#1203=DIRECTION('',(0.00052103359204627,0.999999864261989,0.));
#1204=DIRECTION('',(-0.999999864261989,0.000521033592045094,0.));
#1205=DIRECTION('',(-0.000521033592045094,-0.999999864261989,0.));
#1206=DIRECTION('',(0.,0.,-1.));
#1207=DIRECTION('',(-1.,0.,0.));
#1208=DIRECTION('',(1.,0.,0.));
#1209=DIRECTION('',(0.,0.,-1.));
#1210=DIRECTION('',(-1.,3.96508223080413E-16,0.));
#1211=DIRECTION('',(-3.96508223080413E-16,-1.,0.));
#1212=DIRECTION('',(1.,0.,0.));
#1213=DIRECTION('',(0.,0.,-1.));
#1214=DIRECTION('',(-3.96508223080413E-16,-1.,0.));
#1215=DIRECTION('',(1.,-3.96508223080413E-16,0.));
#1216=DIRECTION('',(0.,1.,0.));
#1217=DIRECTION('',(0.,0.,1.));
#1218=DIRECTION('',(0.,0.,-1.));
#1219=DIRECTION('',(-1.,0.,0.));
#1220=DIRECTION('',(0.,0.,-1.));
#1221=DIRECTION('',(-1.,0.,0.));
#1222=DIRECTION('',(0.,0.,-1.));
#1223=DIRECTION('',(-1.,0.,0.));
#1224=DIRECTION('',(1.,0.,0.));
#1225=DIRECTION('',(0.,0.,-1.));
#1226=DIRECTION('',(1.,0.,0.));
#1227=DIRECTION('',(0.,0.,-1.));
#1228=DIRECTION('',(0.,-0.965925826289069,-0.25881904510252));
#1229=DIRECTION('',(0.,-0.25881904510252,0.965925826289069));
#1230=DIRECTION('',(0.,-0.965925826289069,-0.25881904510252));
#1231=DIRECTION('',(0.,-0.25881904510252,0.965925826289069));
#1232=DIRECTION('',(0.,-0.965925826289069,-0.25881904510252));
#1233=DIRECTION('',(0.,0.25881904510252,-0.965925826289069));
#1234=DIRECTION('',(0.,-0.965925826289069,-0.25881904510252));
#1235=DIRECTION('',(0.,0.25881904510252,-0.965925826289069));
#1236=DIRECTION('',(0.,-0.965925826289069,-0.25881904510252));
#1237=DIRECTION('',(0.,-0.965925826289069,-0.25881904510252));
#1238=DIRECTION('',(0.,0.25881904510252,-0.965925826289069));
#1239=DIRECTION('',(0.,-0.25881904510252,0.965925826289069));
#1240=DIRECTION('',(0.,-0.965925826289069,-0.25881904510252));
#1241=DIRECTION('',(-1.,0.,0.));
#1242=DIRECTION('',(0.,-0.965925826289069,-0.25881904510252));
#1243=DIRECTION('',(-1.,0.,0.));
#1244=DIRECTION('',(0.,-0.965925826289069,-0.25881904510252));
#1245=DIRECTION('',(0.,0.25881904510252,-0.965925826289069));
#1246=DIRECTION('',(0.,-0.965925826289069,-0.25881904510252));
#1247=DIRECTION('',(0.,0.25881904510252,-0.965925826289069));
#1248=DIRECTION('',(0.,-0.965925826289069,-0.25881904510252));
#1249=DIRECTION('',(0.,-0.965925826289069,-0.25881904510252));
#1250=DIRECTION('',(0.,0.25881904510252,-0.965925826289069));
#1251=DIRECTION('',(-1.,0.,0.));
#1252=DIRECTION('',(0.,0.,1.));
#1253=DIRECTION('',(0.,0.25881904510252,-0.965925826289069));
#1254=DIRECTION('',(0.,-0.965925826289069,-0.25881904510252));
#1255=DIRECTION('',(0.,0.25881904510252,-0.965925826289069));
#1256=DIRECTION('',(0.,-0.965925826289069,-0.25881904510252));
#1257=DIRECTION('',(0.,0.25881904510252,-0.965925826289069));
#1258=DIRECTION('',(0.,-0.965925826289069,-0.25881904510252));
#1259=DIRECTION('',(0.,0.25881904510252,-0.965925826289069));
#1260=DIRECTION('',(0.,-0.965925826289069,-0.25881904510252));
#1261=DIRECTION('',(0.,-0.965925826289069,-0.25881904510252));
#1262=DIRECTION('',(0.,0.25881904510252,-0.965925826289069));
#1263=DIRECTION('',(0.,-0.25881904510252,0.965925826289069));
#1264=DIRECTION('',(0.,-0.965925826289069,-0.25881904510252));
#1265=DIRECTION('',(-1.,0.,0.));
#1266=DIRECTION('',(0.,-0.965925826289069,-0.25881904510252));
#1267=DIRECTION('',(-1.,0.,0.));
#1268=DIRECTION('',(0.,-0.965925826289069,-0.25881904510252));
#1269=DIRECTION('',(0.,0.25881904510252,-0.965925826289069));
#1270=DIRECTION('',(0.,-0.965925826289069,-0.25881904510252));
#1271=DIRECTION('',(0.,0.25881904510252,-0.965925826289069));
#1272=DIRECTION('',(0.,-0.965925826289069,-0.25881904510252));
#1273=DIRECTION('',(0.,0.25881904510252,-0.965925826289069));
#1274=DIRECTION('',(0.,-0.965925826289069,-0.25881904510252));
#1275=DIRECTION('',(0.,0.25881904510252,-0.965925826289069));
#1276=DIRECTION('',(0.,-0.965925826289069,-0.25881904510252));
#1277=DIRECTION('',(0.,0.25881904510252,-0.965925826289069));
#1278=DIRECTION('',(0.,-0.965925826289069,-0.25881904510252));
#1279=DIRECTION('',(0.,0.25881904510252,-0.965925826289069));
#1280=DIRECTION('',(0.,-0.965925826289069,-0.25881904510252));
#1281=DIRECTION('',(0.,0.25881904510252,-0.965925826289069));
#1282=DIRECTION('',(0.,-0.965925826289069,-0.25881904510252));
#1283=DIRECTION('',(0.,0.25881904510252,-0.965925826289069));
#1284=DIRECTION('',(0.,-0.965925826289069,-0.25881904510252));
#1285=DIRECTION('',(0.,0.25881904510252,-0.965925826289069));
#1286=DIRECTION('',(0.,-0.965925826289069,-0.25881904510252));
#1287=DIRECTION('',(1.,0.,0.));
#1288=DIRECTION('',(0.,-0.25881904510252,0.965925826289069));
#1289=DIRECTION('',(-1.,0.,0.));
#1290=DIRECTION('',(-1.,0.,0.));
#1291=DIRECTION('',(0.,0.25881904510252,-0.965925826289069));
#1292=DIRECTION('',(-1.,0.,0.));
#1293=DIRECTION('',(0.,0.965925826289069,0.25881904510252));
#1294=DIRECTION('',(0.,-0.25881904510252,0.965925826289069));
#1295=DIRECTION('',(0.,-0.965925826289069,-0.25881904510252));
#1296=DIRECTION('',(0.,0.25881904510252,-0.965925826289069));
#1297=DIRECTION('',(0.,-0.258819045102518,0.965925826289069));
#1298=DIRECTION('',(0.,-0.965925826289069,-0.258819045102518));
#1299=DIRECTION('',(1.,0.,0.));
#1300=DIRECTION('',(0.,0.,-1.));
#1301=DIRECTION('',(-1.,0.,0.));
#1302=DIRECTION('',(0.,0.,1.));
#1303=DIRECTION('',(1.,0.,0.));
#1304=DIRECTION('',(0.,0.,-1.));
#1305=DIRECTION('',(0.,-0.25881904510252,0.965925826289069));
#1306=DIRECTION('',(0.,-0.965925826289069,-0.25881904510252));
#1307=DIRECTION('',(-8.79587510192098E-15,-0.258819045102518,0.965925826289069));
#1308=DIRECTION('',(0.,-0.965925826289069,-0.258819045102518));
#1309=DIRECTION('',(0.,-0.965925826289069,-0.25881904510252));
#1310=DIRECTION('',(0.,0.25881904510252,-0.965925826289069));
#1311=DIRECTION('',(4.39793755096049E-15,-0.258819045102518,0.965925826289069));
#1312=DIRECTION('',(0.,-0.965925826289069,-0.258819045102518));
#1313=DIRECTION('',(0.,-0.965925826289069,-0.25881904510252));
#1314=DIRECTION('',(0.,0.25881904510252,-0.965925826289069));
#1315=DIRECTION('',(1.,1.86190962792494E-13,-6.9487413305176E-13));
#1316=DIRECTION('',(-6.9487413305176E-13,0.,-1.));
#1317=DIRECTION('',(0.,0.25881904510252,-0.965925826289069));
#1318=DIRECTION('',(0.,0.965925826289069,0.25881904510252));
#1319=DIRECTION('',(0.,-0.258819045102472,0.965925826289082));
#1320=DIRECTION('',(0.,-0.965925826289082,-0.258819045102472));
#1321=DIRECTION('',(1.,0.,0.));
#1322=DIRECTION('',(0.,0.,-1.));
#1323=DIRECTION('',(1.,1.90904658053061E-13,-7.12465883255593E-13));
#1324=DIRECTION('',(-7.12465883255593E-13,0.,-1.));
#1325=DIRECTION('',(0.,-0.965925826289069,-0.25881904510252));
#1326=DIRECTION('',(0.,0.25881904510252,-0.965925826289069));
#1327=CARTESIAN_POINT('',(0.,0.,0.));
#1328=CARTESIAN_POINT('',(0.,-0.125009118089098,0.01976));
#1329=CARTESIAN_POINT('',(0.01651,-0.125009118089098,0.01976));
#1330=CARTESIAN_POINT('',(0.01651,-0.122572925691276,0.01976));
#1331=CARTESIAN_POINT('',(0.01651,-0.130104069015044,0.01976));
#1332=CARTESIAN_POINT('',(0.01651,-0.130104069015044,0.01976));
#1333=CARTESIAN_POINT('',(-0.01651,-0.130104069015044,0.01976));
#1334=CARTESIAN_POINT('',(-0.01651,-0.122572925691276,0.01976));
#1335=CARTESIAN_POINT('',(-0.01651,-0.122572925691276,0.01976));
#1336=CARTESIAN_POINT('',(0.,-0.122572925691276,0.01976));
#1337=CARTESIAN_POINT('',(-0.01905,-0.125009118089098,0.01976));
#1338=CARTESIAN_POINT('',(-0.01905,-0.129526569799375,0.0185495524623849));
#1339=CARTESIAN_POINT('',(-0.01905,-0.131609280963825,0.0263223363456055));
#1340=CARTESIAN_POINT('',(-0.01905,-0.130531499188334,0.0223));
#1341=CARTESIAN_POINT('',(-0.01905,-0.132627815046554,0.0286491771915423));
#1342=CARTESIAN_POINT('',(-0.01905,-0.130087815046554,0.0286491771915423));
#1343=CARTESIAN_POINT('',(-0.01905,-0.130087815046554,0.0292845885957712));
#1344=CARTESIAN_POINT('',(-0.01905,-0.130087815046554,0.03246));
#1345=CARTESIAN_POINT('',(-0.01905,-0.140145310486921,0.03246));
#1346=CARTESIAN_POINT('',(-0.01905,-0.129504440769514,0.03246));
#1347=CARTESIAN_POINT('',(-0.01905,-0.129504440769514,0.03246));
#1348=CARTESIAN_POINT('',(-0.01905,-0.129002217025296,0.0314766218718408));
#1349=CARTESIAN_POINT('',(-0.01905,-0.128217150359565,0.0306905194353013));
#1350=CARTESIAN_POINT('',(-0.01905,-0.12744663356765,0.02992));
#1351=CARTESIAN_POINT('',(-0.01905,-0.12744663356765,0.02992));
#1352=CARTESIAN_POINT('',(-0.01905,-0.125009118089098,0.02992));
#1353=CARTESIAN_POINT('',(-0.01905,-0.122572925691276,0.02992));
#1354=CARTESIAN_POINT('',(-0.01905,-0.122572925691276,0.0223));
#1355=CARTESIAN_POINT('',(-0.01905,-0.122572925691276,0.0223));
#1356=CARTESIAN_POINT('',(-0.01905,-0.133795310486921,0.0223));
#1357=CARTESIAN_POINT('',(0.01905,-0.125009118089098,0.01976));
#1358=CARTESIAN_POINT('',(0.01905,-0.132627815046554,0.0286491771915423));
#1359=CARTESIAN_POINT('',(0.01905,-0.130087815046554,0.0286491771915423));
#1360=CARTESIAN_POINT('',(0.01905,-0.131609280963825,0.0263223363456055));
#1361=CARTESIAN_POINT('',(0.01905,-0.129526569799375,0.0185495524623849));
#1362=CARTESIAN_POINT('',(0.01905,-0.130531499188334,0.0223));
#1363=CARTESIAN_POINT('',(0.01905,-0.125009118089098,0.0223));
#1364=CARTESIAN_POINT('',(0.01905,-0.122572925691276,0.0223));
#1365=CARTESIAN_POINT('',(0.01905,-0.122572925691276,0.01976));
#1366=CARTESIAN_POINT('',(0.01905,-0.122572925691276,0.02992));
#1367=CARTESIAN_POINT('',(0.01905,-0.129985310486921,0.02992));
#1368=CARTESIAN_POINT('',(0.01905,-0.12744663356765,0.02992));
#1369=CARTESIAN_POINT('',(0.01905,-0.129504440769514,0.03246));
#1370=CARTESIAN_POINT('',(0.01905,-0.129002217025296,0.0314766218718408));
#1371=CARTESIAN_POINT('',(0.01905,-0.128217150359565,0.0306905194353013));
#1372=CARTESIAN_POINT('',(0.01905,-0.12744663356765,0.02992));
#1373=CARTESIAN_POINT('',(0.0190499999981844,-0.129504440769514,0.03246));
#1374=CARTESIAN_POINT('',(0.0190499999981844,-0.140145310486922,0.03246));
#1375=CARTESIAN_POINT('',(0.01905,-0.130087815046554,0.03246));
#1376=CARTESIAN_POINT('',(0.01905,-0.130087815046554,0.01976));
#1377=CARTESIAN_POINT('',(0.01651,-0.125009118089098,0.0223));
#1378=CARTESIAN_POINT('',(0.01651,-0.130531499188334,0.0223));
#1379=CARTESIAN_POINT('',(0.01815374093629,-0.130012637475435,0.0203635817253588));
#1380=CARTESIAN_POINT('',(0.01815374093629,-0.130012637475435,0.0203635817253588));
#1381=CARTESIAN_POINT('',(0.0176991380590772,-0.129909237882011,0.0199776891892184));
#1382=CARTESIAN_POINT('',(0.0171123391216597,-0.130104069015048,0.0197600000000001));
#1383=CARTESIAN_POINT('',(0.0165100000000004,-0.130104069015048,0.01976));
#1384=CARTESIAN_POINT('',(0.01651,-0.122572925691276,0.0223));
#1385=CARTESIAN_POINT('',(-0.01651,-0.125009118089098,0.0223));
#1386=CARTESIAN_POINT('',(-0.01651,-0.130104069015044,0.01976));
#1387=CARTESIAN_POINT('',(-0.0168116138723567,-0.130104069015044,0.01976));
#1388=CARTESIAN_POINT('',(-0.0174006341115326,-0.130025869464824,0.0198655128976687));
#1389=CARTESIAN_POINT('',(-0.0179263913913136,-0.129960926736911,0.0201705946218913));
#1390=CARTESIAN_POINT('',(-0.01815374093629,-0.130012637475435,0.0203635817253588));
#1391=CARTESIAN_POINT('',(-0.01815374093629,-0.130012637475435,0.0203635817253588));
#1392=CARTESIAN_POINT('',(-0.01651,-0.130531499188334,0.0223));
#1393=CARTESIAN_POINT('',(-0.01651,-0.122572925691276,0.0223));
#1394=CARTESIAN_POINT('',(0.448824692692671,-0.132627815046554,0.0286491771915423));
#1395=CARTESIAN_POINT('',(0.448824692692671,-0.131609280963825,0.0263223363456055));
#1396=CARTESIAN_POINT('',(0.448824692692671,-0.130087815046554,0.0286491771915423));
#1397=CARTESIAN_POINT('',(3.46944695195361E-18,-0.140145310486921,0.03246));
#1398=CARTESIAN_POINT('',(0.448824692692671,-0.130087815046554,0.03246));
#1399=CARTESIAN_POINT('',(0.01905,-0.129504440769514,0.03246));
#1400=CARTESIAN_POINT('',(0.0184726237028268,-0.1297997395553,0.03246));
#1401=CARTESIAN_POINT('',(0.0178420994636228,-0.129985939843762,0.03246));
#1402=CARTESIAN_POINT('',(0.0171919143740988,-0.129986278612081,0.03246));
#1403=CARTESIAN_POINT('',(0.0171919143740988,-0.129986278612081,0.03246));
#1404=CARTESIAN_POINT('',(0.0175,-0.129986118089098,0.03246));
#1405=CARTESIAN_POINT('',(-2.11355896163629E-18,-0.129995236178197,0.03246));
#1406=CARTESIAN_POINT('',(-0.0175,-0.129986118089098,0.03246));
#1407=CARTESIAN_POINT('',(-0.0171919143740988,-0.129986278612081,0.03246));
#1408=CARTESIAN_POINT('',(-0.0171919143740988,-0.129986278612081,0.03246));
#1409=CARTESIAN_POINT('',(-0.0178434173961967,-0.129985939157075,0.03246));
#1410=CARTESIAN_POINT('',(-0.018471591159444,-0.129800267649038,0.03246));
#1411=CARTESIAN_POINT('',(-0.01905,-0.129504440769513,0.03246));
#1412=CARTESIAN_POINT('',(1.62370117351429E-14,3.13638004456607E-15,0.03246));
#1413=CARTESIAN_POINT('',(0.035,-0.125,0.03246));
#1414=CARTESIAN_POINT('',(0.033325,-0.125,0.03246));
#1415=CARTESIAN_POINT('',(0.035,-0.125,0.03246));
#1416=CARTESIAN_POINT('',(0.035,-0.122563,0.03246));
#1417=CARTESIAN_POINT('',(0.0349986765750586,-0.127436999640654,0.03246));
#1418=CARTESIAN_POINT('',(0.0215886765746762,-0.127443987406192,0.03246));
#1419=CARTESIAN_POINT('',(0.02159,-0.127443986716643,0.03246));
#1420=CARTESIAN_POINT('',(0.02159,-0.120032925691276,0.03246));
#1421=CARTESIAN_POINT('',(0.02159,-0.122563,0.03246));
#1422=CARTESIAN_POINT('',(0.035,-0.122563,0.03246));
#1423=CARTESIAN_POINT('',(1.62370117351429E-14,3.13638004456607E-15,0.03246));
#1424=CARTESIAN_POINT('',(-0.02159,3.13638004456607E-15,0.03246));
#1425=CARTESIAN_POINT('',(-0.02159,-0.122563,0.03246));
#1426=CARTESIAN_POINT('',(-0.02159,-0.127443986716643,0.03246));
#1427=CARTESIAN_POINT('',(-6.64084503210049E-5,-0.127455201232384,0.03246));
#1428=CARTESIAN_POINT('',(-0.0349986765750586,-0.127436999640654,0.03246));
#1429=CARTESIAN_POINT('',(-0.035,-0.125,0.03246));
#1430=CARTESIAN_POINT('',(-0.035,-0.122563,0.03246));
#1431=CARTESIAN_POINT('',(-0.02159,-0.122563,0.03246));
#1432=CARTESIAN_POINT('',(-0.035,-0.125,0.03246));
#1433=CARTESIAN_POINT('',(-0.036675,-0.125,0.03246));
#1434=CARTESIAN_POINT('',(-0.0175,-0.120023,0.03246));
#1435=CARTESIAN_POINT('',(-0.0175,-0.120023,0.035));
#1436=CARTESIAN_POINT('',(-0.02159,-0.120023,0.035));
#1437=CARTESIAN_POINT('',(0.02159,-0.120023,0.035));
#1438=CARTESIAN_POINT('',(0.02159,-0.120023,0.02992));
#1439=CARTESIAN_POINT('',(0.0171905909487751,-0.120027962845638,0.03246));
#1440=CARTESIAN_POINT('',(3.46944695195361E-18,-0.120032925691276,0.03246));
#1441=CARTESIAN_POINT('',(-0.0171905909487751,-0.120027962845638,0.03246));
#1442=CARTESIAN_POINT('',(-0.02159,-0.120023,0.02992));
#1443=CARTESIAN_POINT('',(0.0175,-0.129986118089098,0.03246));
#1444=CARTESIAN_POINT('',(0.0215913234253238,-0.129983986371869,0.02992));
#1445=CARTESIAN_POINT('',(0.0215913234253238,-0.129983986371869,0.035));
#1446=CARTESIAN_POINT('',(0.0175,-0.129986118089098,0.035));
#1447=CARTESIAN_POINT('',(-2.11355896163629E-18,-0.129995236178197,0.035));
#1448=CARTESIAN_POINT('',(-2.11355896163629E-18,-0.129995236178197,0.03246));
#1449=CARTESIAN_POINT('',(-0.0175,-0.129986118089098,0.03246));
#1450=CARTESIAN_POINT('',(-0.0175,-0.129986118089098,0.035));
#1451=CARTESIAN_POINT('',(-0.0215913234253238,-0.129983986371869,0.035));
#1452=CARTESIAN_POINT('',(-0.0215913234253238,-0.129983986371869,0.02992));
#1453=CARTESIAN_POINT('',(-0.035,-0.125,0.03246));
#1454=CARTESIAN_POINT('',(-0.035,-0.125,0.035));
#1455=CARTESIAN_POINT('',(-0.036675,-0.125,0.035));
#1456=CARTESIAN_POINT('',(0.035,-0.125,0.03246));
#1457=CARTESIAN_POINT('',(0.035,-0.125,0.035));
#1458=CARTESIAN_POINT('',(0.033325,-0.125,0.035));
#1459=CARTESIAN_POINT('',(1.62370117351429E-14,3.13638004456607E-15,0.035));
#1460=CARTESIAN_POINT('',(-0.035,-0.125,0.035));
#1461=CARTESIAN_POINT('',(-0.035,-0.129977,0.035));
#1462=CARTESIAN_POINT('',(-0.035,-0.120023,0.035));
#1463=CARTESIAN_POINT('',(-0.0175,-0.129986118089098,0.035));
#1464=CARTESIAN_POINT('',(0.0175,-0.129986118089098,0.035));
#1465=CARTESIAN_POINT('',(0.035,-0.129977,0.035));
#1466=CARTESIAN_POINT('',(0.035,-0.125,0.035));
#1467=CARTESIAN_POINT('',(0.035,-0.120023,0.035));
#1468=CARTESIAN_POINT('',(-0.0175,-0.120023,0.035));
#1469=CARTESIAN_POINT('',(-0.0175,-0.120023,0.035));
#1470=CARTESIAN_POINT('',(3.46944695195361E-18,-0.120032925691276,0.01976));
#1471=CARTESIAN_POINT('',(0.02159,-0.120032925691276,0.02992));
#1472=CARTESIAN_POINT('',(0.01651,-0.120032925691276,0.02992));
#1473=CARTESIAN_POINT('',(0.01651,-0.120032925691276,0.01976));
#1474=CARTESIAN_POINT('',(0.01651,-0.120032925691276,0.0223));
#1475=CARTESIAN_POINT('',(3.46944695195361E-18,-0.120032925691276,0.0223));
#1476=CARTESIAN_POINT('',(-0.01651,-0.120032925691276,0.0223));
#1477=CARTESIAN_POINT('',(-0.01651,-0.120032925691276,0.02992));
#1478=CARTESIAN_POINT('',(-0.01651,-0.120032925691276,0.02992));
#1479=CARTESIAN_POINT('',(-0.02159,-0.120032925691276,0.02992));
#1480=CARTESIAN_POINT('',(0.448824692692671,-0.130087815046554,0.0292845885957712));
#1481=CARTESIAN_POINT('',(3.46944695195361E-18,-0.122572925691276,0.0223));
#1482=CARTESIAN_POINT('',(0.01651,-0.122572925691276,0.0223));
#1483=CARTESIAN_POINT('',(-0.01651,-0.122572925691276,0.0223));
#1484=CARTESIAN_POINT('',(0.02159,3.13638004456607E-15,0.02992));
#1485=CARTESIAN_POINT('',(0.02159,-0.127443986716643,0.02992));
#1486=CARTESIAN_POINT('',(0.02159,-0.122572925691276,0.02992));
#1487=CARTESIAN_POINT('',(0.0193902954743875,-0.122563,0.03119));
#1488=CARTESIAN_POINT('',(0.02159,-0.122563,0.02992));
#1489=CARTESIAN_POINT('',(-0.02159,-0.125009118089098,0.02992));
#1490=CARTESIAN_POINT('',(-0.02159,-0.127443986716643,0.02992));
#1491=CARTESIAN_POINT('',(-0.02159,-0.122563,0.02992));
#1492=CARTESIAN_POINT('',(-0.0193902954743875,-0.122572925691276,0.03119));
#1493=CARTESIAN_POINT('',(-0.02159,-0.122572925691276,0.02992));
#1494=CARTESIAN_POINT('',(0.01651,-0.122572925691276,0.0223));
#1495=CARTESIAN_POINT('',(0.01651,-0.122572925691276,0.0223));
#1496=CARTESIAN_POINT('',(0.01651,-0.122572925691276,0.01976));
#1497=CARTESIAN_POINT('',(0.01651,-0.122572925691276,0.02992));
#1498=CARTESIAN_POINT('',(0.02159,-0.122572925691276,0.02992));
#1499=CARTESIAN_POINT('',(0.0171905909487751,-0.120032925691276,0.03246));
#1500=CARTESIAN_POINT('',(0.0177650396040793,-0.120032925691276,0.0321283419142245));
#1501=CARTESIAN_POINT('',(0.0189094129993062,-0.120580429977274,0.0314676376264368));
#1502=CARTESIAN_POINT('',(0.019388033893241,-0.12189968896877,0.0311913057244838));
#1503=CARTESIAN_POINT('',(0.0193902786792536,-0.122563000075784,0.0311900096966751));
#1504=CARTESIAN_POINT('',(0.02159,-0.122563,0.02992));
#1505=CARTESIAN_POINT('',(0.02159,-0.122563,0.035));
#1506=CARTESIAN_POINT('',(1.61884144977975E-14,-0.122563,0.035));
#1507=CARTESIAN_POINT('',(0.035,-0.122563,0.035));
#1508=CARTESIAN_POINT('',(0.035,-0.125,0.035));
#1509=CARTESIAN_POINT('',(0.0349986765750586,-0.127436999640654,0.035));
#1510=CARTESIAN_POINT('',(6.64084503534789E-5,-0.127455201232384,0.035));
#1511=CARTESIAN_POINT('',(0.02159,-0.127443986716643,0.035));
#1512=CARTESIAN_POINT('',(0.01905,-0.12744663356765,0.02992));
#1513=CARTESIAN_POINT('',(0.01905,-0.129985310486921,0.02992));
#1514=CARTESIAN_POINT('',(0.0165113234253238,-0.129986633222876,0.02992));
#1515=CARTESIAN_POINT('',(0.01905,-0.127446633567632,0.0305849704535998));
#1516=CARTESIAN_POINT('',(0.0190499998721843,-0.129985309614785,0.0305853165399275));
#1517=CARTESIAN_POINT('',(0.0165113234253215,-0.129986633222876,0.0312499409071972));
#1518=CARTESIAN_POINT('',(0.0196003827783709,-0.127446060031764,0.0319096172216278));
#1519=CARTESIAN_POINT('',(0.0196011193497435,-0.129985023771321,0.0319106763140695));
#1520=CARTESIAN_POINT('',(0.0176120889820667,-0.129986059686966,0.033899234443259));
#1521=CARTESIAN_POINT('',(0.0209250295464029,-0.127444679660597,0.03246));
#1522=CARTESIAN_POINT('',(0.0209263981411922,-0.12998433282031,0.0324603464483402));
#1523=CARTESIAN_POINT('',(0.0202613825181297,-0.129984679315851,0.0349999999999954));
#1524=CARTESIAN_POINT('',(0.02159,-0.127443986716643,0.03246));
#1525=CARTESIAN_POINT('',(0.0215913234253238,-0.129983986371869,0.03246));
#1526=CARTESIAN_POINT('',(0.0215913234253238,-0.129983986371869,0.035));
#1527=CARTESIAN_POINT('',(-0.0165115490428103,-0.129986633105321,0.0298721228367596));
#1528=CARTESIAN_POINT('',(-0.0190501129262337,-0.129985310428083,0.0298960489526234));
#1529=CARTESIAN_POINT('',(-0.0190501128087433,-0.127446633450096,0.0298960614183798));
#1530=CARTESIAN_POINT('',(-0.0164989396253575,-0.129986639675252,0.0312099839684775));
#1531=CARTESIAN_POINT('',(-0.0190438016553688,-0.129985313716491,0.0305653273933363));
#1532=CARTESIAN_POINT('',(-0.0190438081000128,-0.127446640020051,0.0305649919842434));
#1533=CARTESIAN_POINT('',(-0.0175884958303535,-0.129986071979792,0.0338852785016597));
#1534=CARTESIAN_POINT('',(-0.0195893136682627,-0.129985029486341,0.0319037034504322));
#1535=CARTESIAN_POINT('',(-0.0195885862025186,-0.127446072324569,0.0319026392508264));
#1536=CARTESIAN_POINT('',(-0.0202534028726825,-0.129984683473515,0.0349999999999954));
#1537=CARTESIAN_POINT('',(-0.0209224088631912,-0.129984334898858,0.0324603485268877));
#1538=CARTESIAN_POINT('',(-0.0209210397236759,-0.127444683818261,0.03246));
#1539=CARTESIAN_POINT('',(-0.0215913234253238,-0.129983986371869,0.035));
#1540=CARTESIAN_POINT('',(-0.0215913234253238,-0.129983986371869,0.03246));
#1541=CARTESIAN_POINT('',(-0.02159,-0.127443986716643,0.03246));
#1542=CARTESIAN_POINT('',(-0.02159,-0.127443986716643,0.035));
#1543=CARTESIAN_POINT('',(-0.0174986765746762,-0.127446118433873,0.035));
#1544=CARTESIAN_POINT('',(-0.0349986765746762,-0.127437000344775,0.035));
#1545=CARTESIAN_POINT('',(-0.035,-0.125,0.035));
#1546=CARTESIAN_POINT('',(-0.035,-0.122563,0.035));
#1547=CARTESIAN_POINT('',(1.61884144977975E-14,-0.122563,0.035));
#1548=CARTESIAN_POINT('',(-0.02159,-0.122563,0.035));
#1549=CARTESIAN_POINT('',(-0.02159,-0.122563,0.02992));
#1550=CARTESIAN_POINT('',(-0.0171905909487751,-0.120023,0.0324600000000001));
#1551=CARTESIAN_POINT('',(-0.0177679048897596,-0.120023,0.0321266876407657));
#1552=CARTESIAN_POINT('',(-0.018917886341955,-0.120576269898172,0.0314627455397776));
#1553=CARTESIAN_POINT('',(-0.0193925346620079,-0.121906305986821,0.0311887072044246));
#1554=CARTESIAN_POINT('',(-0.0193902786792536,-0.122572925615491,0.0311900096966751));
#1555=CARTESIAN_POINT('',(-0.02159,-0.122572925691276,0.02992));
#1556=CARTESIAN_POINT('',(-0.01651,-0.122572925691276,0.02992));
#1557=CARTESIAN_POINT('',(-0.01651,-0.122572925691276,0.01976));
#1558=CARTESIAN_POINT('',(-0.01651,-0.122572925691276,0.0223));
#1559=CARTESIAN_POINT('',(-0.01651,-0.122572925691276,0.0223));
#1560=CARTESIAN_POINT('',(0.04191,-0.130965761539298,0.0239206891576118));
#1561=CARTESIAN_POINT('',(0.04191,-0.130012637475435,0.0203635817253588));
#1562=CARTESIAN_POINT('',(0.04191,-0.130748672955067,0.0201663616129907));
#1563=CARTESIAN_POINT('',(0.04191,-0.133692814873596,0.0193774811635182));
#1564=CARTESIAN_POINT('',(0.04191,-0.132654921082793,0.0272805764774967));
#1565=CARTESIAN_POINT('',(0.04191,-0.132654921082793,0.0272805764774967));
#1566=CARTESIAN_POINT('',(0.04191,-0.131918885603161,0.0274777965898647));
#1567=CARTESIAN_POINT('',(0.04191,-0.135599063001322,0.0264916960280241));
#1568=CARTESIAN_POINT('',(0.04191,-0.134645938937459,0.0229345885957712));
#1569=CARTESIAN_POINT('',(0.041148,-0.131918885603161,0.0274777965898647));
#1570=CARTESIAN_POINT('',(0.041148,-0.132654921082793,0.0272805764774966));
#1571=CARTESIAN_POINT('',(0.0411480000000004,-0.132852141195161,0.0280166119571288));
#1572=CARTESIAN_POINT('',(0.0411480000000004,-0.132116105715529,0.028213832069497));
#1573=CARTESIAN_POINT('',(0.0411480000000004,-0.13579628311369,0.0272277315076564));
#1574=CARTESIAN_POINT('',(0.041148,-0.135599063001322,0.0264916960280241));
#1575=CARTESIAN_POINT('',(4.44089209850063E-16,-0.132116105715529,0.028213832069497));
#1576=CARTESIAN_POINT('',(-0.0411479999999996,-0.132852141195161,0.0280166119571288));
#1577=CARTESIAN_POINT('',(-0.0411479999999996,-0.132852141195161,0.0280166119571289));
#1578=CARTESIAN_POINT('',(-0.0411479999999996,-0.132116105715529,0.028213832069497));
#1579=CARTESIAN_POINT('',(-0.0411479999999996,-0.13579628311369,0.0272277315076564));
#1580=CARTESIAN_POINT('',(4.44089209850063E-16,-0.13579628311369,0.0272277315076564));
#1581=CARTESIAN_POINT('',(-0.041148,-0.131918885603161,0.0274777965898647));
#1582=CARTESIAN_POINT('',(-0.041148,-0.132654921082793,0.0272805764774966));
#1583=CARTESIAN_POINT('',(-0.04191,-0.132654921082793,0.0272805764774967));
#1584=CARTESIAN_POINT('',(-0.04191,-0.131918885603161,0.0274777965898647));
#1585=CARTESIAN_POINT('',(-0.04191,-0.135599063001322,0.0264916960280241));
#1586=CARTESIAN_POINT('',(-0.041148,-0.135599063001322,0.0264916960280241));
#1587=CARTESIAN_POINT('',(-0.04191,-0.130965761539298,0.0239206891576118));
#1588=CARTESIAN_POINT('',(-0.04191,-0.130748672955067,0.0201663616129907));
#1589=CARTESIAN_POINT('',(-0.04191,-0.130748672955067,0.0201663616129907));
#1590=CARTESIAN_POINT('',(-0.04191,-0.130012637475435,0.0203635817253588));
#1591=CARTESIAN_POINT('',(-0.04191,-0.133692814873596,0.0193774811635182));
#1592=CARTESIAN_POINT('',(-0.04191,-0.134645938937459,0.0229345885957712));
#1593=CARTESIAN_POINT('',(-0.041148,-0.130012637475435,0.0203635817253588));
#1594=CARTESIAN_POINT('',(-0.041148,-0.130748672955067,0.0201663616129907));
#1595=CARTESIAN_POINT('',(-0.041148,-0.130551452842699,0.0194303261333584));
#1596=CARTESIAN_POINT('',(-0.041148,-0.129815417363067,0.0196275462457265));
#1597=CARTESIAN_POINT('',(-0.041148,-0.133495594761228,0.0186414456838859));
#1598=CARTESIAN_POINT('',(-0.041148,-0.133692814873596,0.0193774811635182));
#1599=CARTESIAN_POINT('',(-1.04083408558608E-16,-0.129815417363067,0.0196275462457265));
#1600=CARTESIAN_POINT('',(-1.04083408558608E-16,-0.130551452842699,0.0194303261333584));
#1601=CARTESIAN_POINT('',(0.041148,-0.130551452842699,0.0194303261333584));
#1602=CARTESIAN_POINT('',(0.041148,-0.129815417363067,0.0196275462457266));
#1603=CARTESIAN_POINT('',(0.041148,-0.133495594761228,0.018641445683886));
#1604=CARTESIAN_POINT('',(-1.04083408558608E-16,-0.133495594761228,0.0186414456838859));
#1605=CARTESIAN_POINT('',(0.0375000012,-0.130965761539298,0.0239206891576118));
#1606=CARTESIAN_POINT('',(0.0375000012,-0.130965761539298,0.0239206891576118));
#1607=CARTESIAN_POINT('',(0.0375000012,-0.130308361164738,0.0214672375588376));
#1608=CARTESIAN_POINT('',(0.0375000012,-0.134645938937459,0.0229345885957712));
#1609=CARTESIAN_POINT('',(0.0375000012,-0.133988538562899,0.020481136996997));
#1610=CARTESIAN_POINT('',(-0.0375000012,-0.130965761539298,0.0239206891576117));
#1611=CARTESIAN_POINT('',(-0.0375000012,-0.130965761539298,0.0239206891576117));
#1612=CARTESIAN_POINT('',(-0.0375000012,-0.130308361164738,0.0214672375588375));
#1613=CARTESIAN_POINT('',(-0.0375000012,-0.134645938937459,0.0229345885957711));
#1614=CARTESIAN_POINT('',(-0.0375000012,-0.133988538562899,0.0204811369969969));
#1615=CARTESIAN_POINT('',(0.041148,-0.130012637475435,0.0203635817253588));
#1616=CARTESIAN_POINT('',(0.041148,-0.130748672955067,0.0201663616129907));
#1617=CARTESIAN_POINT('',(0.041148,-0.133692814873596,0.0193774811635182));
#1618=CARTESIAN_POINT('',(-1.04083408558608E-16,-0.130965761539298,0.0239206891576117));
#1619=CARTESIAN_POINT('',(0.041148,-0.130012637475435,0.0203635817253588));
#1620=CARTESIAN_POINT('',(0.041148,-0.131918885603161,0.0274777965898647));
#1621=CARTESIAN_POINT('',(0.041148,-0.130012637475435,0.0203635817253588));
#1622=CARTESIAN_POINT('',(-1.04083408558608E-16,-0.130012637475435,0.0203635817253588));
#1623=CARTESIAN_POINT('',(-1.04083408558608E-16,-0.130012637475435,0.0203635817253588));
#1624=CARTESIAN_POINT('',(-0.041148,-0.130012637475435,0.0203635817253588));
#1625=CARTESIAN_POINT('',(-0.041148,-0.131918885603161,0.0274777965898647));
#1626=CARTESIAN_POINT('',(-0.041148,-0.131918885603161,0.0274777965898647));
#1627=CARTESIAN_POINT('',(0.0411480000000004,-0.131918885603161,0.0274777965898647));
#1628=CARTESIAN_POINT('',(0.019052,-0.134645938937459,0.0229345885957712));
#1629=CARTESIAN_POINT('',(-0.041148,-0.130748672955067,0.0201663616129907));
#1630=CARTESIAN_POINT('',(-0.041148,-0.130748672955067,0.0201663616129907));
#1631=CARTESIAN_POINT('',(-0.041148,-0.130748672955067,0.0201663616129907));
#1632=CARTESIAN_POINT('',(-1.04083408558608E-16,-0.130748672955067,0.0201663616129906));
#1633=CARTESIAN_POINT('',(0.041148,-0.130748672955067,0.0201663616129906));
#1634=CARTESIAN_POINT('',(-0.041148,-0.13170179701893,0.0237234690452436));
#1635=CARTESIAN_POINT('',(-0.041148,-0.132654921082793,0.0272805764774967));
#1636=CARTESIAN_POINT('',(0.041148,-0.130748672955067,0.0201663616129907));
#1637=CARTESIAN_POINT('',(0.041148,-0.130748672955067,0.0201663616129907));
#1638=CARTESIAN_POINT('',(-0.041148,-0.132654921082793,0.0272805764774966));
#1639=CARTESIAN_POINT('',(-0.041148,-0.132654921082793,0.0272805764774966));
#1640=CARTESIAN_POINT('',(0.041148,-0.13170179701893,0.0237234690452436));
#1641=CARTESIAN_POINT('',(0.041148,-0.132654921082793,0.0272805764774967));
#1642=CARTESIAN_POINT('',(4.44089209850063E-16,-0.132654921082793,0.0272805764774966));
#1643=CARTESIAN_POINT('',(0.041148,-0.132654921082793,0.0272805764774966));
#1644=CARTESIAN_POINT('',(0.041148,-0.132654921082793,0.0272805764774966));
#1645=MECHANICAL_DESIGN_GEOMETRIC_PRESENTATION_REPRESENTATION('',(#911),
#1646);
#1646=(
GEOMETRIC_REPRESENTATION_CONTEXT(3)
GLOBAL_UNCERTAINTY_ASSIGNED_CONTEXT((#1647))
GLOBAL_UNIT_ASSIGNED_CONTEXT((#1650,#1649,#1648))
REPRESENTATION_CONTEXT('Part 2','TOP_LEVEL_ASSEMBLY_PART')
);
#1647=UNCERTAINTY_MEASURE_WITH_UNIT(LENGTH_MEASURE(2.E-5),#1650,
'DISTANCE_ACCURACY_VALUE','Maximum Tolerance applied to model');
#1648=(
NAMED_UNIT(*)
SI_UNIT($,.STERADIAN.)
SOLID_ANGLE_UNIT()
);
#1649=(
NAMED_UNIT(*)
PLANE_ANGLE_UNIT()
SI_UNIT($,.RADIAN.)
);
#1650=(
LENGTH_UNIT()
NAMED_UNIT(*)
SI_UNIT($,.METRE.)
);
#1651=PRODUCT_DEFINITION_SHAPE('','',#1652);
#1652=PRODUCT_DEFINITION('','',#1654,#1653);
#1653=PRODUCT_DEFINITION_CONTEXT('',#1660,'design');
#1654=PRODUCT_DEFINITION_FORMATION_WITH_SPECIFIED_SOURCE('','',#1656,
 .NOT_KNOWN.);
#1655=PRODUCT_RELATED_PRODUCT_CATEGORY('','',(#1656));
#1656=PRODUCT('Part 2','Part 2','Part 2',(#1658));
#1657=PRODUCT_CATEGORY('','');
#1658=PRODUCT_CONTEXT('',#1660,'mechanical');
#1659=APPLICATION_PROTOCOL_DEFINITION('international standard',
'ap242_managed_model_based_3d_engineering',2020,#1660);
#1660=APPLICATION_CONTEXT('managed model based 3d engineering');
ENDSEC;
END-ISO-10303-21;
