ISO-10303-21;
HEADER;
/* Generated by software containing ST-Developer
 * from STEP Tools, Inc. (www.steptools.com) 
 */
/* OPTION: using custom renumber hook */

FILE_DESCRIPTION(
/* description */ ('STEP AP242 Edition 2',
'CAx-IF Rec.Pracs.---Representation and Presentation of Product Manufa
cturing Information (PMI)---4.0---2014-10-13',
'CAx-IF Rec.Pracs.---3D Tessellated Geometry---0.4---2014-09-14','2;1',
'CAx-IF Rec.Pracs.---User Defined Attributes---1.5---2016-08-15'),
/* implementation_level */ '2;1');

FILE_NAME(
/* name */ 'DEXI-5 Oka D Lite Mount Forward - Part 2',
/* time_stamp */ '2026-05-07T17:03:30Z',
/* author */ (''),
/* organization */ (''),
/* preprocessor_version */ 'ST-DEVELOPER v20',
/* originating_system */ 'ONSHAPE BY PTC INC, 1.214',
/* authorisation */ '  ');

FILE_SCHEMA (('AP242_MANAGED_MODEL_BASED_3D_ENGINEERING_MIM_LF { 1 0 10303 442 3 1 4 }'));
ENDSEC;

DATA;
#10=SHAPE_REPRESENTATION_RELATIONSHIP('','',#1040,#11);
#11=ADVANCED_BREP_SHAPE_REPRESENTATION('',(#1038),#1899);
#12=PLANE('',#1126);
#13=PLANE('',#1127);
#14=PLANE('',#1136);
#15=PLANE('',#1137);
#16=PLANE('',#1140);
#17=PLANE('',#1141);
#18=PLANE('',#1142);
#19=PLANE('',#1143);
#20=PLANE('',#1150);
#21=PLANE('',#1151);
#22=PLANE('',#1152);
#23=PLANE('',#1153);
#24=PLANE('',#1154);
#25=PLANE('',#1155);
#26=PLANE('',#1156);
#27=PLANE('',#1157);
#28=PLANE('',#1158);
#29=PLANE('',#1159);
#30=PLANE('',#1160);
#31=(
BOUNDED_SURFACE()
B_SPLINE_SURFACE(3,2,((#1700,#1701,#1702),(#1703,#1704,#1705),(#1706,#1707,
#1708),(#1709,#1710,#1711),(#1712,#1713,#1714)),.UNSPECIFIED.,.F.,.F.,.F.)
B_SPLINE_SURFACE_WITH_KNOTS((4,1,4),(3,3),(0.,0.785398163397448,1.5707963267949),
(0.,1.),.UNSPECIFIED.)
GEOMETRIC_REPRESENTATION_ITEM()
RATIONAL_B_SPLINE_SURFACE(((1.,0.707290970390562,1.),(1.,0.707290975136059,
1.),(1.,0.707251063565997,1.),(1.,0.707155008088392,1.),(1.,0.707106781186548,
1.)))
REPRESENTATION_ITEM('')
SURFACE()
);
#32=ELLIPSE('',#1096,0.00508000068954919,0.00508);
#33=ELLIPSE('',#1098,0.00508000068954919,0.00508);
#34=B_SPLINE_SURFACE_WITH_KNOTS('',3,3,((#1628,#1629,#1630,#1631,#1632,
#1633,#1634,#1635),(#1636,#1637,#1638,#1639,#1640,#1641,#1642,#1643),(#1644,
#1645,#1646,#1647,#1648,#1649,#1650,#1651),(#1652,#1653,#1654,#1655,#1656,
#1657,#1658,#1659),(#1660,#1661,#1662,#1663,#1664,#1665,#1666,#1667),(#1668,
#1669,#1670,#1671,#1672,#1673,#1674,#1675)),.UNSPECIFIED.,.F.,.F.,.F.,(4,
2,4),(4,2,2,4),(3.13216830422608,3.92227864230538,4.71238898038469),(-0.00787426905368358,
0.244094298209737,0.496062865473158,1.),.UNSPECIFIED.);
#35=DEGENERATE_TOROIDAL_SURFACE('',#1090,0.002437,0.00254,.T.);
#36=DEGENERATE_TOROIDAL_SURFACE('',#1101,0.002437,0.00254,.T.);
#37=B_SPLINE_CURVE_WITH_KNOTS('',3,(#1566,#1567,#1568,#1569,#1570),
 .UNSPECIFIED.,.F.,.F.,(4,1,4),(4.9065389333868E-17,0.00260030078800386,
0.00520060157600766),.UNSPECIFIED.);
#38=B_SPLINE_CURVE_WITH_KNOTS('',3,(#1595,#1596,#1597,#1598,#1599),
 .UNSPECIFIED.,.F.,.F.,(4,1,4),(0.,0.5,1.),.UNSPECIFIED.);
#39=B_SPLINE_CURVE_WITH_KNOTS('',3,(#1676,#1677,#1678,#1679),
 .UNSPECIFIED.,.F.,.F.,(4,4),(5.55111512312578E-17,0.0019240434048837),
 .UNSPECIFIED.);
#40=B_SPLINE_CURVE_WITH_KNOTS('',3,(#1683,#1684,#1685,#1686,#1687),
 .UNSPECIFIED.,.F.,.F.,(4,1,4),(0.,0.5,1.),.UNSPECIFIED.);
#41=B_SPLINE_CURVE_WITH_KNOTS('',3,(#1689,#1690,#1691,#1692,#1693,#1694,
#1695,#1696,#1697,#1698,#1699),.UNSPECIFIED.,.F.,.F.,(4,1,1,1,1,1,1,1,4),
(0.,0.25,0.375,0.4375,0.5,0.5625,0.625,0.75,1.),.UNSPECIFIED.);
#42=B_SPLINE_CURVE_WITH_KNOTS('',3,(#1715,#1716,#1717,#1718,#1719,#1720,
#1721,#1722,#1723,#1724,#1725),.UNSPECIFIED.,.F.,.F.,(4,1,1,1,1,1,1,1,4),
(0.,0.25,0.375,0.4375,0.5,0.5625,0.625,0.75,1.),.UNSPECIFIED.);
#43=B_SPLINE_CURVE_WITH_KNOTS('',3,(#1728,#1729,#1730,#1731,#1732),
 .UNSPECIFIED.,.F.,.F.,(4,1,4),(0.,0.5,1.),.UNSPECIFIED.);
#44=B_SPLINE_CURVE_WITH_KNOTS('',3,(#1738,#1739,#1740,#1741),
 .UNSPECIFIED.,.F.,.F.,(4,4),(0.,0.00192310589707869),.UNSPECIFIED.);
#45=B_SPLINE_CURVE_WITH_KNOTS('',3,(#1761,#1762,#1763,#1764,#1765),
 .UNSPECIFIED.,.F.,.F.,(4,1,4),(0.,0.5,1.),.UNSPECIFIED.);
#46=B_SPLINE_CURVE_WITH_KNOTS('',3,(#1793,#1794,#1795,#1796,#1797),
 .UNSPECIFIED.,.F.,.F.,(4,1,4),(4.9065389333868E-17,0.00260030078800386,
0.00520060157600766),.UNSPECIFIED.);
#47=B_SPLINE_CURVE_WITH_KNOTS('',3,(#1854,#1855,#1856,#1857),
 .UNSPECIFIED.,.F.,.F.,(4,4),(0.,1.),.UNSPECIFIED.);
#48=TOROIDAL_SURFACE('',#1070,0.00508,0.00254);
#49=TOROIDAL_SURFACE('',#1081,0.00508,0.00254);
#50=TOROIDAL_SURFACE('',#1084,0.00508,0.00254);
#51=TOROIDAL_SURFACE('',#1107,0.00508,0.00254);
#52=TOROIDAL_SURFACE('',#1110,0.00508,0.00254);
#53=TOROIDAL_SURFACE('',#1121,0.00508,0.00254);
#54=SPHERICAL_SURFACE('',#1045,0.000762);
#55=SPHERICAL_SURFACE('',#1052,0.000762);
#56=SPHERICAL_SURFACE('',#1055,0.000762);
#57=SPHERICAL_SURFACE('',#1066,0.000762);
#58=SPHERICAL_SURFACE('',#1076,0.00254);
#59=SPHERICAL_SURFACE('',#1116,0.00254);
#60=LINE('',#1489,#131);
#61=LINE('',#1491,#132);
#62=LINE('',#1495,#133);
#63=LINE('',#1497,#134);
#64=LINE('',#1506,#135);
#65=LINE('',#1507,#136);
#66=LINE('',#1512,#137);
#67=LINE('',#1513,#138);
#68=LINE('',#1523,#139);
#69=LINE('',#1525,#140);
#70=LINE('',#1529,#141);
#71=LINE('',#1531,#142);
#72=LINE('',#1536,#143);
#73=LINE('',#1537,#144);
#74=LINE('',#1541,#145);
#75=LINE('',#1542,#146);
#76=LINE('',#1544,#147);
#77=LINE('',#1546,#148);
#78=LINE('',#1550,#149);
#79=LINE('',#1552,#150);
#80=LINE('',#1556,#151);
#81=LINE('',#1558,#152);
#82=LINE('',#1562,#153);
#83=LINE('',#1564,#154);
#84=LINE('',#1582,#155);
#85=LINE('',#1583,#156);
#86=LINE('',#1592,#157);
#87=LINE('',#1593,#158);
#88=LINE('',#1614,#159);
#89=LINE('',#1615,#160);
#90=LINE('',#1626,#161);
#91=LINE('',#1627,#162);
#92=LINE('',#1746,#163);
#93=LINE('',#1747,#164);
#94=LINE('',#1758,#165);
#95=LINE('',#1759,#166);
#96=LINE('',#1780,#167);
#97=LINE('',#1781,#168);
#98=LINE('',#1790,#169);
#99=LINE('',#1791,#170);
#100=LINE('',#1803,#171);
#101=LINE('',#1804,#172);
#102=LINE('',#1806,#173);
#103=LINE('',#1807,#174);
#104=LINE('',#1809,#175);
#105=LINE('',#1811,#176);
#106=LINE('',#1816,#177);
#107=LINE('',#1820,#178);
#108=LINE('',#1822,#179);
#109=LINE('',#1824,#180);
#110=LINE('',#1828,#181);
#111=LINE('',#1830,#182);
#112=LINE('',#1834,#183);
#113=LINE('',#1835,#184);
#114=LINE('',#1837,#185);
#115=LINE('',#1839,#186);
#116=LINE('',#1840,#187);
#117=LINE('',#1846,#188);
#118=LINE('',#1848,#189);
#119=LINE('',#1850,#190);
#120=LINE('',#1852,#191);
#121=LINE('',#1861,#192);
#122=LINE('',#1863,#193);
#123=LINE('',#1864,#194);
#124=LINE('',#1874,#195);
#125=LINE('',#1876,#196);
#126=LINE('',#1878,#197);
#127=LINE('',#1883,#198);
#128=LINE('',#1884,#199);
#129=LINE('',#1886,#200);
#130=LINE('',#1888,#201);
#131=VECTOR('',#1171,1.);
#132=VECTOR('',#1172,1.);
#133=VECTOR('',#1175,1.);
#134=VECTOR('',#1176,1.);
#135=VECTOR('',#1187,1.);
#136=VECTOR('',#1188,1.);
#137=VECTOR('',#1193,1.);
#138=VECTOR('',#1194,1.);
#139=VECTOR('',#1209,1.);
#140=VECTOR('',#1210,1.);
#141=VECTOR('',#1213,1.);
#142=VECTOR('',#1214,1.);
#143=VECTOR('',#1219,1.);
#144=VECTOR('',#1220,1.);
#145=VECTOR('',#1225,1.);
#146=VECTOR('',#1226,1.);
#147=VECTOR('',#1229,1.);
#148=VECTOR('',#1230,1.);
#149=VECTOR('',#1233,1.);
#150=VECTOR('',#1234,1.);
#151=VECTOR('',#1241,1.);
#152=VECTOR('',#1242,1.);
#153=VECTOR('',#1245,1.);
#154=VECTOR('',#1246,1.);
#155=VECTOR('',#1259,1.);
#156=VECTOR('',#1260,1.);
#157=VECTOR('',#1271,1.);
#158=VECTOR('',#1272,1.);
#159=VECTOR('',#1291,1.);
#160=VECTOR('',#1292,1.);
#161=VECTOR('',#1305,1.);
#162=VECTOR('',#1306,1.);
#163=VECTOR('',#1317,1.);
#164=VECTOR('',#1318,1.);
#165=VECTOR('',#1331,1.);
#166=VECTOR('',#1332,1.);
#167=VECTOR('',#1351,1.);
#168=VECTOR('',#1352,1.);
#169=VECTOR('',#1363,1.);
#170=VECTOR('',#1364,1.);
#171=VECTOR('',#1373,1.);
#172=VECTOR('',#1374,1.);
#173=VECTOR('',#1377,1.);
#174=VECTOR('',#1378,1.);
#175=VECTOR('',#1381,1.);
#176=VECTOR('',#1384,1.);
#177=VECTOR('',#1389,1.);
#178=VECTOR('',#1392,1.);
#179=VECTOR('',#1395,1.);
#180=VECTOR('',#1396,1.);
#181=VECTOR('',#1401,1.);
#182=VECTOR('',#1402,1.);
#183=VECTOR('',#1407,1.);
#184=VECTOR('',#1408,1.);
#185=VECTOR('',#1411,1.);
#186=VECTOR('',#1414,1.);
#187=VECTOR('',#1415,1.);
#188=VECTOR('',#1422,1.);
#189=VECTOR('',#1425,1.);
#190=VECTOR('',#1426,1.);
#191=VECTOR('',#1427,1.);
#192=VECTOR('',#1434,1.);
#193=VECTOR('',#1435,1.);
#194=VECTOR('',#1436,1.);
#195=VECTOR('',#1449,1.);
#196=VECTOR('',#1450,1.);
#197=VECTOR('',#1453,1.);
#198=VECTOR('',#1462,1.);
#199=VECTOR('',#1463,1.);
#200=VECTOR('',#1466,1.);
#201=VECTOR('',#1469,1.);
#202=ORIENTED_EDGE('',*,*,#494,.F.);
#203=ORIENTED_EDGE('',*,*,#495,.T.);
#204=ORIENTED_EDGE('',*,*,#496,.F.);
#205=ORIENTED_EDGE('',*,*,#497,.T.);
#206=ORIENTED_EDGE('',*,*,#498,.T.);
#207=ORIENTED_EDGE('',*,*,#499,.F.);
#208=ORIENTED_EDGE('',*,*,#500,.T.);
#209=ORIENTED_EDGE('',*,*,#501,.T.);
#210=ORIENTED_EDGE('',*,*,#494,.T.);
#211=ORIENTED_EDGE('',*,*,#502,.F.);
#212=ORIENTED_EDGE('',*,*,#503,.T.);
#213=ORIENTED_EDGE('',*,*,#500,.F.);
#214=ORIENTED_EDGE('',*,*,#504,.F.);
#215=ORIENTED_EDGE('',*,*,#505,.F.);
#216=ORIENTED_EDGE('',*,*,#506,.T.);
#217=ORIENTED_EDGE('',*,*,#501,.F.);
#218=ORIENTED_EDGE('',*,*,#507,.F.);
#219=ORIENTED_EDGE('',*,*,#508,.T.);
#220=ORIENTED_EDGE('',*,*,#509,.T.);
#221=ORIENTED_EDGE('',*,*,#502,.T.);
#222=ORIENTED_EDGE('',*,*,#510,.T.);
#223=ORIENTED_EDGE('',*,*,#511,.T.);
#224=ORIENTED_EDGE('',*,*,#505,.T.);
#225=ORIENTED_EDGE('',*,*,#512,.T.);
#226=ORIENTED_EDGE('',*,*,#513,.F.);
#227=ORIENTED_EDGE('',*,*,#514,.T.);
#228=ORIENTED_EDGE('',*,*,#515,.T.);
#229=ORIENTED_EDGE('',*,*,#516,.F.);
#230=ORIENTED_EDGE('',*,*,#508,.F.);
#231=ORIENTED_EDGE('',*,*,#517,.F.);
#232=ORIENTED_EDGE('',*,*,#518,.F.);
#233=ORIENTED_EDGE('',*,*,#509,.F.);
#234=ORIENTED_EDGE('',*,*,#519,.T.);
#235=ORIENTED_EDGE('',*,*,#520,.F.);
#236=ORIENTED_EDGE('',*,*,#521,.F.);
#237=ORIENTED_EDGE('',*,*,#510,.F.);
#238=ORIENTED_EDGE('',*,*,#522,.T.);
#239=ORIENTED_EDGE('',*,*,#523,.T.);
#240=ORIENTED_EDGE('',*,*,#524,.F.);
#241=ORIENTED_EDGE('',*,*,#525,.T.);
#242=ORIENTED_EDGE('',*,*,#526,.T.);
#243=ORIENTED_EDGE('',*,*,#527,.F.);
#244=ORIENTED_EDGE('',*,*,#511,.F.);
#245=ORIENTED_EDGE('',*,*,#517,.T.);
#246=ORIENTED_EDGE('',*,*,#528,.T.);
#247=ORIENTED_EDGE('',*,*,#520,.T.);
#248=ORIENTED_EDGE('',*,*,#528,.F.);
#249=ORIENTED_EDGE('',*,*,#529,.T.);
#250=ORIENTED_EDGE('',*,*,#530,.F.);
#251=ORIENTED_EDGE('',*,*,#531,.T.);
#252=ORIENTED_EDGE('',*,*,#532,.T.);
#253=ORIENTED_EDGE('',*,*,#533,.F.);
#254=ORIENTED_EDGE('',*,*,#534,.T.);
#255=ORIENTED_EDGE('',*,*,#535,.F.);
#256=ORIENTED_EDGE('',*,*,#536,.T.);
#257=ORIENTED_EDGE('',*,*,#537,.T.);
#258=ORIENTED_EDGE('',*,*,#538,.T.);
#259=ORIENTED_EDGE('',*,*,#539,.F.);
#260=ORIENTED_EDGE('',*,*,#536,.F.);
#261=ORIENTED_EDGE('',*,*,#540,.T.);
#262=ORIENTED_EDGE('',*,*,#541,.T.);
#263=ORIENTED_EDGE('',*,*,#542,.T.);
#264=ORIENTED_EDGE('',*,*,#538,.F.);
#265=ORIENTED_EDGE('',*,*,#543,.T.);
#266=ORIENTED_EDGE('',*,*,#544,.F.);
#267=ORIENTED_EDGE('',*,*,#541,.F.);
#268=ORIENTED_EDGE('',*,*,#545,.T.);
#269=ORIENTED_EDGE('',*,*,#546,.F.);
#270=ORIENTED_EDGE('',*,*,#547,.T.);
#271=ORIENTED_EDGE('',*,*,#543,.F.);
#272=ORIENTED_EDGE('',*,*,#548,.F.);
#273=ORIENTED_EDGE('',*,*,#549,.T.);
#274=ORIENTED_EDGE('',*,*,#550,.F.);
#275=ORIENTED_EDGE('',*,*,#546,.T.);
#276=ORIENTED_EDGE('',*,*,#551,.T.);
#277=ORIENTED_EDGE('',*,*,#552,.T.);
#278=ORIENTED_EDGE('',*,*,#553,.T.);
#279=ORIENTED_EDGE('',*,*,#549,.F.);
#280=ORIENTED_EDGE('',*,*,#554,.F.);
#281=ORIENTED_EDGE('',*,*,#555,.T.);
#282=ORIENTED_EDGE('',*,*,#556,.T.);
#283=ORIENTED_EDGE('',*,*,#552,.F.);
#284=ORIENTED_EDGE('',*,*,#557,.F.);
#285=ORIENTED_EDGE('',*,*,#558,.T.);
#286=ORIENTED_EDGE('',*,*,#559,.F.);
#287=ORIENTED_EDGE('',*,*,#555,.F.);
#288=ORIENTED_EDGE('',*,*,#560,.T.);
#289=ORIENTED_EDGE('',*,*,#561,.F.);
#290=ORIENTED_EDGE('',*,*,#562,.T.);
#291=ORIENTED_EDGE('',*,*,#558,.F.);
#292=ORIENTED_EDGE('',*,*,#563,.T.);
#293=ORIENTED_EDGE('',*,*,#564,.F.);
#294=ORIENTED_EDGE('',*,*,#565,.T.);
#295=ORIENTED_EDGE('',*,*,#566,.F.);
#296=ORIENTED_EDGE('',*,*,#567,.T.);
#297=ORIENTED_EDGE('',*,*,#568,.F.);
#298=ORIENTED_EDGE('',*,*,#569,.F.);
#299=ORIENTED_EDGE('',*,*,#570,.T.);
#300=ORIENTED_EDGE('',*,*,#571,.T.);
#301=ORIENTED_EDGE('',*,*,#567,.F.);
#302=ORIENTED_EDGE('',*,*,#572,.F.);
#303=ORIENTED_EDGE('',*,*,#573,.T.);
#304=ORIENTED_EDGE('',*,*,#574,.F.);
#305=ORIENTED_EDGE('',*,*,#570,.F.);
#306=ORIENTED_EDGE('',*,*,#575,.F.);
#307=ORIENTED_EDGE('',*,*,#576,.T.);
#308=ORIENTED_EDGE('',*,*,#577,.T.);
#309=ORIENTED_EDGE('',*,*,#573,.F.);
#310=ORIENTED_EDGE('',*,*,#578,.F.);
#311=ORIENTED_EDGE('',*,*,#579,.F.);
#312=ORIENTED_EDGE('',*,*,#580,.F.);
#313=ORIENTED_EDGE('',*,*,#576,.F.);
#314=ORIENTED_EDGE('',*,*,#581,.T.);
#315=ORIENTED_EDGE('',*,*,#582,.T.);
#316=ORIENTED_EDGE('',*,*,#583,.T.);
#317=ORIENTED_EDGE('',*,*,#579,.T.);
#318=ORIENTED_EDGE('',*,*,#584,.F.);
#319=ORIENTED_EDGE('',*,*,#585,.T.);
#320=ORIENTED_EDGE('',*,*,#586,.T.);
#321=ORIENTED_EDGE('',*,*,#582,.F.);
#322=ORIENTED_EDGE('',*,*,#587,.F.);
#323=ORIENTED_EDGE('',*,*,#588,.T.);
#324=ORIENTED_EDGE('',*,*,#589,.F.);
#325=ORIENTED_EDGE('',*,*,#585,.F.);
#326=ORIENTED_EDGE('',*,*,#590,.T.);
#327=ORIENTED_EDGE('',*,*,#591,.T.);
#328=ORIENTED_EDGE('',*,*,#588,.F.);
#329=ORIENTED_EDGE('',*,*,#592,.F.);
#330=ORIENTED_EDGE('',*,*,#593,.F.);
#331=ORIENTED_EDGE('',*,*,#594,.T.);
#332=ORIENTED_EDGE('',*,*,#590,.F.);
#333=ORIENTED_EDGE('',*,*,#595,.F.);
#334=ORIENTED_EDGE('',*,*,#596,.F.);
#335=ORIENTED_EDGE('',*,*,#563,.F.);
#336=ORIENTED_EDGE('',*,*,#597,.T.);
#337=ORIENTED_EDGE('',*,*,#551,.F.);
#338=ORIENTED_EDGE('',*,*,#548,.T.);
#339=ORIENTED_EDGE('',*,*,#598,.F.);
#340=ORIENTED_EDGE('',*,*,#566,.T.);
#341=ORIENTED_EDGE('',*,*,#599,.T.);
#342=ORIENTED_EDGE('',*,*,#584,.T.);
#343=ORIENTED_EDGE('',*,*,#581,.F.);
#344=ORIENTED_EDGE('',*,*,#527,.T.);
#345=ORIENTED_EDGE('',*,*,#526,.F.);
#346=ORIENTED_EDGE('',*,*,#600,.F.);
#347=ORIENTED_EDGE('',*,*,#496,.T.);
#348=ORIENTED_EDGE('',*,*,#495,.F.);
#349=ORIENTED_EDGE('',*,*,#506,.F.);
#350=ORIENTED_EDGE('',*,*,#519,.F.);
#351=ORIENTED_EDGE('',*,*,#516,.T.);
#352=ORIENTED_EDGE('',*,*,#515,.F.);
#353=ORIENTED_EDGE('',*,*,#601,.T.);
#354=ORIENTED_EDGE('',*,*,#530,.T.);
#355=ORIENTED_EDGE('',*,*,#529,.F.);
#356=ORIENTED_EDGE('',*,*,#602,.T.);
#357=ORIENTED_EDGE('',*,*,#603,.T.);
#358=ORIENTED_EDGE('',*,*,#604,.F.);
#359=ORIENTED_EDGE('',*,*,#605,.F.);
#360=ORIENTED_EDGE('',*,*,#606,.T.);
#361=ORIENTED_EDGE('',*,*,#535,.T.);
#362=ORIENTED_EDGE('',*,*,#607,.F.);
#363=ORIENTED_EDGE('',*,*,#608,.T.);
#364=ORIENTED_EDGE('',*,*,#609,.T.);
#365=ORIENTED_EDGE('',*,*,#595,.T.);
#366=ORIENTED_EDGE('',*,*,#610,.F.);
#367=ORIENTED_EDGE('',*,*,#611,.T.);
#368=ORIENTED_EDGE('',*,*,#612,.F.);
#369=ORIENTED_EDGE('',*,*,#589,.T.);
#370=ORIENTED_EDGE('',*,*,#613,.T.);
#371=ORIENTED_EDGE('',*,*,#542,.F.);
#372=ORIENTED_EDGE('',*,*,#533,.T.);
#373=ORIENTED_EDGE('',*,*,#532,.F.);
#374=ORIENTED_EDGE('',*,*,#614,.F.);
#375=ORIENTED_EDGE('',*,*,#524,.T.);
#376=ORIENTED_EDGE('',*,*,#523,.F.);
#377=ORIENTED_EDGE('',*,*,#521,.T.);
#378=ORIENTED_EDGE('',*,*,#615,.F.);
#379=ORIENTED_EDGE('',*,*,#607,.T.);
#380=ORIENTED_EDGE('',*,*,#534,.F.);
#381=ORIENTED_EDGE('',*,*,#616,.F.);
#382=ORIENTED_EDGE('',*,*,#593,.T.);
#383=ORIENTED_EDGE('',*,*,#609,.F.);
#384=ORIENTED_EDGE('',*,*,#518,.T.);
#385=ORIENTED_EDGE('',*,*,#522,.F.);
#386=ORIENTED_EDGE('',*,*,#507,.T.);
#387=ORIENTED_EDGE('',*,*,#503,.F.);
#388=ORIENTED_EDGE('',*,*,#617,.F.);
#389=ORIENTED_EDGE('',*,*,#618,.F.);
#390=ORIENTED_EDGE('',*,*,#504,.T.);
#391=ORIENTED_EDGE('',*,*,#499,.T.);
#392=ORIENTED_EDGE('',*,*,#498,.F.);
#393=ORIENTED_EDGE('',*,*,#619,.F.);
#394=ORIENTED_EDGE('',*,*,#513,.T.);
#395=ORIENTED_EDGE('',*,*,#512,.F.);
#396=ORIENTED_EDGE('',*,*,#620,.T.);
#397=ORIENTED_EDGE('',*,*,#603,.F.);
#398=ORIENTED_EDGE('',*,*,#621,.T.);
#399=ORIENTED_EDGE('',*,*,#622,.T.);
#400=ORIENTED_EDGE('',*,*,#623,.F.);
#401=ORIENTED_EDGE('',*,*,#583,.F.);
#402=ORIENTED_EDGE('',*,*,#586,.F.);
#403=ORIENTED_EDGE('',*,*,#612,.T.);
#404=ORIENTED_EDGE('',*,*,#544,.T.);
#405=ORIENTED_EDGE('',*,*,#547,.F.);
#406=ORIENTED_EDGE('',*,*,#624,.F.);
#407=ORIENTED_EDGE('',*,*,#556,.F.);
#408=ORIENTED_EDGE('',*,*,#559,.T.);
#409=ORIENTED_EDGE('',*,*,#625,.T.);
#410=ORIENTED_EDGE('',*,*,#626,.F.);
#411=ORIENTED_EDGE('',*,*,#571,.F.);
#412=ORIENTED_EDGE('',*,*,#574,.T.);
#413=ORIENTED_EDGE('',*,*,#577,.F.);
#414=ORIENTED_EDGE('',*,*,#627,.F.);
#415=ORIENTED_EDGE('',*,*,#553,.F.);
#416=ORIENTED_EDGE('',*,*,#628,.T.);
#417=ORIENTED_EDGE('',*,*,#624,.T.);
#418=ORIENTED_EDGE('',*,*,#629,.F.);
#419=ORIENTED_EDGE('',*,*,#628,.F.);
#420=ORIENTED_EDGE('',*,*,#630,.T.);
#421=ORIENTED_EDGE('',*,*,#625,.F.);
#422=ORIENTED_EDGE('',*,*,#562,.F.);
#423=ORIENTED_EDGE('',*,*,#631,.T.);
#424=ORIENTED_EDGE('',*,*,#632,.T.);
#425=ORIENTED_EDGE('',*,*,#633,.F.);
#426=ORIENTED_EDGE('',*,*,#568,.T.);
#427=ORIENTED_EDGE('',*,*,#626,.T.);
#428=ORIENTED_EDGE('',*,*,#632,.F.);
#429=ORIENTED_EDGE('',*,*,#627,.T.);
#430=ORIENTED_EDGE('',*,*,#580,.T.);
#431=ORIENTED_EDGE('',*,*,#623,.T.);
#432=ORIENTED_EDGE('',*,*,#550,.T.);
#433=ORIENTED_EDGE('',*,*,#630,.F.);
#434=ORIENTED_EDGE('',*,*,#597,.F.);
#435=ORIENTED_EDGE('',*,*,#560,.F.);
#436=ORIENTED_EDGE('',*,*,#557,.T.);
#437=ORIENTED_EDGE('',*,*,#554,.T.);
#438=ORIENTED_EDGE('',*,*,#575,.T.);
#439=ORIENTED_EDGE('',*,*,#572,.T.);
#440=ORIENTED_EDGE('',*,*,#598,.T.);
#441=ORIENTED_EDGE('',*,*,#578,.T.);
#442=ORIENTED_EDGE('',*,*,#629,.T.);
#443=ORIENTED_EDGE('',*,*,#622,.F.);
#444=ORIENTED_EDGE('',*,*,#634,.T.);
#445=ORIENTED_EDGE('',*,*,#569,.T.);
#446=ORIENTED_EDGE('',*,*,#633,.T.);
#447=ORIENTED_EDGE('',*,*,#631,.F.);
#448=ORIENTED_EDGE('',*,*,#561,.T.);
#449=ORIENTED_EDGE('',*,*,#635,.F.);
#450=ORIENTED_EDGE('',*,*,#592,.T.);
#451=ORIENTED_EDGE('',*,*,#587,.T.);
#452=ORIENTED_EDGE('',*,*,#599,.F.);
#453=ORIENTED_EDGE('',*,*,#565,.F.);
#454=ORIENTED_EDGE('',*,*,#634,.F.);
#455=ORIENTED_EDGE('',*,*,#621,.F.);
#456=ORIENTED_EDGE('',*,*,#602,.F.);
#457=ORIENTED_EDGE('',*,*,#636,.T.);
#458=ORIENTED_EDGE('',*,*,#610,.T.);
#459=ORIENTED_EDGE('',*,*,#596,.T.);
#460=ORIENTED_EDGE('',*,*,#545,.F.);
#461=ORIENTED_EDGE('',*,*,#540,.F.);
#462=ORIENTED_EDGE('',*,*,#606,.F.);
#463=ORIENTED_EDGE('',*,*,#637,.T.);
#464=ORIENTED_EDGE('',*,*,#604,.T.);
#465=ORIENTED_EDGE('',*,*,#620,.F.);
#466=ORIENTED_EDGE('',*,*,#635,.T.);
#467=ORIENTED_EDGE('',*,*,#564,.T.);
#468=ORIENTED_EDGE('',*,*,#591,.F.);
#469=ORIENTED_EDGE('',*,*,#594,.F.);
#470=ORIENTED_EDGE('',*,*,#616,.T.);
#471=ORIENTED_EDGE('',*,*,#537,.F.);
#472=ORIENTED_EDGE('',*,*,#539,.T.);
#473=ORIENTED_EDGE('',*,*,#613,.F.);
#474=ORIENTED_EDGE('',*,*,#608,.F.);
#475=ORIENTED_EDGE('',*,*,#615,.T.);
#476=ORIENTED_EDGE('',*,*,#611,.F.);
#477=ORIENTED_EDGE('',*,*,#636,.F.);
#478=ORIENTED_EDGE('',*,*,#605,.T.);
#479=ORIENTED_EDGE('',*,*,#637,.F.);
#480=ORIENTED_EDGE('',*,*,#514,.F.);
#481=ORIENTED_EDGE('',*,*,#619,.T.);
#482=ORIENTED_EDGE('',*,*,#497,.F.);
#483=ORIENTED_EDGE('',*,*,#600,.T.);
#484=ORIENTED_EDGE('',*,*,#525,.F.);
#485=ORIENTED_EDGE('',*,*,#614,.T.);
#486=ORIENTED_EDGE('',*,*,#531,.F.);
#487=ORIENTED_EDGE('',*,*,#601,.F.);
#488=ORIENTED_EDGE('',*,*,#638,.F.);
#489=ORIENTED_EDGE('',*,*,#639,.F.);
#490=ORIENTED_EDGE('',*,*,#617,.T.);
#491=ORIENTED_EDGE('',*,*,#638,.T.);
#492=ORIENTED_EDGE('',*,*,#618,.T.);
#493=ORIENTED_EDGE('',*,*,#639,.T.);
#494=EDGE_CURVE('',#640,#641,#732,.T.);
#495=EDGE_CURVE('',#640,#642,#60,.T.);
#496=EDGE_CURVE('',#643,#642,#61,.T.);
#497=EDGE_CURVE('',#643,#644,#733,.T.);
#498=EDGE_CURVE('',#644,#645,#62,.T.);
#499=EDGE_CURVE('',#641,#645,#63,.T.);
#500=EDGE_CURVE('',#641,#646,#734,.T.);
#501=EDGE_CURVE('',#646,#640,#735,.T.);
#502=EDGE_CURVE('',#647,#648,#736,.T.);
#503=EDGE_CURVE('',#647,#646,#64,.T.);
#504=EDGE_CURVE('',#648,#641,#65,.T.);
#505=EDGE_CURVE('',#649,#650,#737,.T.);
#506=EDGE_CURVE('',#649,#640,#66,.T.);
#507=EDGE_CURVE('',#650,#646,#67,.T.);
#508=EDGE_CURVE('',#648,#651,#738,.T.);
#509=EDGE_CURVE('',#651,#647,#739,.T.);
#510=EDGE_CURVE('',#650,#652,#740,.T.);
#511=EDGE_CURVE('',#652,#649,#741,.T.);
#512=EDGE_CURVE('',#648,#653,#68,.T.);
#513=EDGE_CURVE('',#654,#653,#69,.T.);
#514=EDGE_CURVE('',#654,#655,#742,.T.);
#515=EDGE_CURVE('',#655,#656,#70,.T.);
#516=EDGE_CURVE('',#651,#656,#71,.T.);
#517=EDGE_CURVE('',#657,#658,#743,.T.);
#518=EDGE_CURVE('',#647,#657,#72,.T.);
#519=EDGE_CURVE('',#651,#658,#73,.T.);
#520=EDGE_CURVE('',#659,#657,#744,.T.);
#521=EDGE_CURVE('',#652,#659,#74,.T.);
#522=EDGE_CURVE('',#650,#657,#75,.T.);
#523=EDGE_CURVE('',#652,#660,#76,.T.);
#524=EDGE_CURVE('',#661,#660,#77,.T.);
#525=EDGE_CURVE('',#661,#662,#745,.T.);
#526=EDGE_CURVE('',#662,#663,#78,.T.);
#527=EDGE_CURVE('',#649,#663,#79,.T.);
#528=EDGE_CURVE('',#658,#659,#746,.T.);
#529=EDGE_CURVE('',#658,#664,#80,.T.);
#530=EDGE_CURVE('',#665,#664,#81,.T.);
#531=EDGE_CURVE('',#665,#666,#747,.T.);
#532=EDGE_CURVE('',#666,#667,#82,.T.);
#533=EDGE_CURVE('',#659,#667,#83,.T.);
#534=EDGE_CURVE('',#668,#669,#37,.T.);
#535=EDGE_CURVE('',#670,#669,#748,.T.);
#536=EDGE_CURVE('',#670,#671,#749,.T.);
#537=EDGE_CURVE('',#671,#668,#750,.T.);
#538=EDGE_CURVE('',#672,#673,#751,.T.);
#539=EDGE_CURVE('',#671,#673,#84,.T.);
#540=EDGE_CURVE('',#670,#672,#85,.T.);
#541=EDGE_CURVE('',#672,#674,#752,.T.);
#542=EDGE_CURVE('',#674,#673,#753,.T.);
#543=EDGE_CURVE('',#675,#676,#754,.T.);
#544=EDGE_CURVE('',#674,#676,#86,.T.);
#545=EDGE_CURVE('',#672,#675,#87,.T.);
#546=EDGE_CURVE('',#677,#678,#38,.F.);
#547=EDGE_CURVE('',#677,#676,#755,.T.);
#548=EDGE_CURVE('',#678,#675,#756,.T.);
#549=EDGE_CURVE('',#679,#680,#757,.T.);
#550=EDGE_CURVE('',#677,#680,#758,.T.);
#551=EDGE_CURVE('',#678,#679,#759,.T.);
#552=EDGE_CURVE('',#681,#682,#760,.T.);
#553=EDGE_CURVE('',#682,#680,#88,.T.);
#554=EDGE_CURVE('',#681,#679,#89,.T.);
#555=EDGE_CURVE('',#683,#684,#761,.T.);
#556=EDGE_CURVE('',#684,#682,#762,.T.);
#557=EDGE_CURVE('',#683,#681,#763,.T.);
#558=EDGE_CURVE('',#685,#686,#764,.T.);
#559=EDGE_CURVE('',#684,#686,#90,.T.);
#560=EDGE_CURVE('',#683,#685,#91,.T.);
#561=EDGE_CURVE('',#687,#688,#39,.T.);
#562=EDGE_CURVE('',#687,#686,#32,.T.);
#563=EDGE_CURVE('',#685,#689,#40,.F.);
#564=EDGE_CURVE('',#688,#689,#41,.T.);
#565=EDGE_CURVE('',#690,#691,#42,.F.);
#566=EDGE_CURVE('',#692,#691,#43,.T.);
#567=EDGE_CURVE('',#692,#693,#765,.T.);
#568=EDGE_CURVE('',#694,#693,#33,.T.);
#569=EDGE_CURVE('',#690,#694,#44,.T.);
#570=EDGE_CURVE('',#695,#696,#766,.T.);
#571=EDGE_CURVE('',#696,#693,#92,.T.);
#572=EDGE_CURVE('',#695,#692,#93,.T.);
#573=EDGE_CURVE('',#697,#698,#767,.T.);
#574=EDGE_CURVE('',#696,#698,#768,.T.);
#575=EDGE_CURVE('',#697,#695,#769,.T.);
#576=EDGE_CURVE('',#699,#700,#770,.T.);
#577=EDGE_CURVE('',#700,#698,#94,.T.);
#578=EDGE_CURVE('',#699,#697,#95,.T.);
#579=EDGE_CURVE('',#701,#702,#45,.F.);
#580=EDGE_CURVE('',#700,#701,#771,.T.);
#581=EDGE_CURVE('',#699,#702,#772,.T.);
#582=EDGE_CURVE('',#703,#704,#773,.T.);
#583=EDGE_CURVE('',#704,#701,#774,.T.);
#584=EDGE_CURVE('',#703,#702,#775,.T.);
#585=EDGE_CURVE('',#705,#706,#776,.T.);
#586=EDGE_CURVE('',#706,#704,#96,.T.);
#587=EDGE_CURVE('',#705,#703,#97,.T.);
#588=EDGE_CURVE('',#705,#707,#777,.T.);
#589=EDGE_CURVE('',#706,#707,#778,.T.);
#590=EDGE_CURVE('',#708,#709,#779,.T.);
#591=EDGE_CURVE('',#709,#707,#98,.T.);
#592=EDGE_CURVE('',#708,#705,#99,.T.);
#593=EDGE_CURVE('',#710,#711,#46,.T.);
#594=EDGE_CURVE('',#710,#709,#780,.T.);
#595=EDGE_CURVE('',#711,#708,#781,.T.);
#596=EDGE_CURVE('',#689,#675,#100,.T.);
#597=EDGE_CURVE('',#685,#679,#101,.T.);
#598=EDGE_CURVE('',#692,#699,#102,.T.);
#599=EDGE_CURVE('',#691,#703,#103,.T.);
#600=EDGE_CURVE('',#643,#662,#104,.T.);
#601=EDGE_CURVE('',#655,#665,#105,.T.);
#602=EDGE_CURVE('',#712,#713,#782,.T.);
#603=EDGE_CURVE('',#713,#714,#106,.T.);
#604=EDGE_CURVE('',#715,#714,#783,.T.);
#605=EDGE_CURVE('',#712,#715,#107,.T.);
#606=EDGE_CURVE('',#716,#670,#108,.T.);
#607=EDGE_CURVE('',#717,#669,#109,.T.);
#608=EDGE_CURVE('',#717,#716,#784,.T.);
#609=EDGE_CURVE('',#718,#711,#110,.T.);
#610=EDGE_CURVE('',#719,#708,#111,.T.);
#611=EDGE_CURVE('',#719,#718,#785,.T.);
#612=EDGE_CURVE('',#706,#674,#112,.T.);
#613=EDGE_CURVE('',#707,#673,#113,.T.);
#614=EDGE_CURVE('',#661,#666,#114,.T.);
#615=EDGE_CURVE('',#717,#718,#115,.T.);
#616=EDGE_CURVE('',#710,#668,#116,.T.);
#617=EDGE_CURVE('',#720,#720,#786,.F.);
#618=EDGE_CURVE('',#721,#721,#787,.F.);
#619=EDGE_CURVE('',#654,#644,#117,.T.);
#620=EDGE_CURVE('',#722,#714,#118,.T.);
#621=EDGE_CURVE('',#713,#723,#119,.T.);
#622=EDGE_CURVE('',#723,#722,#120,.T.);
#623=EDGE_CURVE('',#701,#677,#47,.F.);
#624=EDGE_CURVE('',#724,#724,#788,.T.);
#625=EDGE_CURVE('',#686,#725,#121,.T.);
#626=EDGE_CURVE('',#693,#725,#122,.T.);
#627=EDGE_CURVE('',#680,#700,#123,.T.);
#628=EDGE_CURVE('',#726,#726,#789,.T.);
#629=EDGE_CURVE('',#727,#727,#790,.T.);
#630=EDGE_CURVE('',#728,#728,#791,.T.);
#631=EDGE_CURVE('',#687,#729,#124,.T.);
#632=EDGE_CURVE('',#729,#725,#125,.T.);
#633=EDGE_CURVE('',#694,#729,#126,.T.);
#634=EDGE_CURVE('',#723,#690,#127,.T.);
#635=EDGE_CURVE('',#722,#688,#128,.T.);
#636=EDGE_CURVE('',#712,#719,#129,.T.);
#637=EDGE_CURVE('',#716,#715,#130,.T.);
#638=EDGE_CURVE('',#730,#730,#792,.T.);
#639=EDGE_CURVE('',#731,#731,#793,.T.);
#640=VERTEX_POINT('',#1487);
#641=VERTEX_POINT('',#1488);
#642=VERTEX_POINT('',#1490);
#643=VERTEX_POINT('',#1492);
#644=VERTEX_POINT('',#1494);
#645=VERTEX_POINT('',#1496);
#646=VERTEX_POINT('',#1500);
#647=VERTEX_POINT('',#1504);
#648=VERTEX_POINT('',#1505);
#649=VERTEX_POINT('',#1510);
#650=VERTEX_POINT('',#1511);
#651=VERTEX_POINT('',#1516);
#652=VERTEX_POINT('',#1520);
#653=VERTEX_POINT('',#1524);
#654=VERTEX_POINT('',#1526);
#655=VERTEX_POINT('',#1528);
#656=VERTEX_POINT('',#1530);
#657=VERTEX_POINT('',#1534);
#658=VERTEX_POINT('',#1535);
#659=VERTEX_POINT('',#1540);
#660=VERTEX_POINT('',#1545);
#661=VERTEX_POINT('',#1547);
#662=VERTEX_POINT('',#1549);
#663=VERTEX_POINT('',#1551);
#664=VERTEX_POINT('',#1557);
#665=VERTEX_POINT('',#1559);
#666=VERTEX_POINT('',#1561);
#667=VERTEX_POINT('',#1563);
#668=VERTEX_POINT('',#1571);
#669=VERTEX_POINT('',#1572);
#670=VERTEX_POINT('',#1574);
#671=VERTEX_POINT('',#1576);
#672=VERTEX_POINT('',#1580);
#673=VERTEX_POINT('',#1581);
#674=VERTEX_POINT('',#1586);
#675=VERTEX_POINT('',#1590);
#676=VERTEX_POINT('',#1591);
#677=VERTEX_POINT('',#1600);
#678=VERTEX_POINT('',#1601);
#679=VERTEX_POINT('',#1606);
#680=VERTEX_POINT('',#1607);
#681=VERTEX_POINT('',#1612);
#682=VERTEX_POINT('',#1613);
#683=VERTEX_POINT('',#1618);
#684=VERTEX_POINT('',#1619);
#685=VERTEX_POINT('',#1624);
#686=VERTEX_POINT('',#1625);
#687=VERTEX_POINT('',#1680);
#688=VERTEX_POINT('',#1681);
#689=VERTEX_POINT('',#1688);
#690=VERTEX_POINT('',#1726);
#691=VERTEX_POINT('',#1727);
#692=VERTEX_POINT('',#1733);
#693=VERTEX_POINT('',#1735);
#694=VERTEX_POINT('',#1737);
#695=VERTEX_POINT('',#1744);
#696=VERTEX_POINT('',#1745);
#697=VERTEX_POINT('',#1750);
#698=VERTEX_POINT('',#1751);
#699=VERTEX_POINT('',#1756);
#700=VERTEX_POINT('',#1757);
#701=VERTEX_POINT('',#1766);
#702=VERTEX_POINT('',#1767);
#703=VERTEX_POINT('',#1772);
#704=VERTEX_POINT('',#1773);
#705=VERTEX_POINT('',#1778);
#706=VERTEX_POINT('',#1779);
#707=VERTEX_POINT('',#1784);
#708=VERTEX_POINT('',#1788);
#709=VERTEX_POINT('',#1789);
#710=VERTEX_POINT('',#1798);
#711=VERTEX_POINT('',#1799);
#712=VERTEX_POINT('',#1814);
#713=VERTEX_POINT('',#1815);
#714=VERTEX_POINT('',#1817);
#715=VERTEX_POINT('',#1819);
#716=VERTEX_POINT('',#1823);
#717=VERTEX_POINT('',#1825);
#718=VERTEX_POINT('',#1829);
#719=VERTEX_POINT('',#1831);
#720=VERTEX_POINT('',#1842);
#721=VERTEX_POINT('',#1844);
#722=VERTEX_POINT('',#1849);
#723=VERTEX_POINT('',#1851);
#724=VERTEX_POINT('',#1860);
#725=VERTEX_POINT('',#1862);
#726=VERTEX_POINT('',#1866);
#727=VERTEX_POINT('',#1869);
#728=VERTEX_POINT('',#1872);
#729=VERTEX_POINT('',#1875);
#730=VERTEX_POINT('',#1893);
#731=VERTEX_POINT('',#1895);
#732=CIRCLE('',#1043,0.000762);
#733=CIRCLE('',#1044,0.000762);
#734=CIRCLE('',#1046,0.000762);
#735=CIRCLE('',#1047,0.000762);
#736=CIRCLE('',#1049,0.000762);
#737=CIRCLE('',#1051,0.000762);
#738=CIRCLE('',#1053,0.000762);
#739=CIRCLE('',#1054,0.000762);
#740=CIRCLE('',#1056,0.000762);
#741=CIRCLE('',#1057,0.000762);
#742=CIRCLE('',#1059,0.000762);
#743=CIRCLE('',#1061,0.000762);
#744=CIRCLE('',#1063,0.000762);
#745=CIRCLE('',#1065,0.000762);
#746=CIRCLE('',#1067,0.000762);
#747=CIRCLE('',#1069,0.000762);
#748=CIRCLE('',#1071,0.00254);
#749=CIRCLE('',#1072,0.00254);
#750=CIRCLE('',#1073,0.00508);
#751=CIRCLE('',#1075,0.00254);
#752=CIRCLE('',#1077,0.00254);
#753=CIRCLE('',#1078,0.00254);
#754=CIRCLE('',#1080,0.00254);
#755=CIRCLE('',#1082,0.00508);
#756=CIRCLE('',#1083,0.00254);
#757=CIRCLE('',#1085,0.00254);
#758=CIRCLE('',#1086,0.00508);
#759=CIRCLE('',#1087,0.00254);
#760=CIRCLE('',#1089,0.00254);
#761=CIRCLE('',#1091,0.00254);
#762=CIRCLE('',#1092,0.004977);
#763=CIRCLE('',#1093,0.002437);
#764=CIRCLE('',#1095,0.00254);
#765=CIRCLE('',#1097,0.00254);
#766=CIRCLE('',#1100,0.00254);
#767=CIRCLE('',#1102,0.00254);
#768=CIRCLE('',#1103,0.004977);
#769=CIRCLE('',#1104,0.002437);
#770=CIRCLE('',#1106,0.00254);
#771=CIRCLE('',#1108,0.00508);
#772=CIRCLE('',#1109,0.00254);
#773=CIRCLE('',#1111,0.00254);
#774=CIRCLE('',#1112,0.00508);
#775=CIRCLE('',#1113,0.00254);
#776=CIRCLE('',#1115,0.00254);
#777=CIRCLE('',#1117,0.00254);
#778=CIRCLE('',#1118,0.00254);
#779=CIRCLE('',#1120,0.00254);
#780=CIRCLE('',#1122,0.00508);
#781=CIRCLE('',#1123,0.00254);
#782=CIRCLE('',#1129,0.00254);
#783=CIRCLE('',#1130,0.00254);
#784=CIRCLE('',#1132,0.00254);
#785=CIRCLE('',#1134,0.00254);
#786=CIRCLE('',#1138,0.0022225);
#787=CIRCLE('',#1139,0.0022225);
#788=CIRCLE('',#1144,0.001675);
#789=CIRCLE('',#1145,0.001675);
#790=CIRCLE('',#1147,0.001675);
#791=CIRCLE('',#1149,0.001675);
#792=CIRCLE('',#1161,0.0022225);
#793=CIRCLE('',#1162,0.0022225);
#794=EDGE_LOOP('',(#202,#203,#204,#205,#206,#207));
#795=EDGE_LOOP('',(#208,#209,#210));
#796=EDGE_LOOP('',(#211,#212,#213,#214));
#797=EDGE_LOOP('',(#215,#216,#217,#218));
#798=EDGE_LOOP('',(#219,#220,#221));
#799=EDGE_LOOP('',(#222,#223,#224));
#800=EDGE_LOOP('',(#225,#226,#227,#228,#229,#230));
#801=EDGE_LOOP('',(#231,#232,#233,#234));
#802=EDGE_LOOP('',(#235,#236,#237,#238));
#803=EDGE_LOOP('',(#239,#240,#241,#242,#243,#244));
#804=EDGE_LOOP('',(#245,#246,#247));
#805=EDGE_LOOP('',(#248,#249,#250,#251,#252,#253));
#806=EDGE_LOOP('',(#254,#255,#256,#257));
#807=EDGE_LOOP('',(#258,#259,#260,#261));
#808=EDGE_LOOP('',(#262,#263,#264));
#809=EDGE_LOOP('',(#265,#266,#267,#268));
#810=EDGE_LOOP('',(#269,#270,#271,#272));
#811=EDGE_LOOP('',(#273,#274,#275,#276));
#812=EDGE_LOOP('',(#277,#278,#279,#280));
#813=EDGE_LOOP('',(#281,#282,#283,#284));
#814=EDGE_LOOP('',(#285,#286,#287,#288));
#815=EDGE_LOOP('',(#289,#290,#291,#292,#293));
#816=EDGE_LOOP('',(#294,#295,#296,#297,#298));
#817=EDGE_LOOP('',(#299,#300,#301,#302));
#818=EDGE_LOOP('',(#303,#304,#305,#306));
#819=EDGE_LOOP('',(#307,#308,#309,#310));
#820=EDGE_LOOP('',(#311,#312,#313,#314));
#821=EDGE_LOOP('',(#315,#316,#317,#318));
#822=EDGE_LOOP('',(#319,#320,#321,#322));
#823=EDGE_LOOP('',(#323,#324,#325));
#824=EDGE_LOOP('',(#326,#327,#328,#329));
#825=EDGE_LOOP('',(#330,#331,#332,#333));
#826=EDGE_LOOP('',(#334,#335,#336,#337,#338));
#827=EDGE_LOOP('',(#339,#340,#341,#342,#343));
#828=EDGE_LOOP('',(#344,#345,#346,#347,#348,#349));
#829=EDGE_LOOP('',(#350,#351,#352,#353,#354,#355));
#830=EDGE_LOOP('',(#356,#357,#358,#359));
#831=EDGE_LOOP('',(#360,#361,#362,#363));
#832=EDGE_LOOP('',(#364,#365,#366,#367));
#833=EDGE_LOOP('',(#368,#369,#370,#371));
#834=EDGE_LOOP('',(#372,#373,#374,#375,#376,#377));
#835=EDGE_LOOP('',(#378,#379,#380,#381,#382,#383));
#836=EDGE_LOOP('',(#384,#385,#386,#387));
#837=EDGE_LOOP('',(#388));
#838=EDGE_LOOP('',(#389));
#839=EDGE_LOOP('',(#390,#391,#392,#393,#394,#395));
#840=EDGE_LOOP('',(#396,#397,#398,#399));
#841=EDGE_LOOP('',(#400,#401,#402,#403,#404,#405));
#842=EDGE_LOOP('',(#406));
#843=EDGE_LOOP('',(#407,#408,#409,#410,#411,#412,#413,#414,#415));
#844=EDGE_LOOP('',(#416));
#845=EDGE_LOOP('',(#417));
#846=EDGE_LOOP('',(#418));
#847=EDGE_LOOP('',(#419));
#848=EDGE_LOOP('',(#420));
#849=EDGE_LOOP('',(#421,#422,#423,#424));
#850=EDGE_LOOP('',(#425,#426,#427,#428));
#851=EDGE_LOOP('',(#429,#430,#431,#432));
#852=EDGE_LOOP('',(#433));
#853=EDGE_LOOP('',(#434,#435,#436,#437));
#854=EDGE_LOOP('',(#438,#439,#440,#441));
#855=EDGE_LOOP('',(#442));
#856=EDGE_LOOP('',(#443,#444,#445,#446,#447,#448,#449));
#857=EDGE_LOOP('',(#450,#451,#452,#453,#454,#455,#456,#457,#458));
#858=EDGE_LOOP('',(#459,#460,#461,#462,#463,#464,#465,#466,#467));
#859=EDGE_LOOP('',(#468,#469,#470,#471,#472,#473));
#860=EDGE_LOOP('',(#474,#475,#476,#477,#478,#479));
#861=EDGE_LOOP('',(#480,#481,#482,#483,#484,#485,#486,#487));
#862=EDGE_LOOP('',(#488));
#863=EDGE_LOOP('',(#489));
#864=EDGE_LOOP('',(#490));
#865=EDGE_LOOP('',(#491));
#866=EDGE_LOOP('',(#492));
#867=EDGE_LOOP('',(#493));
#868=FACE_BOUND('',#794,.T.);
#869=FACE_BOUND('',#795,.T.);
#870=FACE_BOUND('',#796,.T.);
#871=FACE_BOUND('',#797,.T.);
#872=FACE_BOUND('',#798,.T.);
#873=FACE_BOUND('',#799,.T.);
#874=FACE_BOUND('',#800,.T.);
#875=FACE_BOUND('',#801,.T.);
#876=FACE_BOUND('',#802,.T.);
#877=FACE_BOUND('',#803,.T.);
#878=FACE_BOUND('',#804,.T.);
#879=FACE_BOUND('',#805,.T.);
#880=FACE_BOUND('',#806,.T.);
#881=FACE_BOUND('',#807,.T.);
#882=FACE_BOUND('',#808,.T.);
#883=FACE_BOUND('',#809,.T.);
#884=FACE_BOUND('',#810,.T.);
#885=FACE_BOUND('',#811,.T.);
#886=FACE_BOUND('',#812,.T.);
#887=FACE_BOUND('',#813,.T.);
#888=FACE_BOUND('',#814,.T.);
#889=FACE_BOUND('',#815,.T.);
#890=FACE_BOUND('',#816,.T.);
#891=FACE_BOUND('',#817,.T.);
#892=FACE_BOUND('',#818,.T.);
#893=FACE_BOUND('',#819,.T.);
#894=FACE_BOUND('',#820,.T.);
#895=FACE_BOUND('',#821,.T.);
#896=FACE_BOUND('',#822,.T.);
#897=FACE_BOUND('',#823,.T.);
#898=FACE_BOUND('',#824,.T.);
#899=FACE_BOUND('',#825,.T.);
#900=FACE_BOUND('',#826,.T.);
#901=FACE_BOUND('',#827,.T.);
#902=FACE_BOUND('',#828,.T.);
#903=FACE_BOUND('',#829,.T.);
#904=FACE_BOUND('',#830,.T.);
#905=FACE_BOUND('',#831,.T.);
#906=FACE_BOUND('',#832,.T.);
#907=FACE_BOUND('',#833,.T.);
#908=FACE_BOUND('',#834,.T.);
#909=FACE_BOUND('',#835,.T.);
#910=FACE_BOUND('',#836,.T.);
#911=FACE_BOUND('',#837,.T.);
#912=FACE_BOUND('',#838,.T.);
#913=FACE_BOUND('',#839,.T.);
#914=FACE_BOUND('',#840,.T.);
#915=FACE_BOUND('',#841,.T.);
#916=FACE_BOUND('',#842,.T.);
#917=FACE_BOUND('',#843,.T.);
#918=FACE_BOUND('',#844,.T.);
#919=FACE_BOUND('',#845,.T.);
#920=FACE_BOUND('',#846,.T.);
#921=FACE_BOUND('',#847,.T.);
#922=FACE_BOUND('',#848,.T.);
#923=FACE_BOUND('',#849,.T.);
#924=FACE_BOUND('',#850,.T.);
#925=FACE_BOUND('',#851,.T.);
#926=FACE_BOUND('',#852,.T.);
#927=FACE_BOUND('',#853,.T.);
#928=FACE_BOUND('',#854,.T.);
#929=FACE_BOUND('',#855,.T.);
#930=FACE_BOUND('',#856,.T.);
#931=FACE_BOUND('',#857,.T.);
#932=FACE_BOUND('',#858,.T.);
#933=FACE_BOUND('',#859,.T.);
#934=FACE_BOUND('',#860,.T.);
#935=FACE_BOUND('',#861,.T.);
#936=FACE_BOUND('',#862,.T.);
#937=FACE_BOUND('',#863,.T.);
#938=FACE_BOUND('',#864,.T.);
#939=FACE_BOUND('',#865,.T.);
#940=FACE_BOUND('',#866,.T.);
#941=FACE_BOUND('',#867,.T.);
#942=CYLINDRICAL_SURFACE('',#1042,0.000762);
#943=CYLINDRICAL_SURFACE('',#1048,0.000762);
#944=CYLINDRICAL_SURFACE('',#1050,0.000762);
#945=CYLINDRICAL_SURFACE('',#1058,0.000762);
#946=CYLINDRICAL_SURFACE('',#1060,0.000762);
#947=CYLINDRICAL_SURFACE('',#1062,0.000762);
#948=CYLINDRICAL_SURFACE('',#1064,0.000762);
#949=CYLINDRICAL_SURFACE('',#1068,0.000762);
#950=CYLINDRICAL_SURFACE('',#1074,0.00254);
#951=CYLINDRICAL_SURFACE('',#1079,0.00254);
#952=CYLINDRICAL_SURFACE('',#1088,0.00254);
#953=CYLINDRICAL_SURFACE('',#1094,0.00254);
#954=CYLINDRICAL_SURFACE('',#1099,0.00254);
#955=CYLINDRICAL_SURFACE('',#1105,0.00254);
#956=CYLINDRICAL_SURFACE('',#1114,0.00254);
#957=CYLINDRICAL_SURFACE('',#1119,0.00254);
#958=CYLINDRICAL_SURFACE('',#1124,0.00254);
#959=CYLINDRICAL_SURFACE('',#1125,0.00254);
#960=CYLINDRICAL_SURFACE('',#1128,0.00254);
#961=CYLINDRICAL_SURFACE('',#1131,0.00254);
#962=CYLINDRICAL_SURFACE('',#1133,0.00254);
#963=CYLINDRICAL_SURFACE('',#1135,0.00254);
#964=CYLINDRICAL_SURFACE('',#1146,0.001675);
#965=CYLINDRICAL_SURFACE('',#1148,0.001675);
#966=CYLINDRICAL_SURFACE('',#1163,0.0022225);
#967=CYLINDRICAL_SURFACE('',#1164,0.0022225);
#968=ADVANCED_FACE('',(#868),#942,.T.);
#969=ADVANCED_FACE('',(#869),#54,.T.);
#970=ADVANCED_FACE('',(#870),#943,.T.);
#971=ADVANCED_FACE('',(#871),#944,.T.);
#972=ADVANCED_FACE('',(#872),#55,.T.);
#973=ADVANCED_FACE('',(#873),#56,.T.);
#974=ADVANCED_FACE('',(#874),#945,.T.);
#975=ADVANCED_FACE('',(#875),#946,.T.);
#976=ADVANCED_FACE('',(#876),#947,.T.);
#977=ADVANCED_FACE('',(#877),#948,.T.);
#978=ADVANCED_FACE('',(#878),#57,.T.);
#979=ADVANCED_FACE('',(#879),#949,.T.);
#980=ADVANCED_FACE('',(#880),#48,.T.);
#981=ADVANCED_FACE('',(#881),#950,.T.);
#982=ADVANCED_FACE('',(#882),#58,.T.);
#983=ADVANCED_FACE('',(#883),#951,.T.);
#984=ADVANCED_FACE('',(#884),#49,.T.);
#985=ADVANCED_FACE('',(#885),#50,.T.);
#986=ADVANCED_FACE('',(#886),#952,.T.);
#987=ADVANCED_FACE('',(#887),#35,.T.);
#988=ADVANCED_FACE('',(#888),#953,.T.);
#989=ADVANCED_FACE('',(#889),#34,.T.);
#990=ADVANCED_FACE('',(#890),#31,.T.);
#991=ADVANCED_FACE('',(#891),#954,.T.);
#992=ADVANCED_FACE('',(#892),#36,.T.);
#993=ADVANCED_FACE('',(#893),#955,.T.);
#994=ADVANCED_FACE('',(#894),#51,.T.);
#995=ADVANCED_FACE('',(#895),#52,.T.);
#996=ADVANCED_FACE('',(#896),#956,.T.);
#997=ADVANCED_FACE('',(#897),#59,.T.);
#998=ADVANCED_FACE('',(#898),#957,.T.);
#999=ADVANCED_FACE('',(#899),#53,.T.);
#1000=ADVANCED_FACE('',(#900),#958,.F.);
#1001=ADVANCED_FACE('',(#901),#959,.F.);
#1002=ADVANCED_FACE('',(#902),#12,.T.);
#1003=ADVANCED_FACE('',(#903),#13,.T.);
#1004=ADVANCED_FACE('',(#904),#960,.F.);
#1005=ADVANCED_FACE('',(#905),#961,.F.);
#1006=ADVANCED_FACE('',(#906),#962,.F.);
#1007=ADVANCED_FACE('',(#907),#963,.T.);
#1008=ADVANCED_FACE('',(#908),#14,.T.);
#1009=ADVANCED_FACE('',(#909,#910,#911,#912),#15,.F.);
#1010=ADVANCED_FACE('',(#913),#16,.T.);
#1011=ADVANCED_FACE('',(#914),#17,.F.);
#1012=ADVANCED_FACE('',(#915),#18,.T.);
#1013=ADVANCED_FACE('',(#916,#917,#918),#19,.F.);
#1014=ADVANCED_FACE('',(#919,#920),#964,.F.);
#1015=ADVANCED_FACE('',(#921,#922),#965,.F.);
#1016=ADVANCED_FACE('',(#923),#20,.T.);
#1017=ADVANCED_FACE('',(#924),#21,.F.);
#1018=ADVANCED_FACE('',(#925),#22,.F.);
#1019=ADVANCED_FACE('',(#926,#927),#23,.T.);
#1020=ADVANCED_FACE('',(#928,#929),#24,.T.);
#1021=ADVANCED_FACE('',(#930),#25,.F.);
#1022=ADVANCED_FACE('',(#931),#26,.T.);
#1023=ADVANCED_FACE('',(#932),#27,.F.);
#1024=ADVANCED_FACE('',(#933),#28,.T.);
#1025=ADVANCED_FACE('',(#934),#29,.T.);
#1026=ADVANCED_FACE('',(#935,#936,#937),#30,.T.);
#1027=ADVANCED_FACE('',(#938,#939),#966,.F.);
#1028=ADVANCED_FACE('',(#940,#941),#967,.F.);
#1029=CLOSED_SHELL('',(#968,#969,#970,#971,#972,#973,#974,#975,#976,#977,
#978,#979,#980,#981,#982,#983,#984,#985,#986,#987,#988,#989,#990,#991,#992,
#993,#994,#995,#996,#997,#998,#999,#1000,#1001,#1002,#1003,#1004,#1005,
#1006,#1007,#1008,#1009,#1010,#1011,#1012,#1013,#1014,#1015,#1016,#1017,
#1018,#1019,#1020,#1021,#1022,#1023,#1024,#1025,#1026,#1027,#1028));
#1030=STYLED_ITEM('',(#1031),#1038);
#1031=PRESENTATION_STYLE_ASSIGNMENT((#1032));
#1032=SURFACE_STYLE_USAGE(.BOTH.,#1033);
#1033=SURFACE_SIDE_STYLE('',(#1034));
#1034=SURFACE_STYLE_FILL_AREA(#1035);
#1035=FILL_AREA_STYLE('',(#1036));
#1036=FILL_AREA_STYLE_COLOUR('',#1037);
#1037=DRAUGHTING_PRE_DEFINED_COLOUR('red');
#1038=MANIFOLD_SOLID_BREP('Part 2',#1029);
#1039=SHAPE_DEFINITION_REPRESENTATION(#1904,#1040);
#1040=SHAPE_REPRESENTATION('Part 2',(#1041),#1899);
#1041=AXIS2_PLACEMENT_3D('',#1484,#1165,#1166);
#1042=AXIS2_PLACEMENT_3D('',#1485,#1167,#1168);
#1043=AXIS2_PLACEMENT_3D('',#1486,#1169,#1170);
#1044=AXIS2_PLACEMENT_3D('',#1493,#1173,#1174);
#1045=AXIS2_PLACEMENT_3D('',#1498,#1177,#1178);
#1046=AXIS2_PLACEMENT_3D('',#1499,#1179,#1180);
#1047=AXIS2_PLACEMENT_3D('',#1501,#1181,#1182);
#1048=AXIS2_PLACEMENT_3D('',#1502,#1183,#1184);
#1049=AXIS2_PLACEMENT_3D('',#1503,#1185,#1186);
#1050=AXIS2_PLACEMENT_3D('',#1508,#1189,#1190);
#1051=AXIS2_PLACEMENT_3D('',#1509,#1191,#1192);
#1052=AXIS2_PLACEMENT_3D('',#1514,#1195,#1196);
#1053=AXIS2_PLACEMENT_3D('',#1515,#1197,#1198);
#1054=AXIS2_PLACEMENT_3D('',#1517,#1199,#1200);
#1055=AXIS2_PLACEMENT_3D('',#1518,#1201,#1202);
#1056=AXIS2_PLACEMENT_3D('',#1519,#1203,#1204);
#1057=AXIS2_PLACEMENT_3D('',#1521,#1205,#1206);
#1058=AXIS2_PLACEMENT_3D('',#1522,#1207,#1208);
#1059=AXIS2_PLACEMENT_3D('',#1527,#1211,#1212);
#1060=AXIS2_PLACEMENT_3D('',#1532,#1215,#1216);
#1061=AXIS2_PLACEMENT_3D('',#1533,#1217,#1218);
#1062=AXIS2_PLACEMENT_3D('',#1538,#1221,#1222);
#1063=AXIS2_PLACEMENT_3D('',#1539,#1223,#1224);
#1064=AXIS2_PLACEMENT_3D('',#1543,#1227,#1228);
#1065=AXIS2_PLACEMENT_3D('',#1548,#1231,#1232);
#1066=AXIS2_PLACEMENT_3D('',#1553,#1235,#1236);
#1067=AXIS2_PLACEMENT_3D('',#1554,#1237,#1238);
#1068=AXIS2_PLACEMENT_3D('',#1555,#1239,#1240);
#1069=AXIS2_PLACEMENT_3D('',#1560,#1243,#1244);
#1070=AXIS2_PLACEMENT_3D('',#1565,#1247,#1248);
#1071=AXIS2_PLACEMENT_3D('',#1573,#1249,#1250);
#1072=AXIS2_PLACEMENT_3D('',#1575,#1251,#1252);
#1073=AXIS2_PLACEMENT_3D('',#1577,#1253,#1254);
#1074=AXIS2_PLACEMENT_3D('',#1578,#1255,#1256);
#1075=AXIS2_PLACEMENT_3D('',#1579,#1257,#1258);
#1076=AXIS2_PLACEMENT_3D('',#1584,#1261,#1262);
#1077=AXIS2_PLACEMENT_3D('',#1585,#1263,#1264);
#1078=AXIS2_PLACEMENT_3D('',#1587,#1265,#1266);
#1079=AXIS2_PLACEMENT_3D('',#1588,#1267,#1268);
#1080=AXIS2_PLACEMENT_3D('',#1589,#1269,#1270);
#1081=AXIS2_PLACEMENT_3D('',#1594,#1273,#1274);
#1082=AXIS2_PLACEMENT_3D('',#1602,#1275,#1276);
#1083=AXIS2_PLACEMENT_3D('',#1603,#1277,#1278);
#1084=AXIS2_PLACEMENT_3D('',#1604,#1279,#1280);
#1085=AXIS2_PLACEMENT_3D('',#1605,#1281,#1282);
#1086=AXIS2_PLACEMENT_3D('',#1608,#1283,#1284);
#1087=AXIS2_PLACEMENT_3D('',#1609,#1285,#1286);
#1088=AXIS2_PLACEMENT_3D('',#1610,#1287,#1288);
#1089=AXIS2_PLACEMENT_3D('',#1611,#1289,#1290);
#1090=AXIS2_PLACEMENT_3D('',#1616,#1293,#1294);
#1091=AXIS2_PLACEMENT_3D('',#1617,#1295,#1296);
#1092=AXIS2_PLACEMENT_3D('',#1620,#1297,#1298);
#1093=AXIS2_PLACEMENT_3D('',#1621,#1299,#1300);
#1094=AXIS2_PLACEMENT_3D('',#1622,#1301,#1302);
#1095=AXIS2_PLACEMENT_3D('',#1623,#1303,#1304);
#1096=AXIS2_PLACEMENT_3D('',#1682,#1307,#1308);
#1097=AXIS2_PLACEMENT_3D('',#1734,#1309,#1310);
#1098=AXIS2_PLACEMENT_3D('',#1736,#1311,#1312);
#1099=AXIS2_PLACEMENT_3D('',#1742,#1313,#1314);
#1100=AXIS2_PLACEMENT_3D('',#1743,#1315,#1316);
#1101=AXIS2_PLACEMENT_3D('',#1748,#1319,#1320);
#1102=AXIS2_PLACEMENT_3D('',#1749,#1321,#1322);
#1103=AXIS2_PLACEMENT_3D('',#1752,#1323,#1324);
#1104=AXIS2_PLACEMENT_3D('',#1753,#1325,#1326);
#1105=AXIS2_PLACEMENT_3D('',#1754,#1327,#1328);
#1106=AXIS2_PLACEMENT_3D('',#1755,#1329,#1330);
#1107=AXIS2_PLACEMENT_3D('',#1760,#1333,#1334);
#1108=AXIS2_PLACEMENT_3D('',#1768,#1335,#1336);
#1109=AXIS2_PLACEMENT_3D('',#1769,#1337,#1338);
#1110=AXIS2_PLACEMENT_3D('',#1770,#1339,#1340);
#1111=AXIS2_PLACEMENT_3D('',#1771,#1341,#1342);
#1112=AXIS2_PLACEMENT_3D('',#1774,#1343,#1344);
#1113=AXIS2_PLACEMENT_3D('',#1775,#1345,#1346);
#1114=AXIS2_PLACEMENT_3D('',#1776,#1347,#1348);
#1115=AXIS2_PLACEMENT_3D('',#1777,#1349,#1350);
#1116=AXIS2_PLACEMENT_3D('',#1782,#1353,#1354);
#1117=AXIS2_PLACEMENT_3D('',#1783,#1355,#1356);
#1118=AXIS2_PLACEMENT_3D('',#1785,#1357,#1358);
#1119=AXIS2_PLACEMENT_3D('',#1786,#1359,#1360);
#1120=AXIS2_PLACEMENT_3D('',#1787,#1361,#1362);
#1121=AXIS2_PLACEMENT_3D('',#1792,#1365,#1366);
#1122=AXIS2_PLACEMENT_3D('',#1800,#1367,#1368);
#1123=AXIS2_PLACEMENT_3D('',#1801,#1369,#1370);
#1124=AXIS2_PLACEMENT_3D('',#1802,#1371,#1372);
#1125=AXIS2_PLACEMENT_3D('',#1805,#1375,#1376);
#1126=AXIS2_PLACEMENT_3D('',#1808,#1379,#1380);
#1127=AXIS2_PLACEMENT_3D('',#1810,#1382,#1383);
#1128=AXIS2_PLACEMENT_3D('',#1812,#1385,#1386);
#1129=AXIS2_PLACEMENT_3D('',#1813,#1387,#1388);
#1130=AXIS2_PLACEMENT_3D('',#1818,#1390,#1391);
#1131=AXIS2_PLACEMENT_3D('',#1821,#1393,#1394);
#1132=AXIS2_PLACEMENT_3D('',#1826,#1397,#1398);
#1133=AXIS2_PLACEMENT_3D('',#1827,#1399,#1400);
#1134=AXIS2_PLACEMENT_3D('',#1832,#1403,#1404);
#1135=AXIS2_PLACEMENT_3D('',#1833,#1405,#1406);
#1136=AXIS2_PLACEMENT_3D('',#1836,#1409,#1410);
#1137=AXIS2_PLACEMENT_3D('',#1838,#1412,#1413);
#1138=AXIS2_PLACEMENT_3D('',#1841,#1416,#1417);
#1139=AXIS2_PLACEMENT_3D('',#1843,#1418,#1419);
#1140=AXIS2_PLACEMENT_3D('',#1845,#1420,#1421);
#1141=AXIS2_PLACEMENT_3D('',#1847,#1423,#1424);
#1142=AXIS2_PLACEMENT_3D('',#1853,#1428,#1429);
#1143=AXIS2_PLACEMENT_3D('',#1858,#1430,#1431);
#1144=AXIS2_PLACEMENT_3D('',#1859,#1432,#1433);
#1145=AXIS2_PLACEMENT_3D('',#1865,#1437,#1438);
#1146=AXIS2_PLACEMENT_3D('',#1867,#1439,#1440);
#1147=AXIS2_PLACEMENT_3D('',#1868,#1441,#1442);
#1148=AXIS2_PLACEMENT_3D('',#1870,#1443,#1444);
#1149=AXIS2_PLACEMENT_3D('',#1871,#1445,#1446);
#1150=AXIS2_PLACEMENT_3D('',#1873,#1447,#1448);
#1151=AXIS2_PLACEMENT_3D('',#1877,#1451,#1452);
#1152=AXIS2_PLACEMENT_3D('',#1879,#1454,#1455);
#1153=AXIS2_PLACEMENT_3D('',#1880,#1456,#1457);
#1154=AXIS2_PLACEMENT_3D('',#1881,#1458,#1459);
#1155=AXIS2_PLACEMENT_3D('',#1882,#1460,#1461);
#1156=AXIS2_PLACEMENT_3D('',#1885,#1464,#1465);
#1157=AXIS2_PLACEMENT_3D('',#1887,#1467,#1468);
#1158=AXIS2_PLACEMENT_3D('',#1889,#1470,#1471);
#1159=AXIS2_PLACEMENT_3D('',#1890,#1472,#1473);
#1160=AXIS2_PLACEMENT_3D('',#1891,#1474,#1475);
#1161=AXIS2_PLACEMENT_3D('',#1892,#1476,#1477);
#1162=AXIS2_PLACEMENT_3D('',#1894,#1478,#1479);
#1163=AXIS2_PLACEMENT_3D('',#1896,#1480,#1481);
#1164=AXIS2_PLACEMENT_3D('',#1897,#1482,#1483);
#1165=DIRECTION('',(0.,0.,1.));
#1166=DIRECTION('',(1.,0.,0.));
#1167=DIRECTION('',(0.,-1.,0.));
#1168=DIRECTION('',(0.,0.,-1.));
#1169=DIRECTION('',(0.,1.,0.));
#1170=DIRECTION('',(0.,0.,1.));
#1171=DIRECTION('',(0.,-1.,0.));
#1172=DIRECTION('',(0.,1.,0.));
#1173=DIRECTION('',(0.,1.,0.));
#1174=DIRECTION('',(0.,0.,1.));
#1175=DIRECTION('',(0.,1.,0.));
#1176=DIRECTION('',(0.,-1.,0.));
#1177=DIRECTION('',(0.,1.,0.));
#1178=DIRECTION('',(0.,0.,1.));
#1179=DIRECTION('',(0.,0.,1.));
#1180=DIRECTION('',(1.,0.,0.));
#1181=DIRECTION('',(1.,0.,0.));
#1182=DIRECTION('',(0.,0.,-1.));
#1183=DIRECTION('',(0.,0.,-1.));
#1184=DIRECTION('',(-1.,0.,0.));
#1185=DIRECTION('',(0.,0.,-1.));
#1186=DIRECTION('',(-1.,0.,0.));
#1187=DIRECTION('',(0.,0.,1.));
#1188=DIRECTION('',(0.,0.,1.));
#1189=DIRECTION('',(-1.,0.,0.));
#1190=DIRECTION('',(0.,0.,1.));
#1191=DIRECTION('',(-1.,0.,0.));
#1192=DIRECTION('',(0.,0.,1.));
#1193=DIRECTION('',(1.,0.,0.));
#1194=DIRECTION('',(1.,0.,0.));
#1195=DIRECTION('',(0.,0.,-1.));
#1196=DIRECTION('',(-1.,0.,0.));
#1197=DIRECTION('',(0.,1.,0.));
#1198=DIRECTION('',(0.,0.,1.));
#1199=DIRECTION('',(1.,0.,0.));
#1200=DIRECTION('',(0.,0.,-1.));
#1201=DIRECTION('',(-1.,0.,0.));
#1202=DIRECTION('',(0.,0.,1.));
#1203=DIRECTION('',(0.,0.,1.));
#1204=DIRECTION('',(1.,0.,0.));
#1205=DIRECTION('',(0.,1.,0.));
#1206=DIRECTION('',(0.,0.,1.));
#1207=DIRECTION('',(0.,-1.,0.));
#1208=DIRECTION('',(0.,0.,-1.));
#1209=DIRECTION('',(0.,-1.,0.));
#1210=DIRECTION('',(0.,1.,0.));
#1211=DIRECTION('',(0.,1.,0.));
#1212=DIRECTION('',(0.,0.,1.));
#1213=DIRECTION('',(0.,1.,0.));
#1214=DIRECTION('',(0.,-1.,0.));
#1215=DIRECTION('',(1.,0.,0.));
#1216=DIRECTION('',(0.,0.,-1.));
#1217=DIRECTION('',(-1.,0.,0.));
#1218=DIRECTION('',(0.,0.,1.));
#1219=DIRECTION('',(-1.,0.,0.));
#1220=DIRECTION('',(-1.,0.,0.));
#1221=DIRECTION('',(0.,0.,1.));
#1222=DIRECTION('',(1.,0.,0.));
#1223=DIRECTION('',(0.,0.,-1.));
#1224=DIRECTION('',(-1.,0.,0.));
#1225=DIRECTION('',(0.,0.,-1.));
#1226=DIRECTION('',(0.,0.,-1.));
#1227=DIRECTION('',(0.,-1.,0.));
#1228=DIRECTION('',(0.,0.,-1.));
#1229=DIRECTION('',(0.,-1.,0.));
#1230=DIRECTION('',(0.,1.,0.));
#1231=DIRECTION('',(0.,1.,0.));
#1232=DIRECTION('',(0.,0.,1.));
#1233=DIRECTION('',(0.,1.,0.));
#1234=DIRECTION('',(0.,-1.,0.));
#1235=DIRECTION('',(-1.,0.,0.));
#1236=DIRECTION('',(0.,0.,1.));
#1237=DIRECTION('',(0.,1.,0.));
#1238=DIRECTION('',(0.,0.,1.));
#1239=DIRECTION('',(0.,-1.,0.));
#1240=DIRECTION('',(0.,0.,-1.));
#1241=DIRECTION('',(0.,-1.,0.));
#1242=DIRECTION('',(0.,1.,0.));
#1243=DIRECTION('',(0.,1.,0.));
#1244=DIRECTION('',(0.,0.,1.));
#1245=DIRECTION('',(0.,1.,0.));
#1246=DIRECTION('',(0.,-1.,0.));
#1247=DIRECTION('',(0.,0.,-1.));
#1248=DIRECTION('',(-1.,0.,0.));
#1249=DIRECTION('',(0.,0.,-1.));
#1250=DIRECTION('',(-1.,0.,0.));
#1251=DIRECTION('',(0.,-1.,0.));
#1252=DIRECTION('',(0.,0.,-1.));
#1253=DIRECTION('',(0.,0.,-1.));
#1254=DIRECTION('',(-1.,0.,0.));
#1255=DIRECTION('',(0.,-1.,0.));
#1256=DIRECTION('',(0.,0.,-1.));
#1257=DIRECTION('',(0.,-1.,0.));
#1258=DIRECTION('',(0.,0.,-1.));
#1259=DIRECTION('',(0.,1.,0.));
#1260=DIRECTION('',(0.,1.,0.));
#1261=DIRECTION('',(1.,0.,0.));
#1262=DIRECTION('',(0.,0.,-1.));
#1263=DIRECTION('',(0.,0.,-1.));
#1264=DIRECTION('',(-1.,0.,0.));
#1265=DIRECTION('',(-1.,0.,0.));
#1266=DIRECTION('',(0.,0.,1.));
#1267=DIRECTION('',(0.,0.,-1.));
#1268=DIRECTION('',(-1.,0.,0.));
#1269=DIRECTION('',(0.,0.,-1.));
#1270=DIRECTION('',(-1.,0.,0.));
#1271=DIRECTION('',(0.,0.,1.));
#1272=DIRECTION('',(0.,0.,1.));
#1273=DIRECTION('',(0.,1.,0.));
#1274=DIRECTION('',(0.,0.,1.));
#1275=DIRECTION('',(0.,1.,0.));
#1276=DIRECTION('',(0.,0.,1.));
#1277=DIRECTION('',(0.,1.,0.));
#1278=DIRECTION('',(0.,0.,1.));
#1279=DIRECTION('',(0.,-1.,0.));
#1280=DIRECTION('',(1.,0.,0.));
#1281=DIRECTION('',(1.,0.,0.));
#1282=DIRECTION('',(0.,0.,-1.));
#1283=DIRECTION('',(-3.96508223080413E-16,-1.,0.));
#1284=DIRECTION('',(1.,-3.96508223080413E-16,0.));
#1285=DIRECTION('',(-3.96508223080413E-16,-1.,0.));
#1286=DIRECTION('',(1.,-3.96508223080413E-16,0.));
#1287=DIRECTION('',(-1.,0.,0.));
#1288=DIRECTION('',(0.,-1.,0.));
#1289=DIRECTION('',(1.,0.,0.));
#1290=DIRECTION('',(0.,0.,-1.));
#1291=DIRECTION('',(1.,-3.96508223080413E-16,0.));
#1292=DIRECTION('',(1.,-3.96508223080413E-16,0.));
#1293=DIRECTION('',(0.,0.,-1.));
#1294=DIRECTION('',(-1.,0.,0.));
#1295=DIRECTION('',(-0.999999864261989,0.000521033592045094,0.));
#1296=DIRECTION('',(-0.000521033592045094,-0.999999864261989,0.));
#1297=DIRECTION('',(0.,0.,-1.));
#1298=DIRECTION('',(-1.,0.,0.));
#1299=DIRECTION('',(0.,0.,-1.));
#1300=DIRECTION('',(-1.,0.,0.));
#1301=DIRECTION('',(0.999999864261989,-0.00052103359204627,0.));
#1302=DIRECTION('',(0.00052103359204627,0.999999864261989,0.));
#1303=DIRECTION('',(-0.999999864261989,0.00052103359204646,0.));
#1304=DIRECTION('',(-0.00052103359204646,-0.999999864261989,0.));
#1305=DIRECTION('',(0.999999864261989,-0.00052103359204627,0.));
#1306=DIRECTION('',(0.999999864261989,-0.00052103359204627,0.));
#1307=DIRECTION('',(-0.00052103359204627,-0.999999864261989,0.));
#1308=DIRECTION('',(-0.999999864261989,0.00052103359204627,0.));
#1309=DIRECTION('',(-0.999999864261989,-0.00052103359204646,0.));
#1310=DIRECTION('',(0.00052103359204646,-0.999999864261989,0.));
#1311=DIRECTION('',(-0.000521033592046269,0.999999864261989,0.));
#1312=DIRECTION('',(-0.999999864261989,-0.000521033592046269,0.));
#1313=DIRECTION('',(0.999999864261989,0.000521033592046269,0.));
#1314=DIRECTION('',(-0.000521033592046269,0.999999864261989,0.));
#1315=DIRECTION('',(-0.999999864262142,-0.000521033297066778,0.));
#1316=DIRECTION('',(0.000521033297066778,-0.999999864262142,0.));
#1317=DIRECTION('',(-0.999999864261989,-0.000521033592046269,0.));
#1318=DIRECTION('',(-0.999999864261989,-0.000521033592046269,0.));
#1319=DIRECTION('',(0.,0.,-1.));
#1320=DIRECTION('',(-1.,0.,0.));
#1321=DIRECTION('',(1.,0.,0.));
#1322=DIRECTION('',(0.,0.,-1.));
#1323=DIRECTION('',(0.,0.,1.));
#1324=DIRECTION('',(-1.,0.,0.));
#1325=DIRECTION('',(0.,0.,-1.));
#1326=DIRECTION('',(-1.,0.,0.));
#1327=DIRECTION('',(-1.,0.,0.));
#1328=DIRECTION('',(0.,-1.,0.));
#1329=DIRECTION('',(1.,0.,0.));
#1330=DIRECTION('',(0.,0.,-1.));
#1331=DIRECTION('',(1.,-3.96508223080413E-16,0.));
#1332=DIRECTION('',(1.,-3.96508223080413E-16,0.));
#1333=DIRECTION('',(0.,-1.,0.));
#1334=DIRECTION('',(1.,0.,0.));
#1335=DIRECTION('',(-3.96508223080413E-16,-1.,0.));
#1336=DIRECTION('',(1.,-3.96508223080413E-16,0.));
#1337=DIRECTION('',(-3.96508223080413E-16,-1.,0.));
#1338=DIRECTION('',(1.,-3.96508223080413E-16,0.));
#1339=DIRECTION('',(0.,1.,0.));
#1340=DIRECTION('',(0.,0.,1.));
#1341=DIRECTION('',(0.,0.,1.));
#1342=DIRECTION('',(1.,0.,0.));
#1343=DIRECTION('',(0.,1.,0.));
#1344=DIRECTION('',(0.,0.,1.));
#1345=DIRECTION('',(0.,1.,0.));
#1346=DIRECTION('',(0.,0.,1.));
#1347=DIRECTION('',(0.,0.,1.));
#1348=DIRECTION('',(1.,0.,0.));
#1349=DIRECTION('',(0.,0.,1.));
#1350=DIRECTION('',(1.,0.,0.));
#1351=DIRECTION('',(0.,0.,1.));
#1352=DIRECTION('',(0.,0.,1.));
#1353=DIRECTION('',(1.,0.,0.));
#1354=DIRECTION('',(0.,0.,-1.));
#1355=DIRECTION('',(0.,1.,0.));
#1356=DIRECTION('',(0.,0.,1.));
#1357=DIRECTION('',(-1.,0.,0.));
#1358=DIRECTION('',(0.,0.,1.));
#1359=DIRECTION('',(0.,1.,0.));
#1360=DIRECTION('',(0.,0.,1.));
#1361=DIRECTION('',(0.,1.,0.));
#1362=DIRECTION('',(0.,0.,1.));
#1363=DIRECTION('',(0.,1.,0.));
#1364=DIRECTION('',(0.,1.,0.));
#1365=DIRECTION('',(0.,0.,-1.));
#1366=DIRECTION('',(-1.,0.,0.));
#1367=DIRECTION('',(0.,0.,-1.));
#1368=DIRECTION('',(-1.,0.,0.));
#1369=DIRECTION('',(0.,0.,-1.));
#1370=DIRECTION('',(-1.,0.,0.));
#1371=DIRECTION('',(0.,1.,0.));
#1372=DIRECTION('',(0.,0.,1.));
#1373=DIRECTION('',(0.,1.,0.));
#1374=DIRECTION('',(0.,1.,0.));
#1375=DIRECTION('',(0.,-1.,0.));
#1376=DIRECTION('',(0.,0.,-1.));
#1377=DIRECTION('',(0.,1.,0.));
#1378=DIRECTION('',(0.,1.,0.));
#1379=DIRECTION('',(0.,0.,1.));
#1380=DIRECTION('',(1.,0.,0.));
#1381=DIRECTION('',(-1.,0.,0.));
#1382=DIRECTION('',(0.,0.,-1.));
#1383=DIRECTION('',(1.,0.,0.));
#1384=DIRECTION('',(-1.,0.,0.));
#1385=DIRECTION('',(-1.,0.,0.));
#1386=DIRECTION('',(0.,0.,1.));
#1387=DIRECTION('',(1.,0.,0.));
#1388=DIRECTION('',(0.,0.,-1.));
#1389=DIRECTION('',(-1.,0.,0.));
#1390=DIRECTION('',(1.,0.,0.));
#1391=DIRECTION('',(0.,0.,-1.));
#1392=DIRECTION('',(-1.,0.,0.));
#1393=DIRECTION('',(0.,0.,1.));
#1394=DIRECTION('',(1.,0.,0.));
#1395=DIRECTION('',(0.,0.,-1.));
#1396=DIRECTION('',(0.,0.,-1.));
#1397=DIRECTION('',(0.,0.,1.));
#1398=DIRECTION('',(1.,0.,0.));
#1399=DIRECTION('',(0.,0.,-1.));
#1400=DIRECTION('',(-1.,0.,0.));
#1401=DIRECTION('',(0.,0.,-1.));
#1402=DIRECTION('',(0.,0.,-1.));
#1403=DIRECTION('',(0.,0.,1.));
#1404=DIRECTION('',(1.,0.,0.));
#1405=DIRECTION('',(-1.,0.,0.));
#1406=DIRECTION('',(0.,0.,1.));
#1407=DIRECTION('',(-1.,0.,0.));
#1408=DIRECTION('',(-1.,0.,0.));
#1409=DIRECTION('',(-1.,0.,0.));
#1410=DIRECTION('',(0.,0.,1.));
#1411=DIRECTION('',(0.,0.,-1.));
#1412=DIRECTION('',(0.,-1.,0.));
#1413=DIRECTION('',(1.,0.,0.));
#1414=DIRECTION('',(1.,0.,0.));
#1415=DIRECTION('',(-1.,0.,0.));
#1416=DIRECTION('',(0.,-1.,0.));
#1417=DIRECTION('',(0.,0.,-1.));
#1418=DIRECTION('',(0.,-1.,0.));
#1419=DIRECTION('',(0.,0.,-1.));
#1420=DIRECTION('',(1.,0.,0.));
#1421=DIRECTION('',(0.,0.,-1.));
#1422=DIRECTION('',(0.,0.,1.));
#1423=DIRECTION('',(0.,1.,0.));
#1424=DIRECTION('',(0.,0.,1.));
#1425=DIRECTION('',(0.,0.,-1.));
#1426=DIRECTION('',(0.,0.,1.));
#1427=DIRECTION('',(-1.,0.,0.));
#1428=DIRECTION('',(0.,1.,0.));
#1429=DIRECTION('',(0.,0.,1.));
#1430=DIRECTION('',(0.,0.,-1.));
#1431=DIRECTION('',(1.,0.,0.));
#1432=DIRECTION('',(0.,0.,1.));
#1433=DIRECTION('',(-1.,0.,0.));
#1434=DIRECTION('',(0.999999864261989,-0.00052103359204627,0.));
#1435=DIRECTION('',(-0.999999864261989,-0.000521033592046269,0.));
#1436=DIRECTION('',(1.,-3.96508223080413E-16,0.));
#1437=DIRECTION('',(0.,0.,-1.));
#1438=DIRECTION('',(-1.,0.,0.));
#1439=DIRECTION('',(0.,0.,1.));
#1440=DIRECTION('',(1.,0.,0.));
#1441=DIRECTION('',(0.,0.,1.));
#1442=DIRECTION('',(-1.,0.,0.));
#1443=DIRECTION('',(0.,0.,1.));
#1444=DIRECTION('',(1.,0.,0.));
#1445=DIRECTION('',(0.,0.,-1.));
#1446=DIRECTION('',(-1.,0.,0.));
#1447=DIRECTION('',(-0.00052103359204627,-0.999999864261989,0.));
#1448=DIRECTION('',(0.999999864261989,-0.00052103359204627,0.));
#1449=DIRECTION('',(0.999999864261989,-0.00052103359204627,0.));
#1450=DIRECTION('',(0.,0.,1.));
#1451=DIRECTION('',(-0.000521033592046269,0.999999864261989,0.));
#1452=DIRECTION('',(-0.999999864261989,-0.000521033592046269,0.));
#1453=DIRECTION('',(-0.999999864261989,-0.000521033592046269,0.));
#1454=DIRECTION('',(0.,-1.,0.));
#1455=DIRECTION('',(1.,0.,0.));
#1456=DIRECTION('',(0.,0.,-1.));
#1457=DIRECTION('',(-1.,0.,0.));
#1458=DIRECTION('',(0.,0.,-1.));
#1459=DIRECTION('',(-1.,0.,0.));
#1460=DIRECTION('',(0.,0.,-1.));
#1461=DIRECTION('',(-1.,0.,0.));
#1462=DIRECTION('',(0.,1.,0.));
#1463=DIRECTION('',(0.,1.,0.));
#1464=DIRECTION('',(1.,0.,0.));
#1465=DIRECTION('',(0.,0.,-1.));
#1466=DIRECTION('',(0.,-1.,0.));
#1467=DIRECTION('',(1.,0.,0.));
#1468=DIRECTION('',(0.,0.,-1.));
#1469=DIRECTION('',(0.,1.,0.));
#1470=DIRECTION('',(0.,0.,-1.));
#1471=DIRECTION('',(1.,0.,0.));
#1472=DIRECTION('',(0.,0.,1.));
#1473=DIRECTION('',(1.,0.,0.));
#1474=DIRECTION('',(0.,-1.,0.));
#1475=DIRECTION('',(1.,0.,0.));
#1476=DIRECTION('',(0.,-1.,0.));
#1477=DIRECTION('',(0.,0.,-1.));
#1478=DIRECTION('',(0.,-1.,0.));
#1479=DIRECTION('',(0.,0.,-1.));
#1480=DIRECTION('',(0.,-1.,0.));
#1481=DIRECTION('',(0.,0.,-1.));
#1482=DIRECTION('',(0.,-1.,0.));
#1483=DIRECTION('',(0.,0.,-1.));
#1484=CARTESIAN_POINT('',(0.,0.,0.));
#1485=CARTESIAN_POINT('',(0.041148,-0.136335310486921,0.0266171771915424));
#1486=CARTESIAN_POINT('',(0.041148,-0.137097310486921,0.0266171771915424));
#1487=CARTESIAN_POINT('',(0.041148,-0.137097310486921,0.0273791771915423));
#1488=CARTESIAN_POINT('',(0.04191,-0.137097310486921,0.0266171771915424));
#1489=CARTESIAN_POINT('',(0.041148,-0.136386562766738,0.0273791771915423));
#1490=CARTESIAN_POINT('',(0.041148,-0.140145310486921,0.0273791771915423));
#1491=CARTESIAN_POINT('',(0.041148,-0.141415310486921,0.0273791771915423));
#1492=CARTESIAN_POINT('',(0.041148,-0.141415310486921,0.0273791771915423));
#1493=CARTESIAN_POINT('',(0.041148,-0.141415310486921,0.0266171771915424));
#1494=CARTESIAN_POINT('',(0.04191,-0.141415310486921,0.0266171771915424));
#1495=CARTESIAN_POINT('',(0.04191,-0.141415310486921,0.0266171771915424));
#1496=CARTESIAN_POINT('',(0.04191,-0.140145310486921,0.0266171771915424));
#1497=CARTESIAN_POINT('',(0.04191,-0.136335310486921,0.0266171771915424));
#1498=CARTESIAN_POINT('',(0.041148,-0.137097310486921,0.0266171771915424));
#1499=CARTESIAN_POINT('',(0.041148,-0.137097310486921,0.0266171771915424));
#1500=CARTESIAN_POINT('',(0.041148,-0.136335310486921,0.0266171771915424));
#1501=CARTESIAN_POINT('',(0.041148,-0.137097310486921,0.0266171771915424));
#1502=CARTESIAN_POINT('',(0.041148,-0.137097310486921,0.0229345885957712));
#1503=CARTESIAN_POINT('',(0.041148,-0.137097310486921,0.019252));
#1504=CARTESIAN_POINT('',(0.041148,-0.136335310486921,0.019252));
#1505=CARTESIAN_POINT('',(0.04191,-0.137097310486921,0.019252));
#1506=CARTESIAN_POINT('',(0.041148,-0.136335310486921,0.01849));
#1507=CARTESIAN_POINT('',(0.04191,-0.137097310486921,0.0273791771915423));
#1508=CARTESIAN_POINT('',(0.,-0.137097310486921,0.0266171771915424));
#1509=CARTESIAN_POINT('',(-0.041148,-0.137097310486921,0.0266171771915424));
#1510=CARTESIAN_POINT('',(-0.041148,-0.137097310486921,0.0273791771915423));
#1511=CARTESIAN_POINT('',(-0.041148,-0.136335310486921,0.0266171771915424));
#1512=CARTESIAN_POINT('',(-0.04191,-0.137097310486921,0.0273791771915423));
#1513=CARTESIAN_POINT('',(0.04191,-0.136335310486921,0.0266171771915424));
#1514=CARTESIAN_POINT('',(0.041148,-0.137097310486921,0.019252));
#1515=CARTESIAN_POINT('',(0.041148,-0.137097310486921,0.019252));
#1516=CARTESIAN_POINT('',(0.041148,-0.137097310486921,0.01849));
#1517=CARTESIAN_POINT('',(0.041148,-0.137097310486921,0.019252));
#1518=CARTESIAN_POINT('',(-0.041148,-0.137097310486921,0.0266171771915424));
#1519=CARTESIAN_POINT('',(-0.041148,-0.137097310486921,0.0266171771915424));
#1520=CARTESIAN_POINT('',(-0.04191,-0.137097310486921,0.0266171771915424));
#1521=CARTESIAN_POINT('',(-0.041148,-0.137097310486921,0.0266171771915424));
#1522=CARTESIAN_POINT('',(0.041148,-0.131359118089098,0.019252));
#1523=CARTESIAN_POINT('',(0.04191,-0.136335310486921,0.019252));
#1524=CARTESIAN_POINT('',(0.04191,-0.140145310486921,0.019252));
#1525=CARTESIAN_POINT('',(0.04191,-0.141415310486921,0.019252));
#1526=CARTESIAN_POINT('',(0.04191,-0.141415310486921,0.019252));
#1527=CARTESIAN_POINT('',(0.041148,-0.141415310486921,0.019252));
#1528=CARTESIAN_POINT('',(0.041148,-0.141415310486921,0.01849));
#1529=CARTESIAN_POINT('',(0.041148,-0.141415310486921,0.01849));
#1530=CARTESIAN_POINT('',(0.041148,-0.140145310486921,0.01849));
#1531=CARTESIAN_POINT('',(0.041148,-0.131359118089098,0.01849));
#1532=CARTESIAN_POINT('',(0.,-0.137097310486921,0.019252));
#1533=CARTESIAN_POINT('',(-0.041148,-0.137097310486921,0.019252));
#1534=CARTESIAN_POINT('',(-0.041148,-0.136335310486921,0.019252));
#1535=CARTESIAN_POINT('',(-0.041148,-0.137097310486921,0.01849));
#1536=CARTESIAN_POINT('',(-0.04191,-0.136335310486921,0.019252));
#1537=CARTESIAN_POINT('',(0.04191,-0.137097310486921,0.01849));
#1538=CARTESIAN_POINT('',(-0.041148,-0.137097310486921,0.0229345885957712));
#1539=CARTESIAN_POINT('',(-0.041148,-0.137097310486921,0.019252));
#1540=CARTESIAN_POINT('',(-0.04191,-0.137097310486921,0.019252));
#1541=CARTESIAN_POINT('',(-0.04191,-0.137097310486921,0.01849));
#1542=CARTESIAN_POINT('',(-0.041148,-0.136335310486921,0.0273791771915423));
#1543=CARTESIAN_POINT('',(-0.041148,-0.136386562766738,0.0266171771915424));
#1544=CARTESIAN_POINT('',(-0.04191,-0.136335310486921,0.0266171771915424));
#1545=CARTESIAN_POINT('',(-0.04191,-0.140145310486921,0.0266171771915424));
#1546=CARTESIAN_POINT('',(-0.04191,-0.141415310486921,0.0266171771915424));
#1547=CARTESIAN_POINT('',(-0.04191,-0.141415310486921,0.0266171771915424));
#1548=CARTESIAN_POINT('',(-0.041148,-0.141415310486921,0.0266171771915424));
#1549=CARTESIAN_POINT('',(-0.041148,-0.141415310486921,0.0273791771915423));
#1550=CARTESIAN_POINT('',(-0.041148,-0.141415310486921,0.0273791771915423));
#1551=CARTESIAN_POINT('',(-0.041148,-0.140145310486921,0.0273791771915423));
#1552=CARTESIAN_POINT('',(-0.041148,-0.136386562766738,0.0273791771915423));
#1553=CARTESIAN_POINT('',(-0.041148,-0.137097310486921,0.019252));
#1554=CARTESIAN_POINT('',(-0.041148,-0.137097310486921,0.019252));
#1555=CARTESIAN_POINT('',(-0.041148,-0.136335310486921,0.019252));
#1556=CARTESIAN_POINT('',(-0.041148,-0.131359118089098,0.01849));
#1557=CARTESIAN_POINT('',(-0.041148,-0.140145310486921,0.01849));
#1558=CARTESIAN_POINT('',(-0.041148,-0.141415310486921,0.01849));
#1559=CARTESIAN_POINT('',(-0.041148,-0.141415310486921,0.01849));
#1560=CARTESIAN_POINT('',(-0.041148,-0.141415310486921,0.019252));
#1561=CARTESIAN_POINT('',(-0.04191,-0.141415310486921,0.019252));
#1562=CARTESIAN_POINT('',(-0.04191,-0.141415310486921,0.019252));
#1563=CARTESIAN_POINT('',(-0.04191,-0.140145310486921,0.019252));
#1564=CARTESIAN_POINT('',(-0.04191,-0.136335310486921,0.019252));
#1565=CARTESIAN_POINT('',(-0.02159,-0.133795310486921,0.0223));
#1566=CARTESIAN_POINT('',(-0.0171905909487751,-0.136335310486921,0.01976));
#1567=CARTESIAN_POINT('',(-0.0180710909596901,-0.136335310486921,0.01976));
#1568=CARTESIAN_POINT('',(-0.0197302978360524,-0.136335310486921,0.0204385679359184));
#1569=CARTESIAN_POINT('',(-0.0209771026261517,-0.136335310486921,0.0216871038269674));
#1570=CARTESIAN_POINT('',(-0.02159,-0.136335310486921,0.0223));
#1571=CARTESIAN_POINT('',(-0.0171905909487751,-0.136335310486921,0.01976));
#1572=CARTESIAN_POINT('',(-0.02159,-0.136335310486921,0.0223));
#1573=CARTESIAN_POINT('',(-0.02159,-0.133795310486921,0.0223));
#1574=CARTESIAN_POINT('',(-0.01905,-0.133795310486921,0.0223));
#1575=CARTESIAN_POINT('',(-0.01651,-0.133795310486921,0.0223));
#1576=CARTESIAN_POINT('',(-0.01651,-0.133795310486921,0.01976));
#1577=CARTESIAN_POINT('',(-0.02159,-0.133795310486921,0.01976));
#1578=CARTESIAN_POINT('',(-0.01651,-0.125009118089098,0.0223));
#1579=CARTESIAN_POINT('',(-0.01651,-0.122572925691276,0.0223));
#1580=CARTESIAN_POINT('',(-0.01905,-0.122572925691276,0.0223));
#1581=CARTESIAN_POINT('',(-0.01651,-0.122572925691276,0.01976));
#1582=CARTESIAN_POINT('',(-0.01651,-0.122572925691276,0.01976));
#1583=CARTESIAN_POINT('',(-0.01905,-0.133795310486921,0.0223));
#1584=CARTESIAN_POINT('',(-0.01651,-0.122572925691276,0.0223));
#1585=CARTESIAN_POINT('',(-0.01651,-0.122572925691276,0.0223));
#1586=CARTESIAN_POINT('',(-0.01651,-0.120032925691276,0.0223));
#1587=CARTESIAN_POINT('',(-0.01651,-0.122572925691276,0.0223));
#1588=CARTESIAN_POINT('',(-0.01651,-0.122572925691276,0.01976));
#1589=CARTESIAN_POINT('',(-0.01651,-0.122572925691276,0.02992));
#1590=CARTESIAN_POINT('',(-0.01905,-0.122572925691276,0.02992));
#1591=CARTESIAN_POINT('',(-0.01651,-0.120032925691276,0.02992));
#1592=CARTESIAN_POINT('',(-0.01651,-0.120032925691276,0.02992));
#1593=CARTESIAN_POINT('',(-0.01905,-0.122572925691276,0.0223));
#1594=CARTESIAN_POINT('',(-0.02159,-0.122572925691276,0.02992));
#1595=CARTESIAN_POINT('',(-0.0193902912755351,-0.122567962835681,0.0311900024242086));
#1596=CARTESIAN_POINT('',(-0.0193891674721117,-0.12190382080153,0.0311906512524176));
#1597=CARTESIAN_POINT('',(-0.0189115315729109,-0.120581868131376,0.0314664144673959));
#1598=CARTESIAN_POINT('',(-0.0177657559199602,-0.120032925691276,0.0321279283490579));
#1599=CARTESIAN_POINT('',(-0.0171905909487751,-0.120032925691276,0.0324600000000001));
#1600=CARTESIAN_POINT('',(-0.0171905909487751,-0.120027962845638,0.03246));
#1601=CARTESIAN_POINT('',(-0.0193902933749694,-0.122567962840915,0.0311900012120998));
#1602=CARTESIAN_POINT('',(-0.02159,-0.120032925691276,0.02992));
#1603=CARTESIAN_POINT('',(-0.02159,-0.122572925691276,0.02992));
#1604=CARTESIAN_POINT('',(-0.02159,-0.122563,0.02992));
#1605=CARTESIAN_POINT('',(-0.02159,-0.122563,0.035));
#1606=CARTESIAN_POINT('',(-0.02159,-0.122563,0.03246));
#1607=CARTESIAN_POINT('',(-0.02159,-0.120023,0.035));
#1608=CARTESIAN_POINT('',(-0.02159,-0.120023,0.02992));
#1609=CARTESIAN_POINT('',(-0.02159,-0.122563,0.02992));
#1610=CARTESIAN_POINT('',(1.61884144977975E-14,-0.122563,0.035));
#1611=CARTESIAN_POINT('',(-0.035,-0.122563,0.035));
#1612=CARTESIAN_POINT('',(-0.035,-0.122563,0.03246));
#1613=CARTESIAN_POINT('',(-0.035,-0.120023,0.035));
#1614=CARTESIAN_POINT('',(-0.0175,-0.120023,0.035));
#1615=CARTESIAN_POINT('',(-0.02159,-0.122563,0.03246));
#1616=CARTESIAN_POINT('',(-0.035,-0.125,0.035));
#1617=CARTESIAN_POINT('',(-0.0349986765746762,-0.127437000344775,0.035));
#1618=CARTESIAN_POINT('',(-0.0349986765748036,-0.127437000110067,0.03246));
#1619=CARTESIAN_POINT('',(-0.035,-0.129977,0.035));
#1620=CARTESIAN_POINT('',(-0.035,-0.125,0.035));
#1621=CARTESIAN_POINT('',(-0.035,-0.125,0.03246));
#1622=CARTESIAN_POINT('',(-0.0174986765746762,-0.127446118433873,0.035));
#1623=CARTESIAN_POINT('',(-0.02159,-0.127443986716643,0.035));
#1624=CARTESIAN_POINT('',(-0.0215900000002882,-0.127443987269731,0.03246));
#1625=CARTESIAN_POINT('',(-0.0215913234253238,-0.129983986371869,0.035));
#1626=CARTESIAN_POINT('',(-0.0175,-0.129986118089098,0.035));
#1627=CARTESIAN_POINT('',(-6.64084503210049E-5,-0.127455201232384,0.03246));
#1628=CARTESIAN_POINT('',(-0.0164832724701647,-0.129986647838367,0.0298718585178676));
#1629=CARTESIAN_POINT('',(-0.0167848793993406,-0.129986490691004,0.0298747010518673));
#1630=CARTESIAN_POINT('',(-0.0171084471687275,-0.129938227695271,0.0298777507948512));
#1631=CARTESIAN_POINT('',(-0.0177394331739756,-0.129694934444416,0.0298836987981746));
#1632=CARTESIAN_POINT('',(-0.0180435297728511,-0.129502165181808,0.0298865657422171));
#1633=CARTESIAN_POINT('',(-0.0187976964230525,-0.128757349455753,0.0298936771400948));
#1634=CARTESIAN_POINT('',(-0.0190501128263991,-0.128049874179566,0.0298960595449881));
#1635=CARTESIAN_POINT('',(-0.0190501127984835,-0.127446633450107,0.029896062506968));
#1636=CARTESIAN_POINT('',(-0.0164705934922103,-0.129986654444541,0.0312171664874698));
#1637=CARTESIAN_POINT('',(-0.0167729488629196,-0.129986496907218,0.0311405747464466));
#1638=CARTESIAN_POINT('',(-0.0170973195954499,-0.129938233556066,0.0310583997836062));
#1639=CARTESIAN_POINT('',(-0.0177298716626467,-0.129694939866317,0.0308981315399887));
#1640=CARTESIAN_POINT('',(-0.0180347231235156,-0.129502170525086,0.0308208820731967));
#1641=CARTESIAN_POINT('',(-0.0187907624860801,-0.128757354987622,0.0306292663045779));
#1642=CARTESIAN_POINT('',(-0.0190438068615629,-0.128049880359342,0.0305650726941183));
#1643=CARTESIAN_POINT('',(-0.0190438083938189,-0.127446640019745,0.0305649928912841));
#1644=CARTESIAN_POINT('',(-0.017018403108964,-0.12998636901729,0.0325622593312055));
#1645=CARTESIAN_POINT('',(-0.0172884256749115,-0.129986228326445,0.0324062445077395));
#1646=CARTESIAN_POINT('',(-0.0175781081772735,-0.12993798032925,0.0322388565524767));
#1647=CARTESIAN_POINT('',(-0.0181430044360485,-0.129694705599084,0.0319123950461919));
#1648=CARTESIAN_POINT('',(-0.0184152440882147,-0.129501939654012,0.0317550403859659));
#1649=CARTESIAN_POINT('',(-0.0190903727999982,-0.12875711596903,0.0313647275647686));
#1650=CARTESIAN_POINT('',(-0.0193162760407065,-0.128049613351948,0.0312339726641563));
#1651=CARTESIAN_POINT('',(-0.0193161975536008,-0.127446356171891,0.0312338162373273));
#1652=CARTESIAN_POINT('',(-0.0189060836098582,-0.129985385472205,0.0344678176805313));
#1653=CARTESIAN_POINT('',(-0.0190646541693466,-0.129985302851605,0.034199259560634));
#1654=CARTESIAN_POINT('',(-0.0192347634217243,-0.129937107784129,0.0339111189297376));
#1655=CARTESIAN_POINT('',(-0.0195664538723242,-0.129693898418451,0.0333491528093013));
#1656=CARTESIAN_POINT('',(-0.0197262882455716,-0.129501144185175,0.0330782874082588));
#1657=CARTESIAN_POINT('',(-0.0201225842727622,-0.128756292419579,0.0324064567986734));
#1658=CARTESIAN_POINT('',(-0.0202550462074679,-0.128048693312914,0.0321814776682199));
#1659=CARTESIAN_POINT('',(-0.0202548133244933,-0.127445378071038,0.0321813197765839));
#1660=CARTESIAN_POINT('',(-0.0202459537661413,-0.12998468735475,0.03502828324043));
#1661=CARTESIAN_POINT('',(-0.0203254122370948,-0.12998464595421,0.0347266049715741));
#1662=CARTESIAN_POINT('',(-0.0204106417314758,-0.129936488459759,0.0344029247035202));
#1663=CARTESIAN_POINT('',(-0.0205767875193321,-0.129693325495503,0.0337716472728465));
#1664=CARTESIAN_POINT('',(-0.0206568286592911,-0.129500579576967,0.0334673763214494));
#1665=CARTESIAN_POINT('',(-0.0208551991294117,-0.128755707877805,0.0327127249319378));
#1666=CARTESIAN_POINT('',(-0.0209213542741378,-0.128048040273895,0.0324600828010936));
#1667=CARTESIAN_POINT('',(-0.0209210399051153,-0.127444683818072,0.03246));
#1668=CARTESIAN_POINT('',(-0.0215913234253238,-0.129983986371869,0.0350282851811473));
#1669=CARTESIAN_POINT('',(-0.0215913234253238,-0.129983986371869,0.0347265862120161));
#1670=CARTESIAN_POINT('',(-0.0215912983533124,-0.12993586661845,0.0344028798351423));
#1671=CARTESIAN_POINT('',(-0.0215911716815092,-0.129692750266678,0.0337715535236631));
#1672=CARTESIAN_POINT('',(-0.0215910712587504,-0.129500012702872,0.0334672609628368));
#1673=CARTESIAN_POINT('',(-0.0215906831450898,-0.128755120984169,0.032712586984261));
#1674=CARTESIAN_POINT('',(-0.0215903143905952,-0.128047384573002,0.03246));
#1675=CARTESIAN_POINT('',(-0.02159,-0.127443986716643,0.03246));
#1676=CARTESIAN_POINT('',(-0.0171919143740988,-0.129986278612081,0.03246));
#1677=CARTESIAN_POINT('',(-0.0178433483994798,-0.129985939193026,0.03246));
#1678=CARTESIAN_POINT('',(-0.0184715105869726,-0.129800239148218,0.03246));
#1679=CARTESIAN_POINT('',(-0.0190500005543351,-0.129504441853626,0.03246));
#1680=CARTESIAN_POINT('',(-0.0171919143740988,-0.12998627861208,0.03246));
#1681=CARTESIAN_POINT('',(-0.01905,-0.129504440769514,0.03246));
#1682=CARTESIAN_POINT('',(-0.0215913234253238,-0.129983986371869,0.02992));
#1683=CARTESIAN_POINT('',(-0.01905,-0.12744663356765,0.02992));
#1684=CARTESIAN_POINT('',(-0.01905,-0.127446192425815,0.0305849704450098));
#1685=CARTESIAN_POINT('',(-0.0196003827740773,-0.127445310142146,0.0319096172259227));
#1686=CARTESIAN_POINT('',(-0.0209250295549902,-0.127444427858477,0.03246));
#1687=CARTESIAN_POINT('',(-0.02159,-0.127443986716643,0.03246));
#1688=CARTESIAN_POINT('',(-0.01905,-0.12744663356765,0.02992));
#1689=CARTESIAN_POINT('',(-0.01905,-0.129504440769514,0.03246));
#1690=CARTESIAN_POINT('',(-0.01905,-0.129392923491002,0.0322416438313348));
#1691=CARTESIAN_POINT('',(-0.01905,-0.129195115606405,0.0319112947510114));
#1692=CARTESIAN_POINT('',(-0.01905,-0.128901108163181,0.0315096961064473));
#1693=CARTESIAN_POINT('',(-0.01905,-0.128726238471559,0.0312884598413484));
#1694=CARTESIAN_POINT('',(-0.01905,-0.128560851485097,0.0310912513226961));
#1695=CARTESIAN_POINT('',(-0.01905,-0.128487237956861,0.0310076028089369));
#1696=CARTESIAN_POINT('',(-0.01905,-0.128335176896569,0.030837749090856));
#1697=CARTESIAN_POINT('',(-0.01905,-0.128040666449294,0.0305219892839256));
#1698=CARTESIAN_POINT('',(-0.01905,-0.12770428219141,0.0301776495076669));
#1699=CARTESIAN_POINT('',(-0.01905,-0.12744663356765,0.02992));
#1700=CARTESIAN_POINT('',(0.01905,-0.12744663356765,0.02992));
#1701=CARTESIAN_POINT('',(0.01905,-0.129985310486921,0.02992));
#1702=CARTESIAN_POINT('',(0.0165113234253238,-0.129986633222876,0.02992));
#1703=CARTESIAN_POINT('',(0.01905,-0.127446633567632,0.0305849704535998));
#1704=CARTESIAN_POINT('',(0.0190499998721843,-0.129985309614785,0.0305853165399275));
#1705=CARTESIAN_POINT('',(0.0165113234253215,-0.129986633222876,0.0312499409071972));
#1706=CARTESIAN_POINT('',(0.0196003827783709,-0.127446060031764,0.0319096172216278));
#1707=CARTESIAN_POINT('',(0.0196011193497435,-0.129985023771321,0.0319106763140695));
#1708=CARTESIAN_POINT('',(0.0176120889820667,-0.129986059686966,0.033899234443259));
#1709=CARTESIAN_POINT('',(0.0209250295464029,-0.127444679660597,0.03246));
#1710=CARTESIAN_POINT('',(0.0209263981411922,-0.12998433282031,0.0324603464483402));
#1711=CARTESIAN_POINT('',(0.0202613825181297,-0.129984679315851,0.0349999999999954));
#1712=CARTESIAN_POINT('',(0.02159,-0.127443986716643,0.03246));
#1713=CARTESIAN_POINT('',(0.0215913234253238,-0.129983986371869,0.03246));
#1714=CARTESIAN_POINT('',(0.0215913234253238,-0.129983986371869,0.035));
#1715=CARTESIAN_POINT('',(0.01905,-0.12744663356765,0.02992));
#1716=CARTESIAN_POINT('',(0.01905,-0.127704074707232,0.0301774420227769));
#1717=CARTESIAN_POINT('',(0.01905,-0.128040296298114,0.0305216175310537));
#1718=CARTESIAN_POINT('',(0.01905,-0.128334913978744,0.0308374883060238));
#1719=CARTESIAN_POINT('',(0.01905,-0.128487078852461,0.0310074399696747));
#1720=CARTESIAN_POINT('',(0.01905,-0.128560907898215,0.0310913220064303));
#1721=CARTESIAN_POINT('',(0.01905,-0.128726171923488,0.0312883399456738));
#1722=CARTESIAN_POINT('',(0.01905,-0.128901019245037,0.0315095160526752));
#1723=CARTESIAN_POINT('',(0.01905,-0.129194978750018,0.0319110312404988));
#1724=CARTESIAN_POINT('',(0.01905,-0.12939284905169,0.0322414980755984));
#1725=CARTESIAN_POINT('',(0.01905,-0.129504440769514,0.03246));
#1726=CARTESIAN_POINT('',(0.0190499999981844,-0.129504440769514,0.03246));
#1727=CARTESIAN_POINT('',(0.01905,-0.12744663356765,0.02992));
#1728=CARTESIAN_POINT('',(0.02159,-0.127443986716643,0.03246));
#1729=CARTESIAN_POINT('',(0.0209250295549902,-0.127444427858478,0.03246));
#1730=CARTESIAN_POINT('',(0.0196003827740773,-0.127445310142146,0.0319096172259227));
#1731=CARTESIAN_POINT('',(0.01905,-0.127446192425815,0.0305849704450098));
#1732=CARTESIAN_POINT('',(0.01905,-0.12744663356765,0.02992));
#1733=CARTESIAN_POINT('',(0.0215900000002814,-0.127443987256746,0.03246));
#1734=CARTESIAN_POINT('',(0.02159,-0.127443986716643,0.035));
#1735=CARTESIAN_POINT('',(0.0215913234253238,-0.129983986371869,0.035));
#1736=CARTESIAN_POINT('',(0.0215913234253238,-0.129983986371869,0.02992));
#1737=CARTESIAN_POINT('',(0.0171919143740988,-0.12998627861208,0.03246));
#1738=CARTESIAN_POINT('',(0.0190500000012655,-0.129504440775538,0.03246));
#1739=CARTESIAN_POINT('',(0.0184715343811439,-0.129800301998873,0.03246));
#1740=CARTESIAN_POINT('',(0.0178442030698791,-0.129985938683116,0.03246));
#1741=CARTESIAN_POINT('',(0.017191914374099,-0.129986278612585,0.03246));
#1742=CARTESIAN_POINT('',(6.64084503534789E-5,-0.127455201232384,0.035));
#1743=CARTESIAN_POINT('',(0.0349986765750586,-0.127436999640654,0.035));
#1744=CARTESIAN_POINT('',(0.0349986765753032,-0.127437000110067,0.03246));
#1745=CARTESIAN_POINT('',(0.035,-0.129977,0.035));
#1746=CARTESIAN_POINT('',(0.0175,-0.129986118089098,0.035));
#1747=CARTESIAN_POINT('',(0.0215886765746762,-0.127443987406192,0.03246));
#1748=CARTESIAN_POINT('',(0.035,-0.125,0.035));
#1749=CARTESIAN_POINT('',(0.035,-0.122563,0.035));
#1750=CARTESIAN_POINT('',(0.035,-0.122563,0.03246));
#1751=CARTESIAN_POINT('',(0.035,-0.120023,0.035));
#1752=CARTESIAN_POINT('',(0.035,-0.125,0.035));
#1753=CARTESIAN_POINT('',(0.035,-0.125,0.03246));
#1754=CARTESIAN_POINT('',(1.61884144977975E-14,-0.122563,0.035));
#1755=CARTESIAN_POINT('',(0.02159,-0.122563,0.035));
#1756=CARTESIAN_POINT('',(0.02159,-0.122563,0.03246));
#1757=CARTESIAN_POINT('',(0.02159,-0.120023,0.035));
#1758=CARTESIAN_POINT('',(-0.0175,-0.120023,0.035));
#1759=CARTESIAN_POINT('',(0.035,-0.122563,0.03246));
#1760=CARTESIAN_POINT('',(0.02159,-0.122563,0.02992));
#1761=CARTESIAN_POINT('',(0.0193902912755439,-0.122567962850375,0.0311900024242035));
#1762=CARTESIAN_POINT('',(0.0193914178770148,-0.121902166533998,0.031189351980541));
#1763=CARTESIAN_POINT('',(0.0189157682755213,-0.120574825265573,0.0314639684060033));
#1764=CARTESIAN_POINT('',(0.0177671885731252,-0.120023,0.0321271012063674));
#1765=CARTESIAN_POINT('',(0.0171905909487751,-0.120023,0.03246));
#1766=CARTESIAN_POINT('',(0.0171905909487751,-0.120027962845638,0.03246));
#1767=CARTESIAN_POINT('',(0.0193902933749777,-0.122567962845638,0.0311900012120948));
#1768=CARTESIAN_POINT('',(0.02159,-0.120023,0.02992));
#1769=CARTESIAN_POINT('',(0.02159,-0.122563,0.02992));
#1770=CARTESIAN_POINT('',(0.02159,-0.122572925691276,0.02992));
#1771=CARTESIAN_POINT('',(0.01651,-0.122572925691276,0.02992));
#1772=CARTESIAN_POINT('',(0.01905,-0.122572925691276,0.02992));
#1773=CARTESIAN_POINT('',(0.01651,-0.120032925691276,0.02992));
#1774=CARTESIAN_POINT('',(0.02159,-0.120032925691276,0.02992));
#1775=CARTESIAN_POINT('',(0.02159,-0.122572925691276,0.02992));
#1776=CARTESIAN_POINT('',(0.01651,-0.122572925691276,0.01976));
#1777=CARTESIAN_POINT('',(0.01651,-0.122572925691276,0.0223));
#1778=CARTESIAN_POINT('',(0.01905,-0.122572925691276,0.0223));
#1779=CARTESIAN_POINT('',(0.01651,-0.120032925691276,0.0223));
#1780=CARTESIAN_POINT('',(0.01651,-0.120032925691276,0.01976));
#1781=CARTESIAN_POINT('',(0.01905,-0.122572925691276,0.01976));
#1782=CARTESIAN_POINT('',(0.01651,-0.122572925691276,0.0223));
#1783=CARTESIAN_POINT('',(0.01651,-0.122572925691276,0.0223));
#1784=CARTESIAN_POINT('',(0.01651,-0.122572925691276,0.01976));
#1785=CARTESIAN_POINT('',(0.01651,-0.122572925691276,0.0223));
#1786=CARTESIAN_POINT('',(0.01651,-0.125009118089098,0.0223));
#1787=CARTESIAN_POINT('',(0.01651,-0.133795310486921,0.0223));
#1788=CARTESIAN_POINT('',(0.01905,-0.133795310486921,0.0223));
#1789=CARTESIAN_POINT('',(0.01651,-0.133795310486921,0.01976));
#1790=CARTESIAN_POINT('',(0.01651,-0.125009118089098,0.01976));
#1791=CARTESIAN_POINT('',(0.01905,-0.125009118089098,0.0223));
#1792=CARTESIAN_POINT('',(0.02159,-0.133795310486921,0.0223));
#1793=CARTESIAN_POINT('',(0.0171905909487751,-0.136335310486921,0.01976));
#1794=CARTESIAN_POINT('',(0.0180710909596901,-0.136335310486921,0.01976));
#1795=CARTESIAN_POINT('',(0.0197302978360524,-0.136335310486921,0.0204385679359184));
#1796=CARTESIAN_POINT('',(0.0209771026261517,-0.136335310486921,0.0216871038269674));
#1797=CARTESIAN_POINT('',(0.02159,-0.136335310486921,0.0223));
#1798=CARTESIAN_POINT('',(0.0171905909487751,-0.136335310486921,0.01976));
#1799=CARTESIAN_POINT('',(0.02159,-0.136335310486921,0.0223));
#1800=CARTESIAN_POINT('',(0.02159,-0.133795310486921,0.01976));
#1801=CARTESIAN_POINT('',(0.02159,-0.133795310486921,0.0223));
#1802=CARTESIAN_POINT('',(-0.02159,-0.125009118089098,0.02992));
#1803=CARTESIAN_POINT('',(-0.01905,-0.125009118089098,0.02992));
#1804=CARTESIAN_POINT('',(-0.02159,3.13638004456607E-15,0.03246));
#1805=CARTESIAN_POINT('',(0.02159,3.13638004456607E-15,0.02992));
#1806=CARTESIAN_POINT('',(0.02159,-0.120032925691276,0.03246));
#1807=CARTESIAN_POINT('',(0.01905,-0.129985310486921,0.02992));
#1808=CARTESIAN_POINT('',(0.,-0.136386562766738,0.0273791771915423));
#1809=CARTESIAN_POINT('',(0.448824692692671,-0.141415310486921,0.0273791771915423));
#1810=CARTESIAN_POINT('',(0.,-0.131359118089098,0.01849));
#1811=CARTESIAN_POINT('',(3.46944695195361E-18,-0.141415310486921,0.01849));
#1812=CARTESIAN_POINT('',(0.448824692692671,-0.132627815046554,0.0286491771915423));
#1813=CARTESIAN_POINT('',(0.01905,-0.132627815046554,0.0286491771915423));
#1814=CARTESIAN_POINT('',(0.01905,-0.132627815046554,0.0261091771915423));
#1815=CARTESIAN_POINT('',(0.01905,-0.130087815046554,0.0286491771915423));
#1816=CARTESIAN_POINT('',(0.448824692692671,-0.130087815046554,0.0286491771915423));
#1817=CARTESIAN_POINT('',(-0.01905,-0.130087815046554,0.0286491771915423));
#1818=CARTESIAN_POINT('',(-0.01905,-0.132627815046554,0.0286491771915423));
#1819=CARTESIAN_POINT('',(-0.01905,-0.132627815046554,0.0261091771915423));
#1820=CARTESIAN_POINT('',(0.448824692692671,-0.132627815046554,0.0261091771915423));
#1821=CARTESIAN_POINT('',(-0.02159,-0.133795310486921,0.0229345885957712));
#1822=CARTESIAN_POINT('',(-0.01905,-0.133795310486921,0.0261091771915423));
#1823=CARTESIAN_POINT('',(-0.01905,-0.133795310486921,0.0261091771915423));
#1824=CARTESIAN_POINT('',(-0.02159,-0.136335310486921,0.01976));
#1825=CARTESIAN_POINT('',(-0.02159,-0.136335310486921,0.0261091771915423));
#1826=CARTESIAN_POINT('',(-0.02159,-0.133795310486921,0.0261091771915423));
#1827=CARTESIAN_POINT('',(0.02159,-0.133795310486921,0.01976));
#1828=CARTESIAN_POINT('',(0.02159,-0.136335310486921,0.0229345885957712));
#1829=CARTESIAN_POINT('',(0.02159,-0.136335310486921,0.0261091771915423));
#1830=CARTESIAN_POINT('',(0.01905,-0.133795310486921,0.01976));
#1831=CARTESIAN_POINT('',(0.01905,-0.133795310486921,0.0261091771915423));
#1832=CARTESIAN_POINT('',(0.02159,-0.133795310486921,0.0261091771915423));
#1833=CARTESIAN_POINT('',(3.46944695195361E-18,-0.122572925691276,0.0223));
#1834=CARTESIAN_POINT('',(3.46944695195361E-18,-0.120032925691276,0.0223));
#1835=CARTESIAN_POINT('',(0.,-0.122572925691276,0.01976));
#1836=CARTESIAN_POINT('',(-0.04191,-0.136335310486921,0.0229345885957712));
#1837=CARTESIAN_POINT('',(-0.04191,-0.141415310486921,0.0229345885957712));
#1838=CARTESIAN_POINT('',(0.,-0.136335310486921,0.0229345885957712));
#1839=CARTESIAN_POINT('',(0.,-0.136335310486921,0.0261091771915423));
#1840=CARTESIAN_POINT('',(3.46944695195361E-18,-0.136335310486921,0.01976));
#1841=CARTESIAN_POINT('',(0.0375000012,-0.136335310486921,0.0229345885957711));
#1842=CARTESIAN_POINT('',(0.0375000012,-0.136335310486921,0.0207120885957711));
#1843=CARTESIAN_POINT('',(-0.0375000012,-0.136335310486921,0.0229345885957711));
#1844=CARTESIAN_POINT('',(-0.0375000012,-0.136335310486921,0.0207120885957711));
#1845=CARTESIAN_POINT('',(0.04191,-0.136335310486921,0.0229345885957712));
#1846=CARTESIAN_POINT('',(0.04191,-0.141415310486921,0.0229345885957712));
#1847=CARTESIAN_POINT('',(0.448824692692671,-0.130087815046554,0.0292845885957712));
#1848=CARTESIAN_POINT('',(-0.01905,-0.130087815046554,0.0292845885957712));
#1849=CARTESIAN_POINT('',(-0.01905,-0.130087815046554,0.03246));
#1850=CARTESIAN_POINT('',(0.01905,-0.130087815046554,0.01976));
#1851=CARTESIAN_POINT('',(0.01905,-0.130087815046554,0.03246));
#1852=CARTESIAN_POINT('',(0.448824692692671,-0.130087815046554,0.03246));
#1853=CARTESIAN_POINT('',(3.46944695195361E-18,-0.120032925691276,0.01976));
#1854=CARTESIAN_POINT('',(-0.0171905909487751,-0.120032925691276,0.03246));
#1855=CARTESIAN_POINT('',(-0.00573019698292503,-0.120032925691276,0.03246));
#1856=CARTESIAN_POINT('',(0.00573019698292504,-0.120032925691276,0.03246));
#1857=CARTESIAN_POINT('',(0.0171905909487751,-0.120032925691276,0.03246));
#1858=CARTESIAN_POINT('',(1.62370117351429E-14,3.13638004456607E-15,0.035));
#1859=CARTESIAN_POINT('',(0.035,-0.125,0.035));
#1860=CARTESIAN_POINT('',(0.033325,-0.125,0.035));
#1861=CARTESIAN_POINT('',(-0.0175,-0.129986118089098,0.035));
#1862=CARTESIAN_POINT('',(-2.11355896163629E-18,-0.129995236178197,0.035));
#1863=CARTESIAN_POINT('',(0.0175,-0.129986118089098,0.035));
#1864=CARTESIAN_POINT('',(-0.0175,-0.120023,0.035));
#1865=CARTESIAN_POINT('',(-0.035,-0.125,0.035));
#1866=CARTESIAN_POINT('',(-0.036675,-0.125,0.035));
#1867=CARTESIAN_POINT('',(0.035,-0.125,0.03246));
#1868=CARTESIAN_POINT('',(0.035,-0.125,0.03246));
#1869=CARTESIAN_POINT('',(0.033325,-0.125,0.03246));
#1870=CARTESIAN_POINT('',(-0.035,-0.125,0.03246));
#1871=CARTESIAN_POINT('',(-0.035,-0.125,0.03246));
#1872=CARTESIAN_POINT('',(-0.036675,-0.125,0.03246));
#1873=CARTESIAN_POINT('',(-0.0175,-0.129986118089098,0.03246));
#1874=CARTESIAN_POINT('',(-0.0175,-0.129986118089098,0.03246));
#1875=CARTESIAN_POINT('',(-2.11355896163629E-18,-0.129995236178197,0.03246));
#1876=CARTESIAN_POINT('',(-2.11355896163629E-18,-0.129995236178197,0.03246));
#1877=CARTESIAN_POINT('',(0.0175,-0.129986118089098,0.03246));
#1878=CARTESIAN_POINT('',(0.0175,-0.129986118089098,0.03246));
#1879=CARTESIAN_POINT('',(-0.0175,-0.120023,0.03246));
#1880=CARTESIAN_POINT('',(3.46944695195361E-18,-0.140145310486921,0.03246));
#1881=CARTESIAN_POINT('',(3.46944695195361E-18,-0.140145310486921,0.03246));
#1882=CARTESIAN_POINT('',(3.46944695195361E-18,-0.140145310486921,0.03246));
#1883=CARTESIAN_POINT('',(0.0190499999981844,-0.140145310486922,0.03246));
#1884=CARTESIAN_POINT('',(-0.01905,-0.140145310486921,0.03246));
#1885=CARTESIAN_POINT('',(0.01905,-0.125009118089098,0.01976));
#1886=CARTESIAN_POINT('',(0.01905,-0.125009118089098,0.0261091771915423));
#1887=CARTESIAN_POINT('',(-0.01905,-0.125009118089098,0.01976));
#1888=CARTESIAN_POINT('',(-0.01905,-0.135116562766738,0.0261091771915423));
#1889=CARTESIAN_POINT('',(0.,-0.125009118089098,0.01976));
#1890=CARTESIAN_POINT('',(0.448824692692671,-0.135116562766738,0.0261091771915423));
#1891=CARTESIAN_POINT('',(0.,-0.141415310486921,0.0229345885957711));
#1892=CARTESIAN_POINT('',(0.0375000012,-0.141415310486921,0.0229345885957711));
#1893=CARTESIAN_POINT('',(0.0375000012,-0.141415310486921,0.0207120885957711));
#1894=CARTESIAN_POINT('',(-0.0375000012,-0.141415310486921,0.0229345885957711));
#1895=CARTESIAN_POINT('',(-0.0375000012,-0.141415310486921,0.0207120885957711));
#1896=CARTESIAN_POINT('',(0.0375000012,-0.136333310486921,0.0229345885957711));
#1897=CARTESIAN_POINT('',(-0.0375000012,-0.136333310486921,0.0229345885957711));
#1898=MECHANICAL_DESIGN_GEOMETRIC_PRESENTATION_REPRESENTATION('',(#1030),
#1899);
#1899=(
GEOMETRIC_REPRESENTATION_CONTEXT(3)
GLOBAL_UNCERTAINTY_ASSIGNED_CONTEXT((#1900))
GLOBAL_UNIT_ASSIGNED_CONTEXT((#1903,#1902,#1901))
REPRESENTATION_CONTEXT('Part 2','TOP_LEVEL_ASSEMBLY_PART')
);
#1900=UNCERTAINTY_MEASURE_WITH_UNIT(LENGTH_MEASURE(5.95541476559351E-5),
#1903,'DISTANCE_ACCURACY_VALUE','Maximum Tolerance applied to model');
#1901=(
NAMED_UNIT(*)
SI_UNIT($,.STERADIAN.)
SOLID_ANGLE_UNIT()
);
#1902=(
NAMED_UNIT(*)
PLANE_ANGLE_UNIT()
SI_UNIT($,.RADIAN.)
);
#1903=(
LENGTH_UNIT()
NAMED_UNIT(*)
SI_UNIT($,.METRE.)
);
#1904=PRODUCT_DEFINITION_SHAPE('','',#1905);
#1905=PRODUCT_DEFINITION('','',#1907,#1906);
#1906=PRODUCT_DEFINITION_CONTEXT('',#1913,'design');
#1907=PRODUCT_DEFINITION_FORMATION_WITH_SPECIFIED_SOURCE('','',#1909,
 .NOT_KNOWN.);
#1908=PRODUCT_RELATED_PRODUCT_CATEGORY('','',(#1909));
#1909=PRODUCT('Part 2','Part 2','Part 2',(#1911));
#1910=PRODUCT_CATEGORY('','');
#1911=PRODUCT_CONTEXT('',#1913,'mechanical');
#1912=APPLICATION_PROTOCOL_DEFINITION('international standard',
'ap242_managed_model_based_3d_engineering',2020,#1913);
#1913=APPLICATION_CONTEXT('managed model based 3d engineering');
ENDSEC;
END-ISO-10303-21;
