ISO-10303-21;
HEADER;
/* Generated by software containing ST-Developer
 * from STEP Tools, Inc. (www.steptools.com) 
 */
/* OPTION: using custom renumber hook */

FILE_DESCRIPTION(
/* description */ ('STEP AP242 Edition 2',
'CAx-IF Rec.Pracs.---Representation and Presentation of Product Manufa
cturing Information (PMI)---4.0---2014-10-13',
'CAx-IF Rec.Pracs.---3D Tessellated Geometry---0.4---2014-09-14','2;1',
'CAx-IF Rec.Pracs.---User Defined Attributes---1.5---2016-08-15'),
/* implementation_level */ '2;1');

FILE_NAME(
/* name */ 'DEXI+Assembled parts - DEXI Assembled v16 - Part 2',
/* time_stamp */ '2026-04-16T02:46:29Z',
/* author */ (''),
/* organization */ (''),
/* preprocessor_version */ 'ST-DEVELOPER v20',
/* originating_system */ 'ONSHAPE BY PTC INC, 1.213',
/* authorisation */ '  ');

FILE_SCHEMA (('AP242_MANAGED_MODEL_BASED_3D_ENGINEERING_MIM_LF { 1 0 10303 442 3 1 4 }'));
ENDSEC;

DATA;
#10=SHAPE_REPRESENTATION_RELATIONSHIP('','',#993,#11);
#11=ADVANCED_BREP_SHAPE_REPRESENTATION('',(#991),#1777);
#12=(
BOUNDED_SURFACE()
B_SPLINE_SURFACE(3,2,((#1700,#1701,#1702),(#1703,#1704,#1705),(#1706,#1707,
#1708),(#1709,#1710,#1711),(#1712,#1713,#1714)),.UNSPECIFIED.,.F.,.F.,.F.)
B_SPLINE_SURFACE_WITH_KNOTS((4,1,4),(3,3),(0.,0.785398163397448,1.5707963267949),
(0.,1.),.UNSPECIFIED.)
GEOMETRIC_REPRESENTATION_ITEM()
RATIONAL_B_SPLINE_SURFACE(((1.,0.707290970390562,1.),(1.,0.707290975136059,
1.),(1.,0.707251063565997,1.),(1.,0.707155008088392,1.),(1.,0.707106781186548,
1.)))
REPRESENTATION_ITEM('')
SURFACE()
);
#13=(
BOUNDED_SURFACE()
B_SPLINE_SURFACE(3,2,((#1715,#1716,#1717),(#1718,#1719,#1720),(#1721,#1722,
#1723),(#1724,#1725,#1726),(#1727,#1728,#1729)),.UNSPECIFIED.,.F.,.F.,.F.)
B_SPLINE_SURFACE_WITH_KNOTS((4,1,4),(3,3),(3.13216787562902,3.92227842800686,
4.71238898038469),(0.,1.),.UNSPECIFIED.)
GEOMETRIC_REPRESENTATION_ITEM()
RATIONAL_B_SPLINE_SURFACE(((1.,0.707290962211252,1.),(1.,0.707291419340378,
1.),(1.,0.70725192131639,1.),(1.,0.707155297449803,1.),(1.,0.707106781186548,
1.)))
REPRESENTATION_ITEM('')
SURFACE()
);
#14=DEGENERATE_TOROIDAL_SURFACE('',#1075,0.002437,0.00254,.T.);
#15=DEGENERATE_TOROIDAL_SURFACE('',#1082,0.002437,0.00254,.T.);
#16=SPHERICAL_SURFACE('',#1066,0.00254);
#17=SPHERICAL_SURFACE('',#1091,0.00254);
#18=SPHERICAL_SURFACE('',#1098,0.000762);
#19=SPHERICAL_SURFACE('',#1109,0.000762);
#20=SPHERICAL_SURFACE('',#1111,0.000762);
#21=SPHERICAL_SURFACE('',#1117,0.000762);
#22=TOROIDAL_SURFACE('',#1062,0.00508,0.00254);
#23=TOROIDAL_SURFACE('',#1070,0.00508,0.00254);
#24=TOROIDAL_SURFACE('',#1071,0.00508,0.00254);
#25=TOROIDAL_SURFACE('',#1086,0.00508,0.00254);
#26=TOROIDAL_SURFACE('',#1087,0.00508,0.00254);
#27=TOROIDAL_SURFACE('',#1095,0.00508,0.00254);
#28=CYLINDRICAL_SURFACE('',#1019,0.001675);
#29=CYLINDRICAL_SURFACE('',#1021,0.001675);
#30=CYLINDRICAL_SURFACE('',#1037,0.00254);
#31=CYLINDRICAL_SURFACE('',#1043,0.00254);
#32=CYLINDRICAL_SURFACE('',#1044,0.00254);
#33=CYLINDRICAL_SURFACE('',#1047,0.00254);
#34=CYLINDRICAL_SURFACE('',#1049,0.00254);
#35=CYLINDRICAL_SURFACE('',#1051,0.00254);
#36=CYLINDRICAL_SURFACE('',#1054,0.00254);
#37=CYLINDRICAL_SURFACE('',#1058,0.00254);
#38=CYLINDRICAL_SURFACE('',#1064,0.00254);
#39=CYLINDRICAL_SURFACE('',#1068,0.00254);
#40=CYLINDRICAL_SURFACE('',#1073,0.00254);
#41=CYLINDRICAL_SURFACE('',#1077,0.00254);
#42=CYLINDRICAL_SURFACE('',#1080,0.00254);
#43=CYLINDRICAL_SURFACE('',#1084,0.00254);
#44=CYLINDRICAL_SURFACE('',#1089,0.00254);
#45=CYLINDRICAL_SURFACE('',#1093,0.00254);
#46=CYLINDRICAL_SURFACE('',#1096,0.000762);
#47=CYLINDRICAL_SURFACE('',#1101,0.000762);
#48=CYLINDRICAL_SURFACE('',#1103,0.000762);
#49=CYLINDRICAL_SURFACE('',#1105,0.000762);
#50=CYLINDRICAL_SURFACE('',#1107,0.000762);
#51=CYLINDRICAL_SURFACE('',#1113,0.000762);
#52=CYLINDRICAL_SURFACE('',#1115,0.000762);
#53=CYLINDRICAL_SURFACE('',#1119,0.000762);
#54=ELLIPSE('',#1016,0.00508000068954919,0.00508);
#55=ELLIPSE('',#1018,0.00508000068954919,0.00508);
#56=ELLIPSE('',#1055,0.0025400013790981,0.00254);
#57=ELLIPSE('',#1059,0.0025400013790981,0.00254);
#58=B_SPLINE_CURVE_WITH_KNOTS('',3,(#1478,#1479,#1480,#1481),
 .UNSPECIFIED.,.F.,.F.,(4,4),(0.,0.00326903149896122),.UNSPECIFIED.);
#59=B_SPLINE_CURVE_WITH_KNOTS('',3,(#1490,#1491,#1492,#1493),
 .UNSPECIFIED.,.F.,.F.,(4,4),(0.,0.00326903149896122),.UNSPECIFIED.);
#60=B_SPLINE_CURVE_WITH_KNOTS('',3,(#1503,#1504,#1505,#1506),
 .UNSPECIFIED.,.F.,.F.,(4,4),(1.71465850842031E-12,0.0019270828338189),
 .UNSPECIFIED.);
#61=B_SPLINE_CURVE_WITH_KNOTS('',3,(#1512,#1513,#1514,#1515),
 .UNSPECIFIED.,.F.,.F.,(4,4),(0.,0.00192402502638187),.UNSPECIFIED.);
#62=B_SPLINE_CURVE_WITH_KNOTS('',3,(#1629,#1630,#1631,#1632,#1633),
 .UNSPECIFIED.,.F.,.F.,(4,1,4),(0.,0.00260030078800385,0.0052006015760077),
 .UNSPECIFIED.);
#63=B_SPLINE_CURVE_WITH_KNOTS('',3,(#1634,#1635,#1636,#1637,#1638),
 .UNSPECIFIED.,.F.,.F.,(4,1,4),(0.,0.00260030078800385,0.0052006015760077),
 .UNSPECIFIED.);
#64=B_SPLINE_CURVE_WITH_KNOTS('',3,(#1687,#1688,#1689,#1690,#1691),
 .UNSPECIFIED.,.F.,.F.,(4,1,4),(0.,0.5,1.),.UNSPECIFIED.);
#65=B_SPLINE_CURVE_WITH_KNOTS('',3,(#1738,#1739,#1740,#1741,#1742),
 .UNSPECIFIED.,.F.,.F.,(4,1,4),(0.,0.5,1.),.UNSPECIFIED.);
#66=LINE('',#1441,#130);
#67=LINE('',#1445,#131);
#68=LINE('',#1447,#132);
#69=LINE('',#1449,#133);
#70=LINE('',#1451,#134);
#71=LINE('',#1456,#135);
#72=LINE('',#1460,#136);
#73=LINE('',#1462,#137);
#74=LINE('',#1464,#138);
#75=LINE('',#1467,#139);
#76=LINE('',#1469,#140);
#77=LINE('',#1471,#141);
#78=LINE('',#1474,#142);
#79=LINE('',#1476,#143);
#80=LINE('',#1483,#144);
#81=LINE('',#1486,#145);
#82=LINE('',#1488,#146);
#83=LINE('',#1495,#147);
#84=LINE('',#1497,#148);
#85=LINE('',#1500,#149);
#86=LINE('',#1502,#150);
#87=LINE('',#1508,#151);
#88=LINE('',#1510,#152);
#89=LINE('',#1522,#153);
#90=LINE('',#1524,#154);
#91=LINE('',#1526,#155);
#92=LINE('',#1528,#156);
#93=LINE('',#1531,#157);
#94=LINE('',#1535,#158);
#95=LINE('',#1539,#159);
#96=LINE('',#1544,#160);
#97=LINE('',#1550,#161);
#98=LINE('',#1552,#162);
#99=LINE('',#1554,#163);
#100=LINE('',#1567,#164);
#101=LINE('',#1568,#165);
#102=LINE('',#1572,#166);
#103=LINE('',#1573,#167);
#104=LINE('',#1577,#168);
#105=LINE('',#1579,#169);
#106=LINE('',#1581,#170);
#107=LINE('',#1585,#171);
#108=LINE('',#1590,#172);
#109=LINE('',#1594,#173);
#110=LINE('',#1598,#174);
#111=LINE('',#1606,#175);
#112=LINE('',#1611,#176);
#113=LINE('',#1614,#177);
#114=LINE('',#1615,#178);
#115=LINE('',#1617,#179);
#116=LINE('',#1620,#180);
#117=LINE('',#1622,#181);
#118=LINE('',#1624,#182);
#119=LINE('',#1627,#183);
#120=LINE('',#1640,#184);
#121=LINE('',#1642,#185);
#122=LINE('',#1644,#186);
#123=LINE('',#1646,#187);
#124=LINE('',#1657,#188);
#125=LINE('',#1660,#189);
#126=LINE('',#1661,#190);
#127=LINE('',#1663,#191);
#128=LINE('',#1665,#192);
#129=LINE('',#1667,#193);
#130=VECTOR('',#1126,1.);
#131=VECTOR('',#1129,1.);
#132=VECTOR('',#1130,1.);
#133=VECTOR('',#1131,1.);
#134=VECTOR('',#1134,1.);
#135=VECTOR('',#1137,1.);
#136=VECTOR('',#1140,1.);
#137=VECTOR('',#1141,1.);
#138=VECTOR('',#1144,1.);
#139=VECTOR('',#1145,1.);
#140=VECTOR('',#1146,1.);
#141=VECTOR('',#1147,1.);
#142=VECTOR('',#1150,1.);
#143=VECTOR('',#1151,1.);
#144=VECTOR('',#1154,1.);
#145=VECTOR('',#1155,1.);
#146=VECTOR('',#1156,1.);
#147=VECTOR('',#1157,1.);
#148=VECTOR('',#1158,1.);
#149=VECTOR('',#1161,1.);
#150=VECTOR('',#1164,1.);
#151=VECTOR('',#1165,1.);
#152=VECTOR('',#1166,1.);
#153=VECTOR('',#1173,1.);
#154=VECTOR('',#1174,1.);
#155=VECTOR('',#1175,1.);
#156=VECTOR('',#1178,1.);
#157=VECTOR('',#1179,1.);
#158=VECTOR('',#1182,1.);
#159=VECTOR('',#1187,1.);
#160=VECTOR('',#1190,1.);
#161=VECTOR('',#1197,1.);
#162=VECTOR('',#1198,1.);
#163=VECTOR('',#1201,1.);
#164=VECTOR('',#1216,1.);
#165=VECTOR('',#1217,1.);
#166=VECTOR('',#1220,1.);
#167=VECTOR('',#1221,1.);
#168=VECTOR('',#1226,1.);
#169=VECTOR('',#1227,1.);
#170=VECTOR('',#1228,1.);
#171=VECTOR('',#1233,1.);
#172=VECTOR('',#1236,1.);
#173=VECTOR('',#1239,1.);
#174=VECTOR('',#1242,1.);
#175=VECTOR('',#1251,1.);
#176=VECTOR('',#1258,1.);
#177=VECTOR('',#1259,1.);
#178=VECTOR('',#1260,1.);
#179=VECTOR('',#1263,1.);
#180=VECTOR('',#1264,1.);
#181=VECTOR('',#1265,1.);
#182=VECTOR('',#1266,1.);
#183=VECTOR('',#1269,1.);
#184=VECTOR('',#1270,1.);
#185=VECTOR('',#1273,1.);
#186=VECTOR('',#1274,1.);
#187=VECTOR('',#1275,1.);
#188=VECTOR('',#1296,1.);
#189=VECTOR('',#1297,1.);
#190=VECTOR('',#1298,1.);
#191=VECTOR('',#1301,1.);
#192=VECTOR('',#1302,1.);
#193=VECTOR('',#1303,1.);
#194=ORIENTED_EDGE('',*,*,#470,.T.);
#195=ORIENTED_EDGE('',*,*,#471,.T.);
#196=ORIENTED_EDGE('',*,*,#472,.T.);
#197=ORIENTED_EDGE('',*,*,#473,.F.);
#198=ORIENTED_EDGE('',*,*,#474,.T.);
#199=ORIENTED_EDGE('',*,*,#475,.F.);
#200=ORIENTED_EDGE('',*,*,#476,.T.);
#201=ORIENTED_EDGE('',*,*,#477,.T.);
#202=ORIENTED_EDGE('',*,*,#478,.T.);
#203=ORIENTED_EDGE('',*,*,#479,.T.);
#204=ORIENTED_EDGE('',*,*,#480,.T.);
#205=ORIENTED_EDGE('',*,*,#481,.T.);
#206=ORIENTED_EDGE('',*,*,#482,.T.);
#207=ORIENTED_EDGE('',*,*,#483,.T.);
#208=ORIENTED_EDGE('',*,*,#484,.T.);
#209=ORIENTED_EDGE('',*,*,#485,.T.);
#210=ORIENTED_EDGE('',*,*,#475,.T.);
#211=ORIENTED_EDGE('',*,*,#486,.T.);
#212=ORIENTED_EDGE('',*,*,#487,.F.);
#213=ORIENTED_EDGE('',*,*,#488,.T.);
#214=ORIENTED_EDGE('',*,*,#489,.T.);
#215=ORIENTED_EDGE('',*,*,#490,.T.);
#216=ORIENTED_EDGE('',*,*,#491,.T.);
#217=ORIENTED_EDGE('',*,*,#492,.T.);
#218=ORIENTED_EDGE('',*,*,#493,.T.);
#219=ORIENTED_EDGE('',*,*,#494,.F.);
#220=ORIENTED_EDGE('',*,*,#495,.F.);
#221=ORIENTED_EDGE('',*,*,#496,.T.);
#222=ORIENTED_EDGE('',*,*,#473,.T.);
#223=ORIENTED_EDGE('',*,*,#497,.T.);
#224=ORIENTED_EDGE('',*,*,#498,.F.);
#225=ORIENTED_EDGE('',*,*,#494,.T.);
#226=ORIENTED_EDGE('',*,*,#499,.T.);
#227=ORIENTED_EDGE('',*,*,#500,.T.);
#228=ORIENTED_EDGE('',*,*,#501,.F.);
#229=ORIENTED_EDGE('',*,*,#502,.T.);
#230=ORIENTED_EDGE('',*,*,#488,.F.);
#231=ORIENTED_EDGE('',*,*,#503,.T.);
#232=ORIENTED_EDGE('',*,*,#504,.T.);
#233=ORIENTED_EDGE('',*,*,#505,.T.);
#234=ORIENTED_EDGE('',*,*,#506,.T.);
#235=ORIENTED_EDGE('',*,*,#507,.T.);
#236=ORIENTED_EDGE('',*,*,#508,.T.);
#237=ORIENTED_EDGE('',*,*,#509,.T.);
#238=ORIENTED_EDGE('',*,*,#510,.T.);
#239=ORIENTED_EDGE('',*,*,#511,.T.);
#240=ORIENTED_EDGE('',*,*,#512,.F.);
#241=ORIENTED_EDGE('',*,*,#513,.T.);
#242=ORIENTED_EDGE('',*,*,#514,.T.);
#243=ORIENTED_EDGE('',*,*,#515,.T.);
#244=ORIENTED_EDGE('',*,*,#516,.T.);
#245=ORIENTED_EDGE('',*,*,#500,.F.);
#246=ORIENTED_EDGE('',*,*,#517,.T.);
#247=ORIENTED_EDGE('',*,*,#518,.T.);
#248=ORIENTED_EDGE('',*,*,#519,.F.);
#249=ORIENTED_EDGE('',*,*,#520,.F.);
#250=ORIENTED_EDGE('',*,*,#521,.T.);
#251=ORIENTED_EDGE('',*,*,#501,.T.);
#252=ORIENTED_EDGE('',*,*,#519,.T.);
#253=ORIENTED_EDGE('',*,*,#512,.T.);
#254=ORIENTED_EDGE('',*,*,#522,.F.);
#255=ORIENTED_EDGE('',*,*,#503,.F.);
#256=ORIENTED_EDGE('',*,*,#523,.T.);
#257=ORIENTED_EDGE('',*,*,#522,.T.);
#258=ORIENTED_EDGE('',*,*,#524,.F.);
#259=ORIENTED_EDGE('',*,*,#525,.T.);
#260=ORIENTED_EDGE('',*,*,#520,.T.);
#261=ORIENTED_EDGE('',*,*,#518,.F.);
#262=ORIENTED_EDGE('',*,*,#526,.F.);
#263=ORIENTED_EDGE('',*,*,#527,.T.);
#264=ORIENTED_EDGE('',*,*,#528,.F.);
#265=ORIENTED_EDGE('',*,*,#513,.F.);
#266=ORIENTED_EDGE('',*,*,#529,.F.);
#267=ORIENTED_EDGE('',*,*,#523,.F.);
#268=ORIENTED_EDGE('',*,*,#515,.F.);
#269=ORIENTED_EDGE('',*,*,#530,.T.);
#270=ORIENTED_EDGE('',*,*,#531,.T.);
#271=ORIENTED_EDGE('',*,*,#532,.T.);
#272=ORIENTED_EDGE('',*,*,#533,.T.);
#273=ORIENTED_EDGE('',*,*,#534,.T.);
#274=ORIENTED_EDGE('',*,*,#535,.T.);
#275=ORIENTED_EDGE('',*,*,#536,.T.);
#276=ORIENTED_EDGE('',*,*,#537,.T.);
#277=ORIENTED_EDGE('',*,*,#538,.T.);
#278=ORIENTED_EDGE('',*,*,#539,.T.);
#279=ORIENTED_EDGE('',*,*,#540,.T.);
#280=ORIENTED_EDGE('',*,*,#541,.F.);
#281=ORIENTED_EDGE('',*,*,#542,.T.);
#282=ORIENTED_EDGE('',*,*,#543,.F.);
#283=ORIENTED_EDGE('',*,*,#544,.F.);
#284=ORIENTED_EDGE('',*,*,#487,.T.);
#285=ORIENTED_EDGE('',*,*,#545,.T.);
#286=ORIENTED_EDGE('',*,*,#495,.T.);
#287=ORIENTED_EDGE('',*,*,#498,.T.);
#288=ORIENTED_EDGE('',*,*,#546,.F.);
#289=ORIENTED_EDGE('',*,*,#544,.T.);
#290=ORIENTED_EDGE('',*,*,#547,.T.);
#291=ORIENTED_EDGE('',*,*,#548,.T.);
#292=ORIENTED_EDGE('',*,*,#535,.F.);
#293=ORIENTED_EDGE('',*,*,#549,.T.);
#294=ORIENTED_EDGE('',*,*,#550,.T.);
#295=ORIENTED_EDGE('',*,*,#551,.T.);
#296=ORIENTED_EDGE('',*,*,#552,.T.);
#297=ORIENTED_EDGE('',*,*,#553,.T.);
#298=ORIENTED_EDGE('',*,*,#554,.T.);
#299=ORIENTED_EDGE('',*,*,#471,.F.);
#300=ORIENTED_EDGE('',*,*,#555,.T.);
#301=ORIENTED_EDGE('',*,*,#556,.T.);
#302=ORIENTED_EDGE('',*,*,#478,.F.);
#303=ORIENTED_EDGE('',*,*,#557,.T.);
#304=ORIENTED_EDGE('',*,*,#558,.T.);
#305=ORIENTED_EDGE('',*,*,#546,.T.);
#306=ORIENTED_EDGE('',*,*,#539,.F.);
#307=ORIENTED_EDGE('',*,*,#559,.T.);
#308=ORIENTED_EDGE('',*,*,#560,.T.);
#309=ORIENTED_EDGE('',*,*,#561,.T.);
#310=ORIENTED_EDGE('',*,*,#554,.F.);
#311=ORIENTED_EDGE('',*,*,#543,.T.);
#312=ORIENTED_EDGE('',*,*,#532,.F.);
#313=ORIENTED_EDGE('',*,*,#562,.T.);
#314=ORIENTED_EDGE('',*,*,#481,.F.);
#315=ORIENTED_EDGE('',*,*,#563,.T.);
#316=ORIENTED_EDGE('',*,*,#558,.F.);
#317=ORIENTED_EDGE('',*,*,#564,.T.);
#318=ORIENTED_EDGE('',*,*,#497,.F.);
#319=ORIENTED_EDGE('',*,*,#472,.F.);
#320=ORIENTED_EDGE('',*,*,#485,.F.);
#321=ORIENTED_EDGE('',*,*,#565,.T.);
#322=ORIENTED_EDGE('',*,*,#555,.F.);
#323=ORIENTED_EDGE('',*,*,#470,.F.);
#324=ORIENTED_EDGE('',*,*,#496,.F.);
#325=ORIENTED_EDGE('',*,*,#545,.F.);
#326=ORIENTED_EDGE('',*,*,#486,.F.);
#327=ORIENTED_EDGE('',*,*,#474,.F.);
#328=ORIENTED_EDGE('',*,*,#566,.T.);
#329=ORIENTED_EDGE('',*,*,#567,.T.);
#330=ORIENTED_EDGE('',*,*,#541,.T.);
#331=ORIENTED_EDGE('',*,*,#568,.T.);
#332=ORIENTED_EDGE('',*,*,#537,.F.);
#333=ORIENTED_EDGE('',*,*,#569,.T.);
#334=ORIENTED_EDGE('',*,*,#570,.T.);
#335=ORIENTED_EDGE('',*,*,#571,.T.);
#336=ORIENTED_EDGE('',*,*,#506,.F.);
#337=ORIENTED_EDGE('',*,*,#572,.T.);
#338=ORIENTED_EDGE('',*,*,#492,.F.);
#339=ORIENTED_EDGE('',*,*,#573,.T.);
#340=ORIENTED_EDGE('',*,*,#574,.T.);
#341=ORIENTED_EDGE('',*,*,#482,.F.);
#342=ORIENTED_EDGE('',*,*,#575,.T.);
#343=ORIENTED_EDGE('',*,*,#508,.F.);
#344=ORIENTED_EDGE('',*,*,#576,.T.);
#345=ORIENTED_EDGE('',*,*,#577,.T.);
#346=ORIENTED_EDGE('',*,*,#557,.F.);
#347=ORIENTED_EDGE('',*,*,#477,.F.);
#348=ORIENTED_EDGE('',*,*,#578,.F.);
#349=ORIENTED_EDGE('',*,*,#564,.F.);
#350=ORIENTED_EDGE('',*,*,#578,.T.);
#351=ORIENTED_EDGE('',*,*,#476,.F.);
#352=ORIENTED_EDGE('',*,*,#579,.F.);
#353=ORIENTED_EDGE('',*,*,#490,.F.);
#354=ORIENTED_EDGE('',*,*,#579,.T.);
#355=ORIENTED_EDGE('',*,*,#562,.F.);
#356=ORIENTED_EDGE('',*,*,#580,.F.);
#357=ORIENTED_EDGE('',*,*,#580,.T.);
#358=ORIENTED_EDGE('',*,*,#531,.F.);
#359=ORIENTED_EDGE('',*,*,#581,.F.);
#360=ORIENTED_EDGE('',*,*,#491,.F.);
#361=ORIENTED_EDGE('',*,*,#581,.T.);
#362=ORIENTED_EDGE('',*,*,#530,.F.);
#363=ORIENTED_EDGE('',*,*,#582,.F.);
#364=ORIENTED_EDGE('',*,*,#573,.F.);
#365=ORIENTED_EDGE('',*,*,#582,.T.);
#366=ORIENTED_EDGE('',*,*,#514,.F.);
#367=ORIENTED_EDGE('',*,*,#583,.F.);
#368=ORIENTED_EDGE('',*,*,#574,.F.);
#369=ORIENTED_EDGE('',*,*,#583,.T.);
#370=ORIENTED_EDGE('',*,*,#528,.T.);
#371=ORIENTED_EDGE('',*,*,#584,.F.);
#372=ORIENTED_EDGE('',*,*,#507,.F.);
#373=ORIENTED_EDGE('',*,*,#584,.T.);
#374=ORIENTED_EDGE('',*,*,#527,.F.);
#375=ORIENTED_EDGE('',*,*,#585,.F.);
#376=ORIENTED_EDGE('',*,*,#504,.F.);
#377=ORIENTED_EDGE('',*,*,#585,.T.);
#378=ORIENTED_EDGE('',*,*,#526,.T.);
#379=ORIENTED_EDGE('',*,*,#586,.F.);
#380=ORIENTED_EDGE('',*,*,#505,.F.);
#381=ORIENTED_EDGE('',*,*,#493,.F.);
#382=ORIENTED_EDGE('',*,*,#572,.F.);
#383=ORIENTED_EDGE('',*,*,#586,.T.);
#384=ORIENTED_EDGE('',*,*,#517,.F.);
#385=ORIENTED_EDGE('',*,*,#499,.F.);
#386=ORIENTED_EDGE('',*,*,#502,.F.);
#387=ORIENTED_EDGE('',*,*,#521,.F.);
#388=ORIENTED_EDGE('',*,*,#587,.F.);
#389=ORIENTED_EDGE('',*,*,#575,.F.);
#390=ORIENTED_EDGE('',*,*,#489,.F.);
#391=ORIENTED_EDGE('',*,*,#587,.T.);
#392=ORIENTED_EDGE('',*,*,#525,.F.);
#393=ORIENTED_EDGE('',*,*,#588,.F.);
#394=ORIENTED_EDGE('',*,*,#509,.F.);
#395=ORIENTED_EDGE('',*,*,#588,.T.);
#396=ORIENTED_EDGE('',*,*,#524,.T.);
#397=ORIENTED_EDGE('',*,*,#589,.F.);
#398=ORIENTED_EDGE('',*,*,#510,.F.);
#399=ORIENTED_EDGE('',*,*,#589,.T.);
#400=ORIENTED_EDGE('',*,*,#529,.T.);
#401=ORIENTED_EDGE('',*,*,#590,.F.);
#402=ORIENTED_EDGE('',*,*,#511,.F.);
#403=ORIENTED_EDGE('',*,*,#590,.T.);
#404=ORIENTED_EDGE('',*,*,#516,.F.);
#405=ORIENTED_EDGE('',*,*,#591,.F.);
#406=ORIENTED_EDGE('',*,*,#576,.F.);
#407=ORIENTED_EDGE('',*,*,#591,.T.);
#408=ORIENTED_EDGE('',*,*,#534,.F.);
#409=ORIENTED_EDGE('',*,*,#592,.F.);
#410=ORIENTED_EDGE('',*,*,#577,.F.);
#411=ORIENTED_EDGE('',*,*,#592,.T.);
#412=ORIENTED_EDGE('',*,*,#533,.F.);
#413=ORIENTED_EDGE('',*,*,#593,.F.);
#414=ORIENTED_EDGE('',*,*,#483,.F.);
#415=ORIENTED_EDGE('',*,*,#593,.T.);
#416=ORIENTED_EDGE('',*,*,#563,.F.);
#417=ORIENTED_EDGE('',*,*,#594,.F.);
#418=ORIENTED_EDGE('',*,*,#594,.T.);
#419=ORIENTED_EDGE('',*,*,#480,.F.);
#420=ORIENTED_EDGE('',*,*,#595,.F.);
#421=ORIENTED_EDGE('',*,*,#484,.F.);
#422=ORIENTED_EDGE('',*,*,#556,.F.);
#423=ORIENTED_EDGE('',*,*,#565,.F.);
#424=ORIENTED_EDGE('',*,*,#595,.T.);
#425=ORIENTED_EDGE('',*,*,#479,.F.);
#426=ORIENTED_EDGE('',*,*,#596,.F.);
#427=ORIENTED_EDGE('',*,*,#568,.F.);
#428=ORIENTED_EDGE('',*,*,#540,.F.);
#429=ORIENTED_EDGE('',*,*,#561,.F.);
#430=ORIENTED_EDGE('',*,*,#597,.F.);
#431=ORIENTED_EDGE('',*,*,#596,.T.);
#432=ORIENTED_EDGE('',*,*,#598,.F.);
#433=ORIENTED_EDGE('',*,*,#538,.F.);
#434=ORIENTED_EDGE('',*,*,#571,.F.);
#435=ORIENTED_EDGE('',*,*,#599,.F.);
#436=ORIENTED_EDGE('',*,*,#559,.F.);
#437=ORIENTED_EDGE('',*,*,#598,.T.);
#438=ORIENTED_EDGE('',*,*,#560,.F.);
#439=ORIENTED_EDGE('',*,*,#600,.F.);
#440=ORIENTED_EDGE('',*,*,#551,.F.);
#441=ORIENTED_EDGE('',*,*,#597,.T.);
#442=ORIENTED_EDGE('',*,*,#550,.F.);
#443=ORIENTED_EDGE('',*,*,#601,.F.);
#444=ORIENTED_EDGE('',*,*,#566,.F.);
#445=ORIENTED_EDGE('',*,*,#542,.F.);
#446=ORIENTED_EDGE('',*,*,#567,.F.);
#447=ORIENTED_EDGE('',*,*,#602,.F.);
#448=ORIENTED_EDGE('',*,*,#549,.F.);
#449=ORIENTED_EDGE('',*,*,#600,.T.);
#450=ORIENTED_EDGE('',*,*,#599,.T.);
#451=ORIENTED_EDGE('',*,*,#603,.F.);
#452=ORIENTED_EDGE('',*,*,#602,.T.);
#453=ORIENTED_EDGE('',*,*,#601,.T.);
#454=ORIENTED_EDGE('',*,*,#604,.F.);
#455=ORIENTED_EDGE('',*,*,#603,.T.);
#456=ORIENTED_EDGE('',*,*,#570,.F.);
#457=ORIENTED_EDGE('',*,*,#605,.F.);
#458=ORIENTED_EDGE('',*,*,#552,.F.);
#459=ORIENTED_EDGE('',*,*,#604,.T.);
#460=ORIENTED_EDGE('',*,*,#553,.F.);
#461=ORIENTED_EDGE('',*,*,#606,.F.);
#462=ORIENTED_EDGE('',*,*,#547,.F.);
#463=ORIENTED_EDGE('',*,*,#606,.T.);
#464=ORIENTED_EDGE('',*,*,#605,.T.);
#465=ORIENTED_EDGE('',*,*,#607,.F.);
#466=ORIENTED_EDGE('',*,*,#607,.T.);
#467=ORIENTED_EDGE('',*,*,#569,.F.);
#468=ORIENTED_EDGE('',*,*,#536,.F.);
#469=ORIENTED_EDGE('',*,*,#548,.F.);
#470=EDGE_CURVE('',#608,#609,#692,.F.);
#471=EDGE_CURVE('',#609,#610,#66,.T.);
#472=EDGE_CURVE('',#610,#611,#693,.F.);
#473=EDGE_CURVE('',#612,#611,#67,.T.);
#474=EDGE_CURVE('',#612,#613,#68,.T.);
#475=EDGE_CURVE('',#608,#613,#69,.T.);
#476=EDGE_CURVE('',#614,#615,#70,.F.);
#477=EDGE_CURVE('',#615,#616,#694,.F.);
#478=EDGE_CURVE('',#616,#617,#71,.T.);
#479=EDGE_CURVE('',#617,#618,#695,.F.);
#480=EDGE_CURVE('',#618,#619,#72,.T.);
#481=EDGE_CURVE('',#619,#614,#73,.F.);
#482=EDGE_CURVE('',#620,#621,#74,.T.);
#483=EDGE_CURVE('',#621,#622,#75,.F.);
#484=EDGE_CURVE('',#622,#623,#76,.F.);
#485=EDGE_CURVE('',#623,#608,#77,.F.);
#486=EDGE_CURVE('',#613,#624,#696,.T.);
#487=EDGE_CURVE('',#625,#624,#78,.T.);
#488=EDGE_CURVE('',#625,#626,#79,.T.);
#489=EDGE_CURVE('',#626,#620,#58,.T.);
#490=EDGE_CURVE('',#627,#628,#80,.T.);
#491=EDGE_CURVE('',#628,#629,#81,.T.);
#492=EDGE_CURVE('',#629,#630,#82,.F.);
#493=EDGE_CURVE('',#630,#631,#59,.F.);
#494=EDGE_CURVE('',#632,#631,#83,.T.);
#495=EDGE_CURVE('',#633,#632,#84,.T.);
#496=EDGE_CURVE('',#633,#612,#697,.F.);
#497=EDGE_CURVE('',#611,#627,#85,.T.);
#498=EDGE_CURVE('',#632,#625,#86,.T.);
#499=EDGE_CURVE('',#631,#634,#60,.T.);
#500=EDGE_CURVE('',#634,#635,#87,.T.);
#501=EDGE_CURVE('',#636,#635,#88,.T.);
#502=EDGE_CURVE('',#636,#626,#61,.T.);
#503=EDGE_CURVE('',#637,#637,#698,.T.);
#504=EDGE_CURVE('',#638,#639,#699,.T.);
#505=EDGE_CURVE('',#639,#640,#89,.T.);
#506=EDGE_CURVE('',#640,#641,#90,.T.);
#507=EDGE_CURVE('',#641,#638,#91,.T.);
#508=EDGE_CURVE('',#642,#643,#92,.F.);
#509=EDGE_CURVE('',#643,#644,#93,.F.);
#510=EDGE_CURVE('',#644,#645,#700,.T.);
#511=EDGE_CURVE('',#645,#642,#94,.T.);
#512=EDGE_CURVE('',#646,#646,#701,.T.);
#513=EDGE_CURVE('',#647,#648,#95,.T.);
#514=EDGE_CURVE('',#648,#649,#702,.T.);
#515=EDGE_CURVE('',#649,#650,#96,.T.);
#516=EDGE_CURVE('',#650,#647,#703,.T.);
#517=EDGE_CURVE('',#634,#651,#54,.T.);
#518=EDGE_CURVE('',#651,#652,#97,.T.);
#519=EDGE_CURVE('',#635,#652,#98,.T.);
#520=EDGE_CURVE('',#653,#652,#99,.T.);
#521=EDGE_CURVE('',#653,#636,#55,.F.);
#522=EDGE_CURVE('',#654,#654,#704,.T.);
#523=EDGE_CURVE('',#655,#655,#705,.T.);
#524=EDGE_CURVE('',#656,#657,#706,.T.);
#525=EDGE_CURVE('',#656,#653,#100,.T.);
#526=EDGE_CURVE('',#658,#651,#101,.T.);
#527=EDGE_CURVE('',#658,#659,#707,.T.);
#528=EDGE_CURVE('',#648,#659,#102,.T.);
#529=EDGE_CURVE('',#657,#647,#103,.T.);
#530=EDGE_CURVE('',#649,#660,#708,.F.);
#531=EDGE_CURVE('',#660,#661,#104,.F.);
#532=EDGE_CURVE('',#661,#662,#105,.T.);
#533=EDGE_CURVE('',#662,#663,#106,.T.);
#534=EDGE_CURVE('',#663,#650,#709,.F.);
#535=EDGE_CURVE('',#664,#665,#107,.T.);
#536=EDGE_CURVE('',#665,#666,#710,.F.);
#537=EDGE_CURVE('',#666,#667,#108,.T.);
#538=EDGE_CURVE('',#667,#668,#711,.F.);
#539=EDGE_CURVE('',#668,#669,#109,.T.);
#540=EDGE_CURVE('',#669,#670,#712,.F.);
#541=EDGE_CURVE('',#671,#670,#110,.T.);
#542=EDGE_CURVE('',#671,#664,#713,.F.);
#543=EDGE_CURVE('',#672,#672,#714,.T.);
#544=EDGE_CURVE('',#673,#673,#715,.T.);
#545=EDGE_CURVE('',#624,#633,#111,.F.);
#546=EDGE_CURVE('',#674,#674,#716,.T.);
#547=EDGE_CURVE('',#675,#676,#112,.T.);
#548=EDGE_CURVE('',#676,#665,#113,.T.);
#549=EDGE_CURVE('',#664,#675,#114,.F.);
#550=EDGE_CURVE('',#677,#678,#115,.T.);
#551=EDGE_CURVE('',#678,#679,#116,.F.);
#552=EDGE_CURVE('',#679,#680,#117,.T.);
#553=EDGE_CURVE('',#680,#677,#118,.F.);
#554=EDGE_CURVE('',#681,#681,#717,.T.);
#555=EDGE_CURVE('',#609,#682,#119,.T.);
#556=EDGE_CURVE('',#682,#617,#62,.F.);
#557=EDGE_CURVE('',#616,#683,#63,.T.);
#558=EDGE_CURVE('',#683,#610,#120,.F.);
#559=EDGE_CURVE('',#668,#684,#121,.F.);
#560=EDGE_CURVE('',#684,#685,#122,.T.);
#561=EDGE_CURVE('',#685,#669,#123,.T.);
#562=EDGE_CURVE('',#661,#614,#718,.T.);
#563=EDGE_CURVE('',#619,#662,#719,.F.);
#564=EDGE_CURVE('',#683,#627,#720,.T.);
#565=EDGE_CURVE('',#623,#682,#721,.T.);
#566=EDGE_CURVE('',#686,#687,#124,.F.);
#567=EDGE_CURVE('',#687,#671,#125,.T.);
#568=EDGE_CURVE('',#670,#686,#126,.F.);
#569=EDGE_CURVE('',#666,#688,#127,.F.);
#570=EDGE_CURVE('',#688,#689,#128,.F.);
#571=EDGE_CURVE('',#689,#667,#129,.T.);
#572=EDGE_CURVE('',#640,#630,#56,.T.);
#573=EDGE_CURVE('',#629,#690,#722,.T.);
#574=EDGE_CURVE('',#690,#641,#723,.F.);
#575=EDGE_CURVE('',#620,#643,#57,.F.);
#576=EDGE_CURVE('',#642,#691,#724,.F.);
#577=EDGE_CURVE('',#691,#621,#725,.T.);
#578=EDGE_CURVE('',#627,#615,#726,.T.);
#579=EDGE_CURVE('',#628,#614,#727,.T.);
#580=EDGE_CURVE('',#628,#661,#728,.T.);
#581=EDGE_CURVE('',#629,#660,#729,.T.);
#582=EDGE_CURVE('',#690,#649,#64,.F.);
#583=EDGE_CURVE('',#641,#648,#730,.T.);
#584=EDGE_CURVE('',#638,#659,#731,.T.);
#585=EDGE_CURVE('',#639,#658,#732,.T.);
#586=EDGE_CURVE('',#640,#651,#733,.T.);
#587=EDGE_CURVE('',#643,#653,#734,.T.);
#588=EDGE_CURVE('',#644,#656,#735,.T.);
#589=EDGE_CURVE('',#645,#657,#736,.T.);
#590=EDGE_CURVE('',#642,#647,#737,.T.);
#591=EDGE_CURVE('',#691,#650,#65,.F.);
#592=EDGE_CURVE('',#621,#663,#738,.T.);
#593=EDGE_CURVE('',#622,#662,#739,.T.);
#594=EDGE_CURVE('',#622,#619,#740,.T.);
#595=EDGE_CURVE('',#623,#618,#741,.T.);
#596=EDGE_CURVE('',#686,#685,#742,.T.);
#597=EDGE_CURVE('',#686,#678,#743,.F.);
#598=EDGE_CURVE('',#678,#685,#744,.F.);
#599=EDGE_CURVE('',#684,#689,#745,.T.);
#600=EDGE_CURVE('',#679,#684,#746,.T.);
#601=EDGE_CURVE('',#687,#677,#747,.T.);
#602=EDGE_CURVE('',#675,#687,#748,.T.);
#603=EDGE_CURVE('',#679,#689,#749,.F.);
#604=EDGE_CURVE('',#675,#677,#750,.F.);
#605=EDGE_CURVE('',#680,#688,#751,.T.);
#606=EDGE_CURVE('',#676,#680,#752,.T.);
#607=EDGE_CURVE('',#676,#688,#753,.F.);
#608=VERTEX_POINT('',#1439);
#609=VERTEX_POINT('',#1440);
#610=VERTEX_POINT('',#1442);
#611=VERTEX_POINT('',#1444);
#612=VERTEX_POINT('',#1446);
#613=VERTEX_POINT('',#1448);
#614=VERTEX_POINT('',#1452);
#615=VERTEX_POINT('',#1453);
#616=VERTEX_POINT('',#1455);
#617=VERTEX_POINT('',#1457);
#618=VERTEX_POINT('',#1459);
#619=VERTEX_POINT('',#1461);
#620=VERTEX_POINT('',#1465);
#621=VERTEX_POINT('',#1466);
#622=VERTEX_POINT('',#1468);
#623=VERTEX_POINT('',#1470);
#624=VERTEX_POINT('',#1473);
#625=VERTEX_POINT('',#1475);
#626=VERTEX_POINT('',#1477);
#627=VERTEX_POINT('',#1484);
#628=VERTEX_POINT('',#1485);
#629=VERTEX_POINT('',#1487);
#630=VERTEX_POINT('',#1489);
#631=VERTEX_POINT('',#1494);
#632=VERTEX_POINT('',#1496);
#633=VERTEX_POINT('',#1498);
#634=VERTEX_POINT('',#1507);
#635=VERTEX_POINT('',#1509);
#636=VERTEX_POINT('',#1511);
#637=VERTEX_POINT('',#1518);
#638=VERTEX_POINT('',#1520);
#639=VERTEX_POINT('',#1521);
#640=VERTEX_POINT('',#1523);
#641=VERTEX_POINT('',#1525);
#642=VERTEX_POINT('',#1529);
#643=VERTEX_POINT('',#1530);
#644=VERTEX_POINT('',#1532);
#645=VERTEX_POINT('',#1534);
#646=VERTEX_POINT('',#1537);
#647=VERTEX_POINT('',#1540);
#648=VERTEX_POINT('',#1541);
#649=VERTEX_POINT('',#1543);
#650=VERTEX_POINT('',#1545);
#651=VERTEX_POINT('',#1549);
#652=VERTEX_POINT('',#1551);
#653=VERTEX_POINT('',#1555);
#654=VERTEX_POINT('',#1559);
#655=VERTEX_POINT('',#1562);
#656=VERTEX_POINT('',#1565);
#657=VERTEX_POINT('',#1566);
#658=VERTEX_POINT('',#1569);
#659=VERTEX_POINT('',#1571);
#660=VERTEX_POINT('',#1576);
#661=VERTEX_POINT('',#1578);
#662=VERTEX_POINT('',#1580);
#663=VERTEX_POINT('',#1582);
#664=VERTEX_POINT('',#1586);
#665=VERTEX_POINT('',#1587);
#666=VERTEX_POINT('',#1589);
#667=VERTEX_POINT('',#1591);
#668=VERTEX_POINT('',#1593);
#669=VERTEX_POINT('',#1595);
#670=VERTEX_POINT('',#1597);
#671=VERTEX_POINT('',#1599);
#672=VERTEX_POINT('',#1602);
#673=VERTEX_POINT('',#1604);
#674=VERTEX_POINT('',#1609);
#675=VERTEX_POINT('',#1612);
#676=VERTEX_POINT('',#1613);
#677=VERTEX_POINT('',#1618);
#678=VERTEX_POINT('',#1619);
#679=VERTEX_POINT('',#1621);
#680=VERTEX_POINT('',#1623);
#681=VERTEX_POINT('',#1626);
#682=VERTEX_POINT('',#1628);
#683=VERTEX_POINT('',#1639);
#684=VERTEX_POINT('',#1643);
#685=VERTEX_POINT('',#1645);
#686=VERTEX_POINT('',#1658);
#687=VERTEX_POINT('',#1659);
#688=VERTEX_POINT('',#1664);
#689=VERTEX_POINT('',#1666);
#690=VERTEX_POINT('',#1671);
#691=VERTEX_POINT('',#1676);
#692=CIRCLE('',#996,0.00254);
#693=CIRCLE('',#997,0.00254);
#694=CIRCLE('',#999,0.00508);
#695=CIRCLE('',#1000,0.00508);
#696=CIRCLE('',#1002,0.00254);
#697=CIRCLE('',#1004,0.00254);
#698=CIRCLE('',#1007,0.001675);
#699=CIRCLE('',#1008,0.002437);
#700=CIRCLE('',#1010,0.002437);
#701=CIRCLE('',#1011,0.001675);
#702=CIRCLE('',#1013,0.00508);
#703=CIRCLE('',#1014,0.00508);
#704=CIRCLE('',#1020,0.001675);
#705=CIRCLE('',#1022,0.001675);
#706=CIRCLE('',#1024,0.004977);
#707=CIRCLE('',#1025,0.004977);
#708=CIRCLE('',#1027,0.00508);
#709=CIRCLE('',#1028,0.00508);
#710=CIRCLE('',#1030,0.000762);
#711=CIRCLE('',#1031,0.000762);
#712=CIRCLE('',#1032,0.000762);
#713=CIRCLE('',#1033,0.000762);
#714=CIRCLE('',#1034,0.00254);
#715=CIRCLE('',#1035,0.00254);
#716=CIRCLE('',#1038,0.00254);
#717=CIRCLE('',#1041,0.00254);
#718=CIRCLE('',#1045,0.00254);
#719=CIRCLE('',#1046,0.00254);
#720=CIRCLE('',#1048,0.00254);
#721=CIRCLE('',#1050,0.00254);
#722=CIRCLE('',#1056,0.00254);
#723=CIRCLE('',#1057,0.00254);
#724=CIRCLE('',#1060,0.00254);
#725=CIRCLE('',#1061,0.00254);
#726=CIRCLE('',#1063,0.00254);
#727=CIRCLE('',#1065,0.00254);
#728=CIRCLE('',#1067,0.00254);
#729=CIRCLE('',#1069,0.00254);
#730=CIRCLE('',#1072,0.00254);
#731=CIRCLE('',#1074,0.00254);
#732=CIRCLE('',#1076,0.00254);
#733=CIRCLE('',#1078,0.00254);
#734=CIRCLE('',#1079,0.00254);
#735=CIRCLE('',#1081,0.00254);
#736=CIRCLE('',#1083,0.00254);
#737=CIRCLE('',#1085,0.00254);
#738=CIRCLE('',#1088,0.00254);
#739=CIRCLE('',#1090,0.00254);
#740=CIRCLE('',#1092,0.00254);
#741=CIRCLE('',#1094,0.00254);
#742=CIRCLE('',#1097,0.000762);
#743=CIRCLE('',#1099,0.000762);
#744=CIRCLE('',#1100,0.000762);
#745=CIRCLE('',#1102,0.000762);
#746=CIRCLE('',#1104,0.000762);
#747=CIRCLE('',#1106,0.000762);
#748=CIRCLE('',#1108,0.000762);
#749=CIRCLE('',#1110,0.000762);
#750=CIRCLE('',#1112,0.000762);
#751=CIRCLE('',#1114,0.000762);
#752=CIRCLE('',#1116,0.000762);
#753=CIRCLE('',#1118,0.000762);
#754=EDGE_LOOP('',(#194,#195,#196,#197,#198,#199));
#755=EDGE_LOOP('',(#200,#201,#202,#203,#204,#205));
#756=EDGE_LOOP('',(#206,#207,#208,#209,#210,#211,#212,#213,#214));
#757=EDGE_LOOP('',(#215,#216,#217,#218,#219,#220,#221,#222,#223));
#758=EDGE_LOOP('',(#224,#225,#226,#227,#228,#229,#230));
#759=EDGE_LOOP('',(#231));
#760=EDGE_LOOP('',(#232,#233,#234,#235));
#761=EDGE_LOOP('',(#236,#237,#238,#239));
#762=EDGE_LOOP('',(#240));
#763=EDGE_LOOP('',(#241,#242,#243,#244));
#764=EDGE_LOOP('',(#245,#246,#247,#248));
#765=EDGE_LOOP('',(#249,#250,#251,#252));
#766=EDGE_LOOP('',(#253));
#767=EDGE_LOOP('',(#254));
#768=EDGE_LOOP('',(#255));
#769=EDGE_LOOP('',(#256));
#770=EDGE_LOOP('',(#257));
#771=EDGE_LOOP('',(#258,#259,#260,#261,#262,#263,#264,#265,#266));
#772=EDGE_LOOP('',(#267));
#773=EDGE_LOOP('',(#268,#269,#270,#271,#272,#273));
#774=EDGE_LOOP('',(#274,#275,#276,#277,#278,#279,#280,#281));
#775=EDGE_LOOP('',(#282));
#776=EDGE_LOOP('',(#283));
#777=EDGE_LOOP('',(#284,#285,#286,#287));
#778=EDGE_LOOP('',(#288));
#779=EDGE_LOOP('',(#289));
#780=EDGE_LOOP('',(#290,#291,#292,#293));
#781=EDGE_LOOP('',(#294,#295,#296,#297));
#782=EDGE_LOOP('',(#298));
#783=EDGE_LOOP('',(#299,#300,#301,#302,#303,#304));
#784=EDGE_LOOP('',(#305));
#785=EDGE_LOOP('',(#306,#307,#308,#309));
#786=EDGE_LOOP('',(#310));
#787=EDGE_LOOP('',(#311));
#788=EDGE_LOOP('',(#312,#313,#314,#315));
#789=EDGE_LOOP('',(#316,#317,#318,#319));
#790=EDGE_LOOP('',(#320,#321,#322,#323));
#791=EDGE_LOOP('',(#324,#325,#326,#327));
#792=EDGE_LOOP('',(#328,#329,#330,#331));
#793=EDGE_LOOP('',(#332,#333,#334,#335));
#794=EDGE_LOOP('',(#336,#337,#338,#339,#340));
#795=EDGE_LOOP('',(#341,#342,#343,#344,#345));
#796=EDGE_LOOP('',(#346,#347,#348,#349));
#797=EDGE_LOOP('',(#350,#351,#352,#353));
#798=EDGE_LOOP('',(#354,#355,#356));
#799=EDGE_LOOP('',(#357,#358,#359,#360));
#800=EDGE_LOOP('',(#361,#362,#363,#364));
#801=EDGE_LOOP('',(#365,#366,#367,#368));
#802=EDGE_LOOP('',(#369,#370,#371,#372));
#803=EDGE_LOOP('',(#373,#374,#375,#376));
#804=EDGE_LOOP('',(#377,#378,#379,#380));
#805=EDGE_LOOP('',(#381,#382,#383,#384,#385));
#806=EDGE_LOOP('',(#386,#387,#388,#389,#390));
#807=EDGE_LOOP('',(#391,#392,#393,#394));
#808=EDGE_LOOP('',(#395,#396,#397,#398));
#809=EDGE_LOOP('',(#399,#400,#401,#402));
#810=EDGE_LOOP('',(#403,#404,#405,#406));
#811=EDGE_LOOP('',(#407,#408,#409,#410));
#812=EDGE_LOOP('',(#411,#412,#413,#414));
#813=EDGE_LOOP('',(#415,#416,#417));
#814=EDGE_LOOP('',(#418,#419,#420,#421));
#815=EDGE_LOOP('',(#422,#423,#424,#425));
#816=EDGE_LOOP('',(#426,#427,#428,#429));
#817=EDGE_LOOP('',(#430,#431,#432));
#818=EDGE_LOOP('',(#433,#434,#435,#436));
#819=EDGE_LOOP('',(#437,#438,#439,#440));
#820=EDGE_LOOP('',(#441,#442,#443,#444));
#821=EDGE_LOOP('',(#445,#446,#447,#448));
#822=EDGE_LOOP('',(#449,#450,#451));
#823=EDGE_LOOP('',(#452,#453,#454));
#824=EDGE_LOOP('',(#455,#456,#457,#458));
#825=EDGE_LOOP('',(#459,#460,#461,#462));
#826=EDGE_LOOP('',(#463,#464,#465));
#827=EDGE_LOOP('',(#466,#467,#468,#469));
#828=FACE_BOUND('',#754,.T.);
#829=FACE_BOUND('',#755,.T.);
#830=FACE_BOUND('',#756,.T.);
#831=FACE_BOUND('',#757,.T.);
#832=FACE_BOUND('',#758,.T.);
#833=FACE_BOUND('',#759,.T.);
#834=FACE_BOUND('',#760,.T.);
#835=FACE_BOUND('',#761,.T.);
#836=FACE_BOUND('',#762,.T.);
#837=FACE_BOUND('',#763,.T.);
#838=FACE_BOUND('',#764,.T.);
#839=FACE_BOUND('',#765,.T.);
#840=FACE_BOUND('',#766,.T.);
#841=FACE_BOUND('',#767,.T.);
#842=FACE_BOUND('',#768,.T.);
#843=FACE_BOUND('',#769,.T.);
#844=FACE_BOUND('',#770,.T.);
#845=FACE_BOUND('',#771,.T.);
#846=FACE_BOUND('',#772,.T.);
#847=FACE_BOUND('',#773,.T.);
#848=FACE_BOUND('',#774,.T.);
#849=FACE_BOUND('',#775,.T.);
#850=FACE_BOUND('',#776,.T.);
#851=FACE_BOUND('',#777,.T.);
#852=FACE_BOUND('',#778,.T.);
#853=FACE_BOUND('',#779,.T.);
#854=FACE_BOUND('',#780,.T.);
#855=FACE_BOUND('',#781,.T.);
#856=FACE_BOUND('',#782,.T.);
#857=FACE_BOUND('',#783,.T.);
#858=FACE_BOUND('',#784,.T.);
#859=FACE_BOUND('',#785,.T.);
#860=FACE_BOUND('',#786,.T.);
#861=FACE_BOUND('',#787,.T.);
#862=FACE_BOUND('',#788,.T.);
#863=FACE_BOUND('',#789,.T.);
#864=FACE_BOUND('',#790,.T.);
#865=FACE_BOUND('',#791,.T.);
#866=FACE_BOUND('',#792,.T.);
#867=FACE_BOUND('',#793,.T.);
#868=FACE_BOUND('',#794,.T.);
#869=FACE_BOUND('',#795,.T.);
#870=FACE_BOUND('',#796,.T.);
#871=FACE_BOUND('',#797,.T.);
#872=FACE_BOUND('',#798,.T.);
#873=FACE_BOUND('',#799,.T.);
#874=FACE_BOUND('',#800,.T.);
#875=FACE_BOUND('',#801,.T.);
#876=FACE_BOUND('',#802,.T.);
#877=FACE_BOUND('',#803,.T.);
#878=FACE_BOUND('',#804,.T.);
#879=FACE_BOUND('',#805,.T.);
#880=FACE_BOUND('',#806,.T.);
#881=FACE_BOUND('',#807,.T.);
#882=FACE_BOUND('',#808,.T.);
#883=FACE_BOUND('',#809,.T.);
#884=FACE_BOUND('',#810,.T.);
#885=FACE_BOUND('',#811,.T.);
#886=FACE_BOUND('',#812,.T.);
#887=FACE_BOUND('',#813,.T.);
#888=FACE_BOUND('',#814,.T.);
#889=FACE_BOUND('',#815,.T.);
#890=FACE_BOUND('',#816,.T.);
#891=FACE_BOUND('',#817,.T.);
#892=FACE_BOUND('',#818,.T.);
#893=FACE_BOUND('',#819,.T.);
#894=FACE_BOUND('',#820,.T.);
#895=FACE_BOUND('',#821,.T.);
#896=FACE_BOUND('',#822,.T.);
#897=FACE_BOUND('',#823,.T.);
#898=FACE_BOUND('',#824,.T.);
#899=FACE_BOUND('',#825,.T.);
#900=FACE_BOUND('',#826,.T.);
#901=FACE_BOUND('',#827,.T.);
#902=PLANE('',#995);
#903=PLANE('',#998);
#904=PLANE('',#1001);
#905=PLANE('',#1003);
#906=PLANE('',#1005);
#907=PLANE('',#1006);
#908=PLANE('',#1009);
#909=PLANE('',#1012);
#910=PLANE('',#1015);
#911=PLANE('',#1017);
#912=PLANE('',#1023);
#913=PLANE('',#1026);
#914=PLANE('',#1029);
#915=PLANE('',#1036);
#916=PLANE('',#1039);
#917=PLANE('',#1040);
#918=PLANE('',#1042);
#919=PLANE('',#1052);
#920=PLANE('',#1053);
#921=ADVANCED_FACE('',(#828),#902,.T.);
#922=ADVANCED_FACE('',(#829),#903,.T.);
#923=ADVANCED_FACE('',(#830),#904,.F.);
#924=ADVANCED_FACE('',(#831),#905,.T.);
#925=ADVANCED_FACE('',(#832),#906,.F.);
#926=ADVANCED_FACE('Face appearance 2',(#833,#834),#907,.T.);
#927=ADVANCED_FACE('Face appearance 2',(#835,#836),#908,.T.);
#928=ADVANCED_FACE('',(#837),#909,.F.);
#929=ADVANCED_FACE('',(#838),#910,.F.);
#930=ADVANCED_FACE('',(#839),#911,.T.);
#931=ADVANCED_FACE('',(#840,#841),#28,.F.);
#932=ADVANCED_FACE('',(#842,#843),#29,.F.);
#933=ADVANCED_FACE('',(#844,#845,#846),#912,.F.);
#934=ADVANCED_FACE('',(#847),#913,.T.);
#935=ADVANCED_FACE('',(#848,#849,#850),#914,.F.);
#936=ADVANCED_FACE('',(#851),#915,.F.);
#937=ADVANCED_FACE('',(#852,#853),#30,.F.);
#938=ADVANCED_FACE('',(#854),#916,.T.);
#939=ADVANCED_FACE('',(#855,#856,#857,#858),#917,.F.);
#940=ADVANCED_FACE('',(#859),#918,.T.);
#941=ADVANCED_FACE('',(#860,#861),#31,.F.);
#942=ADVANCED_FACE('',(#862),#32,.T.);
#943=ADVANCED_FACE('',(#863),#33,.F.);
#944=ADVANCED_FACE('',(#864),#34,.F.);
#945=ADVANCED_FACE('',(#865),#35,.F.);
#946=ADVANCED_FACE('',(#866),#919,.T.);
#947=ADVANCED_FACE('',(#867),#920,.T.);
#948=ADVANCED_FACE('',(#868),#36,.F.);
#949=ADVANCED_FACE('',(#869),#37,.F.);
#950=ADVANCED_FACE('',(#870),#22,.T.);
#951=ADVANCED_FACE('',(#871),#38,.T.);
#952=ADVANCED_FACE('',(#872),#16,.T.);
#953=ADVANCED_FACE('',(#873),#39,.T.);
#954=ADVANCED_FACE('',(#874),#23,.T.);
#955=ADVANCED_FACE('',(#875),#24,.T.);
#956=ADVANCED_FACE('',(#876),#40,.T.);
#957=ADVANCED_FACE('',(#877),#14,.T.);
#958=ADVANCED_FACE('',(#878),#41,.T.);
#959=ADVANCED_FACE('',(#879),#12,.T.);
#960=ADVANCED_FACE('',(#880),#13,.T.);
#961=ADVANCED_FACE('',(#881),#42,.T.);
#962=ADVANCED_FACE('',(#882),#15,.T.);
#963=ADVANCED_FACE('',(#883),#43,.T.);
#964=ADVANCED_FACE('',(#884),#25,.T.);
#965=ADVANCED_FACE('',(#885),#26,.T.);
#966=ADVANCED_FACE('',(#886),#44,.T.);
#967=ADVANCED_FACE('',(#887),#17,.T.);
#968=ADVANCED_FACE('',(#888),#45,.T.);
#969=ADVANCED_FACE('',(#889),#27,.T.);
#970=ADVANCED_FACE('',(#890),#46,.T.);
#971=ADVANCED_FACE('',(#891),#18,.T.);
#972=ADVANCED_FACE('',(#892),#47,.T.);
#973=ADVANCED_FACE('',(#893),#48,.T.);
#974=ADVANCED_FACE('',(#894),#49,.T.);
#975=ADVANCED_FACE('',(#895),#50,.T.);
#976=ADVANCED_FACE('',(#896),#19,.T.);
#977=ADVANCED_FACE('',(#897),#20,.T.);
#978=ADVANCED_FACE('',(#898),#51,.T.);
#979=ADVANCED_FACE('',(#899),#52,.T.);
#980=ADVANCED_FACE('',(#900),#21,.T.);
#981=ADVANCED_FACE('',(#901),#53,.T.);
#982=CLOSED_SHELL('',(#921,#922,#923,#924,#925,#926,#927,#928,#929,#930,
#931,#932,#933,#934,#935,#936,#937,#938,#939,#940,#941,#942,#943,#944,#945,
#946,#947,#948,#949,#950,#951,#952,#953,#954,#955,#956,#957,#958,#959,#960,
#961,#962,#963,#964,#965,#966,#967,#968,#969,#970,#971,#972,#973,#974,#975,
#976,#977,#978,#979,#980,#981));
#983=STYLED_ITEM('',(#984),#991);
#984=PRESENTATION_STYLE_ASSIGNMENT((#985));
#985=SURFACE_STYLE_USAGE(.BOTH.,#986);
#986=SURFACE_SIDE_STYLE('',(#987));
#987=SURFACE_STYLE_FILL_AREA(#988);
#988=FILL_AREA_STYLE('',(#989));
#989=FILL_AREA_STYLE_COLOUR('',#990);
#990=DRAUGHTING_PRE_DEFINED_COLOUR('red');
#991=MANIFOLD_SOLID_BREP('Part 2',#982);
#992=SHAPE_DEFINITION_REPRESENTATION(#1782,#993);
#993=SHAPE_REPRESENTATION('Part 2',(#994),#1777);
#994=AXIS2_PLACEMENT_3D('',#1436,#1120,#1121);
#995=AXIS2_PLACEMENT_3D('',#1437,#1122,#1123);
#996=AXIS2_PLACEMENT_3D('',#1438,#1124,#1125);
#997=AXIS2_PLACEMENT_3D('',#1443,#1127,#1128);
#998=AXIS2_PLACEMENT_3D('',#1450,#1132,#1133);
#999=AXIS2_PLACEMENT_3D('',#1454,#1135,#1136);
#1000=AXIS2_PLACEMENT_3D('',#1458,#1138,#1139);
#1001=AXIS2_PLACEMENT_3D('',#1463,#1142,#1143);
#1002=AXIS2_PLACEMENT_3D('',#1472,#1148,#1149);
#1003=AXIS2_PLACEMENT_3D('',#1482,#1152,#1153);
#1004=AXIS2_PLACEMENT_3D('',#1499,#1159,#1160);
#1005=AXIS2_PLACEMENT_3D('',#1501,#1162,#1163);
#1006=AXIS2_PLACEMENT_3D('',#1516,#1167,#1168);
#1007=AXIS2_PLACEMENT_3D('',#1517,#1169,#1170);
#1008=AXIS2_PLACEMENT_3D('',#1519,#1171,#1172);
#1009=AXIS2_PLACEMENT_3D('',#1527,#1176,#1177);
#1010=AXIS2_PLACEMENT_3D('',#1533,#1180,#1181);
#1011=AXIS2_PLACEMENT_3D('',#1536,#1183,#1184);
#1012=AXIS2_PLACEMENT_3D('',#1538,#1185,#1186);
#1013=AXIS2_PLACEMENT_3D('',#1542,#1188,#1189);
#1014=AXIS2_PLACEMENT_3D('',#1546,#1191,#1192);
#1015=AXIS2_PLACEMENT_3D('',#1547,#1193,#1194);
#1016=AXIS2_PLACEMENT_3D('',#1548,#1195,#1196);
#1017=AXIS2_PLACEMENT_3D('',#1553,#1199,#1200);
#1018=AXIS2_PLACEMENT_3D('',#1556,#1202,#1203);
#1019=AXIS2_PLACEMENT_3D('',#1557,#1204,#1205);
#1020=AXIS2_PLACEMENT_3D('',#1558,#1206,#1207);
#1021=AXIS2_PLACEMENT_3D('',#1560,#1208,#1209);
#1022=AXIS2_PLACEMENT_3D('',#1561,#1210,#1211);
#1023=AXIS2_PLACEMENT_3D('',#1563,#1212,#1213);
#1024=AXIS2_PLACEMENT_3D('',#1564,#1214,#1215);
#1025=AXIS2_PLACEMENT_3D('',#1570,#1218,#1219);
#1026=AXIS2_PLACEMENT_3D('',#1574,#1222,#1223);
#1027=AXIS2_PLACEMENT_3D('',#1575,#1224,#1225);
#1028=AXIS2_PLACEMENT_3D('',#1583,#1229,#1230);
#1029=AXIS2_PLACEMENT_3D('',#1584,#1231,#1232);
#1030=AXIS2_PLACEMENT_3D('',#1588,#1234,#1235);
#1031=AXIS2_PLACEMENT_3D('',#1592,#1237,#1238);
#1032=AXIS2_PLACEMENT_3D('',#1596,#1240,#1241);
#1033=AXIS2_PLACEMENT_3D('',#1600,#1243,#1244);
#1034=AXIS2_PLACEMENT_3D('',#1601,#1245,#1246);
#1035=AXIS2_PLACEMENT_3D('',#1603,#1247,#1248);
#1036=AXIS2_PLACEMENT_3D('',#1605,#1249,#1250);
#1037=AXIS2_PLACEMENT_3D('',#1607,#1252,#1253);
#1038=AXIS2_PLACEMENT_3D('',#1608,#1254,#1255);
#1039=AXIS2_PLACEMENT_3D('',#1610,#1256,#1257);
#1040=AXIS2_PLACEMENT_3D('',#1616,#1261,#1262);
#1041=AXIS2_PLACEMENT_3D('',#1625,#1267,#1268);
#1042=AXIS2_PLACEMENT_3D('',#1641,#1271,#1272);
#1043=AXIS2_PLACEMENT_3D('',#1647,#1276,#1277);
#1044=AXIS2_PLACEMENT_3D('',#1648,#1278,#1279);
#1045=AXIS2_PLACEMENT_3D('',#1649,#1280,#1281);
#1046=AXIS2_PLACEMENT_3D('',#1650,#1282,#1283);
#1047=AXIS2_PLACEMENT_3D('',#1651,#1284,#1285);
#1048=AXIS2_PLACEMENT_3D('',#1652,#1286,#1287);
#1049=AXIS2_PLACEMENT_3D('',#1653,#1288,#1289);
#1050=AXIS2_PLACEMENT_3D('',#1654,#1290,#1291);
#1051=AXIS2_PLACEMENT_3D('',#1655,#1292,#1293);
#1052=AXIS2_PLACEMENT_3D('',#1656,#1294,#1295);
#1053=AXIS2_PLACEMENT_3D('',#1662,#1299,#1300);
#1054=AXIS2_PLACEMENT_3D('',#1668,#1304,#1305);
#1055=AXIS2_PLACEMENT_3D('',#1669,#1306,#1307);
#1056=AXIS2_PLACEMENT_3D('',#1670,#1308,#1309);
#1057=AXIS2_PLACEMENT_3D('',#1672,#1310,#1311);
#1058=AXIS2_PLACEMENT_3D('',#1673,#1312,#1313);
#1059=AXIS2_PLACEMENT_3D('',#1674,#1314,#1315);
#1060=AXIS2_PLACEMENT_3D('',#1675,#1316,#1317);
#1061=AXIS2_PLACEMENT_3D('',#1677,#1318,#1319);
#1062=AXIS2_PLACEMENT_3D('',#1678,#1320,#1321);
#1063=AXIS2_PLACEMENT_3D('',#1679,#1322,#1323);
#1064=AXIS2_PLACEMENT_3D('',#1680,#1324,#1325);
#1065=AXIS2_PLACEMENT_3D('',#1681,#1326,#1327);
#1066=AXIS2_PLACEMENT_3D('',#1682,#1328,#1329);
#1067=AXIS2_PLACEMENT_3D('',#1683,#1330,#1331);
#1068=AXIS2_PLACEMENT_3D('',#1684,#1332,#1333);
#1069=AXIS2_PLACEMENT_3D('',#1685,#1334,#1335);
#1070=AXIS2_PLACEMENT_3D('',#1686,#1336,#1337);
#1071=AXIS2_PLACEMENT_3D('',#1692,#1338,#1339);
#1072=AXIS2_PLACEMENT_3D('',#1693,#1340,#1341);
#1073=AXIS2_PLACEMENT_3D('',#1694,#1342,#1343);
#1074=AXIS2_PLACEMENT_3D('',#1695,#1344,#1345);
#1075=AXIS2_PLACEMENT_3D('',#1696,#1346,#1347);
#1076=AXIS2_PLACEMENT_3D('',#1697,#1348,#1349);
#1077=AXIS2_PLACEMENT_3D('',#1698,#1350,#1351);
#1078=AXIS2_PLACEMENT_3D('',#1699,#1352,#1353);
#1079=AXIS2_PLACEMENT_3D('',#1730,#1354,#1355);
#1080=AXIS2_PLACEMENT_3D('',#1731,#1356,#1357);
#1081=AXIS2_PLACEMENT_3D('',#1732,#1358,#1359);
#1082=AXIS2_PLACEMENT_3D('',#1733,#1360,#1361);
#1083=AXIS2_PLACEMENT_3D('',#1734,#1362,#1363);
#1084=AXIS2_PLACEMENT_3D('',#1735,#1364,#1365);
#1085=AXIS2_PLACEMENT_3D('',#1736,#1366,#1367);
#1086=AXIS2_PLACEMENT_3D('',#1737,#1368,#1369);
#1087=AXIS2_PLACEMENT_3D('',#1743,#1370,#1371);
#1088=AXIS2_PLACEMENT_3D('',#1744,#1372,#1373);
#1089=AXIS2_PLACEMENT_3D('',#1745,#1374,#1375);
#1090=AXIS2_PLACEMENT_3D('',#1746,#1376,#1377);
#1091=AXIS2_PLACEMENT_3D('',#1747,#1378,#1379);
#1092=AXIS2_PLACEMENT_3D('',#1748,#1380,#1381);
#1093=AXIS2_PLACEMENT_3D('',#1749,#1382,#1383);
#1094=AXIS2_PLACEMENT_3D('',#1750,#1384,#1385);
#1095=AXIS2_PLACEMENT_3D('',#1751,#1386,#1387);
#1096=AXIS2_PLACEMENT_3D('',#1752,#1388,#1389);
#1097=AXIS2_PLACEMENT_3D('',#1753,#1390,#1391);
#1098=AXIS2_PLACEMENT_3D('',#1754,#1392,#1393);
#1099=AXIS2_PLACEMENT_3D('',#1755,#1394,#1395);
#1100=AXIS2_PLACEMENT_3D('',#1756,#1396,#1397);
#1101=AXIS2_PLACEMENT_3D('',#1757,#1398,#1399);
#1102=AXIS2_PLACEMENT_3D('',#1758,#1400,#1401);
#1103=AXIS2_PLACEMENT_3D('',#1759,#1402,#1403);
#1104=AXIS2_PLACEMENT_3D('',#1760,#1404,#1405);
#1105=AXIS2_PLACEMENT_3D('',#1761,#1406,#1407);
#1106=AXIS2_PLACEMENT_3D('',#1762,#1408,#1409);
#1107=AXIS2_PLACEMENT_3D('',#1763,#1410,#1411);
#1108=AXIS2_PLACEMENT_3D('',#1764,#1412,#1413);
#1109=AXIS2_PLACEMENT_3D('',#1765,#1414,#1415);
#1110=AXIS2_PLACEMENT_3D('',#1766,#1416,#1417);
#1111=AXIS2_PLACEMENT_3D('',#1767,#1418,#1419);
#1112=AXIS2_PLACEMENT_3D('',#1768,#1420,#1421);
#1113=AXIS2_PLACEMENT_3D('',#1769,#1422,#1423);
#1114=AXIS2_PLACEMENT_3D('',#1770,#1424,#1425);
#1115=AXIS2_PLACEMENT_3D('',#1771,#1426,#1427);
#1116=AXIS2_PLACEMENT_3D('',#1772,#1428,#1429);
#1117=AXIS2_PLACEMENT_3D('',#1773,#1430,#1431);
#1118=AXIS2_PLACEMENT_3D('',#1774,#1432,#1433);
#1119=AXIS2_PLACEMENT_3D('',#1775,#1434,#1435);
#1120=DIRECTION('',(0.,0.,1.));
#1121=DIRECTION('',(1.,0.,0.));
#1122=DIRECTION('',(0.,0.,1.));
#1123=DIRECTION('',(1.,0.,0.));
#1124=DIRECTION('',(0.,0.,1.));
#1125=DIRECTION('',(1.,0.,0.));
#1126=DIRECTION('',(1.,0.,0.));
#1127=DIRECTION('',(0.,0.,1.));
#1128=DIRECTION('',(1.,0.,0.));
#1129=DIRECTION('',(0.,-1.,0.));
#1130=DIRECTION('',(-1.,0.,0.));
#1131=DIRECTION('',(0.,1.,0.));
#1132=DIRECTION('',(0.,0.,-1.));
#1133=DIRECTION('',(1.,0.,0.));
#1134=DIRECTION('',(0.,1.,0.));
#1135=DIRECTION('',(0.,0.,-1.));
#1136=DIRECTION('',(-1.,0.,0.));
#1137=DIRECTION('',(-1.,0.,0.));
#1138=DIRECTION('',(0.,0.,-1.));
#1139=DIRECTION('',(-1.,0.,0.));
#1140=DIRECTION('',(0.,1.,0.));
#1141=DIRECTION('',(-1.,0.,0.));
#1142=DIRECTION('',(1.,0.,0.));
#1143=DIRECTION('',(0.,0.,-1.));
#1144=DIRECTION('',(0.,1.,0.));
#1145=DIRECTION('',(0.,0.,1.));
#1146=DIRECTION('',(0.,1.,0.));
#1147=DIRECTION('',(0.,0.,-1.));
#1148=DIRECTION('',(1.,0.,0.));
#1149=DIRECTION('',(0.,0.,-1.));
#1150=DIRECTION('',(0.,0.,-1.));
#1151=DIRECTION('',(0.,1.,0.));
#1152=DIRECTION('',(1.,0.,0.));
#1153=DIRECTION('',(0.,0.,-1.));
#1154=DIRECTION('',(0.,1.,0.));
#1155=DIRECTION('',(0.,0.,1.));
#1156=DIRECTION('',(0.,1.,0.));
#1157=DIRECTION('',(0.,1.,0.));
#1158=DIRECTION('',(0.,0.,1.));
#1159=DIRECTION('',(1.,0.,0.));
#1160=DIRECTION('',(0.,0.,-1.));
#1161=DIRECTION('',(0.,0.,-1.));
#1162=DIRECTION('',(0.,0.,-1.));
#1163=DIRECTION('',(-1.,0.,0.));
#1164=DIRECTION('',(-1.,0.,0.));
#1165=DIRECTION('',(-0.999999864261989,-0.000521033592046269,0.));
#1166=DIRECTION('',(0.999999864261989,-0.00052103359204627,0.));
#1167=DIRECTION('',(0.,0.,-1.));
#1168=DIRECTION('',(1.,0.,0.));
#1169=DIRECTION('',(0.,0.,1.));
#1170=DIRECTION('',(-1.,0.,0.));
#1171=DIRECTION('',(0.,0.,-1.));
#1172=DIRECTION('',(-1.,0.,0.));
#1173=DIRECTION('',(-0.999999864261989,-0.000521033592046269,0.));
#1174=DIRECTION('',(0.,1.,0.));
#1175=DIRECTION('',(1.,-3.96508223080413E-16,0.));
#1176=DIRECTION('',(0.,0.,-1.));
#1177=DIRECTION('',(1.,0.,0.));
#1178=DIRECTION('',(0.,1.,0.));
#1179=DIRECTION('',(0.999999864261989,-0.00052103359204627,0.));
#1180=DIRECTION('',(0.,0.,-1.));
#1181=DIRECTION('',(-1.,0.,0.));
#1182=DIRECTION('',(1.,-3.96508223080413E-16,0.));
#1183=DIRECTION('',(0.,0.,-1.));
#1184=DIRECTION('',(-1.,0.,0.));
#1185=DIRECTION('',(-3.96508223080413E-16,-1.,0.));
#1186=DIRECTION('',(1.,-3.96508223080413E-16,0.));
#1187=DIRECTION('',(1.,-3.96508223080413E-16,0.));
#1188=DIRECTION('',(-3.96508223080413E-16,-1.,0.));
#1189=DIRECTION('',(1.,-3.96508223080413E-16,0.));
#1190=DIRECTION('',(-1.,0.,0.));
#1191=DIRECTION('',(-3.96508223080413E-16,-1.,0.));
#1192=DIRECTION('',(1.,-3.96508223080413E-16,0.));
#1193=DIRECTION('',(-0.000521033592046269,0.999999864261989,0.));
#1194=DIRECTION('',(-0.999999864261989,-0.000521033592046269,0.));
#1195=DIRECTION('',(-0.000521033592046269,0.999999864261989,0.));
#1196=DIRECTION('',(-0.999999864261989,-0.000521033592046269,0.));
#1197=DIRECTION('',(-0.999999864261989,-0.000521033592046269,0.));
#1198=DIRECTION('',(0.,0.,1.));
#1199=DIRECTION('',(-0.00052103359204627,-0.999999864261989,0.));
#1200=DIRECTION('',(0.999999864261989,-0.00052103359204627,0.));
#1201=DIRECTION('',(0.999999864261989,-0.00052103359204627,0.));
#1202=DIRECTION('',(-0.00052103359204627,-0.999999864261989,0.));
#1203=DIRECTION('',(-0.999999864261989,0.00052103359204627,0.));
#1204=DIRECTION('',(0.,0.,1.));
#1205=DIRECTION('',(1.,0.,0.));
#1206=DIRECTION('',(0.,0.,-1.));
#1207=DIRECTION('',(-1.,0.,0.));
#1208=DIRECTION('',(0.,0.,1.));
#1209=DIRECTION('',(1.,0.,0.));
#1210=DIRECTION('',(0.,0.,1.));
#1211=DIRECTION('',(-1.,0.,0.));
#1212=DIRECTION('',(0.,0.,-1.));
#1213=DIRECTION('',(1.,0.,0.));
#1214=DIRECTION('',(0.,0.,-1.));
#1215=DIRECTION('',(-1.,0.,0.));
#1216=DIRECTION('',(0.999999864261989,-0.00052103359204627,0.));
#1217=DIRECTION('',(-0.999999864261989,-0.000521033592046269,0.));
#1218=DIRECTION('',(0.,0.,1.));
#1219=DIRECTION('',(-1.,0.,0.));
#1220=DIRECTION('',(1.,-3.96508223080413E-16,0.));
#1221=DIRECTION('',(1.,-3.96508223080413E-16,0.));
#1222=DIRECTION('',(0.,1.,0.));
#1223=DIRECTION('',(0.,0.,1.));
#1224=DIRECTION('',(0.,1.,0.));
#1225=DIRECTION('',(0.,0.,1.));
#1226=DIRECTION('',(0.,0.,1.));
#1227=DIRECTION('',(-1.,0.,0.));
#1228=DIRECTION('',(0.,0.,1.));
#1229=DIRECTION('',(0.,1.,0.));
#1230=DIRECTION('',(0.,0.,1.));
#1231=DIRECTION('',(0.,1.,0.));
#1232=DIRECTION('',(0.,0.,1.));
#1233=DIRECTION('',(0.,0.,1.));
#1234=DIRECTION('',(0.,1.,0.));
#1235=DIRECTION('',(0.,0.,1.));
#1236=DIRECTION('',(-1.,0.,0.));
#1237=DIRECTION('',(0.,1.,0.));
#1238=DIRECTION('',(0.,0.,1.));
#1239=DIRECTION('',(0.,0.,-1.));
#1240=DIRECTION('',(0.,1.,0.));
#1241=DIRECTION('',(0.,0.,1.));
#1242=DIRECTION('',(-1.,0.,0.));
#1243=DIRECTION('',(0.,1.,0.));
#1244=DIRECTION('',(0.,0.,1.));
#1245=DIRECTION('',(0.,-1.,0.));
#1246=DIRECTION('',(0.,0.,-1.));
#1247=DIRECTION('',(0.,-1.,0.));
#1248=DIRECTION('',(0.,0.,-1.));
#1249=DIRECTION('',(0.,1.,0.));
#1250=DIRECTION('',(0.,0.,1.));
#1251=DIRECTION('',(-1.,0.,0.));
#1252=DIRECTION('',(0.,-1.,0.));
#1253=DIRECTION('',(0.,0.,-1.));
#1254=DIRECTION('',(0.,-1.,0.));
#1255=DIRECTION('',(0.,0.,-1.));
#1256=DIRECTION('',(1.,0.,0.));
#1257=DIRECTION('',(0.,0.,-1.));
#1258=DIRECTION('',(0.,0.,1.));
#1259=DIRECTION('',(0.,-1.,0.));
#1260=DIRECTION('',(0.,-1.,0.));
#1261=DIRECTION('',(0.,-1.,0.));
#1262=DIRECTION('',(1.,0.,0.));
#1263=DIRECTION('',(-1.,0.,0.));
#1264=DIRECTION('',(0.,0.,-1.));
#1265=DIRECTION('',(1.,0.,0.));
#1266=DIRECTION('',(0.,0.,1.));
#1267=DIRECTION('',(0.,-1.,0.));
#1268=DIRECTION('',(0.,0.,-1.));
#1269=DIRECTION('',(0.,0.,-1.));
#1270=DIRECTION('',(0.,0.,-1.));
#1271=DIRECTION('',(-1.,0.,0.));
#1272=DIRECTION('',(0.,0.,1.));
#1273=DIRECTION('',(0.,-1.,0.));
#1274=DIRECTION('',(0.,0.,-1.));
#1275=DIRECTION('',(0.,-1.,0.));
#1276=DIRECTION('',(0.,-1.,0.));
#1277=DIRECTION('',(0.,0.,-1.));
#1278=DIRECTION('',(-1.,0.,0.));
#1279=DIRECTION('',(0.,0.,1.));
#1280=DIRECTION('',(-1.,0.,0.));
#1281=DIRECTION('',(0.,0.,1.));
#1282=DIRECTION('',(-1.,0.,0.));
#1283=DIRECTION('',(0.,0.,1.));
#1284=DIRECTION('',(0.,0.,-1.));
#1285=DIRECTION('',(-1.,0.,0.));
#1286=DIRECTION('',(0.,0.,-1.));
#1287=DIRECTION('',(-1.,0.,0.));
#1288=DIRECTION('',(0.,0.,1.));
#1289=DIRECTION('',(1.,0.,0.));
#1290=DIRECTION('',(0.,0.,-1.));
#1291=DIRECTION('',(-1.,0.,0.));
#1292=DIRECTION('',(-1.,0.,0.));
#1293=DIRECTION('',(0.,0.,1.));
#1294=DIRECTION('',(0.,0.,-1.));
#1295=DIRECTION('',(1.,0.,0.));
#1296=DIRECTION('',(-1.,0.,0.));
#1297=DIRECTION('',(0.,-1.,0.));
#1298=DIRECTION('',(0.,-1.,0.));
#1299=DIRECTION('',(0.,0.,1.));
#1300=DIRECTION('',(1.,0.,0.));
#1301=DIRECTION('',(0.,-1.,0.));
#1302=DIRECTION('',(1.,0.,0.));
#1303=DIRECTION('',(0.,-1.,0.));
#1304=DIRECTION('',(0.,-1.,0.));
#1305=DIRECTION('',(0.,0.,-1.));
#1306=DIRECTION('',(0.00104206675974757,-0.999999457048287,0.));
#1307=DIRECTION('',(-0.999999457048287,-0.00104206675974757,0.));
#1308=DIRECTION('',(0.,1.,0.));
#1309=DIRECTION('',(0.,0.,1.));
#1310=DIRECTION('',(-3.96508223080413E-16,-1.,0.));
#1311=DIRECTION('',(1.,-3.96508223080413E-16,0.));
#1312=DIRECTION('',(0.,1.,0.));
#1313=DIRECTION('',(0.,0.,1.));
#1314=DIRECTION('',(0.00104206675974757,0.999999457048287,0.));
#1315=DIRECTION('',(-0.999999457048287,0.00104206675974757,0.));
#1316=DIRECTION('',(-3.96508223080413E-16,-1.,0.));
#1317=DIRECTION('',(1.,-3.96508223080413E-16,0.));
#1318=DIRECTION('',(0.,1.,0.));
#1319=DIRECTION('',(0.,0.,1.));
#1320=DIRECTION('',(0.,0.,-1.));
#1321=DIRECTION('',(-1.,0.,0.));
#1322=DIRECTION('',(0.,1.,0.));
#1323=DIRECTION('',(0.,0.,1.));
#1324=DIRECTION('',(0.,1.,0.));
#1325=DIRECTION('',(0.,0.,1.));
#1326=DIRECTION('',(0.,1.,0.));
#1327=DIRECTION('',(0.,0.,1.));
#1328=DIRECTION('',(1.,0.,0.));
#1329=DIRECTION('',(0.,0.,-1.));
#1330=DIRECTION('',(0.,0.,1.));
#1331=DIRECTION('',(1.,0.,0.));
#1332=DIRECTION('',(0.,0.,1.));
#1333=DIRECTION('',(1.,0.,0.));
#1334=DIRECTION('',(0.,0.,1.));
#1335=DIRECTION('',(1.,0.,0.));
#1336=DIRECTION('',(0.,1.,0.));
#1337=DIRECTION('',(0.,0.,1.));
#1338=DIRECTION('',(-3.96508223080413E-16,-1.,0.));
#1339=DIRECTION('',(1.,-3.96508223080413E-16,0.));
#1340=DIRECTION('',(1.,0.,0.));
#1341=DIRECTION('',(0.,0.,-1.));
#1342=DIRECTION('',(-1.,3.96508223080413E-16,0.));
#1343=DIRECTION('',(-3.96508223080413E-16,-1.,0.));
#1344=DIRECTION('',(1.,0.,0.));
#1345=DIRECTION('',(0.,0.,-1.));
#1346=DIRECTION('',(0.,0.,-1.));
#1347=DIRECTION('',(-1.,0.,0.));
#1348=DIRECTION('',(-0.999999864262142,-0.000521033297066778,0.));
#1349=DIRECTION('',(0.000521033297066778,-0.999999864262142,0.));
#1350=DIRECTION('',(0.999999864261989,0.000521033592046269,0.));
#1351=DIRECTION('',(-0.000521033592046269,0.999999864261989,0.));
#1352=DIRECTION('',(-0.999999864261989,-0.00052103359204646,0.));
#1353=DIRECTION('',(0.00052103359204646,-0.999999864261989,0.));
#1354=DIRECTION('',(-0.999999864261989,0.00052103359204646,0.));
#1355=DIRECTION('',(-0.00052103359204646,-0.999999864261989,0.));
#1356=DIRECTION('',(0.999999864261989,-0.00052103359204627,0.));
#1357=DIRECTION('',(0.00052103359204627,0.999999864261989,0.));
#1358=DIRECTION('',(-0.999999864261989,0.000521033592045094,0.));
#1359=DIRECTION('',(-0.000521033592045094,-0.999999864261989,0.));
#1360=DIRECTION('',(0.,0.,-1.));
#1361=DIRECTION('',(-1.,0.,0.));
#1362=DIRECTION('',(1.,0.,0.));
#1363=DIRECTION('',(0.,0.,-1.));
#1364=DIRECTION('',(-1.,3.96508223080413E-16,0.));
#1365=DIRECTION('',(-3.96508223080413E-16,-1.,0.));
#1366=DIRECTION('',(1.,0.,0.));
#1367=DIRECTION('',(0.,0.,-1.));
#1368=DIRECTION('',(-3.96508223080413E-16,-1.,0.));
#1369=DIRECTION('',(1.,-3.96508223080413E-16,0.));
#1370=DIRECTION('',(0.,1.,0.));
#1371=DIRECTION('',(0.,0.,1.));
#1372=DIRECTION('',(0.,0.,-1.));
#1373=DIRECTION('',(-1.,0.,0.));
#1374=DIRECTION('',(0.,0.,-1.));
#1375=DIRECTION('',(-1.,0.,0.));
#1376=DIRECTION('',(0.,0.,-1.));
#1377=DIRECTION('',(-1.,0.,0.));
#1378=DIRECTION('',(1.,0.,0.));
#1379=DIRECTION('',(0.,0.,-1.));
#1380=DIRECTION('',(0.,-1.,0.));
#1381=DIRECTION('',(0.,0.,-1.));
#1382=DIRECTION('',(0.,-1.,0.));
#1383=DIRECTION('',(0.,0.,-1.));
#1384=DIRECTION('',(0.,-1.,0.));
#1385=DIRECTION('',(0.,0.,-1.));
#1386=DIRECTION('',(0.,0.,-1.));
#1387=DIRECTION('',(-1.,0.,0.));
#1388=DIRECTION('',(0.,-1.,0.));
#1389=DIRECTION('',(0.,0.,-1.));
#1390=DIRECTION('',(0.,1.,0.));
#1391=DIRECTION('',(0.,0.,1.));
#1392=DIRECTION('',(-1.,0.,0.));
#1393=DIRECTION('',(0.,0.,1.));
#1394=DIRECTION('',(-1.,0.,0.));
#1395=DIRECTION('',(0.,0.,1.));
#1396=DIRECTION('',(0.,0.,-1.));
#1397=DIRECTION('',(-1.,0.,0.));
#1398=DIRECTION('',(0.,-1.,0.));
#1399=DIRECTION('',(0.,0.,-1.));
#1400=DIRECTION('',(0.,1.,0.));
#1401=DIRECTION('',(0.,0.,1.));
#1402=DIRECTION('',(0.,0.,1.));
#1403=DIRECTION('',(1.,0.,0.));
#1404=DIRECTION('',(0.,0.,1.));
#1405=DIRECTION('',(1.,0.,0.));
#1406=DIRECTION('',(1.,0.,0.));
#1407=DIRECTION('',(0.,0.,-1.));
#1408=DIRECTION('',(1.,0.,0.));
#1409=DIRECTION('',(0.,0.,-1.));
#1410=DIRECTION('',(0.,-1.,0.));
#1411=DIRECTION('',(0.,0.,-1.));
#1412=DIRECTION('',(0.,1.,0.));
#1413=DIRECTION('',(0.,0.,1.));
#1414=DIRECTION('',(-1.,0.,0.));
#1415=DIRECTION('',(0.,0.,1.));
#1416=DIRECTION('',(-1.,0.,0.));
#1417=DIRECTION('',(0.,0.,1.));
#1418=DIRECTION('',(0.,0.,-1.));
#1419=DIRECTION('',(-1.,0.,0.));
#1420=DIRECTION('',(0.,0.,-1.));
#1421=DIRECTION('',(-1.,0.,0.));
#1422=DIRECTION('',(-1.,0.,0.));
#1423=DIRECTION('',(0.,0.,1.));
#1424=DIRECTION('',(1.,0.,0.));
#1425=DIRECTION('',(0.,0.,-1.));
#1426=DIRECTION('',(0.,0.,-1.));
#1427=DIRECTION('',(-1.,0.,0.));
#1428=DIRECTION('',(0.,0.,1.));
#1429=DIRECTION('',(1.,0.,0.));
#1430=DIRECTION('',(0.,1.,0.));
#1431=DIRECTION('',(0.,0.,1.));
#1432=DIRECTION('',(0.,1.,0.));
#1433=DIRECTION('',(0.,0.,1.));
#1434=DIRECTION('',(0.,-1.,0.));
#1435=DIRECTION('',(0.,0.,-1.));
#1436=CARTESIAN_POINT('',(0.,0.,0.));
#1437=CARTESIAN_POINT('',(0.448824692692671,-0.135116562766738,0.0261091771915423));
#1438=CARTESIAN_POINT('',(-0.02159,-0.133795310486921,0.0261091771915423));
#1439=CARTESIAN_POINT('',(-0.01905,-0.133795310486921,0.0261091771915423));
#1440=CARTESIAN_POINT('',(-0.02159,-0.136335310486921,0.0261091771915423));
#1441=CARTESIAN_POINT('',(0.,-0.136335310486921,0.0261091771915423));
#1442=CARTESIAN_POINT('',(0.02159,-0.136335310486921,0.0261091771915423));
#1443=CARTESIAN_POINT('',(0.02159,-0.133795310486921,0.0261091771915423));
#1444=CARTESIAN_POINT('',(0.01905,-0.133795310486921,0.0261091771915423));
#1445=CARTESIAN_POINT('',(0.01905,-0.125009118089098,0.0261091771915423));
#1446=CARTESIAN_POINT('',(0.01905,-0.132627815046554,0.0261091771915423));
#1447=CARTESIAN_POINT('',(0.448824692692671,-0.132627815046554,0.0261091771915423));
#1448=CARTESIAN_POINT('',(-0.01905,-0.132627815046554,0.0261091771915423));
#1449=CARTESIAN_POINT('',(-0.01905,-0.135116562766738,0.0261091771915423));
#1450=CARTESIAN_POINT('',(0.,-0.125009118089098,0.01976));
#1451=CARTESIAN_POINT('',(0.01651,-0.125009118089098,0.01976));
#1452=CARTESIAN_POINT('',(0.01651,-0.122572925691276,0.01976));
#1453=CARTESIAN_POINT('',(0.01651,-0.133795310486921,0.01976));
#1454=CARTESIAN_POINT('',(0.02159,-0.133795310486921,0.01976));
#1455=CARTESIAN_POINT('',(0.0171905909487751,-0.136335310486921,0.01976));
#1456=CARTESIAN_POINT('',(3.46944695195361E-18,-0.136335310486921,0.01976));
#1457=CARTESIAN_POINT('',(-0.0171905909487751,-0.136335310486921,0.01976));
#1458=CARTESIAN_POINT('',(-0.02159,-0.133795310486921,0.01976));
#1459=CARTESIAN_POINT('',(-0.01651,-0.133795310486921,0.01976));
#1460=CARTESIAN_POINT('',(-0.01651,-0.122572925691276,0.01976));
#1461=CARTESIAN_POINT('',(-0.01651,-0.122572925691276,0.01976));
#1462=CARTESIAN_POINT('',(0.,-0.122572925691276,0.01976));
#1463=CARTESIAN_POINT('',(-0.01905,-0.125009118089098,0.01976));
#1464=CARTESIAN_POINT('',(-0.01905,-0.125009118089098,0.02992));
#1465=CARTESIAN_POINT('',(-0.01905,-0.12744663356765,0.02992));
#1466=CARTESIAN_POINT('',(-0.01905,-0.122572925691276,0.02992));
#1467=CARTESIAN_POINT('',(-0.01905,-0.122572925691276,0.0223));
#1468=CARTESIAN_POINT('',(-0.01905,-0.122572925691276,0.0223));
#1469=CARTESIAN_POINT('',(-0.01905,-0.133795310486921,0.0223));
#1470=CARTESIAN_POINT('',(-0.01905,-0.133795310486921,0.0223));
#1471=CARTESIAN_POINT('',(-0.01905,-0.133795310486921,0.0261091771915423));
#1472=CARTESIAN_POINT('',(-0.01905,-0.132627815046554,0.0286491771915423));
#1473=CARTESIAN_POINT('',(-0.01905,-0.130087815046554,0.0286491771915423));
#1474=CARTESIAN_POINT('',(-0.01905,-0.130087815046554,0.0292845885957712));
#1475=CARTESIAN_POINT('',(-0.01905,-0.130087815046554,0.03246));
#1476=CARTESIAN_POINT('',(-0.01905,-0.140145310486921,0.03246));
#1477=CARTESIAN_POINT('',(-0.01905,-0.129504440769514,0.03246));
#1478=CARTESIAN_POINT('',(-0.01905,-0.129504440769514,0.03246));
#1479=CARTESIAN_POINT('',(-0.01905,-0.129002217025296,0.0314766218718408));
#1480=CARTESIAN_POINT('',(-0.01905,-0.128217150359565,0.0306905194353013));
#1481=CARTESIAN_POINT('',(-0.01905,-0.12744663356765,0.02992));
#1482=CARTESIAN_POINT('',(0.01905,-0.125009118089098,0.01976));
#1483=CARTESIAN_POINT('',(0.01905,-0.125009118089098,0.0223));
#1484=CARTESIAN_POINT('',(0.01905,-0.133795310486921,0.0223));
#1485=CARTESIAN_POINT('',(0.01905,-0.122572925691276,0.0223));
#1486=CARTESIAN_POINT('',(0.01905,-0.122572925691276,0.01976));
#1487=CARTESIAN_POINT('',(0.01905,-0.122572925691276,0.02992));
#1488=CARTESIAN_POINT('',(0.01905,-0.129985310486921,0.02992));
#1489=CARTESIAN_POINT('',(0.01905,-0.12744663356765,0.02992));
#1490=CARTESIAN_POINT('',(0.01905,-0.129504440769514,0.03246));
#1491=CARTESIAN_POINT('',(0.01905,-0.129002217025296,0.0314766218718408));
#1492=CARTESIAN_POINT('',(0.01905,-0.128217150359565,0.0306905194353013));
#1493=CARTESIAN_POINT('',(0.01905,-0.12744663356765,0.02992));
#1494=CARTESIAN_POINT('',(0.0190499999981844,-0.129504440769514,0.03246));
#1495=CARTESIAN_POINT('',(0.0190499999981844,-0.140145310486922,0.03246));
#1496=CARTESIAN_POINT('',(0.01905,-0.130087815046554,0.03246));
#1497=CARTESIAN_POINT('',(0.01905,-0.130087815046554,0.01976));
#1498=CARTESIAN_POINT('',(0.01905,-0.130087815046554,0.0286491771915423));
#1499=CARTESIAN_POINT('',(0.01905,-0.132627815046554,0.0286491771915423));
#1500=CARTESIAN_POINT('',(0.01905,-0.133795310486921,0.01976));
#1501=CARTESIAN_POINT('',(3.46944695195361E-18,-0.140145310486921,0.03246));
#1502=CARTESIAN_POINT('',(0.448824692692671,-0.130087815046554,0.03246));
#1503=CARTESIAN_POINT('',(0.01905,-0.129504440769514,0.03246));
#1504=CARTESIAN_POINT('',(0.0184726237028268,-0.1297997395553,0.03246));
#1505=CARTESIAN_POINT('',(0.0178420994636228,-0.129985939843762,0.03246));
#1506=CARTESIAN_POINT('',(0.0171919143740988,-0.129986278612081,0.03246));
#1507=CARTESIAN_POINT('',(0.0171919143740988,-0.129986278612081,0.03246));
#1508=CARTESIAN_POINT('',(0.0175,-0.129986118089098,0.03246));
#1509=CARTESIAN_POINT('',(-2.11355896163629E-18,-0.129995236178197,0.03246));
#1510=CARTESIAN_POINT('',(-0.0175,-0.129986118089098,0.03246));
#1511=CARTESIAN_POINT('',(-0.0171919143740988,-0.129986278612081,0.03246));
#1512=CARTESIAN_POINT('',(-0.0171919143740988,-0.129986278612081,0.03246));
#1513=CARTESIAN_POINT('',(-0.0178434173961967,-0.129985939157075,0.03246));
#1514=CARTESIAN_POINT('',(-0.018471591159444,-0.129800267649038,0.03246));
#1515=CARTESIAN_POINT('',(-0.01905,-0.129504440769513,0.03246));
#1516=CARTESIAN_POINT('',(1.62370117351429E-14,3.13638004456607E-15,0.03246));
#1517=CARTESIAN_POINT('',(0.035,-0.125,0.03246));
#1518=CARTESIAN_POINT('',(0.033325,-0.125,0.03246));
#1519=CARTESIAN_POINT('',(0.035,-0.125,0.03246));
#1520=CARTESIAN_POINT('',(0.035,-0.122563,0.03246));
#1521=CARTESIAN_POINT('',(0.0349986765750586,-0.127436999640654,0.03246));
#1522=CARTESIAN_POINT('',(0.0215886765746762,-0.127443987406192,0.03246));
#1523=CARTESIAN_POINT('',(0.02159,-0.127443986716643,0.03246));
#1524=CARTESIAN_POINT('',(0.02159,-0.120032925691276,0.03246));
#1525=CARTESIAN_POINT('',(0.02159,-0.122563,0.03246));
#1526=CARTESIAN_POINT('',(0.035,-0.122563,0.03246));
#1527=CARTESIAN_POINT('',(1.62370117351429E-14,3.13638004456607E-15,0.03246));
#1528=CARTESIAN_POINT('',(-0.02159,3.13638004456607E-15,0.03246));
#1529=CARTESIAN_POINT('',(-0.02159,-0.122563,0.03246));
#1530=CARTESIAN_POINT('',(-0.02159,-0.127443986716643,0.03246));
#1531=CARTESIAN_POINT('',(-6.64084503210049E-5,-0.127455201232384,0.03246));
#1532=CARTESIAN_POINT('',(-0.0349986765750586,-0.127436999640654,0.03246));
#1533=CARTESIAN_POINT('',(-0.035,-0.125,0.03246));
#1534=CARTESIAN_POINT('',(-0.035,-0.122563,0.03246));
#1535=CARTESIAN_POINT('',(-0.02159,-0.122563,0.03246));
#1536=CARTESIAN_POINT('',(-0.035,-0.125,0.03246));
#1537=CARTESIAN_POINT('',(-0.036675,-0.125,0.03246));
#1538=CARTESIAN_POINT('',(-0.0175,-0.120023,0.03246));
#1539=CARTESIAN_POINT('',(-0.0175,-0.120023,0.035));
#1540=CARTESIAN_POINT('',(-0.02159,-0.120023,0.035));
#1541=CARTESIAN_POINT('',(0.02159,-0.120023,0.035));
#1542=CARTESIAN_POINT('',(0.02159,-0.120023,0.02992));
#1543=CARTESIAN_POINT('',(0.0171905909487751,-0.120027962845638,0.03246));
#1544=CARTESIAN_POINT('',(3.46944695195361E-18,-0.120032925691276,0.03246));
#1545=CARTESIAN_POINT('',(-0.0171905909487751,-0.120027962845638,0.03246));
#1546=CARTESIAN_POINT('',(-0.02159,-0.120023,0.02992));
#1547=CARTESIAN_POINT('',(0.0175,-0.129986118089098,0.03246));
#1548=CARTESIAN_POINT('',(0.0215913234253238,-0.129983986371869,0.02992));
#1549=CARTESIAN_POINT('',(0.0215913234253238,-0.129983986371869,0.035));
#1550=CARTESIAN_POINT('',(0.0175,-0.129986118089098,0.035));
#1551=CARTESIAN_POINT('',(-2.11355896163629E-18,-0.129995236178197,0.035));
#1552=CARTESIAN_POINT('',(-2.11355896163629E-18,-0.129995236178197,0.03246));
#1553=CARTESIAN_POINT('',(-0.0175,-0.129986118089098,0.03246));
#1554=CARTESIAN_POINT('',(-0.0175,-0.129986118089098,0.035));
#1555=CARTESIAN_POINT('',(-0.0215913234253238,-0.129983986371869,0.035));
#1556=CARTESIAN_POINT('',(-0.0215913234253238,-0.129983986371869,0.02992));
#1557=CARTESIAN_POINT('',(-0.035,-0.125,0.03246));
#1558=CARTESIAN_POINT('',(-0.035,-0.125,0.035));
#1559=CARTESIAN_POINT('',(-0.036675,-0.125,0.035));
#1560=CARTESIAN_POINT('',(0.035,-0.125,0.03246));
#1561=CARTESIAN_POINT('',(0.035,-0.125,0.035));
#1562=CARTESIAN_POINT('',(0.033325,-0.125,0.035));
#1563=CARTESIAN_POINT('',(1.62370117351429E-14,3.13638004456607E-15,0.035));
#1564=CARTESIAN_POINT('',(-0.035,-0.125,0.035));
#1565=CARTESIAN_POINT('',(-0.035,-0.129977,0.035));
#1566=CARTESIAN_POINT('',(-0.035,-0.120023,0.035));
#1567=CARTESIAN_POINT('',(-0.0175,-0.129986118089098,0.035));
#1568=CARTESIAN_POINT('',(0.0175,-0.129986118089098,0.035));
#1569=CARTESIAN_POINT('',(0.035,-0.129977,0.035));
#1570=CARTESIAN_POINT('',(0.035,-0.125,0.035));
#1571=CARTESIAN_POINT('',(0.035,-0.120023,0.035));
#1572=CARTESIAN_POINT('',(-0.0175,-0.120023,0.035));
#1573=CARTESIAN_POINT('',(-0.0175,-0.120023,0.035));
#1574=CARTESIAN_POINT('',(3.46944695195361E-18,-0.120032925691276,0.01976));
#1575=CARTESIAN_POINT('',(0.02159,-0.120032925691276,0.02992));
#1576=CARTESIAN_POINT('',(0.01651,-0.120032925691276,0.02992));
#1577=CARTESIAN_POINT('',(0.01651,-0.120032925691276,0.01976));
#1578=CARTESIAN_POINT('',(0.01651,-0.120032925691276,0.0223));
#1579=CARTESIAN_POINT('',(3.46944695195361E-18,-0.120032925691276,0.0223));
#1580=CARTESIAN_POINT('',(-0.01651,-0.120032925691276,0.0223));
#1581=CARTESIAN_POINT('',(-0.01651,-0.120032925691276,0.02992));
#1582=CARTESIAN_POINT('',(-0.01651,-0.120032925691276,0.02992));
#1583=CARTESIAN_POINT('',(-0.02159,-0.120032925691276,0.02992));
#1584=CARTESIAN_POINT('',(3.46944695195361E-18,-0.140145310486921,0.01976));
#1585=CARTESIAN_POINT('',(0.04191,-0.140145310486921,0.0229345885957712));
#1586=CARTESIAN_POINT('',(0.04191,-0.140145310486921,0.019252));
#1587=CARTESIAN_POINT('',(0.04191,-0.140145310486921,0.0266171771915424));
#1588=CARTESIAN_POINT('',(0.041148,-0.140145310486921,0.0266171771915424));
#1589=CARTESIAN_POINT('',(0.041148,-0.140145310486921,0.0273791771915423));
#1590=CARTESIAN_POINT('',(0.448824692692671,-0.140145310486921,0.0273791771915423));
#1591=CARTESIAN_POINT('',(-0.041148,-0.140145310486921,0.0273791771915423));
#1592=CARTESIAN_POINT('',(-0.041148,-0.140145310486921,0.0266171771915424));
#1593=CARTESIAN_POINT('',(-0.04191,-0.140145310486921,0.0266171771915424));
#1594=CARTESIAN_POINT('',(-0.04191,-0.140145310486921,0.0229345885957712));
#1595=CARTESIAN_POINT('',(-0.04191,-0.140145310486921,0.019252));
#1596=CARTESIAN_POINT('',(-0.041148,-0.140145310486921,0.019252));
#1597=CARTESIAN_POINT('',(-0.041148,-0.140145310486921,0.01849));
#1598=CARTESIAN_POINT('',(3.46944695195361E-18,-0.140145310486921,0.01849));
#1599=CARTESIAN_POINT('',(0.041148,-0.140145310486921,0.01849));
#1600=CARTESIAN_POINT('',(0.041148,-0.140145310486921,0.019252));
#1601=CARTESIAN_POINT('',(-0.0375000012,-0.140145310486921,0.0229345885957711));
#1602=CARTESIAN_POINT('',(-0.0375000012,-0.140145310486921,0.0203945885957711));
#1603=CARTESIAN_POINT('',(0.0375000012,-0.140145310486921,0.0229345885957711));
#1604=CARTESIAN_POINT('',(0.0375000012,-0.140145310486921,0.0203945885957711));
#1605=CARTESIAN_POINT('',(0.448824692692671,-0.130087815046554,0.0292845885957712));
#1606=CARTESIAN_POINT('',(0.448824692692671,-0.130087815046554,0.0286491771915423));
#1607=CARTESIAN_POINT('',(0.0375000012,-0.136335310486921,0.0229345885957711));
#1608=CARTESIAN_POINT('',(0.0375000012,-0.136335310486921,0.0229345885957711));
#1609=CARTESIAN_POINT('',(0.0375000012,-0.136335310486921,0.0203945885957711));
#1610=CARTESIAN_POINT('',(0.04191,-0.136335310486921,0.0229345885957712));
#1611=CARTESIAN_POINT('',(0.04191,-0.137097310486921,0.0273791771915423));
#1612=CARTESIAN_POINT('',(0.04191,-0.137097310486921,0.019252));
#1613=CARTESIAN_POINT('',(0.04191,-0.137097310486921,0.0266171771915424));
#1614=CARTESIAN_POINT('',(0.04191,-0.136335310486921,0.0266171771915424));
#1615=CARTESIAN_POINT('',(0.04191,-0.136335310486921,0.019252));
#1616=CARTESIAN_POINT('',(0.,-0.136335310486921,0.0229345885957712));
#1617=CARTESIAN_POINT('',(-0.04191,-0.136335310486921,0.019252));
#1618=CARTESIAN_POINT('',(0.041148,-0.136335310486921,0.019252));
#1619=CARTESIAN_POINT('',(-0.041148,-0.136335310486921,0.019252));
#1620=CARTESIAN_POINT('',(-0.041148,-0.136335310486921,0.0273791771915423));
#1621=CARTESIAN_POINT('',(-0.041148,-0.136335310486921,0.0266171771915424));
#1622=CARTESIAN_POINT('',(0.04191,-0.136335310486921,0.0266171771915424));
#1623=CARTESIAN_POINT('',(0.041148,-0.136335310486921,0.0266171771915424));
#1624=CARTESIAN_POINT('',(0.041148,-0.136335310486921,0.01849));
#1625=CARTESIAN_POINT('',(-0.0375000012,-0.136335310486921,0.0229345885957711));
#1626=CARTESIAN_POINT('',(-0.0375000012,-0.136335310486921,0.0203945885957711));
#1627=CARTESIAN_POINT('',(-0.02159,-0.136335310486921,0.01976));
#1628=CARTESIAN_POINT('',(-0.02159,-0.136335310486921,0.0223));
#1629=CARTESIAN_POINT('',(-0.0171905909487751,-0.136335310486921,0.01976));
#1630=CARTESIAN_POINT('',(-0.0180710909596901,-0.136335310486921,0.01976));
#1631=CARTESIAN_POINT('',(-0.0197302978360524,-0.136335310486921,0.0204385679359183));
#1632=CARTESIAN_POINT('',(-0.0209771026261517,-0.136335310486921,0.0216871038269674));
#1633=CARTESIAN_POINT('',(-0.02159,-0.136335310486921,0.0223));
#1634=CARTESIAN_POINT('',(0.0171905909487751,-0.136335310486921,0.01976));
#1635=CARTESIAN_POINT('',(0.0180710909596901,-0.136335310486921,0.01976));
#1636=CARTESIAN_POINT('',(0.0197302978360524,-0.136335310486921,0.0204385679359183));
#1637=CARTESIAN_POINT('',(0.0209771026261517,-0.136335310486921,0.0216871038269674));
#1638=CARTESIAN_POINT('',(0.02159,-0.136335310486921,0.0223));
#1639=CARTESIAN_POINT('',(0.02159,-0.136335310486921,0.0223));
#1640=CARTESIAN_POINT('',(0.02159,-0.136335310486921,0.0229345885957712));
#1641=CARTESIAN_POINT('',(-0.04191,-0.136335310486921,0.0229345885957712));
#1642=CARTESIAN_POINT('',(-0.04191,-0.136335310486921,0.0266171771915424));
#1643=CARTESIAN_POINT('',(-0.04191,-0.137097310486921,0.0266171771915424));
#1644=CARTESIAN_POINT('',(-0.04191,-0.137097310486921,0.01849));
#1645=CARTESIAN_POINT('',(-0.04191,-0.137097310486921,0.019252));
#1646=CARTESIAN_POINT('',(-0.04191,-0.136335310486921,0.019252));
#1647=CARTESIAN_POINT('',(-0.0375000012,-0.136335310486921,0.0229345885957711));
#1648=CARTESIAN_POINT('',(3.46944695195361E-18,-0.122572925691276,0.0223));
#1649=CARTESIAN_POINT('',(0.01651,-0.122572925691276,0.0223));
#1650=CARTESIAN_POINT('',(-0.01651,-0.122572925691276,0.0223));
#1651=CARTESIAN_POINT('',(0.02159,-0.133795310486921,0.01976));
#1652=CARTESIAN_POINT('',(0.02159,-0.133795310486921,0.0223));
#1653=CARTESIAN_POINT('',(-0.02159,-0.133795310486921,0.0229345885957712));
#1654=CARTESIAN_POINT('',(-0.02159,-0.133795310486921,0.0223));
#1655=CARTESIAN_POINT('',(0.448824692692671,-0.132627815046554,0.0286491771915423));
#1656=CARTESIAN_POINT('',(0.,-0.131359118089098,0.01849));
#1657=CARTESIAN_POINT('',(0.04191,-0.137097310486921,0.01849));
#1658=CARTESIAN_POINT('',(-0.041148,-0.137097310486921,0.01849));
#1659=CARTESIAN_POINT('',(0.041148,-0.137097310486921,0.01849));
#1660=CARTESIAN_POINT('',(0.041148,-0.131359118089098,0.01849));
#1661=CARTESIAN_POINT('',(-0.041148,-0.131359118089098,0.01849));
#1662=CARTESIAN_POINT('',(0.,-0.136386562766738,0.0273791771915423));
#1663=CARTESIAN_POINT('',(0.041148,-0.136386562766738,0.0273791771915423));
#1664=CARTESIAN_POINT('',(0.041148,-0.137097310486921,0.0273791771915423));
#1665=CARTESIAN_POINT('',(-0.04191,-0.137097310486921,0.0273791771915423));
#1666=CARTESIAN_POINT('',(-0.041148,-0.137097310486921,0.0273791771915423));
#1667=CARTESIAN_POINT('',(-0.041148,-0.136386562766738,0.0273791771915423));
#1668=CARTESIAN_POINT('',(0.02159,3.13638004456607E-15,0.02992));
#1669=CARTESIAN_POINT('',(0.02159,-0.127443986716643,0.02992));
#1670=CARTESIAN_POINT('',(0.02159,-0.122572925691276,0.02992));
#1671=CARTESIAN_POINT('',(0.0193902954743875,-0.122563,0.03119));
#1672=CARTESIAN_POINT('',(0.02159,-0.122563,0.02992));
#1673=CARTESIAN_POINT('',(-0.02159,-0.125009118089098,0.02992));
#1674=CARTESIAN_POINT('',(-0.02159,-0.127443986716643,0.02992));
#1675=CARTESIAN_POINT('',(-0.02159,-0.122563,0.02992));
#1676=CARTESIAN_POINT('',(-0.0193902954743875,-0.122572925691276,0.03119));
#1677=CARTESIAN_POINT('',(-0.02159,-0.122572925691276,0.02992));
#1678=CARTESIAN_POINT('',(0.02159,-0.133795310486921,0.0223));
#1679=CARTESIAN_POINT('',(0.01651,-0.133795310486921,0.0223));
#1680=CARTESIAN_POINT('',(0.01651,-0.125009118089098,0.0223));
#1681=CARTESIAN_POINT('',(0.01651,-0.122572925691276,0.0223));
#1682=CARTESIAN_POINT('',(0.01651,-0.122572925691276,0.0223));
#1683=CARTESIAN_POINT('',(0.01651,-0.122572925691276,0.0223));
#1684=CARTESIAN_POINT('',(0.01651,-0.122572925691276,0.01976));
#1685=CARTESIAN_POINT('',(0.01651,-0.122572925691276,0.02992));
#1686=CARTESIAN_POINT('',(0.02159,-0.122572925691276,0.02992));
#1687=CARTESIAN_POINT('',(0.0171905909487751,-0.120032925691276,0.03246));
#1688=CARTESIAN_POINT('',(0.0177650396040793,-0.120032925691276,0.0321283419142245));
#1689=CARTESIAN_POINT('',(0.0189094129993062,-0.120580429977274,0.0314676376264368));
#1690=CARTESIAN_POINT('',(0.019388033893241,-0.12189968896877,0.0311913057244838));
#1691=CARTESIAN_POINT('',(0.0193902786792536,-0.122563000075784,0.0311900096966751));
#1692=CARTESIAN_POINT('',(0.02159,-0.122563,0.02992));
#1693=CARTESIAN_POINT('',(0.02159,-0.122563,0.035));
#1694=CARTESIAN_POINT('',(1.61884144977975E-14,-0.122563,0.035));
#1695=CARTESIAN_POINT('',(0.035,-0.122563,0.035));
#1696=CARTESIAN_POINT('',(0.035,-0.125,0.035));
#1697=CARTESIAN_POINT('',(0.0349986765750586,-0.127436999640654,0.035));
#1698=CARTESIAN_POINT('',(6.64084503534789E-5,-0.127455201232384,0.035));
#1699=CARTESIAN_POINT('',(0.02159,-0.127443986716643,0.035));
#1700=CARTESIAN_POINT('',(0.01905,-0.12744663356765,0.02992));
#1701=CARTESIAN_POINT('',(0.01905,-0.129985310486921,0.02992));
#1702=CARTESIAN_POINT('',(0.0165113234253238,-0.129986633222876,0.02992));
#1703=CARTESIAN_POINT('',(0.01905,-0.127446633567632,0.0305849704535998));
#1704=CARTESIAN_POINT('',(0.0190499998721843,-0.129985309614785,0.0305853165399275));
#1705=CARTESIAN_POINT('',(0.0165113234253215,-0.129986633222876,0.0312499409071972));
#1706=CARTESIAN_POINT('',(0.0196003827783709,-0.127446060031764,0.0319096172216278));
#1707=CARTESIAN_POINT('',(0.0196011193497435,-0.129985023771321,0.0319106763140695));
#1708=CARTESIAN_POINT('',(0.0176120889820667,-0.129986059686966,0.033899234443259));
#1709=CARTESIAN_POINT('',(0.0209250295464029,-0.127444679660597,0.03246));
#1710=CARTESIAN_POINT('',(0.0209263981411922,-0.12998433282031,0.0324603464483402));
#1711=CARTESIAN_POINT('',(0.0202613825181297,-0.129984679315851,0.0349999999999954));
#1712=CARTESIAN_POINT('',(0.02159,-0.127443986716643,0.03246));
#1713=CARTESIAN_POINT('',(0.0215913234253238,-0.129983986371869,0.03246));
#1714=CARTESIAN_POINT('',(0.0215913234253238,-0.129983986371869,0.035));
#1715=CARTESIAN_POINT('',(-0.0165115490428103,-0.129986633105321,0.0298721228367596));
#1716=CARTESIAN_POINT('',(-0.0190501129262337,-0.129985310428083,0.0298960489526234));
#1717=CARTESIAN_POINT('',(-0.0190501128087433,-0.127446633450096,0.0298960614183798));
#1718=CARTESIAN_POINT('',(-0.0164989396253575,-0.129986639675252,0.0312099839684775));
#1719=CARTESIAN_POINT('',(-0.0190438016553688,-0.129985313716491,0.0305653273933363));
#1720=CARTESIAN_POINT('',(-0.0190438081000128,-0.127446640020051,0.0305649919842434));
#1721=CARTESIAN_POINT('',(-0.0175884958303535,-0.129986071979792,0.0338852785016597));
#1722=CARTESIAN_POINT('',(-0.0195893136682627,-0.129985029486341,0.0319037034504322));
#1723=CARTESIAN_POINT('',(-0.0195885862025186,-0.127446072324569,0.0319026392508264));
#1724=CARTESIAN_POINT('',(-0.0202534028726825,-0.129984683473515,0.0349999999999954));
#1725=CARTESIAN_POINT('',(-0.0209224088631912,-0.129984334898858,0.0324603485268877));
#1726=CARTESIAN_POINT('',(-0.0209210397236759,-0.127444683818261,0.03246));
#1727=CARTESIAN_POINT('',(-0.0215913234253238,-0.129983986371869,0.035));
#1728=CARTESIAN_POINT('',(-0.0215913234253238,-0.129983986371869,0.03246));
#1729=CARTESIAN_POINT('',(-0.02159,-0.127443986716643,0.03246));
#1730=CARTESIAN_POINT('',(-0.02159,-0.127443986716643,0.035));
#1731=CARTESIAN_POINT('',(-0.0174986765746762,-0.127446118433873,0.035));
#1732=CARTESIAN_POINT('',(-0.0349986765746762,-0.127437000344775,0.035));
#1733=CARTESIAN_POINT('',(-0.035,-0.125,0.035));
#1734=CARTESIAN_POINT('',(-0.035,-0.122563,0.035));
#1735=CARTESIAN_POINT('',(1.61884144977975E-14,-0.122563,0.035));
#1736=CARTESIAN_POINT('',(-0.02159,-0.122563,0.035));
#1737=CARTESIAN_POINT('',(-0.02159,-0.122563,0.02992));
#1738=CARTESIAN_POINT('',(-0.0171905909487751,-0.120023,0.0324600000000001));
#1739=CARTESIAN_POINT('',(-0.0177679048897596,-0.120023,0.0321266876407657));
#1740=CARTESIAN_POINT('',(-0.018917886341955,-0.120576269898172,0.0314627455397776));
#1741=CARTESIAN_POINT('',(-0.0193925346620079,-0.121906305986821,0.0311887072044246));
#1742=CARTESIAN_POINT('',(-0.0193902786792536,-0.122572925615491,0.0311900096966751));
#1743=CARTESIAN_POINT('',(-0.02159,-0.122572925691276,0.02992));
#1744=CARTESIAN_POINT('',(-0.01651,-0.122572925691276,0.02992));
#1745=CARTESIAN_POINT('',(-0.01651,-0.122572925691276,0.01976));
#1746=CARTESIAN_POINT('',(-0.01651,-0.122572925691276,0.0223));
#1747=CARTESIAN_POINT('',(-0.01651,-0.122572925691276,0.0223));
#1748=CARTESIAN_POINT('',(-0.01651,-0.122572925691276,0.0223));
#1749=CARTESIAN_POINT('',(-0.01651,-0.125009118089098,0.0223));
#1750=CARTESIAN_POINT('',(-0.01651,-0.133795310486921,0.0223));
#1751=CARTESIAN_POINT('',(-0.02159,-0.133795310486921,0.0223));
#1752=CARTESIAN_POINT('',(-0.041148,-0.136335310486921,0.019252));
#1753=CARTESIAN_POINT('',(-0.041148,-0.137097310486921,0.019252));
#1754=CARTESIAN_POINT('',(-0.041148,-0.137097310486921,0.019252));
#1755=CARTESIAN_POINT('',(-0.041148,-0.137097310486921,0.019252));
#1756=CARTESIAN_POINT('',(-0.041148,-0.137097310486921,0.019252));
#1757=CARTESIAN_POINT('',(-0.041148,-0.136386562766738,0.0266171771915424));
#1758=CARTESIAN_POINT('',(-0.041148,-0.137097310486921,0.0266171771915424));
#1759=CARTESIAN_POINT('',(-0.041148,-0.137097310486921,0.0229345885957712));
#1760=CARTESIAN_POINT('',(-0.041148,-0.137097310486921,0.0266171771915424));
#1761=CARTESIAN_POINT('',(0.,-0.137097310486921,0.019252));
#1762=CARTESIAN_POINT('',(0.041148,-0.137097310486921,0.019252));
#1763=CARTESIAN_POINT('',(0.041148,-0.131359118089098,0.019252));
#1764=CARTESIAN_POINT('',(0.041148,-0.137097310486921,0.019252));
#1765=CARTESIAN_POINT('',(-0.041148,-0.137097310486921,0.0266171771915424));
#1766=CARTESIAN_POINT('',(-0.041148,-0.137097310486921,0.0266171771915424));
#1767=CARTESIAN_POINT('',(0.041148,-0.137097310486921,0.019252));
#1768=CARTESIAN_POINT('',(0.041148,-0.137097310486921,0.019252));
#1769=CARTESIAN_POINT('',(0.,-0.137097310486921,0.0266171771915424));
#1770=CARTESIAN_POINT('',(0.041148,-0.137097310486921,0.0266171771915424));
#1771=CARTESIAN_POINT('',(0.041148,-0.137097310486921,0.0229345885957712));
#1772=CARTESIAN_POINT('',(0.041148,-0.137097310486921,0.0266171771915424));
#1773=CARTESIAN_POINT('',(0.041148,-0.137097310486921,0.0266171771915424));
#1774=CARTESIAN_POINT('',(0.041148,-0.137097310486921,0.0266171771915424));
#1775=CARTESIAN_POINT('',(0.041148,-0.136335310486921,0.0266171771915424));
#1776=MECHANICAL_DESIGN_GEOMETRIC_PRESENTATION_REPRESENTATION('',(#983),
#1777);
#1777=(
GEOMETRIC_REPRESENTATION_CONTEXT(3)
GLOBAL_UNCERTAINTY_ASSIGNED_CONTEXT((#1778))
GLOBAL_UNIT_ASSIGNED_CONTEXT((#1781,#1780,#1779))
REPRESENTATION_CONTEXT('Part 2','TOP_LEVEL_ASSEMBLY_PART')
);
#1778=UNCERTAINTY_MEASURE_WITH_UNIT(LENGTH_MEASURE(2.E-5),#1781,
'DISTANCE_ACCURACY_VALUE','Maximum Tolerance applied to model');
#1779=(
NAMED_UNIT(*)
SI_UNIT($,.STERADIAN.)
SOLID_ANGLE_UNIT()
);
#1780=(
NAMED_UNIT(*)
PLANE_ANGLE_UNIT()
SI_UNIT($,.RADIAN.)
);
#1781=(
LENGTH_UNIT()
NAMED_UNIT(*)
SI_UNIT($,.METRE.)
);
#1782=PRODUCT_DEFINITION_SHAPE('','',#1783);
#1783=PRODUCT_DEFINITION('','',#1785,#1784);
#1784=PRODUCT_DEFINITION_CONTEXT('',#1791,'design');
#1785=PRODUCT_DEFINITION_FORMATION_WITH_SPECIFIED_SOURCE('','',#1787,
 .NOT_KNOWN.);
#1786=PRODUCT_RELATED_PRODUCT_CATEGORY('','',(#1787));
#1787=PRODUCT('Part 2','Part 2','Part 2',(#1789));
#1788=PRODUCT_CATEGORY('','');
#1789=PRODUCT_CONTEXT('',#1791,'mechanical');
#1790=APPLICATION_PROTOCOL_DEFINITION('international standard',
'ap242_managed_model_based_3d_engineering',2020,#1791);
#1791=APPLICATION_CONTEXT('managed model based 3d engineering');
ENDSEC;
END-ISO-10303-21;
